<svg xmlns="http://www.w3.org/2000/svg" viewBox="0 0 800 1067" width="800" height="1067"><defs><radialGradient id="pf" cx="50%" cy="38%" r="75%">
    <stop offset="0%" stop-color="#2a4a40"/><stop offset="100%" stop-color="#0c1c18"/></radialGradient>
    <linearGradient id="pfg" x1="0" y1="0" x2="0" y2="1">
    <stop offset="0%" stop-color="#ffffff" stop-opacity="0.25"/><stop offset="100%" stop-color="#ffffff" stop-opacity="0"/></linearGradient></defs>
  <rect width="800" height="1067" fill="url(#pf)"/>
  <ellipse cx="400" cy="533.5" rx="336" ry="448.14" fill="#E2552B" opacity="0.10"/>
  <!-- pedestal -->
  <ellipse cx="400" cy="832.26" rx="240" ry="40" fill="#0a1714" opacity="0.6"/>
  <rect x="176" y="746.9" width="448.00000000000006" height="106.7" rx="8" fill="#23413a"/>
  <rect x="176" y="746.9" width="448.00000000000006" height="14" rx="6" fill="url(#pfg)"/>
  <!-- bottle -->
  <g>
    <rect x="296" y="320.09999999999997" width="208" height="426.8" rx="18" fill="#d9b27a" opacity="0.92"/>
    <rect x="296" y="320.09999999999997" width="80" height="426.8" rx="18" fill="#FCF6E8" opacity="0.35"/>
    <rect x="344" y="234.74" width="112.00000000000001" height="106.7" rx="6" fill="#caa46d"/>
    <rect x="360" y="170.72" width="80" height="74.69000000000001" rx="4" fill="#E8B53A"/>
    <rect x="320" y="469.48" width="160" height="149.38000000000002" rx="3" fill="#0F211D" opacity="0.85"/>
    <text x="400" y="544.17" font-family="Georgia,serif" font-size="26" fill="#E8B53A" text-anchor="middle" letter-spacing="3">VERDANT</text>
    <text x="400" y="586.85" font-family="Georgia,serif" font-size="13" fill="#FCF6E8" text-anchor="middle" letter-spacing="6">PARFUM</text>
  </g>
  <ellipse cx="320" cy="362.78000000000003" rx="10" ry="149.38000000000002" fill="#fff" opacity="0.18"/></svg>