<svg width="372" height="98" viewBox="0 0 372 98" fill="none" xmlns="http://www.w3.org/2000/svg">
<g clip-path="url(#clip0_15151_12564)">
<path fill-rule="evenodd" clip-rule="evenodd" d="M41.6149 0C42.9669 0 44.0629 1.09598 44.0629 2.44794V20.5541C44.0629 21.0992 44.7221 21.3722 45.1077 20.9868L64.6601 1.43434C65.578 0.516358 66.8233 0.00019533 68.1214 0H89.56C90.2092 9.89013e-05 90.8319 0.258179 91.2909 0.71717L98.6347 8.06098C99.5904 9.0169 99.5904 10.5666 98.6347 11.5225L89.1705 20.9868C88.785 21.3723 89.0579 22.0314 89.6031 22.0314H109.143C109.793 22.0315 110.415 22.2896 110.874 22.7486L118.218 30.0925C119.174 31.0484 119.174 32.598 118.218 33.5539L108.575 43.1975C108.097 43.6754 108.097 44.4504 108.575 44.9282L116.487 52.8409C118.704 55.0575 119.949 58.0638 119.949 61.1984C119.949 64.333 118.704 67.3393 116.487 69.5559L89.56 96.4832C88.642 97.4012 87.3968 97.9172 86.0986 97.9175H78.334C76.982 97.9175 75.8861 96.8215 75.8861 95.4695V77.3634C75.8861 76.8182 75.2268 76.5453 74.8413 76.9308L55.2889 96.4832C54.3709 97.4012 53.1256 97.9172 51.8275 97.9175H30.3889C29.7397 97.9175 29.117 97.6592 28.658 97.2002L21.3143 89.8564C20.3585 88.9005 20.3585 87.351 21.3143 86.395L30.7784 76.9308C31.164 76.5453 30.891 75.886 30.3459 75.886H10.8053C10.1562 75.886 9.53357 75.6278 9.07458 75.1688L1.73077 67.825C0.775032 66.8691 0.775034 65.3195 1.73077 64.3636L11.3743 54.72C11.8522 54.2421 11.8522 53.4671 11.3743 52.9893L3.46153 45.0766C1.24515 42.86 0 39.8536 0 36.7191C0 33.5845 1.24515 30.5782 3.46153 28.3616L30.3889 1.43434C31.3069 0.516358 32.5522 0.000195948 33.8503 0H41.6149ZM49.1333 22.0314C45.8871 22.0314 42.7723 23.3219 40.4771 25.6172L14.329 51.7653C13.5582 52.5364 14.1042 53.8544 15.1944 53.8546H50.9C51.99 53.8549 52.5359 55.1731 51.7653 55.9439L33.9125 73.7967C33.1416 74.5678 33.6875 75.8858 34.7778 75.886H70.8156C74.0619 75.886 77.1766 74.5955 79.4718 72.3003L105.62 46.1522C106.343 45.4296 105.908 44.2252 104.953 44.0773L104.755 44.0629H69.049C67.9587 44.0629 67.4128 42.7447 68.1836 41.9736L86.0364 24.1208C86.8073 23.3498 86.2614 22.0316 85.1711 22.0314H49.1333Z" fill="white"/>
</g>
<path d="M164.93 75.3132V21.7412H171.761L201.819 63.2325L198.583 63.7359V21.7412H206.996V75.3132H200.165L170.323 33.5342L173.415 32.959V75.3132H164.93Z" fill="white"/>
<path d="M234.124 76.1761C230.241 76.1761 226.79 75.2892 223.77 73.5155C220.797 71.6938 218.472 69.2489 216.794 66.1808C215.117 63.0648 214.278 59.5892 214.278 55.754C214.278 51.823 215.117 48.3474 216.794 45.3273C218.52 42.3071 220.821 39.9341 223.698 38.2083C226.574 36.4346 229.834 35.5477 233.477 35.5477C236.402 35.5477 239.014 36.051 241.315 37.0578C243.616 38.0645 245.558 39.4547 247.14 41.2285C248.722 42.9543 249.92 44.9438 250.735 47.1969C251.598 49.45 252.03 51.847 252.03 54.3878C252.03 55.011 252.006 55.6582 251.958 56.3293C251.91 57.0005 251.814 57.6237 251.67 58.1989H220.677V51.7271H247.068L243.185 54.6754C243.664 52.3264 243.497 50.241 242.682 48.4193C241.915 46.5497 240.716 45.0876 239.086 44.0329C237.504 42.9303 235.634 42.379 233.477 42.379C231.32 42.379 229.402 42.9303 227.725 44.0329C226.047 45.0876 224.752 46.6216 223.841 48.6351C222.931 50.6006 222.571 52.9975 222.763 55.8259C222.523 58.4626 222.883 60.7637 223.841 62.7292C224.848 64.6947 226.238 66.2287 228.012 67.3313C229.834 68.4339 231.895 68.9852 234.196 68.9852C236.545 68.9852 238.535 68.4579 240.165 67.4033C241.843 66.3486 243.161 64.9823 244.12 63.3045L250.735 66.5403C249.968 68.362 248.77 70.0159 247.14 71.502C245.558 72.9402 243.64 74.0908 241.387 74.9537C239.182 75.7686 236.761 76.1761 234.124 76.1761Z" fill="white"/>
<path d="M277.29 76.1761C273.551 76.1761 270.123 75.2892 267.007 73.5155C263.939 71.7417 261.494 69.3208 259.672 66.2527C257.851 63.1846 256.94 59.709 256.94 55.8259C256.94 51.8949 257.851 48.4194 259.672 45.3992C261.494 42.3311 263.939 39.9341 267.007 38.2083C270.075 36.4346 273.503 35.5477 277.29 35.5477C281.125 35.5477 284.553 36.4346 287.573 38.2083C290.641 39.9341 293.062 42.3311 294.836 45.3992C296.657 48.4194 297.568 51.8949 297.568 55.8259C297.568 59.757 296.657 63.2565 294.836 66.3246C293.014 69.3927 290.569 71.8137 287.501 73.5874C284.433 75.3132 281.029 76.1761 277.29 76.1761ZM277.29 68.6257C279.591 68.6257 281.628 68.0744 283.402 66.9718C285.176 65.8692 286.566 64.3591 287.573 62.4416C288.627 60.476 289.155 58.2708 289.155 55.8259C289.155 53.3811 288.627 51.1998 287.573 49.2823C286.566 47.3647 285.176 45.8546 283.402 44.752C281.628 43.6494 279.591 43.0981 277.29 43.0981C275.037 43.0981 272.999 43.6494 271.178 44.752C269.404 45.8546 267.99 47.3647 266.935 49.2823C265.928 51.1998 265.425 53.3811 265.425 55.8259C265.425 58.2708 265.928 60.476 266.935 62.4416C267.99 64.3591 269.404 65.8692 271.178 66.9718C272.999 68.0744 275.037 68.6257 277.29 68.6257Z" fill="white"/>
<path d="M298.775 75.3132L312.366 55.8259L298.775 36.4106H308.339L319.485 52.662H314.883L326.029 36.4106H335.593L321.93 55.8259L335.521 75.3132H325.957L314.955 58.9899H319.413L308.339 75.3132H298.775Z" fill="white"/>
<path d="M350.65 76.1761C348.013 76.1761 345.688 75.7207 343.675 74.8098C341.709 73.8511 340.175 72.5567 339.072 70.9268C337.97 69.2489 337.418 67.2834 337.418 65.0303C337.418 62.9209 337.874 61.0273 338.785 59.3495C339.744 57.6716 341.206 56.2574 343.171 55.1069C345.137 53.9563 347.606 53.1414 350.578 52.662L364.097 50.4328V56.8327L352.16 58.918C350.003 59.3015 348.421 59.9967 347.414 61.0034C346.407 61.9622 345.904 63.2086 345.904 64.7426C345.904 66.2287 346.455 67.4512 347.558 68.41C348.708 69.3208 350.17 69.7762 351.944 69.7762C354.149 69.7762 356.067 69.2969 357.697 68.3381C359.375 67.3793 360.669 66.1089 361.58 64.5269C362.491 62.897 362.946 61.0993 362.946 59.1338V49.1384C362.946 47.2209 362.227 45.6628 360.789 44.4644C359.399 43.218 357.529 42.5947 355.18 42.5947C353.023 42.5947 351.129 43.17 349.499 44.3206C347.917 45.4232 346.743 46.8613 345.976 48.6351L339.216 45.2554C339.935 43.3378 341.11 41.6599 342.74 40.2218C344.37 38.7356 346.263 37.5851 348.421 36.7701C350.626 35.9552 352.951 35.5477 355.396 35.5477C358.464 35.5477 361.172 36.123 363.521 37.2735C365.918 38.424 367.764 40.03 369.058 42.0914C370.401 44.1048 371.072 46.4538 371.072 49.1384V75.3132H363.306V68.2662L364.96 68.4819C364.049 70.0639 362.874 71.4301 361.436 72.5807C360.046 73.7312 358.44 74.6181 356.618 75.2413C354.844 75.8645 352.855 76.1761 350.65 76.1761Z" fill="white"/>
<defs>
<clipPath id="clip0_15151_12564">
<rect width="119.949" height="97.9175" fill="white"/>
</clipPath>
</defs>
</svg>
