<svg width="137" height="36" viewBox="0 0 137 36" fill="none" xmlns="http://www.w3.org/2000/svg">
<g clip-path="url(#clip0_15151_3303)">
<path fill-rule="evenodd" clip-rule="evenodd" d="M15.3 0C15.7971 0 16.2 0.402943 16.2 0.9V7.55683C16.2 7.75726 16.4424 7.85763 16.5841 7.71592L23.7727 0.527344C24.1102 0.189842 24.568 7.18144e-05 25.0453 0H32.9273C33.166 3.63617e-05 33.395 0.0949212 33.5637 0.263672L36.2637 2.96367C36.6151 3.31512 36.6151 3.88488 36.2637 4.23633L32.7841 7.71592C32.6424 7.85766 32.7427 8.09997 32.9432 8.1H40.1273C40.366 8.10004 40.595 8.19492 40.7637 8.36367L43.4637 11.0637C43.8151 11.4151 43.8151 11.9848 43.4637 12.3363L39.9182 15.8818C39.7425 16.0575 39.7425 16.3425 39.9182 16.5182L42.8273 19.4273C43.6423 20.2423 44.1 21.3475 44.1 22.5C44.1 23.6524 43.6422 24.7577 42.8273 25.5727L32.9273 35.4727C32.5898 35.8102 32.132 35.9999 31.6547 36H28.8C28.3029 36 27.9 35.5971 27.9 35.1V28.4431C27.9 28.2427 27.6576 28.1424 27.5159 28.2841L20.3273 35.4727C19.9898 35.8102 19.532 35.9999 19.0547 36H11.1727C10.934 36 10.7051 35.905 10.5363 35.7363L7.83633 33.0363C7.48495 32.6848 7.48495 32.1151 7.83633 31.7637L11.3159 28.2841C11.4576 28.1424 11.3573 27.9 11.1568 27.9H3.97265C3.73401 27.9 3.50508 27.805 3.33633 27.6363L0.636328 24.9363C0.284945 24.5849 0.284946 24.0151 0.636328 23.6637L4.18183 20.1182C4.35753 19.9425 4.35753 19.6575 4.18183 19.4818L1.27265 16.5727C0.457787 15.7577 0 14.6524 0 13.5C0 12.3475 0.457786 11.2423 1.27265 10.4273L11.1727 0.527344C11.5102 0.189842 11.968 7.20417e-05 12.4453 0H15.3ZM18.0642 8.1C16.8707 8.1 15.7255 8.57444 14.8817 9.41832L5.26817 19.0318C4.98475 19.3153 5.18548 19.7999 5.58633 19.8H18.7137C19.1145 19.8001 19.3152 20.2847 19.0319 20.5681L12.4682 27.1318C12.1847 27.4153 12.3854 27.8999 12.7863 27.9H26.0358C27.2293 27.9 28.3745 27.4255 29.2183 26.5817L38.8319 16.9681C39.0975 16.7025 38.9378 16.2597 38.5866 16.2053L38.5137 16.2H25.3863C24.9854 16.2 24.7847 15.7153 25.0682 15.4318L31.6319 8.86817C31.9153 8.58469 31.7146 8.10005 31.3137 8.1H18.0642Z" fill="#6F65E8"/>
</g>
<path d="M60.6375 27.6893V7.99316H63.149L74.2 23.2477L73.0103 23.4328V7.99316H76.1035V27.6893H73.5919L62.6203 12.3289L63.7571 12.1174V27.6893H60.6375Z" fill="black"/>
<path d="M86.0773 28.0065C84.6497 28.0065 83.3807 27.6804 82.2703 27.0283C81.1776 26.3586 80.3227 25.4597 79.7059 24.3317C79.089 23.186 78.7805 21.9082 78.7805 20.4982C78.7805 19.0529 79.089 17.7751 79.7059 16.6647C80.3404 15.5543 81.1864 14.6819 82.2439 14.0474C83.3014 13.3953 84.4999 13.0692 85.8394 13.0692C86.9145 13.0692 87.8751 13.2543 88.7211 13.6244C89.5671 13.9945 90.2809 14.5057 90.8626 15.1578C91.4442 15.7923 91.8848 16.5237 92.1845 17.3521C92.5017 18.1805 92.6603 19.0618 92.6603 19.9959C92.6603 20.225 92.6515 20.463 92.6339 20.7097C92.6163 20.9565 92.581 21.1856 92.5281 21.3971H81.1335V19.0177H90.8361L89.4085 20.1016C89.5847 19.238 89.5231 18.4713 89.2234 17.8016C88.9414 17.1142 88.5008 16.5766 87.9015 16.1889C87.3199 15.7835 86.6325 15.5808 85.8394 15.5808C85.0463 15.5808 84.3413 15.7835 83.7244 16.1889C83.1075 16.5766 82.6316 17.1406 82.2968 17.8809C81.9619 18.6035 81.8297 19.4848 81.9002 20.5246C81.8121 21.494 81.9442 22.34 82.2968 23.0627C82.6669 23.7853 83.178 24.3493 83.8301 24.7547C84.4999 25.1601 85.2578 25.3627 86.1038 25.3627C86.9674 25.3627 87.6989 25.1689 88.2981 24.7811C88.915 24.3934 89.3997 23.891 89.7522 23.2742L92.1845 24.4639C91.9025 25.1336 91.4618 25.7417 90.8626 26.2881C90.2809 26.8168 89.5759 27.2398 88.7476 27.5571C87.9368 27.8567 87.0467 28.0065 86.0773 28.0065Z" fill="black"/>
<path d="M101.947 28.0065C100.573 28.0065 99.3124 27.6804 98.1668 27.0283C97.0388 26.3762 96.1399 25.4861 95.4702 24.3581C94.8004 23.2301 94.4655 21.9523 94.4655 20.5246C94.4655 19.0794 94.8004 17.8016 95.4702 16.6912C96.1399 15.5632 97.0388 14.6819 98.1668 14.0474C99.2948 13.3953 100.555 13.0692 101.947 13.0692C103.357 13.0692 104.618 13.3953 105.728 14.0474C106.856 14.6819 107.746 15.5632 108.398 16.6912C109.068 17.8016 109.403 19.0794 109.403 20.5246C109.403 21.9699 109.068 23.2565 108.398 24.3845C107.728 25.5126 106.83 26.4026 105.702 27.0548C104.574 27.6893 103.322 28.0065 101.947 28.0065ZM101.947 25.2306C102.793 25.2306 103.542 25.0279 104.195 24.6225C104.847 24.2171 105.358 23.6619 105.728 22.9569C106.116 22.2343 106.31 21.4235 106.31 20.5246C106.31 19.6258 106.116 18.8238 105.728 18.1188C105.358 17.4138 104.847 16.8586 104.195 16.4532C103.542 16.0479 102.793 15.8452 101.947 15.8452C101.119 15.8452 100.37 16.0479 99.7002 16.4532C99.0481 16.8586 98.5281 17.4138 98.1404 18.1188C97.7702 18.8238 97.5852 19.6258 97.5852 20.5246C97.5852 21.4235 97.7702 22.2343 98.1404 22.9569C98.5281 23.6619 99.0481 24.2171 99.7002 24.6225C100.37 25.0279 101.119 25.2306 101.947 25.2306Z" fill="black"/>
<path d="M109.847 27.6893L114.843 20.5246L109.847 13.3865H113.363L117.461 19.3614H115.769L119.867 13.3865H123.383L118.36 20.5246L123.356 27.6893H119.84L115.795 21.6879H117.434L113.363 27.6893H109.847Z" fill="black"/>
<path d="M128.919 28.0065C127.949 28.0065 127.094 27.8391 126.354 27.5042C125.632 27.1517 125.068 26.6758 124.662 26.0766C124.257 25.4597 124.054 24.737 124.054 23.9087C124.054 23.1332 124.222 22.437 124.556 21.8201C124.909 21.2032 125.446 20.6833 126.169 20.2603C126.892 19.8373 127.799 19.5376 128.892 19.3614L133.862 18.5418V20.8948L129.474 21.6615C128.681 21.8025 128.099 22.058 127.729 22.4282C127.359 22.7807 127.174 23.2389 127.174 23.8029C127.174 24.3493 127.376 24.7987 127.782 25.1512C128.205 25.4861 128.742 25.6536 129.394 25.6536C130.205 25.6536 130.91 25.4773 131.51 25.1248C132.126 24.7723 132.602 24.3052 132.937 23.7236C133.272 23.1243 133.439 22.4634 133.439 21.7408V18.0659C133.439 17.3609 133.175 16.7881 132.646 16.3475C132.135 15.8892 131.448 15.6601 130.584 15.6601C129.791 15.6601 129.095 15.8716 128.496 16.2946C127.914 16.7 127.482 17.2287 127.2 17.8809L124.715 16.6383C124.979 15.9333 125.411 15.3164 126.01 14.7877C126.61 14.2413 127.306 13.8183 128.099 13.5186C128.91 13.219 129.765 13.0692 130.664 13.0692C131.792 13.0692 132.787 13.2807 133.651 13.7037C134.532 14.1267 135.211 14.7172 135.687 15.475C136.18 16.2153 136.427 17.0789 136.427 18.0659V27.6893H133.572V25.0984L134.18 25.1777C133.845 25.7593 133.413 26.2616 132.884 26.6846C132.373 27.1076 131.783 27.4337 131.113 27.6628C130.461 27.8919 129.729 28.0065 128.919 28.0065Z" fill="black"/>
<defs>
<clipPath id="clip0_15151_3303">
<rect width="44.1" height="36" fill="white"/>
</clipPath>
</defs>
</svg>
