<svg width="152" height="38" viewBox="0 0 152 38" fill="none" xmlns="http://www.w3.org/2000/svg">
<path fill-rule="evenodd" clip-rule="evenodd" d="M74.1281 28.0267C74.1281 28.2273 73.9655 28.3899 73.7649 28.3899H71.6598C71.4592 28.3899 71.2966 28.2273 71.2966 28.0267V26.8938C70.8937 27.3534 70.4108 27.7371 69.8446 28.04C69.0449 28.4588 68.1246 28.6663 67.0902 28.6663C65.8657 28.6663 64.7501 28.3649 63.748 27.7599C62.7484 27.1374 61.9548 26.2958 61.3711 25.2415C60.8051 24.1848 60.5225 22.9961 60.5225 21.6835C60.5225 20.3711 60.8034 19.1848 61.3693 18.1283C61.9526 17.0748 62.7368 16.2325 63.7177 15.61C64.7205 14.9856 65.8467 14.6741 67.0902 14.6741C68.1057 14.6741 69.0148 14.89 69.8133 15.3262C70.3871 15.6197 70.8816 16.0001 71.2966 16.4632V15.3128C71.2966 15.1122 71.4592 14.9496 71.6598 14.9496H73.7649C73.9655 14.9496 74.1281 15.1122 74.1281 15.3128V28.0267ZM67.5044 26.0001C68.6987 26.0001 69.649 25.6012 70.3708 24.8089C71.0952 23.9954 71.4619 22.9578 71.4619 21.6835C71.4619 20.8018 71.2914 20.0454 70.9559 19.4095C70.6374 18.755 70.177 18.2495 69.5791 17.8978C68.981 17.5284 68.28 17.3394 67.4768 17.3394C66.6746 17.3394 65.9667 17.5252 65.3498 17.895C64.7484 18.2664 64.2701 18.7805 63.9143 19.4389C63.5788 20.0753 63.4091 20.813 63.4091 21.656C63.4091 22.5167 63.579 23.2725 63.9143 23.9272L64.0529 24.1605C64.3924 24.6903 64.8334 25.1168 65.3764 25.4427C65.9938 25.8131 66.7015 26.0001 67.5044 26.0001Z" fill="white"/>
<path fill-rule="evenodd" clip-rule="evenodd" d="M85.6604 28.0264C85.6604 28.227 85.4978 28.3896 85.2972 28.3896H83.2197C83.0191 28.3896 82.8565 28.227 82.8565 28.0264V9.97101C82.8565 9.7704 83.0191 9.60778 83.2197 9.60778L85.2972 9.60782C85.4978 9.60783 85.6604 9.77045 85.6604 9.97105V28.0264Z" fill="white"/>
<path fill-rule="evenodd" clip-rule="evenodd" d="M77.0822 28.0262C77.0822 28.2268 77.2448 28.3895 77.4454 28.3895H79.5229C79.7235 28.3895 79.8862 28.2268 79.8862 28.0262V15.3124C79.8862 15.1118 79.7235 14.9492 79.5229 14.9492H77.4454C77.2448 14.9492 77.0822 15.1118 77.0822 15.3124V28.0262Z" fill="white"/>
<path fill-rule="evenodd" clip-rule="evenodd" d="M79.7328 12.1507C80.0573 11.806 80.2178 11.3792 80.2178 10.8815C80.2178 10.4002 80.0555 9.99002 79.7291 9.66362C79.4028 9.31881 78.9835 9.14755 78.4847 9.14746C77.9857 9.14746 77.5658 9.31866 77.2393 9.66362C76.9129 9.99002 76.7507 10.4002 76.7507 10.8815C76.7507 11.3791 76.9148 11.8097 77.2393 12.1544C77.5669 12.482 77.9871 12.6421 78.4847 12.6421C78.9821 12.642 79.4052 12.4782 79.7328 12.1507Z" fill="white"/>
<path fill-rule="evenodd" clip-rule="evenodd" d="M97.3297 30.435C96.593 31.1191 95.577 31.47 94.2612 31.47C93.2675 31.47 92.4144 31.2877 91.7043 30.9328C90.9914 30.594 90.3753 30.0943 89.8555 29.4311C89.796 29.356 89.684 29.35 89.6167 29.4183L88.015 31.0485C87.9615 31.1025 87.9539 31.1874 87.9975 31.2496C88.6401 32.1756 89.4911 32.8938 90.5462 33.4024C91.6203 33.9113 92.8418 34.1638 94.2061 34.1638C95.5899 34.1638 96.8123 33.8913 97.8697 33.3437C98.9428 32.7975 99.7762 32.0432 100.363 31.0779C100.97 30.1102 101.272 28.9843 101.272 27.7062V14.9485C101.272 14.748 101.109 14.5853 100.908 14.5853L98.8309 14.5852C98.6303 14.5852 98.4676 14.7478 98.4676 14.9484V16.4196C98.0643 15.9635 97.58 15.5883 97.0128 15.2981C96.1953 14.88 95.2584 14.6736 94.2061 14.6736C92.9817 14.6736 91.8748 14.9745 90.8906 15.5801C89.9273 16.1657 89.1626 16.9691 88.5973 17.9864L88.4944 18.1756C87.9958 19.1319 87.7477 20.2108 87.7477 21.4076C87.7478 22.684 88.031 23.8439 88.5973 24.882C89.1627 25.8997 89.9289 26.7044 90.8924 27.2902C91.8765 27.8768 92.9826 28.1691 94.2061 28.1691C95.2405 28.1691 96.1681 27.9617 96.9853 27.5437C97.5653 27.247 98.0588 26.8661 98.4676 26.4048V27.7062C98.4676 28.8645 98.0828 29.7694 97.3297 30.435ZM96.7511 24.9996C96.171 25.3336 95.4898 25.5029 94.703 25.5029C93.8972 25.5029 93.187 25.3326 92.5685 24.9969C91.97 24.6436 91.4942 24.1593 91.1404 23.5411C90.8048 22.9228 90.6354 22.2131 90.6353 21.4076C90.6353 20.6018 90.8039 19.9006 91.1386 19.3016C91.4931 18.6817 91.9735 18.2049 92.5731 17.8698C93.1716 17.5177 93.8709 17.3389 94.6754 17.3389C95.4801 17.3389 96.172 17.5197 96.7511 17.8707C97.3314 18.2048 97.7822 18.6842 98.1002 19.3025C98.4347 19.9011 98.6054 20.6102 98.6054 21.4351C98.6054 22.2604 98.4443 22.9799 98.1269 23.5981C97.8099 24.1968 97.3508 24.6644 96.7511 24.9996Z" fill="white"/>
<path d="M107.031 16.15C107.837 15.1627 108.978 14.6742 110.436 14.6741C111.116 14.6741 111.736 14.7968 112.292 15.0451C112.853 15.2775 113.371 15.672 113.844 16.2207C113.897 16.2826 113.894 16.3758 113.837 16.4347L112.207 18.1199C112.144 18.1849 112.04 18.1842 111.978 18.1182C111.715 17.8385 111.431 17.6413 111.124 17.5221C110.815 17.4018 110.448 17.3393 110.021 17.3393C109.138 17.3394 108.425 17.6207 107.869 18.1769C107.32 18.7256 107.031 19.5713 107.031 20.7449V28.0266C107.031 28.2272 106.868 28.3898 106.668 28.3898H104.59C104.39 28.3898 104.227 28.2272 104.227 28.0266V14.9515C104.227 14.7509 104.39 14.5883 104.59 14.5883L106.668 14.5881C106.868 14.5881 107.031 14.7507 107.031 14.9513V16.15Z" fill="white"/>
<path fill-rule="evenodd" clip-rule="evenodd" d="M114.968 28.0271C114.968 28.2277 115.13 28.3903 115.331 28.3903H117.408C117.609 28.3903 117.772 28.2277 117.772 28.0271V15.3132C117.772 15.1126 117.609 14.95 117.408 14.95H115.331C115.13 14.95 114.968 15.1126 114.968 15.3132V28.0271Z" fill="white"/>
<path fill-rule="evenodd" clip-rule="evenodd" d="M117.617 12.1513C117.942 11.8066 118.103 11.3797 118.103 10.882C118.103 10.4007 117.94 9.99062 117.614 9.6642C117.287 9.31948 116.868 9.14805 116.369 9.14805C115.87 9.14807 115.451 9.31942 115.125 9.6642C114.798 9.9906 114.636 10.4007 114.636 10.882C114.636 11.3798 114.8 11.8102 115.125 12.155C115.452 12.4824 115.872 12.6426 116.369 12.6427C116.867 12.6427 117.29 12.479 117.617 12.1513Z" fill="white"/>
<path fill-rule="evenodd" clip-rule="evenodd" d="M130.687 28.0265C130.687 28.2271 130.849 28.3897 131.05 28.3897H133.155C133.356 28.3897 133.518 28.2271 133.518 28.0265V9.97199C133.518 9.77139 133.356 9.60877 133.155 9.60876L131.05 9.60874C130.849 9.60873 130.687 9.77136 130.687 9.97197V16.4933C130.266 16.0163 129.762 15.626 129.176 15.326C128.36 14.8903 127.451 14.6739 126.453 14.6739C125.209 14.6739 124.093 14.9847 123.108 15.6098C122.127 16.2323 121.343 17.0746 120.759 18.1281C120.193 19.1846 119.913 20.371 119.913 21.6833C119.913 22.9959 120.195 24.1847 120.761 25.2413C121.344 26.295 122.129 27.1362 123.11 27.7587C124.094 28.3647 125.21 28.6662 126.453 28.6662C127.469 28.6662 128.39 28.4576 129.207 28.0398C129.78 27.7333 130.272 27.3445 130.687 26.878V28.0265ZM128.937 25.4452C128.358 25.8135 127.67 26 126.867 26C126.064 25.9999 125.355 25.8129 124.738 25.4425C124.212 25.1172 123.78 24.6908 123.443 24.1613L123.304 23.9271C122.969 23.2723 122.799 22.5165 122.799 21.6558C122.799 20.8128 122.969 20.0751 123.304 19.4387C123.66 18.7804 124.139 18.2671 124.741 17.8957C125.339 17.5265 126.036 17.3392 126.839 17.3392C127.643 17.3392 128.332 17.5275 128.91 17.8957C129.512 18.2673 129.982 18.7736 130.319 19.4121C130.672 20.0473 130.852 20.8029 130.852 21.6833C130.852 22.5262 130.682 23.274 130.346 23.9298C130.009 24.5683 129.539 25.0736 128.937 25.4452Z" fill="white"/>
<path fill-rule="evenodd" clip-rule="evenodd" d="M142.754 17.7259C143.063 17.8926 143.339 18.0984 143.582 18.3435L143.615 18.3775C143.668 18.4345 143.755 18.4437 143.819 18.3991L145.708 17.0759C145.767 17.0347 145.781 16.9533 145.739 16.8947L145.71 16.8536C145.181 16.1326 144.504 15.5935 143.683 15.2388C142.868 14.8606 141.934 14.674 140.886 14.674C139.893 14.674 139.031 14.8337 138.306 15.158C137.6 15.4824 137.042 15.9518 136.638 16.5669C136.231 17.1678 136.031 17.8817 136.031 18.7004C136.031 19.5131 136.204 20.1864 136.559 20.6998C136.924 21.1988 137.385 21.5926 137.94 21.88C138.054 21.939 138.17 21.996 138.287 22.051C138.35 22.0808 138.414 22.11 138.478 22.1386C138.858 22.3081 139.252 22.4564 139.656 22.5826C139.799 22.6216 139.94 22.6613 140.08 22.7015C140.151 22.7219 140.221 22.7425 140.291 22.7631L140.303 22.7668C140.672 22.8763 141.027 22.9898 141.364 23.1061C141.884 23.2674 142.304 23.4858 142.615 23.7453C142.92 23.9699 143.075 24.2883 143.075 24.7225C143.075 25.1428 142.895 25.4713 142.516 25.7199C142.127 25.9563 141.562 26.0836 140.803 26.0836C140.143 26.0836 139.542 25.9801 138.997 25.776L138.768 25.6823C138.295 25.4592 137.864 25.1479 137.475 24.7469C137.402 24.6717 137.286 24.6579 137.2 24.7179L135.347 26.011C135.284 26.0552 135.271 26.1439 135.32 26.204L135.347 26.237C135.757 26.7332 136.242 27.1679 136.795 27.5366C137.359 27.8941 137.976 28.1777 138.634 28.3843C139.311 28.5725 140.026 28.6663 140.775 28.6663C142.274 28.6663 143.483 28.2997 144.385 27.5513C145.308 26.8003 145.769 25.7785 145.769 24.5021C145.769 23.6697 145.588 22.9801 145.214 22.4485C144.869 21.9314 144.418 21.5192 143.863 21.2132C143.605 21.0706 143.34 20.9428 143.069 20.8298C143.003 20.802 142.935 20.7751 142.868 20.7491C142.745 20.7016 142.621 20.6572 142.495 20.6157C142.442 20.5981 142.388 20.581 142.335 20.5645C142.273 20.5455 142.211 20.5273 142.149 20.5097C141.833 20.411 141.522 20.3149 141.216 20.2214L140.996 20.1542C140.806 20.0966 140.619 20.0399 140.434 19.9843C139.911 19.8221 139.496 19.6264 139.183 19.4002C138.897 19.1934 138.752 18.9024 138.752 18.5066C138.752 18.1181 138.909 17.8275 139.232 17.6176C139.582 17.3842 140.1 17.2566 140.803 17.2566C141.464 17.2566 142.048 17.3817 142.557 17.6277L142.754 17.7259Z" fill="white"/>
<path fill-rule="evenodd" clip-rule="evenodd" d="M63.0546 11.8373C63.0546 12.0379 62.892 12.2006 62.6914 12.2006H56.797V28.027C56.797 28.2277 56.6344 28.3903 56.4338 28.3903H54.3515C54.1509 28.3903 53.9882 28.2277 53.9882 28.027V12.2006H48.0673C47.8667 12.2006 47.7041 12.0379 47.7041 11.8373V9.96746C47.7041 9.76686 47.8667 9.60423 48.0673 9.60423H62.6914C62.892 9.60423 63.0546 9.76686 63.0546 9.96746V11.8373Z" fill="white"/>
<path d="M0 2.85C0 1.27599 1.27599 0 2.85 0H35.15C36.724 0 38 1.27599 38 2.85V35.15C38 36.724 36.724 38 35.15 38H2.85C1.27599 38 0 36.724 0 35.15V2.85Z" fill="url(#paint0_linear_18644_4810)"/>
<path d="M29.4313 13.1518C29.4313 13.5009 29.1482 13.784 28.7991 13.784L19.3926 13.784C19.1411 13.784 18.8999 13.8839 18.7221 14.0617L14.0618 18.7218C13.884 18.8997 13.7841 19.1409 13.7841 19.3924L13.7841 28.7986C13.7841 29.1478 13.501 29.4308 13.1519 29.4308L9.20057 29.4308C8.85141 29.4308 8.56836 29.1478 8.56836 28.7986L8.56836 17.2319C8.56836 16.9804 8.66827 16.7392 8.84612 16.5614L16.5617 8.8461C16.7396 8.66827 16.9808 8.56836 17.2323 8.56836L28.7991 8.56836C29.1482 8.56836 29.4313 8.8514 29.4313 9.20055L29.4313 13.1518Z" fill="white"/>
<path d="M29.4313 18.9996L29.4313 27.1858C29.4313 27.453 29.3186 27.7078 29.1209 27.8875L28.4751 28.4746L27.7038 29.1815C27.5289 29.3419 27.3003 29.4308 27.063 29.4308L24.8478 29.4308C24.4986 29.4308 24.2155 29.1478 24.2155 28.7986L24.2155 24.2152L19.632 24.2152C19.2829 24.2152 18.9998 23.9321 18.9998 23.583L18.9998 21.2246C18.9998 20.9747 19.0984 20.7349 19.2743 20.5574L19.956 19.8688L20.5476 19.2773C20.7254 19.0995 20.9666 18.9996 21.2181 18.9996L29.4313 18.9996Z" fill="white"/>
<defs>
<linearGradient id="paint0_linear_18644_4810" x1="-8.95117" y1="-6.94791" x2="33.6071" y2="33.8598" gradientUnits="userSpaceOnUse">
<stop stop-color="#3758F9"/>
<stop offset="1" stop-color="#8AA7FF"/>
</linearGradient>
</defs>
</svg>
