<svg width="152" height="38" viewBox="0 0 152 38" fill="none" xmlns="http://www.w3.org/2000/svg">
<path fill-rule="evenodd" clip-rule="evenodd" d="M74.1276 28.0276C74.1276 28.2283 73.965 28.3909 73.7644 28.3909H71.6593C71.4587 28.3909 71.2961 28.2283 71.2961 28.0276V26.8948C70.8933 27.3543 70.4103 27.7381 69.8441 28.041C69.0445 28.4598 68.1241 28.6673 67.0897 28.6673C65.8652 28.6673 64.7496 28.3659 63.7475 27.7608C62.7479 27.1384 61.9543 26.2968 61.3706 25.2425C60.8047 24.1858 60.522 22.9971 60.522 21.6845C60.522 20.3721 60.8029 19.1858 61.3688 18.1293C61.9521 17.0758 62.7363 16.2334 63.7172 15.6109C64.72 14.9866 65.8463 14.675 67.0897 14.675C68.1052 14.675 69.0143 14.891 69.8128 15.3271C70.3866 15.6207 70.8811 16.0011 71.2961 16.4641V15.3138C71.2961 15.1132 71.4587 14.9506 71.6593 14.9506H73.7644C73.965 14.9506 74.1276 15.1132 74.1276 15.3138V28.0276ZM67.5039 26.0011C68.6982 26.0011 69.6486 25.6021 70.3703 24.8099C71.0947 23.9964 71.4614 22.9588 71.4614 21.6845C71.4614 20.8028 71.2909 20.0464 70.9554 19.4105C70.6369 18.756 70.1765 18.2505 69.5786 17.8987C68.9805 17.5293 68.2795 17.3403 67.4764 17.3403C66.6741 17.3403 65.9662 17.5262 65.3493 17.896C64.7479 18.2674 64.2697 18.7815 63.9138 19.4399C63.5783 20.0763 63.4086 20.814 63.4086 21.6569C63.4086 22.5177 63.5785 23.2735 63.9138 23.9282L64.0524 24.1615C64.3919 24.6912 64.8329 25.1178 65.3759 25.4436C65.9933 25.8141 66.701 26.0011 67.5039 26.0011Z" fill="#1F2937"/>
<path fill-rule="evenodd" clip-rule="evenodd" d="M85.6599 28.0274C85.6599 28.228 85.4973 28.3906 85.2967 28.3906H83.2192C83.0186 28.3906 82.856 28.228 82.856 28.0274V9.97198C82.856 9.77138 83.0186 9.60875 83.2192 9.60876L85.2967 9.6088C85.4973 9.6088 85.6599 9.77143 85.6599 9.97203V28.0274Z" fill="#1F2937"/>
<path fill-rule="evenodd" clip-rule="evenodd" d="M77.0817 28.0272C77.0817 28.2278 77.2443 28.3904 77.4449 28.3904H79.5224C79.723 28.3904 79.8857 28.2278 79.8857 28.0272V15.3134C79.8857 15.1128 79.723 14.9501 79.5224 14.9501H77.4449C77.2443 14.9501 77.0817 15.1128 77.0817 15.3134V28.0272Z" fill="#1F2937"/>
<path fill-rule="evenodd" clip-rule="evenodd" d="M79.7323 12.1517C80.0568 11.8069 80.2173 11.3801 80.2173 10.8824C80.2173 10.4011 80.055 9.991 79.7287 9.66459C79.4023 9.31978 78.983 9.14852 78.4842 9.14844C77.9852 9.14844 77.5653 9.31964 77.2388 9.66459C76.9124 9.991 76.7502 10.4011 76.7502 10.8824C76.7502 11.3801 76.9144 11.8106 77.2388 12.1554C77.5664 12.483 77.9866 12.6431 78.4842 12.6431C78.9816 12.643 79.4047 12.4792 79.7323 12.1517Z" fill="#1F2937"/>
<path fill-rule="evenodd" clip-rule="evenodd" d="M97.3292 30.4359C96.5925 31.1201 95.5765 31.471 94.2607 31.471C93.267 31.471 92.4139 31.2887 91.7038 30.9337C90.9909 30.595 90.3748 30.0953 89.855 29.4321C89.7955 29.3569 89.6835 29.351 89.6162 29.4192L88.0145 31.0495C87.961 31.1034 87.9534 31.1884 87.997 31.2506C88.6396 32.1766 89.4906 32.8948 90.5457 33.4034C91.6198 33.9122 92.8413 34.1648 94.2056 34.1648C95.5895 34.1648 96.8118 33.8923 97.8692 33.3446C98.9423 32.7985 99.7757 32.0441 100.363 31.0788C100.97 30.1112 101.271 28.9853 101.271 27.7072V14.9495C101.271 14.7489 101.108 14.5863 100.908 14.5863L98.8304 14.5862C98.6298 14.5862 98.4671 14.7488 98.4671 14.9494V16.4205C98.0638 15.9645 97.5795 15.5893 97.0123 15.2991C96.1948 14.8809 95.2579 14.6746 94.2056 14.6746C92.9812 14.6746 91.8743 14.9755 90.8901 15.5811C89.9268 16.1667 89.1621 16.97 88.5968 17.9874L88.4939 18.1766C87.9953 19.1329 87.7472 20.2118 87.7472 21.4086C87.7473 22.685 88.0306 23.8449 88.5968 24.883C89.1622 25.9007 89.9284 26.7054 90.8919 27.2912C91.876 27.8777 92.9822 28.1701 94.2056 28.1701C95.24 28.1701 96.1676 27.9627 96.9848 27.5447C97.5648 27.2479 98.0583 26.8671 98.4671 26.4058V27.7072C98.4671 28.8655 98.0823 29.7704 97.3292 30.4359ZM96.7506 25.0006C96.1705 25.3346 95.4894 25.5039 94.7025 25.5039C93.8967 25.5039 93.1865 25.3336 92.5681 24.9978C91.9695 24.6445 91.4937 24.1603 91.1399 23.5421C90.8043 22.9238 90.6349 22.214 90.6348 21.4086C90.6348 20.6028 90.8034 19.9016 91.1381 19.3026C91.4926 18.6827 91.973 18.2059 92.5727 17.8708C93.1711 17.5187 93.8704 17.3399 94.6749 17.3399C95.4796 17.3399 96.1715 17.5207 96.7506 17.8717C97.3309 18.2058 97.7818 18.6851 98.0998 19.3035C98.4342 19.9021 98.6049 20.6112 98.6049 21.4361C98.6049 22.2613 98.4438 22.9809 98.1264 23.599C97.8094 24.1978 97.3503 24.6654 96.7506 25.0006Z" fill="#1F2937"/>
<path d="M107.03 16.151C107.836 15.1637 108.978 14.6751 110.435 14.6751C111.116 14.6751 111.735 14.7978 112.291 15.0461C112.853 15.2785 113.37 15.673 113.843 16.2217C113.897 16.2836 113.894 16.3768 113.837 16.4357L112.207 18.1208C112.144 18.1859 112.039 18.1851 111.977 18.1191C111.715 17.8395 111.43 17.6423 111.124 17.5231C110.815 17.4028 110.448 17.3403 110.021 17.3403C109.137 17.3404 108.424 17.6217 107.868 18.1779C107.319 18.7266 107.03 19.5723 107.03 20.7458V28.0276C107.03 28.2282 106.868 28.3908 106.667 28.3908H104.59C104.389 28.3908 104.227 28.2282 104.227 28.0276V14.9525C104.227 14.7519 104.389 14.5893 104.59 14.5893L106.667 14.5891C106.868 14.589 107.03 14.7517 107.03 14.9523V16.151Z" fill="#1F2937"/>
<path fill-rule="evenodd" clip-rule="evenodd" d="M114.967 28.028C114.967 28.2286 115.13 28.3913 115.33 28.3913H117.408C117.609 28.3913 117.771 28.2286 117.771 28.028V15.3142C117.771 15.1136 117.609 14.951 117.408 14.951H115.33C115.13 14.951 114.967 15.1136 114.967 15.3142V28.028Z" fill="#1F2937"/>
<path fill-rule="evenodd" clip-rule="evenodd" d="M117.617 12.1523C117.941 11.8075 118.103 11.3807 118.103 10.883C118.103 10.4017 117.94 9.99159 117.613 9.66518C117.287 9.32045 116.868 9.14902 116.369 9.14902C115.87 9.14905 115.451 9.3204 115.124 9.66518C114.798 9.99158 114.636 10.4017 114.636 10.883C114.636 11.3807 114.8 11.8112 115.124 12.156C115.452 12.4834 115.871 12.6436 116.369 12.6436C116.866 12.6436 117.289 12.48 117.617 12.1523Z" fill="#1F2937"/>
<path fill-rule="evenodd" clip-rule="evenodd" d="M130.686 28.0275C130.686 28.2281 130.849 28.3907 131.049 28.3907H133.154C133.355 28.3907 133.518 28.2281 133.518 28.0275V9.97297C133.518 9.77237 133.355 9.60974 133.154 9.60974L131.049 9.60971C130.849 9.60971 130.686 9.77233 130.686 9.97294V16.4943C130.266 16.0172 129.762 15.627 129.175 15.3269C128.359 14.8913 127.451 14.6749 126.452 14.6749C125.209 14.6749 124.092 14.9857 123.107 15.6107C122.126 16.2332 121.342 17.0756 120.759 18.1291C120.193 19.1856 119.912 20.3719 119.912 21.6843C119.912 22.9969 120.195 24.1856 120.761 25.2423C121.344 26.296 122.128 27.1371 123.109 27.7597C124.094 28.3657 125.21 28.6671 126.452 28.6671C127.469 28.6671 128.39 28.4586 129.207 28.0408C129.779 27.7343 130.272 27.3455 130.686 26.879V28.0275ZM128.937 25.4462C128.358 25.8144 127.67 26.0009 126.866 26.0009C126.063 26.0009 125.355 25.8139 124.737 25.4434C124.212 25.1182 123.78 24.6918 123.442 24.1622L123.304 23.928C122.969 23.2733 122.799 22.5175 122.799 21.6568C122.799 20.8138 122.968 20.0761 123.304 19.4397C123.66 18.7813 124.139 18.2681 124.74 17.8967C125.338 17.5274 126.036 17.3402 126.839 17.3401C127.642 17.3401 128.331 17.5285 128.91 17.8967C129.512 18.2683 129.982 18.7746 130.319 19.413C130.672 20.0483 130.851 20.8038 130.851 21.6843C130.851 22.5272 130.682 23.275 130.345 23.9308C130.008 24.5692 129.538 25.0746 128.937 25.4462Z" fill="#1F2937"/>
<path fill-rule="evenodd" clip-rule="evenodd" d="M142.753 17.7269C143.062 17.8935 143.338 18.0994 143.581 18.3445L143.615 18.3785C143.668 18.4355 143.755 18.4447 143.818 18.4001L145.708 17.0769C145.767 17.0357 145.781 16.9543 145.739 16.8957L145.709 16.8546C145.181 16.1336 144.504 15.5945 143.683 15.2398C142.867 14.8616 141.934 14.675 140.885 14.675C139.893 14.675 139.03 14.8347 138.305 15.159C137.599 15.4834 137.042 15.9528 136.637 16.5679C136.23 17.1688 136.03 17.8826 136.03 18.7014C136.03 19.5141 136.203 20.1874 136.558 20.7008C136.923 21.1998 137.384 21.5936 137.94 21.881C138.054 21.94 138.17 21.997 138.286 22.052C138.35 22.0818 138.414 22.111 138.478 22.1396C138.858 22.309 139.252 22.4574 139.655 22.5836C139.799 22.6226 139.94 22.6622 140.079 22.7025C140.15 22.7229 140.22 22.7434 140.29 22.7641L140.303 22.7677C140.672 22.8773 141.026 22.9908 141.364 23.1071C141.883 23.2684 142.303 23.4868 142.615 23.7463C142.919 23.9709 143.075 24.2892 143.075 24.7235C143.075 25.1438 142.894 25.4723 142.515 25.7209C142.127 25.9572 141.562 26.0846 140.802 26.0846C140.142 26.0846 139.541 25.9811 138.997 25.777L138.767 25.6833C138.294 25.4602 137.863 25.1489 137.475 24.7479C137.402 24.6726 137.285 24.6589 137.199 24.7188L135.347 26.0119C135.283 26.0562 135.271 26.1449 135.319 26.2049L135.347 26.238C135.757 26.7342 136.241 27.1689 136.794 27.5376C137.359 27.8951 137.976 28.1787 138.633 28.3853C139.311 28.5735 140.025 28.6672 140.775 28.6672C142.274 28.6672 143.482 28.3007 144.384 27.5523C145.308 26.8013 145.768 25.7795 145.768 24.5031C145.768 23.6707 145.588 22.9811 145.214 22.4495C144.868 21.9324 144.417 21.5201 143.863 21.2142C143.604 21.0716 143.34 20.9438 143.069 20.8308C143.002 20.803 142.935 20.7761 142.868 20.7501C142.745 20.7026 142.62 20.6581 142.495 20.6166C142.441 20.5991 142.388 20.582 142.334 20.5655C142.272 20.5465 142.21 20.5282 142.148 20.5107C141.832 20.412 141.521 20.3159 141.216 20.2224L140.995 20.1552C140.806 20.0975 140.619 20.0409 140.433 19.9853C139.911 19.823 139.495 19.6273 139.182 19.4012C138.896 19.1944 138.752 18.9034 138.752 18.5076C138.752 18.119 138.908 17.8284 139.231 17.6185C139.581 17.3852 140.1 17.2576 140.802 17.2576C141.464 17.2576 142.047 17.3826 142.557 17.6286L142.753 17.7269Z" fill="#1F2937"/>
<path fill-rule="evenodd" clip-rule="evenodd" d="M63.0541 11.8383C63.0541 12.0389 62.8915 12.2015 62.6909 12.2015H56.7965V28.028C56.7965 28.2286 56.6339 28.3913 56.4333 28.3913H54.351C54.1504 28.3913 53.9878 28.2286 53.9878 28.028V12.2015H48.0668C47.8662 12.2015 47.7036 12.0389 47.7036 11.8383V9.96844C47.7036 9.76783 47.8662 9.60521 48.0668 9.60521H62.6909C62.8915 9.60521 63.0541 9.76783 63.0541 9.96844V11.8383Z" fill="#1F2937"/>
<path d="M0 2.85C0 1.27599 1.27599 0 2.85 0H35.15C36.724 0 38 1.27599 38 2.85V35.15C38 36.724 36.724 38 35.15 38H2.85C1.27599 38 0 36.724 0 35.15V2.85Z" fill="url(#paint0_linear_18641_2606)"/>
<path d="M29.4313 13.1518C29.4313 13.5009 29.1482 13.784 28.7991 13.784L19.3926 13.784C19.1411 13.784 18.8999 13.8839 18.7221 14.0617L14.0618 18.7218C13.884 18.8997 13.7841 19.1409 13.7841 19.3924L13.7841 28.7986C13.7841 29.1478 13.501 29.4308 13.1519 29.4308L9.20057 29.4308C8.85141 29.4308 8.56836 29.1478 8.56836 28.7986L8.56836 17.2319C8.56836 16.9804 8.66827 16.7392 8.84612 16.5614L16.5617 8.8461C16.7396 8.66827 16.9808 8.56836 17.2323 8.56836L28.7991 8.56836C29.1482 8.56836 29.4313 8.8514 29.4313 9.20055L29.4313 13.1518Z" fill="white"/>
<path d="M29.4313 18.9996L29.4313 27.1858C29.4313 27.453 29.3186 27.7078 29.1209 27.8875L28.4751 28.4746L27.7038 29.1815C27.5289 29.3419 27.3003 29.4308 27.063 29.4308L24.8478 29.4308C24.4986 29.4308 24.2155 29.1478 24.2155 28.7986L24.2155 24.2152L19.632 24.2152C19.2829 24.2152 18.9998 23.9321 18.9998 23.583L18.9998 21.2246C18.9998 20.9747 19.0984 20.7349 19.2743 20.5574L19.956 19.8688L20.5476 19.2773C20.7254 19.0995 20.9666 18.9996 21.2181 18.9996L29.4313 18.9996Z" fill="white"/>
<defs>
<linearGradient id="paint0_linear_18641_2606" x1="-8.95117" y1="-6.94791" x2="33.6071" y2="33.8598" gradientUnits="userSpaceOnUse">
<stop stop-color="#3758F9"/>
<stop offset="1" stop-color="#8AA7FF"/>
</linearGradient>
</defs>
</svg>
