<svg width="32" height="32" viewBox="0 0 32 32" fill="none" xmlns="http://www.w3.org/2000/svg">
<g filter="url(#filter0_i_2163_12004)">
<path d="M9.8125 1.41249C7.15 1.59374 5.4875 1.86874 3.89375 2.38124C2.85 2.71874 2.18125 3.06874 1.7375 3.49999C1.39375 3.83124 1.375 3.86874 1.375 4.14999C1.375 4.53124 1.53125 4.79999 1.925 5.08124C3.09375 5.93124 5.38125 6.56874 8.4375 6.88749C9.625 7.01249 13.4 6.99374 14.6062 6.85624C18.2437 6.44374 20.8 5.56249 21.3062 4.54374C21.4375 4.27499 21.4438 4.21249 21.3813 3.99999C21.15 3.23124 19.525 2.42499 17.25 1.94999C16.2812 1.74374 15.3438 1.60624 14.1875 1.49999C13.45 1.43124 10.4313 1.36874 9.8125 1.41249Z" fill="#FF5A03"/>
<path d="M1.375 8.13739V10.7811L1.5375 11.0186C1.98125 11.6811 3.63125 12.3874 5.7125 12.8124C6.91875 13.0561 9.325 13.3186 10.375 13.3124L10.7812 13.3061L11.0938 12.8624C11.7812 11.8811 12.925 10.8999 14.0563 10.3186C16.1875 9.23739 18.725 9.11864 20.875 9.99364C21.1313 10.0999 21.3625 10.1874 21.3938 10.1874C21.4188 10.1874 21.4375 9.13114 21.4375 7.83739V5.48739L21.3 5.58739C19.95 6.54989 17.7688 7.19364 14.625 7.54364C13.4 7.68114 9.63125 7.69989 8.4375 7.57489C6.25 7.34364 4.3 6.93739 3.10625 6.45614C2.5125 6.21864 1.86875 5.88114 1.6125 5.68114L1.375 5.49364V8.13739Z" fill="#FF5A03"/>
<path d="M17.3126 10.1C14.5813 10.3062 12.2251 11.8687 11.0126 14.2812C9.78132 16.725 9.95632 19.625 11.4751 21.9375C11.8688 22.5437 12.7438 23.4437 13.3563 23.8875C15.9188 25.725 19.3688 25.8 22.0188 24.0687C22.6251 23.6687 23.4751 22.8625 23.9376 22.2437C25.7376 19.825 25.9251 16.4875 24.4063 13.875C23.0938 11.6312 20.7751 10.2312 18.1563 10.1062C17.8501 10.0937 17.4688 10.0875 17.3126 10.1ZM19.1751 11.875C21.5813 12.4375 23.3876 14.4375 23.7563 16.9312C24.1751 19.8375 22.2376 22.7125 19.3063 23.5125C18.5501 23.7187 17.0813 23.7187 16.3251 23.5125C14.9688 23.1437 13.6563 22.225 12.8876 21.1187C12.5438 20.6125 12.1813 19.8187 12.0188 19.2C11.7938 18.3812 11.7876 17.05 11.9938 16.2875C12.4001 14.7875 13.2751 13.55 14.5313 12.7187C15.9188 11.7937 17.5501 11.5 19.1751 11.875Z" fill="#FF5A03"/>
<path d="M17.1 12.4437C16.5063 12.5249 15.6375 12.8249 15.1125 13.1312C14.8688 13.2749 14.45 13.5999 14.175 13.8624C11.225 16.6812 12.3438 21.5062 16.25 22.7874C16.7438 22.9499 16.85 22.9624 17.8125 22.9624C18.8063 22.9624 18.8625 22.9562 19.4375 22.7624C21.1938 22.1749 22.4688 20.8187 22.975 18.9999C23.0625 18.6937 23.0875 18.3749 23.0875 17.6874C23.0813 16.8874 23.0625 16.7124 22.9188 16.2312C22.2375 13.9999 20.3875 12.5499 18.0625 12.4124C17.7688 12.3999 17.3375 12.4124 17.1 12.4437ZM20.9875 15.7624C21.2125 15.9874 21.1188 16.0999 19.0125 18.2062C17.7563 19.4562 16.9188 20.2499 16.8438 20.2499C16.775 20.2499 16.2375 19.7687 15.5188 19.0499C14.5313 18.0687 14.3125 17.8187 14.3125 17.6749C14.3125 17.4562 14.5625 17.2749 14.7313 17.3687C14.7938 17.3999 15.2813 17.8687 15.8125 18.3999C16.3438 18.9374 16.8063 19.3749 16.8438 19.3749C16.8813 19.3749 17.7375 18.5437 18.75 17.5312C20.6375 15.6437 20.7688 15.5437 20.9875 15.7624Z" fill="#FF5A03"/>
<path d="M1.375 14.4874V17.1061L1.55625 17.3561C2.1875 18.2249 4.51875 19.0374 7.4375 19.4061C8.3125 19.5124 9.64375 19.6249 9.68125 19.5874C9.69375 19.5749 9.675 19.3624 9.63125 19.1124C9.36875 17.5499 9.58125 15.7999 10.1875 14.4561C10.2937 14.2311 10.3688 14.0374 10.3625 14.0311C10.35 14.0249 9.85 13.9874 9.25 13.9436C5.9375 13.7186 3.225 13.0624 1.84375 12.1561C1.6125 11.9999 1.40625 11.8749 1.4 11.8749C1.3875 11.8749 1.375 13.0499 1.375 14.4874Z" fill="#FF5A03"/>
<path d="M1.37511 20.7811C1.37511 23.6811 1.35636 23.5686 1.81886 23.9623C2.89386 24.8811 5.61261 25.6061 9.03135 25.8811C10.5314 25.9998 14.8814 25.8811 15.3751 25.7061C15.4314 25.6873 15.2939 25.6123 15.0626 25.5311C14.0064 25.1686 12.9501 24.5061 12.0751 23.6623C11.1876 22.7998 10.5564 21.8811 10.1251 20.8123L9.92511 20.3248L9.4501 20.2811C7.41885 20.1186 6.2251 19.9561 4.93761 19.6498C3.63136 19.3436 2.35636 18.8498 1.74386 18.4061C1.57511 18.2873 1.42511 18.1873 1.40636 18.1873C1.38761 18.1873 1.37511 19.3561 1.37511 20.7811Z" fill="#FF5A03"/>
<path d="M24.0625 23.1437C23.8438 23.3937 23.4688 23.7687 23.225 23.9875C22.9813 24.2 22.7812 24.4 22.7812 24.4375C22.7812 24.4687 22.95 24.6937 23.15 24.9375L23.5188 25.3875L24.4625 24.4375L25.4062 23.4937L25.0938 23.2125C24.925 23.0562 24.7063 22.8812 24.6187 22.8125L24.4563 22.6937L24.0625 23.1437Z" fill="#FF5A03"/>
<path d="M24.95 24.8936C24.4313 25.4186 24 25.8686 24 25.8936C24 25.9749 27.4938 30.0499 27.7563 30.2749C28.4 30.8249 29.525 30.6936 30.15 29.9936C30.4875 29.6186 30.625 29.2374 30.625 28.6874C30.625 27.9249 30.6 27.8999 28.1312 25.7936C26.9313 24.7749 25.9375 23.9374 25.925 23.9374C25.9125 23.9374 25.475 24.3686 24.95 24.8936Z" fill="#FF5A03"/>
</g>
<defs>
<filter id="filter0_i_2163_12004" x="0" y="-5" width="32" height="37" filterUnits="userSpaceOnUse" color-interpolation-filters="sRGB">
<feFlood flood-opacity="0" result="BackgroundImageFix"/>
<feBlend mode="normal" in="SourceGraphic" in2="BackgroundImageFix" result="shape"/>
<feColorMatrix in="SourceAlpha" type="matrix" values="0 0 0 0 0 0 0 0 0 0 0 0 0 0 0 0 0 0 127 0" result="hardAlpha"/>
<feOffset dy="-5"/>
<feGaussianBlur stdDeviation="5"/>
<feComposite in2="hardAlpha" operator="arithmetic" k2="-1" k3="1"/>
<feColorMatrix type="matrix" values="0 0 0 0 1 0 0 0 0 1 0 0 0 0 1 0 0 0 0.4 0"/>
<feBlend mode="plus-lighter" in2="shape" result="effect1_innerShadow_2163_12004"/>
</filter>
</defs>
</svg>
