<svg width="32" height="32" viewBox="0 0 32 32" fill="none" xmlns="http://www.w3.org/2000/svg">
<g filter="url(#filter0_i_476_1800)">
<path d="M4.50625 2.1C3.3875 2.4 2.3875 3.40625 2.09375 4.53125C2.01875 4.825 2 5.2875 2 6.7V8.5H16H30V6.7C30 5.2875 29.9813 4.825 29.9062 4.53125C29.6063 3.39375 28.6063 2.39375 27.4688 2.09375C26.925 1.95625 5.03125 1.95625 4.50625 2.1ZM10.55 5.49375C11.0813 5.86875 11.05 6.675 10.4938 7.04375C10.2875 7.175 10.2 7.2 9.91875 7.175C9.51875 7.14375 9.29375 6.99375 9.125 6.65C8.96875 6.33125 8.96875 6.16875 9.125 5.8375C9.39375 5.28125 10.0375 5.125 10.55 5.49375ZM14.1062 5.58125C14.5125 5.9625 14.525 6.45625 14.15 6.875C13.825 7.2375 13.3562 7.30625 12.95 7.05C12.6562 6.86875 12.5 6.5875 12.5 6.25C12.5 5.4 13.4875 4.9875 14.1062 5.58125ZM6.9875 5.4375C7.8 5.9375 7.45 7.1875 6.49375 7.1875C5.74375 7.1875 5.275 6.33125 5.7 5.73125C5.99375 5.31875 6.575 5.1875 6.9875 5.4375Z" fill="#FF5A03"/>
<path d="M2.00001 18.8C2.00001 27.95 1.98126 27.4312 2.39376 28.2125C2.65001 28.7 3.30001 29.35 3.78751 29.6062C4.52501 30 4.55626 30 8.26251 30H11.625V27.2938V24.5875L11.3188 24.3562C11.15 24.225 10.825 23.925 10.6063 23.6875C8.68751 21.6625 8.15626 18.6625 9.25001 16.0437C9.56876 15.2688 10.2188 14.35 10.8938 13.7125C11.5188 13.125 12.5 12.4688 12.8563 12.4C13.1875 12.3375 13.6 12.525 13.8 12.8312L13.9688 13.0875L13.9875 15.4625L14.0125 17.8438L14.8938 18.525C15.6938 19.1438 15.7813 19.1937 15.9 19.125C15.975 19.0813 16.3875 18.7625 16.8313 18.425L17.625 17.8V15.4937C17.625 12.9438 17.6313 12.8937 18.0125 12.6062C18.125 12.5187 18.3375 12.425 18.4813 12.4C18.7063 12.3687 18.8 12.3937 19.25 12.6313C20.2938 13.1875 21.2813 14.15 21.9313 15.2375C23.1063 17.2125 23.2438 19.6812 22.2813 21.7875C21.8563 22.7125 21.1375 23.6562 20.3688 24.2875L19.9375 24.6375V27.3187V30H23.5188C27.4625 30 27.475 30 28.2125 29.6062C28.7 29.35 29.35 28.7 29.6063 28.2125C30.0188 27.4312 30 27.95 30 18.8V10.5H16H2.00001V18.8Z" fill="#FF5A03"/>
<path d="M11.6523 15.7C11.3086 16.1562 10.9336 16.9187 10.7711 17.5C10.6836 17.8125 10.6586 18.125 10.6648 18.875C10.6648 19.7937 10.6773 19.875 10.8648 20.4375C11.2586 21.6187 11.9023 22.4562 13.0273 23.2312C13.5961 23.6312 13.5648 23.425 13.5648 26.9188V30H15.7836H17.9961L18.0149 26.9188C18.0336 23.3937 18.0024 23.5938 18.6149 23.2062C19.3274 22.75 20.0774 21.9125 20.4649 21.1438C20.5524 20.9688 20.7024 20.575 20.7899 20.2688C20.9336 19.8 20.9586 19.6 20.9649 18.875C20.9649 18.25 20.9399 17.9187 20.8524 17.5938C20.6961 16.975 20.1899 15.9625 19.8524 15.5938L19.5711 15.2812L19.5649 16.8625C19.5649 18.2 19.5461 18.4812 19.4649 18.6687C19.3899 18.825 18.9461 19.2063 17.8524 20.0562C17.0211 20.7 16.2836 21.2625 16.2023 21.3062C15.9586 21.4375 15.5961 21.4062 15.3023 21.2312C14.8023 20.9312 12.3523 18.9688 12.2086 18.7562C12.0711 18.55 12.0648 18.5062 12.0648 16.9312C12.0648 15.9937 12.0398 15.3125 12.0086 15.3125C11.9773 15.3125 11.8148 15.4875 11.6523 15.7Z" fill="#FF5A03"/>
</g>
<defs>
<filter id="filter0_i_476_1800" x="0" y="-5" width="32" height="37" filterUnits="userSpaceOnUse" color-interpolation-filters="sRGB">
<feFlood flood-opacity="0" result="BackgroundImageFix"/>
<feBlend mode="normal" in="SourceGraphic" in2="BackgroundImageFix" result="shape"/>
<feColorMatrix in="SourceAlpha" type="matrix" values="0 0 0 0 0 0 0 0 0 0 0 0 0 0 0 0 0 0 127 0" result="hardAlpha"/>
<feOffset dy="-5"/>
<feGaussianBlur stdDeviation="5"/>
<feComposite in2="hardAlpha" operator="arithmetic" k2="-1" k3="1"/>
<feColorMatrix type="matrix" values="0 0 0 0 1 0 0 0 0 1 0 0 0 0 1 0 0 0 0.4 0"/>
<feBlend mode="plus-lighter" in2="shape" result="effect1_innerShadow_476_1800"/>
</filter>
</defs>
</svg>
