<svg width="32" height="32" viewBox="0 0 32 32" fill="none" xmlns="http://www.w3.org/2000/svg">
<g filter="url(#filter0_i_2062_6882)">
<path d="M16.8451 1.09984C11.8576 1.85609 7.88258 5.44984 6.65758 10.3061C6.37008 11.4498 6.29508 12.2186 6.33258 13.6561C6.36383 15.0811 6.46383 15.7373 6.81383 16.9311C7.03258 17.6686 7.47633 18.7248 7.82008 19.3311C8.02008 19.6873 8.05133 19.7873 7.98883 19.8436C7.94508 19.8873 6.65133 20.8936 5.12008 22.0811C3.58883 23.2748 2.21383 24.3686 2.06383 24.5123C1.71383 24.8623 1.40758 25.3436 1.20758 25.8623C0.988829 26.4186 0.932579 27.5123 1.08883 28.1248C1.32008 29.0373 1.86383 29.8248 2.63258 30.3498C3.30133 30.8061 3.74508 30.9436 4.62633 30.9811C5.76383 31.0311 6.57008 30.7561 7.33258 30.0623C7.55133 29.8561 8.67633 28.4748 9.96383 26.8248L12.2076 23.9498L12.8388 24.2811C14.9013 25.3748 17.2888 25.8748 19.5638 25.6873C21.2388 25.5498 22.6763 25.1623 24.0951 24.4686C27.6513 22.7186 30.0763 19.5123 30.8263 15.5936C31.0138 14.5998 31.0513 12.6998 30.9076 11.6686C30.5201 8.90609 29.3201 6.49984 27.3763 4.56234C25.4888 2.68109 23.0951 1.48734 20.4326 1.09984C19.6076 0.974838 17.6388 0.974838 16.8451 1.09984ZM19.5638 2.08734C23.3576 2.28734 27.1013 4.84359 28.8138 8.40609C29.5388 9.91234 29.8701 11.2686 29.9201 12.9686C29.9826 14.9686 29.6513 16.5561 28.8138 18.2811C28.1951 19.5623 27.4888 20.5186 26.4076 21.5498C25.5763 22.3436 24.7888 22.8998 23.7513 23.4311C21.0138 24.8186 17.9763 25.0436 15.0451 24.0623C9.68258 22.2686 6.45133 16.6748 7.57008 11.1248C8.18258 8.08109 10.0638 5.37484 12.7013 3.73734C13.8513 3.02484 15.1888 2.49984 16.5076 2.24359C17.1826 2.11859 18.3951 2.00609 18.7826 2.04359C18.8888 2.04984 19.2388 2.06859 19.5638 2.08734ZM9.00758 21.1061C9.49508 21.7311 10.1826 22.4248 10.7763 22.9061C11.1201 23.1811 11.2951 23.3561 11.2576 23.3998C11.2326 23.4373 10.2576 24.6936 9.09508 26.1873C7.93883 27.6811 6.85133 29.0373 6.68258 29.1998C6.51383 29.3623 6.18258 29.5873 5.95133 29.6998C5.55133 29.8998 5.50133 29.9061 4.80758 29.9061C4.10133 29.9061 4.07633 29.8998 3.62008 29.6748C3.03883 29.3873 2.57008 28.9123 2.29508 28.3311C2.10758 27.9311 2.09508 27.8686 2.09508 27.1873C2.09508 26.4998 2.10133 26.4498 2.30133 26.0498C2.41383 25.8186 2.62633 25.5061 2.77008 25.3498C2.95758 25.1436 8.58883 20.6936 8.67008 20.6873C8.67008 20.6873 8.82633 20.8748 9.00758 21.1061Z" fill="#FF5A03"/>
<path d="M17.6078 4.06237C15.3891 4.34362 13.5891 5.21237 12.0641 6.74362C10.7141 8.09987 9.90781 9.57487 9.48906 11.4811C9.37031 11.9999 9.35156 12.2874 9.35156 13.3436C9.35156 14.4186 9.37031 14.6874 9.49531 15.2499C10.1141 18.0624 11.8391 20.3374 14.3203 21.6249C15.1203 22.0374 16.0641 22.3686 16.9203 22.5436C17.7578 22.7124 19.6953 22.6936 20.5203 22.5124C22.4328 22.0936 23.8953 21.2936 25.2578 19.9374C26.6266 18.5686 27.5016 16.9061 27.8516 14.9999C28.0078 14.1686 28.0016 12.4936 27.8516 11.6874C27.1203 7.84362 24.2641 4.94362 20.4641 4.18737C19.7578 4.04362 18.2578 3.98112 17.6078 4.06237ZM20.7953 9.63737C20.9266 9.76237 20.9391 9.82487 20.9391 10.4436V11.1186L22.6328 11.1374L24.3266 11.1561L24.4453 11.3061C24.5578 11.4436 24.5641 11.5874 24.5641 14.1874C24.5641 16.7874 24.5578 16.9311 24.4453 17.0686L24.3266 17.2186H18.6641H13.0078L12.8641 17.0749L12.7203 16.9311V14.1874V11.4436L12.8641 11.2999C13.0016 11.1561 13.0328 11.1561 14.6891 11.1374L16.3766 11.1186V10.4374C16.3766 9.41862 16.1891 9.49987 18.6391 9.49987C20.6203 9.49987 20.6516 9.49987 20.7953 9.63737Z" fill="#FF5A03"/>
<path d="M17.3125 13.375V16.3125H18.6562H20V13.375V10.4375H18.6562H17.3125V13.375Z" fill="#FF5A03"/>
<path d="M13.625 14.1875V16.3125H15H16.375V14.1875V12.0625H15H13.625V14.1875Z" fill="#FF5A03"/>
<path d="M20.9375 14.1875V16.3125H22.2812H23.625V14.1875V12.0625H22.2812H20.9375V14.1875Z" fill="#FF5A03"/>
</g>
<defs>
<filter id="filter0_i_2062_6882" x="0" y="-5" width="32" height="37" filterUnits="userSpaceOnUse" color-interpolation-filters="sRGB">
<feFlood flood-opacity="0" result="BackgroundImageFix"/>
<feBlend mode="normal" in="SourceGraphic" in2="BackgroundImageFix" result="shape"/>
<feColorMatrix in="SourceAlpha" type="matrix" values="0 0 0 0 0 0 0 0 0 0 0 0 0 0 0 0 0 0 127 0" result="hardAlpha"/>
<feOffset dy="-5"/>
<feGaussianBlur stdDeviation="5"/>
<feComposite in2="hardAlpha" operator="arithmetic" k2="-1" k3="1"/>
<feColorMatrix type="matrix" values="0 0 0 0 1 0 0 0 0 1 0 0 0 0 1 0 0 0 0.4 0"/>
<feBlend mode="plus-lighter" in2="shape" result="effect1_innerShadow_2062_6882"/>
</filter>
</defs>
</svg>
