<svg width="32" height="32" viewBox="0 0 32 32" fill="none" xmlns="http://www.w3.org/2000/svg">
<g filter="url(#filter0_i_2062_6870)">
<path d="M2.70469 1.09375C2.07969 1.2875 1.51719 1.79375 1.19844 2.4375L1.02969 2.78125L1.01094 4.825L0.992188 6.875H15.9984H31.0047L30.9859 4.825L30.9672 2.78125L30.7859 2.40625C30.5484 1.925 30.0734 1.45 29.5922 1.2125L29.2172 1.03125L16.0922 1.01875C5.31719 1.0125 2.91719 1.025 2.70469 1.09375ZM5.32969 3.025C5.44219 3.06875 5.61094 3.2 5.71094 3.30625C5.86094 3.4625 5.89844 3.56875 5.92344 3.85625C5.94219 4.15625 5.92344 4.25625 5.79844 4.43125C5.54844 4.79375 5.31719 4.875 4.49844 4.875C3.67969 4.875 3.44844 4.79375 3.20469 4.4375C2.87969 3.9625 3.12969 3.23125 3.68594 3.00625C3.92969 2.9125 5.09219 2.925 5.32969 3.025ZM9.32969 3.025C9.44219 3.06875 9.61094 3.2 9.71094 3.30625C9.86094 3.4625 9.89844 3.56875 9.92344 3.85625C9.94219 4.15625 9.92344 4.25625 9.79844 4.43125C9.54844 4.79375 9.31719 4.875 8.49844 4.875C7.67969 4.875 7.44844 4.79375 7.20469 4.4375C6.87969 3.9625 7.12969 3.23125 7.68594 3.00625C7.92969 2.9125 9.09219 2.925 9.32969 3.025ZM13.3297 3.025C13.4422 3.06875 13.6109 3.2 13.7109 3.30625C13.8609 3.4625 13.8984 3.56875 13.9234 3.85625C13.9422 4.15625 13.9234 4.25625 13.7984 4.43125C13.5484 4.79375 13.3172 4.875 12.4984 4.875C11.6797 4.875 11.4484 4.79375 11.2047 4.4375C10.8797 3.9625 11.1297 3.23125 11.6859 3.00625C11.9297 2.9125 13.0922 2.925 13.3297 3.025Z" fill="#FF5A03"/>
<path d="M1.0125 14.9187L1.03125 21.0312L1.2 21.3875C1.39375 21.8062 1.84375 22.3062 2.21875 22.5312C2.7 22.8125 3.10625 22.875 4.38125 22.875H5.54375L5.575 21.95C5.6625 19.4125 6.7375 17.0125 8.625 15.125C10.8125 12.9375 13.6062 11.8875 16.7438 12.075C18.5688 12.1812 20.4813 12.875 22.0625 13.9875C22.825 14.525 23.975 15.675 24.5125 16.4375C25.6938 18.1125 26.3563 20.0187 26.425 21.95L26.4563 22.875H27.6187C28.8938 22.875 29.3 22.8125 29.7812 22.5312C30.1562 22.3062 30.6063 21.8062 30.8 21.3875L30.9688 21.0312L30.9875 14.9187L31 8.8125H16H1L1.0125 14.9187ZM4.43125 10C5.13125 10.35 5.1125 11.3438 4.4 11.6875C4.2 11.7875 4.01875 11.8125 3.5 11.8125C2.98125 11.8125 2.8 11.7875 2.6 11.6875C2.24375 11.5188 2.0625 11.225 2.0625 10.8375C2.0625 10.4688 2.20625 10.225 2.54375 10.0188C2.75625 9.89375 2.8625 9.875 3.4875 9.875C4.06875 9.875 4.2375 9.9 4.43125 10ZM29.4312 10C30.1313 10.35 30.1125 11.3438 29.4 11.6875C29.2 11.7875 29.0188 11.8125 28.5 11.8125C27.9813 11.8125 27.8 11.7875 27.6 11.6875C27.2437 11.5188 27.0625 11.225 27.0625 10.8375C27.0625 10.4688 27.2063 10.225 27.5438 10.0188C27.7563 9.89375 27.8625 9.875 28.4875 9.875C29.0688 9.875 29.2375 9.9 29.4312 10Z" fill="#FF5A03"/>
<path d="M14.5055 14.1C13.4867 14.2688 12.1305 14.8188 11.2367 15.4188C9.33673 16.6938 7.98673 18.7688 7.59298 21.0375C7.46798 21.7563 7.46798 23.2438 7.59923 23.9688C8.21798 27.5 11.068 30.3375 14.5617 30.9063C15.318 31.025 16.6742 31.025 17.4242 30.9063C20.9367 30.3375 23.7805 27.5063 24.3992 23.9688C24.5305 23.2313 24.5305 21.7688 24.3992 21.0313C23.7805 17.4938 20.9367 14.6625 17.4242 14.0938C16.7055 13.975 15.218 13.9813 14.5055 14.1ZM19.068 17.1625C19.9742 17.4313 20.7055 18.0438 21.1242 18.8938C21.593 19.85 21.5867 20.775 21.118 21.75C20.8617 22.275 20.818 22.325 18.318 24.8188C15.6305 27.5 15.518 27.5938 14.693 27.8375C14.2055 27.9813 13.3617 27.9688 12.8617 27.8125C11.8117 27.4875 10.9367 26.5688 10.6555 25.4938C10.5367 25.0625 10.5367 24.3125 10.6555 23.8813C10.868 23.0625 10.918 23.0063 13.618 20.2938C15.0117 18.8938 16.293 17.6563 16.468 17.5438C17.1805 17.0875 18.2617 16.925 19.068 17.1625Z" fill="#FF5A03"/>
<path d="M17.9375 18.9938C17.5562 19.075 17.3625 19.2188 16.5312 20.0563L15.7188 20.875L16.675 21.825L17.625 22.7812L18.4438 21.9688C18.8937 21.5188 19.3125 21.05 19.3813 20.925C19.5438 20.6125 19.5438 20.0125 19.3813 19.7C19.1063 19.1688 18.5063 18.875 17.9375 18.9938Z" fill="#FF5A03"/>
<path d="M13.5199 23.075C13.0699 23.5313 12.6574 23.9938 12.6011 24.1063C12.4511 24.4125 12.4699 25.0375 12.6449 25.3438C12.8574 25.725 13.2386 25.9563 13.6886 25.9875C14.3011 26.0313 14.4824 25.925 15.4386 24.9688L16.2824 24.125L15.3449 23.1875C14.8324 22.6688 14.3949 22.25 14.3761 22.25C14.3574 22.25 13.9761 22.625 13.5199 23.075Z" fill="#FF5A03"/>
</g>
<defs>
<filter id="filter0_i_2062_6870" x="0" y="-5" width="32" height="37" filterUnits="userSpaceOnUse" color-interpolation-filters="sRGB">
<feFlood flood-opacity="0" result="BackgroundImageFix"/>
<feBlend mode="normal" in="SourceGraphic" in2="BackgroundImageFix" result="shape"/>
<feColorMatrix in="SourceAlpha" type="matrix" values="0 0 0 0 0 0 0 0 0 0 0 0 0 0 0 0 0 0 127 0" result="hardAlpha"/>
<feOffset dy="-5"/>
<feGaussianBlur stdDeviation="5"/>
<feComposite in2="hardAlpha" operator="arithmetic" k2="-1" k3="1"/>
<feColorMatrix type="matrix" values="0 0 0 0 1 0 0 0 0 1 0 0 0 0 1 0 0 0 0.4 0"/>
<feBlend mode="plus-lighter" in2="shape" result="effect1_innerShadow_2062_6870"/>
</filter>
</defs>
</svg>
