<svg width="140" height="32" viewBox="0 0 140 32" fill="none" xmlns="http://www.w3.org/2000/svg">
<g clip-path="url(#clip0_19227_423)">
<path d="M28.3698 12.5264C26.9298 12.5264 25.1077 12.691 23.3004 12.979C24.7786 11.9063 26.1863 10.7338 27.2031 9.71403C30.3387 6.58132 28.6195 6.09643 27.2648 4.73873C25.9071 3.38103 25.4222 1.6648 22.2865 4.7975C21.2697 5.81725 20.0942 7.22197 19.0216 8.7031C19.3096 6.89577 19.4742 5.07668 19.4742 3.63376C19.4771 -0.797867 17.9196 0.0690629 16.0006 0.0690629C14.0816 0.0690629 12.524 -0.800806 12.524 3.63376C12.524 5.07375 12.6886 6.89577 12.9766 8.7031C11.904 7.22197 10.7314 5.81725 9.7146 4.7975C6.57895 1.6648 6.097 3.38103 4.7393 4.73873C3.3816 6.09643 1.66537 6.58132 4.79807 9.71403C5.81488 10.7338 7.22254 11.9063 8.70073 12.979C6.89634 12.691 5.07432 12.5264 3.63139 12.5264C-0.803174 12.5264 0.0696326 14.081 0.0696326 16.0029C0.0696326 17.9249 -0.800236 19.4795 3.63139 19.4795C5.07138 19.4795 6.89634 19.3149 8.70073 19.0269C7.22254 20.0996 5.81488 21.2721 4.79807 22.2919C1.66537 25.4246 3.3816 25.9095 4.7393 27.2672C6.097 28.6249 6.58189 30.3411 9.7146 27.2054C10.7314 26.1886 11.9069 24.7839 12.9766 23.3028C12.6886 25.1101 12.524 26.9292 12.524 28.3721C12.524 32.8037 14.0816 31.9339 16.0006 31.9339C17.9196 31.9339 19.4771 32.8037 19.4771 28.3721C19.4771 26.9321 19.3125 25.1101 19.0245 23.3028C20.0972 24.7839 21.2697 26.1886 22.2895 27.2054C25.4251 30.3411 25.91 28.6249 27.2677 27.2672C28.6225 25.9095 30.3416 25.4246 27.206 22.2919C26.1892 21.2721 24.7815 20.0996 23.3034 19.0269C25.1077 19.3149 26.9298 19.4795 28.3727 19.4795C32.8043 19.4795 31.9344 17.9219 31.9344 16.0029C31.9344 14.0839 32.8043 12.5264 28.3727 12.5264H28.3698ZM23.4033 16.238C18.1253 17.0521 17.0497 18.2453 16.2386 23.5203C16.1975 23.7936 15.8037 23.7936 15.7625 23.5203C14.9514 18.2453 13.8759 17.0521 8.59787 16.238C8.32751 16.1969 8.32751 15.806 8.59787 15.762C13.8759 14.9509 14.9514 13.8724 15.7625 8.60024C15.8037 8.32694 16.1975 8.32694 16.2386 8.60024C17.0497 13.8753 18.1282 14.9509 23.4033 15.762C23.6736 15.806 23.6736 16.1969 23.4033 16.238Z" fill="#F6F6F6"/>
</g>
<path d="M55.4793 19.6735C55.4793 17.9146 54.1663 16.7006 51.8871 16.3043L49.3353 15.8831C45.8174 15.3133 43.8354 13.3561 43.8354 10.4575C43.8354 7.06348 46.4863 4.98245 50.7722 4.98245C54.9343 4.98245 57.486 6.96439 58.0311 10.631H55.1325C54.6865 8.57471 53.101 7.41032 50.7227 7.41032C48.3196 7.41032 46.7588 8.57471 46.7588 10.3585C46.7588 11.8945 47.8984 12.8854 50.0785 13.2818L52.5807 13.703C56.2969 14.3471 58.4027 16.4529 58.4027 19.5497C58.4027 23.0428 55.6775 25.1982 51.2925 25.1982C46.8579 25.1982 43.9345 23.0181 43.2904 19.2772H46.2138C46.6597 21.4325 48.6169 22.7703 51.3668 22.7703C53.9185 22.7703 55.4793 21.5812 55.4793 19.6735ZM63.3889 27.3288C64.7019 27.3288 65.4947 26.6846 66.0149 25.1982L66.4113 24.0586H64.9496L59.7966 10.2594H62.5961L66.9811 22.1757L70.6229 10.2594H73.3481L68.4676 26.0653C67.7243 28.5179 66.2131 29.7071 63.9091 29.7071C62.9677 29.7071 61.9767 29.5089 61.4813 29.2116V26.9076C61.9272 27.1554 62.6952 27.3288 63.3889 27.3288ZM82.452 10.0612C85.747 10.0612 87.8033 12.3899 87.8033 16.1308V25H85.1276V16.4777C85.1276 13.9755 83.7651 12.3404 81.6592 12.3404C79.3057 12.3404 77.6211 14.3719 77.6211 17.2705V25H74.9454V10.2594H77.5715V12.8359C78.3643 11.1512 80.2471 10.0612 82.452 10.0612ZM95.3075 25.1982C92.7558 25.1982 91.5171 23.7861 91.5171 20.8875V12.5881H89.2626V10.2594H91.5171V6.76619H94.1927V10.2594H97.8592V12.5881H94.1927V20.5902C94.1927 22.151 94.7129 22.8199 96.0012 22.8199C96.571 22.8199 97.2647 22.696 97.6115 22.5226V24.8266C97.1903 25.0248 96.1746 25.1982 95.3075 25.1982ZM102.541 12.7615C103.383 11.0521 105.167 10.0612 107.322 10.0612C110.667 10.0612 112.723 12.3899 112.723 16.1308V25H110.048V16.4777C110.048 13.9755 108.685 12.3404 106.554 12.3404C104.201 12.3404 102.541 14.3719 102.541 17.2705V25H99.8654V5.18065H102.541V12.7615ZM121.02 5.18065H124.885L131.822 25H128.923L127.115 19.847H118.791L116.982 25H114.108L121.02 5.18065ZM119.633 17.3943H126.272L122.953 7.85626L119.633 17.3943ZM134.069 25V5.18065H136.868V25H134.069Z" fill="#F6F6F6"/>
<defs>
<clipPath id="clip0_19227_423">
<rect width="32" height="32" fill="white"/>
</clipPath>
</defs>
</svg>
