<svg width="135" height="31" viewBox="0 0 135 31" fill="none" xmlns="http://www.w3.org/2000/svg">
<g clip-path="url(#clip0_19215_474)">
<path d="M27.4832 12.135C26.0882 12.135 24.3231 12.2944 22.5723 12.5734C24.0043 11.5343 25.3679 10.3983 26.353 9.41046C29.3906 6.37566 27.7252 5.90592 26.4128 4.59064C25.0975 3.27537 24.6277 1.61278 21.5901 4.64758C20.6051 5.63546 19.4663 6.99628 18.4272 8.43113C18.7062 6.68028 18.8656 4.91804 18.8656 3.52021C18.8684 -0.772934 17.3596 0.0669047 15.5006 0.0669047C13.6415 0.0669047 12.1327 -0.77578 12.1327 3.52021C12.1327 4.91519 12.2921 6.68028 12.5711 8.43113C11.532 6.99628 10.396 5.63546 9.41101 4.64758C6.37336 1.61278 5.90647 3.27537 4.5912 4.59064C3.27592 5.90592 1.61333 6.37566 4.64813 9.41046C5.63316 10.3983 6.99683 11.5343 8.42883 12.5734C6.68083 12.2944 4.91574 12.135 3.51791 12.135C-0.778075 12.135 0.0674565 13.641 0.0674565 15.5028C0.0674565 17.3647 -0.775229 18.8707 3.51791 18.8707C4.9129 18.8707 6.68083 18.7113 8.42883 18.4323C6.99683 19.4714 5.63316 20.6074 4.64813 21.5952C1.61333 24.63 3.27592 25.0998 4.5912 26.4151C5.90647 27.7303 6.37621 29.3929 9.41101 26.3553C10.396 25.3702 11.5348 24.0094 12.5711 22.5746C12.2921 24.3254 12.1327 26.0877 12.1327 27.4855C12.1327 31.7786 13.6415 30.9359 15.5006 30.9359C17.3596 30.9359 18.8684 31.7786 18.8684 27.4855C18.8684 26.0905 18.709 24.3254 18.43 22.5746C19.4691 24.0094 20.6051 25.3702 21.5929 26.3553C24.6306 29.3929 25.1003 27.7303 26.4156 26.4151C27.728 25.0998 29.3935 24.63 26.3558 21.5952C25.3708 20.6074 24.0071 19.4714 22.5751 18.4323C24.3231 18.7113 26.0882 18.8707 27.486 18.8707C31.7792 18.8707 30.9365 17.3619 30.9365 15.5028C30.9365 13.6438 31.7792 12.135 27.486 12.135H27.4832ZM22.6719 15.7306C17.5589 16.5192 16.5169 17.6751 15.7312 22.7853C15.6913 23.0501 15.3098 23.0501 15.27 22.7853C14.4842 17.6751 13.4422 16.5192 8.32919 15.7306C8.06727 15.6907 8.06727 15.3121 8.32919 15.2694C13.4422 14.4837 14.4842 13.4388 15.27 8.33148C15.3098 8.06672 15.6913 8.06672 15.7312 8.33148C16.5169 13.4417 17.5617 14.4837 22.6719 15.2694C22.9338 15.3121 22.9338 15.6907 22.6719 15.7306Z" fill="#0A0A0A"/>
</g>
<path d="M53.744 18.84C53.744 17.136 52.472 15.96 50.264 15.576L47.792 15.168C44.384 14.616 42.464 12.72 42.464 9.912C42.464 6.624 45.032 4.608 49.184 4.608C53.216 4.608 55.688 6.528 56.216 10.08H53.408C52.976 8.088 51.44 6.96 49.136 6.96C46.808 6.96 45.296 8.088 45.296 9.816C45.296 11.304 46.4 12.264 48.512 12.648L50.936 13.056C54.536 13.68 56.576 15.72 56.576 18.72C56.576 22.104 53.936 24.192 49.688 24.192C45.392 24.192 42.56 22.08 41.936 18.456H44.768C45.2 20.544 47.096 21.84 49.76 21.84C52.232 21.84 53.744 20.688 53.744 18.84ZM61.4064 26.256C62.6784 26.256 63.4464 25.632 63.9504 24.192L64.3344 23.088H62.9184L57.9264 9.72H60.6384L64.8864 21.264L68.4144 9.72H71.0544L66.3264 25.032C65.6064 27.408 64.1424 28.56 61.9104 28.56C60.9984 28.56 60.0384 28.368 59.5584 28.08V25.848C59.9904 26.088 60.7344 26.256 61.4064 26.256ZM79.8738 9.528C83.0658 9.528 85.0578 11.784 85.0578 15.408V24H82.4658V15.744C82.4658 13.32 81.1458 11.736 79.1058 11.736C76.8258 11.736 75.1938 13.704 75.1938 16.512V24H72.6018V9.72H75.1458V12.216C75.9138 10.584 77.7378 9.528 79.8738 9.528ZM92.3276 24.192C89.8556 24.192 88.6556 22.824 88.6556 20.016V11.976H86.4716V9.72H88.6556V6.336H91.2476V9.72H94.7996V11.976H91.2476V19.728C91.2476 21.24 91.7516 21.888 92.9996 21.888C93.5516 21.888 94.2236 21.768 94.5596 21.6V23.832C94.1516 24.024 93.1676 24.192 92.3276 24.192ZM99.335 12.144C100.151 10.488 101.879 9.528 103.967 9.528C107.207 9.528 109.199 11.784 109.199 15.408V24H106.607V15.744C106.607 13.32 105.287 11.736 103.223 11.736C100.943 11.736 99.335 13.704 99.335 16.512V24H96.743V4.8H99.335V12.144ZM117.237 4.8H120.981L127.701 24H124.893L123.141 19.008H115.077L113.325 24H110.541L117.237 4.8ZM115.893 16.632H122.325L119.109 7.392L115.893 16.632ZM129.878 24V4.8H132.59V24H129.878Z" fill="#0A0A0A"/>
<defs>
<clipPath id="clip0_19215_474">
<rect width="31" height="31" fill="white"/>
</clipPath>
</defs>
</svg>
