<svg xmlns="http://www.w3.org/2000/svg" width="31" height="36" fill="none"><path fill="#C4FC00" d="M20.066 4.781c0 2.64-2.044 4.782-4.566 4.782s-4.566-2.141-4.566-4.782C10.934 2.141 12.978 0 15.5 0s4.566 2.14 4.566 4.781Zm8.65 10.75c-2.184 1.32-4.977.537-6.238-1.75-1.26-2.287-.512-5.21 1.672-6.531 2.184-1.32 4.977-.537 6.238 1.75 1.26 2.287.512 5.211-1.672 6.531ZM.613 27c1.26 2.287 4.053 3.07 6.237 1.75 2.184-1.32 2.932-4.244 1.671-6.531-1.26-2.287-4.053-3.07-6.237-1.75C.1 21.789-.648 24.713.613 27Zm28.103-6.531c-2.184-1.32-4.977-.537-6.238 1.75-1.26 2.287-.512 5.21 1.672 6.531 2.184 1.32 4.977.537 6.238-1.75 1.26-2.287.512-5.21-1.672-6.531Z"/><path fill="#C4FC00" d="M6.85 7.25C4.666 5.93 1.873 6.713.613 9c-1.261 2.287-.513 5.211 1.67 6.531a4.381 4.381 0 0 0 4.388.103c.93-.503 2.064-.779 2.97-.231l.31.187c.693.42.983 1.29.983 2.129 0 1.63.779 3.069 1.968 3.932.819.594 1.544 1.458 1.544 2.501v.633c0 1.044-.725 1.907-1.544 2.501-1.19.863-1.968 2.303-1.968 3.933 0 2.64 2.044 4.781 4.566 4.781s4.566-2.14 4.566-4.781c0-1.62-.77-3.053-1.947-3.917-.81-.595-1.525-1.454-1.525-2.49v-.687c0-1.035.715-1.895 1.525-2.49 1.178-.864 1.947-2.296 1.947-3.916 0-2.64-2.044-4.782-4.566-4.782-.681 0-1.328.157-1.908.437-.891.43-1.95.641-2.799.127l-.401-.242c-.814-.492-1.176-1.494-1.295-2.47-.174-1.43-.962-2.762-2.247-3.54Z"/></svg>