<svg xmlns="http://www.w3.org/2000/svg" width="1600" height="1000" viewBox="0 0 1600 1000">
<defs>
<linearGradient id="sky" x1="0" y1="0" x2="0" y2="1"><stop offset="0" stop-color="#1a1a1a"/><stop offset="1" stop-color="#0d0d0d"/></linearGradient>
<radialGradient id="spot" cx="50%" cy="35%" r="60%"><stop offset="0" stop-color="#e11d48" stop-opacity="0.18"/><stop offset="1" stop-color="#e11d48" stop-opacity="0"/></radialGradient>
<linearGradient id="bodyg" x1="0" y1="0" x2="0" y2="1"><stop offset="0" stop-color="#7a1124"/><stop offset="0.5" stop-color="#e11d48"/><stop offset="1" stop-color="#7a1124"/></linearGradient>
<linearGradient id="floor" x1="0" y1="0" x2="0" y2="1"><stop offset="0" stop-color="#0a0a0a"/><stop offset="1" stop-color="#000"/></linearGradient>
</defs>
<rect width="1600" height="1000" fill="url(#sky)"/>
<rect width="1600" height="1000" fill="url(#spot)"/>
<rect y="948.3199999999999" width="1600" height="1000" fill="url(#floor)"/>
<ellipse cx="800.0" cy="965.5999999999999" rx="633.6" ry="62.20799999999999" fill="#000" opacity="0.55"/>
<g>
<path d="M224.0 810.0799999999999
 L293.12 689.12
 Q431.36 602.72 615.6800000000001 585.44
 Q753.9200000000001 447.20000000000005 938.24 464.48
 Q1122.56 481.76 1237.76 620.0
 L1376.0 758.24
 L1376.0 861.92
 L224.0 861.92 Z" fill="url(#bodyg)" stroke="#e11d48" stroke-width="1.5"/>
<path d="M684.8 509.408 Q800.0 447.20000000000005 915.1999999999999 464.48 L984.32 592.352 L684.8 602.72 Z" fill="#0c0c0c" opacity="0.85"/>
<circle cx="523.52" cy="861.92" r="117.50399999999999" fill="#111" stroke="#222" stroke-width="3"/>
<circle cx="523.52" cy="861.92" r="51.839999999999996" fill="#1c1c1c"/>
<circle cx="1122.56" cy="861.92" r="117.50399999999999" fill="#111" stroke="#222" stroke-width="3"/>
<circle cx="1122.56" cy="861.92" r="51.839999999999996" fill="#1c1c1c"/>
<rect x="1295.3600000000001" y="682.208" width="57.6" height="55.29599999999999" rx="3" fill="#ffd9a0"/>
<ellipse cx="800.0" cy="689.12" rx="483.84" ry="20.735999999999997" fill="#fff" opacity="0.1"/>
</g>
</svg>