<svg xmlns="http://www.w3.org/2000/svg" width="800" height="600" viewBox="0 0 800 600">
<defs>
<linearGradient id="sky" x1="0" y1="0" x2="0" y2="1"><stop offset="0" stop-color="#2a2a2a"/><stop offset="1" stop-color="#161616"/></linearGradient>
<radialGradient id="spot" cx="50%" cy="35%" r="60%"><stop offset="0" stop-color="#f97316" stop-opacity="0.18"/><stop offset="1" stop-color="#f97316" stop-opacity="0"/></radialGradient>
<linearGradient id="bodyg" x1="0" y1="0" x2="0" y2="1"><stop offset="0" stop-color="#7c2d12"/><stop offset="0.5" stop-color="#f97316"/><stop offset="1" stop-color="#7c2d12"/></linearGradient>
<linearGradient id="floor" x1="0" y1="0" x2="0" y2="1"><stop offset="0" stop-color="#0a0a0a"/><stop offset="1" stop-color="#000"/></linearGradient>
</defs>
<rect width="800" height="600" fill="url(#sky)"/>
<rect width="800" height="600" fill="url(#spot)"/>
<rect y="536.16" width="800" height="600" fill="url(#floor)"/>
<ellipse cx="400.0" cy="544.8" rx="316.8" ry="31.103999999999996" fill="#000" opacity="0.55"/>
<g>
<path d="M112.0 467.03999999999996
 L146.56 406.56
 Q215.68 363.36 307.84000000000003 354.72
 Q376.96000000000004 285.6 469.12 294.24
 Q561.28 302.88 618.88 372.0
 L688.0 441.12
 L688.0 492.96
 L112.0 492.96 Z" fill="url(#bodyg)" stroke="#f97316" stroke-width="1.5"/>
<path d="M342.4 316.704 Q400.0 285.6 457.59999999999997 294.24 L492.16 358.176 L342.4 363.36 Z" fill="#0c0c0c" opacity="0.85"/>
<circle cx="261.76" cy="492.96" r="58.751999999999995" fill="#111" stroke="#222" stroke-width="3"/>
<circle cx="261.76" cy="492.96" r="25.919999999999998" fill="#1c1c1c"/>
<circle cx="561.28" cy="492.96" r="58.751999999999995" fill="#111" stroke="#222" stroke-width="3"/>
<circle cx="561.28" cy="492.96" r="25.919999999999998" fill="#1c1c1c"/>
<rect x="647.6800000000001" y="403.104" width="28.8" height="27.647999999999996" rx="3" fill="#ffd9a0"/>
<ellipse cx="400.0" cy="406.56" rx="241.92" ry="10.367999999999999" fill="#fff" opacity="0.1"/>
</g>
</svg>