<svg xmlns="http://www.w3.org/2000/svg" viewBox="0 0 520 360" preserveAspectRatio="xMidYMid slice">
  <defs>
    <pattern id="ht-t" width="6" height="6" patternUnits="userSpaceOnUse">
      <circle cx="3" cy="3" r="1.4" fill="#111111"/>
    </pattern>
  </defs>
  <rect width="520" height="360" fill="#dededa"/>
  <rect width="520" height="360" fill="url(#ht-t)" opacity="0.2"/>
  <!-- a compositor's type case, full of metal sorts -->
  <g stroke="#111111" stroke-width="3" fill="none">
    <rect x="30" y="30" width="460" height="300"/>
    <line x1="30" y1="105" x2="490" y2="105"/>
    <line x1="30" y1="180" x2="490" y2="180"/>
    <line x1="30" y1="255" x2="490" y2="255"/>
    <line x1="145" y1="30" x2="145" y2="330"/>
    <line x1="260" y1="30" x2="260" y2="330"/>
    <line x1="375" y1="30" x2="375" y2="330"/>
  </g>
  <g fill="#111111" font-family="Georgia, 'Times New Roman', serif" font-weight="700" text-anchor="middle">
    <text x="87" y="80" font-size="42">A</text>
    <text x="202" y="80" font-size="42">e</text>
    <text x="317" y="80" font-size="42">R</text>
    <text x="432" y="80" font-size="42">g</text>
    <text x="87" y="155" font-size="42">&amp;</text>
    <text x="202" y="155" font-size="42">M</text>
    <text x="317" y="155" font-size="42">t</text>
    <text x="432" y="155" font-size="42">7</text>
    <text x="87" y="230" font-size="42">f</text>
    <text x="202" y="230" font-size="42">o</text>
    <text x="317" y="230" font-size="42">Q</text>
    <text x="432" y="230" font-size="42">.</text>
    <text x="87" y="305" font-size="42">k</text>
    <text x="202" y="305" font-size="42">5</text>
    <text x="317" y="305" font-size="42">w</text>
    <text x="432" y="305" font-size="42">!</text>
  </g>
</svg>
