<svg xmlns="http://www.w3.org/2000/svg" viewBox="0 0 520 360" preserveAspectRatio="xMidYMid slice">
  <defs>
    <pattern id="ht-q" width="6" height="6" patternUnits="userSpaceOnUse">
      <circle cx="3" cy="3" r="1.4" fill="#111111"/>
    </pattern>
  </defs>
  <rect width="520" height="360" fill="#dcdcd7"/>
  <rect width="520" height="360" fill="url(#ht-q)" opacity="0.2"/>
  <!-- inkwell and quill, signing the dispatch -->
  <g fill="#111111">
    <path d="M300 60 C260 120 200 200 150 280 L120 300 L132 268 C180 188 250 110 300 60 Z" fill="#e7e7e2" stroke="#111111" stroke-width="4"/>
    <line x1="300" y1="60" x2="150" y2="280" stroke="#111111" stroke-width="3"/>
    <g stroke="#111111" stroke-width="2" fill="none">
      <line x1="270" y1="92" x2="232" y2="92"/>
      <line x1="248" y1="124" x2="208" y2="124"/>
      <line x1="226" y1="156" x2="186" y2="156"/>
      <line x1="204" y1="188" x2="166" y2="188"/>
      <line x1="182" y1="220" x2="146" y2="220"/>
    </g>
    <!-- nib -->
    <path d="M120 300 L112 318 L130 312 Z"/>
    <!-- inkwell -->
    <rect x="320" y="250" width="120" height="70" fill="#e7e7e2" stroke="#111111" stroke-width="4"/>
    <rect x="320" y="250" width="120" height="22" fill="#111111"/>
    <ellipse cx="380" cy="250" rx="48" ry="12" fill="#111111"/>
    <ellipse cx="380" cy="250" rx="28" ry="7" fill="#cc0000"/>
  </g>
  <line x1="0" y1="330" x2="520" y2="330" stroke="#111111" stroke-width="6"/>
</svg>
