<svg width="151" height="41" viewBox="0 0 151 41" fill="none" xmlns="http://www.w3.org/2000/svg">
<path d="M0 18.5196C0 13.3271 4.2094 9.11768 9.40196 9.11768C14.5945 9.11768 18.8039 13.3271 18.8039 18.5196V27.9216H9.40196C4.2094 27.9216 0 23.7122 0 18.5196Z" fill="#925FFF"/>
<path d="M35 20.8529C35 16.949 31.8353 13.7843 27.9314 13.7843C24.0275 13.7843 20.8627 16.949 20.8627 20.8529V27.9216H27.9314C31.8353 27.9216 35 24.7568 35 20.8529Z" fill="#925FFF"/>
<path d="M8.50977 34.8529C8.50977 37.6956 10.8142 40 13.6568 40C16.4995 40 18.8039 37.6956 18.8039 34.8529V29.7059H13.6568C10.8142 29.7059 8.50977 32.0103 8.50977 34.8529Z" fill="#925FFF"/>
<path d="M56.87 33.396C49.841 33.396 45.287 28.512 45.287 20.955C45.287 13.464 50.006 8.481 57.068 8.481C62.777 8.481 67.034 11.814 67.859 16.995H63.404C62.579 14.19 60.17 12.54 56.969 12.54C52.514 12.54 49.709 15.774 49.709 20.922C49.709 26.037 52.547 29.337 56.969 29.337C60.236 29.337 62.744 27.621 63.536 24.948H67.925C67.001 30.03 62.579 33.396 56.87 33.396ZM75.0169 33H71.0239V8.448H75.0169V33ZM84.0911 33.429C80.6261 33.429 78.5141 31.416 78.5141 28.347C78.5141 25.344 80.6921 23.463 84.5531 23.166L89.4371 22.803V22.44C89.4371 20.229 88.1171 19.338 86.0711 19.338C83.6951 19.338 82.3751 20.328 82.3751 22.044H78.9431C78.9431 18.513 81.8471 16.203 86.2691 16.203C90.6581 16.203 93.3641 18.579 93.3641 23.1V33H89.8331L89.5361 30.591C88.8431 32.274 86.6321 33.429 84.0911 33.429ZM85.4111 30.393C87.8861 30.393 89.4701 28.908 89.4701 26.4V25.542L86.0711 25.806C83.5631 26.037 82.6061 26.862 82.6061 28.182C82.6061 29.667 83.5961 30.393 85.4111 30.393ZM107.549 16.632V20.361H106.064C103.16 20.361 101.345 21.912 101.345 25.08V33H97.3192V16.731H101.114L101.345 19.107C102.038 17.49 103.589 16.401 105.767 16.401C106.328 16.401 106.889 16.467 107.549 16.632ZM112.287 13.431C110.901 13.431 109.812 12.342 109.812 10.989C109.812 9.636 110.901 8.58 112.287 8.58C113.607 8.58 114.696 9.636 114.696 10.989C114.696 12.342 113.607 13.431 112.287 13.431ZM110.274 33V16.698H114.3V33H110.274ZM124.004 33H119.978V20.064H116.843V16.698H119.978V11.616H124.004V16.698H127.172V20.064H124.004V33ZM128.256 40.557V37.191H130.665C132.249 37.191 133.239 36.828 133.932 34.914L134.394 33.693L127.827 16.698H132.084L136.275 28.578L140.697 16.698H144.855L136.869 36.63C135.648 39.666 133.932 40.92 131.259 40.92C130.137 40.92 129.147 40.788 128.256 40.557Z" fill="white"/>
</svg>
