<svg xmlns="http://www.w3.org/2000/svg" width="124" height="24" fill="none"><path fill="#fff" d="M104.768 22.72c.234 0 .576-.15 1.024-.448.448-.299.938-.779 1.472-1.44.405-.49.874-1.077 1.408-1.76l1.664-2.048a83.752 83.752 0 0 1 1.472-1.824c-.342-.384-.726-.81-1.152-1.28-.427-.49-.864-.992-1.312-1.504-.427-.512-.843-1.003-1.248-1.472-.406-.47-.758-.875-1.056-1.216-.598-.704-1.088-1.205-1.472-1.504-.384-.299-.651-.459-.8-.48h5.248c-.171.021-.246.192-.224.512.042.299.33.79.864 1.472.234.299.544.683.928 1.152.384.448.789.907 1.216 1.376.426.47.81.896 1.152 1.28h.064l1.024-1.248c.405-.47.8-.939 1.184-1.408.405-.47.736-.875.992-1.216.512-.683.789-1.173.832-1.472.042-.299-.022-.448-.192-.448h5.344c-.214 0-.544.15-.992.448-.427.277-.918.757-1.472 1.44-.384.49-.864 1.077-1.44 1.76l-1.76 2.016a59.055 59.055 0 0 1-1.568 1.792 89.9 89.9 0 0 1 1.632 1.76 84.414 84.414 0 0 1 1.824 2.016 25.795 25.795 0 0 1 1.472 1.76c.576.725 1.066 1.237 1.472 1.536.405.299.682.448.832.448h-5.248c.192 0 .266-.15.224-.448-.022-.299-.31-.81-.864-1.536-.235-.32-.555-.715-.96-1.184-.406-.47-.832-.96-1.28-1.472-.427-.512-.822-.96-1.184-1.344h-.064c-.299.384-.651.832-1.056 1.344a113.944 113.944 0 0 0-2.112 2.72c-.534.683-.822 1.173-.864 1.472-.022.299.053.448.224.448h-5.248Zm-10.548.32c-1.237 0-2.325-.213-3.263-.64-.918-.448-1.632-1.205-2.144-2.272-.491-1.088-.737-2.592-.737-4.512V9.664c0-.683-.074-1.173-.223-1.472-.128-.299-.267-.448-.416-.448h4.576c-.15 0-.31.15-.48.448-.15.299-.225.79-.225 1.472v6.4c0 1.813.32 3.05.96 3.712.64.661 1.483.992 2.528.992 1.046 0 1.953-.256 2.72-.768.768-.512 1.366-1.216 1.792-2.112.448-.896.672-1.91.672-3.04V9.664c0-.683-.074-1.163-.224-1.44-.127-.299-.266-.459-.415-.48h3.904V20.8c0 .683.064 1.173.192 1.472.149.299.298.448.448.448h-3.904V20.8l.064-.64-.064-.064c-.128.256-.342.555-.64.896-.3.32-.694.64-1.184.96-.47.32-1.035.576-1.697.768-.66.213-1.407.32-2.24.32Zm-13.766-.32c.15 0 .288-.15.416-.448.15-.299.224-.79.224-1.472V2.56c0-.683-.074-1.163-.224-1.44-.128-.299-.266-.459-.416-.48.939 0 1.75-.064 2.432-.192.704-.15 1.195-.299 1.472-.448v20.8c0 .683.064 1.173.192 1.472.15.299.299.448.448.448h-4.544Zm-9.362.32c-1.685 0-3.072-.192-4.16-.576-1.088-.405-1.941-.96-2.56-1.664a6.115 6.115 0 0 1-1.312-2.464 12.688 12.688 0 0 1-.352-3.072c0-2.41.683-4.32 2.048-5.728 1.387-1.408 3.435-2.112 6.144-2.112 1.579 0 2.848.213 3.808.64.982.427 1.718.992 2.208 1.696a5.891 5.891 0 0 1 1.024 2.304c.192.81.288 1.61.288 2.4v1.504c0-.064-.298-.128-.896-.192-.576-.085-1.557-.128-2.944-.128h-8.416c0 1.579.47 2.827 1.408 3.744.939.917 2.336 1.376 4.192 1.376 1.6 0 2.912-.192 3.936-.576 1.046-.405 1.739-.8 2.08-1.184v.64l.32 2.112c-.47.277-1.301.565-2.496.864-1.173.277-2.613.416-4.32.416Zm-3.84-9.504h7.776c0-.555-.117-1.13-.352-1.728-.234-.597-.65-1.099-1.248-1.504-.597-.427-1.44-.64-2.528-.64-.917 0-1.717.16-2.4.48-.682.299-1.216.693-1.6 1.184-.362.49-.544 1.013-.544 1.568 0 .213.064.373.192.48.128.107.363.16.704.16ZM41.774 22.72c.15 0 .288-.15.416-.448.15-.299.224-.79.224-1.472V5.44c0-.683-.075-1.163-.224-1.44-.15-.299-.299-.459-.448-.48h10.496c1.984 0 3.53.245 4.64.736 1.11.47 1.888 1.152 2.336 2.048.47.875.704 1.941.704 3.2 0 .79-.17 1.568-.512 2.336-.341.768-.896 1.43-1.664 1.984-.747.555-1.76.917-3.04 1.088v.096a8.07 8.07 0 0 1 3.68 2.112 17.536 17.536 0 0 1 2.688 3.36c.49.79.939 1.355 1.344 1.696.405.341.715.523.928.544h-6.72c.256-.021.459-.16.608-.416.17-.277.117-.725-.16-1.344a8.312 8.312 0 0 0-1.92-2.72c-.81-.81-1.835-1.44-3.072-1.888-1.237-.47-2.71-.704-4.416-.704h-.352c-.661 0-1.045.053-1.152.16-.107.107-.16.373-.16.8V20.8c0 .683.075 1.173.224 1.472.15.299.299.448.448.448h-4.896Zm5.536-9.632h3.936c1.707 0 2.987-.299 3.84-.896.853-.619 1.28-1.515 1.28-2.688 0-.79-.17-1.43-.512-1.92-.32-.512-.832-.885-1.536-1.12-.704-.235-1.621-.352-2.752-.352H47.31c-.661 0-1.045.032-1.152.096-.107.064-.16.31-.16.736v5.28c0 .427.053.683.16.768.107.064.49.096 1.152.096ZM19.903 11.49V4.027l-5.571-2.202-5.887 2.202v7.463h11.458Zm6.832-8c0-.108-.052-.215-.105-.322a1.178 1.178 0 0 0-.157-.269 1.1 1.1 0 0 0-.316-.215c-.105-.053-.21-.053-.315-.053-.105 0-.21 0-.315.053-.105.054-.21.108-.316.215a1.178 1.178 0 0 0-.157.269.415.415 0 0 0-.105.268v9.718H3.4V3.168c-.053-.054-.053-.108-.053-.161-.052-.054-.105-.108-.105-.161-.052-.054-.105-.108-.157-.108-.053-.054-.105-.054-.21-.107h-.158c-.158 0-.263 0-.368.107-.053 0-.105.054-.158.108-.052.053-.052.107-.105.16 0 .054-.053.108-.053.162v.375h-.157l-1.314.108-.158.054v-.162C.352 3.33.352 3.06.404 2.9c.053-.215.105-.43.21-.644.106-.215.21-.376.368-.537.158-.16.316-.322.526-.43.158-.107.368-.214.578-.268.21-.054.42-.107.63-.107.21 0 .421.053.631.107.21.054.42.161.579.269.21.107.368.268.525.43.105.16.263.321.316.536.105.161.21.376.21.59.052.215.052.43.052.645v8h1.787V2.846h.105l.42-.162L14.07.107l.21-.053.053-.054.052.054.263.053 6.36 2.577.42.162.105.053v8.591h1.787V3.436c0-.376.105-.698.21-.966.158-.322.316-.59.579-.806.21-.214.472-.43.788-.536a2.9 2.9 0 0 1 .946-.162c.315 0 .63.054.946.162.315.107.578.322.788.536.263.215.42.484.578.806.105.268.21.59.21.966v.161h-.157l-1.314.054h-.158V3.49ZM6.816 24v-8.215H5.03V24H.93v-1.127H3.4V14.12h21.549v8.752h2.26V24h-3.89v-8.215h-1.787V24h-1.63v-8.215H8.446V24h-1.63Z"/></svg>