<svg width="134" height="40" viewBox="0 0 134 40" fill="none" xmlns="http://www.w3.org/2000/svg">
<path d="M0 10C0 6.89372 0 5.34058 0.50747 4.11544C1.1841 2.48192 2.48192 1.1841 4.11544 0.50747C5.34058 0 6.89372 0 10 0H123.333C126.44 0 127.993 0 129.218 0.50747C130.851 1.1841 132.149 2.48192 132.826 4.11544C133.333 5.34058 133.333 6.89372 133.333 10V30C133.333 33.1063 133.333 34.6594 132.826 35.8846C132.149 37.5181 130.851 38.8159 129.218 39.4925C127.993 40 126.44 40 123.333 40H9.99999C6.89372 40 5.34058 40 4.11544 39.4925C2.48192 38.8159 1.1841 37.5181 0.50747 35.8846C0 34.6594 0 33.1063 0 30V10Z" fill="black"/>
<path d="M86.6469 18.4838V20.4631H85.4062V21.7612H86.6469V26.1717C86.6469 27.6777 87.3282 28.2801 89.0422 28.2801C89.3434 28.2801 89.6303 28.2442 89.8813 28.2012V26.9175C89.6661 26.939 89.5299 26.9534 89.2932 26.9534C88.5259 26.9534 88.1888 26.5948 88.1888 25.7772V21.7612H89.8813V20.4631H88.1888V18.4838H86.6469Z" fill="white"/>
<path d="M94.2476 28.3877C96.5282 28.3877 97.9266 26.8601 97.9266 24.3286C97.9266 21.8114 96.521 20.2767 94.2476 20.2767C91.9671 20.2767 90.5614 21.8114 90.5614 24.3286C90.5614 26.8601 91.9599 28.3877 94.2476 28.3877ZM94.2476 27.0179C92.9065 27.0179 92.1535 26.0354 92.1535 24.3286C92.1535 22.6361 92.9065 21.6464 94.2476 21.6464C95.5815 21.6464 96.3417 22.6361 96.3417 24.3286C96.3417 26.0282 95.5815 27.0179 94.2476 27.0179Z" fill="white"/>
<path d="M99.1231 28.2371H100.665V23.6258C100.665 22.5285 101.49 21.7898 102.659 21.7898C102.931 21.7898 103.39 21.84 103.519 21.8831V20.3627C103.354 20.3197 103.06 20.2982 102.831 20.2982C101.812 20.2982 100.945 20.8575 100.722 21.6249H100.608V20.4273H99.1231V28.2371Z" fill="white"/>
<path d="M107.348 21.589C108.488 21.589 109.234 22.3851 109.27 23.6114H105.325C105.411 22.3923 106.207 21.589 107.348 21.589ZM109.263 26.1286C108.976 26.7382 108.337 27.0753 107.405 27.0753C106.172 27.0753 105.376 26.2075 105.325 24.8378V24.7517H110.84V24.2138C110.84 21.7612 109.528 20.2767 107.355 20.2767C105.153 20.2767 103.755 21.8616 103.755 24.3573C103.755 26.853 105.125 28.3877 107.362 28.3877C109.148 28.3877 110.396 27.5271 110.747 26.1286H109.263Z" fill="white"/>
<path d="M76.5355 25.353C76.6544 27.2708 78.2525 28.4972 80.6311 28.4972C83.1732 28.4972 84.7639 27.2113 84.7639 25.1598C84.7639 23.5468 83.8571 22.6548 81.6569 22.1419L80.475 21.852C79.0776 21.525 78.5127 21.0864 78.5127 20.3208C78.5127 19.3545 79.3898 18.7227 80.7054 18.7227C81.9542 18.7227 82.8164 19.3397 82.9725 20.3283H84.593C84.4963 18.522 82.9056 17.2509 80.7277 17.2509C78.3863 17.2509 76.8254 18.522 76.8254 20.4323C76.8254 22.0081 77.7099 22.9447 79.6499 23.3981L81.0325 23.7326C82.4522 24.0671 83.0766 24.5577 83.0766 25.3753C83.0766 26.3268 82.0954 27.018 80.7575 27.018C79.3229 27.018 78.3269 26.3714 78.1856 25.353H76.5355Z" fill="white"/>
<path d="M60.5631 20.2982C59.5018 20.2982 58.5838 20.8289 58.1105 21.7181H57.9957V20.4273H56.5112V30.8332H58.0531V27.0538H58.175C58.5838 27.8785 59.4659 28.3662 60.5775 28.3662C62.5497 28.3662 63.8047 26.8099 63.8047 24.3286C63.8047 21.8472 62.5497 20.2982 60.5631 20.2982ZM60.1257 26.982C58.8348 26.982 58.0244 25.9637 58.0244 24.3357C58.0244 22.7006 58.8348 21.6823 60.1329 21.6823C61.4381 21.6823 62.2198 22.6791 62.2198 24.3286C62.2198 25.9852 61.4381 26.982 60.1257 26.982Z" fill="white"/>
<path d="M69.2 20.2982C68.1386 20.2982 67.2206 20.8289 66.7473 21.7181H66.6326V20.4273H65.1481V30.8332H66.6899V27.0538H66.8119C67.2206 27.8785 68.1027 28.3662 69.2143 28.3662C71.1865 28.3662 72.4415 26.8099 72.4415 24.3286C72.4415 21.8472 71.1865 20.2982 69.2 20.2982ZM68.7625 26.982C67.4716 26.982 66.6613 25.9637 66.6613 24.3357C66.6613 22.7006 67.4716 21.6823 68.7697 21.6823C70.0749 21.6823 70.8566 22.6791 70.8566 24.3286C70.8566 25.9852 70.0749 26.982 68.7625 26.982Z" fill="white"/>
<path d="M53.7448 28.2371H55.5139L51.6413 17.5111H49.8499L45.9772 28.2371H47.6868L48.6754 25.3902H52.7636L53.7448 28.2371ZM50.6601 19.4586H50.7864L52.34 23.9928H49.0991L50.6601 19.4586Z" fill="white"/>
<path d="M47.0133 9.42109V14.5954H48.8815C50.4234 14.5954 51.3162 13.6451 51.3162 11.9921C51.3162 10.3642 50.4162 9.42109 48.8815 9.42109H47.0133ZM47.8165 10.1526H48.7919C49.864 10.1526 50.4987 10.8339 50.4987 12.0029C50.4987 13.1897 49.8748 13.8639 48.7919 13.8639H47.8165V10.1526Z" fill="white"/>
<path d="M54.0507 14.6707C55.191 14.6707 55.8903 13.9069 55.8903 12.6411C55.8903 11.3825 55.1874 10.6152 54.0507 10.6152C52.9105 10.6152 52.2077 11.3825 52.2077 12.6411C52.2077 13.9069 52.9069 14.6707 54.0507 14.6707ZM54.0507 13.9858C53.3802 13.9858 53.0037 13.4945 53.0037 12.6411C53.0037 11.7949 53.3802 11.3 54.0507 11.3C54.7177 11.3 55.0978 11.7949 55.0978 12.6411C55.0978 13.4909 54.7177 13.9858 54.0507 13.9858Z" fill="white"/>
<path d="M61.8448 10.6905H61.0738L60.3782 13.6702H60.3172L59.514 10.6905H58.7754L57.9721 13.6702H57.9148L57.2156 10.6905H56.4339L57.5096 14.5954H58.302L59.1053 11.7196H59.1662L59.973 14.5954H60.7726L61.8448 10.6905Z" fill="white"/>
<path d="M62.7326 14.5954H63.5036V12.3112C63.5036 11.7016 63.8657 11.3216 64.4359 11.3216C65.006 11.3216 65.2785 11.6335 65.2785 12.261V14.5954H66.0495V12.0674C66.0495 11.1387 65.569 10.6152 64.6976 10.6152C64.1096 10.6152 63.7223 10.8769 63.5322 11.3108H63.4749V10.6905H62.7326V14.5954Z" fill="white"/>
<path d="M67.2636 14.5954H68.0345V9.1665H67.2636V14.5954Z" fill="white"/>
<path d="M70.934 14.6707C72.0743 14.6707 72.7735 13.9069 72.7735 12.6411C72.7735 11.3825 72.0707 10.6152 70.934 10.6152C69.7937 10.6152 69.0909 11.3825 69.0909 12.6411C69.0909 13.9069 69.7901 14.6707 70.934 14.6707ZM70.934 13.9858C70.2635 13.9858 69.887 13.4945 69.887 12.6411C69.887 11.7949 70.2635 11.3 70.934 11.3C71.601 11.3 71.9811 11.7949 71.9811 12.6411C71.9811 13.4909 71.601 13.9858 70.934 13.9858Z" fill="white"/>
<path d="M75.0706 14.0109C74.651 14.0109 74.3462 13.8065 74.3462 13.4551C74.3462 13.1109 74.5901 12.928 75.1279 12.8921L76.0817 12.8312V13.1575C76.0817 13.6416 75.6515 14.0109 75.0706 14.0109ZM74.8733 14.6599C75.3861 14.6599 75.8128 14.4376 76.0459 14.0467H76.1068V14.5954H76.8491V11.9276C76.8491 11.1028 76.2969 10.6152 75.318 10.6152C74.4323 10.6152 73.8012 11.0454 73.7223 11.716H74.4681C74.5542 11.4399 74.8518 11.2821 75.2821 11.2821C75.8092 11.2821 76.0817 11.5152 76.0817 11.9276V12.2646L75.0239 12.3256C74.0952 12.3829 73.5717 12.7881 73.5717 13.4909C73.5717 14.2045 74.1203 14.6599 74.8733 14.6599Z" fill="white"/>
<path d="M79.4653 14.6599C80.0031 14.6599 80.4585 14.4053 80.6916 13.9786H80.7526V14.5954H81.4912V9.1665H80.7203V11.3108H80.6629C80.4514 10.8805 79.9996 10.6259 79.4653 10.6259C78.4792 10.6259 77.8445 11.4076 77.8445 12.6411C77.8445 13.8782 78.472 14.6599 79.4653 14.6599ZM79.684 11.318C80.3294 11.318 80.7346 11.8307 80.7346 12.6447C80.7346 13.4623 80.333 13.9679 79.684 13.9679C79.0314 13.9679 78.6405 13.4694 78.6405 12.6411C78.6405 11.82 79.035 11.318 79.684 11.318Z" fill="white"/>
<path d="M86.4905 14.6707C87.6308 14.6707 88.33 13.9069 88.33 12.6411C88.33 11.3825 87.6272 10.6152 86.4905 10.6152C85.3503 10.6152 84.6474 11.3825 84.6474 12.6411C84.6474 13.9069 85.3467 14.6707 86.4905 14.6707ZM86.4905 13.9858C85.82 13.9858 85.4435 13.4945 85.4435 12.6411C85.4435 11.7949 85.82 11.3 86.4905 11.3C87.1575 11.3 87.5376 11.7949 87.5376 12.6411C87.5376 13.4909 87.1575 13.9858 86.4905 13.9858Z" fill="white"/>
<path d="M89.3505 14.5954H90.1215V12.3112C90.1215 11.7016 90.4836 11.3216 91.0538 11.3216C91.6239 11.3216 91.8964 11.6335 91.8964 12.261V14.5954H92.6674V12.0674C92.6674 11.1387 92.1869 10.6152 91.3155 10.6152C90.7275 10.6152 90.3402 10.8769 90.1502 11.3108H90.0928V10.6905H89.3505V14.5954Z" fill="white"/>
<path d="M96.218 9.71871V10.7084H95.5977V11.3574H96.218V13.5627C96.218 14.3157 96.5587 14.6169 97.4157 14.6169C97.5663 14.6169 97.7097 14.599 97.8352 14.5774V13.9356C97.7276 13.9463 97.6595 13.9535 97.5412 13.9535C97.1575 13.9535 96.989 13.7742 96.989 13.3654V11.3574H97.8352V10.7084H96.989V9.71871H96.218Z" fill="white"/>
<path d="M98.8701 14.5954H99.641V12.3148C99.641 11.7232 99.9924 11.3251 100.623 11.3251C101.169 11.3251 101.459 11.6407 101.459 12.2646V14.5954H102.23V12.0746C102.23 11.1459 101.717 10.6187 100.885 10.6187C100.297 10.6187 99.8848 10.8805 99.6948 11.318H99.6338V9.1665H98.8701V14.5954Z" fill="white"/>
<path d="M105.011 11.2714C105.581 11.2714 105.954 11.6694 105.972 12.2825H104C104.043 11.673 104.441 11.2714 105.011 11.2714ZM105.968 13.5411C105.825 13.8459 105.506 14.0145 105.04 14.0145C104.423 14.0145 104.025 13.5806 104 12.8957V12.8527H106.757V12.5837C106.757 11.3574 106.101 10.6152 105.015 10.6152C103.914 10.6152 103.215 11.4076 103.215 12.6555C103.215 13.9033 103.899 14.6707 105.018 14.6707C105.911 14.6707 106.535 14.2404 106.711 13.5411H105.968Z" fill="white"/>
<path d="M35.9447 19.4347C35.9634 17.9824 36.7434 16.6082 37.9807 15.8475C37.2001 14.7327 35.8927 14.0259 34.5325 13.9833C33.0817 13.8311 31.6752 14.8515 30.9359 14.8515C30.1823 14.8515 29.044 13.9985 27.8183 14.0237C26.2206 14.0753 24.7312 14.9837 23.9539 16.3805C22.283 19.2734 23.5293 23.525 25.1299 25.8634C25.9307 27.0084 26.8666 28.2875 28.0912 28.2421C29.2896 28.1924 29.7371 27.4779 31.1837 27.4779C32.6168 27.4779 33.0367 28.2421 34.2862 28.2133C35.5721 28.1924 36.3822 27.0631 37.155 25.9072C37.7303 25.0913 38.1731 24.1896 38.4668 23.2354C36.9556 22.5963 35.9465 21.0755 35.9447 19.4347Z" fill="white"/>
<path d="M33.5846 12.4455C34.2858 11.6038 34.6312 10.522 34.5475 9.42974C33.4764 9.54225 32.4869 10.0542 31.7763 10.8636C31.0815 11.6544 30.7198 12.7172 30.7882 13.7677C31.8598 13.7787 32.9132 13.2807 33.5846 12.4455Z" fill="white"/>
</svg>
