<svg width="134" height="40" viewBox="0 0 134 40" fill="none" xmlns="http://www.w3.org/2000/svg">
<path d="M0 6.66667C0 2.98477 2.98477 0 6.66667 0H126.667C130.349 0 133.333 2.98477 133.333 6.66667V33.3333C133.333 37.0152 130.349 40 126.667 40H6.66665C2.98475 40 0 37.0152 0 33.3333V6.66667Z" fill="black"/>
<path d="M68.0251 21.0191C66.1523 21.0191 64.626 22.4436 64.626 24.4055C64.626 26.3554 66.1523 27.7918 68.0251 27.7918C69.8986 27.7918 71.425 26.3554 71.425 24.4055C71.4242 22.4436 69.8978 21.0191 68.0251 21.0191ZM68.0251 26.4589C66.9987 26.4589 66.1141 25.6125 66.1141 24.4063C66.1141 23.1872 66.9995 22.3536 68.0251 22.3536C69.0514 22.3536 69.936 23.1872 69.936 24.4063C69.936 25.6118 69.0514 26.4589 68.0251 26.4589ZM60.609 21.0191C58.7363 21.0191 57.2099 22.4436 57.2099 24.4055C57.2099 26.3554 58.7363 27.7918 60.609 27.7918C62.4825 27.7918 64.0089 26.3554 64.0089 24.4055C64.0089 22.4436 62.4825 21.0191 60.609 21.0191ZM60.609 26.4589C59.5827 26.4589 58.698 25.6125 58.698 24.4063C58.698 23.1872 59.5835 22.3536 60.609 22.3536C61.6353 22.3536 62.5199 23.1872 62.5199 24.4063C62.5207 25.6118 61.6353 26.4589 60.609 26.4589ZM51.7884 22.059V23.4954H55.2265C55.1238 24.3035 54.8547 24.8936 54.4438 25.3036C53.9438 25.8036 53.1611 26.3554 51.7884 26.3554C49.672 26.3554 48.0174 24.6491 48.0174 22.5327C48.0174 20.4164 49.672 18.71 51.7884 18.71C52.9302 18.71 53.7638 19.1591 54.3793 19.7364L55.3929 18.7228C54.533 17.9019 53.392 17.2737 51.7884 17.2737C48.8893 17.2737 46.4521 19.6337 46.4521 22.5327C46.4521 25.4318 48.8893 27.7918 51.7884 27.7918C53.353 27.7918 54.5338 27.2783 55.4566 26.3164C56.4057 25.3673 56.7011 24.0328 56.7011 22.9555C56.7011 22.6227 56.6756 22.3146 56.6239 22.0582L51.7884 22.059ZM87.8639 23.1745C87.582 22.4181 86.7221 21.0191 84.9648 21.0191C83.2203 21.0191 81.7703 22.3918 81.7703 24.4055C81.7703 26.3037 83.2075 27.7918 85.1312 27.7918C86.6831 27.7918 87.5812 26.8427 87.9538 26.2909L86.7993 25.521C86.4147 26.0855 85.8884 26.4573 85.1312 26.4573C84.3748 26.4573 83.8358 26.111 83.4894 25.431L88.0175 23.5583L87.8639 23.1745ZM83.2458 24.3035C83.2075 22.9946 84.2593 22.3281 85.0166 22.3281C85.6066 22.3281 86.1066 22.6235 86.2738 23.0463L83.2458 24.3035ZM79.5648 27.5872H81.0521V17.6335H79.5648V27.5872ZM77.1267 21.7763H77.0758C76.7422 21.3782 76.1004 21.0191 75.293 21.0191C73.5994 21.0191 72.0476 22.5073 72.0476 24.419C72.0476 26.3172 73.5994 27.7926 75.293 27.7926C76.1012 27.7926 76.7422 27.4335 77.0758 27.0235H77.1267V27.5108C77.1267 28.8062 76.434 29.4989 75.3185 29.4989C74.4076 29.4989 73.8431 28.8452 73.6122 28.2934L72.3167 28.8325C72.6886 29.7298 73.6759 30.8334 75.3185 30.8334C77.063 30.8334 78.5384 29.8071 78.5384 27.3053V21.2253H77.1275L77.1267 21.7763ZM75.4212 26.4589C74.3949 26.4589 73.5357 25.599 73.5357 24.419C73.5357 23.2255 74.3949 22.3536 75.4212 22.3536C76.434 22.3536 77.2295 23.2255 77.2295 24.419C77.2295 25.599 76.434 26.4589 75.4212 26.4589ZM94.8341 17.6335H91.2741V27.5872H92.7591V23.8163H94.8333C96.4799 23.8163 98.0994 22.6243 98.0994 20.7253C98.0994 18.8263 96.4807 17.6335 94.8341 17.6335ZM94.8723 22.4308H92.7591V19.019H94.8723C95.983 19.019 96.6136 19.9386 96.6136 20.7253C96.6136 21.4961 95.983 22.4308 94.8723 22.4308ZM104.054 21.0016C102.979 21.0016 101.865 21.4753 101.404 22.5256L102.722 23.0758C103.004 22.5256 103.53 22.3456 104.08 22.3456C104.848 22.3456 105.629 22.8066 105.642 23.626V23.7287C105.373 23.575 104.796 23.3449 104.093 23.3449C102.671 23.3449 101.224 24.126 101.224 25.5855C101.224 26.9176 102.389 27.7751 103.695 27.7751C104.694 27.7751 105.245 27.3268 105.59 26.8013H105.641V27.5697H107.076V23.7534C107.077 21.9873 105.757 21.0016 104.054 21.0016ZM103.874 26.4566C103.389 26.4566 102.71 26.2129 102.71 25.611C102.71 24.8426 103.555 24.548 104.285 24.548C104.937 24.548 105.246 24.6889 105.642 24.8808C105.527 25.8036 104.733 26.4566 103.874 26.4566ZM112.301 21.219L110.598 25.5345H110.547L108.779 21.219H107.179L109.829 27.2504L108.318 30.6057H109.868L113.953 21.219H112.301ZM98.9195 27.5872H100.404V17.6335H98.9195V27.5872Z" fill="white"/>
<path d="M51.5285 11.8564C51.5285 12.5236 51.331 13.0547 50.9353 13.4512C50.4862 13.9226 49.9002 14.1583 49.1804 14.1583C48.4909 14.1583 47.904 13.9194 47.4223 13.4417C46.9398 12.9631 46.6985 12.3707 46.6985 11.6637C46.6985 10.9558 46.9398 10.3634 47.4223 9.8857C47.904 9.40717 48.4909 9.1683 49.1804 9.1683C49.5228 9.1683 49.85 9.23519 50.1605 9.36816C50.4719 9.50192 50.7211 9.67948 50.9074 9.90163L50.4878 10.322C50.1717 9.94383 49.7362 9.75512 49.1796 9.75512C48.6764 9.75512 48.2416 9.93189 47.8746 10.2854C47.5075 10.6389 47.3244 11.0984 47.3244 11.6629C47.3244 12.2274 47.5075 12.6868 47.8746 13.0404C48.2416 13.3939 48.6764 13.5706 49.1796 13.5706C49.7131 13.5706 50.1582 13.3931 50.5141 13.0372C50.745 12.8055 50.8787 12.483 50.9146 12.0698H49.1796V11.4957H51.4942C51.5181 11.6207 51.5285 11.7409 51.5285 11.8564Z" fill="white"/>
<path d="M55.1992 9.86107H53.0239V11.3755H54.9858V11.9496H53.0239V13.464H55.1992V14.0516H52.41V9.27425H55.1992V9.86107Z" fill="white"/>
<path d="M57.7876 14.0516H57.1737V9.86107H55.8392V9.27425H59.1221V9.86107H57.7876V14.0516Z" fill="white"/>
<path d="M61.4972 14.0516V9.27425H62.1111V14.0516H61.4972Z" fill="white"/>
<path d="M64.8335 14.0516H64.2196V9.86107H62.8851V9.27425H66.168V9.86107H64.8335V14.0516Z" fill="white"/>
<path d="M72.3824 13.4345C71.9126 13.917 71.329 14.1583 70.6307 14.1583C69.9324 14.1583 69.3487 13.917 68.8798 13.4345C68.41 12.952 68.1759 12.3612 68.1759 11.6629C68.1759 10.9646 68.41 10.3738 68.8798 9.89132C69.3487 9.4088 69.9324 9.16675 70.6307 9.16675C71.325 9.16675 71.9078 9.4096 72.3792 9.8945C72.8506 10.3794 73.0862 10.9686 73.0862 11.6629C73.0862 12.3612 72.8514 12.952 72.3824 13.4345ZM69.3328 13.034C69.6863 13.3923 70.1187 13.5707 70.6307 13.5707C71.1426 13.5707 71.5758 13.3915 71.9285 13.034C72.282 12.6757 72.4596 12.2187 72.4596 11.6629C72.4596 11.1072 72.282 10.6501 71.9285 10.2918C71.5758 9.93352 71.1426 9.75516 70.6307 9.75516C70.1187 9.75516 69.6863 9.93431 69.3328 10.2918C68.9801 10.6501 68.8025 11.1072 68.8025 11.6629C68.8025 12.2187 68.9801 12.6757 69.3328 13.034Z" fill="white"/>
<path d="M73.9478 14.0516V9.27425H74.6946L77.0164 12.9902H77.0427L77.0164 12.0698V9.27425H77.6303V14.0516H76.9894L74.5601 10.1549H74.5338L74.5601 11.0753V14.0516H73.9478Z" fill="white"/>
<path d="M20.4158 9.70218C20.1841 9.94742 20.0471 10.328 20.0471 10.8209V28.4303C20.0471 28.9239 20.1841 29.3037 20.4158 29.549L20.4747 29.6063L30.3392 19.7418V19.5093L20.4747 9.64406L20.4158 9.70218Z" fill="url(#paint0_linear_17225_544)"/>
<path d="M33.6268 23.031L30.3392 19.7418V19.5093L33.6276 16.2209L33.7016 16.2631L37.5976 18.4766C38.7099 19.1088 38.7099 20.1431 37.5976 20.7761L33.7016 22.9896L33.6268 23.031Z" fill="url(#paint1_linear_17225_544)"/>
<path d="M33.7015 22.9883L30.3383 19.625L20.4158 29.549C20.782 29.9375 21.3879 29.9847 22.0702 29.5978L33.7015 22.9883Z" fill="url(#paint2_linear_17225_544)"/>
<path d="M33.7016 16.2631L22.0703 9.65361C21.388 9.26585 20.782 9.31363 20.4158 9.70218L30.3392 19.6264L33.7016 16.2631Z" fill="url(#paint3_linear_17225_544)"/>
<defs>
<linearGradient id="paint0_linear_17225_544" x1="105.975" y1="10.2418" x2="102.572" y2="38.8435" gradientUnits="userSpaceOnUse">
<stop stop-color="#00A0FF"/>
<stop offset="0.0066" stop-color="#00A1FF"/>
<stop offset="0.2601" stop-color="#00BEFF"/>
<stop offset="0.5122" stop-color="#00D2FF"/>
<stop offset="0.7604" stop-color="#00DFFF"/>
<stop offset="1" stop-color="#00E3FF"/>
</linearGradient>
<linearGradient id="paint1_linear_17225_544" x1="121.074" y1="19.9988" x2="-102.479" y2="19.9988" gradientUnits="userSpaceOnUse">
<stop stop-color="#FFE000"/>
<stop offset="0.4087" stop-color="#FFBD00"/>
<stop offset="0.7754" stop-color="#FFA500"/>
<stop offset="1" stop-color="#FF9C00"/>
</linearGradient>
<linearGradient id="paint2_linear_17225_544" x1="101.043" y1="13.0313" x2="79.9757" y2="83.4081" gradientUnits="userSpaceOnUse">
<stop stop-color="#FF3A44"/>
<stop offset="1" stop-color="#C31162"/>
</linearGradient>
<linearGradient id="paint3_linear_17225_544" x1="19.5834" y1="3.84099" x2="27.6749" y2="11.9325" gradientUnits="userSpaceOnUse">
<stop stop-color="#32A071"/>
<stop offset="0.0685" stop-color="#2DA771"/>
<stop offset="0.4762" stop-color="#15CF74"/>
<stop offset="0.8009" stop-color="#06E775"/>
<stop offset="1" stop-color="#00F076"/>
</linearGradient>
</defs>
</svg>
