<svg width="48" height="48" viewBox="0 0 48 48" fill="none" xmlns="http://www.w3.org/2000/svg">
<foreignObject x="-4.51641" y="-4.51641" width="57.0328" height="57.0328"><div xmlns="http://www.w3.org/1999/xhtml" style="backdrop-filter:blur(2.26px);clip-path:url(#bgblur_0_19163_15342_clip_path);height:100%;width:100%"></div></foreignObject><g data-figma-bg-blur-radius="4.51641">
<rect width="48" height="48" rx="12" fill="#EDF4EA"/>
<g filter="url(#filter1_d_19163_15342)">
<path d="M15.5625 11.5C15.0447 11.5 14.625 11.9197 14.625 12.4375V16.1875C14.625 16.7053 15.0447 17.125 15.5625 17.125H16.4512L16.4512 21.1875H15.5625C15.0447 21.1875 14.625 21.6072 14.625 22.125V25.875C14.625 26.3928 15.0447 26.8125 15.5625 26.8125H19.3125C19.8303 26.8125 20.25 26.3928 20.25 25.875V24.9375H27.75V25.875C27.75 26.3928 28.1697 26.8125 28.6875 26.8125H29.625V30.875H28.6875C28.1697 30.875 27.75 31.2947 27.75 31.8125V35.5625C27.75 36.0803 28.1697 36.5 28.6875 36.5H32.4375C32.9553 36.5 33.375 36.0803 33.375 35.5625V31.8125C33.375 31.2947 32.9553 30.875 32.4375 30.875H31.5V26.8125H32.4375C32.9553 26.8125 33.375 26.3928 33.375 25.875V22.125C33.375 21.6072 32.9553 21.1875 32.4375 21.1875H28.6875C28.1697 21.1875 27.75 21.6072 27.75 22.125V23.0625H20.25V22.125C20.25 21.6072 19.8303 21.1875 19.3125 21.1875H18.3262L18.3262 17.125H19.3125C19.8303 17.125 20.25 16.7053 20.25 16.1875V12.4375C20.25 11.9197 19.8303 11.5 19.3125 11.5H15.5625Z" fill="#B9D3AC"/>
<path d="M15.5625 11.5C15.0447 11.5 14.625 11.9197 14.625 12.4375V16.1875C14.625 16.7053 15.0447 17.125 15.5625 17.125H16.4512L16.4512 21.1875H15.5625C15.0447 21.1875 14.625 21.6072 14.625 22.125V25.875C14.625 26.3928 15.0447 26.8125 15.5625 26.8125H19.3125C19.8303 26.8125 20.25 26.3928 20.25 25.875V24.9375H27.75V25.875C27.75 26.3928 28.1697 26.8125 28.6875 26.8125H29.625V30.875H28.6875C28.1697 30.875 27.75 31.2947 27.75 31.8125V35.5625C27.75 36.0803 28.1697 36.5 28.6875 36.5H32.4375C32.9553 36.5 33.375 36.0803 33.375 35.5625V31.8125C33.375 31.2947 32.9553 30.875 32.4375 30.875H31.5V26.8125H32.4375C32.9553 26.8125 33.375 26.3928 33.375 25.875V22.125C33.375 21.6072 32.9553 21.1875 32.4375 21.1875H28.6875C28.1697 21.1875 27.75 21.6072 27.75 22.125V23.0625H20.25V22.125C20.25 21.6072 19.8303 21.1875 19.3125 21.1875H18.3262L18.3262 17.125H19.3125C19.8303 17.125 20.25 16.7053 20.25 16.1875V12.4375C20.25 11.9197 19.8303 11.5 19.3125 11.5H15.5625Z" stroke="url(#paint0_linear_19163_15342)" stroke-width="0.560904"/>
</g>
</g>
<defs>
<clipPath id="bgblur_0_19163_15342_clip_path" transform="translate(4.51641 4.51641)"><rect width="48" height="48" rx="12"/>
</clipPath><filter id="filter1_d_19163_15342" x="9.85651" y="11.2188" width="28.287" height="34.537" filterUnits="userSpaceOnUse" color-interpolation-filters="sRGB">
<feFlood flood-opacity="0" result="BackgroundImageFix"/>
<feColorMatrix in="SourceAlpha" type="matrix" values="0 0 0 0 0 0 0 0 0 0 0 0 0 0 0 0 0 0 127 0" result="hardAlpha"/>
<feOffset dy="4.48724"/>
<feGaussianBlur stdDeviation="2.24362"/>
<feComposite in2="hardAlpha" operator="out"/>
<feColorMatrix type="matrix" values="0 0 0 0 0.760662 0 0 0 0 0.829872 0 0 0 0 0.731 0 0 0 0.5 0"/>
<feBlend mode="normal" in2="BackgroundImageFix" result="effect1_dropShadow_19163_15342"/>
<feBlend mode="normal" in="SourceGraphic" in2="effect1_dropShadow_19163_15342" result="shape"/>
</filter>
<linearGradient id="paint0_linear_19163_15342" x1="24" y1="11.5" x2="24" y2="36.5" gradientUnits="userSpaceOnUse">
<stop stop-color="#DDE3E1"/>
<stop offset="1" stop-color="#C5F6BD"/>
</linearGradient>
</defs>
</svg>
