<svg width="48" height="48" viewBox="0 0 48 48" fill="none" xmlns="http://www.w3.org/2000/svg">
<foreignObject x="-4.51641" y="-4.51641" width="57.0328" height="57.0328"><div xmlns="http://www.w3.org/1999/xhtml" style="backdrop-filter:blur(2.26px);clip-path:url(#bgblur_0_19163_15344_clip_path);height:100%;width:100%"></div></foreignObject><g data-figma-bg-blur-radius="4.51641">
<rect width="48" height="48" rx="12" fill="#E6F9FF"/>
<g filter="url(#filter1_d_19163_15344)">
<path d="M20.5625 14.625L23.375 18.375H35.5625V33.375H12.4375V14.625H20.5625Z" fill="#94C3E7"/>
<path d="M20.5625 14.625L20.7625 14.475C20.7153 14.412 20.6412 14.375 20.5625 14.375V14.625ZM23.375 18.375L23.175 18.525C23.2222 18.588 23.2963 18.625 23.375 18.625V18.375ZM35.5625 18.375H35.8125C35.8125 18.2369 35.7006 18.125 35.5625 18.125V18.375ZM35.5625 33.375V33.625C35.7006 33.625 35.8125 33.5131 35.8125 33.375H35.5625ZM12.4375 33.375H12.1875C12.1875 33.5131 12.2994 33.625 12.4375 33.625V33.375ZM12.4375 14.625V14.375C12.2994 14.375 12.1875 14.4869 12.1875 14.625H12.4375ZM20.5625 14.625L20.3625 14.775L23.175 18.525L23.375 18.375L23.575 18.225L20.7625 14.475L20.5625 14.625ZM23.375 18.375V18.625H35.5625V18.375V18.125H23.375V18.375ZM35.5625 18.375H35.3125V33.375H35.5625H35.8125V18.375H35.5625ZM35.5625 33.375V33.125H12.4375V33.375V33.625H35.5625V33.375ZM12.4375 33.375H12.6875V14.625H12.4375H12.1875V33.375H12.4375ZM12.4375 14.625V14.875H20.5625V14.625V14.375H12.4375V14.625Z" fill="url(#paint0_linear_19163_15344)"/>
</g>
</g>
<defs>
<clipPath id="bgblur_0_19163_15344_clip_path" transform="translate(4.51641 4.51641)"><rect width="48" height="48" rx="12"/>
</clipPath><filter id="filter1_d_19163_15344" x="7.70026" y="14.375" width="32.5995" height="28.2245" filterUnits="userSpaceOnUse" color-interpolation-filters="sRGB">
<feFlood flood-opacity="0" result="BackgroundImageFix"/>
<feColorMatrix in="SourceAlpha" type="matrix" values="0 0 0 0 0 0 0 0 0 0 0 0 0 0 0 0 0 0 127 0" result="hardAlpha"/>
<feOffset dy="4.48724"/>
<feGaussianBlur stdDeviation="2.24362"/>
<feComposite in2="hardAlpha" operator="out"/>
<feColorMatrix type="matrix" values="0 0 0 0 0.413271 0 0 0 0 0.682503 0 0 0 0 0.780405 0 0 0 0.25 0"/>
<feBlend mode="normal" in2="BackgroundImageFix" result="effect1_dropShadow_19163_15344"/>
<feBlend mode="normal" in="SourceGraphic" in2="effect1_dropShadow_19163_15344" result="shape"/>
</filter>
<linearGradient id="paint0_linear_19163_15344" x1="24" y1="14.625" x2="24" y2="33.375" gradientUnits="userSpaceOnUse">
<stop stop-color="#D1F5FF"/>
<stop offset="1" stop-color="#8DBCDF"/>
</linearGradient>
</defs>
</svg>
