<svg xmlns="http://www.w3.org/2000/svg" width="110" height="26" viewBox="0 0 110 26" fill="none"><path d="M55.2156 14.266C52.9818 14.266 51.161 15.969 51.161 18.3147C51.161 20.6461 52.9818 22.3635 55.2156 22.3635C57.4504 22.3635 59.2711 20.6461 59.2711 18.3147C59.2701 15.969 57.4495 14.266 55.2156 14.266ZM55.2156 20.7698C53.9914 20.7698 52.9362 19.7579 52.9362 18.3157C52.9362 16.8582 53.9923 15.8615 55.2156 15.8615C56.4398 15.8615 57.495 16.8582 57.495 18.3157C57.495 19.7569 56.4398 20.7698 55.2156 20.7698ZM46.3695 14.266C44.1356 14.266 42.3149 15.969 42.3149 18.3147C42.3149 20.6461 44.1356 22.3635 46.3695 22.3635C48.6043 22.3635 50.425 20.6461 50.425 18.3147C50.425 15.969 48.6043 14.266 46.3695 14.266ZM46.3695 20.7698C45.1452 20.7698 44.09 19.7579 44.09 18.3157C44.09 16.8582 45.1462 15.8615 46.3695 15.8615C47.5937 15.8615 48.6489 16.8582 48.6489 18.3157C48.6499 19.7569 47.5937 20.7698 46.3695 20.7698ZM35.848 17.2266H39.9491C39.8265 18.1929 39.5055 18.8983 39.0154 19.3885C38.419 19.9864 37.4854 20.6461 35.848 20.6461C33.3235 20.6461 31.3499 18.606 31.3499 16.0757C31.3499 13.5453 33.3235 11.5052 35.848 11.5052C37.2099 11.5052 38.2043 12.0421 38.9385 12.7323L40.1476 11.5205C39.1218 10.539 37.7608 9.78786 35.848 9.78786C32.3899 9.78786 29.4826 12.6095 29.4826 16.0757C29.4826 19.5418 32.3899 22.3635 35.848 22.3635C37.7143 22.3635 39.1228 21.7494 40.2235 20.5994C41.3557 19.4647 41.708 17.8692 41.708 16.5812C41.708 16.1832 41.6776 15.8148 41.6159 15.5083H35.848V17.2266ZM78.88 16.843C78.5438 15.9386 77.518 14.266 75.4219 14.266C73.3409 14.266 71.6114 15.9072 71.6114 18.3147C71.6114 20.5842 73.3257 22.3635 75.6204 22.3635C77.4715 22.3635 78.5428 21.2287 78.9873 20.569L77.6101 19.6484C77.1514 20.3234 76.5236 20.7679 75.6204 20.7679C74.7181 20.7679 74.0751 20.3538 73.662 19.5408L79.0633 17.3018L78.88 16.843ZM73.3713 18.1929C73.3257 16.6278 74.5804 15.831 75.4836 15.831C76.1874 15.831 76.7838 16.1842 76.9833 16.6897L73.3713 18.1929ZM68.9806 22.1188H70.7547V10.2182H68.9806V22.1188ZM66.0116 15.1713C65.6136 14.6953 64.8481 14.266 63.8851 14.266C61.8649 14.266 60.0138 16.0452 60.0138 18.3309C60.0138 20.6004 61.8649 22.3644 63.8851 22.3644C64.8491 22.3644 65.6136 21.9351 66.0116 21.4448H66.0724V22.0274C66.0724 23.5763 65.2461 24.4045 63.9155 24.4045C62.8289 24.4045 62.1555 23.6229 61.8801 22.9632L60.3348 23.6077C60.7784 24.6806 61.9561 26 63.9155 26C65.9964 26 67.7563 24.7729 67.7563 21.7818V14.5125H66.0733V15.1713H66.0116ZM64.038 20.7698C62.8137 20.7698 61.7889 19.7417 61.7889 18.3309C61.7889 16.9039 62.8137 15.8615 64.038 15.8615C65.2461 15.8615 66.1949 16.9039 66.1949 18.3309C66.1949 19.7417 65.2461 20.7698 64.038 20.7698ZM87.1942 10.2182H82.9478V22.1188H84.7191V17.6102H87.1933C89.1574 17.6102 91.0892 16.1851 91.0892 13.9147C91.0892 11.6442 89.1583 10.2182 87.1942 10.2182ZM87.2398 15.9538H84.7191V11.8746H87.2398C88.5647 11.8746 89.317 12.9741 89.317 13.9147C89.317 14.8362 88.5647 15.9538 87.2398 15.9538ZM98.1925 14.245C96.9094 14.245 95.5807 14.8114 95.0307 16.0671L96.6036 16.7249C96.9398 16.0671 97.5666 15.8519 98.2229 15.8519C99.1394 15.8519 100.071 16.4031 100.086 17.3827V17.5055C99.7653 17.3218 99.0777 17.0467 98.2381 17.0467C96.5428 17.0467 94.8161 17.9806 94.8161 19.7255C94.8161 21.3182 96.2066 22.3435 97.7642 22.3435C98.9552 22.3435 99.6124 21.8075 100.025 21.1792H100.085V22.0979H101.797V17.535C101.798 15.4236 100.223 14.245 98.1925 14.245ZM97.9779 20.767C97.3985 20.767 96.5884 20.4757 96.5884 19.756C96.5884 18.8373 97.597 18.4851 98.468 18.4851C99.2458 18.4851 99.6134 18.6536 100.086 18.883C99.9486 19.9864 99.0017 20.767 97.9779 20.767ZM108.029 14.5049L105.998 19.6646H105.937L103.828 14.5049H101.919L105.081 21.7161L103.279 25.7277H105.127L110 14.5049H108.029ZM92.0675 22.1188H93.8388V10.2182H92.0675V22.1188Z" fill="white"></path><path d="M35.5384 3.31092C35.5384 4.10868 35.3028 4.74365 34.8308 5.21773C34.2951 5.7813 33.5961 6.06308 32.7375 6.06308C31.915 6.06308 31.2151 5.77749 30.6404 5.20631C30.0649 4.63417 29.7771 3.9259 29.7771 3.08055C29.7771 2.23424 30.0649 1.52597 30.6404 0.954786C31.2151 0.382649 31.915 0.0970575 32.7375 0.0970575C33.1459 0.0970575 33.5363 0.177023 33.9067 0.336003C34.2781 0.495934 34.5753 0.708225 34.7976 0.973826L34.2971 1.47647C33.92 1.02428 33.4005 0.798663 32.7366 0.798663C32.1363 0.798663 31.6178 1.01 31.1799 1.43268C30.7421 1.85536 30.5236 2.40464 30.5236 3.07959C30.5236 3.75454 30.7421 4.30383 31.1799 4.72651C31.6178 5.14919 32.1363 5.36053 32.7366 5.36053C33.3729 5.36053 33.9038 5.14824 34.3284 4.7227C34.6038 4.44568 34.7634 4.06013 34.8061 3.56605H32.7366V2.87968H35.4976C35.526 3.02914 35.5384 3.17289 35.5384 3.31092Z" fill="white"></path><path d="M39.9169 0.925329H37.3221V2.73599H39.6624V3.42236H37.3221V5.23302H39.9169V5.93557H36.5899V0.223724H39.9169V0.925329Z" fill="white"></path><path d="M43.0045 5.93557H42.2722V0.925329H40.6804V0.223724H44.5963V0.925329H43.0045V5.93557Z" fill="white"></path><path d="M47.4294 5.93557V0.223724H48.1617V5.93557H47.4294Z" fill="white"></path><path d="M51.4091 5.93557H50.6768V0.925329H49.085V0.223724H53.0009V0.925329H51.4091V5.93557Z" fill="white"></path><path d="M60.4136 5.19778C59.8532 5.77468 59.1571 6.06313 58.3241 6.06313C57.4912 6.06313 56.795 5.77468 56.2356 5.19778C55.6752 4.62089 55.396 3.91452 55.396 3.07964C55.396 2.24476 55.6752 1.53839 56.2356 0.961494C56.795 0.384598 57.4912 0.0951974 58.3241 0.0951974C59.1523 0.0951974 59.8475 0.385549 60.4098 0.965302C60.9721 1.54505 61.2532 2.24952 61.2532 3.07964C61.2532 3.91452 60.973 4.62089 60.4136 5.19778ZM56.776 4.71894C57.1977 5.14733 57.7134 5.36057 58.3241 5.36057C58.9348 5.36057 59.4515 5.14638 59.8722 4.71894C60.2939 4.29055 60.5057 3.74412 60.5057 3.07964C60.5057 2.41516 60.2939 1.86873 59.8722 1.44034C59.4515 1.01195 58.9348 0.798707 58.3241 0.798707C57.7134 0.798707 57.1977 1.0129 56.776 1.44034C56.3552 1.86873 56.1435 2.41516 56.1435 3.07964C56.1435 3.74412 56.3552 4.29055 56.776 4.71894Z" fill="white"></path><path d="M62.2809 5.93557V0.223724H63.1717L65.9413 4.66659H65.9726L65.9413 3.56611V0.223724H66.6735V5.93557H65.909L63.0112 1.27661H62.9799L63.0112 2.37709V5.93557H62.2809Z" fill="white"></path><path fill-rule="evenodd" clip-rule="evenodd" d="M58.3241 0.190395C57.5158 0.190395 56.8445 0.4701 56.3037 1.02785C55.7613 1.58618 55.491 2.26845 55.491 3.07964C55.491 3.89083 55.7613 4.57304 56.3036 5.13138C56.8444 5.68906 57.5157 5.96793 58.3241 5.96793C59.1325 5.96793 59.8038 5.68913 60.3455 5.13138C60.887 4.57297 61.1582 3.89073 61.1582 3.07964C61.1582 2.27358 60.8862 1.59313 60.3417 1.03166C59.7978 0.470862 59.1274 0.190395 58.3241 0.190395ZM56.1675 0.895144C56.7455 0.299095 57.4665 0 58.3241 0C59.1772 0 59.8973 0.300237 60.4779 0.898947C61.0579 1.49698 61.3482 2.22546 61.3482 3.07964C61.3482 3.93828 61.059 4.66875 60.4817 5.26413C59.9028 5.86017 59.1816 6.15833 58.3241 6.15833C57.4666 6.15833 56.7455 5.86024 56.1675 5.26413C55.5891 4.66869 55.301 3.93819 55.301 3.07964C55.301 2.22107 55.5891 1.4906 56.1675 0.895144ZM32.7375 0.192255C31.9396 0.192255 31.2638 0.468271 30.7074 1.02232C30.1507 1.57481 29.8721 2.25846 29.8721 3.08055C29.8721 3.90165 30.1505 4.58523 30.7073 5.13871C31.2638 5.69186 31.9396 5.96789 32.7375 5.96789C33.5732 5.96789 34.2463 5.69464 34.7621 5.15207L34.7636 5.15047C35.2145 4.69759 35.4434 4.08864 35.4434 3.31092C35.4434 3.20259 35.4355 3.0906 35.4176 2.97488H32.8316V3.47086H34.9097L34.9007 3.57428C34.8566 4.08458 34.6906 4.49323 34.3957 4.7899C33.9521 5.23449 33.3964 5.45572 32.7366 5.45572C32.1114 5.45572 31.5693 5.23458 31.114 4.79508C30.6555 4.35238 30.4287 3.77726 30.4287 3.07959C30.4287 2.38193 30.6555 1.80681 31.114 1.36411C31.5693 0.924607 32.1114 0.703465 32.7366 0.703465C33.3858 0.703465 33.9103 0.912932 34.3014 1.33729L34.6675 0.969676C34.4632 0.747219 34.1977 0.56495 33.8692 0.423468C33.5107 0.269612 33.1332 0.192255 32.7375 0.192255ZM30.5736 0.887187C31.1663 0.297007 31.8905 0.0018601 32.7375 0.0018601C33.1587 0.0018601 33.5617 0.0843875 33.9441 0.248491C34.3267 0.41326 34.637 0.633781 34.8703 0.912651L34.9262 0.979409L34.2908 1.61746L34.2242 1.53752C33.8676 1.10993 33.3764 0.89386 32.7366 0.89386C32.1613 0.89386 31.6662 1.0954 31.2458 1.50125C30.8287 1.9039 30.6186 2.42736 30.6186 3.07959C30.6186 3.73183 30.8287 4.25528 31.2458 4.65794C31.6662 5.06379 32.1613 5.26533 32.7366 5.26533C33.3494 5.26533 33.8556 5.0619 34.2611 4.6555C34.4982 4.41703 34.6471 4.08835 34.7006 3.66125H32.6416V2.78448H35.5761L35.5908 2.86181C35.6205 3.01741 35.6334 3.16714 35.6334 3.31092C35.6334 4.12828 35.3914 4.78899 34.8988 5.2842C34.3433 5.86823 33.6186 6.15828 32.7375 6.15828C31.8905 6.15828 31.1663 5.86312 30.5736 5.2739C29.9792 4.68311 29.6821 3.95015 29.6821 3.08055C29.6821 2.21004 29.9792 1.47706 30.5736 0.887187ZM36.4949 0.128526H40.0119V1.02053H37.4171V2.64079H39.7573V3.51756H37.4171V5.13782H40.0119V6.03077H36.4949V0.128526ZM36.6849 0.318921V5.84038H39.8219V5.32821H37.2272V3.32716H39.5674V2.83118H37.2272V0.830131H39.8219V0.318921H36.6849ZM40.5854 0.128526H44.6913V1.02053H43.0995V6.03077H42.1772V1.02053H40.5854V0.128526ZM40.7754 0.318921V0.830131H42.3672V5.84038H42.9095V0.830131H44.5013V0.318921H40.7754ZM47.3344 0.128526H48.2567V6.03077H47.3344V0.128526ZM47.5244 0.318921V5.84038H48.0667V0.318921H47.5244ZM48.99 0.128526H53.0959V1.02053H51.5041V6.03077H50.5818V1.02053H48.99V0.128526ZM49.18 0.318921V0.830131H50.7718V5.84038H51.3141V0.830131H52.9059V0.318921H49.18ZM62.1859 0.128526H63.2244L65.8692 4.37129L65.8463 3.56882L65.8463 3.56611V0.128526H66.7685V6.03077H65.8563L63.0833 1.57248L63.1062 2.37709L63.1062 6.03077H62.1859V0.128526ZM62.3758 0.318921V5.84038H62.9163V2.37709L62.8822 1.18141H63.0639L65.9617 5.84038H66.5786V0.318921H66.0362V3.56611L66.0703 4.76179H65.8886L63.1191 0.318921H62.3758ZM56.7085 1.3734C57.1483 0.927566 57.6885 0.70351 58.3241 0.70351C58.9595 0.70351 59.5008 0.926484 59.9398 1.37348C60.3809 1.82154 60.6007 2.39288 60.6007 3.07964C60.6007 3.7664 60.3809 4.33773 59.9398 4.7858C59.5009 5.23175 58.9597 5.45577 58.3241 5.45577C57.6886 5.45577 57.1483 5.23273 56.7084 4.7858C56.2683 4.33776 56.0485 3.76639 56.0485 3.07964C56.0485 2.39289 56.2684 1.82145 56.7085 1.3734ZM56.8435 1.50728C56.4422 1.91599 56.2384 2.43751 56.2384 3.07964C56.2384 3.72181 56.4422 4.24336 56.8436 4.65208C57.2471 5.06193 57.7382 5.26537 58.3241 5.26537C58.9099 5.26537 59.4021 5.061 59.8046 4.65208C60.207 4.24337 60.4108 3.72184 60.4108 3.07964C60.4108 2.43744 60.207 1.91591 59.8046 1.5072C59.4022 1.09747 58.91 0.893905 58.3241 0.893905C57.7383 0.893905 57.2471 1.09824 56.8435 1.50728Z" fill="white"></path><path d="M10.2006 11.9133L0.0950693 22.6706C0.408492 23.8415 1.47223 24.6983 2.73542 24.6983C3.2388 24.6983 3.71368 24.565 4.12208 24.3175L4.15057 24.2985L15.5288 17.7203L10.2006 11.9038V11.9133Z" fill="#EA4335"></path><path d="M20.4387 10.0856H20.4292L15.519 7.22014L9.98182 12.1609L15.5379 17.7299L20.4292 14.9026C21.284 14.4361 21.8634 13.5317 21.8634 12.4941C21.8634 11.4564 21.2935 10.552 20.4387 10.0951V10.0856Z" fill="#FBBC04"></path><path d="M0.0949766 2.26038C0.0379906 2.48886 0 2.71733 0 2.96484V21.9758C0 22.2233 0.028493 22.4518 0.0949766 22.6802L10.5519 12.199L0.0949766 2.26038Z" fill="#4285F4"></path><path d="M10.2766 12.4659L15.5098 7.22051L4.14107 0.6138C3.73267 0.366287 3.24829 0.223491 2.72592 0.223491C1.47223 0.223491 0.398994 1.08979 0.0950693 2.2512L10.2861 12.4564L10.2766 12.4659Z" fill="#34A853"></path></svg>