<svg width="85" height="25" viewBox="0 0 85 25" fill="none" xmlns="http://www.w3.org/2000/svg">
<path fill-rule="evenodd" clip-rule="evenodd" d="M57.6345 7.85827C58.6395 7.85827 59.5246 8.09067 60.2896 8.55567C61.0696 9.02065 61.677 9.65824 62.112 10.4682C62.562 11.2782 62.7869 12.2009 62.7869 13.2359C62.7869 13.4159 62.772 13.6033 62.742 13.7983C62.727 13.9783 62.6969 14.1808 62.6519 14.4058H54.5955C54.6629 14.6871 54.7605 14.9497 54.8895 15.1933C55.1595 15.7033 55.542 16.1007 56.037 16.3857C56.532 16.6557 57.1021 16.7909 57.7471 16.7909C58.302 16.7909 58.812 16.6933 59.2769 16.4983C59.7569 16.3033 60.162 16.0181 60.492 15.6431L62.0671 17.2406C61.5421 17.8556 60.9045 18.3207 60.1546 18.6357C59.4046 18.9507 58.6095 19.1082 57.7695 19.1082C56.6896 19.1082 55.7146 18.8683 54.8446 18.3884C53.9896 17.8934 53.307 17.2183 52.797 16.3633C52.302 15.5083 52.0547 14.5482 52.0547 13.4832C52.0547 12.4183 52.302 11.4657 52.797 10.6257C53.292 9.77073 53.9597 9.09587 54.7997 8.60088C55.6546 8.10591 56.5995 7.85828 57.6345 7.85827ZM57.5896 10.1307C56.9596 10.1307 56.4121 10.2659 55.9471 10.5359C55.4821 10.8059 55.1221 11.1883 54.8671 11.6833C54.7538 11.8965 54.666 12.129 54.6031 12.3807H60.3509C60.286 12.0628 60.1905 11.7779 60.0644 11.5258C59.8394 11.0758 59.5169 10.7306 59.0969 10.4906C58.692 10.2507 58.1895 10.1307 57.5896 10.1307Z" fill="#6B7280"/>
<path d="M78.0722 14.2483C78.0722 14.7733 78.1546 15.2232 78.3196 15.5982C78.4996 15.9582 78.7547 16.2356 79.0846 16.4306C79.4296 16.6256 79.8345 16.7232 80.2995 16.7232C81.0195 16.7232 81.5672 16.5132 81.9422 16.0932C82.3321 15.6582 82.527 15.0432 82.527 14.2483V8.08345H85.0022V14.3609C85.0021 15.3058 84.7996 16.1383 84.3946 16.8582C84.0046 17.5632 83.4571 18.1181 82.7522 18.5231C82.0472 18.9131 81.2295 19.1082 80.2995 19.1082C79.3845 19.1082 78.567 18.9056 77.8471 18.5007C77.1421 18.0957 76.5872 17.5407 76.1822 16.8358C75.7922 16.1158 75.5971 15.2908 75.5971 14.3609V8.08345H78.0722V14.2483Z" fill="#6B7280"/>
<path d="M35.9492 3.13341L41.9117 12.9477L47.8741 3.13341H49.6741V18.8833H47.0866V8.79718L42.8118 15.8234H41.0119L36.7368 8.79718V18.8833H34.1493V3.13341H35.9492Z" fill="#6B7280"/>
<path d="M67.2461 13.1612L71.611 8.08345H74.5584L70.0077 13.2613L74.7836 18.8833H71.6335L67.2461 13.5877V18.8833H64.7709V2.68335H67.2461V13.1612Z" fill="#6B7280"/>
<path d="M0 5.02325H21.8854L21.8854 2.814C21.8854 1.25987 20.6255 0 19.0713 0H2.81407C1.2599 0 0 1.25987 0 2.814V5.02325Z" fill="#6B7280"/>
<path d="M0 19.0727C0 20.6268 1.2599 21.8867 2.81407 21.8867H13.6755C12.8918 20.8841 11.6625 20.2334 10.2683 20.2318L8.42511 20.2298L8.42511 14.7659L10.2683 14.7639C12.6623 14.7613 14.5704 12.8442 14.5704 10.5191V8.67392H20.0566V10.5191C20.0566 11.9467 20.7759 13.2205 21.8854 13.9918L21.8854 6.89916L0 6.89924V19.0727Z" fill="#6B7280"/>
<path d="M16.417 10.521C16.417 13.8821 13.6663 16.6072 10.2717 16.611L10.2717 18.3886C13.6663 18.3923 16.417 21.1175 16.417 24.4786H18.2128C18.2128 21.1175 20.9635 18.3923 24.358 18.3886L24.358 16.611C20.9635 16.6072 18.2128 13.8821 18.2128 10.521H16.417Z" fill="#6B7280"/>
</svg>
