<svg width="87" height="24" viewBox="0 0 87 24" fill="none" xmlns="http://www.w3.org/2000/svg">
<g clip-path="url(#clip0_15142_9818)">
<path d="M74.8511 13.6144C74.8511 13.2724 75.1487 12.9899 75.4907 12.9899C75.8327 12.9899 76.1153 13.2724 76.1153 13.6144C76.1153 13.9564 75.8177 14.2389 75.4907 14.2389C75.1631 14.2389 74.8511 13.9564 74.8511 13.6144Z" fill="#6B7280"/>
<path d="M76.9941 12.0253H77.8413V12.3375C77.8413 12.962 78.1833 13.423 78.8973 13.423C79.6113 13.423 79.9383 12.9769 79.9383 12.3078V7.69812H80.8005V12.3375C80.8005 13.4974 80.0271 14.2111 78.8823 14.2111C77.6631 14.2111 76.9791 13.4379 76.9791 12.3227V12.0104L76.9941 12.0253Z" fill="#6B7280"/>
<path d="M84.0865 7.60803C85.3063 7.60803 86.0941 8.29203 86.1685 9.40731H85.2913C85.2463 8.76789 84.8005 8.39613 84.0721 8.39613C83.2687 8.39613 82.7485 8.79759 82.7485 9.43701C82.7485 9.95745 83.0455 10.2549 83.6407 10.4036L84.6961 10.6563C85.7371 10.8943 86.2723 11.4593 86.2723 12.3664C86.2723 13.5263 85.3801 14.2549 84.0121 14.2549C82.6441 14.2549 81.8413 13.5708 81.7819 12.4705H82.6741C82.6891 13.0802 83.2093 13.4668 84.0121 13.4668C84.8599 13.4668 85.4101 13.0653 85.4101 12.4259C85.4101 11.9203 85.1425 11.6081 84.5179 11.4593L83.4619 11.2214C82.4215 10.9835 81.8713 10.3739 81.8713 9.45189C81.8713 8.35155 82.7635 7.60803 84.0865 7.60803Z" fill="#6B7280"/>
<path d="M40.7853 1.19666V10.4308L34.6738 1.19666H32.4136V14.2375H34.659V4.98848L40.7853 14.2375H43.0307V1.19666H40.7853Z" fill="#6B7280"/>
<path d="M52.8159 1.19666V3.29331H47.0018V6.65389H52.2063V8.66137H47.0018V12.126H52.8159V14.2375H44.7119V1.19666H52.8159Z" fill="#6B7280"/>
<path d="M67.4192 1.19666L65.9918 3.29331H70.1252V14.2375H72.4154V3.29331H75.3302L76.7426 1.19666H67.4192Z" fill="#6B7280"/>
<path d="M57.7074 9.09424L59.1052 11.1463L56.9937 14.2392H54.213L57.7074 9.09424Z" fill="#6B7280"/>
<path d="M65.9015 14.2376H63.1061L60.0575 9.74686L58.66 7.6948L54.2436 1.19666H57.0242L60.0575 5.64275L63.0761 1.19666H65.8571L62.9129 5.52379L61.4405 7.6948L65.9015 14.2376Z" fill="#6B7280"/>
<path d="M32.4136 15.9719H36.3095V16.4775H34.6292V21.3995H34.0791V16.4775H32.4136V15.9719Z" fill="#6B7280"/>
<path d="M36.1323 19.5553C36.1323 18.4103 36.8461 17.6222 37.9018 17.6222C38.9576 17.6222 39.5673 18.3211 39.5673 19.362V19.6148H36.6379C36.6825 20.507 37.1435 21.0274 37.9316 21.0274C38.5264 21.0274 38.913 20.7747 39.0617 20.2839H39.5673C39.3739 21.0571 38.794 21.4735 37.9316 21.4735C36.8461 21.4735 36.1323 20.7003 36.1323 19.5553ZM36.6528 19.243H39.0468C39.0468 18.5442 38.5858 18.0683 37.9018 18.0683C37.2178 18.0683 36.7569 18.5293 36.6676 19.243H36.6528Z" fill="#6B7280"/>
<path d="M40.3996 21.3992V17.7263H40.8606L40.92 18.2467C41.0985 17.8602 41.5148 17.6222 42.0353 17.6222C42.6152 17.6222 43.0464 17.9196 43.2249 18.4103C43.3884 17.9345 43.8345 17.6222 44.4293 17.6222C45.2323 17.6222 45.7527 18.1427 45.7527 18.9903V21.3992H45.2472V19.1092C45.2472 18.4847 44.8903 18.1129 44.3401 18.1129C43.7304 18.1129 43.3587 18.5739 43.3587 19.1389V21.3992H42.8382V19.0944C42.8382 18.4698 42.4814 18.1129 41.9312 18.1129C41.3215 18.1129 40.9498 18.5739 40.9498 19.1241V21.3992H40.3996Z" fill="#6B7280"/>
<path d="M46.7948 17.7263H47.2558L47.3152 18.4698C47.568 17.9047 48.0885 17.6222 48.713 17.6222C49.7836 17.6222 50.4082 18.4401 50.4082 19.5405C50.4082 20.6408 49.7985 21.4735 48.713 21.4735C48.0885 21.4735 47.5978 21.2059 47.345 20.6706V22.9754H46.8246V17.7114L46.7948 17.7263ZM48.609 21.0126C49.4119 21.0126 49.8729 20.4029 49.8729 19.5553C49.8729 18.7077 49.4119 18.0981 48.609 18.0981C47.806 18.0981 47.3301 18.7077 47.3301 19.5553C47.3301 20.4029 47.806 21.0126 48.609 21.0126Z" fill="#6B7280"/>
<path d="M51.2551 21.3975V16.2376L51.7755 15.8658V21.3826H51.2551V21.3975Z" fill="#6B7280"/>
<path d="M52.6962 20.401C52.6962 19.7318 53.2167 19.3006 54.0792 19.2411L55.2985 19.137V19.0181C55.2985 18.3043 54.8673 18.0664 54.332 18.0664C53.6925 18.0664 53.3208 18.3489 53.3208 18.8545H52.845C52.845 18.111 53.4546 17.6351 54.3617 17.6351C55.2093 17.6351 55.8338 18.0664 55.8338 19.0329V21.3973H55.3877L55.3134 20.7578C55.0903 21.2188 54.5847 21.5013 53.9602 21.5013C53.1721 21.5013 52.7111 21.0552 52.7111 20.4158L52.6962 20.401ZM55.2836 19.7318V19.5385L54.1981 19.6277C53.4992 19.6872 53.2316 19.9846 53.2316 20.401C53.2316 20.8471 53.5587 21.0701 54.0643 21.0701C54.8375 21.0701 55.2836 20.5348 55.2836 19.7318Z" fill="#6B7280"/>
<path d="M57.1134 21.3966V18.1698H56.3699V17.7237H57.1134V16.9207L57.6338 16.5638V17.7237H58.3774V18.1698H57.6338V21.3966H57.1134Z" fill="#6B7280"/>
<path d="M58.7488 19.5553C58.7488 18.4103 59.4626 17.6222 60.5186 17.6222C61.574 17.6222 62.1836 18.3211 62.1836 19.362V19.6148H59.2544C59.299 20.507 59.76 21.0274 60.548 21.0274C61.1426 21.0274 61.5296 20.7747 61.6784 20.2839H62.1836C61.9904 21.0571 61.4108 21.4735 60.548 21.4735C59.4626 21.4735 58.7488 20.7003 58.7488 19.5553ZM59.2693 19.243H61.6634C61.6634 18.5442 61.2026 18.0683 60.5186 18.0683C59.8343 18.0683 59.3734 18.5293 59.2842 19.243H59.2693Z" fill="#6B7280"/>
<path d="M63.2108 20.3571C63.2108 20.7884 63.5234 21.0411 64.0436 21.0411C64.6088 21.0411 64.9508 20.8032 64.9508 20.4017C64.9508 20.1043 64.802 19.9259 64.3706 19.8218L63.7466 19.6582C63.107 19.4946 62.7944 19.1675 62.7944 18.662C62.7944 18.0225 63.3302 17.6062 64.118 17.6062C64.9064 17.6062 65.3966 18.0374 65.4116 18.7065H64.9064C64.9064 18.2753 64.5938 18.0374 64.103 18.0374C63.6122 18.0374 63.3002 18.2604 63.3002 18.6471C63.3002 18.9296 63.4934 19.1229 63.8948 19.227L64.5194 19.3905C65.159 19.5542 65.4416 19.8515 65.4416 20.372C65.4416 21.0263 64.8764 21.4575 64.0436 21.4575C63.2108 21.4575 62.7056 21.0114 62.7056 20.3423H63.2108V20.3571Z" fill="#6B7280"/>
<path d="M85.636 19.6405H68.0602L68.7292 18.8672H86.2906L85.636 19.6405Z" fill="#6B7280"/>
<path d="M24.0149 11.9851C24.0149 13.6357 23.6877 15.2119 23.0929 16.6246C21.2788 20.9665 17.0111 24 12.0149 24C5.3829 24 0 18.632 0 12C0 5.36803 5.3829 0 12.0149 0C15.8662 0 19.3011 1.81412 21.5018 4.6394H11.7918L13.487 7.18218H15.658V15.0632L13.2342 11.3903L8.75838 4.6394H6.20076V19.2H8.7435V8.92194L15.658 19.3606H18.1859V7.18218H23.0186C23.658 8.65428 24.0149 10.2751 24.0149 11.9851Z" fill="#6B7280"/>
</g>
<defs>
<clipPath id="clip0_15142_9818">
<rect width="86.4" height="24" fill="white"/>
</clipPath>
</defs>
</svg>
