<svg width="132" height="24" viewBox="0 0 132 24" fill="none" xmlns="http://www.w3.org/2000/svg">
<path d="M33.0007 6.87757H37.7087V20.364H40.5247V6.87757H45.2327V4.28149H33.0007V6.87757Z" fill="#6B7280"/>
<path d="M48.3756 20.65C50.0696 20.65 51.5436 19.8799 52.0056 18.7579L52.2036 20.364H54.5576V13.7638C54.5576 10.7497 52.7536 9.16563 49.8276 9.16563C46.8796 9.16563 44.9436 10.7057 44.9436 13.0597H47.2316C47.2316 11.9157 48.1116 11.2557 49.6956 11.2557C51.0596 11.2557 51.9396 11.8497 51.9396 13.3238V13.5658L48.6836 13.8078C46.1096 14.0058 44.6576 15.2598 44.6576 17.2619C44.6576 19.3079 46.0656 20.65 48.3756 20.65ZM49.2556 18.6259C48.0456 18.6259 47.3856 18.1419 47.3856 17.1519C47.3856 16.2718 48.0236 15.7218 49.6956 15.5678L51.9616 15.3918V15.9638C51.9616 17.6359 50.9056 18.6259 49.2556 18.6259Z" fill="#6B7280"/>
<path d="M58.5363 7.31758C59.4163 7.31758 60.1423 6.59156 60.1423 5.68953C60.1423 4.78751 59.4163 4.08349 58.5363 4.08349C57.6123 4.08349 56.8863 4.78751 56.8863 5.68953C56.8863 6.59156 57.6123 7.31758 58.5363 7.31758ZM57.1943 20.364H59.8783V9.49564H57.1943V20.364Z" fill="#6B7280"/>
<path d="M65.3573 20.364V3.99548H62.6953V20.364H65.3573Z" fill="#6B7280"/>
<path d="M69.9548 20.364L71.2528 16.6459H77.2588L78.5568 20.364H81.5268L75.7188 4.28149H72.8368L67.0288 20.364H69.9548ZM73.9148 9.07763C74.0688 8.63762 74.2008 8.1536 74.2668 7.8456C74.3108 8.1756 74.4648 8.65962 74.5968 9.07763L76.4448 14.2698H72.0888L73.9148 9.07763Z" fill="#6B7280"/>
<path d="M87.1193 20.65C88.7693 20.65 90.1773 19.9239 90.8373 18.6699L91.0133 20.364H93.4773V3.99548H90.8153V10.8817C90.1333 9.80365 88.7913 9.16563 87.2733 9.16563C83.9953 9.16563 82.0153 11.5857 82.0153 14.9738C82.0153 18.3399 83.9733 20.65 87.1193 20.65ZM87.7133 18.1859C85.8433 18.1859 84.6993 16.8219 84.6993 14.8858C84.6993 12.9497 85.8433 11.5637 87.7133 11.5637C89.5833 11.5637 90.7933 12.9277 90.7933 14.8858C90.7933 16.8439 89.5833 18.1859 87.7133 18.1859Z" fill="#6B7280"/>
<path d="M98.9584 20.364V14.2038C98.9584 12.4437 99.9923 11.6077 101.268 11.6077C102.544 11.6077 103.358 12.4217 103.358 13.9398V20.364H106.042V14.2038C106.042 12.4217 107.032 11.5857 108.33 11.5857C109.606 11.5857 110.442 12.3997 110.442 13.9618V20.364H113.104V13.2578C113.104 10.7497 111.652 9.16563 109.012 9.16563C107.362 9.16563 106.086 9.97966 105.536 11.2337C104.964 9.97966 103.82 9.16563 102.17 9.16563C100.608 9.16563 99.5083 9.86965 98.9584 10.7717L98.7383 9.49564H96.2744V20.364H98.9584Z" fill="#6B7280"/>
<path d="M117.081 7.31758C117.961 7.31758 118.687 6.59156 118.687 5.68953C118.687 4.78751 117.961 4.08349 117.081 4.08349C116.157 4.08349 115.431 4.78751 115.431 5.68953C115.431 6.59156 116.157 7.31758 117.081 7.31758ZM115.739 20.364H118.423V9.49564H115.739V20.364Z" fill="#6B7280"/>
<path d="M123.88 20.364V14.5118C123.88 12.7517 124.892 11.6077 126.542 11.6077C127.928 11.6077 128.83 12.4877 128.83 14.3138V20.364H131.514V13.6758C131.514 10.8597 130.106 9.16563 127.378 9.16563C125.904 9.16563 124.584 9.80365 123.902 10.9037L123.682 9.49564H121.196V20.364H123.88Z" fill="#6B7280"/>
<path fill-rule="evenodd" clip-rule="evenodd" d="M17.6843 0C21.1724 2.13757e-05 24 2.8277 24 6.3159V17.6841C24 21.1723 21.1724 24 17.6843 24H6.31571C2.82764 23.9999 0 21.1723 0 17.6841V6.3159C0 2.82772 2.82764 5.30752e-05 6.31571 0H17.6843ZM7.57858 5.05368C6.88119 5.05384 6.31587 5.61918 6.31571 6.31659V17.6855C6.31571 18.383 6.88109 18.9489 7.57858 18.9491C8.2762 18.9491 8.84214 18.3831 8.84214 17.6855V6.31659C8.84198 5.61908 8.2761 5.05368 7.57858 5.05368ZM12.3164 10.1046C11.6188 10.1046 11.0528 10.6706 11.0528 11.3682V17.6841C11.053 18.3816 11.6189 18.947 12.3164 18.947C13.0138 18.9468 13.5791 18.3815 13.5793 17.6841V11.3682C13.5793 10.6707 13.0139 10.1048 12.3164 10.1046ZM17.0521 6.94597C16.3545 6.94597 15.7886 7.51192 15.7886 8.20957V17.6834C15.7886 18.381 16.3545 18.9463 17.0521 18.9463C17.7497 18.9463 18.315 18.381 18.315 17.6834V8.20957C18.315 7.51195 17.7497 6.94601 17.0521 6.94597Z" fill="#6B7280"/>
</svg>
