<svg width="102" height="24" viewBox="0 0 102 24" fill="none" xmlns="http://www.w3.org/2000/svg">
<g clip-path="url(#clip0_15142_9791)">
<path d="M20.5002 8.84357V16.3868C20.5002 17.9195 19.7125 19.3435 18.4165 20.1584L12.3517 23.9727C12.2236 24.0541 12.0529 23.961 12.0529 23.8097V21.1401C12.0529 20.7016 12.2702 20.2942 12.6349 20.0497L16.5035 17.4694C17.0429 17.1085 17.3689 16.5032 17.3689 15.8552V10.6556C17.3689 10.2404 17.59 9.8563 17.9509 9.64675L19.9182 8.51369C20.1781 8.36628 20.5002 8.55254 20.5002 8.85127V8.84357Z" fill="#6B7280"/>
<path d="M20.0299 6.58282L11.4623 11.5302C10.8608 11.8755 10.4922 12.5157 10.4922 13.2104V23.6327C10.4922 23.784 10.3292 23.8772 10.2012 23.7995L2.26219 19.1821C0.861417 18.3672 0 16.8733 0 15.2514V8.94202C0 7.04072 1.01275 5.28297 2.66185 4.3323L9.88686 0.15715C10.2477 -0.0523834 10.6901 -0.0523834 11.051 0.15715L12.8591 1.20094C13.2472 1.42599 13.2472 1.98475 12.8591 2.20981L4.23336 7.18819C3.63192 7.53354 3.26329 8.17377 3.26329 8.86832V14.8672C3.26329 15.5618 3.63192 16.202 4.23336 16.5474L7.09313 18.1965C7.15522 18.2313 7.22892 18.1887 7.22892 18.1189V12.1588C7.22892 10.9482 7.87301 9.83451 8.92074 9.2292L17.2089 4.44483C17.5969 4.21978 18.0781 4.23918 18.4467 4.4914L20.0648 5.59727C20.4179 5.83784 20.3985 6.36556 20.026 6.58282H20.0299Z" fill="#6B7280"/>
<path d="M29.8306 5.50623H32.5975V13.0215C32.5975 13.6383 32.6819 14.1882 32.8507 14.6711C33.0194 15.1483 33.2696 15.5528 33.6013 15.8844C33.9388 16.2161 34.3549 16.4693 34.8495 16.6438C35.3441 16.8126 35.9202 16.897 36.5777 16.897C37.2295 16.897 37.8026 16.8126 38.2973 16.6438C38.7977 16.4693 39.2137 16.2161 39.5455 15.8844C39.8829 15.5528 40.136 15.1483 40.3048 14.6711C40.4736 14.1882 40.5579 13.6383 40.5579 13.0215V5.50623H43.3249V13.3532C43.3249 14.2493 43.1736 15.0639 42.871 15.7971C42.5684 16.5303 42.1291 17.1588 41.553 17.6825C40.9769 18.2062 40.2699 18.6106 39.432 18.8958C38.5999 19.1809 37.6484 19.3235 36.5777 19.3235C35.507 19.3235 34.5527 19.1809 33.7148 18.8958C32.8827 18.6106 32.1785 18.2062 31.6025 17.6825C31.0264 17.1588 30.5871 16.5303 30.2845 15.7971C29.9819 15.0639 29.8306 14.2493 29.8306 13.3532V5.50623Z" fill="#6B7280"/>
<path d="M45.2381 5.50623H48.0225V19.1489H45.2381V5.50623Z" fill="#6B7280"/>
<path d="M49.3224 14.043C49.3224 13.2225 49.4766 12.4835 49.785 11.826C50.0934 11.1626 50.5182 10.5981 51.0594 10.1327C51.6064 9.66131 52.2523 9.30049 52.9971 9.05032C53.7477 8.79428 54.5595 8.66626 55.4323 8.66626C55.8048 8.66626 56.1714 8.6895 56.5322 8.73605C56.8987 8.7826 57.2479 8.84664 57.5796 8.92811C57.9171 9.00959 58.2313 9.10849 58.5223 9.22489C58.8191 9.33542 59.0809 9.45763 59.3078 9.59146V4.66858H61.8914V19.1492H59.3078V18.1803C59.0809 18.3374 58.8132 18.4858 58.5048 18.6255C58.1964 18.7651 57.8647 18.8874 57.5097 18.9921C57.1548 19.0968 56.7853 19.1783 56.4013 19.2365C56.023 19.3005 55.6477 19.3325 55.2753 19.3325C54.4024 19.3325 53.5994 19.2045 52.8662 18.9484C52.1388 18.6924 51.5133 18.3316 50.9896 17.8661C50.4659 17.4006 50.0556 16.8448 49.7588 16.199C49.4679 15.5472 49.3224 14.8286 49.3224 14.043ZM52.037 14.043C52.037 14.4561 52.1185 14.846 52.2814 15.2126C52.4501 15.5792 52.6887 15.9022 52.9971 16.1815C53.3113 16.455 53.6867 16.6732 54.1231 16.8361C54.5653 16.9932 55.06 17.0718 55.6069 17.0718C55.9561 17.0718 56.3052 17.0398 56.6544 16.9758C57.0035 16.906 57.3381 16.81 57.6582 16.6878C57.984 16.5655 58.2866 16.4172 58.5659 16.2426C58.851 16.068 59.0983 15.8731 59.3078 15.6578V12.0878C59.046 11.8783 58.7696 11.7009 58.4786 11.5554C58.1877 11.4099 57.8909 11.2906 57.5883 11.1975C57.2857 11.1044 56.9802 11.0375 56.6718 10.9967C56.3634 10.9502 56.0637 10.9269 55.7728 10.9269C55.1792 10.9269 54.6497 11.0084 54.1842 11.1713C53.7245 11.3284 53.3346 11.5466 53.0145 11.826C52.7003 12.1053 52.4589 12.4341 52.2901 12.8123C52.1214 13.1905 52.037 13.6008 52.037 14.043Z" fill="#6B7280"/>
<path d="M63.4533 13.9647C63.4533 13.2664 63.5954 12.6001 63.8809 11.9659C64.1657 11.3258 64.5763 10.7613 65.1112 10.2725C65.6468 9.7837 66.3017 9.39383 67.0754 9.10293C67.8554 8.81196 68.7396 8.6665 69.7287 8.6665C70.712 8.6665 71.5969 8.81486 72.3826 9.11164C73.1739 9.40261 73.8428 9.8041 74.3897 10.3162C74.943 10.8283 75.3649 11.4305 75.6554 12.1229C75.9523 12.8154 76.1007 13.5574 76.1007 14.3488C76.1007 14.4477 76.0975 14.5553 76.0918 14.6717C76.0918 14.7823 76.0861 14.8841 76.0748 14.9772H66.3333C66.4438 15.2856 66.6213 15.5678 66.8657 15.8239C67.1165 16.0799 67.4272 16.301 67.7998 16.4872C68.1725 16.6735 68.6032 16.8189 69.0914 16.9236C69.5803 17.0226 70.1215 17.0721 70.7152 17.0721C71.3089 17.0721 71.8994 17.0109 72.4874 16.8887C73.0748 16.7608 73.6363 16.6007 74.1718 16.4087L75.0447 18.3813C74.7068 18.5385 74.3638 18.6781 74.0146 18.8003C73.671 18.9167 73.3104 19.0156 72.932 19.097C72.56 19.1727 72.1672 19.2309 71.7541 19.2717C71.3468 19.3123 70.916 19.3327 70.4619 19.3327C69.3043 19.3327 68.2887 19.1931 67.4158 18.9137C66.543 18.6345 65.8129 18.2533 65.2249 17.7703C64.6375 17.2874 64.1948 16.72 63.8979 16.0683C63.6017 15.4166 63.4533 14.7153 63.4533 13.9647ZM73.3603 12.9609C73.2668 12.6758 73.1215 12.411 72.9238 12.1666C72.7312 11.9164 72.4899 11.7011 72.1988 11.5207C71.9083 11.3345 71.5704 11.189 71.1864 11.0843C70.8024 10.9795 70.3805 10.9272 69.9207 10.9272C69.4318 10.9272 68.9872 10.9824 68.5855 11.093C68.1838 11.2036 67.832 11.352 67.5295 11.5382C67.227 11.7244 66.9737 11.9397 66.7697 12.1841C66.572 12.4285 66.4268 12.6874 66.3333 12.9609H73.3603Z" fill="#6B7280"/>
<path d="M77.1483 14.0258C77.1483 13.2693 77.2853 12.5652 77.5588 11.9135C77.8379 11.2559 78.2428 10.6886 78.772 10.2114C79.3076 9.72844 79.9594 9.35019 80.7274 9.07671C81.5011 8.80324 82.3828 8.6665 83.3718 8.6665C83.8026 8.6665 84.2358 8.69265 84.6723 8.74501C85.1087 8.79743 85.528 8.87303 85.9297 8.972C86.3365 9.06509 86.7179 9.17853 87.0729 9.31242C87.4278 9.44044 87.736 9.58299 87.9981 9.74006L86.8026 11.6865C86.2379 11.4247 85.7024 11.2327 85.1965 11.1105C84.6956 10.9883 84.1866 10.9272 83.6687 10.9272C83.075 10.9272 82.5426 11.0057 82.0714 11.1628C81.6003 11.3141 81.1986 11.5295 80.867 11.8087C80.5411 12.0823 80.291 12.4081 80.116 12.7864C79.9474 13.1587 79.8634 13.5661 79.8634 14.0083C79.8634 14.4506 79.9531 14.8608 80.1337 15.239C80.32 15.6115 80.579 15.9344 80.9106 16.2079C81.2478 16.4756 81.6527 16.688 82.1238 16.8451C82.6007 16.9964 83.1306 17.0721 83.7123 17.0721C84.3527 17.0721 84.9546 16.9819 85.5192 16.8014C86.0895 16.6211 86.6188 16.3796 87.1076 16.077L88.3038 18.0235C87.995 18.2097 87.6609 18.3842 87.2996 18.5472C86.939 18.7043 86.5518 18.8411 86.1388 18.9574C85.7314 19.0738 85.3007 19.164 84.8472 19.228C84.3988 19.2978 83.9333 19.3327 83.4508 19.3327C82.4674 19.3327 81.5857 19.1989 80.8057 18.9312C80.0264 18.6635 79.3657 18.294 78.8245 17.8227C78.2832 17.3455 77.867 16.784 77.5765 16.1381C77.291 15.4922 77.1483 14.7881 77.1483 14.0258Z" fill="#6B7280"/>
<path d="M89.9796 4.66858H92.5634V13.2225L97.3817 8.84954H101.335L95.9499 13.6677L101.676 19.1492H97.8005L93.9687 15.4396L92.5634 16.6965V19.1492H89.9796V4.66858Z" fill="#6B7280"/>
</g>
<defs>
<clipPath id="clip0_15142_9791">
<rect width="101.684" height="24" fill="white"/>
</clipPath>
</defs>
</svg>
