<svg width="112" height="29" viewBox="0 0 112 29" fill="none" xmlns="http://www.w3.org/2000/svg">
<g clip-path="url(#clip0_15190_4803)">
<g clip-path="url(#clip1_15190_4803)">
<g opacity="0.7">
<path d="M87.0779 21.5274C86.8784 21.5274 86.7153 21.4597 86.5879 21.3243C86.4605 21.1889 86.3968 21.0256 86.3968 20.8345C86.3968 20.6433 86.4605 20.484 86.5879 20.3566C86.7153 20.2211 86.8784 20.1534 87.0779 20.1534C87.269 20.1534 87.4279 20.2211 87.5553 20.3566C87.6827 20.484 87.7464 20.6433 87.7464 20.8345C87.7464 21.0256 87.6827 21.1889 87.5553 21.3243C87.4279 21.4597 87.269 21.5274 87.0779 21.5274Z" fill="#6B7280"/>
<path d="M89.2583 21.4078V15.7926H90.0948V21.4078H89.2583ZM90.0948 18.1343L89.7483 17.979C89.7483 17.2701 89.9191 16.7085 90.2621 16.2943C90.6121 15.8802 91.0902 15.6731 91.6957 15.6731C91.9743 15.6731 92.2291 15.7248 92.4601 15.8284C92.6911 15.924 92.906 16.0793 93.1055 16.2943L92.556 16.8798C92.4202 16.7284 92.269 16.6209 92.1017 16.5572C91.9421 16.4935 91.7594 16.4616 91.5522 16.4616C91.1217 16.4616 90.7717 16.605 90.5008 16.8917C90.2299 17.1705 90.0948 17.5847 90.0948 18.1343Z" fill="#6B7280"/>
<path d="M96.2177 21.5274C95.7634 21.5274 95.3574 21.4238 94.999 21.2168C94.6406 21.0017 94.3578 20.7109 94.1506 20.3446C93.9511 19.9782 93.8517 19.548 93.8517 19.0543V15.7926H94.7001V19.0184C94.7001 19.3609 94.7596 19.6595 94.8793 19.9145C95.0067 20.1694 95.1859 20.3684 95.4169 20.5119C95.6479 20.6552 95.9146 20.7269 96.2177 20.7269C96.6874 20.7269 97.0577 20.5716 97.3286 20.2609C97.6072 19.9503 97.7465 19.5361 97.7465 19.0184V15.7926H98.583V19.0543C98.583 19.5401 98.4836 19.9702 98.2841 20.3446C98.0853 20.7189 97.8067 21.0096 97.4483 21.2168C97.0899 21.4238 96.6797 21.5274 96.2177 21.5274Z" fill="#6B7280"/>
<path d="M104.23 21.4078V18.1104C104.23 17.6165 104.083 17.2183 103.788 16.9156C103.501 16.605 103.119 16.4497 102.641 16.4497C102.315 16.4497 102.028 16.5214 101.781 16.6647C101.534 16.8081 101.339 17.0032 101.195 17.2501C101.052 17.4971 100.981 17.7798 100.981 18.0984L100.598 17.8833C100.598 17.4612 100.698 17.0829 100.897 16.7484C101.096 16.4138 101.363 16.151 101.697 15.9598C102.04 15.7686 102.43 15.6731 102.868 15.6731C103.298 15.6731 103.68 15.7766 104.015 15.9837C104.35 16.1908 104.609 16.4696 104.791 16.82C104.982 17.1705 105.078 17.5528 105.078 17.967V21.4078H104.23ZM100.144 21.4078V15.7926H100.981V21.4078H100.144Z" fill="#6B7280"/>
</g>
<path d="M38.3653 21.527C37.2517 21.527 36.2917 21.3478 35.4853 20.9894C34.6917 20.6182 33.9621 20.0614 33.2965 19.319L35.2549 17.3798C35.6901 17.879 36.1701 18.2694 36.6949 18.551C37.2325 18.8198 37.8533 18.9542 38.5573 18.9542C39.1973 18.9542 39.6901 18.839 40.0357 18.6086C40.3941 18.3782 40.5733 18.0582 40.5733 17.6486C40.5733 17.2774 40.4581 16.9766 40.2277 16.7462C39.9973 16.5158 39.6901 16.3174 39.3061 16.151C38.9349 15.9846 38.5189 15.8246 38.0581 15.671C37.6101 15.5174 37.1621 15.3446 36.7141 15.1526C36.2661 14.9478 35.8501 14.6982 35.4661 14.4038C35.0949 14.0966 34.7941 13.719 34.5637 13.271C34.3333 12.8102 34.2181 12.2342 34.2181 11.543C34.2181 10.711 34.4165 9.99419 34.8133 9.39261C35.2229 8.79103 35.7861 8.33659 36.5029 8.02943C37.2197 7.70939 38.0453 7.54944 38.9797 7.54944C39.9269 7.54944 40.7909 7.71583 41.5717 8.04861C42.3653 8.38139 43.0181 8.83583 43.5301 9.41179L41.5717 11.351C41.1621 10.9286 40.7461 10.615 40.3237 10.4102C39.9141 10.2054 39.4469 10.103 38.9221 10.103C38.3973 10.103 37.9813 10.2054 37.6741 10.4102C37.3669 10.6022 37.2133 10.8838 37.2133 11.255C37.2133 11.6006 37.3285 11.8822 37.5589 12.0998C37.7893 12.3046 38.0901 12.4838 38.4613 12.6374C38.8453 12.791 39.2613 12.9446 39.7093 13.0982C40.1701 13.2518 40.6245 13.431 41.0725 13.6358C41.5205 13.8406 41.9301 14.103 42.3013 14.423C42.6853 14.7302 42.9925 15.127 43.2229 15.6134C43.4533 16.087 43.5685 16.6758 43.5685 17.3798C43.5685 18.6726 43.1077 19.6902 42.1861 20.4326C41.2645 21.1622 39.9909 21.527 38.3653 21.527Z" fill="#6B7280"/>
<path d="M46.3527 21.3159V9.72548L49.2902 8.12549V21.3159H46.3527ZM44.2407 14.4807V11.9847H51.4023V14.4807H44.2407Z" fill="#6B7280"/>
<path d="M56.2147 21.5079C55.3571 21.5079 54.5891 21.2967 53.9107 20.8743C53.2451 20.4519 52.7139 19.8759 52.3171 19.1463C51.9331 18.4167 51.7411 17.5847 51.7411 16.6503C51.7411 15.7159 51.9331 14.8839 52.3171 14.1543C52.7139 13.4247 53.2451 12.8487 53.9107 12.4263C54.5891 12.0039 55.3571 11.7927 56.2147 11.7927C56.8419 11.7927 57.4051 11.9143 57.9043 12.1575C58.4163 12.4007 58.8323 12.7399 59.1523 13.1751C59.4723 13.5975 59.6515 14.0839 59.6899 14.6343V18.6663C59.6515 19.2167 59.4723 19.7095 59.1523 20.1447C58.8451 20.5671 58.4355 20.8999 57.9235 21.1431C57.4115 21.3863 56.8419 21.5079 56.2147 21.5079ZM56.8099 18.8583C57.4371 18.8583 57.9427 18.6535 58.3267 18.2439C58.7107 17.8215 58.9027 17.2903 58.9027 16.6503C58.9027 16.2151 58.8131 15.8311 58.6339 15.4983C58.4675 15.1655 58.2243 14.9095 57.9043 14.7303C57.5971 14.5383 57.2387 14.4423 56.8291 14.4423C56.4195 14.4423 56.0547 14.5383 55.7347 14.7303C55.4275 14.9095 55.1779 15.1655 54.9859 15.4983C54.8067 15.8311 54.7171 16.2151 54.7171 16.6503C54.7171 17.0727 54.8067 17.4503 54.9859 17.7831C55.1651 18.1159 55.4147 18.3783 55.7347 18.5703C56.0547 18.7623 56.4131 18.8583 56.8099 18.8583ZM58.7875 21.3159V18.8007L59.2291 16.5351L58.7875 14.2695V11.9847H61.6675V21.3159H58.7875Z" fill="#6B7280"/>
<path d="M64.8687 21.3159V9.72548L67.8063 8.12549V21.3159H64.8687ZM62.7567 14.4807V11.9847H69.9183V14.4807H62.7567Z" fill="#6B7280"/>
<path d="M71.0206 21.3158V11.9847H73.9585V21.3158H71.0206ZM72.499 10.6982C72.0384 10.6982 71.6541 10.5446 71.3468 10.2375C71.0528 9.91745 70.9051 9.53343 70.9051 9.08543C70.9051 8.62469 71.0528 8.24067 71.3468 7.93344C71.6541 7.62628 72.0384 7.47266 72.499 7.47266C72.9596 7.47266 73.3376 7.62628 73.6316 7.93344C73.9263 8.24067 74.0733 8.62469 74.0733 9.08543C74.0733 9.53343 73.9263 9.91745 73.6316 10.2375C73.3376 10.5446 72.9596 10.6982 72.499 10.6982Z" fill="#6B7280"/>
<path d="M80.3467 21.5271C79.387 21.5271 78.5162 21.3158 77.7357 20.8935C76.9545 20.4711 76.3406 19.8887 75.8926 19.1463C75.4446 18.4038 75.2206 17.5719 75.2206 16.6503C75.2206 15.7158 75.4446 14.8839 75.8926 14.1543C76.3532 13.4119 76.9741 12.8295 77.7546 12.4071C78.5358 11.9847 79.4122 11.7734 80.3852 11.7734C81.1146 11.7734 81.7803 11.9015 82.3823 12.1575C82.9962 12.4006 83.5401 12.7718 84.014 13.2711L82.1324 15.1527C81.9147 14.9094 81.6585 14.7302 81.3645 14.6151C81.0831 14.4999 80.7562 14.4423 80.3852 14.4423C79.9631 14.4423 79.5851 14.5383 79.2526 14.7302C78.9327 14.9094 78.6765 15.1655 78.4847 15.4983C78.3055 15.8182 78.2159 16.1959 78.2159 16.6311C78.2159 17.0663 78.3055 17.4503 78.4847 17.7831C78.6765 18.1159 78.939 18.3783 79.2715 18.5703C79.6047 18.7622 79.9757 18.8583 80.3852 18.8583C80.7695 18.8583 81.1083 18.7943 81.403 18.6663C81.7103 18.5255 81.9721 18.3335 82.1898 18.0902L84.0525 19.9718C83.566 20.4839 83.0158 20.8743 82.4012 21.1431C81.7866 21.3991 81.102 21.5271 80.3467 21.5271Z" fill="#6B7280"/>
<path d="M7.65022 3.30005C6.20291 3.30005 4.87124 4.09073 4.17842 5.36144L6.10352e-05 13.0249H7.29434C7.66786 13.0249 8.0278 12.8849 8.30318 12.6327L16.5782 5.05015L13.2639 11.9552C13.0261 12.4509 13.3874 13.0249 13.9371 13.0249H19.3959C22.0813 13.0249 24.2583 10.8479 24.2583 8.16253C24.2583 5.47704 22.0813 3.30005 19.3959 3.30005H7.65022Z" fill="#6B7280"/>
<path d="M18.1797 25.7C19.6269 25.7 20.9586 24.9093 21.6515 23.6386L25.8298 15.9751H18.5356C18.1621 15.9751 17.8021 16.1151 17.5267 16.3674L9.25176 23.9498L12.5659 17.0448C12.8038 16.5492 12.4426 15.9751 11.8928 15.9751H6.43404C3.74859 15.9751 1.57159 18.1521 1.57159 20.8375C1.57159 23.523 3.74859 25.7 6.43404 25.7H18.1797Z" fill="#6B7280"/>
</g>
</g>
<defs>
<clipPath id="clip0_15190_4803">
<rect width="112" height="29" fill="white"/>
</clipPath>
<clipPath id="clip1_15190_4803">
<rect width="107.8" height="28" fill="white" transform="translate(0 0.5)"/>
</clipPath>
</defs>
</svg>
