<svg xmlns="http://www.w3.org/2000/svg" width="480" height="140" viewBox="0 0 480 140">
<defs><linearGradient id="g" x1="0" y1="0" x2="1" y2="1"><stop offset="0" stop-color="#ec4899"/><stop offset="1" stop-color="#f97316"/></linearGradient><filter id="b"><feGaussianBlur stdDeviation="14"/></filter></defs>
<rect width="480" height="140" fill="#060606"/>
<rect width="480" height="140" fill="url(#g)" opacity="0.5"/>
<g filter="url(#b)"><circle cx="426" cy="35" r="50" fill="#f97316" opacity="0.27"/><circle cx="46" cy="49" r="69" fill="#ffffff" opacity="0.36"/><circle cx="185" cy="93" r="77" fill="#ec4899" opacity="0.31"/><circle cx="207" cy="66" r="51" fill="#f97316" opacity="0.33"/><circle cx="359" cy="12" r="81" fill="#ffffff" opacity="0.31"/></g><line x1="0" y1="0" x2="0" y2="140" stroke="#000" stroke-opacity="0.18"/><line x1="24" y1="0" x2="24" y2="140" stroke="#000" stroke-opacity="0.18"/><line x1="48" y1="0" x2="48" y2="140" stroke="#000" stroke-opacity="0.18"/><line x1="72" y1="0" x2="72" y2="140" stroke="#000" stroke-opacity="0.18"/><line x1="96" y1="0" x2="96" y2="140" stroke="#000" stroke-opacity="0.18"/><line x1="120" y1="0" x2="120" y2="140" stroke="#000" stroke-opacity="0.18"/><line x1="144" y1="0" x2="144" y2="140" stroke="#000" stroke-opacity="0.18"/><line x1="168" y1="0" x2="168" y2="140" stroke="#000" stroke-opacity="0.18"/><line x1="192" y1="0" x2="192" y2="140" stroke="#000" stroke-opacity="0.18"/><line x1="216" y1="0" x2="216" y2="140" stroke="#000" stroke-opacity="0.18"/><line x1="240" y1="0" x2="240" y2="140" stroke="#000" stroke-opacity="0.18"/><line x1="264" y1="0" x2="264" y2="140" stroke="#000" stroke-opacity="0.18"/><line x1="288" y1="0" x2="288" y2="140" stroke="#000" stroke-opacity="0.18"/><line x1="312" y1="0" x2="312" y2="140" stroke="#000" stroke-opacity="0.18"/><line x1="336" y1="0" x2="336" y2="140" stroke="#000" stroke-opacity="0.18"/><line x1="360" y1="0" x2="360" y2="140" stroke="#000" stroke-opacity="0.18"/><line x1="384" y1="0" x2="384" y2="140" stroke="#000" stroke-opacity="0.18"/><line x1="408" y1="0" x2="408" y2="140" stroke="#000" stroke-opacity="0.18"/><line x1="432" y1="0" x2="432" y2="140" stroke="#000" stroke-opacity="0.18"/><line x1="456" y1="0" x2="456" y2="140" stroke="#000" stroke-opacity="0.18"/><line x1="0" y1="0" x2="480" y2="0" stroke="#000" stroke-opacity="0.18"/><line x1="0" y1="24" x2="480" y2="24" stroke="#000" stroke-opacity="0.18"/><line x1="0" y1="48" x2="480" y2="48" stroke="#000" stroke-opacity="0.18"/><line x1="0" y1="72" x2="480" y2="72" stroke="#000" stroke-opacity="0.18"/><line x1="0" y1="96" x2="480" y2="96" stroke="#000" stroke-opacity="0.18"/><line x1="0" y1="120" x2="480" y2="120" stroke="#000" stroke-opacity="0.18"/>
<rect width="480" height="140" fill="none" stroke="#000" stroke-opacity="0.4" stroke-width="2"/>
</svg>