<svg width="130" height="32" viewBox="0 0 130 32" fill="none" xmlns="http://www.w3.org/2000/svg">
<g clip-path="url(#clip0_488_447)">
<path d="M37.8555 22.4732H47.1594V19.6635H41.1623V9.08008H37.8555V22.4732Z" fill="black"/>
<path d="M52.6707 20.5998C51.3442 20.5998 50.6529 19.4385 50.6529 17.6964C50.6529 15.9544 51.3442 14.7743 52.6707 14.7743C53.9971 14.7743 54.7071 15.9544 54.7071 17.6964C54.7071 19.4385 53.9971 20.5998 52.6707 20.5998ZM52.6894 22.7727C55.772 22.7727 57.7897 20.5811 57.7897 17.6964C57.7897 14.8117 55.772 12.6201 52.6894 12.6201C49.6254 12.6201 47.5703 14.8117 47.5703 17.6964C47.5703 20.5811 49.6254 22.7727 52.6894 22.7727Z" fill="black"/>
<path d="M63.1262 25.7887C64.546 25.7887 65.7978 25.4702 66.6385 24.721C67.4045 24.0279 67.9089 22.9789 67.9089 21.5366V12.8825H64.9944V13.9128H64.9571C64.3966 13.1073 63.5372 12.6016 62.2668 12.6016C59.8941 12.6016 58.25 14.5871 58.25 17.3969C58.25 20.3378 60.249 21.9487 62.3975 21.9487C63.5559 21.9487 64.2845 21.4804 64.845 20.8435H64.9197V21.7988C64.9197 22.9602 64.3779 23.6345 63.0888 23.6345C62.0799 23.6345 61.5755 23.2037 61.4074 22.698H58.4555C58.7544 24.7022 60.4919 25.7887 63.1262 25.7887ZM63.1075 19.6821C61.9678 19.6821 61.2205 18.7456 61.2205 17.3032C61.2205 15.8421 61.9678 14.9056 63.1075 14.9056C64.3779 14.9056 65.0505 15.992 65.0505 17.2845C65.0505 18.6332 64.434 19.6821 63.1075 19.6821Z" fill="black"/>
<path d="M73.905 20.5998C72.5786 20.5998 71.8873 19.4385 71.8873 17.6964C71.8873 15.9544 72.5786 14.7743 73.905 14.7743C75.2315 14.7743 75.9415 15.9544 75.9415 17.6964C75.9415 19.4385 75.2315 20.5998 73.905 20.5998ZM73.9237 22.7727C77.0064 22.7727 79.0243 20.5811 79.0243 17.6964C79.0243 14.8117 77.0064 12.6201 73.9237 12.6201C70.8598 12.6201 68.8047 14.8117 68.8047 17.6964C68.8047 20.5811 70.8598 22.7727 73.9237 22.7727Z" fill="black"/>
<path d="M79.9102 22.4732H82.9554V12.8826H79.9102V22.4732ZM79.9102 11.5527H82.9554V9.08008H79.9102V11.5527Z" fill="black"/>
<path d="M84.2773 25.6386H87.3226V21.4801H87.36C87.9578 22.2856 88.8359 22.7726 90.069 22.7726C92.5724 22.7726 94.2352 20.7871 94.2352 17.6776C94.2352 14.7929 92.6845 12.6013 90.1437 12.6013C88.8359 12.6013 87.9018 13.182 87.2479 14.0437H87.1918V12.8823H84.2773V25.6386ZM89.2843 20.4124C87.9765 20.4124 87.2292 19.3447 87.2292 17.79C87.2292 16.2353 87.9018 15.0552 89.2282 15.0552C90.536 15.0552 91.1526 16.1416 91.1526 17.79C91.1526 19.4197 90.4426 20.4124 89.2843 20.4124Z" fill="black"/>
<path d="M99.1949 22.7729C101.698 22.7729 103.548 21.6864 103.548 19.5885C103.548 17.1346 101.568 16.7038 99.8862 16.4228C98.6718 16.1981 97.5882 16.1044 97.5882 15.4301C97.5882 14.8306 98.1674 14.5497 98.9147 14.5497C99.7554 14.5497 100.335 14.8119 100.447 15.6736H103.249C103.1 13.7817 101.642 12.6016 98.9334 12.6016C96.6728 12.6016 94.8045 13.6505 94.8045 15.6736C94.8045 17.9214 96.5794 18.3709 98.2421 18.6519C99.5126 18.8767 100.671 18.9703 100.671 19.832C100.671 20.4501 100.092 20.7873 99.1763 20.7873C98.1674 20.7873 97.5322 20.319 97.4201 19.3637H94.543C94.6364 21.4804 96.3926 22.7729 99.1949 22.7729Z" fill="black"/>
<path d="M107.683 22.7544C109.01 22.7544 109.85 22.2299 110.542 21.2934H110.598V22.4734H113.512V12.8828H110.467V18.2401C110.467 19.3827 109.832 20.1694 108.785 20.1694C107.814 20.1694 107.347 19.5888 107.347 18.5398V12.8828H104.32V19.1767C104.32 21.3121 105.479 22.7544 107.683 22.7544Z" fill="black"/>
<path d="M114.836 22.4732H117.881V17.0972C117.881 15.9545 118.442 15.1491 119.395 15.1491C120.31 15.1491 120.74 15.7485 120.74 16.7787V22.4732H123.785V17.0972C123.785 15.9545 124.327 15.1491 125.298 15.1491C126.214 15.1491 126.643 15.7485 126.643 16.7787V22.4732H129.689V16.2355C129.689 14.0814 128.605 12.6016 126.438 12.6016C125.205 12.6016 124.177 13.1261 123.43 14.2874H123.393C122.907 13.2572 121.954 12.6016 120.702 12.6016C119.32 12.6016 118.404 13.2572 117.806 14.25H117.75V12.8825H114.836V22.4732Z" fill="black"/>
<g filter="url(#filter0_i_488_447)">
<path fill-rule="evenodd" clip-rule="evenodd" d="M6.73594 3.03758C5.62225 3.81835 4.61518 4.74147 3.74095 5.78063C7.31346 5.44809 11.8522 5.99109 17.1216 8.63275C22.7487 11.4536 27.2799 11.549 30.4333 10.9391C30.1472 10.0705 29.7869 9.23568 29.3602 8.44208C25.7504 8.82381 21.1225 8.31853 15.7292 5.61484C12.3043 3.89792 9.28536 3.19067 6.73594 3.03758ZM27.2515 5.43273C24.4008 2.23924 20.258 0.229492 15.647 0.229492C14.2929 0.229492 12.979 0.402844 11.7265 0.728599C13.4229 1.19268 15.225 1.87163 17.1216 2.82248C21.0704 4.802 24.4795 5.43937 27.2515 5.43273ZM31.1075 13.988C27.2978 14.7423 22.037 14.5873 15.7292 11.4251C9.83198 8.46877 5.13834 8.506 1.97278 9.21133C1.80938 9.2477 1.64983 9.28594 1.49414 9.32575C1.07969 10.2295 0.748858 11.1798 0.511486 12.1666C0.765012 12.0987 1.02699 12.0342 1.29729 11.9739C5.13767 11.1183 10.5638 11.1554 17.1216 14.443C23.0189 17.3993 27.7125 17.3621 30.8781 16.6568C30.9866 16.6327 31.0934 16.6077 31.1985 16.5819C31.2101 16.3359 31.2158 16.0882 31.2158 15.8392C31.2158 15.2129 31.1791 14.5951 31.1075 13.988ZM30.6902 19.8761C26.9175 20.5375 21.8099 20.2836 15.7292 17.2354C9.83198 14.279 5.13834 14.3163 1.97278 15.0216C1.27012 15.1781 0.638012 15.3688 0.0804058 15.57C0.0788855 15.6596 0.078125 15.7493 0.078125 15.8392C0.078125 24.4603 7.04853 31.449 15.647 31.449C22.8531 31.449 28.9157 26.5404 30.6902 19.8761Z" fill="#FF5A03"/>
</g>
</g>
<defs>
<filter id="filter0_i_488_447" x="0.078125" y="-4.77051" width="31.1377" height="36.2195" filterUnits="userSpaceOnUse" color-interpolation-filters="sRGB">
<feFlood flood-opacity="0" result="BackgroundImageFix"/>
<feBlend mode="normal" in="SourceGraphic" in2="BackgroundImageFix" result="shape"/>
<feColorMatrix in="SourceAlpha" type="matrix" values="0 0 0 0 0 0 0 0 0 0 0 0 0 0 0 0 0 0 127 0" result="hardAlpha"/>
<feOffset dy="-5"/>
<feGaussianBlur stdDeviation="5"/>
<feComposite in2="hardAlpha" operator="arithmetic" k2="-1" k3="1"/>
<feColorMatrix type="matrix" values="0 0 0 0 1 0 0 0 0 1 0 0 0 0 1 0 0 0 0.4 0"/>
<feBlend mode="plus-lighter" in2="shape" result="effect1_innerShadow_488_447"/>
</filter>
<clipPath id="clip0_488_447">
<rect width="130" height="32" fill="white"/>
</clipPath>
</defs>
</svg>
