<svg width="133" height="32" viewBox="0 0 133 32" fill="none" xmlns="http://www.w3.org/2000/svg">
<g clip-path="url(#clip0_488_458)">
<path d="M40.5703 21.9615H49.921V19.1518H43.8937V8.56836H40.5703V21.9615Z" fill="black"/>
<path d="M55.4619 20.0881C54.1288 20.0881 53.4341 18.9267 53.4341 17.1847C53.4341 15.4426 54.1288 14.2625 55.4619 14.2625C56.795 14.2625 57.5085 15.4426 57.5085 17.1847C57.5085 18.9267 56.795 20.0881 55.4619 20.0881ZM55.4807 22.261C58.5788 22.261 60.6067 20.0694 60.6067 17.1847C60.6067 14.3 58.5788 12.1084 55.4807 12.1084C52.4013 12.1084 50.3359 14.3 50.3359 17.1847C50.3359 20.0694 52.4013 22.261 55.4807 22.261Z" fill="black"/>
<path d="M65.9671 25.277C67.3941 25.277 68.6521 24.9585 69.497 24.2093C70.2669 23.5162 70.7738 22.4672 70.7738 21.0249V12.3708H67.8447V13.4011H67.8072C67.2439 12.5956 66.3801 12.0898 65.1033 12.0898C62.7187 12.0898 61.0664 14.0754 61.0664 16.8852C61.0664 19.826 63.0755 21.437 65.2348 21.437C66.3989 21.437 67.1312 20.9687 67.6945 20.3318H67.7696V21.2871C67.7696 22.4485 67.2251 23.1228 65.9295 23.1228C64.9156 23.1228 64.4086 22.692 64.2396 22.1862H61.2729C61.5734 24.1905 63.3196 25.277 65.9671 25.277ZM65.9483 19.1704C64.8029 19.1704 64.0519 18.2338 64.0519 16.7915C64.0519 15.3304 64.8029 14.3938 65.9483 14.3938C67.2251 14.3938 67.901 15.4803 67.901 16.7728C67.901 18.1215 67.2814 19.1704 65.9483 19.1704Z" fill="black"/>
<path d="M76.7979 20.0881C75.4647 20.0881 74.77 18.9267 74.77 17.1847C74.77 15.4426 75.4647 14.2625 76.7979 14.2625C78.131 14.2625 78.8445 15.4426 78.8445 17.1847C78.8445 18.9267 78.131 20.0881 76.7979 20.0881ZM76.8166 22.261C79.9147 22.261 81.9426 20.0694 81.9426 17.1847C81.9426 14.3 79.9147 12.1084 76.8166 12.1084C73.7373 12.1084 71.6719 14.3 71.6719 17.1847C71.6719 20.0694 73.7373 22.261 76.8166 22.261Z" fill="black"/>
<path d="M82.8359 21.9615H85.8965V12.3709H82.8359V21.9615ZM82.8359 11.0409H85.8965V8.56836H82.8359V11.0409Z" fill="black"/>
<path d="M87.2227 25.1271H90.2832V20.9687H90.3208C90.9216 21.7741 91.8041 22.2612 93.0434 22.2612C95.5594 22.2612 97.2305 20.2756 97.2305 17.1661C97.2305 14.2815 95.6721 12.0898 93.1185 12.0898C91.8041 12.0898 90.8653 12.6705 90.2081 13.5322H90.1518V12.3708H87.2227V25.1271ZM92.2547 19.901C90.9404 19.901 90.1893 18.8333 90.1893 17.2785C90.1893 15.7238 90.8653 14.5437 92.1984 14.5437C93.5128 14.5437 94.1324 15.6301 94.1324 17.2785C94.1324 18.9082 93.4189 19.901 92.2547 19.901Z" fill="black"/>
<path d="M102.214 22.2612C104.73 22.2612 106.589 21.1747 106.589 19.0768C106.589 16.6229 104.599 16.1921 102.909 15.9111C101.689 15.6863 100.6 15.5927 100.6 14.9183C100.6 14.3189 101.182 14.0379 101.933 14.0379C102.778 14.0379 103.36 14.3002 103.472 15.1618H106.289C106.139 13.2699 104.674 12.0898 101.952 12.0898C99.6796 12.0898 97.8019 13.1388 97.8019 15.1618C97.8019 17.4096 99.5857 17.8592 101.257 18.1402C102.534 18.365 103.698 18.4586 103.698 19.3203C103.698 19.9384 103.116 20.2756 102.196 20.2756C101.182 20.2756 100.543 19.8073 100.431 18.852H97.5391C97.6329 20.9687 99.3979 22.2612 102.214 22.2612Z" fill="black"/>
<path d="M110.747 22.2427C112.08 22.2427 112.925 21.7182 113.62 20.7816H113.676V21.9617H116.605V12.3711H113.545V17.7284C113.545 18.871 112.906 19.6577 111.855 19.6577C110.878 19.6577 110.409 19.077 110.409 18.0281V12.3711H107.367V18.6649C107.367 20.8004 108.531 22.2427 110.747 22.2427Z" fill="black"/>
<path d="M117.938 21.9615H120.998V16.5855C120.998 15.4428 121.561 14.6374 122.519 14.6374C123.439 14.6374 123.871 15.2368 123.871 16.267V21.9615H126.931V16.5855C126.931 15.4428 127.476 14.6374 128.452 14.6374C129.372 14.6374 129.804 15.2368 129.804 16.267V21.9615H132.865V15.7238C132.865 13.5696 131.776 12.0898 129.598 12.0898C128.358 12.0898 127.326 12.6143 126.575 13.7757H126.537C126.049 12.7455 125.091 12.0898 123.833 12.0898C122.444 12.0898 121.524 12.7455 120.923 13.7382H120.867V12.3708H117.938V21.9615Z" fill="black"/>
<g filter="url(#filter0_i_488_458)">
<path fill-rule="evenodd" clip-rule="evenodd" d="M16.1783 31.3267C24.82 31.3267 31.8254 24.3379 31.8254 15.7169C31.8254 7.09591 24.82 0.107178 16.1783 0.107178C7.53666 0.107178 0.53125 7.09591 0.53125 15.7169C0.53125 24.3379 7.53666 31.3267 16.1783 31.3267ZM21.0597 7.37886C21.2973 6.53688 20.4782 6.03899 19.7302 6.57063L9.28822 13.9917C8.477 14.5683 8.6046 15.7169 9.47989 15.7169H12.2296V15.6957H17.5885L13.222 17.2327L11.297 24.055C11.0594 24.897 11.8784 25.3949 12.6264 24.8632L23.0684 17.4422C23.8796 16.8656 23.752 15.7169 22.8767 15.7169H18.707L21.0597 7.37886Z" fill="#FF5A03"/>
</g>
</g>
<defs>
<filter id="filter0_i_488_458" x="0.53125" y="-4.89282" width="31.2942" height="36.2195" filterUnits="userSpaceOnUse" color-interpolation-filters="sRGB">
<feFlood flood-opacity="0" result="BackgroundImageFix"/>
<feBlend mode="normal" in="SourceGraphic" in2="BackgroundImageFix" result="shape"/>
<feColorMatrix in="SourceAlpha" type="matrix" values="0 0 0 0 0 0 0 0 0 0 0 0 0 0 0 0 0 0 127 0" result="hardAlpha"/>
<feOffset dy="-5"/>
<feGaussianBlur stdDeviation="5"/>
<feComposite in2="hardAlpha" operator="arithmetic" k2="-1" k3="1"/>
<feColorMatrix type="matrix" values="0 0 0 0 1 0 0 0 0 1 0 0 0 0 1 0 0 0 0.4 0"/>
<feBlend mode="plus-lighter" in2="shape" result="effect1_innerShadow_488_458"/>
</filter>
<clipPath id="clip0_488_458">
<rect width="133" height="32" fill="white"/>
</clipPath>
</defs>
</svg>
