<svg width="133" height="32" viewBox="0 0 133 32" fill="none" xmlns="http://www.w3.org/2000/svg">
<g clip-path="url(#clip0_488_469)">
<path d="M40.1133 22.8863H49.464V20.0766H43.4367V9.49316H40.1133V22.8863Z" fill="black"/>
<path d="M55.0049 21.0129C53.6718 21.0129 52.977 19.8515 52.977 18.1095C52.977 16.3674 53.6718 15.1873 55.0049 15.1873C56.338 15.1873 57.0515 16.3674 57.0515 18.1095C57.0515 19.8515 56.338 21.0129 55.0049 21.0129ZM55.0237 23.1858C58.1218 23.1858 60.1496 20.9942 60.1496 18.1095C60.1496 15.2248 58.1218 13.0332 55.0237 13.0332C51.9443 13.0332 49.8789 15.2248 49.8789 18.1095C49.8789 20.9942 51.9443 23.1858 55.0237 23.1858Z" fill="black"/>
<path d="M65.51 26.2018C66.937 26.2018 68.1951 25.8833 69.04 25.1341C69.8098 24.441 70.3168 23.392 70.3168 21.9497V13.2956H67.3877V14.3259H67.3501C66.7868 13.5204 65.9231 13.0146 64.6463 13.0146C62.2617 13.0146 60.6094 15.0002 60.6094 17.81C60.6094 20.7508 62.6185 22.3618 64.7778 22.3618C65.9419 22.3618 66.6742 21.8935 67.2375 21.2566H67.3126V22.2119C67.3126 23.3733 66.7681 24.0476 65.4725 24.0476C64.4586 24.0476 63.9516 23.6168 63.7826 23.111H60.8159C61.1163 25.1153 62.8626 26.2018 65.51 26.2018ZM65.4913 20.0952C64.3459 20.0952 63.5948 19.1586 63.5948 17.7163C63.5948 16.2552 64.3459 15.3186 65.4913 15.3186C66.7681 15.3186 67.444 16.4051 67.444 17.6976C67.444 19.0463 66.8244 20.0952 65.4913 20.0952Z" fill="black"/>
<path d="M76.3408 21.0129C75.0077 21.0129 74.313 19.8515 74.313 18.1095C74.313 16.3674 75.0077 15.1873 76.3408 15.1873C77.6739 15.1873 78.3871 16.3674 78.3871 18.1095C78.3871 19.8515 77.6739 21.0129 76.3408 21.0129ZM76.3596 23.1858C79.4574 23.1858 81.4853 20.9942 81.4853 18.1095C81.4853 15.2248 79.4574 13.0332 76.3596 13.0332C73.2803 13.0332 71.2148 15.2248 71.2148 18.1095C71.2148 20.9942 73.2803 23.1858 76.3596 23.1858Z" fill="black"/>
<path d="M82.3789 22.8863H85.4395V13.2957H82.3789V22.8863ZM82.3789 11.9657H85.4395V9.49316H82.3789V11.9657Z" fill="black"/>
<path d="M86.7695 26.0519H89.8301V21.8935H89.8676C90.4685 22.6989 91.351 23.186 92.5902 23.186C95.1063 23.186 96.7774 21.2004 96.7774 18.0909C96.7774 15.2063 95.2189 13.0146 92.6653 13.0146C91.351 13.0146 90.4122 13.5953 89.755 14.457H89.6987V13.2956H86.7695V26.0519ZM91.8016 20.8258C90.4873 20.8258 89.7362 19.7581 89.7362 18.2033C89.7362 16.6486 90.4122 15.4685 91.7453 15.4685C93.0596 15.4685 93.6793 16.5549 93.6793 18.2033C93.6793 19.833 92.9658 20.8258 91.8016 20.8258Z" fill="black"/>
<path d="M101.757 23.186C104.273 23.186 106.132 22.0995 106.132 20.0016C106.132 17.5477 104.142 17.1169 102.452 16.8359C101.232 16.6111 100.143 16.5175 100.143 15.8431C100.143 15.2437 100.725 14.9627 101.476 14.9627C102.321 14.9627 102.903 15.225 103.015 16.0866H105.832C105.682 14.1947 104.217 13.0146 101.494 13.0146C99.2225 13.0146 97.3449 14.0636 97.3449 16.0866C97.3449 18.3345 99.1287 18.784 100.8 19.065C102.077 19.2898 103.241 19.3834 103.241 20.2451C103.241 20.8632 102.659 21.2004 101.739 21.2004C100.725 21.2004 100.086 20.7321 99.9736 19.7768H97.082C97.1759 21.8935 98.9409 23.186 101.757 23.186Z" fill="black"/>
<path d="M110.29 23.1675C111.623 23.1675 112.468 22.643 113.163 21.7064H113.219V22.8865H116.148V13.2959H113.088V18.6532C113.088 19.7958 112.449 20.5825 111.398 20.5825C110.421 20.5825 109.952 20.0018 109.952 18.9529V13.2959H106.91V19.5898C106.91 21.7252 108.074 23.1675 110.29 23.1675Z" fill="black"/>
<path d="M117.48 22.8863H120.541V17.5103C120.541 16.3676 121.104 15.5622 122.062 15.5622C122.982 15.5622 123.414 16.1616 123.414 17.1918V22.8863H126.474V17.5103C126.474 16.3676 127.019 15.5622 127.995 15.5622C128.915 15.5622 129.347 16.1616 129.347 17.1918V22.8863H132.408V16.6486C132.408 14.4945 131.319 13.0146 129.141 13.0146C127.901 13.0146 126.869 13.5391 126.118 14.7005H126.08C125.592 13.6703 124.634 13.0146 123.376 13.0146C121.987 13.0146 121.067 13.6703 120.466 14.663H120.41V13.2956H117.48V22.8863Z" fill="black"/>
<g filter="url(#filter0_i_488_469)">
<path fill-rule="evenodd" clip-rule="evenodd" d="M15.7212 31.4714C24.363 31.4714 31.3683 24.4827 31.3683 15.8617C31.3683 7.24067 24.363 0.251953 15.7212 0.251953C7.07963 0.251953 0.0742188 7.24067 0.0742188 15.8617C0.0742188 24.4827 7.07963 31.4714 15.7212 31.4714ZM18.1364 12.3125C19.4701 10.9818 19.4701 8.82449 18.1364 7.49383C16.8025 6.16319 14.64 6.16319 13.3062 7.49383C11.9724 8.82449 11.9724 10.9818 13.3062 12.3125L15.7212 14.7218L18.1364 12.3125ZM19.279 18.271C20.6128 19.6017 22.7753 19.6017 24.1092 18.271C25.4429 16.9404 25.4429 14.783 24.1092 13.4524C22.7753 12.1218 20.6128 12.1218 19.279 13.4524L16.8639 15.8618L19.279 18.271ZM18.1364 24.2296C19.4701 22.8989 19.4701 20.7416 18.1364 19.4109L15.7212 17.0017L13.3062 19.4109C11.9724 20.7416 11.9724 22.8989 13.3062 24.2296C14.64 25.5603 16.8025 25.5603 18.1364 24.2296ZM7.33338 18.271C5.99959 16.9404 5.99959 14.783 7.33338 13.4524C8.66724 12.1218 10.8297 12.1218 12.1636 13.4524L14.5786 15.8618L12.1636 18.271C10.8297 19.6017 8.66724 19.6017 7.33338 18.271Z" fill="#FF5A03"/>
</g>
</g>
<defs>
<filter id="filter0_i_488_469" x="0.0742188" y="-4.74805" width="31.2942" height="36.2195" filterUnits="userSpaceOnUse" color-interpolation-filters="sRGB">
<feFlood flood-opacity="0" result="BackgroundImageFix"/>
<feBlend mode="normal" in="SourceGraphic" in2="BackgroundImageFix" result="shape"/>
<feColorMatrix in="SourceAlpha" type="matrix" values="0 0 0 0 0 0 0 0 0 0 0 0 0 0 0 0 0 0 127 0" result="hardAlpha"/>
<feOffset dy="-5"/>
<feGaussianBlur stdDeviation="5"/>
<feComposite in2="hardAlpha" operator="arithmetic" k2="-1" k3="1"/>
<feColorMatrix type="matrix" values="0 0 0 0 1 0 0 0 0 1 0 0 0 0 1 0 0 0 0.4 0"/>
<feBlend mode="plus-lighter" in2="shape" result="effect1_innerShadow_488_469"/>
</filter>
<clipPath id="clip0_488_469">
<rect width="133" height="32" fill="white"/>
</clipPath>
</defs>
</svg>
