<svg width="132" height="32" viewBox="0 0 132 32" fill="none" xmlns="http://www.w3.org/2000/svg">
<g clip-path="url(#clip0_488_480)">
<path d="M38.7188 22.5963H48.1096V19.7865H42.0565V9.20312H38.7188V22.5963Z" fill="black"/>
<path d="M53.6714 20.7238C52.3326 20.7238 51.6349 19.5625 51.6349 17.8204C51.6349 16.0784 52.3326 14.8983 53.6714 14.8983C55.0103 14.8983 55.7269 16.0784 55.7269 17.8204C55.7269 19.5625 55.0103 20.7238 53.6714 20.7238ZM53.6903 22.8967C56.8017 22.8967 58.8383 20.7051 58.8383 17.8204C58.8383 14.9358 56.8017 12.7441 53.6903 12.7441C50.5977 12.7441 48.5234 14.9358 48.5234 17.8204C48.5234 20.7051 50.5977 22.8967 53.6903 22.8967Z" fill="black"/>
<path d="M64.2225 25.9127C65.6556 25.9127 66.9191 25.5943 67.7676 24.845C68.5408 24.1519 69.0499 23.103 69.0499 21.6606V13.0066H66.1082V14.0368H66.0705C65.5048 13.2313 64.6374 12.7256 63.3551 12.7256C60.9602 12.7256 59.3008 14.7111 59.3008 17.5209C59.3008 20.4618 61.3185 22.0727 63.4871 22.0727C64.6562 22.0727 65.3916 21.6044 65.9574 20.9675H66.0328V21.9229C66.0328 23.0842 65.4859 23.7586 64.1848 23.7586C63.1665 23.7586 62.6574 23.3277 62.4876 22.822H59.5082C59.8099 24.8263 61.5636 25.9127 64.2225 25.9127ZM64.2036 19.8062C63.0534 19.8062 62.2991 18.8696 62.2991 17.4272C62.2991 15.9662 63.0534 15.0296 64.2036 15.0296C65.4859 15.0296 66.1648 16.116 66.1648 17.4085C66.1648 18.7572 65.5425 19.8062 64.2036 19.8062Z" fill="black"/>
<path d="M75.1011 20.7238C73.7623 20.7238 73.0646 19.5625 73.0646 17.8204C73.0646 16.0784 73.7623 14.8983 75.1011 14.8983C76.44 14.8983 77.1566 16.0784 77.1566 17.8204C77.1566 19.5625 76.44 20.7238 75.1011 20.7238ZM75.12 22.8967C78.2314 22.8967 80.2676 20.7051 80.2676 17.8204C80.2676 14.9358 78.2314 12.7441 75.12 12.7441C72.0274 12.7441 69.9531 14.9358 69.9531 17.8204C69.9531 20.7051 72.0274 22.8967 75.12 22.8967Z" fill="black"/>
<path d="M81.168 22.5973H84.2417V13.0066H81.168V22.5973ZM81.168 11.6767H84.2417V9.2041H81.168V11.6767Z" fill="black"/>
<path d="M85.5742 25.7629H88.6479V21.6044H88.6856C89.2891 22.4099 90.1754 22.8969 91.4199 22.8969C93.9468 22.8969 95.6251 20.9113 95.6251 17.8019C95.6251 14.9172 94.0599 12.7256 91.4954 12.7256C90.1754 12.7256 89.2325 13.3063 88.5725 14.1679H88.5159V13.0066H85.5742V25.7629ZM90.6279 20.5367C89.3079 20.5367 88.5536 19.469 88.5536 17.9143C88.5536 16.3595 89.2325 15.1794 90.5714 15.1794C91.8914 15.1794 92.5136 16.2659 92.5136 17.9143C92.5136 19.5439 91.7971 20.5367 90.6279 20.5367Z" fill="black"/>
<path d="M100.625 22.8969C103.152 22.8969 105.019 21.8105 105.019 19.7125C105.019 17.2587 103.02 16.8278 101.323 16.5469C100.097 16.3221 99.0034 16.2284 99.0034 15.5541C99.0034 14.9547 99.588 14.6737 100.342 14.6737C101.191 14.6737 101.775 14.9359 101.889 15.7976H104.717C104.566 13.9057 103.095 12.7256 100.361 12.7256C98.0794 12.7256 96.1937 13.7746 96.1937 15.7976C96.1937 18.0454 97.9851 18.495 99.6634 18.7759C100.946 19.0007 102.115 19.0944 102.115 19.956C102.115 20.5742 101.53 20.9113 100.606 20.9113C99.588 20.9113 98.9468 20.443 98.8337 19.4877H95.9297C96.024 21.6044 97.7965 22.8969 100.625 22.8969Z" fill="black"/>
<path d="M109.195 22.8775C110.534 22.8775 111.382 22.353 112.08 21.4164H112.137V22.5965H115.078V13.0059H112.005V18.3631C112.005 19.5058 111.364 20.2925 110.308 20.2925C109.327 20.2925 108.856 19.7118 108.856 18.6628V13.0059H105.801V19.2997C105.801 21.4351 106.97 22.8775 109.195 22.8775Z" fill="black"/>
<path d="M116.418 22.5972H119.492V17.2212C119.492 16.0786 120.057 15.2731 121.019 15.2731C121.943 15.2731 122.377 15.8725 122.377 16.9028V22.5972H125.451V17.2212C125.451 16.0786 125.997 15.2731 126.978 15.2731C127.902 15.2731 128.336 15.8725 128.336 16.9028V22.5972H131.409V16.3595C131.409 14.2054 130.316 12.7256 128.128 12.7256C126.884 12.7256 125.847 13.2501 125.092 14.4114H125.055C124.564 13.3812 123.603 12.7256 122.339 12.7256C120.944 12.7256 120.02 13.3812 119.416 14.374H119.36V13.0066H116.418V22.5972Z" fill="black"/>
<g filter="url(#filter0_i_488_480)">
<path d="M19.9695 1.54323L16.8792 0.720703L14.2751 10.375L11.924 1.65904L8.83368 2.48156L11.3739 11.8985L5.04682 5.61356L2.7846 7.86074L9.72461 14.7546L1.08194 12.4542L0.253906 15.5239L9.69711 18.0374C9.58899 17.5741 9.53179 17.0915 9.53179 16.5956C9.53179 13.0852 12.3965 10.2396 15.9303 10.2396C19.4642 10.2396 22.3289 13.0852 22.3289 16.5956C22.3289 17.0883 22.2724 17.568 22.1656 18.0285L30.7477 20.3127L31.5757 17.2431L22.095 14.7196L30.7382 12.419L29.9102 9.34936L20.4298 11.8727L26.7568 5.58776L24.4946 3.34059L17.6509 10.1388L19.9695 1.54323Z" fill="#FF5A03"/>
</g>
<g filter="url(#filter1_i_488_480)">
<path d="M22.1543 18.0635C21.8893 19.1761 21.33 20.1757 20.5625 20.9766L26.7799 27.1526L29.0421 24.9055L22.1543 18.0635Z" fill="#FF5A03"/>
</g>
<g filter="url(#filter2_i_488_480)">
<path d="M20.4998 21.041C19.723 21.8291 18.7414 22.4172 17.6406 22.7202L19.903 31.1074L22.9932 30.2848L20.4998 21.041Z" fill="#FF5A03"/>
</g>
<g filter="url(#filter3_i_488_480)">
<path d="M17.5258 22.7515C17.0151 22.882 16.4798 22.9513 15.9281 22.9513C15.3371 22.9513 14.7648 22.8717 14.2215 22.7227L11.957 31.1174L15.0472 31.9399L17.5258 22.7515Z" fill="#FF5A03"/>
</g>
<g filter="url(#filter4_i_488_480)">
<path d="M14.112 22.6923C13.028 22.3742 12.0639 21.7786 11.303 20.9883L5.07031 27.1795L7.33253 29.4267L14.112 22.6923Z" fill="#FF5A03"/>
</g>
<g filter="url(#filter5_i_488_480)">
<path d="M11.2479 20.9327C10.5001 20.1374 9.95536 19.1512 9.69608 18.0557L1.08594 20.3474L1.91396 23.4171L11.2479 20.9327Z" fill="#FF5A03"/>
</g>
</g>
<defs>
<filter id="filter0_i_488_480" x="0.253906" y="-1.2793" width="31.3218" height="21.592" filterUnits="userSpaceOnUse" color-interpolation-filters="sRGB">
<feFlood flood-opacity="0" result="BackgroundImageFix"/>
<feBlend mode="normal" in="SourceGraphic" in2="BackgroundImageFix" result="shape"/>
<feColorMatrix in="SourceAlpha" type="matrix" values="0 0 0 0 0 0 0 0 0 0 0 0 0 0 0 0 0 0 127 0" result="hardAlpha"/>
<feOffset dy="-2"/>
<feGaussianBlur stdDeviation="2"/>
<feComposite in2="hardAlpha" operator="arithmetic" k2="-1" k3="1"/>
<feColorMatrix type="matrix" values="0 0 0 0 1 0 0 0 0 1 0 0 0 0 1 0 0 0 0.4 0"/>
<feBlend mode="plus-lighter" in2="shape" result="effect1_innerShadow_488_480"/>
</filter>
<filter id="filter1_i_488_480" x="20.5625" y="16.0635" width="8.47949" height="11.0891" filterUnits="userSpaceOnUse" color-interpolation-filters="sRGB">
<feFlood flood-opacity="0" result="BackgroundImageFix"/>
<feBlend mode="normal" in="SourceGraphic" in2="BackgroundImageFix" result="shape"/>
<feColorMatrix in="SourceAlpha" type="matrix" values="0 0 0 0 0 0 0 0 0 0 0 0 0 0 0 0 0 0 127 0" result="hardAlpha"/>
<feOffset dy="-2"/>
<feGaussianBlur stdDeviation="2"/>
<feComposite in2="hardAlpha" operator="arithmetic" k2="-1" k3="1"/>
<feColorMatrix type="matrix" values="0 0 0 0 1 0 0 0 0 1 0 0 0 0 1 0 0 0 0.4 0"/>
<feBlend mode="plus-lighter" in2="shape" result="effect1_innerShadow_488_480"/>
</filter>
<filter id="filter2_i_488_480" x="17.6406" y="19.041" width="5.35254" height="12.0664" filterUnits="userSpaceOnUse" color-interpolation-filters="sRGB">
<feFlood flood-opacity="0" result="BackgroundImageFix"/>
<feBlend mode="normal" in="SourceGraphic" in2="BackgroundImageFix" result="shape"/>
<feColorMatrix in="SourceAlpha" type="matrix" values="0 0 0 0 0 0 0 0 0 0 0 0 0 0 0 0 0 0 127 0" result="hardAlpha"/>
<feOffset dy="-2"/>
<feGaussianBlur stdDeviation="2"/>
<feComposite in2="hardAlpha" operator="arithmetic" k2="-1" k3="1"/>
<feColorMatrix type="matrix" values="0 0 0 0 1 0 0 0 0 1 0 0 0 0 1 0 0 0 0.4 0"/>
<feBlend mode="plus-lighter" in2="shape" result="effect1_innerShadow_488_480"/>
</filter>
<filter id="filter3_i_488_480" x="11.957" y="20.7227" width="5.56885" height="11.2173" filterUnits="userSpaceOnUse" color-interpolation-filters="sRGB">
<feFlood flood-opacity="0" result="BackgroundImageFix"/>
<feBlend mode="normal" in="SourceGraphic" in2="BackgroundImageFix" result="shape"/>
<feColorMatrix in="SourceAlpha" type="matrix" values="0 0 0 0 0 0 0 0 0 0 0 0 0 0 0 0 0 0 127 0" result="hardAlpha"/>
<feOffset dy="-2"/>
<feGaussianBlur stdDeviation="2"/>
<feComposite in2="hardAlpha" operator="arithmetic" k2="-1" k3="1"/>
<feColorMatrix type="matrix" values="0 0 0 0 1 0 0 0 0 1 0 0 0 0 1 0 0 0 0.4 0"/>
<feBlend mode="plus-lighter" in2="shape" result="effect1_innerShadow_488_480"/>
</filter>
<filter id="filter4_i_488_480" x="5.07031" y="18.9883" width="9.04175" height="10.4385" filterUnits="userSpaceOnUse" color-interpolation-filters="sRGB">
<feFlood flood-opacity="0" result="BackgroundImageFix"/>
<feBlend mode="normal" in="SourceGraphic" in2="BackgroundImageFix" result="shape"/>
<feColorMatrix in="SourceAlpha" type="matrix" values="0 0 0 0 0 0 0 0 0 0 0 0 0 0 0 0 0 0 127 0" result="hardAlpha"/>
<feOffset dy="-2"/>
<feGaussianBlur stdDeviation="2"/>
<feComposite in2="hardAlpha" operator="arithmetic" k2="-1" k3="1"/>
<feColorMatrix type="matrix" values="0 0 0 0 1 0 0 0 0 1 0 0 0 0 1 0 0 0 0.4 0"/>
<feBlend mode="plus-lighter" in2="shape" result="effect1_innerShadow_488_480"/>
</filter>
<filter id="filter5_i_488_480" x="1.08594" y="16.0557" width="10.1621" height="7.36133" filterUnits="userSpaceOnUse" color-interpolation-filters="sRGB">
<feFlood flood-opacity="0" result="BackgroundImageFix"/>
<feBlend mode="normal" in="SourceGraphic" in2="BackgroundImageFix" result="shape"/>
<feColorMatrix in="SourceAlpha" type="matrix" values="0 0 0 0 0 0 0 0 0 0 0 0 0 0 0 0 0 0 127 0" result="hardAlpha"/>
<feOffset dy="-2"/>
<feGaussianBlur stdDeviation="2"/>
<feComposite in2="hardAlpha" operator="arithmetic" k2="-1" k3="1"/>
<feColorMatrix type="matrix" values="0 0 0 0 1 0 0 0 0 1 0 0 0 0 1 0 0 0 0.4 0"/>
<feBlend mode="plus-lighter" in2="shape" result="effect1_innerShadow_488_480"/>
</filter>
<clipPath id="clip0_488_480">
<rect width="132" height="32" fill="white"/>
</clipPath>
</defs>
</svg>
