<svg width="160" height="32" viewBox="0 0 160 32" fill="none" xmlns="http://www.w3.org/2000/svg">
<g clip-path="url(#clip0_488_496)">
<path d="M45.6008 22.3022C45.6008 23.1054 45.4051 23.7225 45.0139 24.1536C44.6328 24.5848 43.9958 24.8004 43.103 24.8004C42.2603 24.8004 41.6635 24.5848 41.3123 24.1536C40.9713 23.7225 40.8008 23.1054 40.8008 22.3022V8.89855C40.8008 8.09541 40.9713 7.47827 41.3123 7.04712C41.6635 6.61597 42.2603 6.40039 43.103 6.40039C43.9958 6.40039 44.6328 6.61597 45.0139 7.04712C45.4051 7.47827 45.6008 8.09541 45.6008 8.89855V22.3022Z" fill="black"/>
<path d="M46.4023 18.4309C46.4023 17.5586 46.5403 16.7357 46.8164 15.9622C47.1004 15.1804 47.5225 14.4975 48.0826 13.9132C48.6508 13.3289 49.357 12.864 50.2011 12.5184C51.0534 12.1727 52.0517 12 53.1963 12C54.2921 12 55.262 12.1604 56.1062 12.4814C56.9504 12.8023 57.6606 13.2508 58.2368 13.8268C58.8131 14.3946 59.2515 15.0734 59.5518 15.8634C59.8521 16.6452 60.0023 17.501 60.0023 18.4309C60.0023 19.2949 59.8602 20.1137 59.5762 20.8872C59.2921 21.6524 58.8659 22.3273 58.2977 22.9115C57.7296 23.4875 57.0194 23.9483 56.1671 24.294C55.3147 24.6314 54.3245 24.8 53.1963 24.8C52.0843 24.8 51.1021 24.6396 50.2497 24.3186C49.4056 23.9895 48.6954 23.541 48.1191 22.9732C47.5509 22.3972 47.1207 21.7225 46.8285 20.9489C46.5444 20.1672 46.4023 19.3278 46.4023 18.4309ZM50.4568 18.4309C50.4568 18.974 50.5054 19.4924 50.6029 19.9861C50.7002 20.4716 50.8545 20.8995 51.0655 21.2699C51.2847 21.6401 51.5688 21.9364 51.9178 22.1585C52.2669 22.3725 52.693 22.4795 53.1963 22.4795C53.6589 22.4795 54.0607 22.3808 54.4016 22.1832C54.7507 21.9858 55.0347 21.71 55.2539 21.3562C55.4812 21.0024 55.6517 20.5786 55.7652 20.0849C55.8789 19.5829 55.9357 19.0316 55.9357 18.4309C55.9357 17.8877 55.8829 17.3734 55.7775 16.8879C55.68 16.3943 55.5218 15.9622 55.3026 15.5919C55.0834 15.2134 54.7994 14.9171 54.4503 14.7032C54.1094 14.481 53.6913 14.3699 53.1963 14.3699C52.7011 14.3699 52.2791 14.4768 51.93 14.6909C51.581 14.9048 51.2969 15.1969 51.0777 15.5672C50.8586 15.9375 50.7002 16.3695 50.6029 16.8633C50.5054 17.357 50.4568 17.8795 50.4568 18.4309Z" fill="black"/>
<path d="M70.5695 22.375C70.3411 22.7917 70.062 23.1458 69.7321 23.4375C69.4108 23.7292 69.0513 23.9709 68.6539 24.1626C68.2648 24.3458 67.8461 24.4833 67.3978 24.575C66.958 24.6583 66.5056 24.7001 66.0404 24.7001C65.2622 24.7001 64.5518 24.5626 63.909 24.2875C63.2663 24.0125 62.7123 23.6166 62.2471 23.1001C61.7904 22.575 61.4352 21.9333 61.1814 21.175C60.9277 20.4166 60.8008 19.55 60.8008 18.575C60.8008 17.6583 60.9192 16.8 61.1561 16C61.3928 15.2 61.7354 14.5042 62.1837 13.9125C62.6404 13.3209 63.1986 12.8542 63.8583 12.5125C64.518 12.1709 65.2708 12 66.1165 12C67.0806 12 67.9349 12.1834 68.6792 12.55C69.4319 12.9167 70.079 13.5167 70.6203 14.35V14.0251C70.6203 13.4251 70.7852 12.975 71.115 12.675C71.4533 12.3667 71.9185 12.2125 72.5106 12.2125C72.8658 12.2125 73.166 12.2708 73.4113 12.3875C73.6565 12.4959 73.851 12.6625 73.9948 12.8876C74.1387 13.1042 74.2401 13.375 74.2993 13.7001C74.367 14.0166 74.4008 14.3792 74.4008 14.7875V23.1626C74.4008 24.1792 74.2698 25.0875 74.0076 25.8875C73.7538 26.6875 73.3563 27.3626 72.815 27.9125C72.2737 28.4625 71.5802 28.8791 70.7344 29.1626C69.8887 29.4542 68.8822 29.6 67.715 29.6C66.8947 29.6 66.1673 29.5626 65.5329 29.4875C64.907 29.4209 64.3657 29.3167 63.909 29.175C63.4524 29.0166 63.1056 28.8417 62.8687 28.65C62.6404 28.4583 62.5262 28.2083 62.5262 27.9001C62.5262 27.725 62.5515 27.5584 62.6023 27.4C62.6531 27.2417 62.7292 27.1001 62.8306 26.975C62.9406 26.8583 63.0802 26.7626 63.2494 26.6875C63.4269 26.6209 63.6426 26.5875 63.8963 26.5875C64.167 26.5875 64.4376 26.6042 64.7083 26.6375C64.9874 26.6708 65.275 26.7042 65.571 26.7375C65.8754 26.7792 66.1926 26.8166 66.5225 26.85C66.8608 26.8833 67.2244 26.9001 67.6135 26.9001C68.0787 26.9001 68.4931 26.8542 68.8569 26.7626C69.2205 26.6708 69.5291 26.5084 69.7829 26.275C70.0367 26.0417 70.2312 25.7292 70.3665 25.3375C70.5018 24.9541 70.5695 24.4625 70.5695 23.8625V22.375ZM70.5695 18.4876C70.5695 17.8791 70.523 17.325 70.43 16.8251C70.3454 16.325 70.1973 15.9001 69.9859 15.55C69.7745 15.1917 69.4911 14.9167 69.1359 14.725C68.7806 14.525 68.3367 14.4251 67.8038 14.4251C67.2794 14.4251 66.8439 14.5292 66.4971 14.7375C66.1588 14.9458 65.8882 15.2334 65.6852 15.6C65.4822 15.9667 65.3384 16.3958 65.2538 16.8876C65.1777 17.3792 65.1397 17.9042 65.1397 18.4625C65.1397 19.7375 65.368 20.6959 65.8247 21.3375C66.2814 21.9792 66.9453 22.3001 67.8165 22.3001C68.2225 22.2917 68.5904 22.2166 68.9202 22.075C69.2585 21.925 69.5504 21.6959 69.7956 21.3875C70.0409 21.0791 70.2312 20.6875 70.3665 20.2125C70.5018 19.7375 70.5695 19.1626 70.5695 18.4876Z" fill="black"/>
<path d="M75.1992 18.4309C75.1992 17.5586 75.3453 16.7357 75.6375 15.9622C75.9384 15.1804 76.3852 14.4975 76.9783 13.9132C77.5799 13.3289 78.3276 12.864 79.2214 12.5184C80.1239 12.1727 81.181 12 82.3928 12C83.553 12 84.58 12.1604 85.4739 12.4814C86.3677 12.8023 87.1197 13.2508 87.7299 13.8268C88.3402 14.3946 88.8043 15.0734 89.1222 15.8634C89.4403 16.6452 89.5992 17.501 89.5992 18.4309C89.5992 19.2949 89.4488 20.1137 89.1481 20.8872C88.8472 21.6524 88.396 22.3273 87.7944 22.9115C87.1928 23.4875 86.4407 23.9483 85.5383 24.294C84.6359 24.6314 83.5874 24.8 82.3928 24.8C81.2153 24.8 80.1754 24.6396 79.273 24.3186C78.3791 23.9895 77.6271 23.541 77.0169 22.9732C76.4154 22.3972 75.9598 21.7225 75.6504 20.9489C75.3496 20.1672 75.1992 19.3278 75.1992 18.4309ZM79.4921 18.4309C79.4921 18.974 79.5437 19.4924 79.6469 19.9861C79.75 20.4716 79.9132 20.8995 80.1368 21.2699C80.3688 21.6401 80.6695 21.9364 81.0392 22.1585C81.4087 22.3725 81.8599 22.4795 82.3928 22.4795C82.8827 22.4795 83.3081 22.3808 83.6691 22.1832C84.0386 21.9858 84.3394 21.71 84.5715 21.3562C84.8122 21.0024 84.9926 20.5786 85.1129 20.0849C85.2333 19.5829 85.2935 19.0316 85.2935 18.4309C85.2935 17.8877 85.2376 17.3734 85.1258 16.8879C85.0227 16.3943 84.8551 15.9622 84.6231 15.5919C84.391 15.2134 84.0902 14.9171 83.7206 14.7032C83.3597 14.481 82.917 14.3699 82.3928 14.3699C81.8685 14.3699 81.4216 14.4768 81.052 14.6909C80.6825 14.9048 80.3816 15.1969 80.1496 15.5672C79.9176 15.9375 79.75 16.3695 79.6469 16.8633C79.5437 17.357 79.4921 17.8795 79.4921 18.4309Z" fill="black"/>
<path d="M94.4023 7.31939C94.4023 7.60175 94.3449 7.85415 94.2299 8.07662C94.115 8.29052 93.9656 8.47015 93.7817 8.6157C93.5978 8.76114 93.3831 8.8723 93.1379 8.94929C92.9005 9.01774 92.6553 9.05202 92.4023 9.05202C92.1341 9.05202 91.8774 9.01347 91.6322 8.93648C91.3947 8.85949 91.184 8.74833 91.0001 8.60278C90.8162 8.44879 90.6705 8.26485 90.5632 8.05095C90.456 7.83704 90.4023 7.59319 90.4023 7.31939C90.4023 7.07127 90.4522 6.84453 90.5517 6.63918C90.659 6.42528 90.8008 6.24132 90.977 6.08731C91.1533 5.9333 91.3641 5.81351 91.6093 5.72795C91.8545 5.64239 92.1227 5.59961 92.4139 5.59961C92.6667 5.59961 92.9119 5.63812 93.1495 5.71512C93.3947 5.79212 93.6092 5.90335 93.7931 6.04881C93.977 6.19426 94.1227 6.37394 94.2299 6.58784C94.3449 6.80175 94.4023 7.0456 94.4023 7.31939ZM94.2299 22.2713C94.2299 23.0841 94.0805 23.7087 93.7817 24.145C93.4905 24.5814 93.0038 24.7996 92.3219 24.7996C91.6782 24.7996 91.2222 24.5814 90.9541 24.145C90.6936 23.7087 90.5632 23.0841 90.5632 22.2713V14.4167C90.5632 13.6038 90.6936 12.9793 90.9541 12.5429C91.2222 12.1066 91.6782 11.8883 92.3219 11.8883C93.0038 11.8883 93.4905 12.1066 93.7817 12.5429C94.0805 12.9793 94.2299 13.6038 94.2299 14.4167V22.2713Z" fill="black"/>
<path d="M100.864 18.5274C100.864 19.0914 100.906 19.6174 100.991 20.1056C101.084 20.5938 101.237 21.023 101.448 21.3934C101.668 21.7553 101.956 22.0415 102.312 22.2519C102.676 22.4624 103.124 22.5675 103.658 22.5675C104.149 22.5675 104.559 22.4666 104.89 22.2646C105.228 22.0542 105.499 21.7679 105.702 21.406C105.905 21.0356 106.049 20.6022 106.134 20.1056C106.227 19.609 106.273 19.0703 106.273 18.4896C106.273 18.0266 106.24 17.5553 106.172 17.0755C106.104 16.5872 105.978 16.1454 105.791 15.7498C105.605 15.3542 105.347 15.0301 105.017 14.7776C104.686 14.5252 104.255 14.3989 103.721 14.3989C103.188 14.3989 102.735 14.483 102.363 14.6514C101.998 14.8197 101.702 15.0764 101.474 15.4215C101.253 15.7666 101.097 16.2001 101.004 16.7219C100.911 17.2354 100.864 17.8372 100.864 18.5274ZM100.851 14.7018C101.063 14.2558 101.334 13.8644 101.664 13.5277C101.994 13.191 102.358 12.9091 102.756 12.6818C103.154 12.4545 103.569 12.2862 104.001 12.1768C104.441 12.0589 104.877 12 105.308 12C106.087 12 106.79 12.1726 107.417 12.5177C108.043 12.8628 108.576 13.3341 109.016 13.9317C109.465 14.521 109.808 15.2195 110.045 16.0276C110.282 16.8272 110.401 17.6857 110.401 18.6031C110.401 19.5542 110.273 20.4254 110.019 21.2166C109.774 22.0078 109.422 22.6896 108.965 23.2619C108.516 23.8259 107.975 24.2677 107.34 24.5876C106.713 24.9075 106.016 25.0674 105.245 25.0674C104.297 25.0674 103.45 24.8486 102.705 24.4108C101.96 23.9732 101.342 23.3588 100.851 22.5675V27.1128C100.851 27.9123 100.686 28.5268 100.356 28.9561C100.034 29.3853 99.497 29.6 98.7435 29.6C98.0325 29.6 97.5287 29.3853 97.2325 28.9561C96.9447 28.5268 96.8008 27.9123 96.8008 27.1128V14.7018C96.8008 13.9022 96.9447 13.2878 97.2325 12.8586C97.5287 12.4293 98.0325 12.2146 98.7435 12.2146C99.497 12.2146 100.034 12.4293 100.356 12.8586C100.686 13.2878 100.851 13.9022 100.851 14.7018Z" fill="black"/>
<path d="M114.077 15.5426C114.077 15.8634 114.225 16.1144 114.519 16.2955C114.815 16.4683 115.223 16.6123 115.745 16.7275C116.239 16.8344 116.748 16.9373 117.269 17.036C117.79 17.1348 118.299 17.2501 118.793 17.3817C119.288 17.5051 119.753 17.6533 120.188 17.826C120.621 17.9989 121.004 18.2169 121.334 18.4802C121.664 18.7353 121.924 19.048 122.115 19.4183C122.307 19.7804 122.402 20.2166 122.402 20.7267C122.402 21.3686 122.263 21.9405 121.985 22.4424C121.707 22.9362 121.313 23.3558 120.8 23.7015C120.297 24.0471 119.693 24.3145 118.989 24.5038C118.285 24.6931 117.508 24.7918 116.656 24.8C115.849 24.8 115.071 24.7507 114.324 24.6519C113.578 24.5614 112.913 24.4173 112.33 24.2198C111.758 24.0223 111.297 23.7797 110.949 23.4916C110.602 23.1954 110.429 22.8498 110.429 22.4548C110.429 22.1091 110.546 21.8417 110.78 21.6524C111.015 21.4633 111.314 21.3686 111.68 21.3686C111.819 21.3686 111.983 21.3932 112.175 21.4426C112.366 21.492 112.574 21.5537 112.799 21.6278C113.025 21.7018 113.264 21.7841 113.517 21.8747C113.777 21.9569 114.046 22.031 114.324 22.0968C114.672 22.1874 115.028 22.2614 115.392 22.3191C115.766 22.3684 116.148 22.3931 116.54 22.3931C116.782 22.3931 117.021 22.3725 117.256 22.3314C117.49 22.282 117.699 22.212 117.882 22.1216C118.073 22.0228 118.229 21.8993 118.351 21.7512C118.472 21.6031 118.545 21.4221 118.572 21.2081C118.598 21.1587 118.62 21.1093 118.637 21.0599C118.654 21.0107 118.663 20.953 118.663 20.8872C118.663 20.6567 118.55 20.451 118.324 20.27C118.107 20.089 117.798 19.9449 117.399 19.838C116.73 19.6899 116.092 19.5542 115.483 19.4307C114.876 19.3073 114.312 19.1756 113.79 19.0357C113.278 18.8958 112.808 18.7353 112.383 18.5543C111.966 18.3733 111.61 18.1511 111.314 17.8877C111.028 17.6244 110.801 17.3076 110.637 16.9373C110.48 16.567 110.402 16.1185 110.402 15.5919C110.402 15.0241 110.537 14.518 110.806 14.0736C111.084 13.621 111.48 13.2426 111.992 12.9381C112.505 12.6336 113.125 12.4032 113.856 12.2469C114.585 12.0823 115.41 12 116.331 12C117.981 12 119.236 12.1893 120.096 12.5677C120.965 12.9381 121.399 13.4235 121.399 14.0243C121.399 14.3617 121.282 14.6209 121.047 14.8019C120.812 14.9747 120.53 15.0611 120.201 15.0611C120.026 15.0611 119.844 15.0323 119.653 14.9747C119.47 14.9089 119.249 14.839 118.989 14.7649C118.728 14.6826 118.415 14.6127 118.051 14.5551C117.695 14.4893 117.251 14.4563 116.722 14.4563C116.322 14.4563 115.957 14.4727 115.627 14.5057C115.306 14.5386 115.028 14.5962 114.793 14.6784C114.567 14.7608 114.389 14.8718 114.259 15.0118C114.137 15.1517 114.077 15.3285 114.077 15.5426Z" fill="black"/>
<path d="M127.262 20C127.262 20.3947 127.313 20.7391 127.415 21.0331C127.525 21.327 127.674 21.5748 127.861 21.7764C128.048 21.9696 128.264 22.1165 128.51 22.2173C128.765 22.3097 129.037 22.356 129.325 22.356C129.665 22.356 129.992 22.3055 130.306 22.2047C130.62 22.104 130.896 21.9485 131.134 21.7385C131.38 21.5286 131.576 21.264 131.72 20.9448C131.864 20.6258 131.937 20.252 131.937 19.8236V14.4819C131.937 13.684 132.081 13.0709 132.369 12.6426C132.667 12.2143 133.172 12 133.885 12C134.641 12 135.18 12.2143 135.503 12.6426C135.834 13.0709 135.999 13.684 135.999 14.4819V22.1921C135.999 22.99 135.834 23.6031 135.503 24.0314C135.18 24.4598 134.641 24.674 133.885 24.674C133.172 24.674 132.667 24.4598 132.369 24.0314C132.081 23.6031 131.937 22.99 131.937 22.1921C131.758 22.5785 131.525 22.9312 131.235 23.2504C130.955 23.5696 130.625 23.8467 130.242 24.0819C129.868 24.3087 129.453 24.485 128.994 24.611C128.544 24.737 128.055 24.8 127.529 24.8C126.961 24.8 126.413 24.7034 125.886 24.5103C125.369 24.3087 124.91 24.0147 124.511 23.6283C124.112 23.2336 123.794 22.7464 123.556 22.167C123.318 21.5874 123.199 20.9113 123.199 20.1385V14.4819C123.199 13.684 123.344 13.0709 123.632 12.6426C123.93 12.2143 124.434 12 125.148 12C125.903 12 126.442 12.2143 126.765 12.6426C127.097 13.0709 127.262 13.684 127.262 14.4819V20Z" fill="black"/>
<path d="M137.598 14.6776C137.598 13.8851 137.738 13.2762 138.02 12.8509C138.308 12.4255 138.8 12.2127 139.494 12.2127C140.23 12.2127 140.755 12.4255 141.069 12.8509C141.391 13.2762 141.553 13.8851 141.553 14.6776C141.718 14.2772 141.941 13.9144 142.222 13.5891C142.511 13.2554 142.838 12.9718 143.201 12.7382C143.573 12.5047 143.974 12.3253 144.403 12.2002C144.833 12.0667 145.279 12 145.743 12C146.172 12 146.593 12.0584 147.007 12.1752C147.428 12.2836 147.817 12.463 148.172 12.7132C148.535 12.9551 148.853 13.2637 149.126 13.6391C149.399 14.0144 149.61 14.4649 149.759 14.9904C150.015 14.4316 150.316 13.9603 150.663 13.5766C151.01 13.1928 151.387 12.8842 151.791 12.6507C152.196 12.417 152.618 12.2503 153.056 12.1501C153.502 12.0501 153.948 12 154.394 12C154.923 12 155.427 12.096 155.907 12.2877C156.394 12.4796 156.819 12.7716 157.183 13.1637C157.556 13.5473 157.849 14.0354 158.063 14.6276C158.287 15.2115 158.398 15.8955 158.398 16.6796V22.3351C158.398 23.1275 158.237 23.7365 157.914 24.1618C157.601 24.5873 157.075 24.8 156.34 24.8C155.646 24.8 155.155 24.5873 154.866 24.1618C154.584 23.7365 154.444 23.1275 154.444 22.3351V16.8548C154.444 16.4794 154.394 16.1457 154.296 15.8538C154.196 15.5534 154.056 15.3033 153.874 15.1031C153.7 14.8946 153.494 14.7402 153.254 14.6401C153.015 14.5316 152.758 14.4774 152.486 14.4774C152.146 14.4774 151.825 14.5316 151.519 14.6401C151.213 14.7485 150.945 14.9154 150.713 15.1406C150.49 15.3658 150.308 15.6536 150.167 16.0039C150.035 16.3542 149.969 16.7755 149.969 17.2676V22.3351C149.969 23.1275 149.807 23.7365 149.486 24.1618C149.172 24.5873 148.647 24.8 147.911 24.8C147.217 24.8 146.725 24.5873 146.436 24.1618C146.155 23.7365 146.014 23.1275 146.014 22.3351V17.0924C146.014 16.2334 145.837 15.5827 145.482 15.1406C145.134 14.6985 144.659 14.4774 144.056 14.4774C143.701 14.4774 143.37 14.5358 143.064 14.6526C142.759 14.7694 142.494 14.9404 142.271 15.1656C142.048 15.3908 141.87 15.6702 141.738 16.0039C141.614 16.3376 141.553 16.7213 141.553 17.155V22.3351C141.553 23.1275 141.391 23.7365 141.069 24.1618C140.755 24.5873 140.23 24.8 139.494 24.8C138.8 24.8 138.308 24.5873 138.02 24.1618C137.738 23.7365 137.598 23.1275 137.598 22.3351V14.6776Z" fill="black"/>
<g filter="url(#filter0_i_488_496)">
<path d="M15.2008 23.2004C11.6662 23.2004 8.80078 20.335 8.80078 16.8004C8.80078 13.2658 11.6662 10.4004 15.2008 10.4004C18.7354 10.4004 21.6008 13.2658 21.6008 16.8004C21.6008 20.335 18.7354 23.2004 15.2008 23.2004Z" fill="#FF5A03"/>
</g>
<g filter="url(#filter1_i_488_496)">
<path d="M3.36388 18.0701C1.54579 18.3999 0.299579 20.2065 0.997487 21.9647C1.97185 24.4192 3.52632 26.6061 5.54158 28.315C8.42325 30.7585 12.0579 32.0642 15.7918 31.9972C19.5258 31.9301 23.114 30.4947 25.9111 27.9492C27.867 26.1691 29.3464 23.9276 30.237 21.4397C30.8748 19.6575 29.568 17.8967 27.7398 17.6324C25.9117 17.3682 24.2703 18.737 23.3672 20.3934C22.8778 21.2912 22.2424 22.1058 21.4811 22.7986C19.8763 24.2591 17.8175 25.0826 15.6752 25.1211C13.5328 25.1595 11.4474 24.4105 9.79408 23.0084C9.00975 22.3434 8.34713 21.5522 7.82747 20.6724C6.86885 19.0494 5.18198 17.7403 3.36388 18.0701Z" fill="#FF5A03"/>
</g>
<g filter="url(#filter2_i_488_496)">
<path d="M31.8763 17.8508C31.958 17.2011 32 16.5393 32 15.8678C32 7.10426 24.8366 0 16 0C7.16344 0 0 7.10426 0 15.8678C0 16.7296 0.06928 17.5754 0.202624 18.4C0.937536 17.4022 2.08454 16.69 3.32348 16.4733C4.66395 16.2389 5.88222 16.5613 6.91229 17.164C6.85144 16.7407 6.81995 16.3079 6.81995 15.8678C6.81995 10.8397 10.93 6.7636 16 6.7636C21.07 6.7636 25.1801 10.8397 25.1801 15.8678C25.1801 16.1993 25.1621 16.5268 25.1274 16.8491C26.1357 16.2109 27.3421 15.8462 28.6902 16.0342C29.9357 16.2078 31.1067 16.8795 31.8763 17.8508Z" fill="#FF5A03"/>
</g>
</g>
<defs>
<filter id="filter0_i_488_496" x="8.80078" y="5.40039" width="12.8" height="17.8" filterUnits="userSpaceOnUse" color-interpolation-filters="sRGB">
<feFlood flood-opacity="0" result="BackgroundImageFix"/>
<feBlend mode="normal" in="SourceGraphic" in2="BackgroundImageFix" result="shape"/>
<feColorMatrix in="SourceAlpha" type="matrix" values="0 0 0 0 0 0 0 0 0 0 0 0 0 0 0 0 0 0 127 0" result="hardAlpha"/>
<feOffset dy="-5"/>
<feGaussianBlur stdDeviation="5"/>
<feComposite in2="hardAlpha" operator="arithmetic" k2="-1" k3="1"/>
<feColorMatrix type="matrix" values="0 0 0 0 1 0 0 0 0 1 0 0 0 0 1 0 0 0 0.4 0"/>
<feBlend mode="plus-lighter" in2="shape" result="effect1_innerShadow_488_496"/>
</filter>
<filter id="filter1_i_488_496" x="0.800781" y="12.5996" width="29.6001" height="19.3999" filterUnits="userSpaceOnUse" color-interpolation-filters="sRGB">
<feFlood flood-opacity="0" result="BackgroundImageFix"/>
<feBlend mode="normal" in="SourceGraphic" in2="BackgroundImageFix" result="shape"/>
<feColorMatrix in="SourceAlpha" type="matrix" values="0 0 0 0 0 0 0 0 0 0 0 0 0 0 0 0 0 0 127 0" result="hardAlpha"/>
<feOffset dy="-5"/>
<feGaussianBlur stdDeviation="5"/>
<feComposite in2="hardAlpha" operator="arithmetic" k2="-1" k3="1"/>
<feColorMatrix type="matrix" values="0 0 0 0 1 0 0 0 0 1 0 0 0 0 1 0 0 0 0.4 0"/>
<feBlend mode="plus-lighter" in2="shape" result="effect1_innerShadow_488_496"/>
</filter>
<filter id="filter2_i_488_496" x="0" y="-5" width="32" height="23.3999" filterUnits="userSpaceOnUse" color-interpolation-filters="sRGB">
<feFlood flood-opacity="0" result="BackgroundImageFix"/>
<feBlend mode="normal" in="SourceGraphic" in2="BackgroundImageFix" result="shape"/>
<feColorMatrix in="SourceAlpha" type="matrix" values="0 0 0 0 0 0 0 0 0 0 0 0 0 0 0 0 0 0 127 0" result="hardAlpha"/>
<feOffset dy="-5"/>
<feGaussianBlur stdDeviation="5"/>
<feComposite in2="hardAlpha" operator="arithmetic" k2="-1" k3="1"/>
<feColorMatrix type="matrix" values="0 0 0 0 1 0 0 0 0 1 0 0 0 0 1 0 0 0 0.4 0"/>
<feBlend mode="plus-lighter" in2="shape" result="effect1_innerShadow_488_496"/>
</filter>
<clipPath id="clip0_488_496">
<rect width="160" height="32" fill="white"/>
</clipPath>
</defs>
</svg>
