<svg width="160" height="32" viewBox="0 0 160 32" fill="none" xmlns="http://www.w3.org/2000/svg">
<g clip-path="url(#clip0_488_509)">
<path d="M48.0742 24.2381V7.9502H51.1456V21.4459H58.5915V24.2381H48.0742Z" fill="black"/>
<path d="M65.2217 24.5638C64.0738 24.5638 63.0422 24.3311 62.127 23.8657C61.2117 23.4004 60.4904 22.7256 59.963 21.8414C59.4356 20.9572 59.1719 19.8946 59.1719 18.6536V18.2813C59.1719 17.0403 59.4356 15.9777 59.963 15.0935C60.4904 14.2093 61.2117 13.5345 62.127 13.0691C63.0422 12.6038 64.0738 12.3711 65.2217 12.3711C66.3696 12.3711 67.4012 12.6038 68.3164 13.0691C69.2316 13.5345 69.9529 14.2093 70.4804 15.0935C71.0078 15.9777 71.2715 17.0403 71.2715 18.2813V18.6536C71.2715 19.8946 71.0078 20.9572 70.4804 21.8414C69.9529 22.7256 69.2316 23.4004 68.3164 23.8657C67.4012 24.3311 66.3696 24.5638 65.2217 24.5638ZM65.2217 21.9577C66.1214 21.9577 66.866 21.6707 67.4555 21.0968C68.0449 20.5073 68.3397 19.6696 68.3397 18.5838V18.3511C68.3397 17.2652 68.0449 16.4353 67.4555 15.8613C66.8815 15.2719 66.1369 14.9771 65.2217 14.9771C64.322 14.9771 63.5774 15.2719 62.9879 15.8613C62.3984 16.4353 62.1037 17.2652 62.1037 18.3511V18.5838C62.1037 19.6696 62.3984 20.5073 62.9879 21.0968C63.5774 21.6707 64.322 21.9577 65.2217 21.9577Z" fill="black"/>
<path d="M72.3711 18.514V18.1417C72.3711 16.9317 72.6115 15.9001 73.0924 15.0469C73.5733 14.1783 74.2093 13.519 75.0004 13.0691C75.8071 12.6038 76.6835 12.3711 77.6298 12.3711C78.6846 12.3711 79.4835 12.5572 80.0264 12.9295C80.5694 13.3018 80.9649 13.6896 81.2131 14.0929H81.632V12.6968H84.5173V26.2856C84.5173 27.0768 84.2846 27.705 83.8192 28.1704C83.3538 28.6513 82.7334 28.8917 81.9577 28.8917H74.2326V26.3322H80.9339C81.3683 26.3322 81.5854 26.0995 81.5854 25.6341V22.6325H81.1666C81.0115 22.8807 80.7943 23.1366 80.5151 23.4004C80.2359 23.6485 79.8636 23.858 79.3982 24.0286C78.9328 24.1992 78.3434 24.2846 77.6298 24.2846C76.6835 24.2846 75.8071 24.0596 75.0004 23.6098C74.2093 23.1444 73.5733 22.4851 73.0924 21.6319C72.6115 20.7633 72.3711 19.7239 72.3711 18.514ZM78.4675 21.725C79.3672 21.725 80.1195 21.438 80.7245 20.8641C81.3295 20.2901 81.632 19.4835 81.632 18.4442V18.2115C81.632 17.1566 81.3295 16.35 80.7245 15.7915C80.135 15.2176 79.3827 14.9306 78.4675 14.9306C77.5677 14.9306 76.8154 15.2176 76.2104 15.7915C75.6054 16.35 75.3029 17.1566 75.3029 18.2115V18.4442C75.3029 19.4835 75.6054 20.2901 76.2104 20.8641C76.8154 21.438 77.5677 21.725 78.4675 21.725Z" fill="black"/>
<path d="M92.214 24.5638C91.0661 24.5638 90.0345 24.3311 89.1192 23.8657C88.204 23.4004 87.4827 22.7256 86.9553 21.8414C86.4279 20.9572 86.1641 19.8946 86.1641 18.6536V18.2813C86.1641 17.0403 86.4279 15.9777 86.9553 15.0935C87.4827 14.2093 88.204 13.5345 89.1192 13.0691C90.0345 12.6038 91.0661 12.3711 92.214 12.3711C93.3619 12.3711 94.3934 12.6038 95.3087 13.0691C96.2239 13.5345 96.9452 14.2093 97.4727 15.0935C98.0001 15.9777 98.2638 17.0403 98.2638 18.2813V18.6536C98.2638 19.8946 98.0001 20.9572 97.4727 21.8414C96.9452 22.7256 96.2239 23.4004 95.3087 23.8657C94.3934 24.3311 93.3619 24.5638 92.214 24.5638ZM92.214 21.9577C93.1137 21.9577 93.8583 21.6707 94.4477 21.0968C95.0372 20.5073 95.3319 19.6696 95.3319 18.5838V18.3511C95.3319 17.2652 95.0372 16.4353 94.4477 15.8613C93.8738 15.2719 93.1292 14.9771 92.214 14.9771C91.3142 14.9771 90.5697 15.2719 89.9802 15.8613C89.3907 16.4353 89.096 17.2652 89.096 18.3511V18.5838C89.096 19.6696 89.3907 20.5073 89.9802 21.0968C90.5697 21.6707 91.3142 21.9577 92.214 21.9577Z" fill="black"/>
<path d="M99.9227 24.2387V12.6975H102.855V24.2387H99.9227ZM101.389 11.348C100.861 11.348 100.412 11.1773 100.039 10.836C99.6823 10.4948 99.5039 10.0449 99.5039 9.48648C99.5039 8.92804 99.6823 8.47818 100.039 8.13691C100.412 7.79564 100.861 7.625 101.389 7.625C101.932 7.625 102.382 7.79564 102.738 8.13691C103.095 8.47818 103.274 8.92804 103.274 9.48648C103.274 10.0449 103.095 10.4948 102.738 10.836C102.382 11.1773 101.932 11.348 101.389 11.348Z" fill="black"/>
<path d="M105.059 28.8917V12.6968H107.944V14.0929H108.363C108.626 13.6431 109.037 13.2475 109.596 12.9062C110.154 12.5495 110.953 12.3711 111.993 12.3711C112.923 12.3711 113.784 12.6038 114.575 13.0691C115.367 13.519 116.003 14.186 116.483 15.0702C116.964 15.9544 117.205 17.0248 117.205 18.2813V18.6536C117.205 19.9101 116.964 20.9804 116.483 21.8646C116.003 22.7488 115.367 23.4236 114.575 23.889C113.784 24.3388 112.923 24.5638 111.993 24.5638C111.295 24.5638 110.705 24.4785 110.224 24.3078C109.759 24.1527 109.379 23.951 109.084 23.7028C108.805 23.4391 108.58 23.1754 108.409 22.9117H107.99V28.8917H105.059ZM111.108 22.0042C112.024 22.0042 112.776 21.7173 113.365 21.1433C113.97 20.5538 114.273 19.7007 114.273 18.5838V18.3511C114.273 17.2342 113.97 16.3888 113.365 15.8148C112.76 15.2253 112.008 14.9306 111.108 14.9306C110.209 14.9306 109.456 15.2253 108.851 15.8148C108.246 16.3888 107.944 17.2342 107.944 18.3511V18.5838C107.944 19.7007 108.246 20.5538 108.851 21.1433C109.456 21.7173 110.209 22.0042 111.108 22.0042Z" fill="black"/>
<path d="M123.64 24.5638C122.135 24.5638 120.902 24.238 119.94 23.5865C118.979 22.935 118.397 22.0042 118.195 20.7943L120.894 20.0962C121.003 20.6392 121.181 21.0657 121.43 21.376C121.693 21.6862 122.011 21.9112 122.384 22.0508C122.771 22.1749 123.19 22.2369 123.64 22.2369C124.323 22.2369 124.827 22.1206 125.152 21.8879C125.478 21.6397 125.641 21.3372 125.641 20.9804C125.641 20.6236 125.486 20.3522 125.176 20.166C124.865 19.9644 124.369 19.8015 123.687 19.6774L123.035 19.561C122.228 19.4059 121.492 19.1965 120.825 18.9328C120.157 18.6536 119.622 18.2735 119.219 17.7926C118.816 17.3118 118.614 16.6913 118.614 15.9312C118.614 14.7832 119.033 13.9068 119.871 13.3018C120.708 12.6813 121.81 12.3711 123.175 12.3711C124.462 12.3711 125.533 12.658 126.386 13.232C127.239 13.806 127.797 14.5583 128.061 15.4891L125.339 16.3267C125.215 15.7373 124.959 15.3184 124.571 15.0702C124.198 14.822 123.733 14.6979 123.175 14.6979C122.616 14.6979 122.19 14.7988 121.895 15.0004C121.6 15.1866 121.453 15.4503 121.453 15.7915C121.453 16.1638 121.608 16.4431 121.918 16.6292C122.228 16.7998 122.647 16.9317 123.175 17.0248L123.826 17.1411C124.695 17.2962 125.478 17.5057 126.176 17.7694C126.89 18.0176 127.448 18.3821 127.852 18.863C128.27 19.3284 128.48 19.9644 128.48 20.771C128.48 21.981 128.038 22.9195 127.154 23.5865C126.285 24.238 125.114 24.5638 123.64 24.5638Z" fill="black"/>
<path d="M134.401 24.4247C133.501 24.4247 132.71 24.223 132.027 23.8197C131.36 23.4009 130.841 22.8269 130.468 22.0978C130.096 21.3687 129.91 20.5311 129.91 19.5848V12.6973H132.842V19.3521C132.842 20.2208 133.051 20.8723 133.47 21.3067C133.904 21.741 134.517 21.9582 135.308 21.9582C136.208 21.9582 136.906 21.6635 137.402 21.074C137.899 20.469 138.147 19.6313 138.147 18.561V12.6973H141.079V24.2385H138.193V22.7261H137.775C137.589 23.1139 137.239 23.4939 136.728 23.8662C136.216 24.2385 135.44 24.4247 134.401 24.4247Z" fill="black"/>
<path d="M143.293 24.238V12.6968H146.178V13.9533H146.597C146.799 13.5655 147.133 13.232 147.598 12.9528C148.063 12.658 148.676 12.5107 149.436 12.5107C150.258 12.5107 150.918 12.6736 151.414 12.9993C151.91 13.3096 152.29 13.7206 152.554 14.2326H152.973C153.237 13.7362 153.609 13.3251 154.09 12.9993C154.571 12.6736 155.253 12.5107 156.137 12.5107C156.851 12.5107 157.495 12.6658 158.069 12.9761C158.658 13.2708 159.124 13.7284 159.465 14.3489C159.822 14.9539 160 15.7217 160 16.6525V24.238H157.068V16.8619C157.068 16.2259 156.905 15.7528 156.58 15.4425C156.254 15.1168 155.796 14.9539 155.207 14.9539C154.54 14.9539 154.02 15.171 153.648 15.6054C153.291 16.0242 153.113 16.6292 153.113 17.4203V24.238H150.181V16.8619C150.181 16.2259 150.018 15.7528 149.692 15.4425C149.366 15.1168 148.909 14.9539 148.319 14.9539C147.652 14.9539 147.132 15.171 146.76 15.6054C146.403 16.0242 146.225 16.6292 146.225 17.4203V24.238H143.293Z" fill="black"/>
<g filter="url(#filter0_i_488_509)">
<path d="M38.7793 15.5127C38.7793 11.3985 37.1449 7.45275 34.2357 4.54356C31.3265 1.63437 27.3808 5.39515e-07 23.2666 0C19.1524 -5.39514e-07 15.2067 1.63437 12.2975 4.54356C9.38828 7.45275 7.75391 11.3985 7.75391 15.5127H12.6017C14.2081 15.5127 15.4609 14.1665 16.0493 12.6717C16.4356 11.6903 17.0218 10.7884 17.782 10.0281C19.2366 8.57352 21.2095 7.75634 23.2666 7.75634C25.3237 7.75634 27.2966 8.57352 28.7512 10.0281C30.2058 11.4827 31.0229 13.4556 31.0229 15.5127H38.7793Z" fill="#FF5A03"/>
</g>
<g filter="url(#filter1_i_488_509)">
<path d="M29.8444 21.4491C30.624 19.567 31.0253 17.5498 31.0253 15.5127H38.7808C38.7808 24.0801 31.8355 31.0253 23.2681 31.0253C21.9264 31.0253 20.6244 30.855 19.3828 30.5348C20.0853 30.3538 20.7758 30.1233 21.449 29.8445C23.3311 29.0649 25.0412 27.9223 26.4817 26.4818C27.9222 25.0413 29.0649 23.3312 29.8444 21.4491Z" fill="#FF5A03"/>
</g>
<g filter="url(#filter2_i_488_509)">
<path d="M0 15.5127C-2.91433e-07 17.5499 0.401247 19.5671 1.18083 21.4492C1.96042 23.3313 3.10307 25.0414 4.54356 26.4819C5.98404 27.9223 7.69415 29.065 9.57623 29.8446C11.4583 30.6242 13.4755 31.0254 15.5127 31.0254C17.5498 31.0254 19.567 30.6242 21.4491 29.8446C23.3312 29.065 25.0413 27.9223 26.4818 26.4819C27.9223 25.0414 29.0649 23.3313 29.8445 21.4492C30.6241 19.5671 31.0254 17.5499 31.0254 15.5127H26.1776C24.5712 15.5127 23.3184 16.8589 22.73 18.3536C22.7133 18.3962 22.6961 18.4386 22.6786 18.481C22.2888 19.422 21.7175 20.2771 20.9972 20.9973C20.277 21.7175 19.4219 22.2889 18.4809 22.6787C17.5399 23.0685 16.5313 23.2691 15.5127 23.2691C14.4941 23.2691 13.4855 23.0685 12.5445 22.6787C11.6034 22.2889 10.7484 21.7175 10.0281 20.9973C9.30787 20.2771 8.73655 19.422 8.34676 18.481C7.95696 17.5399 7.75634 16.5313 7.75634 15.5127H0Z" fill="#FF5A03"/>
</g>
<g filter="url(#filter3_i_488_509)">
<path d="M0.00390625 15.5127C0.00390625 6.94524 6.94915 0 15.5165 0C16.8579 0 18.1595 0.170246 19.401 0.490323C16.7371 1.17657 14.2797 2.56535 12.3014 4.54357C9.39224 7.45273 7.75789 11.3985 7.75789 15.5127H0.00390625Z" fill="#FF5A03"/>
</g>
</g>
<defs>
<filter id="filter0_i_488_509" x="7.75391" y="-5" width="31.0254" height="20.5127" filterUnits="userSpaceOnUse" color-interpolation-filters="sRGB">
<feFlood flood-opacity="0" result="BackgroundImageFix"/>
<feBlend mode="normal" in="SourceGraphic" in2="BackgroundImageFix" result="shape"/>
<feColorMatrix in="SourceAlpha" type="matrix" values="0 0 0 0 0 0 0 0 0 0 0 0 0 0 0 0 0 0 127 0" result="hardAlpha"/>
<feOffset dy="-5"/>
<feGaussianBlur stdDeviation="5"/>
<feComposite in2="hardAlpha" operator="arithmetic" k2="-1" k3="1"/>
<feColorMatrix type="matrix" values="0 0 0 0 1 0 0 0 0 1 0 0 0 0 1 0 0 0 0.4 0"/>
<feBlend mode="plus-lighter" in2="shape" result="effect1_innerShadow_488_509"/>
</filter>
<filter id="filter1_i_488_509" x="19.3828" y="10.5127" width="19.3979" height="20.5127" filterUnits="userSpaceOnUse" color-interpolation-filters="sRGB">
<feFlood flood-opacity="0" result="BackgroundImageFix"/>
<feBlend mode="normal" in="SourceGraphic" in2="BackgroundImageFix" result="shape"/>
<feColorMatrix in="SourceAlpha" type="matrix" values="0 0 0 0 0 0 0 0 0 0 0 0 0 0 0 0 0 0 127 0" result="hardAlpha"/>
<feOffset dy="-5"/>
<feGaussianBlur stdDeviation="5"/>
<feComposite in2="hardAlpha" operator="arithmetic" k2="-1" k3="1"/>
<feColorMatrix type="matrix" values="0 0 0 0 1 0 0 0 0 1 0 0 0 0 1 0 0 0 0.4 0"/>
<feBlend mode="plus-lighter" in2="shape" result="effect1_innerShadow_488_509"/>
</filter>
<filter id="filter2_i_488_509" x="0" y="10.5127" width="31.0254" height="20.5127" filterUnits="userSpaceOnUse" color-interpolation-filters="sRGB">
<feFlood flood-opacity="0" result="BackgroundImageFix"/>
<feBlend mode="normal" in="SourceGraphic" in2="BackgroundImageFix" result="shape"/>
<feColorMatrix in="SourceAlpha" type="matrix" values="0 0 0 0 0 0 0 0 0 0 0 0 0 0 0 0 0 0 127 0" result="hardAlpha"/>
<feOffset dy="-5"/>
<feGaussianBlur stdDeviation="5"/>
<feComposite in2="hardAlpha" operator="arithmetic" k2="-1" k3="1"/>
<feColorMatrix type="matrix" values="0 0 0 0 1 0 0 0 0 1 0 0 0 0 1 0 0 0 0.4 0"/>
<feBlend mode="plus-lighter" in2="shape" result="effect1_innerShadow_488_509"/>
</filter>
<filter id="filter3_i_488_509" x="0.00390625" y="-5" width="19.3972" height="20.5127" filterUnits="userSpaceOnUse" color-interpolation-filters="sRGB">
<feFlood flood-opacity="0" result="BackgroundImageFix"/>
<feBlend mode="normal" in="SourceGraphic" in2="BackgroundImageFix" result="shape"/>
<feColorMatrix in="SourceAlpha" type="matrix" values="0 0 0 0 0 0 0 0 0 0 0 0 0 0 0 0 0 0 127 0" result="hardAlpha"/>
<feOffset dy="-5"/>
<feGaussianBlur stdDeviation="5"/>
<feComposite in2="hardAlpha" operator="arithmetic" k2="-1" k3="1"/>
<feColorMatrix type="matrix" values="0 0 0 0 1 0 0 0 0 1 0 0 0 0 1 0 0 0 0.4 0"/>
<feBlend mode="plus-lighter" in2="shape" result="effect1_innerShadow_488_509"/>
</filter>
<clipPath id="clip0_488_509">
<rect width="160" height="32" fill="white"/>
</clipPath>
</defs>
</svg>
