<svg width="146" height="38" viewBox="0 0 146 38" fill="none" xmlns="http://www.w3.org/2000/svg">
<path fill-rule="evenodd" clip-rule="evenodd" d="M74.1281 28.0276C74.1281 28.2283 73.9655 28.3909 73.7649 28.3909H71.6598C71.4592 28.3909 71.2966 28.2283 71.2966 28.0276V26.8948C70.8937 27.3543 70.4108 27.7381 69.8446 28.041C69.0449 28.4598 68.1246 28.6673 67.0902 28.6673C65.8657 28.6673 64.7501 28.3659 63.748 27.7608C62.7484 27.1384 61.9548 26.2968 61.3711 25.2425C60.8051 24.1858 60.5225 22.9971 60.5225 21.6845C60.5225 20.3721 60.8034 19.1858 61.3693 18.1293C61.9526 17.0758 62.7368 16.2334 63.7177 15.6109C64.7205 14.9866 65.8467 14.675 67.0902 14.675C68.1057 14.675 69.0148 14.891 69.8133 15.3271C70.3871 15.6207 70.8816 16.0011 71.2966 16.4641V15.3138C71.2966 15.1132 71.4592 14.9506 71.6598 14.9506H73.7649C73.9655 14.9506 74.1281 15.1132 74.1281 15.3138V28.0276ZM67.5044 26.0011C68.6987 26.0011 69.649 25.6021 70.3708 24.8099C71.0952 23.9964 71.4619 22.9588 71.4619 21.6845C71.4619 20.8028 71.2914 20.0464 70.9559 19.4105C70.6374 18.756 70.177 18.2505 69.5791 17.8987C68.981 17.5293 68.28 17.3403 67.4768 17.3403C66.6746 17.3403 65.9667 17.5262 65.3498 17.896C64.7484 18.2674 64.2701 18.7815 63.9143 19.4399C63.5788 20.0763 63.4091 20.814 63.4091 21.6569C63.4091 22.5177 63.579 23.2735 63.9143 23.9282L64.0529 24.1615C64.3924 24.6912 64.8334 25.1178 65.3764 25.4436C65.9938 25.8141 66.7015 26.0011 67.5044 26.0011Z" fill="#1F2937"/>
<path fill-rule="evenodd" clip-rule="evenodd" d="M85.6604 28.0274C85.6604 28.228 85.4978 28.3906 85.2972 28.3906H83.2197C83.0191 28.3906 82.8565 28.228 82.8565 28.0274V9.97198C82.8565 9.77138 83.0191 9.60875 83.2197 9.60876L85.2972 9.6088C85.4978 9.6088 85.6604 9.77143 85.6604 9.97203V28.0274Z" fill="#1F2937"/>
<path fill-rule="evenodd" clip-rule="evenodd" d="M77.0822 28.0272C77.0822 28.2278 77.2448 28.3904 77.4454 28.3904H79.5229C79.7235 28.3904 79.8862 28.2278 79.8862 28.0272V15.3134C79.8862 15.1128 79.7235 14.9501 79.5229 14.9501H77.4454C77.2448 14.9501 77.0822 15.1128 77.0822 15.3134V28.0272Z" fill="#1F2937"/>
<path fill-rule="evenodd" clip-rule="evenodd" d="M79.7328 12.1517C80.0573 11.8069 80.2178 11.3801 80.2178 10.8824C80.2178 10.4011 80.0555 9.991 79.7291 9.66459C79.4028 9.31978 78.9835 9.14852 78.4847 9.14844C77.9857 9.14844 77.5658 9.31964 77.2393 9.66459C76.9129 9.991 76.7507 10.4011 76.7507 10.8824C76.7507 11.3801 76.9148 11.8106 77.2393 12.1554C77.5669 12.483 77.9871 12.6431 78.4847 12.6431C78.9821 12.643 79.4052 12.4792 79.7328 12.1517Z" fill="#1F2937"/>
<path fill-rule="evenodd" clip-rule="evenodd" d="M97.3297 30.4359C96.593 31.1201 95.577 31.471 94.2612 31.471C93.2675 31.471 92.4144 31.2887 91.7043 30.9337C90.9914 30.595 90.3753 30.0953 89.8555 29.4321C89.796 29.3569 89.684 29.351 89.6167 29.4192L88.015 31.0495C87.9615 31.1034 87.9539 31.1884 87.9975 31.2506C88.6401 32.1766 89.4911 32.8948 90.5462 33.4034C91.6203 33.9122 92.8418 34.1648 94.2061 34.1648C95.5899 34.1648 96.8123 33.8923 97.8697 33.3446C98.9428 32.7985 99.7761 32.0441 100.363 31.0788C100.97 30.1112 101.272 28.9853 101.272 27.7072V14.9495C101.272 14.7489 101.109 14.5863 100.908 14.5863L98.8309 14.5862C98.6303 14.5862 98.4676 14.7488 98.4676 14.9494V16.4205C98.0643 15.9645 97.58 15.5893 97.0128 15.2991C96.1953 14.8809 95.2584 14.6746 94.2061 14.6746C92.9817 14.6746 91.8748 14.9755 90.8906 15.5811C89.9273 16.1667 89.1626 16.97 88.5973 17.9874L88.4944 18.1766C87.9958 19.1329 87.7477 20.2118 87.7477 21.4086C87.7478 22.685 88.031 23.8449 88.5973 24.883C89.1627 25.9007 89.9289 26.7054 90.8924 27.2912C91.8765 27.8777 92.9826 28.1701 94.2061 28.1701C95.2405 28.1701 96.1681 27.9627 96.9853 27.5447C97.5653 27.2479 98.0588 26.8671 98.4676 26.4058V27.7072C98.4676 28.8655 98.0828 29.7704 97.3297 30.4359ZM96.7511 25.0006C96.171 25.3346 95.4898 25.5039 94.703 25.5039C93.8972 25.5039 93.187 25.3336 92.5685 24.9978C91.97 24.6445 91.4942 24.1603 91.1404 23.5421C90.8048 22.9238 90.6354 22.214 90.6353 21.4086C90.6353 20.6028 90.8039 19.9016 91.1386 19.3026C91.4931 18.6827 91.9735 18.2059 92.5731 17.8708C93.1716 17.5187 93.8709 17.3399 94.6754 17.3399C95.4801 17.3399 96.172 17.5207 96.7511 17.8717C97.3314 18.2058 97.7822 18.6851 98.1002 19.3035C98.4347 19.9021 98.6054 20.6112 98.6054 21.4361C98.6054 22.2613 98.4443 22.9809 98.1269 23.599C97.8099 24.1978 97.3508 24.6654 96.7511 25.0006Z" fill="#1F2937"/>
<path d="M107.031 16.151C107.837 15.1637 108.978 14.6751 110.436 14.6751C111.116 14.6751 111.736 14.7978 112.292 15.0461C112.853 15.2785 113.371 15.673 113.844 16.2217C113.897 16.2836 113.894 16.3768 113.837 16.4357L112.207 18.1208C112.144 18.1859 112.04 18.1851 111.978 18.1191C111.715 17.8395 111.431 17.6423 111.124 17.5231C110.815 17.4028 110.448 17.3403 110.021 17.3403C109.138 17.3404 108.425 17.6217 107.869 18.1779C107.32 18.7266 107.031 19.5723 107.031 20.7458V28.0276C107.031 28.2282 106.868 28.3908 106.668 28.3908H104.59C104.39 28.3908 104.227 28.2282 104.227 28.0276V14.9525C104.227 14.7519 104.39 14.5893 104.59 14.5893L106.668 14.5891C106.868 14.589 107.031 14.7517 107.031 14.9523V16.151Z" fill="#1F2937"/>
<path fill-rule="evenodd" clip-rule="evenodd" d="M114.968 28.028C114.968 28.2286 115.13 28.3913 115.331 28.3913H117.408C117.609 28.3913 117.772 28.2286 117.772 28.028V15.3142C117.772 15.1136 117.609 14.951 117.408 14.951H115.331C115.13 14.951 114.968 15.1136 114.968 15.3142V28.028Z" fill="#1F2937"/>
<path fill-rule="evenodd" clip-rule="evenodd" d="M117.617 12.1523C117.942 11.8075 118.103 11.3807 118.103 10.883C118.103 10.4017 117.94 9.99159 117.614 9.66518C117.287 9.32045 116.868 9.14902 116.369 9.14902C115.87 9.14905 115.451 9.3204 115.125 9.66518C114.798 9.99158 114.636 10.4017 114.636 10.883C114.636 11.3807 114.8 11.8112 115.125 12.156C115.452 12.4834 115.872 12.6436 116.369 12.6436C116.867 12.6436 117.29 12.48 117.617 12.1523Z" fill="#1F2937"/>
<path fill-rule="evenodd" clip-rule="evenodd" d="M130.687 28.0275C130.687 28.2281 130.849 28.3907 131.05 28.3907H133.155C133.356 28.3907 133.518 28.2281 133.518 28.0275V9.97297C133.518 9.77237 133.356 9.60974 133.155 9.60974L131.05 9.60971C130.849 9.60971 130.687 9.77233 130.687 9.97294V16.4943C130.266 16.0172 129.762 15.627 129.176 15.3269C128.36 14.8913 127.451 14.6749 126.453 14.6749C125.209 14.6749 124.093 14.9857 123.108 15.6107C122.127 16.2332 121.343 17.0756 120.759 18.1291C120.193 19.1856 119.913 20.3719 119.913 21.6843C119.913 22.9969 120.195 24.1856 120.761 25.2423C121.344 26.296 122.129 27.1371 123.11 27.7597C124.094 28.3657 125.21 28.6671 126.453 28.6671C127.469 28.6671 128.39 28.4586 129.207 28.0408C129.78 27.7343 130.272 27.3455 130.687 26.879V28.0275ZM128.937 25.4462C128.358 25.8144 127.67 26.0009 126.867 26.0009C126.064 26.0009 125.355 25.8139 124.738 25.4434C124.212 25.1182 123.78 24.6918 123.443 24.1622L123.304 23.928C122.969 23.2733 122.799 22.5175 122.799 21.6568C122.799 20.8138 122.969 20.0761 123.304 19.4397C123.66 18.7813 124.139 18.2681 124.741 17.8967C125.339 17.5274 126.036 17.3402 126.839 17.3401C127.643 17.3401 128.332 17.5285 128.91 17.8967C129.512 18.2683 129.982 18.7746 130.319 19.413C130.672 20.0483 130.852 20.8038 130.852 21.6843C130.852 22.5272 130.682 23.275 130.346 23.9308C130.009 24.5692 129.539 25.0746 128.937 25.4462Z" fill="#1F2937"/>
<path fill-rule="evenodd" clip-rule="evenodd" d="M142.754 17.7269C143.063 17.8935 143.339 18.0994 143.582 18.3445L143.615 18.3785C143.668 18.4355 143.755 18.4447 143.819 18.4001L145.708 17.0769C145.767 17.0357 145.781 16.9543 145.74 16.8957L145.71 16.8546C145.181 16.1336 144.504 15.5945 143.683 15.2398C142.868 14.8616 141.934 14.675 140.886 14.675C139.893 14.675 139.031 14.8347 138.306 15.159C137.6 15.4834 137.042 15.9528 136.638 16.5679C136.231 17.1688 136.031 17.8826 136.031 18.7014C136.031 19.5141 136.204 20.1874 136.559 20.7008C136.924 21.1998 137.385 21.5936 137.94 21.881C138.054 21.94 138.17 21.997 138.287 22.052C138.35 22.0818 138.414 22.111 138.478 22.1396C138.858 22.309 139.252 22.4574 139.656 22.5836C139.799 22.6226 139.94 22.6622 140.08 22.7025C140.151 22.7229 140.221 22.7434 140.291 22.7641L140.303 22.7677C140.672 22.8773 141.027 22.9908 141.364 23.1071C141.884 23.2684 142.304 23.4868 142.615 23.7463C142.92 23.9709 143.075 24.2892 143.075 24.7235C143.075 25.1438 142.895 25.4723 142.516 25.7209C142.127 25.9572 141.562 26.0846 140.803 26.0846C140.143 26.0846 139.542 25.9811 138.997 25.777L138.768 25.6833C138.295 25.4602 137.864 25.1489 137.475 24.7479C137.402 24.6726 137.286 24.6589 137.2 24.7188L135.347 26.0119C135.284 26.0562 135.271 26.1449 135.32 26.2049L135.347 26.238C135.757 26.7342 136.242 27.1689 136.795 27.5376C137.359 27.8951 137.976 28.1787 138.634 28.3853C139.311 28.5735 140.026 28.6672 140.775 28.6672C142.274 28.6672 143.483 28.3007 144.385 27.5523C145.308 26.8013 145.769 25.7795 145.769 24.5031C145.769 23.6707 145.588 22.9811 145.214 22.4495C144.869 21.9324 144.418 21.5201 143.863 21.2142C143.605 21.0716 143.34 20.9438 143.069 20.8308C143.003 20.803 142.935 20.7761 142.868 20.7501C142.745 20.7026 142.621 20.6581 142.495 20.6166C142.442 20.5991 142.388 20.582 142.335 20.5655C142.273 20.5465 142.211 20.5282 142.149 20.5107C141.833 20.412 141.522 20.3159 141.216 20.2224L140.996 20.1552C140.806 20.0975 140.619 20.0409 140.434 19.9853C139.911 19.823 139.496 19.6273 139.183 19.4012C138.897 19.1944 138.752 18.9034 138.752 18.5076C138.752 18.119 138.909 17.8284 139.232 17.6185C139.582 17.3852 140.1 17.2576 140.803 17.2576C141.464 17.2576 142.048 17.3826 142.557 17.6286L142.754 17.7269Z" fill="#1F2937"/>
<path fill-rule="evenodd" clip-rule="evenodd" d="M63.0546 11.8383C63.0546 12.0389 62.892 12.2015 62.6914 12.2015H56.797V28.028C56.797 28.2286 56.6344 28.3913 56.4338 28.3913H54.3515C54.1509 28.3913 53.9882 28.2286 53.9882 28.028V12.2015H48.0673C47.8667 12.2015 47.7041 12.0389 47.7041 11.8383V9.96844C47.7041 9.76783 47.8667 9.60521 48.0673 9.60521H62.6914C62.892 9.60521 63.0546 9.76783 63.0546 9.96844V11.8383Z" fill="#1F2937"/>
<path d="M0 2.85C0 1.27599 1.27599 0 2.85 0H35.15C36.724 0 38 1.27599 38 2.85V35.15C38 36.724 36.724 38 35.15 38H2.85C1.27599 38 0 36.724 0 35.15V2.85Z" fill="url(#paint0_linear_52940_10104)"/>
<path d="M29.4313 13.1518C29.4313 13.5009 29.1482 13.784 28.7991 13.784L19.3926 13.784C19.1411 13.784 18.8999 13.8839 18.7221 14.0617L14.0618 18.7218C13.884 18.8997 13.7841 19.1409 13.7841 19.3924L13.7841 28.7986C13.7841 29.1478 13.501 29.4308 13.1519 29.4308L9.20057 29.4308C8.85141 29.4308 8.56836 29.1478 8.56836 28.7986L8.56836 17.2319C8.56836 16.9804 8.66827 16.7392 8.84612 16.5614L16.5617 8.8461C16.7396 8.66827 16.9808 8.56836 17.2323 8.56836L28.7991 8.56836C29.1482 8.56836 29.4313 8.8514 29.4313 9.20055L29.4313 13.1518Z" fill="white"/>
<path d="M29.4313 18.9996L29.4313 27.1858C29.4313 27.453 29.3186 27.7078 29.1209 27.8875L28.4751 28.4746L27.7038 29.1815C27.5289 29.3419 27.3003 29.4308 27.063 29.4308L24.8478 29.4308C24.4986 29.4308 24.2155 29.1478 24.2155 28.7986L24.2155 24.2152L19.632 24.2152C19.2829 24.2152 18.9998 23.9321 18.9998 23.583L18.9998 21.2246C18.9998 20.9747 19.0984 20.7349 19.2743 20.5574L19.956 19.8688L20.5476 19.2773C20.7254 19.0995 20.9666 18.9996 21.2181 18.9996L29.4313 18.9996Z" fill="white"/>
<defs>
<linearGradient id="paint0_linear_52940_10104" x1="-8.95117" y1="-6.94791" x2="33.6071" y2="33.8598" gradientUnits="userSpaceOnUse">
<stop stop-color="#3758F9"/>
<stop offset="1" stop-color="#8AA7FF"/>
</linearGradient>
</defs>
</svg>
