<svg xmlns="http://www.w3.org/2000/svg" viewBox="0 0 800 600" width="800" height="600"><defs><linearGradient id="g" x1="0" y1="0" x2="1" y2="1"><stop offset="0.1" stop-color="#a78b71"/><stop offset="0.9" stop-color="#c9b8a0"/></linearGradient><radialGradient id="bg" cx="50%" cy="40%" r="75%"><stop offset="0" stop-color="#16120d"/><stop offset="1" stop-color="#0a0a0a"/></radialGradient></defs><rect width="800" height="600" fill="url(#bg)"/><g><path d="M545.7,409.3 L556.3,400.1 L567.1,391.3 L578.4,383.0 L590.2,375.5 L602.6,369.0 L615.6,363.8 L629.2,360.3 L643.1,358.5 L657.1,358.0 L671.1,358.0 L685.1,357.4 L698.9,355.3 L712.3,351.1 L724.8,344.8 L736.4,337.1 L747.3,328.3 L757.8,319.0 L768.0,309.5 L778.1,299.7 L788.1,289.9 L798.0,280.1 L808.0,270.2" stroke="url(#g)" stroke-width="1.59" fill="none" opacity="0.21"/><path d="M58.8,110.1 L69.3,100.9 L80.0,91.9 L91.1,83.3 L102.6,75.3 L114.7,68.3 L127.4,62.4 L140.8,58.1 L154.5,55.4 L168.5,54.3 L182.5,54.2 L196.5,54.1 L210.4,52.8 L224.1,49.7 L237.0,44.4 L249.1,37.3 L260.3,29.0 L271.0,20.0 L281.3,10.5 L291.5,0.8 L301.5,-8.9 L311.5,-18.8 L321.4,-28.6" stroke="url(#g)" stroke-width="1.65" fill="none" opacity="0.21"/><path d="M505.5,116.3 L519.5,116.3 L533.5,116.8 L547.3,119.0 L560.3,124.2 L570.4,133.9 L574.1,147.4 L569.9,160.7 L561.5,171.9 L552.0,182.1 L542.1,192.1 L532.3,202.0 L522.4,211.9 L512.5,221.8 L502.6,231.7 L492.7,241.6 L482.8,251.5 L472.9,261.4 L463.0,271.3 L453.1,281.2 L443.2,291.1 L433.3,301.0 L423.4,310.9" stroke="url(#g)" stroke-width="1.26" fill="none" opacity="0.22"/><path d="M325.0,302.9 L339.0,303.0 L352.9,304.1 L366.5,307.5 L378.6,314.5 L386.4,326.1 L386.5,340.1 L379.9,352.5 L370.7,363.1 L361.0,373.2 L351.2,383.1 L341.3,393.0 L331.4,402.9 L321.5,412.8 L311.6,422.7 L301.7,432.6 L291.8,442.5 L281.9,452.4 L272.0,462.3 L262.1,472.2 L252.2,482.1 L242.3,492.0 L232.4,501.9" stroke="url(#g)" stroke-width="1.96" fill="none" opacity="0.15"/><path d="M273.7,234.5 L262.9,243.5 L251.6,251.7 L239.3,258.5 L225.9,262.2 L212.0,260.2 L203.0,249.5 L206.4,235.9 L216.0,225.7 L225.9,215.8 L235.8,205.9 L245.7,196.0 L255.6,186.1 L265.5,176.2 L275.4,166.3 L285.3,156.4 L295.2,146.5 L305.1,136.6 L315.0,126.7 L324.9,116.8 L334.8,106.9 L344.7,97.0 L354.6,87.1" stroke="url(#g)" stroke-width="1.56" fill="none" opacity="0.17"/><path d="M761.9,275.8 L775.8,274.4 L789.4,271.0 L802.2,265.4 L814.2,258.1 L825.3,249.7 L836.0,240.6 L846.3,231.1 L856.4,221.4 L866.4,211.6 L876.3,201.8 L886.3,191.9 L896.2,182.0 L906.1,172.1 L916.0,162.2 L925.9,152.3 L935.8,142.4 L945.7,132.5 L955.6,122.6 L965.5,112.7 L975.4,102.8 L985.3,92.9 L995.2,83.0" stroke="url(#g)" stroke-width="1.07" fill="none" opacity="0.12"/><path d="M203.9,354.0 L213.5,364.2 L226.4,369.6 L240.3,371.6 L254.3,371.9 L268.3,371.9 L282.2,372.8 L295.9,375.8 L308.3,382.3 L316.9,393.4 L318.0,407.3 L312.0,420.0 L303.0,430.7 L293.3,440.8 L283.5,450.8 L273.6,460.7 L263.7,470.6 L253.8,480.5 L243.9,490.4 L234.0,500.3 L224.1,510.2 L214.2,520.1 L204.3,530.0" stroke="url(#g)" stroke-width="0.84" fill="none" opacity="0.26"/><path d="M354.2,496.1 L354.2,510.1 L345.5,521.1 L335.7,531.1 L325.8,541.0 L315.9,550.9 L306.0,560.8 L296.1,570.7 L286.2,580.6 L276.3,590.5 L266.4,600.4 L256.5,610.3 L246.6,620.2 L236.7,630.1 L226.8,640.0 L216.9,649.9 L207.0,659.8 L197.1,669.7 L187.2,679.6 L177.3,689.5 L167.4,699.4 L157.5,709.3 L147.6,719.2" stroke="url(#g)" stroke-width="1.74" fill="none" opacity="0.20"/><path d="M517.3,544.7 L530.0,538.7 L541.8,531.2 L552.8,522.5 L563.4,513.3 L573.6,503.8 L583.7,494.1 L593.7,484.3 L603.7,474.4 L613.6,464.6 L623.5,454.7 L633.4,444.8 L643.3,434.9 L653.2,425.0 L663.1,415.1 L673.0,405.2 L682.9,395.3 L692.8,385.4 L702.7,375.5 L712.6,365.6 L722.5,355.7 L732.4,345.8 L742.3,335.9" stroke="url(#g)" stroke-width="1.09" fill="none" opacity="0.21"/><path d="M617.1,362.2 L630.6,358.7 L644.5,356.8 L658.5,356.3 L672.5,356.3 L686.5,355.8 L700.3,353.7 L713.7,349.5 L726.2,343.3 L737.9,335.5 L748.8,326.8 L759.3,317.5 L769.5,308.0 L779.6,298.2 L789.6,288.4 L799.5,278.6 L809.5,268.7 L819.4,258.8 L829.3,248.9 L839.2,239.0 L849.1,229.1 L859.0,219.2 L868.9,209.3" stroke="url(#g)" stroke-width="1.81" fill="none" opacity="0.11"/><path d="M321.8,134.6 L322.6,120.6 L331.7,110.0 L341.6,100.1 L351.5,90.2 L361.4,80.3 L371.3,70.4 L381.2,60.5 L391.1,50.6 L401.0,40.7 L410.9,30.8 L420.8,20.9 L430.7,11.0 L440.6,1.1 L450.5,-8.8 L460.4,-18.7 L470.3,-28.6 L480.2,-38.5 L490.1,-48.4 L500.0,-58.3 L509.9,-68.2 L519.8,-78.1 L529.7,-88.0" stroke="url(#g)" stroke-width="0.95" fill="none" opacity="0.14"/><path d="M498.8,24.3 L494.6,37.7 L494.8,51.7 L500.8,64.3 L512.0,72.7 L525.4,76.6 L539.4,77.8 L553.4,77.9 L567.4,78.1 L581.3,79.6 L594.7,83.7 L606.1,91.8 L612.3,104.4 L610.4,118.2 L602.9,130.1 L593.5,140.5 L583.7,150.5 L573.9,160.4 L564.0,170.3 L554.1,180.2 L544.2,190.1 L534.3,200.0 L524.4,209.9" stroke="url(#g)" stroke-width="1.82" fill="none" opacity="0.09"/><path d="M606.7,90.3 L613.2,102.7 L611.7,116.6 L604.3,128.5 L595.0,138.9 L585.3,149.0 L575.4,158.9 L565.5,168.8 L555.6,178.7 L545.7,188.6 L535.8,198.5 L525.9,208.4 L516.0,218.3 L506.1,228.2 L496.2,238.1 L486.3,248.0 L476.4,257.9 L466.5,267.8 L456.6,277.7 L446.7,287.6 L436.8,297.5 L426.9,307.4 L417.0,317.3" stroke="url(#g)" stroke-width="0.53" fill="none" opacity="0.11"/><path d="M548.8,404.2 L558.9,394.6 L569.2,385.1 L579.7,375.8 L590.4,366.8 L601.4,358.2 L612.9,350.2 L625.0,343.1 L637.6,337.1 L650.9,332.7 L664.6,329.9 L678.6,328.7 L692.6,328.6 L706.6,328.5 L720.5,327.3 L734.2,324.3 L747.2,319.2 L759.4,312.2 L770.7,303.9 L781.4,294.9 L791.7,285.5 L801.9,275.8 L811.9,266.1" stroke="url(#g)" stroke-width="1.70" fill="none" opacity="0.24"/><path d="M6.9,597.1 L20.8,598.0 L34.8,598.1 L48.8,598.4 L62.7,600.1 L76.0,604.6 L87.0,613.3 L92.3,626.2 L89.5,640.0 L81.6,651.5 L72.2,661.9 L62.4,671.9 L52.5,681.8 L42.6,691.7 L32.7,701.6 L22.8,711.5 L12.9,721.4 L3.0,731.3 L-6.9,741.2 L-16.8,751.1 L-26.7,761.0 L-36.6,770.9 L-46.5,780.8" stroke="url(#g)" stroke-width="1.14" fill="none" opacity="0.23"/><path d="M136.8,213.8 L124.0,208.0 L118.3,195.3 L121.2,181.6 L128.2,169.5 L136.8,158.4 L146.1,147.9 L155.7,137.7 L165.4,127.7 L175.3,117.7 L185.1,107.8 L195.0,97.9 L204.9,87.9 L214.8,78.0 L224.7,68.1 L234.6,58.2 L244.5,48.3 L254.4,38.4 L264.3,28.5 L274.2,18.6 L284.1,8.7 L294.0,-1.2 L303.9,-11.1" stroke="url(#g)" stroke-width="0.66" fill="none" opacity="0.12"/><path d="M363.6,441.6 L374.6,432.9 L386.4,425.5 L399.6,420.8 L413.6,422.0 L422.9,432.5 L419.5,446.1 L410.1,456.5 L400.3,466.5 L390.4,476.4 L380.5,486.3 L370.6,496.2 L360.7,506.1 L350.8,516.0 L340.9,525.9 L331.0,535.8 L321.1,545.7 L311.2,555.6 L301.3,565.5 L291.4,575.4 L281.5,585.3 L271.6,595.2 L261.7,605.1" stroke="url(#g)" stroke-width="1.86" fill="none" opacity="0.14"/><path d="M681.5,172.1 L679.3,185.9 L670.1,196.5 L660.3,206.4 L650.4,216.4 L640.5,226.3 L630.6,236.2 L620.7,246.1 L610.8,256.0 L600.9,265.9 L591.0,275.7 L581.1,285.6 L571.2,295.5 L561.3,305.4 L551.4,315.3 L541.5,325.2 L531.6,335.1 L521.7,345.0 L511.8,354.9 L501.9,364.8 L492.0,374.7 L482.1,384.6 L472.2,394.5" stroke="url(#g)" stroke-width="2.00" fill="none" opacity="0.15"/><path d="M494.5,595.2 L501.0,582.8 L509.4,571.6 L518.6,561.0 L528.1,550.8 L537.9,540.7 L547.7,530.7 L557.5,520.8 L567.4,510.9 L577.3,501.0 L587.2,491.1 L597.1,481.2 L607.0,471.3 L616.9,461.4 L626.8,451.5 L636.7,441.6 L646.6,431.7 L656.5,421.8 L666.4,411.9 L676.3,402.0 L686.2,392.1 L696.1,382.2 L706.0,372.3" stroke="url(#g)" stroke-width="1.82" fill="none" opacity="0.24"/><path d="M512.2,21.2 L512.9,35.2 L519.6,47.5 L531.1,55.5 L544.6,59.0 L558.6,60.0 L572.6,60.0 L586.6,60.3 L600.5,62.0 L613.8,66.5 L624.8,75.1 L630.3,88.0 L627.6,101.7 L619.8,113.3 L610.4,123.7 L600.6,133.7 L590.7,143.6 L580.8,153.5 L570.9,163.4 L561.0,173.3 L551.1,183.2 L541.2,193.1 L531.3,203.0" stroke="url(#g)" stroke-width="0.67" fill="none" opacity="0.13"/><path d="M752.0,598.6 L763.2,607.1 L776.6,610.9 L790.6,612.1 L804.6,612.2 L818.6,612.4 L832.5,613.9 L845.9,618.0 L857.3,626.2 L863.4,638.7 L861.5,652.6 L853.9,664.4 L844.6,674.8 L834.8,684.8 L824.9,694.8 L815.0,704.7 L805.1,714.6 L795.2,724.5 L785.3,734.4 L775.4,744.3 L765.5,754.2 L755.6,764.1 L745.7,774.0" stroke="url(#g)" stroke-width="2.01" fill="none" opacity="0.12"/><path d="M362.7,340.7 L366.8,354.1 L362.9,367.6 L354.6,378.8 L345.0,389.1 L335.2,399.0 L325.3,409.0 L315.4,418.9 L305.5,428.8 L295.6,438.7 L285.7,448.6 L275.8,458.5 L265.9,468.4 L256.0,478.3 L246.1,488.2 L236.2,498.1 L226.3,508.0 L216.4,517.9 L206.5,527.8 L196.6,537.7 L186.7,547.6 L176.8,557.5 L166.9,567.4" stroke="url(#g)" stroke-width="1.95" fill="none" opacity="0.12"/><path d="M614.1,349.1 L626.2,342.0 L638.9,336.1 L652.2,331.7 L665.9,329.0 L679.9,327.9 L693.9,327.7 L707.9,327.6 L721.8,326.4 L735.5,323.4 L748.5,318.1 L760.6,311.1 L771.9,302.8 L782.6,293.8 L792.9,284.3 L803.0,274.7 L813.1,264.9 L823.0,255.1 L832.9,245.2 L842.9,235.3 L852.8,225.4 L862.7,215.5 L872.6,205.6" stroke="url(#g)" stroke-width="1.89" fill="none" opacity="0.24"/><path d="M243.3,159.8 L249.0,172.5 L262.7,175.6 L274.1,167.5 L284.0,157.7 L293.9,147.8 L303.8,137.9 L313.7,128.0 L323.6,118.1 L333.5,108.2 L343.4,98.3 L353.3,88.4 L363.2,78.5 L373.1,68.6 L383.0,58.7 L392.9,48.8 L402.8,38.9 L412.7,29.0 L422.6,19.1 L432.5,9.2 L442.4,-0.7 L452.3,-10.6 L462.2,-20.5" stroke="url(#g)" stroke-width="1.26" fill="none" opacity="0.24"/><path d="M574.9,88.2 L588.2,92.7 L599.1,101.5 L604.3,114.5 L601.4,128.2 L593.4,139.7 L584.0,150.1 L574.2,160.1 L564.3,170.0 L554.4,179.9 L544.5,189.8 L534.6,199.7 L524.7,209.6 L514.8,219.5 L504.9,229.4 L495.0,239.3 L485.1,249.2 L475.2,259.1 L465.3,269.0 L455.4,278.9 L445.5,288.8 L435.6,298.7 L425.7,308.6" stroke="url(#g)" stroke-width="1.24" fill="none" opacity="0.06"/><path d="M619.7,568.4 L625.2,581.3 L638.8,584.7 L650.3,576.7 L660.2,566.8 L670.1,556.9 L680.0,547.0 L689.9,537.1 L699.8,527.2 L709.7,517.3 L719.6,507.4 L729.5,497.5 L739.4,487.6 L749.3,477.7 L759.2,467.8 L769.1,457.9 L779.0,448.0 L788.9,438.1 L798.8,428.2 L808.7,418.3 L818.6,408.4 L828.5,398.5 L838.4,388.6" stroke="url(#g)" stroke-width="1.60" fill="none" opacity="0.28"/><path d="M411.6,392.0 L421.7,382.3 L432.1,372.9 L442.9,364.0 L454.5,356.3 L467.5,350.8 L481.4,350.6 L492.4,359.2 L491.5,373.2 L482.6,384.0 L472.8,394.0 L462.9,403.9 L453.0,413.8 L443.1,423.7 L433.2,433.6 L423.3,443.5 L413.4,453.4 L403.5,463.3 L393.6,473.2 L383.7,483.1 L373.8,493.0 L363.9,502.9 L354.0,512.8" stroke="url(#g)" stroke-width="1.08" fill="none" opacity="0.23"/><path d="M469.9,526.5 L483.9,525.5 L497.9,525.4 L511.9,525.2 L525.8,523.9 L539.4,520.5 L552.3,515.1 L564.3,507.9 L575.5,499.4 L586.1,490.4 L596.4,480.9 L606.5,471.2 L616.5,461.4 L626.5,451.6 L636.4,441.7 L646.4,431.8 L656.3,421.9 L666.2,412.0 L676.1,402.1 L686.0,392.2 L695.9,382.3 L705.8,372.4 L715.7,362.5" stroke="url(#g)" stroke-width="0.80" fill="none" opacity="0.16"/><path d="M758.4,363.0 L750.9,351.2 L752.4,337.2 L758.9,324.9 L767.3,313.7 L776.5,303.1 L786.1,292.9 L795.8,282.8 L805.6,272.8 L815.5,262.9 L825.3,252.9 L835.2,243.0 L845.1,233.1 L855.0,223.2 L864.9,213.3 L874.8,203.4 L884.7,193.5 L894.6,183.6 L904.5,173.7 L914.4,163.8 L924.3,153.9 L934.2,144.0 L944.1,134.1" stroke="url(#g)" stroke-width="1.27" fill="none" opacity="0.15"/><path d="M747.6,470.7 L760.8,465.9 L770.8,456.2 L780.7,446.3 L790.6,436.4 L800.5,426.5 L810.4,416.6 L820.3,406.7 L830.2,396.8 L840.1,386.9 L850.0,377.0 L859.9,367.1 L869.8,357.2 L879.7,347.3 L889.6,337.4 L899.5,327.5 L909.4,317.6 L919.3,307.7 L929.2,297.8 L939.1,287.9 L949.0,278.0 L958.9,268.1 L968.8,258.2" stroke="url(#g)" stroke-width="1.85" fill="none" opacity="0.24"/><path d="M266.9,23.8 L277.3,14.4 L287.5,4.7 L297.5,-5.0 L307.5,-14.8 L317.4,-24.7 L327.4,-34.6 L337.3,-44.5 L347.2,-54.4 L357.1,-64.3 L367.0,-74.2 L376.9,-84.1 L386.8,-94.0 L396.7,-103.9 L406.6,-113.8 L416.5,-123.7 L426.4,-133.6 L436.3,-143.5 L446.2,-153.4 L456.1,-163.3 L466.0,-173.2 L475.9,-183.1 L485.8,-193.0" stroke="url(#g)" stroke-width="1.21" fill="none" opacity="0.08"/><path d="M229.4,520.2 L215.6,522.4 L204.4,530.7 L194.2,540.3 L184.2,550.1 L174.3,560.0 L164.4,569.9 L154.5,579.8 L144.6,589.7 L134.7,599.6 L124.8,609.5 L114.9,619.4 L105.0,629.3 L95.1,639.2 L85.2,649.1 L75.3,659.0 L65.4,668.9 L55.5,678.8 L45.6,688.7 L35.7,698.6 L25.8,708.5 L15.9,718.4 L6.0,728.3" stroke="url(#g)" stroke-width="2.10" fill="none" opacity="0.11"/><path d="M15.9,312.9 L11.7,299.5 L15.6,286.0 L23.0,274.2 L31.8,263.2 L41.1,252.8 L50.7,242.7 L60.5,232.6 L70.3,222.7 L80.2,212.7 L90.1,202.8 L99.9,192.9 L109.8,183.0 L119.7,173.1 L129.6,163.2 L139.5,153.3 L149.4,143.4 L159.3,133.5 L169.2,123.6 L179.1,113.7 L189.0,103.8 L198.9,93.9 L208.8,84.0" stroke="url(#g)" stroke-width="0.98" fill="none" opacity="0.25"/><path d="M428.8,479.5 L421.1,467.8 L407.4,464.9 L395.3,472.0 L385.2,481.6 L375.3,491.5 L365.4,501.4 L355.5,511.3 L345.6,521.2 L335.7,531.1 L325.8,541.0 L315.9,550.9 L306.0,560.8 L296.1,570.7 L286.2,580.6 L276.3,590.5 L266.4,600.4 L256.5,610.3 L246.6,620.2 L236.7,630.1 L226.8,640.0 L216.9,649.9 L207.0,659.8" stroke="url(#g)" stroke-width="0.89" fill="none" opacity="0.15"/><path d="M407.0,82.2 L393.0,80.8 L383.2,70.8 L385.7,57.0 L395.1,46.6 L405.0,36.7 L414.9,26.8 L424.8,16.9 L434.7,7.0 L444.6,-2.9 L454.5,-12.8 L464.4,-22.7 L474.3,-32.6 L484.2,-42.5 L494.1,-52.4 L504.0,-62.3 L513.9,-72.2 L523.8,-82.1 L533.6,-92.0 L543.5,-101.9 L553.4,-111.8 L563.3,-121.7 L573.2,-131.6" stroke="url(#g)" stroke-width="1.78" fill="none" opacity="0.27"/><path d="M214.6,440.3 L228.3,443.3 L240.7,449.7 L249.3,460.8 L250.5,474.7 L244.5,487.4 L235.6,498.2 L225.9,508.3 L216.1,518.2 L206.2,528.1 L196.3,538.0 L186.4,547.9 L176.5,557.8 L166.6,567.7 L156.7,577.6 L146.8,587.5 L136.9,597.4 L127.0,607.3 L117.1,617.2 L107.2,627.1 L97.3,637.0 L87.4,646.9 L77.5,656.8" stroke="url(#g)" stroke-width="1.91" fill="none" opacity="0.28"/><path d="M217.1,296.8 L208.7,308.0 L201.4,319.9 L196.4,333.0 L195.1,346.9 L199.5,360.2 L209.5,370.0 L222.6,375.0 L236.5,376.7 L250.5,376.9 L264.5,377.0 L278.4,378.0 L292.1,381.3 L304.2,388.2 L312.3,399.7 L312.6,413.7 L306.2,426.1 L297.1,436.8 L287.4,446.8 L277.5,456.8 L267.6,466.7 L257.7,476.6 L247.8,486.5" stroke="url(#g)" stroke-width="1.82" fill="none" opacity="0.24"/><path d="M575.1,180.4 L561.2,179.0 L549.2,186.3 L538.9,195.7 L528.8,205.5 L518.9,215.4 L509.0,225.3 L499.1,235.2 L489.2,245.1 L479.3,255.0 L469.4,264.9 L459.5,274.8 L449.6,284.7 L439.7,294.6 L429.8,304.5 L419.9,314.4 L410.0,324.3 L400.1,334.2 L390.2,344.1 L380.3,354.0 L370.4,363.9 L360.5,373.8 L350.6,383.7" stroke="url(#g)" stroke-width="2.03" fill="none" opacity="0.23"/><path d="M152.5,436.5 L166.2,439.6 L180.2,440.4 L194.2,440.4 L208.1,440.8 L222.0,442.8 L235.1,447.7 L245.6,457.0 L250.0,470.2 L246.4,483.8 L238.2,495.1 L228.7,505.4 L218.9,515.4 L209.0,525.3 L199.1,535.2 L189.2,545.1 L179.3,555.0 L169.4,564.9 L159.5,574.8 L149.6,584.7 L139.7,594.6 L129.8,604.5 L119.9,614.4" stroke="url(#g)" stroke-width="1.34" fill="none" opacity="0.08"/><path d="M421.3,361.4 L418.3,347.7 L406.6,340.1 L393.1,344.0 L382.2,352.7 L372.0,362.4 L362.1,372.2 L352.2,382.1 L342.3,392.0 L332.4,401.9 L322.5,411.8 L312.6,421.7 L302.7,431.6 L292.8,441.5 L282.9,451.4 L273.0,461.3 L263.1,471.2 L253.2,481.1 L243.3,491.0 L233.4,500.9 L223.5,510.8 L213.6,520.7 L203.7,530.6" stroke="url(#g)" stroke-width="1.35" fill="none" opacity="0.10"/><path d="M641.9,299.6 L648.8,287.4 L653.8,274.3 L655.4,260.4 L651.1,247.1 L639.5,239.3 L625.9,242.6 L615.2,251.6 L605.3,261.5 L595.4,271.4 L585.5,281.3 L575.6,291.2 L565.7,301.1 L555.8,311.0 L545.9,320.9 L536.0,330.8 L526.1,340.7 L516.2,350.6 L506.3,360.5 L496.4,370.4 L486.5,380.3 L476.6,390.2 L466.7,400.1" stroke="url(#g)" stroke-width="0.83" fill="none" opacity="0.27"/><path d="M230.3,123.9 L216.8,120.1 L208.8,108.6 L210.0,94.6 L216.4,82.2 L224.8,70.9 L233.9,60.3 L243.5,50.1 L253.2,40.0 L263.0,30.0 L272.8,20.1 L282.7,10.1 L292.6,0.2 L302.5,-9.7 L312.4,-19.6 L322.3,-29.5 L332.2,-39.4 L342.1,-49.3 L352.0,-59.2 L361.9,-69.1 L371.8,-79.0 L381.7,-88.9 L391.6,-98.8" stroke="url(#g)" stroke-width="2.05" fill="none" opacity="0.22"/><path d="M33.2,8.0 L46.1,13.5 L49.7,27.0 L42.2,38.8 L32.4,48.9 L22.5,58.8 L12.6,68.7 L2.7,78.6 L-7.2,88.5 L-17.1,98.4 L-27.0,108.3 L-36.9,118.2 L-46.8,128.1 L-56.7,138.0 L-66.6,147.9 L-76.5,157.8 L-86.4,167.7 L-96.3,177.6 L-106.2,187.5 L-116.1,197.4 L-126.0,207.3 L-135.9,217.2 L-145.8,227.1" stroke="url(#g)" stroke-width="1.08" fill="none" opacity="0.26"/><path d="M714.4,81.3 L720.0,68.5 L720.9,54.5 L713.5,42.6 L699.6,40.9 L687.6,48.0 L677.2,57.4 L667.2,67.2 L657.2,77.1 L647.3,87.0 L637.4,96.9 L627.5,106.8 L617.6,116.7 L607.7,126.6 L597.8,136.5 L587.9,146.4 L578.0,156.3 L568.1,166.2 L558.2,176.1 L548.3,186.0 L538.4,195.9 L528.5,205.8 L518.6,215.7" stroke="url(#g)" stroke-width="0.68" fill="none" opacity="0.14"/><path d="M543.6,15.3 L553.5,25.3 L566.5,30.5 L580.4,32.3 L594.3,32.5 L608.3,32.6 L622.3,33.6 L636.0,36.7 L648.2,43.4 L656.5,54.7 L657.2,68.7 L650.9,81.2 L641.9,91.9 L632.2,102.0 L622.3,112.0 L612.4,121.9 L602.5,131.8 L592.6,141.7 L582.7,151.6 L572.8,161.5 L562.9,171.4 L553.0,181.3 L543.1,191.2" stroke="url(#g)" stroke-width="1.83" fill="none" opacity="0.25"/><path d="M550.0,511.0 L562.8,505.3 L574.7,497.9 L585.8,489.4 L596.4,480.2 L606.6,470.7 L616.7,461.0 L626.7,451.2 L636.7,441.4 L646.6,431.5 L656.5,421.6 L666.5,411.7 L676.4,401.8 L686.3,392.0 L696.2,382.1 L706.1,372.2 L716.0,362.3 L725.9,352.4 L735.8,342.5 L745.7,332.6 L755.6,322.7 L765.5,312.8 L775.4,302.9" stroke="url(#g)" stroke-width="0.74" fill="none" opacity="0.09"/><path d="M303.6,515.5 L317.6,515.8 L327.9,525.2 L326.0,539.1 L316.9,549.7 L307.0,559.7 L297.1,569.6 L287.2,579.5 L277.3,589.4 L267.4,599.3 L257.5,609.2 L247.6,619.1 L237.7,629.0 L227.8,638.9 L217.9,648.8 L208.0,658.7 L198.1,668.6 L188.3,678.5 L178.4,688.4 L168.5,698.3 L158.6,708.2 L148.7,718.1 L138.8,728.0" stroke="url(#g)" stroke-width="0.88" fill="none" opacity="0.16"/><path d="M128.5,144.6 L141.5,139.5 L153.6,132.5 L164.9,124.2 L175.7,115.2 L186.0,105.8 L196.1,96.1 L206.2,86.4 L216.1,76.5 L226.1,66.7 L236.0,56.8 L245.9,46.9 L255.8,37.0 L265.7,27.1 L275.6,17.2 L285.5,7.3 L295.4,-2.6 L305.3,-12.5 L315.2,-22.4 L325.1,-32.3 L335.0,-42.2 L344.9,-52.1 L354.8,-62.0" stroke="url(#g)" stroke-width="0.58" fill="none" opacity="0.12"/><path d="M710.5,254.5 L722.8,247.9 L735.7,242.5 L749.2,238.8 L763.1,236.7 L777.1,236.1 L791.1,236.1 L805.1,235.7 L818.9,233.8 L832.4,229.9 L845.0,223.9 L856.8,216.3 L867.8,207.6 L878.3,198.4 L888.6,188.9 L898.7,179.2 L908.6,169.4 L918.6,159.5 L928.5,149.6 L938.4,139.8 L948.3,129.9 L958.2,120.0 L968.1,110.1" stroke="url(#g)" stroke-width="2.01" fill="none" opacity="0.16"/><path d="M57.9,355.6 L69.2,363.8 L82.3,359.0 L92.4,349.3 L102.3,339.4 L112.2,329.5 L122.1,319.6 L132.0,309.7 L141.9,299.8 L151.8,289.9 L161.7,280.0 L171.6,270.1 L181.5,260.2 L191.4,250.3 L201.3,240.4 L211.2,230.5 L221.1,220.6 L231.0,210.7 L240.9,200.8 L250.8,190.9 L260.7,181.0 L270.6,171.1 L280.5,161.2" stroke="url(#g)" stroke-width="0.54" fill="none" opacity="0.19"/><path d="M426.7,142.8 L438.6,150.2 L452.2,153.3 L466.2,154.1 L480.2,154.1 L494.2,154.5 L508.1,156.4 L521.2,161.3 L531.8,170.5 L536.3,183.7 L532.8,197.3 L524.7,208.6 L515.2,218.9 L505.4,228.9 L495.5,238.8 L485.6,248.7 L475.7,258.6 L465.8,268.5 L455.9,278.4 L446.0,288.3 L436.1,298.2 L426.2,308.1 L416.3,318.0" stroke="url(#g)" stroke-width="0.54" fill="none" opacity="0.21"/><path d="M745.3,345.9 L751.3,333.2 L759.5,321.9 L768.6,311.3 L778.1,301.0 L787.8,290.9 L797.6,280.9 L807.4,270.9 L817.3,261.0 L827.2,251.1 L837.1,241.2 L847.0,231.3 L856.8,221.4 L866.7,211.5 L876.6,201.6 L886.5,191.7 L896.4,181.8 L906.3,171.9 L916.2,162.0 L926.1,152.1 L936.0,142.2 L945.9,132.3 L955.8,122.4" stroke="url(#g)" stroke-width="0.52" fill="none" opacity="0.13"/><path d="M250.1,269.8 L244.4,282.6 L242.0,296.4 L244.9,310.1 L253.7,321.0 L266.3,327.1 L280.1,329.4 L294.1,329.9 L308.1,329.9 L322.1,330.6 L335.9,333.1 L348.6,339.0 L357.9,349.4 L360.4,363.2 L355.2,376.2 L346.5,387.2 L336.8,397.3 L327.0,407.3 L317.1,417.2 L307.2,427.1 L297.3,437.0 L287.4,446.9 L277.5,456.8" stroke="url(#g)" stroke-width="1.56" fill="none" opacity="0.14"/><path d="M443.9,130.6 L456.5,136.8 L470.3,139.1 L484.3,139.6 L498.3,139.6 L512.3,140.3 L526.0,142.8 L538.8,148.7 L548.2,159.0 L550.7,172.8 L545.5,185.8 L536.8,196.8 L527.2,207.0 L517.3,216.9 L507.5,226.8 L497.6,236.7 L487.7,246.6 L477.8,256.5 L467.9,266.4 L458.0,276.3 L448.1,286.2 L438.2,296.1 L428.3,306.0" stroke="url(#g)" stroke-width="2.05" fill="none" opacity="0.24"/><path d="M442.4,520.2 L454.4,512.9 L467.0,506.8 L480.2,502.1 L493.8,499.2 L507.8,497.8 L521.8,497.5 L535.8,497.5 L549.7,496.6 L563.5,493.8 L576.6,489.0 L588.8,482.2 L600.2,474.0 L611.0,465.1 L621.4,455.7 L631.6,446.1 L641.6,436.3 L651.6,426.5 L661.5,416.6 L671.4,406.8 L681.3,396.9 L691.2,387.0 L701.1,377.1" stroke="url(#g)" stroke-width="1.88" fill="none" opacity="0.10"/><path d="M544.9,521.3 L557.1,514.3 L568.4,506.1 L579.1,497.1 L589.5,487.7 L599.6,478.0 L609.7,468.3 L619.6,458.4 L629.6,448.6 L639.5,438.7 L649.4,428.8 L659.3,418.9 L669.2,409.0 L679.1,399.1 L689.0,389.2 L698.9,379.3 L708.8,369.4 L718.7,359.5 L728.6,349.6 L738.5,339.7 L748.4,329.8 L758.3,319.9 L768.2,310.0" stroke="url(#g)" stroke-width="1.97" fill="none" opacity="0.23"/><path d="M246.9,590.8 L255.0,602.2 L250.4,615.4 L240.9,625.7 L231.1,635.7 L221.2,645.6 L211.3,655.5 L201.4,665.4 L191.5,675.3 L181.6,685.2 L171.7,695.1 L161.8,705.0 L151.9,714.9 L142.0,724.8 L132.1,734.7 L122.2,744.6 L112.3,754.5 L102.4,764.4 L92.5,774.3 L82.6,784.2 L72.7,794.1 L62.8,804.0 L52.9,813.9" stroke="url(#g)" stroke-width="1.57" fill="none" opacity="0.17"/><path d="M236.0,107.7 L225.3,98.7 L223.4,84.8 L228.5,71.7 L236.3,60.2 L245.3,49.4 L254.7,39.0 L264.4,28.9 L274.2,18.9 L284.0,8.9 L293.9,-1.0 L303.8,-10.9 L313.6,-20.8 L323.5,-30.7 L333.4,-40.6 L343.3,-50.5 L353.2,-60.4 L363.1,-70.3 L373.0,-80.2 L382.9,-90.1 L392.8,-100.0 L402.7,-109.9 L412.6,-119.8" stroke="url(#g)" stroke-width="0.80" fill="none" opacity="0.08"/><path d="M307.4,9.7 L308.7,-4.2 L315.1,-16.6 L323.5,-27.9 L332.7,-38.4 L342.2,-48.7 L352.0,-58.8 L361.8,-68.7 L371.6,-78.7 L381.5,-88.6 L391.4,-98.5 L401.3,-108.4 L411.2,-118.3 L421.1,-128.2 L431.0,-138.1 L440.9,-148.0 L450.8,-157.9 L460.7,-167.8 L470.6,-177.7 L480.5,-187.6 L490.4,-197.5 L500.3,-207.4 L510.2,-217.3" stroke="url(#g)" stroke-width="1.60" fill="none" opacity="0.25"/><path d="M115.6,39.0 L122.0,26.5 L126.0,13.1 L125.9,-0.9 L119.2,-13.2 L105.8,-17.4 L93.3,-11.2 L83.1,-1.7 L73.1,8.2 L63.2,18.1 L53.3,28.0 L43.4,37.9 L33.5,47.8 L23.6,57.7 L13.7,67.6 L3.8,77.5 L-6.1,87.4 L-16.0,97.3 L-25.9,107.2 L-35.8,117.1 L-45.7,127.0 L-55.6,136.9 L-65.5,146.8" stroke="url(#g)" stroke-width="2.00" fill="none" opacity="0.18"/><path d="M10.1,556.1 L21.5,564.2 L35.0,567.9 L49.0,569.0 L63.0,569.0 L77.0,569.3 L90.9,570.9 L104.2,575.2 L115.4,583.6 L121.2,596.3 L118.9,610.1 L111.2,621.8 L101.8,632.2 L92.0,642.2 L82.2,652.1 L72.3,662.0 L62.4,671.9 L52.5,681.8 L42.6,691.7 L32.7,701.6 L22.8,711.5 L12.9,721.4 L3.0,731.3" stroke="url(#g)" stroke-width="0.76" fill="none" opacity="0.16"/><path d="M491.1,402.7 L478.3,397.1 L465.4,402.4 L455.0,411.8 L445.1,421.7 L435.2,431.6 L425.3,441.5 L415.4,451.4 L405.5,461.3 L395.6,471.2 L385.7,481.1 L375.8,491.0 L365.9,500.9 L356.0,510.8 L346.1,520.7 L336.2,530.6 L326.3,540.5 L316.4,550.4 L306.5,560.3 L296.6,570.2 L286.7,580.1 L276.8,590.0 L266.9,599.9" stroke="url(#g)" stroke-width="1.87" fill="none" opacity="0.27"/><path d="M109.6,280.7 L106.8,294.4 L111.3,307.6 L124.4,312.5 L136.4,305.2 L146.3,295.4 L156.2,285.5 L166.1,275.6 L176.0,265.7 L185.9,255.8 L195.8,245.9 L205.7,236.0 L215.6,226.1 L225.5,216.2 L235.4,206.3 L245.3,196.4 L255.2,186.5 L265.1,176.6 L275.0,166.7 L284.9,156.8 L294.8,146.9 L304.7,137.0 L314.6,127.1" stroke="url(#g)" stroke-width="1.30" fill="none" opacity="0.28"/><path d="M623.5,204.0 L636.1,209.9 L639.0,223.6 L631.2,235.2 L621.5,245.3 L611.6,255.2 L601.7,265.1 L591.8,275.0 L581.9,284.9 L572.0,294.8 L562.1,304.7 L552.2,314.6 L542.3,324.5 L532.4,334.4 L522.5,344.3 L512.6,354.2 L502.7,364.1 L492.8,374.0 L482.9,383.9 L473.0,393.8 L463.1,403.7 L453.2,413.6 L443.3,423.5" stroke="url(#g)" stroke-width="1.56" fill="none" opacity="0.14"/><path d="M536.4,128.1 L549.6,133.0 L560.1,142.2 L564.7,155.4 L561.1,169.0 L553.0,180.3 L543.5,190.6 L533.7,200.6 L523.8,210.5 L513.9,220.4 L504.0,230.3 L494.1,240.2 L484.2,250.1 L474.3,260.0 L464.4,269.9 L454.5,279.8 L444.6,289.7 L434.7,299.6 L424.8,309.5 L414.9,319.4 L405.0,329.3 L395.1,339.2 L385.2,349.1" stroke="url(#g)" stroke-width="0.51" fill="none" opacity="0.13"/><path d="M609.2,343.0 L619.2,333.1 L629.1,323.3 L639.2,313.6 L649.3,303.9 L659.5,294.3 L669.9,284.9 L680.4,275.7 L691.2,266.8 L702.4,258.4 L714.2,250.7 L726.4,244.0 L739.4,238.7 L752.8,234.9 L766.7,232.8 L780.7,232.1 L794.7,232.1 L808.7,231.7 L822.6,229.9 L836.0,226.0 L848.7,220.1 L860.5,212.5 L871.5,203.9" stroke="url(#g)" stroke-width="1.77" fill="none" opacity="0.11"/><path d="M185.5,359.1 L190.8,372.1 L201.6,381.1 L214.9,385.4 L228.8,386.8 L242.8,386.9 L256.8,387.0 L270.7,388.3 L284.2,392.1 L296.0,399.7 L302.9,411.8 L302.0,425.8 L294.8,437.9 L285.6,448.4 L275.8,458.4 L265.9,468.3 L256.1,478.2 L246.2,488.1 L236.3,498.0 L226.4,507.9 L216.5,517.8 L206.6,527.7 L196.7,537.6" stroke="url(#g)" stroke-width="1.31" fill="none" opacity="0.11"/><path d="M429.4,592.3 L443.4,592.2 L457.4,591.0 L471.0,587.9 L484.0,582.7 L496.1,575.6 L507.4,567.3 L518.1,558.3 L528.4,548.8 L538.5,539.2 L548.6,529.4 L558.5,519.6 L568.5,509.7 L578.4,499.8 L588.3,489.9 L598.2,480.0 L608.1,470.1 L618.0,460.2 L627.9,450.3 L637.8,440.4 L647.7,430.5 L657.6,420.6 L667.5,410.7" stroke="url(#g)" stroke-width="1.70" fill="none" opacity="0.16"/><path d="M77.5,573.7 L91.3,576.0 L104.2,581.5 L114.0,591.5 L117.2,605.1 L112.6,618.3 L104.1,629.4 L94.5,639.6 L84.7,649.6 L74.8,659.5 L64.9,669.4 L55.0,679.3 L45.1,689.2 L35.2,699.1 L25.3,709.0 L15.4,718.9 L5.5,728.8 L-4.4,738.7 L-14.3,748.6 L-24.2,758.5 L-34.1,768.4 L-44.0,778.3 L-53.9,788.2" stroke="url(#g)" stroke-width="1.87" fill="none" opacity="0.24"/><path d="M365.4,173.5 L368.4,187.2 L377.4,197.9 L390.1,203.9 L403.9,206.1 L417.9,206.5 L431.9,206.6 L445.9,207.3 L459.6,209.9 L472.3,215.9 L481.5,226.5 L483.6,240.3 L478.3,253.2 L469.5,264.1 L459.9,274.3 L450.0,284.2 L440.1,294.2 L430.2,304.1 L420.3,314.0 L410.5,323.9 L400.6,333.8 L390.7,343.7 L380.8,353.6" stroke="url(#g)" stroke-width="2.02" fill="none" opacity="0.22"/><path d="M729.4,334.6 L741.9,328.2 L753.4,320.3 L764.3,311.5 L774.8,302.2 L785.0,292.6 L795.0,282.8 L805.0,273.0 L815.0,263.2 L824.9,253.3 L834.8,243.4 L844.7,233.5 L854.6,223.6 L864.5,213.7 L874.4,203.8 L884.3,193.9 L894.2,184.0 L904.1,174.1 L914.0,164.2 L923.9,154.3 L933.8,144.4 L943.7,134.5 L953.6,124.6" stroke="url(#g)" stroke-width="1.14" fill="none" opacity="0.25"/><path d="M526.0,133.6 L539.5,137.4 L551.1,145.2 L557.9,157.5 L556.6,171.4 L549.3,183.4 L540.1,193.9 L530.3,203.9 L520.4,213.9 L510.5,223.8 L500.6,233.7 L490.7,243.6 L480.8,253.5 L470.9,263.4 L461.0,273.3 L451.1,283.2 L441.2,293.1 L431.3,303.0 L421.4,312.9 L411.5,322.8 L401.6,332.7 L391.7,342.6 L381.8,352.5" stroke="url(#g)" stroke-width="1.97" fill="none" opacity="0.19"/><path d="M687.3,391.0 L697.2,381.1 L707.1,371.2 L717.0,361.3 L726.8,351.4 L736.7,341.5 L746.6,331.6 L756.5,321.7 L766.4,311.8 L776.3,301.9 L786.2,292.0 L796.1,282.1 L806.0,272.2 L815.9,262.3 L825.8,252.4 L835.7,242.5 L845.6,232.6 L855.5,222.7 L865.4,212.8 L875.3,202.9 L885.2,193.0 L895.1,183.1 L905.0,173.2" stroke="url(#g)" stroke-width="1.81" fill="none" opacity="0.24"/><path d="M202.3,321.1 L198.2,334.5 L198.4,348.5 L204.7,361.0 L215.9,369.3 L229.4,373.1 L243.4,374.2 L257.4,374.3 L271.4,374.5 L285.3,376.1 L298.6,380.2 L309.9,388.5 L315.9,401.2 L313.8,415.0 L306.2,426.8 L296.9,437.2 L287.1,447.2 L277.2,457.1 L267.3,467.0 L257.4,476.9 L247.5,486.8 L237.6,496.7 L227.7,506.6" stroke="url(#g)" stroke-width="0.91" fill="none" opacity="0.25"/><path d="M718.0,302.7 L732.0,302.6 L745.9,301.6 L759.6,298.6 L772.7,293.5 L784.8,286.6 L796.2,278.4 L806.9,269.4 L817.2,259.9 L827.4,250.3 L837.4,240.5 L847.4,230.7 L857.3,220.8 L867.2,211.0 L877.1,201.1 L887.0,191.2 L896.9,181.3 L906.8,171.4 L916.7,161.5 L926.6,151.6 L936.5,141.7 L946.4,131.8 L956.3,121.9" stroke="url(#g)" stroke-width="0.61" fill="none" opacity="0.27"/><path d="M797.0,562.1 L809.4,568.4 L823.2,570.9 L837.2,571.5 L851.2,571.5 L865.2,572.1 L879.0,574.5 L891.8,580.2 L901.4,590.3 L904.3,604.0 L899.4,617.1 L890.8,628.2 L881.2,638.4 L871.3,648.3 L861.5,658.2 L851.6,668.1 L841.7,678.0 L831.8,687.9 L821.9,697.8 L812.0,707.7 L802.1,717.6 L792.2,727.5 L782.3,737.4" stroke="url(#g)" stroke-width="1.63" fill="none" opacity="0.19"/><path d="M170.9,263.6 L183.6,257.8 L193.7,248.0 L203.6,238.1 L213.5,228.2 L223.4,218.3 L233.3,208.4 L243.2,198.5 L253.1,188.6 L263.0,178.7 L272.9,168.8 L282.8,158.9 L292.7,149.0 L302.6,139.1 L312.5,129.2 L322.4,119.3 L332.3,109.4 L342.2,99.5 L352.1,89.6 L362.0,79.7 L371.9,69.8 L381.7,59.9 L391.6,50.0" stroke="url(#g)" stroke-width="1.99" fill="none" opacity="0.18"/><path d="M632.5,36.8 L645.2,42.8 L654.5,53.3 L656.7,67.1 L651.4,80.1 L642.7,91.0 L633.0,101.1 L623.2,111.1 L613.3,121.0 L603.4,130.9 L593.5,140.8 L583.6,150.7 L573.7,160.6 L563.8,170.5 L553.9,180.4 L544.0,190.3 L534.1,200.2 L524.2,210.1 L514.3,220.0 L504.4,229.9 L494.5,239.8 L484.6,249.7 L474.7,259.6" stroke="url(#g)" stroke-width="1.94" fill="none" opacity="0.11"/><path d="M554.3,525.2 L563.9,515.0 L573.6,504.9 L583.4,495.0 L593.3,485.0 L603.2,475.1 L613.0,465.2 L622.9,455.3 L632.8,445.4 L642.7,435.5 L652.6,425.6 L662.5,415.7 L672.4,405.8 L682.3,395.9 L692.2,386.0 L702.1,376.1 L712.0,366.2 L721.9,356.3 L731.8,346.4 L741.7,336.5 L751.6,326.6 L761.5,316.7 L771.4,306.8" stroke="url(#g)" stroke-width="1.46" fill="none" opacity="0.18"/><path d="M228.5,256.1 L215.1,251.9 L209.0,239.3 L215.2,226.7 L225.0,216.7 L234.9,206.8 L244.8,196.9 L254.7,187.0 L264.6,177.1 L274.5,167.2 L284.4,157.3 L294.3,147.4 L304.2,137.5 L314.1,127.6 L324.0,117.7 L333.9,107.8 L343.8,97.9 L353.7,88.0 L363.6,78.1 L373.5,68.2 L383.4,58.3 L393.3,48.4 L403.2,38.5" stroke="url(#g)" stroke-width="1.51" fill="none" opacity="0.28"/><path d="M683.8,220.1 L674.2,209.9 L660.2,209.9 L648.9,218.1 L638.9,227.9 L628.9,237.8 L619.0,247.7 L609.1,257.6 L599.3,267.5 L589.4,277.4 L579.5,287.3 L569.6,297.2 L559.7,307.1 L549.8,317.0 L539.9,326.9 L530.0,336.8 L520.1,346.7 L510.2,356.6 L500.3,366.5 L490.4,376.4 L480.5,386.3 L470.6,396.2 L460.7,406.1" stroke="url(#g)" stroke-width="0.55" fill="none" opacity="0.11"/><path d="M188.6,238.3 L202.6,237.7 L213.1,228.5 L223.0,218.6 L232.9,208.7 L242.8,198.8 L252.7,188.9 L262.6,179.0 L272.5,169.1 L282.4,159.2 L292.3,149.3 L302.2,139.4 L312.1,129.5 L322.0,119.6 L331.9,109.7 L341.8,99.8 L351.7,89.9 L361.6,80.0 L371.5,70.1 L381.4,60.2 L391.3,50.3 L401.2,40.4 L411.1,30.5" stroke="url(#g)" stroke-width="0.57" fill="none" opacity="0.23"/><path d="M242.5,384.5 L256.5,384.6 L270.4,385.5 L284.1,388.7 L296.4,395.4 L304.6,406.8 L305.2,420.8 L298.9,433.3 L289.8,444.0 L280.1,454.1 L270.3,464.0 L260.4,473.9 L250.5,483.8 L240.6,493.7 L230.7,503.6 L220.8,513.5 L210.9,523.4 L201.0,533.3 L191.1,543.2 L181.2,553.1 L171.3,563.0 L161.4,572.9 L151.5,582.8" stroke="url(#g)" stroke-width="1.65" fill="none" opacity="0.27"/><path d="M431.3,87.3 L425.0,99.8 L421.6,113.4 L423.0,127.4 L430.5,139.2 L442.4,146.5 L456.0,149.6 L470.0,150.4 L484.0,150.4 L498.0,150.8 L511.9,152.8 L525.0,157.7 L535.5,166.9 L540.0,180.2 L536.4,193.7 L528.2,205.1 L518.7,215.3 L508.9,225.3 L499.0,235.2 L489.1,245.2 L479.2,255.1 L469.3,265.0 L459.4,274.9" stroke="url(#g)" stroke-width="2.03" fill="none" opacity="0.12"/><path d="M127.7,379.7 L116.6,388.3 L104.8,395.8 L91.9,401.1 L77.9,402.1 L65.7,395.2 L63.4,381.4 L71.6,370.1 L81.5,360.2 L91.4,350.3 L101.3,340.4 L111.2,330.5 L121.1,320.6 L131.0,310.7 L140.9,300.8 L150.8,290.9 L160.7,281.0 L170.6,271.1 L180.5,261.2 L190.4,251.3 L200.3,241.4 L210.2,231.5 L220.1,221.6" stroke="url(#g)" stroke-width="1.66" fill="none" opacity="0.14"/><path d="M779.1,371.3 L765.3,374.0 L751.9,370.1 L744.1,358.4 L745.4,344.5 L751.8,332.1 L760.2,320.8 L769.4,310.3 L778.9,300.0 L788.7,289.9 L798.5,279.9 L808.3,270.0 L818.2,260.1 L828.1,250.2 L838.0,240.3 L847.9,230.4 L857.8,220.5 L867.7,210.6 L877.6,200.7 L887.5,190.8 L897.4,180.9 L907.3,171.0 L917.2,161.1" stroke="url(#g)" stroke-width="0.72" fill="none" opacity="0.18"/><path d="M55.0,313.5 L41.9,318.3 L27.9,318.1 L16.4,310.1 L13.3,296.4 L17.8,283.2 L25.4,271.4 L34.3,260.6 L43.6,250.2 L53.3,240.1 L63.1,230.0 L72.9,220.1 L82.8,210.1 L92.6,200.2 L102.5,190.3 L112.4,180.4 L122.3,170.5 L132.2,160.6 L142.1,150.7 L152.0,140.8 L161.9,130.9 L171.8,121.0 L181.7,111.1" stroke="url(#g)" stroke-width="1.94" fill="none" opacity="0.08"/><path d="M189.9,301.4 L175.9,301.3 L164.7,293.0 L164.6,279.0 L173.5,268.2 L183.4,258.3 L193.3,248.4 L203.2,238.5 L213.1,228.6 L223.0,218.7 L232.9,208.8 L242.8,198.9 L252.7,189.0 L262.6,179.1 L272.5,169.2 L282.4,159.3 L292.3,149.4 L302.2,139.5 L312.1,129.6 L322.0,119.7 L331.9,109.8 L341.8,99.9 L351.7,90.0" stroke="url(#g)" stroke-width="2.07" fill="none" opacity="0.26"/><path d="M192.0,460.2 L205.8,462.7 L218.5,468.5 L228.1,478.7 L230.7,492.5 L225.7,505.6 L217.0,516.6 L207.4,526.7 L197.6,536.7 L187.7,546.6 L177.8,556.5 L167.9,566.4 L158.0,576.3 L148.1,586.2 L138.2,596.1 L128.3,606.0 L118.4,615.9 L108.5,625.8 L98.6,635.7 L88.7,645.6 L78.8,655.5 L68.9,665.4 L59.0,675.3" stroke="url(#g)" stroke-width="1.86" fill="none" opacity="0.24"/><path d="M515.8,113.2 L529.7,113.3 L543.7,114.5 L557.2,118.0 L569.1,125.4 L576.5,137.4 L575.9,151.3 L569.0,163.5 L559.8,174.1 L550.1,184.1 L540.2,194.1 L530.3,204.0 L520.4,213.9 L510.5,223.8 L500.6,233.7 L490.7,243.6 L480.8,253.5 L470.9,263.4 L461.0,273.3 L451.1,283.2 L441.2,293.1 L431.3,303.0 L421.4,312.9" stroke="url(#g)" stroke-width="0.97" fill="none" opacity="0.15"/><path d="M226.0,79.4 L232.1,66.8 L240.3,55.5 L249.5,44.9 L259.0,34.6 L268.7,24.5 L278.5,14.5 L288.3,4.6 L298.2,-5.3 L308.1,-15.2 L318.0,-25.2 L327.9,-35.1 L337.8,-45.0 L347.7,-54.9 L357.6,-64.8 L367.5,-74.7 L377.4,-84.6 L387.3,-94.5 L397.2,-104.4 L407.1,-114.3 L417.0,-124.2 L426.9,-134.1 L436.8,-144.0" stroke="url(#g)" stroke-width="1.07" fill="none" opacity="0.09"/><path d="M398.5,447.8 L401.2,461.5 L393.4,473.1 L383.6,483.1 L373.7,493.0 L363.8,502.9 L353.9,512.8 L344.0,522.7 L334.1,532.6 L324.2,542.5 L314.3,552.4 L304.4,562.3 L294.5,572.2 L284.6,582.1 L274.7,592.0 L264.8,601.9 L254.9,611.8 L245.0,621.7 L235.1,631.6 L225.2,641.5 L215.3,651.4 L205.4,661.3 L195.5,671.2" stroke="url(#g)" stroke-width="1.06" fill="none" opacity="0.28"/><path d="M126.4,433.3 L136.4,443.1 L149.5,448.1 L163.4,449.8 L177.4,450.0 L191.4,450.1 L205.4,451.1 L219.0,454.4 L231.2,461.3 L239.2,472.8 L239.5,486.8 L233.1,499.2 L224.0,509.8 L214.3,519.9 L204.4,529.9 L194.5,539.8 L184.6,549.7 L174.7,559.6 L164.8,569.5 L154.9,579.4 L145.0,589.3 L135.1,599.2 L125.2,609.1" stroke="url(#g)" stroke-width="1.67" fill="none" opacity="0.11"/><path d="M461.2,535.3 L475.2,534.3 L489.2,534.2 L503.2,534.0 L517.1,532.6 L530.7,529.3 L543.6,523.8 L555.6,516.6 L566.8,508.2 L577.4,499.1 L587.7,489.6 L597.8,479.9 L607.8,470.1 L617.8,460.3 L627.7,450.4 L637.7,440.5 L647.6,430.6 L657.5,420.7 L667.4,410.8 L677.3,400.9 L687.2,391.0 L697.1,381.1 L707.0,371.2" stroke="url(#g)" stroke-width="1.98" fill="none" opacity="0.07"/><path d="M649.8,3.3 L663.6,5.9 L676.2,11.9 L685.5,22.4 L687.6,36.3 L682.3,49.2 L673.5,60.1 L663.9,70.3 L654.1,80.2 L644.2,90.1 L634.3,100.0 L624.4,109.9 L614.5,119.8 L604.6,129.7 L594.7,139.6 L584.8,149.5 L574.9,159.4 L565.0,169.3 L555.1,179.2 L545.2,189.1 L535.3,199.0 L525.4,208.9 L515.5,218.8" stroke="url(#g)" stroke-width="1.80" fill="none" opacity="0.07"/><path d="M735.9,579.3 L734.8,593.2 L739.4,606.5 L749.6,616.0 L762.8,620.9 L776.7,622.5 L790.7,622.7 L804.7,622.8 L818.6,623.9 L832.2,627.2 L844.3,634.3 L852.1,646.0 L852.1,660.0 L845.5,672.3 L836.3,682.9 L826.6,693.0 L816.7,702.9 L806.9,712.8 L797.0,722.7 L787.1,732.6 L777.2,742.5 L767.3,752.4 L757.4,762.3" stroke="url(#g)" stroke-width="1.39" fill="none" opacity="0.19"/><path d="M534.9,504.3 L548.9,502.6 L562.4,499.0 L575.1,493.2 L587.0,485.7 L598.1,477.2 L608.6,468.0 L618.9,458.5 L629.0,448.8 L639.0,439.0 L648.9,429.1 L658.9,419.3 L668.8,409.4 L678.7,399.5 L688.6,389.6 L698.5,379.7 L708.4,369.8 L718.3,359.9 L728.2,350.0 L738.1,340.1 L748.0,330.2 L757.9,320.3 L767.8,310.4" stroke="url(#g)" stroke-width="1.65" fill="none" opacity="0.27"/><path d="M327.5,543.1 L316.0,551.0 L306.0,560.8 L296.1,570.7 L286.2,580.6 L276.3,590.5 L266.4,600.4 L256.5,610.3 L246.6,620.2 L236.7,630.1 L226.8,640.0 L216.9,649.9 L207.0,659.8 L197.1,669.7 L187.2,679.6 L177.3,689.5 L167.4,699.4 L157.5,709.3 L147.6,719.2 L137.7,729.1 L127.8,739.0 L117.9,748.9 L108.0,758.8" stroke="url(#g)" stroke-width="0.78" fill="none" opacity="0.17"/><path d="M418.3,297.9 L416.7,311.8 L409.2,323.7 L399.9,334.1 L390.1,344.1 L380.2,354.1 L370.3,364.0 L360.4,373.9 L350.5,383.8 L340.6,393.7 L330.7,403.6 L320.8,413.5 L310.9,423.4 L301.0,433.3 L291.1,443.2 L281.2,453.1 L271.3,463.0 L261.5,472.9 L251.6,482.8 L241.7,492.7 L231.8,502.6 L221.9,512.5 L212.0,522.4" stroke="url(#g)" stroke-width="1.26" fill="none" opacity="0.07"/><path d="M513.8,137.2 L527.6,139.5 L540.5,145.0 L550.4,154.9 L553.7,168.5 L549.2,181.7 L540.7,192.8 L531.1,203.0 L521.3,213.0 L511.4,222.9 L501.5,232.8 L491.6,242.7 L481.7,252.6 L471.8,262.5 L461.9,272.4 L452.0,282.3 L442.1,292.2 L432.2,302.1 L422.3,312.0 L412.4,321.9 L402.5,331.8 L392.6,341.7 L382.7,351.6" stroke="url(#g)" stroke-width="0.90" fill="none" opacity="0.17"/><path d="M112.0,403.8 L104.4,415.6 L98.6,428.4 L96.2,442.2 L99.1,455.9 L107.9,466.7 L120.5,472.9 L134.3,475.2 L148.3,475.7 L162.3,475.7 L176.3,476.4 L190.1,478.9 L202.8,484.8 L212.2,495.2 L214.6,508.9 L209.4,522.0 L200.7,532.9 L191.1,543.1 L181.2,553.0 L171.4,562.9 L161.5,572.8 L151.6,582.7 L141.7,592.6" stroke="url(#g)" stroke-width="1.43" fill="none" opacity="0.07"/><path d="M675.1,9.5 L685.2,19.2 L688.9,32.7 L684.7,46.0 L676.2,57.2 L666.7,67.4 L656.9,77.4 L647.0,87.3 L637.1,97.2 L627.2,107.1 L617.3,117.0 L607.4,126.9 L597.5,136.8 L587.6,146.7 L577.7,156.6 L567.8,166.5 L557.9,176.4 L548.0,186.3 L538.1,196.2 L528.2,206.1 L518.3,216.0 L508.4,225.9 L498.5,235.8" stroke="url(#g)" stroke-width="0.78" fill="none" opacity="0.24"/><path d="M247.7,309.3 L257.0,319.7 L269.8,325.3 L283.7,327.4 L297.7,327.8 L311.7,327.8 L325.7,328.6 L339.4,331.4 L351.9,337.7 L360.7,348.6 L362.3,362.5 L356.5,375.3 L347.6,386.1 L337.9,396.2 L328.1,406.2 L318.2,416.1 L308.3,426.0 L298.4,435.9 L288.5,445.8 L278.6,455.7 L268.7,465.6 L258.8,475.5 L248.9,485.4" stroke="url(#g)" stroke-width="1.96" fill="none" opacity="0.06"/><path d="M125.9,535.8 L139.3,540.1 L150.5,548.5 L156.3,561.2 L154.0,575.0 L146.3,586.7 L136.9,597.1 L127.1,607.1 L117.3,617.0 L107.4,626.9 L97.5,636.8 L87.6,646.7 L77.7,656.6 L67.8,666.5 L57.9,676.4 L48.0,686.3 L38.1,696.2 L28.2,706.1 L18.3,716.0 L8.4,725.9 L-1.5,735.8 L-11.4,745.7 L-21.3,755.6" stroke="url(#g)" stroke-width="0.94" fill="none" opacity="0.12"/><path d="M16.3,376.7 L15.3,390.7 L22.8,402.5 L36.8,403.0 L47.6,394.1 L57.5,384.2 L67.4,374.3 L77.3,364.4 L87.2,354.5 L97.1,344.6 L107.0,334.7 L116.9,324.8 L126.8,314.9 L136.7,305.0 L146.6,295.1 L156.5,285.2 L166.4,275.3 L176.3,265.4 L186.2,255.5 L196.1,245.6 L206.0,235.7 L215.9,225.8 L225.8,215.9" stroke="url(#g)" stroke-width="0.72" fill="none" opacity="0.21"/><path d="M312.6,13.8 L309.6,0.2 L314.0,-13.1 L321.7,-24.8 L330.5,-35.7 L339.9,-46.1 L349.5,-56.2 L359.3,-66.2 L369.2,-76.2 L379.0,-86.1 L388.9,-96.0 L398.8,-106.0 L408.7,-115.9 L418.6,-125.8 L428.5,-135.7 L438.4,-145.6 L448.3,-155.5 L458.2,-165.4 L468.1,-175.3 L478.0,-185.2 L487.9,-195.1 L497.8,-205.0 L507.7,-214.9" stroke="url(#g)" stroke-width="1.91" fill="none" opacity="0.11"/><path d="M18.3,49.6 L16.2,63.5 L7.1,74.1 L-2.7,84.0 L-12.6,93.9 L-22.5,103.8 L-32.4,113.7 L-42.3,123.6 L-52.2,133.5 L-62.1,143.4 L-72.0,153.3 L-81.9,163.2 L-91.8,173.1 L-101.7,183.0 L-111.6,192.9 L-121.5,202.8 L-131.4,212.7 L-141.3,222.6 L-151.2,232.5 L-161.1,242.4 L-171.0,252.3 L-180.9,262.2 L-190.8,272.1" stroke="url(#g)" stroke-width="1.95" fill="none" opacity="0.27"/><path d="M213.2,58.0 L226.4,53.2 L238.7,46.6 L250.2,38.5 L261.0,29.6 L271.4,20.3 L281.6,10.6 L291.6,0.9 L301.6,-8.9 L311.5,-18.8 L321.4,-28.7 L331.4,-38.6 L341.3,-48.5 L351.2,-58.4 L361.1,-68.3 L371.0,-78.2 L380.9,-88.0 L390.8,-97.9 L400.7,-107.8 L410.6,-117.7 L420.5,-127.6 L430.4,-137.5 L440.3,-147.4" stroke="url(#g)" stroke-width="1.05" fill="none" opacity="0.21"/><path d="M373.8,256.4 L387.8,256.5 L401.7,257.9 L415.2,261.7 L426.8,269.5 L433.6,281.8 L432.3,295.7 L425.1,307.7 L415.8,318.2 L406.0,328.2 L396.2,338.1 L386.3,348.0 L376.4,357.9 L366.5,367.8 L356.6,377.7 L346.7,387.6 L336.8,397.5 L326.9,407.4 L317.0,417.3 L307.1,427.2 L297.2,437.1 L287.3,447.0 L277.4,456.9" stroke="url(#g)" stroke-width="0.61" fill="none" opacity="0.25"/><path d="M692.8,196.5 L679.2,193.4 L667.0,200.3 L656.8,210.0 L646.9,219.8 L637.0,229.7 L627.1,239.6 L617.2,249.5 L607.3,259.4 L597.4,269.3 L587.5,279.2 L577.6,289.1 L567.7,299.0 L557.8,308.9 L547.9,318.8 L538.0,328.7 L528.1,338.6 L518.2,348.5 L508.3,358.4 L498.4,368.3 L488.5,378.2 L478.6,388.1 L468.7,398.0" stroke="url(#g)" stroke-width="1.64" fill="none" opacity="0.11"/><path d="M83.7,412.2 L70.0,414.8 L56.6,410.8 L50.2,398.3 L56.2,385.7 L66.0,375.7 L75.9,365.8 L85.8,355.9 L95.7,346.0 L105.6,336.1 L115.5,326.2 L125.4,316.3 L135.3,306.4 L145.2,296.5 L155.1,286.6 L165.0,276.7 L174.9,266.8 L184.8,256.9 L194.7,247.0 L204.6,237.1 L214.5,227.2 L224.4,217.3 L234.3,207.4" stroke="url(#g)" stroke-width="1.78" fill="none" opacity="0.26"/><path d="M78.0,270.9 L65.7,264.2 L60.9,251.1 L64.5,237.5 L71.8,225.6 L80.5,214.6 L89.8,204.2 L99.4,194.0 L109.2,184.0 L119.0,174.0 L128.9,164.0 L138.7,154.1 L148.6,144.2 L158.5,134.3 L168.4,124.4 L178.3,114.5 L188.2,104.6 L198.1,94.7 L208.0,84.8 L217.9,74.9 L227.8,65.0 L237.7,55.1 L247.6,45.2" stroke="url(#g)" stroke-width="1.75" fill="none" opacity="0.11"/><path d="M303.7,218.8 L299.3,232.1 L298.9,246.1 L304.5,258.9 L315.3,267.8 L328.7,272.0 L342.6,273.3 L356.6,273.5 L370.6,273.6 L384.5,275.0 L398.0,278.8 L409.7,286.5 L416.5,298.8 L415.3,312.7 L408.0,324.7 L398.7,335.2 L389.0,345.2 L379.1,355.2 L369.2,365.1 L359.3,375.0 L349.4,384.9 L339.5,394.8 L329.6,404.7" stroke="url(#g)" stroke-width="1.76" fill="none" opacity="0.21"/><path d="M673.3,436.5 L671.2,422.7 L676.2,409.6 L684.0,398.0 L692.9,387.2 L702.3,376.8 L712.0,366.7 L721.8,356.7 L731.6,346.7 L741.5,336.8 L751.4,326.9 L761.3,317.0 L771.1,307.1 L781.0,297.2 L790.9,287.3 L800.8,277.4 L810.7,267.5 L820.6,257.6 L830.5,247.7 L840.4,237.8 L850.3,227.9 L860.2,218.0 L870.1,208.1" stroke="url(#g)" stroke-width="0.80" fill="none" opacity="0.19"/><path d="M536.0,262.8 L543.6,251.0 L548.7,238.0 L548.4,224.0 L539.4,213.3 L525.4,213.6 L513.8,221.5 L503.5,231.0 L493.6,240.8 L483.6,250.7 L473.7,260.6 L463.8,270.5 L453.9,280.4 L444.0,290.3 L434.1,300.2 L424.2,310.1 L414.3,320.0 L404.4,329.9 L394.5,339.8 L384.6,349.7 L374.7,359.6 L364.8,369.5 L354.9,379.4" stroke="url(#g)" stroke-width="1.99" fill="none" opacity="0.10"/><path d="M471.1,566.2 L485.0,564.8 L498.6,561.4 L511.5,555.9 L523.5,548.7 L534.7,540.3 L545.3,531.2 L555.6,521.7 L565.7,512.0 L575.7,502.2 L585.7,492.4 L595.6,482.5 L605.5,472.6 L615.5,462.7 L625.4,452.8 L635.3,443.0 L645.2,433.1 L655.1,423.2 L665.0,413.3 L674.9,403.4 L684.8,393.5 L694.7,383.6 L704.6,373.7" stroke="url(#g)" stroke-width="0.65" fill="none" opacity="0.18"/><path d="M120.4,211.0 L115.0,198.0 L118.1,184.4 L125.2,172.3 L133.9,161.3 L143.2,150.9 L152.8,140.7 L162.5,130.6 L172.3,120.6 L182.2,110.7 L192.1,100.8 L202.0,90.9 L211.9,81.0 L221.8,71.1 L231.7,61.2 L241.6,51.3 L251.5,41.4 L261.3,31.5 L271.2,21.6 L281.1,11.7 L291.0,1.8 L300.9,-8.1 L310.8,-18.0" stroke="url(#g)" stroke-width="2.05" fill="none" opacity="0.21"/><path d="M584.6,254.7 L591.8,266.7 L586.4,279.6 L576.8,289.8 L567.0,299.8 L557.1,309.7 L547.2,319.6 L537.3,329.5 L527.4,339.4 L517.5,349.3 L507.6,359.2 L497.7,369.1 L487.8,379.0 L477.9,388.9 L468.0,398.8 L458.1,408.7 L448.2,418.6 L438.3,428.5 L428.4,438.4 L418.5,448.3 L408.6,458.2 L398.7,468.1 L388.8,478.0" stroke="url(#g)" stroke-width="1.93" fill="none" opacity="0.13"/><path d="M782.3,4.8 L782.4,-9.2 L773.7,-20.2 L759.7,-20.4 L748.0,-12.7 L737.7,-3.2 L727.7,6.6 L717.8,16.5 L707.9,26.4 L698.0,36.3 L688.1,46.2 L678.2,56.1 L668.3,66.0 L658.4,75.9 L648.5,85.8 L638.6,95.7 L628.7,105.6 L618.8,115.5 L608.9,125.4 L599.0,135.3 L589.1,145.2 L579.2,155.1 L569.3,165.0" stroke="url(#g)" stroke-width="1.58" fill="none" opacity="0.27"/><path d="M362.2,26.3 L358.3,39.7 L360.7,53.5 L372.3,61.3 L385.3,56.1 L395.3,46.3 L405.2,36.4 L415.1,26.5 L425.0,16.6 L434.9,6.7 L444.8,-3.2 L454.7,-13.1 L464.6,-23.0 L474.5,-32.9 L484.4,-42.8 L494.3,-52.7 L504.2,-62.6 L514.1,-72.5 L524.0,-82.4 L533.9,-92.3 L543.8,-102.2 L553.7,-112.1 L563.6,-122.0" stroke="url(#g)" stroke-width="1.08" fill="none" opacity="0.26"/><path d="M727.8,452.5 L728.1,466.5 L737.4,476.9 L751.2,474.9 L761.6,465.5 L771.5,455.6 L781.4,445.7 L791.3,435.8 L801.2,425.9 L811.1,416.0 L821.0,406.1 L830.9,396.2 L840.8,386.3 L850.7,376.4 L860.6,366.5 L870.5,356.6 L880.4,346.7 L890.3,336.8 L900.2,326.9 L910.1,317.0 L920.0,307.1 L929.9,297.2 L939.8,287.3" stroke="url(#g)" stroke-width="1.23" fill="none" opacity="0.10"/><path d="M603.8,143.0 L590.3,146.8 L579.4,155.5 L569.2,165.2 L559.3,175.0 L549.4,184.9 L539.5,194.8 L529.6,204.7 L519.7,214.6 L509.8,224.5 L499.9,234.4 L490.0,244.3 L480.1,254.2 L470.2,264.1 L460.3,274.0 L450.4,283.9 L440.5,293.8 L430.6,303.7 L420.7,313.6 L410.8,323.5 L400.9,333.4 L391.0,343.3 L381.1,353.2" stroke="url(#g)" stroke-width="0.52" fill="none" opacity="0.28"/><path d="M697.8,218.9 L693.9,205.4 L682.7,197.1 L668.9,199.8 L658.2,208.7 L648.2,218.5 L638.3,228.4 L628.4,238.3 L618.5,248.2 L608.6,258.1 L598.7,268.0 L588.8,277.9 L578.9,287.8 L569.0,297.7 L559.1,307.6 L549.2,317.5 L539.3,327.4 L529.4,337.3 L519.5,347.2 L509.6,357.1 L499.7,367.0 L489.8,376.9 L479.9,386.8" stroke="url(#g)" stroke-width="1.48" fill="none" opacity="0.25"/><path d="M133.9,15.6 L138.4,2.3 L139.0,-11.7 L133.3,-24.5 L120.5,-30.3 L107.5,-25.1 L97.1,-15.7 L87.2,-5.8 L77.3,4.1 L67.4,14.0 L57.5,23.9 L47.6,33.8 L37.7,43.7 L27.8,53.6 L17.9,63.5 L8.0,73.4 L-1.9,83.3 L-11.8,93.2 L-21.7,103.1 L-31.6,113.0 L-41.5,122.9 L-51.4,132.8 L-61.3,142.7" stroke="url(#g)" stroke-width="1.72" fill="none" opacity="0.19"/><path d="M765.0,14.5 L759.9,1.4 L746.8,-3.5 L734.0,2.2 L723.4,11.3 L713.3,21.1 L703.4,30.9 L693.5,40.8 L683.6,50.7 L673.7,60.6 L663.8,70.5 L653.9,80.4 L644.0,90.3 L634.1,100.2 L624.2,110.1 L614.3,120.0 L604.4,129.9 L594.5,139.8 L584.6,149.7 L574.7,159.6 L564.8,169.5 L554.9,179.4 L545.0,189.3" stroke="url(#g)" stroke-width="1.09" fill="none" opacity="0.17"/><path d="M560.0,15.9 L572.8,21.7 L586.6,23.9 L600.6,24.3 L614.6,24.3 L628.6,25.1 L642.3,27.8 L654.9,33.9 L663.9,44.6 L665.8,58.4 L660.3,71.3 L651.5,82.2 L641.9,92.3 L632.0,102.3 L622.1,112.2 L612.2,122.1 L602.3,132.0 L592.4,141.9 L582.5,151.8 L572.6,161.7 L562.7,171.6 L552.8,181.5 L542.9,191.4" stroke="url(#g)" stroke-width="1.53" fill="none" opacity="0.14"/><path d="M55.4,181.8 L69.3,181.7 L83.3,180.4 L96.9,177.2 L109.9,171.8 L121.9,164.7 L133.1,156.3 L143.8,147.2 L154.1,137.8 L164.2,128.1 L174.2,118.3 L184.2,108.5 L194.1,98.6 L204.1,88.7 L214.0,78.8 L223.9,68.9 L233.8,59.0 L243.7,49.1 L253.6,39.2 L263.5,29.4 L273.4,19.5 L283.3,9.6 L293.2,-0.3" stroke="url(#g)" stroke-width="1.09" fill="none" opacity="0.21"/><path d="M535.2,290.7 L548.3,295.7 L552.5,309.1 L545.3,321.0 L535.6,331.1 L525.7,341.0 L515.8,350.9 L505.9,360.8 L496.0,370.7 L486.1,380.6 L476.2,390.5 L466.3,400.4 L456.4,410.3 L446.5,420.2 L436.6,430.1 L426.7,440.0 L416.8,449.9 L406.9,459.8 L397.0,469.7 L387.1,479.6 L377.2,489.5 L367.3,499.4 L357.4,509.3" stroke="url(#g)" stroke-width="1.55" fill="none" opacity="0.20"/><path d="M415.4,80.7 L401.7,83.6 L388.2,79.8 L381.5,67.5 L387.2,54.8 L396.9,44.7 L406.8,34.8 L416.7,24.9 L426.6,15.0 L436.5,5.1 L446.4,-4.8 L456.3,-14.7 L466.2,-24.6 L476.1,-34.5 L486.0,-44.4 L495.9,-54.3 L505.8,-64.2 L515.7,-74.1 L525.6,-84.0 L535.5,-93.9 L545.4,-103.8 L555.3,-113.7 L565.2,-123.6" stroke="url(#g)" stroke-width="0.59" fill="none" opacity="0.06"/><path d="M229.7,177.5 L237.9,188.8 L251.9,188.3 L262.5,179.1 L272.4,169.2 L282.3,159.3 L292.2,149.4 L302.1,139.5 L312.0,129.6 L321.9,119.8 L331.8,109.9 L341.7,100.0 L351.6,90.1 L361.5,80.2 L371.4,70.3 L381.3,60.4 L391.2,50.5 L401.1,40.6 L411.0,30.7 L420.9,20.8 L430.8,10.9 L440.7,1.0 L450.6,-8.9" stroke="url(#g)" stroke-width="0.85" fill="none" opacity="0.08"/><path d="M52.7,472.2 L49.3,485.8 L50.7,499.7 L58.1,511.6 L70.0,518.9 L83.6,522.0 L97.6,522.8 L111.6,522.8 L125.6,523.2 L139.5,525.2 L152.6,530.1 L163.1,539.3 L167.6,552.5 L164.1,566.1 L155.9,577.4 L146.4,587.7 L136.6,597.7 L126.7,607.6 L116.8,617.5 L106.9,627.4 L97.0,637.3 L87.1,647.2 L77.2,657.1" stroke="url(#g)" stroke-width="1.36" fill="none" opacity="0.23"/><path d="M693.1,21.4 L692.3,35.4 L685.2,47.5 L675.9,58.0 L666.2,68.0 L656.3,78.0 L646.4,87.9 L636.5,97.8 L626.6,107.7 L616.7,117.6 L606.8,127.5 L596.9,137.4 L587.0,147.3 L577.1,157.2 L567.2,167.1 L557.3,177.0 L547.4,186.9 L537.5,196.8 L527.6,206.7 L517.7,216.6 L507.8,226.5 L497.9,236.4 L488.0,246.3" stroke="url(#g)" stroke-width="0.53" fill="none" opacity="0.14"/><path d="M661.1,500.5 L650.4,509.5 L639.0,517.7 L626.6,524.1 L612.9,527.1 L599.4,523.6 L591.1,512.2 L592.1,498.3 L598.4,485.7 L606.7,474.5 L615.8,463.9 L625.4,453.6 L635.1,443.5 L644.9,433.6 L654.7,423.6 L664.6,413.7 L674.5,403.8 L684.4,393.9 L694.3,384.0 L704.2,374.1 L714.1,364.2 L724.0,354.3 L733.9,344.4" stroke="url(#g)" stroke-width="0.98" fill="none" opacity="0.17"/><path d="M408.5,593.6 L422.5,593.1 L436.5,593.1 L450.5,592.5 L464.3,590.3 L477.6,586.0 L490.1,579.7 L501.7,571.9 L512.6,563.1 L523.1,553.8 L533.3,544.2 L543.4,534.5 L553.4,524.7 L563.3,514.8 L573.2,504.9 L583.1,495.1 L593.0,485.2 L602.9,475.3 L612.8,465.4 L622.7,455.5 L632.6,445.6 L642.5,435.7 L652.4,425.8" stroke="url(#g)" stroke-width="0.88" fill="none" opacity="0.18"/><path d="M365.8,74.1 L376.5,65.1 L386.5,55.2 L396.4,45.3 L406.3,35.4 L416.2,25.5 L426.1,15.6 L436.0,5.7 L445.8,-4.2 L455.7,-14.1 L465.6,-24.0 L475.5,-33.9 L485.4,-43.8 L495.3,-53.7 L505.2,-63.6 L515.1,-73.5 L525.0,-83.4 L534.9,-93.3 L544.8,-103.2 L554.7,-113.1 L564.6,-123.0 L574.5,-132.9 L584.4,-142.8" stroke="url(#g)" stroke-width="0.80" fill="none" opacity="0.23"/><path d="M433.9,110.6 L439.2,123.6 L449.9,132.6 L463.2,136.9 L477.1,138.3 L491.1,138.5 L505.1,138.6 L519.1,139.9 L532.6,143.6 L544.3,151.2 L551.3,163.3 L550.4,177.3 L543.3,189.3 L534.1,199.9 L524.3,209.9 L514.5,219.8 L504.6,229.7 L494.7,239.6 L484.8,249.5 L474.9,259.4 L465.0,269.3 L455.1,279.2 L445.2,289.1" stroke="url(#g)" stroke-width="1.17" fill="none" opacity="0.18"/><path d="M423.6,445.9 L412.5,454.5 L402.5,464.3 L392.6,474.2 L382.7,484.1 L372.8,494.0 L362.9,503.9 L353.0,513.8 L343.1,523.7 L333.2,533.6 L323.3,543.5 L313.4,553.4 L303.5,563.3 L293.6,573.2 L283.7,583.1 L273.8,593.0 L263.9,602.9 L254.0,612.8 L244.1,622.7 L234.2,632.6 L224.3,642.5 L214.4,652.4 L204.5,662.3" stroke="url(#g)" stroke-width="0.50" fill="none" opacity="0.25"/><path d="M350.4,255.5 L364.4,256.3 L378.4,256.3 L392.4,256.7 L406.3,258.7 L419.4,263.7 L429.8,273.0 L434.1,286.3 L430.4,299.8 L422.2,311.2 L412.7,321.4 L402.9,331.4 L393.0,341.3 L383.1,351.2 L373.2,361.1 L363.3,371.0 L353.4,380.9 L343.5,390.8 L333.6,400.7 L323.7,410.6 L313.8,420.5 L303.9,430.4 L294.0,440.3" stroke="url(#g)" stroke-width="1.26" fill="none" opacity="0.20"/><path d="M545.6,591.9 L532.5,587.0 L525.8,574.7 L528.0,560.9 L534.8,548.7 L543.3,537.5 L552.5,527.0 L562.1,516.8 L571.8,506.7 L581.6,496.8 L591.5,486.8 L601.4,476.9 L611.3,467.0 L621.2,457.1 L631.0,447.2 L640.9,437.3 L650.8,427.4 L660.7,417.5 L670.6,407.6 L680.5,397.7 L690.4,387.8 L700.3,377.9 L710.2,368.0" stroke="url(#g)" stroke-width="0.89" fill="none" opacity="0.27"/><path d="M482.1,199.0 L493.0,207.9 L498.1,220.9 L495.1,234.6 L487.1,246.1 L477.6,256.4 L467.8,266.4 L458.0,276.3 L448.1,286.2 L438.2,296.1 L428.3,306.0 L418.4,315.9 L408.5,325.8 L398.6,335.7 L388.7,345.6 L378.8,355.5 L368.9,365.4 L359.0,375.3 L349.1,385.2 L339.2,395.1 L329.3,405.0 L319.4,414.9 L309.5,424.8" stroke="url(#g)" stroke-width="0.90" fill="none" opacity="0.15"/><circle cx="545.7" cy="409.3" r="3.0" fill="#e8d5b7" opacity="0.71"/><circle cx="204.6" cy="135.6" r="3.1" fill="#e8d5b7" opacity="0.72"/><circle cx="283.1" cy="490.5" r="3.2" fill="#e8d5b7" opacity="0.73"/><circle cx="223.2" cy="283.7" r="2.2" fill="#e8d5b7" opacity="0.54"/><circle cx="223.1" cy="496.2" r="2.4" fill="#e8d5b7" opacity="0.59"/><circle cx="798.9" cy="77.6" r="1.8" fill="#e8d5b7" opacity="0.45"/><circle cx="78.2" cy="112.1" r="3.7" fill="#e8d5b7" opacity="0.85"/><circle cx="789.8" cy="205.1" r="3.0" fill="#e8d5b7" opacity="0.69"/><circle cx="754.2" cy="496.7" r="3.0" fill="#e8d5b7" opacity="0.70"/><circle cx="103.5" cy="468.4" r="1.7" fill="#e8d5b7" opacity="0.44"/><circle cx="549.5" cy="89.8" r="2.1" fill="#e8d5b7" opacity="0.51"/><circle cx="632.9" cy="302.7" r="1.4" fill="#e8d5b7" opacity="0.37"/><circle cx="357.0" cy="515.9" r="1.6" fill="#e8d5b7" opacity="0.43"/><circle cx="194.7" cy="187.8" r="3.4" fill="#e8d5b7" opacity="0.78"/><circle cx="702.7" cy="397.7" r="3.3" fill="#e8d5b7" opacity="0.77"/><circle cx="481.4" cy="324.8" r="1.8" fill="#e8d5b7" opacity="0.47"/><circle cx="165.0" cy="490.6" r="2.1" fill="#e8d5b7" opacity="0.52"/><circle cx="426.7" cy="169.5" r="2.2" fill="#e8d5b7" opacity="0.54"/><circle cx="119.7" cy="26.1" r="3.5" fill="#e8d5b7" opacity="0.79"/><circle cx="479.7" cy="159.1" r="2.0" fill="#e8d5b7" opacity="0.50"/><circle cx="22.5" cy="213.8" r="1.8" fill="#e8d5b7" opacity="0.47"/><circle cx="168.3" cy="166.0" r="1.9" fill="#e8d5b7" opacity="0.47"/><circle cx="733.5" cy="149.5" r="3.5" fill="#e8d5b7" opacity="0.79"/><circle cx="446.4" cy="92.3" r="3.5" fill="#e8d5b7" opacity="0.79"/><circle cx="129.9" cy="41.0" r="1.0" fill="#e8d5b7" opacity="0.31"/><circle cx="273.4" cy="102.0" r="4.0" fill="#e8d5b7" opacity="0.90"/></g><circle cx="400" cy="252" r="60" fill="none" stroke="#e8d5b7" stroke-width="1" opacity="0.25"/><circle cx="400" cy="252" r="110" fill="none" stroke="#a78b71" stroke-width="1" opacity="0.15"/></svg>