<svg xmlns="http://www.w3.org/2000/svg" viewBox="0 0 800 600" width="800" height="600"><defs><linearGradient id="g" x1="0" y1="0" x2="1" y2="1"><stop offset="0.1" stop-color="#a78b71"/><stop offset="0.9" stop-color="#c9b8a0"/></linearGradient><radialGradient id="bg" cx="50%" cy="40%" r="75%"><stop offset="0" stop-color="#16120d"/><stop offset="1" stop-color="#0a0a0a"/></radialGradient></defs><rect width="800" height="600" fill="url(#bg)"/><g><path d="M738.5,553.8 L747.9,564.2 L760.7,569.8 L774.5,571.9 L788.5,572.2 L802.5,572.2 L816.5,573.1 L830.2,575.9 L842.7,582.3 L851.5,593.2 L853.0,607.1 L847.2,619.8 L838.3,630.6 L828.6,640.8 L818.7,650.7 L808.9,660.6 L799.0,670.5 L789.1,680.4 L779.2,690.3 L769.3,700.2 L759.4,710.1 L749.5,720.0 L739.6,729.9" stroke="url(#g)" stroke-width="1.98" fill="none" opacity="0.26"/><path d="M757.9,147.0 L768.5,137.9 L779.5,129.2 L790.8,121.0 L802.7,113.6 L815.2,107.3 L828.3,102.4 L841.9,99.1 L855.8,97.5 L869.8,97.2 L883.8,97.2 L897.8,96.4 L911.6,94.0 L924.8,89.5 L937.2,82.9 L948.7,74.9 L959.6,66.1 L970.0,56.8 L980.2,47.2 L990.3,37.4 L1000.2,27.6 L1010.2,17.7 L1020.1,7.9" stroke="url(#g)" stroke-width="2.06" fill="none" opacity="0.07"/><path d="M701.1,580.0 L706.9,592.7 L718.0,601.3 L731.4,605.3 L745.3,606.5 L759.3,606.6 L773.3,606.8 L787.3,608.3 L800.7,612.2 L812.2,620.2 L818.6,632.7 L817.0,646.6 L809.6,658.4 L800.3,668.9 L790.5,678.9 L780.6,688.8 L770.7,698.8 L760.8,708.7 L750.9,718.6 L741.0,728.5 L731.1,738.4 L721.2,748.3 L711.3,758.2" stroke="url(#g)" stroke-width="1.91" fill="none" opacity="0.27"/><path d="M669.7,434.8 L656.8,440.1 L642.8,440.8 L630.6,433.9 L626.2,420.6 L629.9,407.1 L637.2,395.2 L646.0,384.2 L655.3,373.8 L664.9,363.6 L674.7,353.6 L684.5,343.6 L694.4,333.7 L704.3,323.8 L714.2,313.9 L724.0,304.0 L733.9,294.1 L743.8,284.2 L753.7,274.3 L763.6,264.4 L773.5,254.5 L783.4,244.6 L793.3,234.7" stroke="url(#g)" stroke-width="1.42" fill="none" opacity="0.25"/><path d="M420.2,240.2 L421.2,254.2 L415.1,266.8 L406.1,277.5 L396.4,287.6 L386.5,297.5 L376.6,307.4 L366.7,317.3 L356.8,327.2 L346.9,337.1 L337.0,347.0 L327.1,356.9 L317.2,366.8 L307.3,376.7 L297.4,386.6 L287.5,396.5 L277.6,406.4 L267.7,416.3 L257.8,426.2 L247.9,436.1 L238.0,446.0 L228.1,455.9 L218.2,465.8" stroke="url(#g)" stroke-width="1.47" fill="none" opacity="0.25"/><path d="M90.4,563.5 L94.2,577.0 L90.0,590.4 L81.6,601.6 L72.1,611.8 L62.2,621.8 L52.4,631.7 L42.5,641.6 L32.6,651.5 L22.7,661.4 L12.8,671.3 L2.9,681.2 L-7.0,691.1 L-16.9,701.0 L-26.8,710.9 L-36.7,720.8 L-46.6,730.7 L-56.5,740.6 L-66.4,750.5 L-76.3,760.4 L-86.2,770.3 L-96.1,780.2 L-106.0,790.1" stroke="url(#g)" stroke-width="1.94" fill="none" opacity="0.16"/><path d="M89.2,585.1 L83.5,597.9 L74.7,608.8 L65.0,618.9 L55.2,628.9 L45.3,638.8 L35.4,648.7 L25.5,658.6 L15.6,668.5 L5.7,678.4 L-4.2,688.3 L-14.1,698.2 L-24.0,708.1 L-33.9,718.0 L-43.8,727.9 L-53.7,737.8 L-63.6,747.7 L-73.5,757.6 L-83.4,767.5 L-93.3,777.4 L-103.2,787.3 L-113.1,797.2 L-123.0,807.1" stroke="url(#g)" stroke-width="1.34" fill="none" opacity="0.19"/><path d="M274.9,84.2 L284.2,94.6 L298.1,92.5 L308.4,83.0 L318.3,73.1 L328.2,63.2 L338.1,53.3 L348.0,43.4 L357.9,33.5 L367.8,23.6 L377.7,13.7 L387.6,3.8 L397.5,-6.1 L407.4,-16.0 L417.3,-25.9 L427.2,-35.8 L437.1,-45.7 L447.0,-55.6 L456.9,-65.5 L466.8,-75.4 L476.7,-85.3 L486.6,-95.2 L496.5,-105.1" stroke="url(#g)" stroke-width="2.08" fill="none" opacity="0.16"/><path d="M589.6,256.4 L577.4,249.5 L564.1,253.8 L553.6,263.0 L543.7,272.9 L533.7,282.8 L523.8,292.7 L513.9,302.6 L504.0,312.5 L494.1,322.4 L484.2,332.3 L474.4,342.2 L464.5,352.1 L454.6,362.0 L444.7,371.9 L434.8,381.8 L424.9,391.7 L415.0,401.6 L405.1,411.5 L395.2,421.4 L385.3,431.3 L375.4,441.2 L365.5,451.1" stroke="url(#g)" stroke-width="1.38" fill="none" opacity="0.19"/><path d="M763.8,368.4 L765.5,382.3 L776.5,391.0 L789.8,386.6 L799.9,377.0 L809.8,367.1 L819.7,357.2 L829.6,347.3 L839.5,337.4 L849.4,327.5 L859.3,317.6 L869.2,307.7 L879.1,297.8 L889.0,287.9 L898.9,278.0 L908.8,268.1 L918.7,258.2 L928.6,248.3 L938.5,238.4 L948.4,228.5 L958.3,218.6 L968.2,208.7 L978.1,198.8" stroke="url(#g)" stroke-width="0.89" fill="none" opacity="0.17"/><path d="M460.7,263.0 L452.4,251.7 L438.4,251.0 L426.6,258.6 L416.3,268.0 L406.3,277.8 L396.4,287.7 L386.5,297.6 L376.6,307.5 L366.7,317.4 L356.8,327.3 L346.9,337.2 L337.0,347.1 L327.1,357.0 L317.2,366.9 L307.3,376.8 L297.4,386.7 L287.5,396.6 L277.6,406.5 L267.7,416.4 L257.8,426.3 L247.9,436.2 L238.0,446.1" stroke="url(#g)" stroke-width="1.73" fill="none" opacity="0.26"/><path d="M402.0,432.3 L388.0,432.1 L376.6,440.2 L366.6,450.0 L356.7,459.9 L346.8,469.8 L336.9,479.7 L327.0,489.6 L317.1,499.5 L307.2,509.4 L297.3,519.3 L287.4,529.2 L277.5,539.1 L267.6,549.0 L257.7,558.9 L247.8,568.8 L237.9,578.7 L228.0,588.6 L218.1,598.5 L208.2,608.4 L198.3,618.3 L188.4,628.2 L178.5,638.1" stroke="url(#g)" stroke-width="1.18" fill="none" opacity="0.19"/><path d="M709.2,357.8 L703.6,344.9 L706.6,331.2 L713.6,319.2 L722.3,308.1 L731.6,297.7 L741.2,287.5 L750.9,277.4 L760.7,267.4 L770.6,257.5 L780.5,247.6 L790.3,237.7 L800.2,227.8 L810.1,217.9 L820.0,208.0 L829.9,198.1 L839.8,188.2 L849.7,178.3 L859.6,168.4 L869.5,158.5 L879.4,148.6 L889.3,138.7 L899.2,128.8" stroke="url(#g)" stroke-width="1.65" fill="none" opacity="0.18"/><path d="M515.5,560.2 L506.0,549.9 L505.7,535.9 L511.4,523.1 L519.5,511.7 L528.6,501.1 L538.1,490.8 L547.8,480.7 L557.6,470.7 L567.4,460.7 L577.3,450.8 L587.2,440.9 L597.1,430.9 L607.0,421.0 L616.9,411.1 L626.8,401.2 L636.7,391.3 L646.6,381.4 L656.4,371.5 L666.3,361.6 L676.2,351.7 L686.1,341.8 L696.0,331.9" stroke="url(#g)" stroke-width="0.62" fill="none" opacity="0.10"/><path d="M237.7,213.9 L225.0,219.8 L211.2,222.0 L198.1,217.2 L192.9,204.2 L199.6,192.0 L209.5,182.0 L219.4,172.1 L229.3,162.2 L239.2,152.3 L249.1,142.4 L259.0,132.5 L268.9,122.6 L278.8,112.7 L288.7,102.8 L298.6,92.9 L308.5,83.0 L318.4,73.1 L328.2,63.2 L338.1,53.3 L348.0,43.4 L357.9,33.5 L367.8,23.6" stroke="url(#g)" stroke-width="1.81" fill="none" opacity="0.28"/><path d="M497.0,526.9 L507.8,518.0 L518.2,508.7 L528.4,499.0 L538.4,489.3 L548.4,479.4 L558.3,469.6 L568.2,459.7 L578.2,449.8 L588.1,439.9 L598.0,430.0 L607.9,420.1 L617.8,410.2 L627.7,400.3 L637.6,390.4 L647.5,380.5 L657.4,370.6 L667.3,360.7 L677.2,350.8 L687.1,340.9 L697.0,331.0 L706.9,321.1 L716.8,311.2" stroke="url(#g)" stroke-width="1.06" fill="none" opacity="0.24"/><path d="M203.9,2.6 L217.8,0.5 L231.1,-3.6 L243.7,-9.8 L255.4,-17.6 L266.3,-26.3 L276.8,-35.6 L287.0,-45.1 L297.1,-54.9 L307.1,-64.7 L317.0,-74.5 L326.9,-84.4 L336.9,-94.3 L346.8,-104.2 L356.7,-114.1 L366.6,-124.0 L376.5,-133.9 L386.4,-143.8 L396.3,-153.7 L406.2,-163.6 L416.1,-173.5 L426.0,-183.4 L435.9,-193.3" stroke="url(#g)" stroke-width="1.99" fill="none" opacity="0.18"/><path d="M16.5,220.7 L27.6,212.1 L38.1,202.9 L48.4,193.4 L58.5,183.7 L68.5,173.9 L78.4,164.0 L88.4,154.2 L98.3,144.3 L108.2,134.4 L118.1,124.5 L128.0,114.6 L137.9,104.7 L147.8,94.8 L157.7,84.9 L167.6,75.0 L177.5,65.1 L187.4,55.2 L197.3,45.3 L207.2,35.4 L217.1,25.5 L227.0,15.6 L236.9,5.7" stroke="url(#g)" stroke-width="1.93" fill="none" opacity="0.19"/><path d="M16.6,371.1 L28.2,363.2 L38.1,353.3 L48.0,343.4 L57.9,333.5 L67.8,323.6 L77.7,313.7 L87.6,303.8 L97.5,293.9 L107.4,284.0 L117.3,274.1 L127.2,264.3 L137.1,254.4 L147.0,244.5 L156.9,234.6 L166.8,224.7 L176.7,214.8 L186.6,204.9 L196.5,195.0 L206.4,185.1 L216.3,175.2 L226.2,165.3 L236.1,155.4" stroke="url(#g)" stroke-width="0.90" fill="none" opacity="0.11"/><path d="M282.5,264.1 L296.4,265.9 L310.4,266.2 L324.4,266.3 L338.4,267.2 L352.0,270.4 L364.3,277.1 L372.6,288.4 L373.3,302.4 L367.0,314.9 L358.0,325.6 L348.3,335.7 L338.4,345.6 L328.5,355.5 L318.6,365.4 L308.7,375.3 L298.8,385.2 L288.9,395.1 L279.0,405.0 L269.1,414.9 L259.2,424.8 L249.3,434.7 L239.4,444.6" stroke="url(#g)" stroke-width="1.83" fill="none" opacity="0.22"/><path d="M714.8,21.4 L714.3,7.4 L705.0,-3.0 L691.0,-2.4 L679.5,5.6 L669.2,15.1 L659.3,24.9 L649.3,34.8 L639.4,44.7 L629.5,54.6 L619.6,64.5 L609.7,74.4 L599.8,84.3 L589.9,94.2 L580.0,104.1 L570.1,113.9 L560.2,123.8 L550.3,133.7 L540.4,143.6 L530.5,153.5 L520.6,163.4 L510.7,173.3 L500.8,183.2" stroke="url(#g)" stroke-width="1.48" fill="none" opacity="0.23"/><path d="M738.0,235.4 L752.0,235.2 L765.9,233.8 L779.5,230.4 L792.4,224.9 L804.3,217.7 L815.5,209.2 L826.2,200.1 L836.4,190.6 L846.6,181.0 L856.6,171.2 L866.5,161.3 L876.5,151.5 L886.4,141.6 L896.3,131.7 L906.2,121.8 L916.1,111.9 L926.0,102.0 L935.9,92.1 L945.8,82.2 L955.7,72.3 L965.6,62.4 L975.5,52.5" stroke="url(#g)" stroke-width="1.66" fill="none" opacity="0.19"/><path d="M192.7,490.6 L183.1,500.8 L173.3,510.7 L163.4,520.7 L153.5,530.6 L143.6,540.5 L133.7,550.4 L123.8,560.3 L113.9,570.2 L104.0,580.1 L94.1,590.0 L84.2,599.9 L74.3,609.8 L64.4,619.7 L54.5,629.6 L44.6,639.5 L34.7,649.4 L24.8,659.3 L14.9,669.2 L5.0,679.1 L-4.9,689.0 L-14.8,698.8 L-24.7,708.7" stroke="url(#g)" stroke-width="0.68" fill="none" opacity="0.15"/><path d="M38.8,487.4 L51.6,493.1 L65.4,495.2 L79.4,495.6 L93.4,495.6 L107.4,496.4 L121.1,499.2 L133.6,505.4 L142.6,516.2 L144.3,530.1 L138.6,542.9 L129.8,553.7 L120.1,563.8 L110.3,573.8 L100.4,583.7 L90.5,593.6 L80.6,603.5 L70.7,613.4 L60.8,623.3 L50.9,633.2 L41.0,643.1 L31.1,653.0 L21.2,662.9" stroke="url(#g)" stroke-width="1.99" fill="none" opacity="0.27"/><path d="M322.3,131.3 L310.2,138.3 L296.8,142.6 L282.9,141.5 L272.7,131.9 L274.6,118.0 L283.9,107.5 L293.8,97.6 L303.7,87.7 L313.6,77.8 L323.5,67.9 L333.4,58.0 L343.3,48.1 L353.2,38.2 L363.1,28.3 L373.0,18.4 L382.9,8.5 L392.8,-1.4 L402.7,-11.3 L412.6,-21.2 L422.5,-31.1 L432.4,-41.0 L442.3,-50.9" stroke="url(#g)" stroke-width="1.51" fill="none" opacity="0.22"/><path d="M497.2,365.9 L491.8,353.0 L479.2,346.8 L466.1,351.6 L455.6,361.0 L445.7,370.8 L435.8,380.7 L425.9,390.6 L416.0,400.5 L406.1,410.4 L396.2,420.3 L386.3,430.2 L376.4,440.1 L366.5,450.0 L356.6,459.9 L346.7,469.8 L336.8,479.7 L326.9,489.6 L317.0,499.5 L307.1,509.4 L297.2,519.3 L287.3,529.2 L277.4,539.1" stroke="url(#g)" stroke-width="1.94" fill="none" opacity="0.20"/><path d="M129.9,94.8 L142.7,89.3 L154.7,82.0 L165.8,73.5 L176.5,64.4 L186.8,54.9 L196.9,45.3 L206.9,35.5 L216.8,25.6 L226.8,15.8 L236.7,5.9 L246.6,-4.0 L256.5,-13.9 L266.4,-23.8 L276.3,-33.7 L286.2,-43.6 L296.1,-53.5 L306.0,-63.4 L315.9,-73.3 L325.8,-83.2 L335.7,-93.1 L345.6,-103.0 L355.5,-112.9" stroke="url(#g)" stroke-width="2.01" fill="none" opacity="0.08"/><path d="M198.5,26.9 L211.3,21.2 L223.2,13.8 L234.3,5.3 L244.9,-3.9 L255.2,-13.4 L265.3,-23.1 L275.3,-32.9 L285.2,-42.7 L295.1,-52.6 L305.1,-62.5 L315.0,-72.4 L324.9,-82.3 L334.8,-92.2 L344.7,-102.1 L354.6,-112.0 L364.5,-121.9 L374.4,-131.8 L384.3,-141.7 L394.2,-151.6 L404.1,-161.5 L414.0,-171.4 L423.9,-181.3" stroke="url(#g)" stroke-width="1.70" fill="none" opacity="0.25"/><path d="M725.6,114.1 L712.0,110.7 L699.7,117.4 L689.6,127.0 L679.6,136.9 L669.7,146.8 L659.8,156.7 L649.9,166.6 L640.0,176.5 L630.1,186.4 L620.2,196.3 L610.3,206.2 L600.4,216.1 L590.5,226.0 L580.6,235.9 L570.7,245.8 L560.8,255.7 L550.9,265.6 L541.0,275.5 L531.1,285.4 L521.2,295.3 L511.3,305.2 L501.4,315.1" stroke="url(#g)" stroke-width="0.52" fill="none" opacity="0.24"/><path d="M134.6,452.0 L148.6,452.6 L162.4,455.0 L175.3,460.5 L185.1,470.5 L188.1,484.2 L183.4,497.4 L174.9,508.5 L165.3,518.6 L155.4,528.6 L145.5,538.5 L135.6,548.4 L125.7,558.3 L115.9,568.2 L106.0,578.1 L96.1,588.0 L86.2,597.9 L76.3,607.8 L66.4,617.7 L56.5,627.6 L46.6,637.5 L36.7,647.4 L26.8,657.3" stroke="url(#g)" stroke-width="1.67" fill="none" opacity="0.19"/><path d="M635.5,289.5 L648.8,285.2 L662.6,282.5 L676.5,281.4 L690.5,281.3 L704.5,281.2 L718.5,279.9 L732.1,276.8 L745.1,271.5 L757.1,264.4 L768.4,256.1 L779.1,247.1 L789.4,237.6 L799.5,227.9 L809.6,218.2 L819.5,208.3 L829.5,198.5 L839.4,188.6 L849.3,178.7 L859.2,168.8 L869.1,158.9 L879.0,149.0 L888.9,139.1" stroke="url(#g)" stroke-width="0.68" fill="none" opacity="0.14"/><path d="M294.2,462.3 L305.7,454.4 L318.5,448.6 L332.5,447.7 L344.1,455.5 L344.4,469.5 L335.8,480.5 L326.0,490.5 L316.1,500.4 L306.2,510.3 L296.3,520.2 L286.4,530.1 L276.5,540.0 L266.6,549.9 L256.7,559.8 L246.8,569.7 L236.9,579.6 L227.0,589.5 L217.1,599.4 L207.2,609.3 L197.3,619.2 L187.4,629.1 L177.5,639.0" stroke="url(#g)" stroke-width="0.56" fill="none" opacity="0.16"/><path d="M10.7,475.5 L12.8,489.4 L20.8,500.8 L33.0,507.6 L46.8,510.4 L60.7,511.0 L74.7,511.0 L88.7,511.5 L102.6,513.7 L115.5,519.0 L125.6,528.8 L129.2,542.3 L124.9,555.6 L116.5,566.8 L106.9,577.0 L97.1,587.0 L87.2,596.9 L77.3,606.8 L67.4,616.7 L57.5,626.6 L47.6,636.5 L37.7,646.4 L27.8,656.3" stroke="url(#g)" stroke-width="0.54" fill="none" opacity="0.26"/><path d="M291.3,330.6 L303.7,337.2 L312.1,348.4 L313.0,362.4 L306.8,375.0 L297.8,385.7 L288.1,395.8 L278.3,405.8 L268.4,415.7 L258.5,425.6 L248.6,435.5 L238.7,445.4 L228.8,455.3 L218.9,465.2 L209.0,475.1 L199.1,485.0 L189.2,494.9 L179.3,504.8 L169.4,514.7 L159.5,524.6 L149.6,534.5 L139.7,544.4 L129.8,554.3" stroke="url(#g)" stroke-width="1.25" fill="none" opacity="0.21"/><path d="M72.2,269.2 L70.2,283.0 L76.2,295.7 L90.0,298.4 L101.3,290.1 L111.2,280.2 L121.1,270.3 L131.0,260.4 L140.9,250.5 L150.8,240.6 L160.7,230.7 L170.6,220.8 L180.5,210.9 L190.4,201.0 L200.3,191.1 L210.2,181.2 L220.1,171.3 L230.0,161.4 L239.9,151.5 L249.8,141.6 L259.7,131.7 L269.6,121.8 L279.5,111.9" stroke="url(#g)" stroke-width="0.62" fill="none" opacity="0.26"/><path d="M217.7,592.3 L211.2,604.8 L201.6,614.9 L191.7,624.8 L181.8,634.7 L171.9,644.6 L162.0,654.5 L152.1,664.4 L142.2,674.3 L132.3,684.2 L122.4,694.1 L112.5,704.0 L102.6,713.9 L92.7,723.8 L82.8,733.7 L72.9,743.6 L63.0,753.5 L53.1,763.4 L43.2,773.3 L33.3,783.2 L23.4,793.1 L13.5,803.0 L3.6,812.9" stroke="url(#g)" stroke-width="0.50" fill="none" opacity="0.16"/><path d="M500.9,200.5 L486.9,201.5 L475.5,209.6 L465.2,219.1 L455.2,228.9 L445.3,238.8 L435.4,248.7 L425.5,258.6 L415.6,268.5 L405.7,278.4 L395.8,288.3 L385.9,298.2 L376.0,308.1 L366.1,318.0 L356.2,327.9 L346.3,337.8 L336.4,347.7 L326.5,357.6 L316.6,367.5 L306.7,377.4 L296.8,387.3 L286.9,397.2 L277.0,407.1" stroke="url(#g)" stroke-width="0.96" fill="none" opacity="0.12"/><path d="M399.1,253.9 L403.2,267.3 L399.4,280.8 L391.1,292.1 L381.6,302.3 L371.7,312.3 L361.9,322.2 L352.0,332.1 L342.1,342.0 L332.2,351.9 L322.3,361.8 L312.4,371.7 L302.5,381.6 L292.6,391.5 L282.7,401.4 L272.8,411.3 L262.9,421.2 L253.0,431.1 L243.1,441.0 L233.2,450.9 L223.3,460.8 L213.4,470.7 L203.5,480.6" stroke="url(#g)" stroke-width="1.33" fill="none" opacity="0.23"/><path d="M364.7,524.9 L371.1,512.5 L375.0,499.0 L374.8,485.0 L367.9,472.9 L354.5,468.8 L342.0,475.2 L331.8,484.8 L321.9,494.6 L312.0,504.5 L302.1,514.4 L292.2,524.3 L282.3,534.2 L272.4,544.1 L262.5,554.0 L252.6,563.9 L242.7,573.8 L232.8,583.7 L222.9,593.6 L213.0,603.5 L203.1,613.4 L193.2,623.3 L183.3,633.2" stroke="url(#g)" stroke-width="0.57" fill="none" opacity="0.24"/><path d="M772.1,399.9 L784.1,392.7 L794.0,382.8 L803.9,372.9 L813.8,363.0 L823.7,353.1 L833.6,343.2 L843.5,333.3 L853.4,323.4 L863.3,313.5 L873.2,303.6 L883.1,293.7 L893.0,283.8 L902.9,273.9 L912.8,264.0 L922.7,254.1 L932.6,244.2 L942.5,234.3 L952.4,224.4 L962.3,214.5 L972.2,204.6 L982.1,194.7 L992.0,184.8" stroke="url(#g)" stroke-width="1.73" fill="none" opacity="0.21"/><path d="M58.3,16.9 L51.8,4.5 L38.5,-0.0 L25.9,6.0 L15.6,15.6 L5.7,25.4 L-4.2,35.3 L-14.1,45.2 L-24.0,55.1 L-33.9,65.0 L-43.8,74.9 L-53.7,84.8 L-63.6,94.7 L-73.5,104.6 L-83.4,114.5 L-93.3,124.4 L-103.2,134.3 L-113.1,144.2 L-123.0,154.1 L-132.9,164.0 L-142.8,173.9 L-152.7,183.8 L-162.6,193.7" stroke="url(#g)" stroke-width="0.62" fill="none" opacity="0.20"/><path d="M486.2,597.6 L474.0,590.8 L469.4,577.6 L473.0,564.0 L480.4,552.1 L489.1,541.2 L498.4,530.7 L508.0,520.6 L517.8,510.5 L527.6,500.5 L537.5,490.6 L547.4,480.7 L557.2,470.8 L567.1,460.9 L577.0,451.0 L586.9,441.1 L596.8,431.2 L606.7,421.3 L616.6,411.4 L626.5,401.5 L636.4,391.6 L646.3,381.7 L656.2,371.8" stroke="url(#g)" stroke-width="1.47" fill="none" opacity="0.16"/><path d="M43.1,166.2 L56.9,163.7 L70.1,159.1 L82.4,152.5 L93.9,144.5 L104.8,135.6 L115.2,126.2 L125.4,116.6 L135.4,106.9 L145.4,97.1 L155.3,87.2 L165.2,77.3 L175.1,67.4 L185.1,57.5 L195.0,47.6 L204.9,37.7 L214.8,27.8 L224.7,17.9 L234.6,8.0 L244.5,-1.9 L254.4,-11.8 L264.3,-21.7 L274.2,-31.6" stroke="url(#g)" stroke-width="1.80" fill="none" opacity="0.22"/><path d="M686.3,100.4 L694.9,111.5 L690.6,124.9 L681.2,135.2 L671.3,145.2 L661.4,155.1 L651.5,165.0 L641.6,174.9 L631.7,184.8 L621.8,194.7 L611.9,204.6 L602.0,214.5 L592.1,224.4 L582.2,234.3 L572.3,244.2 L562.4,254.1 L552.5,264.0 L542.7,273.9 L532.8,283.8 L522.9,293.7 L513.0,303.6 L503.1,313.5 L493.2,323.4" stroke="url(#g)" stroke-width="2.07" fill="none" opacity="0.22"/><path d="M228.8,376.0 L242.4,379.0 L254.8,385.5 L263.4,396.5 L264.6,410.5 L258.6,423.1 L249.6,433.9 L239.9,444.0 L230.1,454.0 L220.2,463.9 L210.3,473.8 L200.4,483.7 L190.5,493.6 L180.6,503.5 L170.7,513.4 L160.8,523.3 L150.9,533.2 L141.0,543.1 L131.1,553.0 L121.2,562.9 L111.3,572.8 L101.4,582.7 L91.5,592.6" stroke="url(#g)" stroke-width="1.81" fill="none" opacity="0.08"/><path d="M519.8,248.9 L533.8,249.0 L544.3,258.2 L542.6,272.1 L533.6,282.8 L523.8,292.8 L513.9,302.7 L504.0,312.6 L494.1,322.5 L484.2,332.4 L474.3,342.3 L464.4,352.2 L454.5,362.1 L444.6,372.0 L434.7,381.9 L424.8,391.8 L414.9,401.7 L405.0,411.6 L395.1,421.5 L385.2,431.4 L375.3,441.3 L365.4,451.2 L355.5,461.1" stroke="url(#g)" stroke-width="0.93" fill="none" opacity="0.12"/><path d="M720.8,362.7 L708.7,355.8 L704.2,342.5 L707.9,329.0 L715.3,317.1 L724.0,306.2 L733.4,295.7 L743.0,285.6 L752.8,275.5 L762.6,265.6 L772.4,255.6 L782.3,245.7 L792.2,235.8 L802.1,225.9 L812.0,216.0 L821.9,206.1 L831.8,196.2 L841.7,186.3 L851.6,176.4 L861.5,166.5 L871.4,156.6 L881.3,146.7 L891.2,136.8" stroke="url(#g)" stroke-width="0.56" fill="none" opacity="0.27"/><path d="M213.7,269.2 L214.2,283.2 L220.7,295.6 L232.1,303.7 L245.7,307.3 L259.6,308.4 L273.6,308.4 L287.6,308.7 L301.5,310.3 L314.8,314.7 L326.0,323.1 L331.6,335.9 L329.2,349.7 L321.5,361.4 L312.0,371.8 L302.3,381.8 L292.4,391.7 L282.5,401.6 L272.6,411.5 L262.7,421.4 L252.8,431.3 L242.9,441.2 L233.0,451.1" stroke="url(#g)" stroke-width="1.50" fill="none" opacity="0.25"/><path d="M563.8,157.9 L554.4,147.4 L540.5,148.1 L529.0,156.1 L518.7,165.6 L508.7,175.4 L498.8,185.3 L488.9,195.2 L479.0,205.1 L469.1,215.0 L459.2,224.9 L449.3,234.8 L439.4,244.7 L429.5,254.6 L419.6,264.5 L409.7,274.4 L399.8,284.3 L389.9,294.2 L380.0,304.1 L370.1,314.0 L360.2,323.9 L350.3,333.8 L340.4,343.7" stroke="url(#g)" stroke-width="0.95" fill="none" opacity="0.20"/><path d="M525.5,270.9 L528.0,284.7 L520.0,296.2 L510.2,306.3 L500.4,316.2 L490.5,326.1 L480.6,336.0 L470.7,345.9 L460.8,355.8 L450.9,365.7 L441.0,375.6 L431.1,385.5 L421.2,395.4 L411.3,405.3 L401.4,415.2 L391.5,425.1 L381.6,435.0 L371.7,444.9 L361.8,454.8 L351.9,464.7 L342.0,474.6 L332.1,484.5 L322.2,494.4" stroke="url(#g)" stroke-width="1.60" fill="none" opacity="0.18"/><path d="M422.3,112.3 L435.7,116.2 L449.7,117.3 L463.7,117.4 L477.7,117.6 L491.6,119.1 L505.0,123.2 L516.4,131.4 L522.5,144.0 L520.6,157.8 L513.1,169.6 L503.7,180.1 L493.9,190.1 L484.1,200.0 L474.2,209.9 L464.3,219.8 L454.4,229.7 L444.5,239.6 L434.6,249.5 L424.7,259.4 L414.8,269.3 L404.9,279.2 L395.0,289.1" stroke="url(#g)" stroke-width="1.71" fill="none" opacity="0.26"/><path d="M274.4,41.5 L260.8,45.0 L247.1,42.3 L238.0,31.6 L238.1,17.6 L244.0,4.9 L252.2,-6.4 L261.3,-17.1 L270.8,-27.4 L280.5,-37.5 L290.3,-47.5 L300.1,-57.4 L310.0,-67.3 L319.9,-77.3 L329.8,-87.2 L339.7,-97.1 L349.6,-107.0 L359.5,-116.9 L369.4,-126.8 L379.3,-136.7 L389.2,-146.6 L399.1,-156.5 L409.0,-166.4" stroke="url(#g)" stroke-width="1.05" fill="none" opacity="0.23"/><path d="M119.9,301.8 L111.0,291.0 L114.7,277.4 L124.2,267.2 L134.1,257.3 L144.0,247.4 L153.9,237.5 L163.8,227.6 L173.7,217.7 L183.6,207.8 L193.5,197.9 L203.4,188.0 L213.3,178.1 L223.2,168.2 L233.1,158.3 L243.0,148.4 L252.9,138.5 L262.8,128.6 L272.7,118.7 L282.6,108.8 L292.5,98.9 L302.4,89.0 L312.3,79.1" stroke="url(#g)" stroke-width="0.53" fill="none" opacity="0.27"/><path d="M259.8,239.9 L267.1,251.9 L279.0,259.3 L292.6,262.5 L306.6,263.3 L320.6,263.3 L334.6,263.7 L348.4,265.6 L361.6,270.4 L372.2,279.5 L376.9,292.7 L373.5,306.3 L365.3,317.7 L355.8,328.0 L346.0,338.0 L336.2,347.9 L326.3,357.8 L316.4,367.7 L306.5,377.6 L296.6,387.5 L286.7,397.4 L276.8,407.3 L266.9,417.2" stroke="url(#g)" stroke-width="1.84" fill="none" opacity="0.15"/><path d="M768.8,535.0 L780.6,542.5 L794.2,545.8 L808.2,546.7 L822.2,546.7 L836.2,547.1 L850.1,548.9 L863.3,553.6 L874.0,562.6 L878.9,575.7 L875.7,589.3 L867.6,600.8 L858.2,611.1 L848.4,621.1 L838.5,631.0 L828.6,640.9 L818.7,650.8 L808.8,660.7 L798.9,670.6 L789.0,680.5 L779.1,690.4 L769.2,700.3 L759.3,710.2" stroke="url(#g)" stroke-width="0.91" fill="none" opacity="0.23"/><path d="M707.1,587.6 L717.1,597.4 L730.1,602.5 L744.0,604.2 L758.0,604.4 L772.0,604.5 L786.0,605.5 L799.6,608.7 L811.8,615.6 L819.9,627.0 L820.3,641.0 L813.9,653.5 L804.8,664.2 L795.1,674.2 L785.3,684.2 L775.4,694.1 L765.5,704.0 L755.6,713.9 L745.7,723.8 L735.8,733.7 L725.9,743.6 L716.0,753.5 L706.1,763.4" stroke="url(#g)" stroke-width="0.53" fill="none" opacity="0.24"/><path d="M212.2,362.9 L226.2,362.9 L240.1,363.7 L253.9,366.5 L266.4,372.7 L275.3,383.5 L277.0,397.4 L271.3,410.2 L262.4,421.0 L252.8,431.2 L242.9,441.1 L233.0,451.0 L223.1,460.9 L213.3,470.8 L203.4,480.7 L193.5,490.6 L183.6,500.5 L173.7,510.4 L163.8,520.3 L153.9,530.2 L144.0,540.1 L134.1,550.0 L124.2,559.9" stroke="url(#g)" stroke-width="0.55" fill="none" opacity="0.06"/><path d="M169.4,458.1 L180.9,466.1 L187.3,478.6 L185.7,492.5 L178.3,504.4 L168.9,514.8 L159.2,524.8 L149.3,534.8 L139.4,544.7 L129.5,554.6 L119.6,564.5 L109.7,574.4 L99.8,584.3 L89.9,594.2 L80.0,604.1 L70.1,614.0 L60.2,623.9 L50.3,633.8 L40.4,643.7 L30.5,653.6 L20.6,663.5 L10.7,673.4 L0.8,683.3" stroke="url(#g)" stroke-width="0.91" fill="none" opacity="0.16"/><path d="M424.2,290.3 L411.9,283.5 L398.7,287.9 L387.8,296.8 L377.7,306.5 L367.8,316.3 L357.9,326.2 L348.0,336.1 L338.1,346.0 L328.2,355.9 L318.3,365.8 L308.4,375.7 L298.5,385.6 L288.6,395.5 L278.7,405.4 L268.8,415.3 L258.9,425.2 L249.0,435.1 L239.1,445.0 L229.2,454.9 L219.3,464.8 L209.4,474.7 L199.5,484.6" stroke="url(#g)" stroke-width="1.10" fill="none" opacity="0.22"/><path d="M689.2,64.9 L699.8,55.7 L710.9,47.2 L723.0,40.2 L736.5,36.5 L750.1,39.6 L756.9,51.8 L751.2,64.6 L741.7,74.8 L731.8,84.7 L721.9,94.6 L712.0,104.5 L702.1,114.4 L692.2,124.3 L682.3,134.2 L672.4,144.1 L662.5,154.0 L652.6,163.9 L642.7,173.8 L632.8,183.7 L622.9,193.6 L613.0,203.5 L603.1,213.4" stroke="url(#g)" stroke-width="1.57" fill="none" opacity="0.10"/><path d="M272.6,589.2 L266.6,576.6 L253.7,571.2 L240.8,576.6 L230.5,586.1 L220.6,596.0 L210.7,605.9 L200.8,615.8 L190.9,625.7 L181.0,635.6 L171.1,645.5 L161.2,655.4 L151.3,665.3 L141.4,675.2 L131.5,685.1 L121.6,695.0 L111.7,704.9 L101.8,714.8 L91.9,724.7 L82.0,734.6 L72.1,744.5 L62.2,754.4 L52.3,764.3" stroke="url(#g)" stroke-width="0.58" fill="none" opacity="0.08"/><path d="M565.5,447.2 L578.1,441.1 L589.8,433.3 L600.7,424.6 L611.2,415.4 L621.5,405.8 L631.5,396.1 L641.5,386.3 L651.5,376.4 L661.4,366.5 L671.3,356.7 L681.2,346.8 L691.1,336.9 L701.0,327.0 L710.9,317.1 L720.8,307.2 L730.7,297.3 L740.6,287.4 L750.5,277.5 L760.4,267.6 L770.3,257.7 L780.2,247.8 L790.1,237.9" stroke="url(#g)" stroke-width="1.16" fill="none" opacity="0.24"/><path d="M358.9,113.0 L354.2,126.2 L353.5,140.2 L358.6,153.2 L369.2,162.4 L382.5,166.9 L396.4,168.4 L410.4,168.5 L424.4,168.6 L438.3,169.9 L451.9,173.5 L463.7,180.9 L470.9,192.9 L470.3,206.9 L463.3,219.0 L454.1,229.6 L444.4,239.6 L434.5,249.6 L424.6,259.5 L414.7,269.4 L404.8,279.3 L394.9,289.2 L385.0,299.1" stroke="url(#g)" stroke-width="0.55" fill="none" opacity="0.07"/><path d="M52.0,454.8 L61.3,465.2 L74.1,470.8 L88.0,472.9 L102.0,473.3 L115.9,473.3 L129.9,474.1 L143.6,476.9 L156.1,483.2 L165.0,494.1 L166.5,508.0 L160.8,520.8 L151.9,531.6 L142.2,541.7 L132.4,551.7 L122.5,561.6 L112.6,571.5 L102.7,581.4 L92.8,591.3 L82.9,601.2 L73.0,611.1 L63.1,621.0 L53.2,630.9" stroke="url(#g)" stroke-width="0.51" fill="none" opacity="0.09"/><path d="M675.5,513.1 L678.4,499.4 L687.8,489.0 L697.7,479.1 L707.6,469.2 L717.5,459.3 L727.4,449.4 L737.3,439.5 L747.2,429.6 L757.1,419.7 L767.0,409.8 L776.9,399.9 L786.8,390.0 L796.7,380.1 L806.6,370.2 L816.5,360.3 L826.4,350.4 L836.3,340.5 L846.2,330.6 L856.1,320.7 L866.0,310.8 L875.9,300.9 L885.8,291.0" stroke="url(#g)" stroke-width="0.54" fill="none" opacity="0.07"/><path d="M553.5,330.7 L557.8,317.4 L558.1,303.4 L552.0,290.8 L539.0,285.7 L526.1,291.3 L515.8,300.8 L505.9,310.6 L496.0,320.5 L486.1,330.4 L476.2,340.3 L466.3,350.2 L456.4,360.1 L446.5,370.0 L436.6,379.9 L426.7,389.8 L416.8,399.7 L406.9,409.6 L397.0,419.5 L387.1,429.4 L377.2,439.3 L367.3,449.2 L357.4,459.1" stroke="url(#g)" stroke-width="0.92" fill="none" opacity="0.13"/><path d="M648.2,256.2 L658.8,247.0 L669.6,238.1 L680.8,229.7 L692.4,222.0 L704.7,215.2 L717.6,209.7 L731.0,205.9 L744.9,203.7 L758.9,203.0 L772.9,202.9 L786.9,202.6 L800.7,200.9 L814.2,197.2 L827.0,191.3 L838.8,183.8 L849.8,175.2 L860.4,166.0 L870.7,156.5 L880.8,146.8 L890.8,137.0 L900.7,127.2 L910.6,117.3" stroke="url(#g)" stroke-width="2.09" fill="none" opacity="0.16"/><path d="M147.3,493.4 L155.7,504.6 L156.7,518.6 L150.6,531.2 L141.6,541.9 L131.9,552.0 L122.1,562.0 L112.2,571.9 L102.3,581.8 L92.4,591.7 L82.5,601.6 L72.6,611.5 L62.7,621.4 L52.8,631.3 L42.9,641.2 L33.0,651.1 L23.1,661.0 L13.2,670.9 L3.3,680.8 L-6.6,690.7 L-16.5,700.6 L-26.4,710.5 L-36.3,720.4" stroke="url(#g)" stroke-width="0.54" fill="none" opacity="0.10"/><path d="M110.6,43.8 L124.5,42.0 L138.5,41.6 L152.5,41.6 L166.5,41.0 L180.3,38.8 L193.6,34.5 L206.1,28.1 L217.7,20.3 L228.6,11.5 L239.1,2.2 L249.3,-7.4 L259.4,-17.1 L269.3,-26.9 L279.3,-36.8 L289.2,-46.7 L299.1,-56.6 L309.0,-66.4 L318.9,-76.3 L328.8,-86.2 L338.7,-96.1 L348.6,-106.0 L358.5,-115.9" stroke="url(#g)" stroke-width="0.70" fill="none" opacity="0.08"/><path d="M344.7,317.0 L345.1,331.0 L338.6,343.4 L329.6,354.1 L319.8,364.1 L310.0,374.1 L300.1,384.0 L290.2,393.9 L280.3,403.8 L270.4,413.7 L260.5,423.6 L250.6,433.5 L240.7,443.4 L230.8,453.3 L220.9,463.2 L211.0,473.1 L201.1,483.0 L191.2,492.9 L181.3,502.8 L171.4,512.7 L161.5,522.6 L151.6,532.5 L141.7,542.4" stroke="url(#g)" stroke-width="1.62" fill="none" opacity="0.21"/><path d="M255.8,431.5 L244.7,440.1 L234.6,449.7 L224.6,459.5 L214.7,469.4 L204.8,479.3 L194.9,489.2 L185.0,499.1 L175.1,509.0 L165.2,518.9 L155.3,528.8 L145.4,538.7 L135.5,548.6 L125.6,558.5 L115.7,568.4 L105.8,578.3 L95.9,588.2 L86.0,598.1 L76.1,608.0 L66.2,617.9 L56.3,627.8 L46.4,637.7 L36.5,647.6" stroke="url(#g)" stroke-width="1.52" fill="none" opacity="0.06"/><path d="M718.3,510.5 L704.3,511.8 L691.8,505.6 L688.7,491.9 L696.6,480.3 L706.4,470.4 L716.3,460.5 L726.2,450.6 L736.1,440.7 L746.0,430.8 L755.9,420.9 L765.8,411.0 L775.7,401.1 L785.6,391.2 L795.5,381.3 L805.4,371.4 L815.3,361.5 L825.2,351.6 L835.1,341.7 L845.0,331.8 L854.9,321.9 L864.8,312.0 L874.7,302.1" stroke="url(#g)" stroke-width="1.70" fill="none" opacity="0.13"/><path d="M65.5,50.7 L75.3,40.7 L85.2,30.8 L95.0,20.8 L104.8,10.8 L114.5,0.7 L124.2,-9.4 L133.7,-19.7 L143.0,-30.1 L152.1,-40.8 L160.6,-51.9 L168.5,-63.5 L175.0,-75.8 L179.5,-89.1 L180.0,-103.1 L174.2,-115.9 L161.5,-121.6 L148.5,-116.3 L138.1,-106.9 L128.2,-97.0 L118.3,-87.2 L108.4,-77.3 L98.5,-67.4" stroke="url(#g)" stroke-width="1.64" fill="none" opacity="0.12"/><path d="M283.0,96.9 L296.7,94.0 L306.9,84.5 L316.8,74.6 L326.7,64.7 L336.6,54.8 L346.5,44.9 L356.4,35.0 L366.3,25.1 L376.2,15.2 L386.1,5.3 L396.0,-4.6 L405.9,-14.5 L415.8,-24.4 L425.7,-34.3 L435.6,-44.2 L445.5,-54.1 L455.4,-64.0 L465.3,-73.9 L475.2,-83.8 L485.1,-93.7 L495.0,-103.6 L504.9,-113.5" stroke="url(#g)" stroke-width="1.81" fill="none" opacity="0.15"/><path d="M552.3,429.9 L566.2,429.1 L580.0,426.5 L593.2,421.7 L605.5,415.1 L616.9,407.0 L627.7,398.1 L638.1,388.7 L648.3,379.1 L658.3,369.3 L668.3,359.5 L678.3,349.7 L688.2,339.8 L698.1,329.9 L708.0,320.0 L717.9,310.1 L727.8,300.2 L737.7,290.3 L747.6,280.4 L757.5,270.5 L767.4,260.6 L777.3,250.7 L787.2,240.8" stroke="url(#g)" stroke-width="1.01" fill="none" opacity="0.17"/><path d="M71.1,590.2 L71.6,604.2 L65.3,616.7 L56.2,627.4 L46.5,637.4 L36.7,647.4 L26.8,657.3 L16.9,667.2 L7.0,677.1 L-2.9,687.0 L-12.8,696.9 L-22.7,706.8 L-32.6,716.7 L-42.5,726.6 L-52.4,736.5 L-62.3,746.4 L-72.2,756.3 L-82.1,766.2 L-92.0,776.1 L-101.9,786.0 L-111.8,795.9 L-121.7,805.8 L-131.6,815.7" stroke="url(#g)" stroke-width="1.47" fill="none" opacity="0.27"/><path d="M595.4,18.0 L608.6,22.7 L619.4,31.6 L624.3,44.7 L621.2,58.4 L613.2,69.8 L603.7,80.1 L593.9,90.1 L584.0,100.0 L574.1,109.9 L564.2,119.8 L554.3,129.7 L544.4,139.6 L534.5,149.5 L524.6,159.4 L514.7,169.3 L504.8,179.2 L494.9,189.1 L485.0,199.0 L475.1,208.9 L465.2,218.8 L455.3,228.7 L445.4,238.6" stroke="url(#g)" stroke-width="1.23" fill="none" opacity="0.07"/><path d="M682.1,573.0 L676.3,585.8 L673.9,599.6 L676.8,613.3 L685.6,624.2 L698.2,630.3 L712.0,632.7 L726.0,633.1 L740.0,633.2 L753.9,633.8 L767.7,636.4 L780.4,642.2 L789.8,652.6 L792.3,666.4 L787.1,679.4 L778.4,690.4 L768.8,700.5 L759.0,710.5 L749.1,720.4 L739.2,730.3 L729.3,740.2 L719.4,750.1 L709.5,760.0" stroke="url(#g)" stroke-width="0.71" fill="none" opacity="0.26"/><path d="M54.0,207.0 L57.9,193.5 L65.3,181.6 L74.1,170.7 L83.4,160.3 L93.0,150.1 L102.8,140.1 L112.6,130.1 L122.5,120.2 L132.4,110.3 L142.3,100.4 L152.2,90.5 L162.1,80.5 L171.9,70.6 L181.8,60.7 L191.7,50.8 L201.6,40.9 L211.5,31.0 L221.4,21.1 L231.3,11.3 L241.2,1.4 L251.1,-8.5 L261.0,-18.4" stroke="url(#g)" stroke-width="1.40" fill="none" opacity="0.23"/><path d="M273.6,473.0 L280.1,460.6 L282.6,446.8 L277.7,433.7 L264.6,428.6 L251.8,434.3 L241.2,443.4 L231.1,453.1 L221.2,463.0 L211.2,472.8 L201.3,482.7 L191.4,492.6 L181.5,502.5 L171.6,512.4 L161.7,522.3 L151.8,532.2 L141.9,542.1 L132.0,552.0 L122.1,561.9 L112.2,571.8 L102.3,581.7 L92.4,591.6 L82.5,601.5" stroke="url(#g)" stroke-width="1.80" fill="none" opacity="0.07"/><path d="M100.9,555.5 L103.6,569.2 L98.7,582.3 L90.0,593.3 L80.4,603.5 L70.6,613.5 L60.7,623.4 L50.8,633.3 L40.9,643.2 L31.0,653.1 L21.1,663.0 L11.2,672.9 L1.3,682.8 L-8.6,692.7 L-18.5,702.6 L-28.4,712.5 L-38.3,722.4 L-48.2,732.3 L-58.1,742.2 L-68.0,752.1 L-77.9,762.0 L-87.8,771.9 L-97.7,781.8" stroke="url(#g)" stroke-width="0.73" fill="none" opacity="0.08"/><path d="M763.6,139.0 L773.7,129.3 L783.9,119.7 L794.2,110.3 L804.8,101.1 L815.6,92.3 L826.9,83.9 L838.6,76.2 L850.9,69.6 L863.8,64.2 L877.3,60.5 L891.2,58.5 L905.2,57.8 L919.2,57.8 L933.2,57.4 L947.0,55.6 L960.5,51.6 L973.1,45.6 L984.9,38.0 L995.9,29.4 L1006.4,20.1 L1016.6,10.6 L1026.7,0.9" stroke="url(#g)" stroke-width="1.77" fill="none" opacity="0.11"/><path d="M559.9,13.0 L573.9,13.0 L587.9,13.6 L601.6,16.0 L614.5,21.6 L624.2,31.7 L627.1,45.4 L622.3,58.5 L613.7,69.6 L604.1,79.8 L594.3,89.7 L584.4,99.7 L574.5,109.6 L564.6,119.5 L554.7,129.4 L544.8,139.3 L534.9,149.2 L525.0,159.1 L515.1,169.0 L505.2,178.9 L495.3,188.8 L485.4,198.7 L475.5,208.6" stroke="url(#g)" stroke-width="1.95" fill="none" opacity="0.19"/><path d="M339.3,17.4 L347.5,28.8 L361.4,28.5 L372.1,19.4 L382.0,9.5 L391.9,-0.4 L401.8,-10.3 L411.7,-20.2 L421.6,-30.1 L431.5,-40.0 L441.4,-49.9 L451.3,-59.8 L461.2,-69.7 L471.1,-79.6 L481.0,-89.5 L490.9,-99.4 L500.8,-109.3 L510.7,-119.2 L520.6,-129.1 L530.5,-139.0 L540.4,-148.9 L550.3,-158.8 L560.2,-168.7" stroke="url(#g)" stroke-width="1.90" fill="none" opacity="0.25"/><path d="M199.4,543.3 L203.3,529.9 L200.8,516.1 L189.4,508.0 L175.8,511.4 L164.8,520.0 L154.6,529.6 L144.6,539.5 L134.7,549.4 L124.8,559.3 L114.9,569.1 L105.0,579.0 L95.1,588.9 L85.2,598.8 L75.3,608.7 L65.4,618.6 L55.5,628.5 L45.6,638.4 L35.7,648.3 L25.8,658.2 L15.9,668.1 L6.0,678.0 L-3.9,687.9" stroke="url(#g)" stroke-width="0.68" fill="none" opacity="0.24"/><path d="M321.2,528.2 L310.0,519.8 L296.3,522.3 L285.5,531.2 L275.5,541.0 L265.6,550.9 L255.7,560.8 L245.8,570.7 L235.9,580.6 L226.0,590.5 L216.1,600.4 L206.2,610.3 L196.3,620.2 L186.4,630.1 L176.5,640.0 L166.6,649.9 L156.7,659.8 L146.8,669.7 L136.9,679.6 L127.0,689.5 L117.1,699.4 L107.2,709.3 L97.3,719.2" stroke="url(#g)" stroke-width="2.08" fill="none" opacity="0.18"/><path d="M625.7,548.5 L636.8,540.0 L646.8,530.1 L656.7,520.2 L666.6,510.3 L676.5,500.4 L686.4,490.5 L696.3,480.6 L706.2,470.7 L716.1,460.8 L726.0,450.9 L735.9,441.0 L745.8,431.1 L755.7,421.2 L765.6,411.3 L775.4,401.4 L785.3,391.5 L795.2,381.6 L805.1,371.7 L815.0,361.8 L824.9,351.9 L834.8,342.0 L844.7,332.1" stroke="url(#g)" stroke-width="0.96" fill="none" opacity="0.28"/><path d="M543.3,241.5 L552.9,251.7 L549.8,265.4 L540.5,275.9 L530.7,285.8 L520.8,295.7 L510.9,305.6 L501.0,315.5 L491.1,325.4 L481.2,335.3 L471.3,345.2 L461.4,355.1 L451.5,365.0 L441.6,374.9 L431.7,384.8 L421.8,394.7 L411.9,404.6 L402.0,414.5 L392.1,424.4 L382.2,434.3 L372.3,444.2 L362.4,454.1 L352.5,464.0" stroke="url(#g)" stroke-width="1.44" fill="none" opacity="0.10"/><path d="M286.0,292.2 L300.0,292.3 L313.9,293.5 L327.5,296.9 L339.5,304.2 L347.0,315.9 L346.8,329.9 L340.0,342.2 L330.9,352.8 L321.1,362.8 L311.3,372.8 L301.4,382.7 L291.5,392.6 L281.6,402.5 L271.7,412.4 L261.8,422.3 L251.9,432.2 L242.0,442.1 L232.1,452.0 L222.2,461.9 L212.3,471.8 L202.4,481.7 L192.5,491.6" stroke="url(#g)" stroke-width="1.44" fill="none" opacity="0.24"/><path d="M476.8,53.9 L490.0,58.6 L503.9,60.1 L517.9,60.3 L531.9,60.4 L545.8,61.6 L559.4,65.0 L571.4,72.2 L578.9,84.0 L578.7,98.0 L572.0,110.3 L562.8,120.9 L553.1,130.9 L543.2,140.9 L533.3,150.8 L523.4,160.7 L513.5,170.6 L503.6,180.5 L493.7,190.4 L483.8,200.3 L473.9,210.2 L464.0,220.1 L454.1,230.0" stroke="url(#g)" stroke-width="0.85" fill="none" opacity="0.21"/><path d="M711.6,123.2 L697.6,122.7 L686.2,130.7 L676.1,140.4 L666.2,150.3 L656.3,160.2 L646.4,170.1 L636.5,180.0 L626.6,189.9 L616.7,199.8 L606.8,209.7 L596.9,219.6 L587.0,229.5 L577.1,239.4 L567.2,249.3 L557.3,259.2 L547.4,269.1 L537.5,279.0 L527.6,288.9 L517.7,298.8 L507.8,308.7 L497.9,318.6 L488.0,328.5" stroke="url(#g)" stroke-width="1.99" fill="none" opacity="0.12"/><path d="M106.6,165.9 L105.3,152.0 L110.7,139.0 L118.6,127.5 L127.6,116.8 L137.1,106.4 L146.7,96.3 L156.5,86.3 L166.4,76.3 L176.2,66.4 L186.1,56.5 L196.0,46.6 L205.9,36.7 L215.8,26.8 L225.7,16.9 L235.6,7.0 L245.5,-2.9 L255.4,-12.8 L265.3,-22.7 L275.2,-32.6 L285.1,-42.5 L295.0,-52.4 L304.9,-62.3" stroke="url(#g)" stroke-width="0.62" fill="none" opacity="0.25"/><path d="M344.8,497.3 L331.6,492.5 L318.9,498.4 L308.6,508.0 L298.7,517.8 L288.8,527.7 L278.9,537.6 L269.0,547.5 L259.1,557.4 L249.2,567.3 L239.3,577.2 L229.4,587.1 L219.5,597.0 L209.6,606.9 L199.7,616.8 L189.8,626.7 L179.9,636.6 L170.0,646.5 L160.1,656.4 L150.2,666.3 L140.3,676.2 L130.4,686.1 L120.5,696.0" stroke="url(#g)" stroke-width="0.56" fill="none" opacity="0.07"/><path d="M55.4,59.9 L65.0,49.7 L74.6,39.5 L83.9,29.0 L92.9,18.3 L101.5,7.3 L109.4,-4.3 L116.0,-16.7 L120.4,-30.0 L121.0,-43.9 L115.3,-56.7 L102.6,-62.5 L89.6,-57.4 L79.2,-48.0 L69.2,-38.1 L59.3,-28.2 L49.4,-18.3 L39.5,-8.4 L29.6,1.5 L19.7,11.4 L9.8,21.3 L-0.1,31.2 L-10.0,41.1" stroke="url(#g)" stroke-width="2.07" fill="none" opacity="0.17"/><path d="M351.4,199.3 L365.4,200.6 L379.4,200.7 L393.4,200.9 L407.3,202.3 L420.7,206.1 L432.4,214.0 L439.0,226.3 L437.7,240.2 L430.4,252.2 L421.1,262.6 L411.3,272.7 L401.5,282.6 L391.6,292.5 L381.7,302.4 L371.8,312.3 L361.9,322.2 L352.0,332.1 L342.1,342.0 L332.2,351.9 L322.3,361.8 L312.4,371.7 L302.5,381.6" stroke="url(#g)" stroke-width="1.81" fill="none" opacity="0.20"/><path d="M313.9,278.5 L327.8,279.6 L341.4,283.1 L353.4,290.3 L360.9,302.1 L360.7,316.1 L353.9,328.3 L344.7,338.9 L335.0,349.0 L325.2,358.9 L315.3,368.8 L305.4,378.7 L295.5,388.6 L285.6,398.5 L275.7,408.4 L265.8,418.3 L255.9,428.2 L246.0,438.1 L236.1,448.0 L226.2,457.9 L216.3,467.8 L206.4,477.7 L196.5,487.6" stroke="url(#g)" stroke-width="0.77" fill="none" opacity="0.23"/><path d="M729.2,564.1 L738.8,574.2 L751.7,579.6 L765.6,581.5 L779.6,581.8 L793.6,581.9 L807.6,582.8 L821.2,585.8 L833.6,592.3 L842.1,603.4 L843.2,617.4 L837.1,630.0 L828.2,640.8 L818.5,650.9 L808.6,660.8 L798.7,670.7 L788.9,680.6 L779.0,690.5 L769.1,700.4 L759.2,710.3 L749.3,720.2 L739.4,730.1 L729.5,740.0" stroke="url(#g)" stroke-width="0.62" fill="none" opacity="0.12"/><path d="M189.8,4.5 L203.8,3.9 L217.6,1.7 L230.9,-2.7 L243.4,-9.1 L255.0,-16.9 L265.9,-25.7 L276.3,-35.0 L286.5,-44.6 L296.6,-54.4 L306.6,-64.2 L316.5,-74.0 L326.4,-83.9 L336.4,-93.8 L346.3,-103.7 L356.2,-113.6 L366.1,-123.5 L376.0,-133.4 L385.9,-143.3 L395.8,-153.2 L405.7,-163.1 L415.6,-173.0 L425.5,-182.9" stroke="url(#g)" stroke-width="0.98" fill="none" opacity="0.16"/><path d="M429.9,96.0 L442.6,101.8 L456.5,103.9 L470.5,104.3 L484.5,104.3 L498.4,105.1 L512.2,107.9 L524.7,114.0 L533.7,124.7 L535.6,138.6 L530.0,151.5 L521.1,162.3 L511.5,172.5 L501.6,182.4 L491.8,192.3 L481.9,202.2 L472.0,212.1 L462.1,222.0 L452.2,231.9 L442.3,241.8 L432.4,251.7 L422.5,261.6 L412.6,271.5" stroke="url(#g)" stroke-width="1.47" fill="none" opacity="0.21"/><path d="M585.6,41.7 L597.2,49.6 L603.7,62.0 L602.2,75.9 L594.8,87.8 L585.5,98.3 L575.7,108.3 L565.8,118.2 L556.0,128.1 L546.1,138.0 L536.2,147.9 L526.3,157.8 L516.4,167.7 L506.5,177.6 L496.6,187.5 L486.7,197.4 L476.8,207.3 L466.9,217.2 L457.0,227.1 L447.1,237.0 L437.2,246.9 L427.3,256.8 L417.4,266.7" stroke="url(#g)" stroke-width="1.87" fill="none" opacity="0.09"/><path d="M788.2,487.9 L792.2,501.4 L801.9,511.5 L814.8,516.8 L828.7,518.6 L842.7,518.9 L856.7,519.0 L870.7,519.9 L884.3,522.9 L896.7,529.5 L905.1,540.7 L906.0,554.7 L899.9,567.3 L890.9,578.0 L881.2,588.1 L871.4,598.1 L861.5,608.0 L851.6,617.9 L841.7,627.8 L831.8,637.7 L821.9,647.6 L812.0,657.5 L802.1,667.4" stroke="url(#g)" stroke-width="1.51" fill="none" opacity="0.23"/><path d="M700.7,396.3 L686.7,397.1 L674.4,390.3 L669.9,377.1 L673.5,363.5 L680.8,351.6 L689.6,340.7 L698.9,330.2 L708.5,320.1 L718.3,310.0 L728.1,300.0 L738.0,290.1 L747.8,280.2 L757.7,270.3 L767.6,260.4 L777.5,250.5 L787.4,240.6 L797.3,230.7 L807.2,220.8 L817.1,210.9 L827.0,201.0 L836.9,191.1 L846.8,181.2" stroke="url(#g)" stroke-width="1.52" fill="none" opacity="0.06"/><path d="M523.6,38.3 L537.6,38.6 L551.6,38.7 L565.6,39.6 L579.3,42.6 L591.6,49.2 L600.0,60.4 L601.0,74.4 L594.8,87.0 L585.9,97.7 L576.2,107.8 L566.3,117.8 L556.4,127.7 L546.5,137.6 L536.6,147.5 L526.7,157.4 L516.8,167.3 L506.9,177.2 L497.0,187.1 L487.1,197.0 L477.2,206.9 L467.3,216.8 L457.4,226.7" stroke="url(#g)" stroke-width="1.53" fill="none" opacity="0.13"/><path d="M398.7,261.1 L399.9,275.0 L394.0,287.7 L385.0,298.5 L375.3,308.6 L365.5,318.6 L355.6,328.5 L345.7,338.4 L335.8,348.3 L325.9,358.2 L316.0,368.1 L306.1,378.0 L296.2,387.9 L286.3,397.8 L276.4,407.7 L266.5,417.6 L256.6,427.5 L246.7,437.4 L236.8,447.3 L226.9,457.2 L217.0,467.1 L207.1,477.0 L197.2,486.9" stroke="url(#g)" stroke-width="1.89" fill="none" opacity="0.26"/><path d="M110.5,267.2 L124.4,265.9 L134.9,256.5 L144.8,246.6 L154.7,236.7 L164.6,226.8 L174.5,216.9 L184.4,207.0 L194.3,197.1 L204.2,187.2 L214.1,177.3 L224.0,167.4 L233.9,157.5 L243.8,147.6 L253.7,137.7 L263.6,127.9 L273.5,118.0 L283.4,108.1 L293.3,98.2 L303.2,88.3 L313.1,78.4 L323.0,68.5 L332.9,58.6" stroke="url(#g)" stroke-width="1.42" fill="none" opacity="0.06"/><path d="M407.6,399.7 L402.8,412.8 L393.3,423.1 L383.5,433.0 L373.6,442.9 L363.7,452.8 L353.8,462.7 L343.9,472.6 L334.0,482.5 L324.1,492.4 L314.2,502.3 L304.3,512.2 L294.4,522.1 L284.5,532.0 L274.6,541.9 L264.7,551.8 L254.8,561.7 L244.9,571.6 L235.0,581.5 L225.1,591.4 L215.2,601.3 L205.3,611.2 L195.4,621.1" stroke="url(#g)" stroke-width="0.83" fill="none" opacity="0.11"/><path d="M44.9,530.7 L58.9,530.8 L72.9,531.6 L86.6,534.5 L99.0,541.0 L107.7,552.0 L109.0,565.9 L103.1,578.6 L94.2,589.4 L84.5,599.5 L74.6,609.4 L64.7,619.3 L54.8,629.2 L44.9,639.1 L35.0,649.0 L25.1,658.9 L15.2,668.8 L5.3,678.7 L-4.6,688.6 L-14.5,698.5 L-24.4,708.4 L-34.3,718.3 L-44.2,728.2" stroke="url(#g)" stroke-width="1.02" fill="none" opacity="0.24"/><path d="M432.4,133.1 L446.4,133.2 L460.4,133.4 L474.4,134.7 L487.8,138.4 L499.6,146.1 L506.4,158.3 L505.4,172.3 L498.2,184.3 L488.9,194.8 L479.2,204.8 L469.3,214.8 L459.4,224.7 L449.5,234.6 L439.6,244.5 L429.7,254.4 L419.8,264.3 L409.9,274.2 L400.0,284.1 L390.1,294.0 L380.2,303.9 L370.3,313.8 L360.4,323.7" stroke="url(#g)" stroke-width="1.28" fill="none" opacity="0.19"/><path d="M475.9,433.6 L487.4,425.6 L499.5,418.5 L512.2,412.6 L525.5,408.3 L539.3,405.6 L553.2,404.5 L567.2,404.3 L581.2,404.2 L595.2,403.0 L608.8,399.9 L621.8,394.7 L633.9,387.6 L645.2,379.3 L655.8,370.3 L666.2,360.8 L676.3,351.2 L686.3,341.4 L696.3,331.6 L706.2,321.7 L716.1,311.8 L726.1,301.9 L736.0,292.0" stroke="url(#g)" stroke-width="1.54" fill="none" opacity="0.12"/><path d="M406.8,328.0 L405.4,314.0 L395.1,304.6 L381.2,306.6 L370.0,314.9 L359.8,324.5 L349.8,334.3 L339.9,344.2 L330.0,354.1 L320.1,364.0 L310.2,373.9 L300.3,383.8 L290.4,393.7 L280.5,403.6 L270.6,413.5 L260.7,423.4 L250.8,433.3 L240.9,443.2 L231.0,453.1 L221.1,463.0 L211.2,472.9 L201.3,482.8 L191.4,492.7" stroke="url(#g)" stroke-width="2.05" fill="none" opacity="0.23"/><path d="M26.3,440.3 L19.1,452.4 L14.2,465.5 L13.3,479.4 L18.0,492.6 L28.3,502.1 L41.4,506.9 L55.4,508.5 L69.4,508.7 L83.4,508.7 L97.3,509.9 L110.9,513.3 L122.9,520.4 L130.6,532.2 L130.4,546.2 L123.7,558.4 L114.6,569.0 L104.9,579.1 L95.0,589.1 L85.1,599.0 L75.2,608.9 L65.3,618.8 L55.4,628.7" stroke="url(#g)" stroke-width="1.35" fill="none" opacity="0.06"/><path d="M338.9,386.3 L331.4,374.5 L317.6,372.7 L305.5,379.9 L295.1,389.2 L285.1,399.0 L275.2,408.9 L265.3,418.8 L255.4,428.7 L245.5,438.6 L235.6,448.5 L225.7,458.4 L215.8,468.3 L205.9,478.2 L196.0,488.1 L186.1,498.0 L176.2,507.9 L166.3,517.8 L156.4,527.7 L146.5,537.6 L136.6,547.5 L126.7,557.4 L116.8,567.3" stroke="url(#g)" stroke-width="1.93" fill="none" opacity="0.11"/><path d="M784.5,84.5 L781.8,70.7 L771.8,61.0 L757.8,61.7 L746.7,70.1 L736.7,79.9 L726.7,89.8 L716.8,99.7 L706.9,109.6 L697.1,119.5 L687.2,129.4 L677.3,139.3 L667.4,149.2 L657.5,159.1 L647.6,169.0 L637.7,178.9 L627.8,188.8 L617.9,198.7 L608.0,208.6 L598.1,218.5 L588.2,228.4 L578.3,238.3 L568.4,248.2" stroke="url(#g)" stroke-width="1.26" fill="none" opacity="0.07"/><path d="M796.5,37.2 L782.5,37.4 L771.2,45.6 L761.2,55.4 L751.3,65.3 L741.4,75.2 L731.5,85.1 L721.6,95.0 L711.7,104.9 L701.8,114.8 L691.9,124.7 L682.0,134.6 L672.1,144.5 L662.2,154.4 L652.3,164.3 L642.4,174.2 L632.5,184.1 L622.6,194.0 L612.7,203.9 L602.8,213.8 L592.9,223.7 L583.0,233.6 L573.1,243.5" stroke="url(#g)" stroke-width="1.61" fill="none" opacity="0.19"/><path d="M260.0,376.0 L269.7,386.1 L272.7,399.7 L267.9,412.9 L259.4,424.0 L249.8,434.2 L239.9,444.1 L230.0,454.0 L220.1,463.9 L210.2,473.8 L200.3,483.7 L190.4,493.6 L180.5,503.5 L170.6,513.4 L160.7,523.3 L150.8,533.2 L140.9,543.1 L131.0,553.0 L121.1,562.9 L111.2,572.8 L101.3,582.7 L91.4,592.6 L81.6,602.5" stroke="url(#g)" stroke-width="1.29" fill="none" opacity="0.12"/><path d="M479.8,530.4 L492.6,524.9 L504.5,517.6 L515.7,509.1 L526.3,500.0 L536.6,490.5 L546.7,480.8 L556.7,471.0 L566.7,461.2 L576.6,451.3 L586.5,441.4 L596.4,431.5 L606.3,421.6 L616.2,411.7 L626.1,401.8 L636.0,391.9 L645.9,382.0 L655.8,372.1 L665.7,362.2 L675.6,352.3 L685.5,342.4 L695.4,332.5 L705.3,322.6" stroke="url(#g)" stroke-width="1.17" fill="none" opacity="0.28"/><path d="M338.0,206.6 L351.9,208.7 L365.9,209.1 L379.9,209.1 L393.8,209.9 L407.6,212.7 L420.1,218.9 L429.0,229.7 L430.8,243.6 L425.1,256.4 L416.3,267.2 L406.6,277.3 L396.8,287.3 L386.9,297.2 L377.0,307.1 L367.1,317.0 L357.2,326.9 L347.3,336.8 L337.4,346.7 L327.5,356.6 L317.6,366.5 L307.7,376.4 L297.8,386.3" stroke="url(#g)" stroke-width="0.56" fill="none" opacity="0.14"/><path d="M472.4,431.8 L482.9,422.5 L493.6,413.6 L504.7,405.0 L516.3,397.1 L528.4,390.1 L541.2,384.4 L554.5,380.1 L568.3,377.6 L582.3,376.6 L596.3,376.5 L610.3,376.3 L624.2,375.0 L637.8,371.7 L650.7,366.3 L662.7,359.1 L673.9,350.7 L684.6,341.6 L694.9,332.2 L705.0,322.5 L715.0,312.7 L725.0,302.9 L734.9,293.0" stroke="url(#g)" stroke-width="1.13" fill="none" opacity="0.21"/><path d="M377.9,553.4 L391.6,550.3 L405.5,548.8 L419.5,548.5 L433.5,548.4 L447.5,547.6 L461.2,545.1 L474.4,540.4 L486.8,533.7 L498.2,525.7 L509.0,516.8 L519.4,507.4 L529.6,497.8 L539.6,488.0 L549.6,478.2 L559.6,468.3 L569.5,458.5 L579.4,448.6 L589.3,438.7 L599.2,428.8 L609.1,418.9 L619.0,409.0 L628.9,399.1" stroke="url(#g)" stroke-width="1.02" fill="none" opacity="0.21"/><path d="M763.2,420.9 L769.0,408.1 L778.7,398.1 L788.6,388.2 L798.5,378.3 L808.4,368.4 L818.3,358.5 L828.2,348.6 L838.1,338.7 L848.0,328.8 L857.9,318.9 L867.8,309.0 L877.7,299.1 L887.6,289.2 L897.5,279.3 L907.4,269.4 L917.3,259.5 L927.2,249.6 L937.1,239.7 L947.0,229.8 L956.9,219.9 L966.8,210.0 L976.7,200.1" stroke="url(#g)" stroke-width="1.89" fill="none" opacity="0.13"/><path d="M513.0,280.3 L517.5,293.6 L510.4,305.6 L500.7,315.7 L490.9,325.7 L481.0,335.6 L471.1,345.5 L461.2,355.4 L451.3,365.3 L441.4,375.2 L431.5,385.1 L421.6,395.0 L411.7,404.9 L401.8,414.8 L391.9,424.7 L382.0,434.6 L372.1,444.5 L362.2,454.4 L352.3,464.2 L342.4,474.1 L332.5,484.0 L322.6,493.9 L312.7,503.8" stroke="url(#g)" stroke-width="1.61" fill="none" opacity="0.07"/><path d="M521.8,290.3 L514.2,302.0 L504.4,312.1 L494.5,322.0 L484.7,331.9 L474.8,341.8 L464.9,351.7 L455.0,361.6 L445.1,371.5 L435.2,381.4 L425.3,391.3 L415.4,401.2 L405.5,411.1 L395.6,421.0 L385.7,430.9 L375.8,440.8 L365.9,450.7 L356.0,460.6 L346.1,470.5 L336.2,480.4 L326.3,490.3 L316.4,500.2 L306.5,510.1" stroke="url(#g)" stroke-width="0.90" fill="none" opacity="0.07"/><path d="M353.8,337.9 L341.4,344.4 L330.8,353.6 L320.8,363.4 L310.9,373.2 L301.0,383.1 L291.1,393.0 L281.2,402.9 L271.3,412.8 L261.4,422.7 L251.5,432.6 L241.6,442.5 L231.7,452.4 L221.8,462.3 L211.9,472.2 L202.0,482.1 L192.1,492.0 L182.2,501.9 L172.3,511.8 L162.4,521.7 L152.5,531.6 L142.6,541.5 L132.7,551.4" stroke="url(#g)" stroke-width="0.82" fill="none" opacity="0.15"/><path d="M755.1,147.0 L765.2,137.3 L775.3,127.6 L785.4,118.0 L795.7,108.5 L806.2,99.2 L817.0,90.2 L828.1,81.7 L839.6,73.8 L851.7,66.8 L864.5,61.0 L877.8,56.7 L891.6,54.2 L905.5,53.1 L919.5,53.0 L933.5,52.9 L947.5,51.6 L961.1,48.3 L974.0,42.9 L986.0,35.7 L997.3,27.4 L1007.9,18.3 L1018.2,8.8" stroke="url(#g)" stroke-width="1.64" fill="none" opacity="0.14"/><path d="M58.4,160.6 L71.7,156.3 L84.2,150.0 L95.8,142.1 L106.7,133.4 L117.2,124.1 L127.4,114.5 L137.5,104.8 L147.5,95.0 L157.4,85.1 L167.3,75.2 L177.2,65.3 L187.1,55.4 L197.0,45.5 L206.9,35.6 L216.8,25.7 L226.7,15.8 L236.6,5.9 L246.5,-4.0 L256.4,-13.9 L266.3,-23.8 L276.2,-33.7 L286.1,-43.5" stroke="url(#g)" stroke-width="1.98" fill="none" opacity="0.07"/><path d="M713.7,416.3 L713.9,430.3 L723.2,440.8 L737.0,438.8 L747.4,429.4 L757.3,419.5 L767.2,409.6 L777.1,399.7 L787.0,389.8 L796.9,379.9 L806.8,370.0 L816.7,360.1 L826.6,350.2 L836.5,340.3 L846.4,330.4 L856.3,320.5 L866.2,310.6 L876.1,300.7 L886.0,290.8 L895.9,280.9 L905.8,271.0 L915.7,261.1 L925.6,251.2" stroke="url(#g)" stroke-width="1.89" fill="none" opacity="0.13"/><path d="M286.2,62.5 L289.3,76.1 L301.4,83.1 L314.1,77.1 L324.1,67.3 L334.0,57.4 L343.9,47.5 L353.8,37.6 L363.7,27.7 L373.6,17.8 L383.5,7.9 L393.4,-2.0 L403.3,-11.9 L413.2,-21.8 L423.1,-31.7 L433.0,-41.6 L442.9,-51.5 L452.8,-61.4 L462.7,-71.3 L472.6,-81.2 L482.5,-91.1 L492.4,-101.0 L502.3,-110.9" stroke="url(#g)" stroke-width="0.53" fill="none" opacity="0.06"/><path d="M54.4,46.3 L59.4,33.2 L61.1,19.3 L57.0,5.9 L45.4,-2.0 L31.8,1.1 L21.1,10.2 L11.1,20.0 L1.2,29.9 L-8.7,39.8 L-18.6,49.7 L-28.5,59.6 L-38.4,69.5 L-48.3,79.4 L-58.2,89.3 L-68.1,99.2 L-78.0,109.1 L-87.9,119.0 L-97.8,128.9 L-107.7,138.8 L-117.6,148.7 L-127.5,158.6 L-137.4,168.5" stroke="url(#g)" stroke-width="1.24" fill="none" opacity="0.27"/><path d="M474.5,31.0 L483.5,41.7 L496.1,47.6 L509.9,49.9 L523.9,50.3 L537.9,50.3 L551.9,51.1 L565.7,53.7 L578.3,59.7 L587.5,70.3 L589.6,84.1 L584.3,97.0 L575.5,107.9 L565.9,118.1 L556.0,128.0 L546.1,138.0 L536.2,147.9 L526.3,157.8 L516.4,167.7 L506.5,177.6 L496.6,187.5 L486.7,197.4 L476.8,207.3" stroke="url(#g)" stroke-width="1.57" fill="none" opacity="0.06"/><path d="M10.7,116.0 L22.6,108.6 L35.2,102.4 L48.3,97.6 L62.0,94.5 L75.9,93.0 L89.9,92.7 L103.9,92.7 L117.9,91.9 L131.6,89.3 L144.8,84.6 L157.1,77.9 L168.6,69.9 L179.4,61.0 L189.8,51.6 L200.0,42.0 L210.0,32.3 L220.0,22.4 L229.9,12.6 L239.9,2.7 L249.8,-7.2 L259.7,-17.1 L269.6,-27.0" stroke="url(#g)" stroke-width="1.25" fill="none" opacity="0.18"/><path d="M313.7,318.7 L324.3,327.8 L328.8,341.1 L325.2,354.6 L317.1,366.0 L307.6,376.3 L297.8,386.3 L287.9,396.2 L278.0,406.1 L268.1,416.0 L258.2,425.9 L248.3,435.8 L238.4,445.7 L228.5,455.6 L218.6,465.5 L208.7,475.4 L198.8,485.3 L188.9,495.2 L179.0,505.1 L169.1,515.0 L159.2,524.9 L149.3,534.8 L139.4,544.7" stroke="url(#g)" stroke-width="0.74" fill="none" opacity="0.12"/><path d="M462.7,243.8 L448.8,241.7 L436.7,248.7 L426.3,258.1 L416.3,267.9 L406.4,277.7 L396.5,287.6 L386.5,297.5 L376.7,307.4 L366.8,317.3 L356.9,327.2 L347.0,337.1 L337.1,347.0 L327.2,356.9 L317.3,366.8 L307.4,376.7 L297.5,386.6 L287.6,396.5 L277.7,406.4 L267.8,416.3 L257.9,426.2 L248.0,436.1 L238.1,446.0" stroke="url(#g)" stroke-width="1.17" fill="none" opacity="0.26"/><path d="M86.7,233.1 L73.9,238.8 L60.0,240.3 L47.2,234.5 L41.5,221.7 L44.4,208.0 L51.5,196.0 L60.1,184.9 L69.4,174.4 L79.0,164.2 L88.7,154.2 L98.5,144.2 L108.4,134.3 L118.3,124.4 L128.2,114.4 L138.1,104.5 L148.0,94.6 L157.9,84.7 L167.8,74.8 L177.7,64.9 L187.6,55.0 L197.5,45.1 L207.4,35.2" stroke="url(#g)" stroke-width="1.76" fill="none" opacity="0.28"/><path d="M187.0,399.1 L201.0,399.7 L214.8,401.9 L227.7,407.3 L237.7,417.2 L241.1,430.8 L236.6,444.0 L228.1,455.2 L218.5,465.4 L208.7,475.3 L198.8,485.2 L188.9,495.1 L179.0,505.1 L169.1,514.9 L159.2,524.8 L149.3,534.7 L139.4,544.6 L129.5,554.5 L119.6,564.4 L109.7,574.3 L99.8,584.2 L89.9,594.1 L80.0,604.0" stroke="url(#g)" stroke-width="0.63" fill="none" opacity="0.09"/><path d="M761.6,525.2 L769.4,536.8 L781.6,543.8 L795.3,546.7 L809.3,547.4 L823.3,547.4 L837.2,547.8 L851.1,550.0 L864.1,555.1 L874.3,564.7 L878.2,578.1 L874.2,591.5 L865.9,602.7 L856.3,613.0 L846.5,623.0 L836.6,632.9 L826.7,642.8 L816.8,652.7 L806.9,662.6 L797.0,672.5 L787.1,682.4 L777.2,692.3 L767.3,702.2" stroke="url(#g)" stroke-width="1.76" fill="none" opacity="0.07"/><path d="M796.7,314.3 L785.9,323.1 L774.3,331.0 L761.6,336.8 L747.7,338.5 L734.8,333.0 L728.8,320.4 L731.5,306.6 L738.5,294.5 L747.1,283.4 L756.3,272.9 L765.9,262.7 L775.7,252.7 L785.5,242.7 L795.3,232.8 L805.2,222.8 L815.1,212.9 L825.0,203.0 L834.9,193.1 L844.8,183.2 L854.7,173.3 L864.6,163.4 L874.5,153.5" stroke="url(#g)" stroke-width="1.29" fill="none" opacity="0.27"/><path d="M366.8,375.5 L370.5,362.0 L367.5,348.3 L355.8,340.7 L342.3,344.6 L331.4,353.3 L321.2,363.0 L311.3,372.8 L301.4,382.7 L291.5,392.6 L281.6,402.5 L271.7,412.4 L261.8,422.3 L251.9,432.2 L242.0,442.1 L232.1,452.0 L222.2,461.9 L212.3,471.8 L202.4,481.7 L192.5,491.6 L182.6,501.5 L172.7,511.4 L162.8,521.3" stroke="url(#g)" stroke-width="0.55" fill="none" opacity="0.09"/><path d="M66.1,99.4 L80.1,98.8 L94.1,98.8 L108.1,98.3 L122.0,96.3 L135.3,92.1 L147.9,85.9 L159.5,78.2 L170.5,69.5 L181.0,60.2 L191.2,50.7 L201.3,40.9 L211.3,31.1 L221.2,21.3 L231.1,11.4 L241.1,1.5 L251.0,-8.4 L260.9,-18.3 L270.8,-28.2 L280.7,-38.1 L290.6,-48.0 L300.5,-57.9 L310.4,-67.8" stroke="url(#g)" stroke-width="0.67" fill="none" opacity="0.11"/><path d="M70.2,379.4 L57.1,384.3 L43.1,384.4 L31.7,376.3 L31.3,362.3 L40.1,351.4 L50.0,341.5 L59.9,331.6 L69.8,321.7 L79.7,311.8 L89.6,301.9 L99.5,292.0 L109.4,282.1 L119.3,272.2 L129.2,262.3 L139.1,252.4 L149.0,242.5 L158.9,232.6 L168.8,222.7 L178.7,212.8 L188.6,202.9 L198.5,193.0 L208.4,183.1" stroke="url(#g)" stroke-width="0.98" fill="none" opacity="0.21"/><path d="M148.6,258.0 L149.2,244.0 L158.2,233.3 L168.1,223.4 L178.0,213.5 L187.9,203.6 L197.8,193.7 L207.7,183.8 L217.6,173.9 L227.5,164.0 L237.4,154.1 L247.3,144.2 L257.2,134.3 L267.1,124.4 L277.0,114.5 L286.9,104.6 L296.8,94.7 L306.7,84.8 L316.6,74.9 L326.5,65.0 L336.4,55.1 L346.3,45.2 L356.2,35.3" stroke="url(#g)" stroke-width="1.29" fill="none" opacity="0.12"/><circle cx="738.5" cy="553.8" r="3.8" fill="#e8d5b7" opacity="0.85"/><circle cx="362.5" cy="303.9" r="1.2" fill="#e8d5b7" opacity="0.33"/><circle cx="722.4" cy="146.9" r="3.9" fill="#e8d5b7" opacity="0.89"/><circle cx="668.0" cy="512.3" r="3.6" fill="#e8d5b7" opacity="0.82"/><circle cx="613.4" cy="150.8" r="3.6" fill="#e8d5b7" opacity="0.83"/><circle cx="515.7" cy="176.0" r="2.4" fill="#e8d5b7" opacity="0.57"/><circle cx="279.5" cy="451.8" r="2.7" fill="#e8d5b7" opacity="0.65"/><circle cx="361.1" cy="73.7" r="2.3" fill="#e8d5b7" opacity="0.56"/><circle cx="490.9" cy="171.8" r="2.8" fill="#e8d5b7" opacity="0.67"/><circle cx="234.7" cy="145.4" r="2.5" fill="#e8d5b7" opacity="0.60"/><circle cx="718.0" cy="162.6" r="3.7" fill="#e8d5b7" opacity="0.84"/><circle cx="663.0" cy="88.6" r="2.8" fill="#e8d5b7" opacity="0.66"/><circle cx="87.9" cy="155.5" r="2.6" fill="#e8d5b7" opacity="0.61"/><circle cx="267.8" cy="405.3" r="1.6" fill="#e8d5b7" opacity="0.42"/><circle cx="1.7" cy="5.4" r="4.0" fill="#e8d5b7" opacity="0.89"/><circle cx="777.6" cy="573.7" r="3.5" fill="#e8d5b7" opacity="0.80"/><circle cx="58.7" cy="426.6" r="2.7" fill="#e8d5b7" opacity="0.63"/><circle cx="422.3" cy="533.7" r="2.7" fill="#e8d5b7" opacity="0.65"/><circle cx="216.8" cy="475.6" r="1.7" fill="#e8d5b7" opacity="0.45"/><circle cx="603.1" cy="536.1" r="3.2" fill="#e8d5b7" opacity="0.74"/><circle cx="605.7" cy="558.5" r="3.3" fill="#e8d5b7" opacity="0.76"/><circle cx="166.0" cy="433.8" r="2.7" fill="#e8d5b7" opacity="0.65"/><circle cx="17.3" cy="513.8" r="2.3" fill="#e8d5b7" opacity="0.56"/><circle cx="796.9" cy="145.7" r="3.9" fill="#e8d5b7" opacity="0.88"/><circle cx="38.5" cy="388.5" r="3.1" fill="#e8d5b7" opacity="0.73"/><circle cx="270.2" cy="23.4" r="2.9" fill="#e8d5b7" opacity="0.69"/></g><circle cx="400" cy="252" r="60" fill="none" stroke="#e8d5b7" stroke-width="1" opacity="0.25"/><circle cx="400" cy="252" r="110" fill="none" stroke="#a78b71" stroke-width="1" opacity="0.15"/></svg>