<svg xmlns="http://www.w3.org/2000/svg" viewBox="0 0 800 600" width="800" height="600"><defs><linearGradient id="g" x1="0" y1="0" x2="1" y2="1"><stop offset="0.1" stop-color="#a78b71"/><stop offset="0.9" stop-color="#c9b8a0"/></linearGradient><radialGradient id="bg" cx="50%" cy="40%" r="75%"><stop offset="0" stop-color="#16120d"/><stop offset="1" stop-color="#0a0a0a"/></radialGradient></defs><rect width="800" height="600" fill="url(#bg)"/><g><path d="M729.7,547.3 L743.7,547.3 L757.7,546.7 L771.5,544.7 L784.9,540.6 L797.4,534.4 L809.1,526.6 L820.1,517.9 L830.6,508.7 L840.8,499.1 L850.9,489.4 L860.8,479.6 L870.8,469.7 L880.7,459.8 L890.6,449.9 L900.5,440.1 L910.4,430.2 L920.3,420.3 L930.2,410.4 L940.1,400.5 L950.0,390.6 L959.9,380.7 L969.8,370.8" stroke="url(#g)" stroke-width="1.96" fill="none" opacity="0.26"/><path d="M490.3,175.1 L496.0,187.8 L509.6,191.0 L521.0,183.0 L531.0,173.1 L540.9,163.2 L550.8,153.3 L560.7,143.4 L570.6,133.5 L580.5,123.6 L590.4,113.7 L600.3,103.8 L610.2,93.9 L620.1,84.0 L630.0,74.1 L639.9,64.2 L649.8,54.3 L659.7,44.4 L669.6,34.5 L679.5,24.6 L689.4,14.7 L699.3,4.8 L709.2,-5.1" stroke="url(#g)" stroke-width="0.50" fill="none" opacity="0.07"/><path d="M127.6,58.4 L129.3,72.3 L123.6,85.1 L114.7,96.0 L105.1,106.1 L95.2,116.0 L85.3,125.9 L75.4,135.8 L65.6,145.7 L55.7,155.6 L45.8,165.5 L35.9,175.4 L26.0,185.3 L16.1,195.2 L6.2,205.1 L-3.7,215.0 L-13.6,224.9 L-23.5,234.8 L-33.4,244.7 L-43.3,254.6 L-53.2,264.5 L-63.1,274.4 L-73.0,284.3" stroke="url(#g)" stroke-width="1.63" fill="none" opacity="0.06"/><path d="M201.2,278.6 L215.2,278.2 L229.2,278.2 L243.2,277.5 L257.0,275.3 L270.3,270.8 L282.7,264.4 L294.3,256.5 L305.1,247.7 L315.6,238.4 L325.8,228.8 L335.8,219.0 L345.8,209.2 L355.8,199.3 L365.7,189.5 L375.6,179.6 L385.5,169.7 L395.4,159.8 L405.3,149.9 L415.2,140.0 L425.1,130.1 L435.0,120.2 L444.9,110.3" stroke="url(#g)" stroke-width="2.03" fill="none" opacity="0.26"/><path d="M468.0,276.1 L455.3,270.2 L451.6,256.7 L459.2,244.9 L469.1,235.0 L479.0,225.1 L488.9,215.2 L498.8,205.3 L508.7,195.4 L518.6,185.5 L528.5,175.6 L538.4,165.7 L548.3,155.8 L558.2,145.9 L568.1,136.0 L578.0,126.1 L587.9,116.2 L597.8,106.3 L607.7,96.4 L617.6,86.5 L627.5,76.6 L637.4,66.7 L647.3,56.8" stroke="url(#g)" stroke-width="1.70" fill="none" opacity="0.22"/><path d="M634.2,426.1 L641.3,414.1 L645.3,400.6 L642.8,386.8 L631.5,378.6 L617.9,381.9 L606.9,390.5 L596.7,400.1 L586.8,410.0 L576.9,419.8 L567.0,429.7 L557.1,439.6 L547.2,449.5 L537.3,459.4 L527.4,469.3 L517.5,479.2 L507.6,489.1 L497.7,499.0 L487.8,508.9 L477.9,518.8 L468.0,528.7 L458.1,538.6 L448.2,548.5" stroke="url(#g)" stroke-width="0.73" fill="none" opacity="0.11"/><path d="M84.6,255.9 L76.3,267.2 L66.5,277.2 L56.7,287.1 L46.8,297.0 L36.9,306.9 L27.0,316.8 L17.1,326.7 L7.2,336.6 L-2.7,346.5 L-12.6,356.4 L-22.5,366.3 L-32.4,376.2 L-42.3,386.1 L-52.2,396.0 L-62.1,405.9 L-72.0,415.8 L-81.9,425.7 L-91.8,435.6 L-101.7,445.5 L-111.6,455.4 L-121.5,465.3 L-131.4,475.2" stroke="url(#g)" stroke-width="2.02" fill="none" opacity="0.27"/><path d="M644.4,446.4 L656.7,453.0 L658.7,466.9 L650.6,478.3 L640.8,488.3 L630.9,498.2 L621.0,508.1 L611.1,518.0 L601.2,527.9 L591.3,537.8 L581.4,547.7 L571.5,557.6 L561.6,567.5 L551.7,577.4 L541.8,587.3 L531.9,597.2 L522.0,607.1 L512.1,617.0 L502.2,626.9 L492.3,636.8 L482.4,646.7 L472.5,656.6 L462.6,666.5" stroke="url(#g)" stroke-width="1.68" fill="none" opacity="0.13"/><path d="M91.0,89.3 L95.1,102.7 L91.3,116.1 L83.0,127.4 L73.4,137.6 L63.6,147.6 L53.7,157.5 L43.8,167.4 L33.9,177.3 L24.1,187.2 L14.2,197.1 L4.3,207.0 L-5.6,216.9 L-15.5,226.8 L-25.4,236.7 L-35.3,246.6 L-45.2,256.5 L-55.1,266.4 L-65.0,276.3 L-74.9,286.2 L-84.8,296.1 L-94.7,306.0 L-104.6,315.9" stroke="url(#g)" stroke-width="0.65" fill="none" opacity="0.22"/><path d="M697.1,322.9 L683.4,320.2 L671.2,327.0 L660.7,336.3 L650.7,346.1 L640.7,356.0 L630.8,365.9 L620.9,375.8 L611.0,385.6 L601.1,395.5 L591.2,405.4 L581.3,415.3 L571.4,425.2 L561.5,435.1 L551.6,445.0 L541.7,454.9 L531.8,464.8 L521.9,474.7 L512.0,484.6 L502.1,494.5 L492.2,504.4 L482.3,514.3 L472.4,524.2" stroke="url(#g)" stroke-width="1.78" fill="none" opacity="0.17"/><path d="M397.4,323.3 L396.9,309.3 L405.7,298.4 L415.5,288.5 L425.4,278.6 L435.3,268.7 L445.2,258.8 L455.1,248.9 L465.0,239.0 L474.9,229.1 L484.8,219.2 L494.7,209.3 L504.6,199.4 L514.5,189.5 L524.4,179.6 L534.3,169.7 L544.2,159.8 L554.1,149.9 L564.0,140.0 L573.9,130.1 L583.8,120.2 L593.7,110.3 L603.6,100.4" stroke="url(#g)" stroke-width="0.78" fill="none" opacity="0.09"/><path d="M343.8,172.7 L357.7,171.0 L371.2,167.3 L383.9,161.5 L395.8,154.0 L406.8,145.4 L417.4,136.2 L427.7,126.7 L437.8,117.0 L447.8,107.2 L457.7,97.4 L467.6,87.5 L477.6,77.6 L487.5,67.7 L497.4,57.8 L507.3,47.9 L517.2,38.0 L527.1,28.1 L537.0,18.2 L546.9,8.3 L556.8,-1.6 L566.7,-11.5 L576.6,-21.4" stroke="url(#g)" stroke-width="2.07" fill="none" opacity="0.14"/><path d="M384.6,182.0 L391.1,169.7 L399.5,158.5 L408.7,147.9 L418.3,137.7 L428.0,127.6 L437.8,117.6 L447.7,107.6 L457.5,97.7 L467.4,87.8 L477.3,77.9 L487.2,68.0 L497.1,58.1 L507.0,48.2 L516.9,38.3 L526.8,28.4 L536.7,18.5 L546.6,8.6 L556.5,-1.3 L566.4,-11.2 L576.3,-21.1 L586.2,-31.0 L596.1,-40.9" stroke="url(#g)" stroke-width="0.81" fill="none" opacity="0.27"/><path d="M725.5,225.1 L734.7,235.6 L736.8,249.4 L731.5,262.4 L722.7,273.3 L713.1,283.5 L703.3,293.4 L693.4,303.3 L683.5,313.2 L673.6,323.1 L663.7,333.0 L653.8,342.9 L643.9,352.8 L634.0,362.7 L624.1,372.6 L614.2,382.5 L604.3,392.4 L594.4,402.3 L584.5,412.2 L574.6,422.1 L564.7,432.0 L554.8,441.9 L544.9,451.8" stroke="url(#g)" stroke-width="1.02" fill="none" opacity="0.23"/><path d="M230.5,588.4 L239.7,598.9 L252.5,604.6 L266.3,606.8 L280.3,607.1 L294.3,607.2 L308.3,608.0 L322.0,610.7 L334.6,616.9 L343.6,627.7 L345.3,641.5 L339.7,654.4 L330.9,665.2 L321.2,675.4 L311.4,685.3 L301.5,695.2 L291.6,705.1 L281.7,715.0 L271.8,724.9 L261.9,734.8 L252.0,744.7 L242.1,754.6 L232.2,764.5" stroke="url(#g)" stroke-width="1.84" fill="none" opacity="0.22"/><path d="M518.4,199.3 L519.9,185.4 L529.2,174.9 L539.1,165.0 L549.0,155.1 L558.9,145.2 L568.8,135.3 L578.7,125.4 L588.6,115.5 L598.5,105.6 L608.4,95.7 L618.3,85.8 L628.2,75.9 L638.1,66.0 L648.0,56.1 L657.9,46.2 L667.8,36.3 L677.7,26.4 L687.6,16.5 L697.5,6.6 L707.4,-3.3 L717.3,-13.2 L727.2,-23.1" stroke="url(#g)" stroke-width="1.27" fill="none" opacity="0.27"/><path d="M617.9,586.7 L625.0,574.6 L630.3,561.7 L632.6,547.8 L629.4,534.2 L618.8,525.1 L604.9,526.7 L593.9,535.4 L583.9,545.2 L574.0,555.1 L564.1,565.0 L554.2,574.9 L544.3,584.8 L534.4,594.7 L524.5,604.6 L514.6,614.5 L504.7,624.4 L494.8,634.3 L484.9,644.2 L475.0,654.1 L465.1,664.0 L455.2,673.9 L445.3,683.8" stroke="url(#g)" stroke-width="2.05" fill="none" opacity="0.08"/><path d="M400.7,481.6 L414.7,481.6 L428.7,482.0 L442.6,483.9 L455.8,488.6 L466.4,497.6 L471.2,510.8 L467.9,524.4 L459.8,535.8 L450.3,546.1 L440.5,556.1 L430.6,566.0 L420.7,576.0 L410.8,585.9 L400.9,595.8 L391.0,605.7 L381.1,615.6 L371.2,625.5 L361.3,635.4 L351.4,645.3 L341.5,655.1 L331.6,665.0 L321.7,674.9" stroke="url(#g)" stroke-width="1.37" fill="none" opacity="0.17"/><path d="M46.6,366.1 L51.3,352.9 L52.5,339.0 L47.6,325.8 L35.4,318.9 L22.0,323.1 L11.5,332.3 L1.6,342.2 L-8.3,352.1 L-18.2,362.0 L-28.1,371.9 L-38.0,381.8 L-47.9,391.7 L-57.8,401.6 L-67.7,411.5 L-77.6,421.4 L-87.5,431.3 L-97.4,441.2 L-107.3,451.1 L-117.2,461.0 L-127.1,470.9 L-137.0,480.8 L-146.9,490.7" stroke="url(#g)" stroke-width="0.76" fill="none" opacity="0.24"/><path d="M739.1,301.5 L733.3,288.8 L719.9,284.8 L707.3,291.1 L696.8,300.3 L686.7,310.1 L676.8,319.9 L666.9,329.8 L657.0,339.7 L647.1,349.6 L637.2,359.5 L627.3,369.4 L617.4,379.3 L607.5,389.2 L597.6,399.1 L587.7,409.0 L577.8,418.9 L567.9,428.8 L558.0,438.7 L548.1,448.6 L538.2,458.5 L528.3,468.4 L518.4,478.3" stroke="url(#g)" stroke-width="1.47" fill="none" opacity="0.16"/><path d="M435.0,84.1 L448.8,82.0 L462.2,77.9 L474.8,71.7 L486.4,63.9 L497.4,55.2 L507.9,46.0 L518.1,36.4 L528.2,26.7 L538.2,16.9 L548.1,7.0 L558.0,-2.9 L567.9,-12.8 L577.8,-22.7 L587.7,-32.6 L597.6,-42.4 L607.5,-52.3 L617.4,-62.2 L627.3,-72.1 L637.2,-82.0 L647.1,-91.9 L657.0,-101.8 L666.9,-111.7" stroke="url(#g)" stroke-width="1.31" fill="none" opacity="0.10"/><path d="M213.0,108.6 L216.9,122.0 L209.5,133.9 L199.7,144.0 L189.8,153.9 L179.9,163.8 L170.0,173.7 L160.1,183.6 L150.2,193.5 L140.3,203.4 L130.4,213.3 L120.5,223.2 L110.6,233.1 L100.7,243.0 L90.9,252.9 L81.0,262.8 L71.1,272.7 L61.2,282.6 L51.3,292.5 L41.4,302.4 L31.5,312.3 L21.6,322.2 L11.7,332.1" stroke="url(#g)" stroke-width="1.51" fill="none" opacity="0.09"/><path d="M682.8,490.2 L676.1,477.9 L662.8,473.5 L650.2,479.7 L640.0,489.2 L630.1,499.1 L620.1,509.0 L610.2,518.9 L600.4,528.8 L590.5,538.7 L580.6,548.6 L570.7,558.5 L560.8,568.4 L550.9,578.3 L541.0,588.2 L531.1,598.1 L521.2,608.0 L511.3,617.9 L501.4,627.8 L491.5,637.7 L481.6,647.6 L471.7,657.5 L461.8,667.4" stroke="url(#g)" stroke-width="1.59" fill="none" opacity="0.28"/><path d="M657.3,348.2 L644.6,354.0 L634.0,363.1 L623.9,372.9 L614.0,382.7 L604.1,392.6 L594.2,402.5 L584.3,412.4 L574.4,422.3 L564.5,432.2 L554.6,442.1 L544.7,452.0 L534.8,461.9 L524.9,471.8 L515.0,481.7 L505.1,491.6 L495.2,501.5 L485.3,511.4 L475.4,521.3 L465.5,531.2 L455.6,541.1 L445.7,551.0 L435.8,560.9" stroke="url(#g)" stroke-width="1.92" fill="none" opacity="0.18"/><path d="M704.5,550.1 L718.4,548.6 L732.4,548.3 L746.4,548.3 L760.4,547.5 L774.1,544.9 L787.3,540.2 L799.6,533.5 L811.1,525.4 L821.9,516.5 L832.3,507.2 L842.5,497.5 L852.5,487.8 L862.5,478.0 L872.4,468.1 L882.3,458.2 L892.2,448.3 L902.1,438.4 L912.1,428.5 L922.0,418.6 L931.9,408.7 L941.8,398.8 L951.7,389.0" stroke="url(#g)" stroke-width="1.89" fill="none" opacity="0.10"/><path d="M299.0,237.9 L311.9,232.4 L323.9,225.2 L335.1,216.8 L345.7,207.7 L356.0,198.3 L366.1,188.6 L376.2,178.8 L386.1,169.0 L396.1,159.1 L406.0,149.2 L415.9,139.3 L425.8,129.4 L435.7,119.5 L445.6,109.6 L455.5,99.7 L465.4,89.8 L475.3,79.9 L485.2,70.0 L495.1,60.1 L505.0,50.2 L514.9,40.3 L524.8,30.4" stroke="url(#g)" stroke-width="1.70" fill="none" opacity="0.07"/><path d="M703.4,469.0 L696.4,456.9 L683.0,452.9 L670.6,459.3 L660.4,468.8 L650.4,478.7 L640.5,488.6 L630.6,498.5 L620.7,508.4 L610.8,518.3 L600.9,528.2 L591.0,538.1 L581.1,548.0 L571.2,557.9 L561.3,567.8 L551.4,577.7 L541.5,587.6 L531.6,597.5 L521.7,607.4 L511.8,617.3 L501.9,627.2 L492.0,637.1 L482.1,647.0" stroke="url(#g)" stroke-width="1.71" fill="none" opacity="0.13"/><path d="M279.1,143.6 L287.3,132.3 L294.5,120.3 L300.1,107.4 L302.7,93.7 L300.1,79.9 L290.2,70.0 L276.2,70.6 L265.0,79.0 L255.0,88.7 L245.1,98.6 L235.2,108.5 L225.3,118.4 L215.4,128.3 L205.5,138.2 L195.6,148.1 L185.7,158.0 L175.8,167.9 L165.9,177.8 L156.0,187.7 L146.1,197.6 L136.2,207.5 L126.3,217.4" stroke="url(#g)" stroke-width="0.74" fill="none" opacity="0.13"/><path d="M659.4,515.5 L653.5,502.8 L640.7,497.1 L627.7,502.4 L617.4,511.8 L607.4,521.7 L597.5,531.6 L587.6,541.5 L577.7,551.4 L567.8,561.3 L557.9,571.2 L548.0,581.1 L538.1,591.0 L528.2,600.9 L518.4,610.8 L508.5,620.7 L498.6,630.6 L488.7,640.5 L478.8,650.4 L468.9,660.3 L459.0,670.2 L449.1,680.1 L439.2,690.0" stroke="url(#g)" stroke-width="0.72" fill="none" opacity="0.24"/><path d="M339.3,356.6 L352.3,351.4 L362.4,341.7 L372.3,331.8 L382.2,321.9 L392.1,312.0 L402.0,302.1 L411.9,292.2 L421.8,282.3 L431.7,272.4 L441.6,262.5 L451.5,252.6 L461.4,242.7 L471.3,232.8 L481.2,222.9 L491.1,213.0 L501.0,203.1 L510.9,193.2 L520.8,183.3 L530.7,173.4 L540.6,163.5 L550.5,153.6 L560.4,143.7" stroke="url(#g)" stroke-width="1.39" fill="none" opacity="0.10"/><path d="M76.7,444.3 L90.5,442.0 L103.7,437.5 L116.2,431.0 L127.7,423.1 L138.6,414.3 L149.0,404.9 L159.2,395.4 L169.3,385.6 L179.2,375.8 L189.2,365.9 L199.1,356.1 L209.0,346.2 L218.9,336.3 L228.8,326.4 L238.7,316.5 L248.6,306.6 L258.5,296.7 L268.4,286.8 L278.3,276.9 L288.2,267.0 L298.1,257.1 L308.0,247.2" stroke="url(#g)" stroke-width="2.10" fill="none" opacity="0.17"/><path d="M642.1,470.4 L642.2,484.4 L633.5,495.4 L623.7,505.4 L613.8,515.3 L603.9,525.2 L594.0,535.1 L584.1,545.0 L574.2,554.9 L564.3,564.8 L554.4,574.7 L544.5,584.6 L534.6,594.5 L524.7,604.4 L514.8,614.3 L504.9,624.2 L495.0,634.1 L485.1,644.0 L475.2,653.9 L465.3,663.8 L455.4,673.7 L445.5,683.6 L435.6,693.5" stroke="url(#g)" stroke-width="0.72" fill="none" opacity="0.18"/><path d="M119.7,118.9 L106.7,113.8 L93.8,119.5 L83.2,128.6 L73.1,138.3 L63.2,148.1 L53.3,158.0 L43.4,167.9 L33.5,177.8 L23.6,187.7 L13.7,197.6 L3.8,207.5 L-6.1,217.4 L-16.0,227.3 L-25.9,237.2 L-35.8,247.1 L-45.7,257.0 L-55.6,266.9 L-65.5,276.8 L-75.4,286.7 L-85.3,296.6 L-95.2,306.5 L-105.1,316.4" stroke="url(#g)" stroke-width="0.98" fill="none" opacity="0.27"/><path d="M620.8,559.2 L617.4,545.6 L606.5,536.7 L592.7,538.7 L581.8,547.5 L571.8,557.3 L561.9,567.2 L552.0,577.1 L542.1,587.0 L532.2,596.9 L522.3,606.8 L512.4,616.7 L502.5,626.6 L492.6,636.5 L482.7,646.4 L472.8,656.3 L462.9,666.2 L453.0,676.1 L443.1,686.0 L433.2,695.9 L423.3,705.8 L413.4,715.7 L403.5,725.6" stroke="url(#g)" stroke-width="0.66" fill="none" opacity="0.10"/><path d="M508.7,133.3 L499.6,143.9 L491.3,155.1 L484.5,167.4 L481.3,181.0 L484.9,194.5 L497.6,200.6 L509.9,194.0 L519.9,184.2 L529.8,174.3 L539.7,164.4 L549.6,154.5 L559.5,144.6 L569.4,134.7 L579.3,124.8 L589.2,114.9 L599.1,105.0 L609.0,95.1 L618.9,85.2 L628.8,75.3 L638.7,65.4 L648.6,55.5 L658.5,45.6" stroke="url(#g)" stroke-width="1.72" fill="none" opacity="0.18"/><path d="M61.2,555.8 L47.7,552.3 L39.4,541.0 L40.3,527.0 L46.6,514.5 L54.9,503.3 L64.0,492.7 L73.6,482.4 L83.3,472.3 L93.1,462.3 L102.9,452.4 L112.8,442.4 L122.7,432.5 L132.6,422.6 L142.5,412.7 L152.4,402.8 L162.3,392.9 L172.2,383.0 L182.1,373.1 L192.0,363.2 L201.9,353.3 L211.8,343.4 L221.7,333.5" stroke="url(#g)" stroke-width="1.65" fill="none" opacity="0.09"/><path d="M465.6,32.3 L479.6,32.2 L493.5,31.1 L507.2,28.2 L520.2,23.1 L532.4,16.1 L543.7,7.8 L554.4,-1.2 L564.8,-10.6 L574.9,-20.2 L584.9,-30.0 L594.9,-39.8 L604.8,-49.7 L614.8,-59.6 L624.7,-69.5 L634.6,-79.4 L644.5,-89.3 L654.4,-99.2 L664.3,-109.1 L674.2,-119.0 L684.1,-128.9 L694.0,-138.8 L703.9,-148.7" stroke="url(#g)" stroke-width="0.95" fill="none" opacity="0.10"/><path d="M177.3,232.3 L180.8,218.7 L179.8,204.8 L171.8,193.3 L158.0,190.9 L146.0,198.2 L135.9,207.9 L126.0,217.8 L116.1,227.7 L106.2,237.6 L96.3,247.4 L86.4,257.3 L76.5,267.2 L66.6,277.1 L56.7,287.0 L46.8,296.9 L36.9,306.8 L27.0,316.7 L17.1,326.6 L7.2,336.5 L-2.7,346.4 L-12.6,356.3 L-22.5,366.2" stroke="url(#g)" stroke-width="1.36" fill="none" opacity="0.23"/><path d="M468.9,132.2 L460.2,121.2 L460.6,107.2 L466.7,94.6 L475.0,83.3 L484.1,72.7 L493.6,62.4 L503.3,52.3 L513.1,42.3 L523.0,32.3 L532.8,22.4 L542.7,12.5 L552.6,2.6 L562.5,-7.3 L572.4,-17.2 L582.3,-27.1 L592.2,-37.0 L602.1,-46.9 L612.0,-56.8 L621.9,-66.7 L631.8,-76.6 L641.7,-86.5 L651.6,-96.4" stroke="url(#g)" stroke-width="1.29" fill="none" opacity="0.19"/><path d="M102.3,380.1 L116.3,379.8 L130.3,379.8 L144.3,378.9 L158.0,376.2 L171.1,371.3 L183.4,364.5 L194.8,356.4 L205.6,347.5 L216.0,338.1 L226.1,328.5 L236.2,318.7 L246.2,308.9 L256.1,299.0 L266.0,289.2 L275.9,279.3 L285.8,269.4 L295.7,259.5 L305.6,249.6 L315.5,239.7 L325.4,229.8 L335.3,219.9 L345.2,210.0" stroke="url(#g)" stroke-width="0.52" fill="none" opacity="0.08"/><path d="M611.5,338.2 L621.0,348.5 L623.5,362.3 L618.4,375.3 L609.7,386.3 L600.1,396.5 L590.2,406.4 L580.4,416.3 L570.5,426.2 L560.6,436.1 L550.7,446.0 L540.8,455.9 L530.9,465.8 L521.0,475.7 L511.1,485.6 L501.2,495.5 L491.3,505.4 L481.4,515.3 L471.5,525.2 L461.6,535.1 L451.7,545.0 L441.8,554.9 L431.9,564.8" stroke="url(#g)" stroke-width="0.65" fill="none" opacity="0.17"/><path d="M93.5,392.4 L107.5,392.3 L121.5,392.2 L135.5,390.8 L149.1,387.6 L162.0,382.2 L174.0,375.0 L185.2,366.6 L195.9,357.5 L206.2,348.1 L216.3,338.4 L226.4,328.6 L236.3,318.8 L246.2,308.9 L256.2,299.0 L266.1,289.1 L276.0,279.2 L285.9,269.3 L295.8,259.4 L305.7,249.5 L315.6,239.6 L325.5,229.7 L335.4,219.8" stroke="url(#g)" stroke-width="0.64" fill="none" opacity="0.15"/><path d="M529.2,162.6 L543.0,160.2 L553.3,150.8 L563.2,140.9 L573.1,131.0 L583.0,121.1 L592.9,111.2 L602.8,101.3 L612.7,91.4 L622.6,81.5 L632.5,71.6 L642.4,61.7 L652.3,51.8 L662.2,41.9 L672.1,32.0 L682.0,22.1 L691.9,12.2 L701.8,2.3 L711.7,-7.6 L721.6,-17.5 L731.5,-27.4 L741.4,-37.3 L751.3,-47.2" stroke="url(#g)" stroke-width="0.91" fill="none" opacity="0.20"/><path d="M121.8,47.7 L129.8,59.2 L130.1,73.2 L123.6,85.6 L114.5,96.3 L104.8,106.4 L95.0,116.3 L85.1,126.2 L75.2,136.1 L65.3,146.0 L55.4,155.9 L45.5,165.8 L35.6,175.7 L25.7,185.6 L15.8,195.5 L5.9,205.4 L-4.0,215.3 L-13.9,225.2 L-23.8,235.1 L-33.7,245.0 L-43.6,254.9 L-53.5,264.8 L-63.4,274.7" stroke="url(#g)" stroke-width="0.57" fill="none" opacity="0.12"/><path d="M401.3,540.3 L412.6,548.6 L418.4,561.3 L416.2,575.1 L408.5,586.9 L399.2,597.2 L389.4,607.3 L379.5,617.2 L369.6,627.1 L359.7,637.0 L349.8,646.9 L339.9,656.8 L330.0,666.7 L320.1,676.6 L310.2,686.5 L300.3,696.4 L290.4,706.3 L280.5,716.2 L270.6,726.1 L260.7,736.0 L250.8,745.9 L240.9,755.8 L231.0,765.7" stroke="url(#g)" stroke-width="1.60" fill="none" opacity="0.21"/><path d="M662.4,94.5 L648.5,96.3 L635.6,90.8 L631.3,77.5 L638.6,65.5 L648.5,55.6 L658.4,45.7 L668.3,35.8 L678.2,25.9 L688.1,16.0 L698.0,6.1 L707.9,-3.8 L717.8,-13.7 L727.7,-23.6 L737.6,-33.5 L747.5,-43.4 L757.4,-53.3 L767.3,-63.2 L777.2,-73.1 L787.1,-83.0 L797.0,-92.9 L806.9,-102.8 L816.8,-112.7" stroke="url(#g)" stroke-width="1.85" fill="none" opacity="0.20"/><path d="M667.3,242.7 L681.1,244.5 L694.4,249.0 L705.3,257.9 L710.4,270.9 L707.5,284.6 L699.5,296.1 L690.0,306.4 L680.2,316.4 L670.4,326.3 L660.5,336.2 L650.6,346.1 L640.7,356.0 L630.8,365.9 L620.9,375.8 L611.0,385.7 L601.1,395.6 L591.2,405.5 L581.3,415.4 L571.4,425.3 L561.5,435.2 L551.6,445.1 L541.7,455.0" stroke="url(#g)" stroke-width="1.96" fill="none" opacity="0.26"/><path d="M176.9,437.8 L163.8,432.9 L157.0,420.6 L159.1,406.8 L165.9,394.5 L174.4,383.4 L183.6,372.9 L193.2,362.7 L202.9,352.6 L212.8,342.6 L222.6,332.7 L232.5,322.8 L242.4,312.9 L252.3,303.0 L262.2,293.0 L272.1,283.1 L282.0,273.2 L291.9,263.3 L301.8,253.4 L311.7,243.5 L321.6,233.6 L331.5,223.7 L341.4,213.9" stroke="url(#g)" stroke-width="0.62" fill="none" opacity="0.18"/><path d="M352.7,91.0 L365.2,84.8 L378.3,79.9 L391.9,76.8 L405.9,75.2 L419.9,74.9 L433.9,74.9 L447.8,74.1 L461.6,71.6 L474.8,67.0 L487.2,60.4 L498.6,52.4 L509.5,43.5 L519.9,34.1 L530.1,24.5 L540.1,14.8 L550.1,4.9 L560.0,-4.9 L570.0,-14.8 L579.9,-24.7 L589.8,-34.6 L599.7,-44.5 L609.6,-54.4" stroke="url(#g)" stroke-width="1.49" fill="none" opacity="0.25"/><path d="M312.2,127.5 L324.2,120.3 L336.8,114.2 L350.0,109.6 L363.7,106.7 L377.6,105.4 L391.6,105.2 L405.6,105.1 L419.6,104.1 L433.3,101.3 L446.4,96.4 L458.6,89.5 L470.0,81.4 L480.7,72.4 L491.1,63.0 L501.3,53.4 L511.3,43.6 L521.3,33.8 L531.2,23.9 L541.1,14.0 L551.0,4.2 L560.9,-5.7 L570.8,-15.6" stroke="url(#g)" stroke-width="0.64" fill="none" opacity="0.22"/><path d="M158.1,566.8 L154.8,553.2 L162.6,541.6 L172.4,531.6 L182.3,521.7 L192.2,511.8 L202.1,501.9 L212.0,492.0 L221.9,482.1 L231.8,472.2 L241.7,462.3 L251.6,452.4 L261.5,442.5 L271.4,432.6 L281.3,422.7 L291.2,412.8 L301.1,402.9 L311.0,393.0 L320.9,383.1 L330.8,373.2 L340.7,363.3 L350.6,353.4 L360.5,343.5" stroke="url(#g)" stroke-width="0.54" fill="none" opacity="0.22"/><path d="M702.6,348.6 L703.7,334.6 L696.6,322.6 L682.8,320.4 L670.6,327.5 L660.2,336.8 L650.2,346.6 L640.3,356.4 L630.4,366.3 L620.5,376.2 L610.6,386.1 L600.7,396.0 L590.8,405.9 L580.9,415.8 L571.0,425.7 L561.1,435.6 L551.2,445.5 L541.3,455.4 L531.4,465.3 L521.5,475.2 L511.6,485.1 L501.7,495.0 L491.8,504.9" stroke="url(#g)" stroke-width="1.88" fill="none" opacity="0.08"/><path d="M399.5,21.0 L407.0,9.2 L413.1,-3.4 L416.7,-16.9 L415.8,-30.9 L407.8,-42.4 L394.1,-45.0 L382.1,-37.8 L371.9,-28.2 L362.0,-18.3 L352.1,-8.4 L342.2,1.5 L332.3,11.4 L322.4,21.3 L312.5,31.2 L302.6,41.1 L292.7,51.0 L282.8,60.9 L272.9,70.8 L263.0,80.7 L253.1,90.6 L243.2,100.5 L233.3,110.4" stroke="url(#g)" stroke-width="0.71" fill="none" opacity="0.23"/><path d="M381.9,212.2 L376.3,199.4 L379.3,185.7 L386.4,173.6 L395.0,162.6 L404.3,152.1 L413.9,141.9 L423.6,131.9 L433.5,121.9 L443.3,112.0 L453.2,102.1 L463.1,92.1 L473.0,82.2 L482.9,72.3 L492.8,62.4 L502.7,52.5 L512.6,42.6 L522.5,32.7 L532.4,22.8 L542.3,12.9 L552.2,3.0 L562.1,-6.9 L572.0,-16.8" stroke="url(#g)" stroke-width="0.99" fill="none" opacity="0.09"/><path d="M133.0,81.5 L121.9,90.1 L111.7,99.7 L101.8,109.5 L91.9,119.4 L82.0,129.3 L72.1,139.2 L62.2,149.1 L52.3,159.0 L42.4,168.9 L32.5,178.8 L22.6,188.7 L12.7,198.6 L2.8,208.5 L-7.1,218.4 L-17.0,228.3 L-26.9,238.2 L-36.8,248.1 L-46.7,258.0 L-56.6,267.9 L-66.5,277.8 L-76.4,287.7 L-86.3,297.6" stroke="url(#g)" stroke-width="1.04" fill="none" opacity="0.09"/><path d="M585.6,350.1 L597.8,357.0 L605.8,368.5 L606.1,382.5 L599.7,395.0 L590.6,405.6 L580.9,415.7 L571.0,425.6 L561.1,435.5 L551.2,445.4 L541.3,455.3 L531.4,465.2 L521.5,475.1 L511.6,485.0 L501.7,494.9 L491.8,504.8 L481.9,514.7 L472.1,524.6 L462.2,534.5 L452.3,544.4 L442.4,554.3 L432.5,564.2 L422.6,574.1" stroke="url(#g)" stroke-width="2.04" fill="none" opacity="0.21"/><path d="M663.0,258.3 L676.6,261.9 L688.3,269.5 L695.4,281.6 L694.5,295.6 L687.4,307.7 L678.1,318.2 L668.4,328.2 L658.5,338.2 L648.6,348.1 L638.7,358.0 L628.8,367.9 L618.9,377.8 L609.0,387.7 L599.1,397.6 L589.2,407.5 L579.3,417.4 L569.4,427.3 L559.5,437.2 L549.6,447.1 L539.7,457.0 L529.8,466.9 L519.9,476.8" stroke="url(#g)" stroke-width="0.97" fill="none" opacity="0.09"/><path d="M198.8,509.9 L206.2,498.0 L216.0,488.0 L225.9,478.1 L235.8,468.2 L245.7,458.3 L255.6,448.4 L265.5,438.5 L275.4,428.6 L285.3,418.7 L295.2,408.8 L305.1,398.9 L315.0,389.0 L324.9,379.1 L334.8,369.2 L344.7,359.3 L354.6,349.4 L364.5,339.5 L374.4,329.6 L384.3,319.7 L394.2,309.8 L404.1,299.9 L414.0,290.1" stroke="url(#g)" stroke-width="0.88" fill="none" opacity="0.21"/><path d="M290.1,346.7 L278.8,354.8 L266.3,361.2 L252.6,364.0 L239.1,360.2 L231.1,348.7 L232.3,334.8 L238.7,322.3 L247.0,311.1 L256.2,300.5 L265.7,290.2 L275.4,280.1 L285.2,270.2 L295.1,260.2 L305.0,250.3 L314.9,240.4 L324.8,230.5 L334.7,220.6 L344.5,210.7 L354.4,200.8 L364.3,190.9 L374.2,181.0 L384.1,171.1" stroke="url(#g)" stroke-width="0.77" fill="none" opacity="0.18"/><path d="M461.4,152.7 L448.4,147.6 L441.9,135.2 L444.3,121.4 L451.1,109.2 L459.7,98.1 L468.9,87.6 L478.5,77.4 L488.2,67.3 L498.1,57.3 L507.9,47.4 L517.8,37.5 L527.7,27.6 L537.6,17.6 L547.5,7.7 L557.4,-2.2 L567.3,-12.1 L577.2,-22.0 L587.1,-31.9 L597.0,-41.8 L606.9,-51.7 L616.8,-61.6 L626.7,-71.5" stroke="url(#g)" stroke-width="1.74" fill="none" opacity="0.16"/><path d="M691.0,429.1 L686.1,442.2 L676.6,452.5 L666.7,462.4 L656.8,472.3 L646.9,482.2 L637.0,492.1 L627.1,502.0 L617.2,511.9 L607.3,521.8 L597.4,531.7 L587.5,541.6 L577.6,551.5 L567.7,561.4 L557.8,571.3 L547.9,581.2 L538.0,591.1 L528.1,601.0 L518.2,610.9 L508.3,620.8 L498.4,630.7 L488.5,640.6 L478.6,650.5" stroke="url(#g)" stroke-width="0.65" fill="none" opacity="0.28"/><path d="M213.6,252.8 L227.5,250.9 L241.5,250.4 L255.5,250.4 L269.4,249.9 L283.3,247.8 L296.6,243.6 L309.2,237.4 L320.8,229.6 L331.8,220.9 L342.3,211.6 L352.5,202.0 L362.5,192.3 L372.5,182.5 L382.5,172.6 L392.4,162.8 L402.3,152.9 L412.2,143.0 L422.1,133.1 L432.0,123.2 L441.9,113.3 L451.8,103.4 L461.7,93.5" stroke="url(#g)" stroke-width="1.69" fill="none" opacity="0.21"/><path d="M177.7,274.4 L191.0,270.0 L204.7,267.3 L218.7,266.2 L232.7,266.0 L246.7,265.9 L260.6,264.7 L274.3,261.6 L287.2,256.4 L299.3,249.4 L310.6,241.1 L321.3,232.0 L331.6,222.6 L341.8,212.9 L351.8,203.1 L361.8,193.3 L371.7,183.4 L381.6,173.6 L391.5,163.7 L401.4,153.8 L411.3,143.9 L421.2,134.0 L431.1,124.1" stroke="url(#g)" stroke-width="1.40" fill="none" opacity="0.09"/><path d="M704.1,299.0 L692.0,306.1 L681.6,315.4 L671.6,325.2 L661.7,335.0 L651.8,344.9 L641.9,354.8 L632.0,364.7 L622.1,374.6 L612.2,384.5 L602.3,394.4 L592.4,404.3 L582.5,414.2 L572.6,424.1 L562.7,434.0 L552.8,443.9 L542.9,453.8 L533.0,463.7 L523.1,473.6 L513.2,483.5 L503.3,493.4 L493.4,503.3 L483.5,513.2" stroke="url(#g)" stroke-width="1.06" fill="none" opacity="0.14"/><path d="M165.4,534.9 L176.9,527.0 L186.9,517.2 L196.8,507.3 L206.7,497.4 L216.6,487.5 L226.5,477.6 L236.4,467.7 L246.3,457.8 L256.2,447.9 L266.1,438.0 L276.0,428.1 L285.9,418.2 L295.8,408.3 L305.7,398.4 L315.6,388.5 L325.5,378.6 L335.4,368.7 L345.3,358.8 L355.2,348.9 L365.1,339.0 L375.0,329.1 L384.9,319.2" stroke="url(#g)" stroke-width="0.75" fill="none" opacity="0.13"/><path d="M49.6,98.6 L62.0,104.9 L70.8,115.9 L72.2,129.8 L66.3,142.5 L57.4,153.3 L47.7,163.4 L37.9,173.4 L28.0,183.3 L18.1,193.2 L8.2,203.1 L-1.7,213.0 L-11.6,222.9 L-21.5,232.8 L-31.4,242.7 L-41.3,252.6 L-51.2,262.5 L-61.1,272.4 L-71.0,282.3 L-80.9,292.2 L-90.8,302.1 L-100.7,312.0 L-110.6,321.9" stroke="url(#g)" stroke-width="1.38" fill="none" opacity="0.15"/><path d="M229.1,342.7 L233.7,329.5 L241.4,317.8 L250.3,306.9 L259.7,296.6 L269.3,286.4 L279.1,276.4 L288.9,266.4 L298.8,256.5 L308.7,246.6 L318.6,236.7 L328.5,226.8 L338.3,216.9 L348.2,207.0 L358.1,197.1 L368.0,187.2 L377.9,177.3 L387.8,167.4 L397.7,157.5 L407.6,147.6 L417.5,137.7 L427.4,127.8 L437.3,117.9" stroke="url(#g)" stroke-width="2.04" fill="none" opacity="0.08"/><path d="M254.6,382.2 L243.3,390.4 L230.8,396.9 L217.1,399.8 L203.6,396.2 L195.4,384.8 L196.4,370.9 L202.7,358.4 L211.0,347.1 L220.2,336.5 L229.7,326.3 L239.4,316.2 L249.2,306.2 L259.1,296.2 L268.9,286.3 L278.8,276.4 L288.7,266.5 L298.6,256.6 L308.5,246.7 L318.4,236.8 L328.3,226.9 L338.2,217.0 L348.1,207.1" stroke="url(#g)" stroke-width="1.80" fill="none" opacity="0.15"/><path d="M417.2,302.3 L417.5,288.3 L426.5,277.5 L436.4,267.6 L446.3,257.7 L456.2,247.8 L466.1,237.9 L476.0,228.0 L485.9,218.1 L495.8,208.2 L505.7,198.3 L515.6,188.4 L525.5,178.5 L535.4,168.6 L545.3,158.7 L555.2,148.8 L565.1,138.9 L575.0,129.0 L584.9,119.1 L594.8,109.2 L604.7,99.3 L614.6,89.4 L624.5,79.5" stroke="url(#g)" stroke-width="1.83" fill="none" opacity="0.23"/><path d="M229.2,411.9 L219.7,422.2 L210.5,432.8 L202.1,444.0 L195.3,456.2 L191.7,469.8 L194.9,483.4 L207.1,490.2 L219.7,484.1 L229.7,474.3 L239.6,464.4 L249.5,454.5 L259.4,444.6 L269.3,434.7 L279.2,424.8 L289.1,414.9 L299.0,405.0 L308.9,395.1 L318.8,385.2 L328.7,375.3 L338.6,365.4 L348.5,355.5 L358.4,345.6" stroke="url(#g)" stroke-width="2.08" fill="none" opacity="0.14"/><path d="M383.2,82.9 L397.1,81.0 L411.1,80.5 L425.1,80.5 L439.1,79.9 L452.9,77.9 L466.3,73.8 L478.8,67.6 L490.5,59.8 L501.5,51.1 L512.0,41.9 L522.2,32.3 L532.3,22.6 L542.2,12.8 L552.2,2.9 L562.1,-7.0 L572.0,-16.9 L581.9,-26.7 L591.8,-36.6 L601.7,-46.5 L611.6,-56.4 L621.5,-66.3 L631.4,-76.2" stroke="url(#g)" stroke-width="0.95" fill="none" opacity="0.22"/><path d="M578.7,389.9 L581.6,403.6 L576.8,416.8 L568.2,427.8 L558.5,438.0 L548.7,448.0 L538.8,457.9 L528.9,467.8 L519.0,477.7 L509.1,487.6 L499.2,497.5 L489.3,507.4 L479.4,517.3 L469.5,527.2 L459.6,537.1 L449.7,547.0 L439.8,556.9 L429.9,566.8 L420.0,576.7 L410.1,586.6 L400.2,596.5 L390.3,606.4 L380.4,616.3" stroke="url(#g)" stroke-width="2.02" fill="none" opacity="0.19"/><path d="M506.2,208.1 L510.0,194.6 L519.6,184.4 L529.5,174.5 L539.4,164.6 L549.3,154.7 L559.2,144.8 L569.1,134.9 L579.0,125.0 L588.9,115.1 L598.8,105.2 L608.7,95.3 L618.6,85.4 L628.5,75.5 L638.4,65.6 L648.3,55.7 L658.2,45.8 L668.1,35.9 L678.0,26.0 L687.9,16.1 L697.8,6.2 L707.7,-3.7 L717.6,-13.6" stroke="url(#g)" stroke-width="1.59" fill="none" opacity="0.12"/><path d="M473.1,269.8 L460.7,263.3 L458.0,249.6 L466.0,238.1 L475.9,228.2 L485.8,218.3 L495.7,208.4 L505.6,198.5 L515.5,188.6 L525.4,178.7 L535.3,168.8 L545.2,158.9 L555.1,149.0 L565.0,139.1 L574.9,129.2 L584.8,119.3 L594.7,109.4 L604.6,99.5 L614.5,89.6 L624.4,79.7 L634.3,69.8 L644.2,59.9 L654.1,50.0" stroke="url(#g)" stroke-width="1.49" fill="none" opacity="0.24"/><path d="M184.5,243.9 L194.3,233.9 L204.0,223.8 L213.7,213.6 L223.2,203.4 L232.5,192.9 L241.6,182.3 L250.1,171.2 L258.0,159.6 L264.5,147.2 L268.9,133.9 L269.4,119.9 L263.5,107.2 L250.6,101.7 L237.7,107.0 L227.4,116.5 L217.4,126.3 L207.5,136.2 L197.6,146.1 L187.7,156.0 L177.8,165.9 L167.9,175.8 L158.0,185.7" stroke="url(#g)" stroke-width="1.25" fill="none" opacity="0.18"/><path d="M535.2,369.4 L549.2,370.5 L562.8,373.9 L574.8,381.1 L582.5,392.8 L582.4,406.8 L575.7,419.1 L566.6,429.7 L556.8,439.8 L547.0,449.7 L537.1,459.6 L527.2,469.5 L517.3,479.4 L507.4,489.3 L497.5,499.2 L487.6,509.1 L477.7,519.0 L467.8,528.9 L457.9,538.8 L448.0,548.7 L438.1,558.6 L428.2,568.5 L418.3,578.4" stroke="url(#g)" stroke-width="1.07" fill="none" opacity="0.15"/><path d="M534.9,585.1 L530.1,598.2 L520.6,608.5 L510.7,618.4 L500.8,628.3 L490.9,638.2 L481.0,648.1 L471.1,658.0 L461.2,667.9 L451.3,677.8 L441.4,687.7 L431.5,697.6 L421.6,707.5 L411.7,717.4 L401.8,727.3 L391.9,737.2 L382.0,747.1 L372.1,757.0 L362.2,766.9 L352.3,776.8 L342.4,786.7 L332.5,796.6 L322.6,806.5" stroke="url(#g)" stroke-width="0.95" fill="none" opacity="0.17"/><path d="M674.4,185.1 L688.3,186.8 L702.3,187.1 L716.3,187.2 L730.3,188.1 L743.9,191.3 L756.2,198.1 L764.4,209.4 L764.9,223.4 L758.6,235.9 L749.6,246.6 L739.9,256.7 L730.0,266.6 L720.1,276.6 L710.2,286.5 L700.3,296.4 L690.4,306.3 L680.5,316.2 L670.6,326.1 L660.7,336.0 L650.8,345.9 L640.9,355.8 L631.0,365.7" stroke="url(#g)" stroke-width="1.36" fill="none" opacity="0.27"/><path d="M43.0,40.2 L57.0,40.9 L71.0,40.9 L85.0,41.3 L98.8,43.4 L111.9,48.4 L122.3,57.7 L126.5,71.1 L122.7,84.6 L114.5,95.9 L105.0,106.1 L95.1,116.1 L85.3,126.0 L75.4,135.9 L65.5,145.8 L55.6,155.7 L45.7,165.6 L35.8,175.5 L25.9,185.4 L16.0,195.3 L6.1,205.2 L-3.8,215.1 L-13.7,225.0" stroke="url(#g)" stroke-width="1.84" fill="none" opacity="0.06"/><path d="M211.3,207.6 L218.3,195.5 L223.4,182.4 L225.3,168.6 L221.6,155.1 L210.5,146.6 L196.7,149.1 L185.9,158.0 L176.0,167.8 L166.0,177.7 L156.1,187.6 L146.3,197.5 L136.4,207.4 L126.5,217.3 L116.6,227.2 L106.7,237.1 L96.8,247.0 L86.9,256.9 L77.0,266.8 L67.1,276.7 L57.2,286.6 L47.3,296.5 L37.4,306.4" stroke="url(#g)" stroke-width="1.90" fill="none" opacity="0.22"/><path d="M665.3,14.6 L678.1,20.4 L690.3,13.6 L700.3,3.8 L710.2,-6.1 L720.1,-16.0 L730.0,-25.9 L739.9,-35.8 L749.8,-45.7 L759.7,-55.6 L769.6,-65.5 L779.5,-75.4 L789.4,-85.3 L799.3,-95.2 L809.2,-105.1 L819.1,-115.0 L829.0,-124.9 L838.9,-134.8 L848.8,-144.7 L858.7,-154.6 L868.6,-164.5 L878.5,-174.4 L888.4,-184.3" stroke="url(#g)" stroke-width="1.23" fill="none" opacity="0.08"/><path d="M329.8,139.7 L343.8,138.2 L357.7,138.0 L371.7,137.9 L385.7,137.1 L399.5,134.4 L412.6,129.6 L424.9,122.9 L436.3,114.8 L447.1,105.9 L457.5,96.5 L467.7,86.9 L477.7,77.2 L487.7,67.3 L497.6,57.5 L507.6,47.6 L517.5,37.7 L527.4,27.8 L537.3,17.9 L547.2,8.0 L557.1,-1.9 L567.0,-11.8 L576.9,-21.7" stroke="url(#g)" stroke-width="0.86" fill="none" opacity="0.15"/><path d="M634.0,293.0 L647.1,297.9 L657.7,307.1 L662.2,320.3 L658.6,333.9 L650.5,345.2 L641.0,355.5 L631.1,365.5 L621.3,375.4 L611.4,385.3 L601.5,395.2 L591.6,405.1 L581.7,415.0 L571.8,424.9 L561.9,434.8 L552.0,444.7 L542.1,454.6 L532.2,464.5 L522.3,474.4 L512.4,484.3 L502.5,494.2 L492.6,504.1 L482.7,514.0" stroke="url(#g)" stroke-width="1.75" fill="none" opacity="0.08"/><path d="M143.6,114.5 L139.6,101.1 L127.1,94.8 L114.0,99.6 L103.2,108.6 L93.1,118.3 L83.2,128.1 L73.3,138.0 L63.4,147.9 L53.5,157.8 L43.6,167.7 L33.7,177.6 L23.8,187.5 L13.9,197.4 L4.0,207.3 L-5.9,217.2 L-15.8,227.1 L-25.7,237.0 L-35.6,246.9 L-45.5,256.8 L-55.4,266.7 L-65.3,276.6 L-75.2,286.5" stroke="url(#g)" stroke-width="1.60" fill="none" opacity="0.12"/><path d="M600.3,219.4 L609.7,229.8 L622.6,235.3 L636.4,237.3 L650.4,237.7 L664.4,237.7 L678.4,238.6 L692.1,241.4 L704.5,247.8 L713.3,258.8 L714.7,272.7 L708.8,285.4 L699.9,296.2 L690.2,306.3 L680.4,316.3 L670.5,326.2 L660.6,336.1 L650.7,346.0 L640.8,355.9 L630.9,365.8 L621.0,375.7 L611.1,385.6 L601.2,395.5" stroke="url(#g)" stroke-width="1.46" fill="none" opacity="0.12"/><path d="M135.4,115.6 L127.1,104.3 L113.2,103.5 L101.4,111.1 L91.0,120.5 L81.0,130.3 L71.1,140.2 L61.2,150.1 L51.3,160.0 L41.4,169.9 L31.5,179.8 L21.6,189.7 L11.7,199.6 L1.8,209.5 L-8.1,219.4 L-18.0,229.3 L-27.9,239.2 L-37.8,249.1 L-47.7,259.0 L-57.6,268.9 L-67.5,278.8 L-77.4,288.7 L-87.3,298.6" stroke="url(#g)" stroke-width="1.18" fill="none" opacity="0.10"/><path d="M669.6,477.5 L655.6,477.2 L644.2,485.3 L634.1,495.0 L624.2,504.9 L614.3,514.8 L604.4,524.7 L594.5,534.6 L584.6,544.5 L574.7,554.4 L564.8,564.3 L554.9,574.2 L545.0,584.1 L535.1,594.0 L525.2,603.9 L515.3,613.8 L505.4,623.7 L495.5,633.6 L485.6,643.5 L475.7,653.4 L465.8,663.3 L455.9,673.2 L446.0,683.1" stroke="url(#g)" stroke-width="0.73" fill="none" opacity="0.07"/><path d="M515.4,597.6 L515.2,611.6 L506.5,622.5 L496.6,632.5 L486.8,642.4 L476.9,652.3 L467.0,662.2 L457.1,672.1 L447.2,682.0 L437.3,691.9 L427.4,701.8 L417.5,711.7 L407.6,721.6 L397.7,731.5 L387.8,741.4 L377.9,751.3 L368.0,761.2 L358.1,771.1 L348.2,781.0 L338.3,790.9 L328.4,800.8 L318.5,810.7 L308.6,820.6" stroke="url(#g)" stroke-width="0.77" fill="none" opacity="0.21"/><path d="M546.4,68.9 L533.1,64.4 L526.0,52.4 L527.8,38.5 L534.4,26.2 L542.9,15.0 L552.1,4.5 L561.7,-5.7 L571.4,-15.8 L581.2,-25.8 L591.0,-35.7 L600.9,-45.7 L610.8,-55.6 L620.7,-65.5 L630.6,-75.4 L640.5,-85.3 L650.4,-95.2 L660.3,-105.1 L670.2,-115.0 L680.1,-124.9 L690.0,-134.8 L699.9,-144.7 L709.8,-154.6" stroke="url(#g)" stroke-width="1.38" fill="none" opacity="0.21"/><path d="M646.9,108.1 L633.0,108.8 L620.9,101.6 L619.2,87.8 L627.6,76.5 L637.4,66.6 L647.3,56.7 L657.2,46.8 L667.1,36.9 L677.0,27.0 L686.9,17.1 L696.8,7.2 L706.7,-2.7 L716.6,-12.6 L726.5,-22.5 L736.4,-32.4 L746.3,-42.3 L756.2,-52.2 L766.1,-62.1 L776.0,-72.0 L785.9,-81.9 L795.8,-91.8 L805.7,-101.7" stroke="url(#g)" stroke-width="1.70" fill="none" opacity="0.13"/><path d="M615.3,491.1 L619.6,504.4 L612.3,516.4 L602.6,526.5 L592.7,536.4 L582.8,546.3 L572.9,556.2 L563.0,566.1 L553.1,576.0 L543.2,585.9 L533.3,595.8 L523.4,605.7 L513.5,615.6 L503.6,625.5 L493.8,635.4 L483.9,645.3 L474.0,655.2 L464.1,665.1 L454.2,675.0 L444.3,684.9 L434.4,694.8 L424.5,704.7 L414.6,714.6" stroke="url(#g)" stroke-width="1.53" fill="none" opacity="0.25"/><path d="M516.4,110.2 L502.6,112.5 L489.3,107.8 L482.3,95.7 L484.3,81.8 L491.0,69.5 L499.5,58.4 L508.7,47.9 L518.3,37.6 L528.0,27.6 L537.8,17.6 L547.7,7.6 L557.5,-2.3 L567.4,-12.2 L577.3,-22.1 L587.2,-32.0 L597.1,-41.9 L607.0,-51.8 L616.9,-61.7 L626.8,-71.6 L636.7,-81.5 L646.6,-91.4 L656.5,-101.3" stroke="url(#g)" stroke-width="1.33" fill="none" opacity="0.12"/><path d="M576.6,314.6 L590.6,314.7 L604.6,315.9 L618.1,319.5 L630.0,326.8 L637.4,338.7 L636.9,352.7 L630.0,364.9 L620.8,375.5 L611.1,385.5 L601.2,395.5 L591.3,405.4 L581.4,415.3 L571.5,425.2 L561.6,435.1 L551.7,445.0 L541.8,454.9 L531.9,464.8 L522.0,474.7 L512.1,484.6 L502.2,494.5 L492.3,504.4 L482.4,514.3" stroke="url(#g)" stroke-width="1.63" fill="none" opacity="0.26"/><path d="M464.8,205.5 L473.4,216.5 L487.4,215.4 L497.9,206.2 L507.8,196.3 L517.7,186.4 L527.6,176.5 L537.5,166.6 L547.4,156.7 L557.3,146.8 L567.2,136.9 L577.1,127.0 L587.0,117.1 L596.9,107.2 L606.8,97.3 L616.7,87.4 L626.6,77.5 L636.5,67.6 L646.4,57.7 L656.3,47.8 L666.2,37.9 L676.1,28.0 L686.0,18.1" stroke="url(#g)" stroke-width="1.64" fill="none" opacity="0.22"/><path d="M659.2,560.0 L670.2,551.3 L681.6,543.2 L693.6,535.8 L706.1,529.7 L719.3,524.9 L733.0,521.9 L746.9,520.4 L760.9,520.1 L774.9,520.1 L788.9,519.2 L802.6,516.6 L815.8,511.8 L828.1,505.1 L839.5,497.1 L850.3,488.2 L860.7,478.8 L870.9,469.2 L880.9,459.4 L890.9,449.6 L900.8,439.7 L910.7,429.8 L920.6,419.9" stroke="url(#g)" stroke-width="0.74" fill="none" opacity="0.08"/><path d="M796.1,557.5 L802.1,544.8 L810.3,533.5 L819.3,522.9 L828.9,512.6 L838.6,502.5 L848.3,492.5 L858.2,482.5 L868.1,472.6 L878.0,462.7 L887.8,452.8 L897.7,442.9 L907.6,433.0 L917.5,423.1 L927.4,413.2 L937.3,403.3 L947.2,393.4 L957.1,383.5 L967.0,373.6 L976.9,363.7 L986.8,353.8 L996.7,343.9 L1006.6,334.0" stroke="url(#g)" stroke-width="1.75" fill="none" opacity="0.06"/><path d="M297.6,473.6 L287.1,482.9 L276.1,491.6 L264.5,499.4 L251.7,505.2 L237.9,507.0 L224.9,501.6 L220.6,488.3 L227.8,476.4 L237.6,466.4 L247.5,456.5 L257.4,446.6 L267.3,436.7 L277.2,426.8 L287.1,416.9 L297.0,407.0 L306.9,397.1 L316.8,387.2 L326.7,377.3 L336.6,367.4 L346.5,357.5 L356.4,347.6 L366.3,337.7" stroke="url(#g)" stroke-width="2.07" fill="none" opacity="0.20"/><path d="M133.5,115.6 L124.2,105.1 L110.3,105.6 L98.7,113.6 L88.4,123.1 L78.5,132.9 L68.5,142.8 L58.6,152.7 L48.7,162.6 L38.8,172.5 L28.9,182.4 L19.0,192.3 L9.1,202.2 L-0.8,212.1 L-10.7,222.0 L-20.6,231.9 L-30.5,241.8 L-40.4,251.7 L-50.3,261.5 L-60.2,271.4 L-70.1,281.3 L-80.0,291.2 L-89.9,301.1" stroke="url(#g)" stroke-width="1.05" fill="none" opacity="0.21"/><path d="M190.0,504.4 L203.4,500.2 L213.5,490.6 L223.4,480.7 L233.3,470.8 L243.2,460.9 L253.1,451.0 L263.0,441.1 L272.9,431.2 L282.8,421.3 L292.7,411.4 L302.6,401.5 L312.5,391.6 L322.4,381.7 L332.3,371.8 L342.2,361.9 L352.1,352.0 L362.0,342.1 L371.9,332.2 L381.8,322.3 L391.7,312.4 L401.6,302.5 L411.5,292.6" stroke="url(#g)" stroke-width="0.65" fill="none" opacity="0.08"/><path d="M336.4,238.7 L339.6,225.1 L346.8,213.1 L355.5,202.1 L364.8,191.6 L374.4,181.5 L384.1,171.4 L393.9,161.4 L403.8,151.5 L413.7,141.6 L423.6,131.7 L433.5,121.8 L443.4,111.9 L453.3,102.0 L463.2,92.1 L473.1,82.2 L483.0,72.3 L492.9,62.4 L502.8,52.5 L512.7,42.6 L522.6,32.7 L532.5,22.8 L542.4,12.9" stroke="url(#g)" stroke-width="1.75" fill="none" opacity="0.24"/><path d="M337.6,479.6 L346.4,490.5 L359.0,496.7 L372.8,499.0 L386.8,499.5 L400.8,499.5 L414.8,500.2 L428.5,502.7 L441.3,508.6 L450.7,518.9 L453.1,532.7 L448.0,545.7 L439.3,556.7 L429.7,566.9 L419.8,576.8 L409.9,586.7 L400.1,596.6 L390.2,606.5 L380.3,616.4 L370.4,626.3 L360.5,636.2 L350.6,646.1 L340.7,656.0" stroke="url(#g)" stroke-width="1.20" fill="none" opacity="0.07"/><path d="M214.2,519.3 L205.7,508.2 L209.8,494.8 L219.5,484.6 L229.3,474.7 L239.2,464.8 L249.1,454.9 L259.0,445.0 L268.9,435.1 L278.8,425.2 L288.7,415.3 L298.6,405.4 L308.5,395.5 L318.4,385.6 L328.3,375.7 L338.2,365.8 L348.1,355.9 L358.0,346.0 L367.9,336.1 L377.8,326.2 L387.7,316.3 L397.6,306.4 L407.5,296.5" stroke="url(#g)" stroke-width="1.49" fill="none" opacity="0.19"/><path d="M260.6,181.2 L272.9,174.5 L285.8,169.1 L299.2,165.3 L313.1,163.2 L327.1,162.5 L341.1,162.5 L355.1,162.1 L368.9,160.3 L382.4,156.5 L395.1,150.6 L406.9,143.0 L417.9,134.4 L428.5,125.2 L438.7,115.7 L448.8,106.0 L458.8,96.2 L468.8,86.3 L478.7,76.5 L488.6,66.6 L498.5,56.7 L508.4,46.8 L518.3,36.9" stroke="url(#g)" stroke-width="0.64" fill="none" opacity="0.25"/><path d="M427.9,6.8 L439.0,-1.6 L450.7,-9.4 L462.9,-16.3 L475.7,-21.9 L489.1,-25.9 L502.9,-28.2 L516.9,-29.1 L530.9,-29.1 L544.9,-29.4 L558.8,-30.9 L572.3,-34.5 L585.1,-40.2 L597.0,-47.5 L608.2,-56.0 L618.8,-65.2 L629.0,-74.7 L639.1,-84.4 L649.1,-94.2 L659.1,-104.0 L669.0,-113.9 L678.9,-123.8 L688.9,-133.7" stroke="url(#g)" stroke-width="2.00" fill="none" opacity="0.21"/><path d="M769.0,522.6 L783.0,522.0 L796.9,519.9 L810.2,515.6 L822.7,509.4 L834.3,501.6 L845.3,492.8 L855.7,483.5 L866.0,474.0 L876.0,464.2 L886.0,454.4 L896.0,444.6 L905.9,434.7 L915.8,424.8 L925.7,414.9 L935.6,405.0 L945.5,395.1 L955.4,385.2 L965.3,375.3 L975.2,365.4 L985.1,355.5 L995.0,345.6 L1004.9,335.7" stroke="url(#g)" stroke-width="1.40" fill="none" opacity="0.09"/><path d="M713.6,230.8 L724.3,239.9 L729.0,253.1 L725.7,266.7 L717.6,278.1 L708.1,288.4 L698.3,298.4 L688.4,308.3 L678.5,318.2 L668.6,328.1 L658.7,338.0 L648.8,347.9 L638.9,357.8 L629.0,367.7 L619.1,377.6 L609.2,387.5 L599.3,397.4 L589.4,407.3 L579.5,417.2 L569.6,427.1 L559.7,437.0 L549.8,446.9 L539.9,456.8" stroke="url(#g)" stroke-width="1.77" fill="none" opacity="0.08"/><path d="M510.9,525.5 L502.7,514.1 L488.8,513.4 L477.0,520.9 L466.6,530.3 L456.6,540.1 L446.7,550.0 L436.8,559.9 L426.9,569.8 L417.0,579.7 L407.1,589.6 L397.2,599.5 L387.3,609.4 L377.4,619.3 L367.5,629.2 L357.6,639.1 L347.7,649.0 L337.8,658.9 L327.9,668.8 L318.0,678.7 L308.1,688.6 L298.2,698.5 L288.3,708.4" stroke="url(#g)" stroke-width="0.89" fill="none" opacity="0.13"/><path d="M56.7,423.7 L70.7,423.4 L84.7,423.4 L98.7,422.6 L112.5,420.2 L125.7,415.7 L138.1,409.2 L149.6,401.2 L160.5,392.4 L170.9,383.1 L181.1,373.5 L191.2,363.7 L201.1,353.9 L211.1,344.0 L221.0,334.1 L230.9,324.3 L240.8,314.4 L250.7,304.5 L260.6,294.6 L270.5,284.7 L280.4,274.8 L290.3,264.9 L300.2,255.0" stroke="url(#g)" stroke-width="1.03" fill="none" opacity="0.25"/><path d="M788.7,297.8 L802.2,301.6 L808.1,314.3 L801.8,326.8 L792.1,337.0 L782.2,346.9 L772.3,356.8 L762.4,366.7 L752.5,376.6 L742.6,386.5 L732.7,396.4 L722.8,406.3 L712.9,416.2 L703.0,426.1 L693.1,436.0 L683.2,445.9 L673.3,455.8 L663.4,465.7 L653.5,475.6 L643.6,485.5 L633.7,495.4 L623.8,505.3 L613.9,515.2" stroke="url(#g)" stroke-width="0.77" fill="none" opacity="0.13"/><path d="M758.0,542.6 L771.9,541.1 L785.5,537.6 L798.3,532.0 L810.2,524.6 L821.4,516.1 L832.0,507.0 L842.2,497.5 L852.3,487.8 L862.4,478.0 L872.3,468.2 L882.2,458.3 L892.2,448.4 L902.1,438.5 L912.0,428.6 L921.9,418.7 L931.8,408.8 L941.7,398.9 L951.6,389.0 L961.5,379.1 L971.4,369.2 L981.3,359.3 L991.2,349.4" stroke="url(#g)" stroke-width="1.98" fill="none" opacity="0.13"/><path d="M562.7,412.3 L562.8,426.3 L556.1,438.6 L547.0,449.2 L537.3,459.3 L527.4,469.2 L517.5,479.2 L507.6,489.1 L497.7,499.0 L487.8,508.9 L477.9,518.8 L468.0,528.7 L458.1,538.6 L448.2,548.4 L438.3,558.3 L428.4,568.2 L418.5,578.1 L408.6,588.0 L398.7,597.9 L388.8,607.8 L378.9,617.7 L369.0,627.6 L359.1,637.5" stroke="url(#g)" stroke-width="1.27" fill="none" opacity="0.27"/><path d="M766.8,90.4 L780.6,92.5 L794.6,92.9 L808.6,92.9 L822.6,93.7 L836.3,96.4 L848.9,102.6 L857.8,113.4 L859.6,127.3 L854.0,140.1 L845.1,150.9 L835.5,161.1 L825.6,171.0 L815.7,180.9 L805.8,190.8 L795.9,200.7 L786.0,210.6 L776.1,220.5 L766.2,230.4 L756.3,240.3 L746.5,250.2 L736.6,260.1 L726.7,270.0" stroke="url(#g)" stroke-width="1.45" fill="none" opacity="0.10"/><path d="M149.9,85.5 L136.3,82.3 L123.9,88.9 L113.4,98.2 L103.4,108.0 L93.5,117.8 L83.6,127.7 L73.7,137.6 L63.8,147.5 L53.9,157.4 L44.0,167.3 L34.1,177.2 L24.2,187.1 L14.3,197.0 L4.4,206.9 L-5.5,216.8 L-15.4,226.7 L-25.3,236.6 L-35.2,246.5 L-45.1,256.4 L-55.0,266.3 L-64.9,276.2 L-74.8,286.1" stroke="url(#g)" stroke-width="1.05" fill="none" opacity="0.12"/><path d="M361.2,535.5 L375.2,535.9 L389.1,537.9 L402.2,542.8 L412.8,552.0 L417.3,565.2 L413.7,578.8 L405.6,590.1 L396.1,600.4 L386.3,610.4 L376.4,620.3 L366.5,630.2 L356.6,640.1 L346.7,650.0 L336.8,659.9 L326.9,669.8 L317.0,679.7 L307.1,689.6 L297.2,699.5 L287.3,709.4 L277.4,719.3 L267.5,729.2 L257.6,739.1" stroke="url(#g)" stroke-width="1.67" fill="none" opacity="0.19"/><path d="M403.6,158.9 L411.5,147.3 L420.5,136.6 L429.9,126.2 L439.6,116.1 L449.4,106.1 L459.2,96.1 L469.1,86.2 L479.0,76.3 L488.9,66.4 L498.7,56.5 L508.6,46.6 L518.5,36.7 L528.4,26.8 L538.3,16.9 L548.2,7.0 L558.1,-2.9 L568.0,-12.8 L577.9,-22.7 L587.8,-32.6 L597.7,-42.5 L607.6,-52.4 L617.5,-62.3" stroke="url(#g)" stroke-width="1.84" fill="none" opacity="0.11"/><path d="M758.6,531.4 L772.5,531.0 L786.4,529.1 L799.8,525.1 L812.5,519.0 L824.2,511.4 L835.2,502.7 L845.7,493.5 L855.9,483.9 L866.0,474.2 L876.0,464.4 L885.9,454.6 L895.9,444.7 L905.8,434.8 L915.7,424.9 L925.6,415.0 L935.5,405.1 L945.4,395.2 L955.3,385.3 L965.2,375.4 L975.1,365.5 L985.0,355.6 L994.9,345.7" stroke="url(#g)" stroke-width="1.11" fill="none" opacity="0.12"/><path d="M352.9,80.1 L363.7,71.2 L374.9,62.7 L386.5,55.0 L398.8,48.2 L411.6,42.7 L425.1,38.8 L438.9,36.5 L452.9,35.8 L466.9,35.7 L480.9,35.4 L494.8,33.8 L508.3,30.1 L521.0,24.3 L532.9,16.8 L544.0,8.3 L554.5,-0.9 L564.8,-10.4 L574.9,-20.1 L584.9,-29.9 L594.8,-39.8 L604.8,-49.6 L614.7,-59.5" stroke="url(#g)" stroke-width="1.27" fill="none" opacity="0.10"/><path d="M324.3,133.7 L337.9,130.4 L351.8,128.9 L365.8,128.5 L379.8,128.5 L393.8,127.8 L407.6,125.3 L420.8,120.7 L433.2,114.2 L444.7,106.2 L455.6,97.4 L466.0,88.0 L476.2,78.4 L486.2,68.7 L496.2,58.8 L506.1,49.0 L516.1,39.1 L526.0,29.2 L535.9,19.3 L545.8,9.4 L555.7,-0.5 L565.6,-10.4 L575.5,-20.3" stroke="url(#g)" stroke-width="1.02" fill="none" opacity="0.14"/><path d="M503.5,286.2 L501.3,300.0 L504.3,313.6 L513.3,324.4 L526.0,330.4 L539.8,332.6 L553.8,333.0 L567.8,333.0 L581.8,333.8 L595.5,336.4 L608.2,342.4 L617.4,352.9 L619.5,366.8 L614.2,379.7 L605.4,390.6 L595.8,400.8 L585.9,410.7 L576.0,420.6 L566.1,430.5 L556.2,440.4 L546.4,450.3 L536.5,460.2 L526.6,470.1" stroke="url(#g)" stroke-width="1.53" fill="none" opacity="0.23"/><path d="M759.3,216.2 L759.1,230.2 L752.3,242.5 L743.2,253.1 L733.4,263.2 L723.6,273.1 L713.7,283.0 L703.8,292.9 L693.9,302.8 L684.0,312.7 L674.1,322.6 L664.2,332.5 L654.3,342.4 L644.4,352.3 L634.5,362.2 L624.6,372.1 L614.7,382.0 L604.8,391.9 L594.9,401.8 L585.0,411.7 L575.1,421.6 L565.2,431.5 L555.3,441.4" stroke="url(#g)" stroke-width="1.01" fill="none" opacity="0.17"/><path d="M70.7,388.3 L84.4,385.2 L98.3,383.8 L112.3,383.6 L126.3,383.5 L140.3,382.6 L154.0,380.0 L167.2,375.2 L179.4,368.4 L190.9,360.3 L201.6,351.4 L212.0,342.0 L222.2,332.4 L232.2,322.7 L242.2,312.8 L252.2,303.0 L262.1,293.1 L272.0,283.2 L281.9,273.3 L291.8,263.4 L301.7,253.5 L311.6,243.6 L321.5,233.7" stroke="url(#g)" stroke-width="1.72" fill="none" opacity="0.08"/><path d="M695.3,86.5 L689.4,99.1 L686.6,112.9 L688.9,126.7 L697.1,138.0 L709.5,144.5 L723.2,147.2 L737.2,147.7 L751.2,147.7 L765.2,148.3 L779.0,150.6 L791.9,156.1 L801.8,166.0 L805.0,179.6 L800.5,192.9 L791.9,204.0 L782.3,214.2 L772.5,224.1 L762.6,234.1 L752.7,244.0 L742.8,253.9 L732.9,263.8 L723.0,273.7" stroke="url(#g)" stroke-width="1.55" fill="none" opacity="0.26"/><path d="M779.6,357.5 L766.8,363.2 L756.5,372.7 L746.6,382.5 L736.7,392.4 L726.8,402.3 L716.9,412.2 L707.0,422.1 L697.1,432.0 L687.2,441.9 L677.3,451.8 L667.4,461.7 L657.5,471.6 L647.6,481.5 L637.7,491.4 L627.8,501.3 L617.9,511.2 L608.0,521.1 L598.1,531.0 L588.2,540.9 L578.3,550.8 L568.4,560.7 L558.5,570.6" stroke="url(#g)" stroke-width="0.76" fill="none" opacity="0.22"/><path d="M342.6,497.9 L355.6,503.2 L369.4,505.1 L383.4,505.4 L397.4,505.4 L411.4,506.4 L425.1,509.4 L437.4,516.0 L445.8,527.1 L446.8,541.1 L440.7,553.7 L431.7,564.4 L422.0,574.5 L412.2,584.5 L402.3,594.4 L392.4,604.3 L382.5,614.2 L372.6,624.1 L362.7,634.0 L352.8,643.9 L342.9,653.8 L333.0,663.7 L323.1,673.6" stroke="url(#g)" stroke-width="1.24" fill="none" opacity="0.14"/><path d="M403.0,512.8 L416.8,515.5 L429.4,521.5 L438.5,532.2 L440.5,546.0 L435.1,558.9 L426.3,569.8 L416.6,579.9 L406.8,589.9 L396.9,599.8 L387.0,609.7 L377.1,619.6 L367.2,629.5 L357.3,639.4 L347.4,649.3 L337.5,659.2 L327.6,669.1 L317.7,679.0 L307.8,688.9 L297.9,698.8 L288.0,708.7 L278.1,718.6 L268.2,728.5" stroke="url(#g)" stroke-width="0.54" fill="none" opacity="0.18"/><path d="M435.5,61.7 L449.5,61.6 L463.5,60.6 L477.2,57.8 L490.3,52.7 L502.5,45.8 L513.8,37.6 L524.5,28.7 L534.9,19.2 L545.1,9.6 L555.1,-0.2 L565.1,-10.0 L575.0,-19.9 L584.9,-29.7 L594.8,-39.6 L604.7,-49.5 L614.6,-59.4 L624.5,-69.3 L634.4,-79.2 L644.3,-89.1 L654.2,-99.0 L664.1,-108.9 L674.0,-118.8" stroke="url(#g)" stroke-width="2.05" fill="none" opacity="0.13"/><path d="M469.3,310.3 L462.3,322.5 L457.7,335.7 L457.3,349.7 L462.6,362.6 L473.4,371.6 L486.7,376.0 L500.6,377.3 L514.6,377.5 L528.6,377.6 L542.6,378.9 L556.0,382.6 L567.8,390.2 L574.8,402.4 L573.8,416.4 L566.7,428.4 L557.4,438.9 L547.7,449.0 L537.8,458.9 L527.9,468.8 L518.0,478.7 L508.1,488.6 L498.2,498.5" stroke="url(#g)" stroke-width="1.22" fill="none" opacity="0.14"/><path d="M436.1,56.5 L450.1,56.5 L464.1,55.9 L477.9,53.7 L491.2,49.4 L503.7,43.1 L515.3,35.2 L526.2,26.5 L536.7,17.2 L546.9,7.6 L557.0,-2.1 L567.0,-11.9 L576.9,-21.8 L586.8,-31.7 L596.7,-41.6 L606.7,-51.5 L616.6,-61.4 L626.5,-71.3 L636.4,-81.2 L646.3,-91.1 L656.2,-101.0 L666.1,-110.9 L676.0,-120.7" stroke="url(#g)" stroke-width="0.51" fill="none" opacity="0.10"/><path d="M582.0,135.0 L584.0,121.1 L593.4,110.7 L603.3,100.8 L613.2,90.9 L623.1,81.0 L633.0,71.1 L642.9,61.2 L652.8,51.3 L662.7,41.4 L672.5,31.5 L682.4,21.6 L692.3,11.7 L702.2,1.8 L712.1,-8.1 L722.0,-18.0 L731.9,-27.9 L741.8,-37.8 L751.7,-47.7 L761.6,-57.6 L771.5,-67.5 L781.4,-77.4 L791.3,-87.3" stroke="url(#g)" stroke-width="1.34" fill="none" opacity="0.09"/><path d="M145.1,235.7 L135.5,225.5 L121.5,225.6 L110.1,233.9 L100.1,243.6 L90.2,253.5 L80.3,263.4 L70.4,273.3 L60.5,283.2 L50.6,293.1 L40.7,303.0 L30.8,312.9 L20.9,322.8 L11.0,332.7 L1.1,342.6 L-8.8,352.5 L-18.7,362.4 L-28.6,372.3 L-38.5,382.2 L-48.4,392.1 L-58.3,402.0 L-68.2,411.9 L-78.1,421.8" stroke="url(#g)" stroke-width="0.65" fill="none" opacity="0.16"/><path d="M462.4,93.4 L472.2,83.3 L482.0,73.4 L491.9,63.4 L501.7,53.5 L511.6,43.6 L521.5,33.7 L531.4,23.8 L541.3,13.9 L551.2,4.0 L561.1,-5.9 L571.0,-15.8 L580.9,-25.7 L590.8,-35.6 L600.7,-45.5 L610.6,-55.4 L620.5,-65.3 L630.4,-75.2 L640.3,-85.1 L650.2,-95.0 L660.1,-104.9 L670.0,-114.8 L679.9,-124.7" stroke="url(#g)" stroke-width="0.78" fill="none" opacity="0.18"/><path d="M215.0,33.8 L205.6,23.4 L191.6,24.2 L180.1,32.1 L169.8,41.7 L159.9,51.5 L149.9,61.4 L140.0,71.3 L130.1,81.2 L120.2,91.0 L110.3,100.9 L100.4,110.8 L90.5,120.7 L80.6,130.6 L70.7,140.5 L60.8,150.4 L50.9,160.3 L41.0,170.2 L31.1,180.1 L21.2,190.0 L11.3,199.9 L1.5,209.8 L-8.4,219.7" stroke="url(#g)" stroke-width="1.84" fill="none" opacity="0.18"/><path d="M431.6,9.0 L443.7,2.0 L456.4,-3.8 L469.7,-8.1 L483.5,-10.7 L497.5,-11.7 L511.5,-11.9 L525.5,-12.0 L539.4,-13.3 L553.0,-16.5 L565.9,-21.9 L578.0,-29.0 L589.2,-37.4 L599.9,-46.5 L610.2,-55.9 L620.3,-65.6 L630.3,-75.4 L640.3,-85.2 L650.2,-95.1 L660.1,-105.0 L670.0,-114.9 L680.0,-124.8 L689.9,-134.7" stroke="url(#g)" stroke-width="1.79" fill="none" opacity="0.27"/><path d="M708.7,370.0 L722.7,368.4 L734.9,375.2 L736.7,389.0 L728.5,400.4 L718.7,410.4 L708.8,420.3 L698.9,430.2 L689.0,440.1 L679.1,450.0 L669.2,459.9 L659.3,469.8 L649.4,479.7 L639.5,489.6 L629.6,499.5 L619.7,509.4 L609.8,519.3 L599.9,529.2 L590.0,539.1 L580.1,549.0 L570.2,558.9 L560.3,568.8 L550.4,578.7" stroke="url(#g)" stroke-width="0.97" fill="none" opacity="0.07"/><path d="M538.3,19.4 L547.6,8.9 L557.2,-1.3 L566.9,-11.4 L576.7,-21.3 L586.6,-31.3 L596.5,-41.2 L606.3,-51.1 L616.2,-61.0 L626.1,-70.9 L636.0,-80.8 L645.9,-90.7 L655.8,-100.6 L665.7,-110.5 L675.6,-120.4 L685.5,-130.3 L695.4,-140.2 L705.3,-150.1 L715.2,-160.0 L725.1,-169.9 L735.0,-179.8 L744.9,-189.7 L754.8,-199.6" stroke="url(#g)" stroke-width="2.02" fill="none" opacity="0.24"/><path d="M540.4,50.4 L536.4,37.0 L540.4,23.5 L547.8,11.7 L556.6,0.8 L565.9,-9.6 L575.6,-19.8 L585.3,-29.8 L595.2,-39.8 L605.0,-49.7 L614.9,-59.7 L624.8,-69.6 L634.7,-79.5 L644.6,-89.4 L654.5,-99.3 L664.4,-109.2 L674.3,-119.1 L684.2,-129.0 L694.1,-138.9 L704.0,-148.8 L713.9,-158.7 L723.8,-168.6 L733.7,-178.5" stroke="url(#g)" stroke-width="1.55" fill="none" opacity="0.07"/><path d="M457.7,575.1 L447.7,565.3 L433.8,566.9 L422.5,575.1 L412.2,584.6 L402.3,594.5 L392.4,604.3 L382.4,614.2 L372.5,624.1 L362.6,634.0 L352.7,643.9 L342.8,653.8 L332.9,663.7 L323.1,673.6 L313.2,683.5 L303.3,693.4 L293.4,703.3 L283.5,713.2 L273.6,723.1 L263.7,733.0 L253.8,742.9 L243.9,752.8 L234.0,762.7" stroke="url(#g)" stroke-width="1.52" fill="none" opacity="0.24"/><path d="M760.6,567.5 L772.8,560.7 L784.2,552.5 L795.0,543.6 L805.3,534.2 L815.5,524.5 L825.5,514.8 L835.5,505.0 L845.4,495.1 L855.4,485.2 L865.3,475.3 L875.2,465.4 L885.1,455.5 L895.0,445.6 L904.9,435.7 L914.8,425.8 L924.7,415.9 L934.6,406.0 L944.5,396.1 L954.4,386.2 L964.3,376.3 L974.2,366.4 L984.1,356.5" stroke="url(#g)" stroke-width="2.01" fill="none" opacity="0.13"/><path d="M444.6,40.8 L458.6,40.6 L472.6,40.5 L486.6,39.2 L500.2,36.1 L513.2,30.8 L525.2,23.6 L536.5,15.3 L547.1,6.2 L557.5,-3.2 L567.6,-12.9 L577.6,-22.7 L587.6,-32.5 L597.5,-42.4 L607.4,-52.2 L617.3,-62.1 L627.2,-72.0 L637.1,-81.9 L647.0,-91.8 L656.9,-101.7 L666.8,-111.6 L676.7,-121.5 L686.6,-131.4" stroke="url(#g)" stroke-width="1.69" fill="none" opacity="0.28"/><path d="M749.2,98.7 L762.7,102.5 L776.7,103.5 L790.7,103.6 L804.7,103.9 L818.6,105.4 L831.9,109.7 L843.2,118.0 L849.0,130.7 L846.8,144.6 L839.1,156.3 L829.7,166.7 L820.0,176.7 L810.1,186.6 L800.2,196.5 L790.3,206.4 L780.4,216.3 L770.5,226.2 L760.6,236.1 L750.7,246.0 L740.8,255.9 L730.9,265.8 L721.0,275.7" stroke="url(#g)" stroke-width="0.83" fill="none" opacity="0.07"/><circle cx="729.7" cy="547.3" r="3.7" fill="#e8d5b7" opacity="0.85"/><circle cx="179.9" cy="293.8" r="1.1" fill="#e8d5b7" opacity="0.32"/><circle cx="114.1" cy="478.3" r="1.0" fill="#e8d5b7" opacity="0.30"/><circle cx="753.6" cy="204.5" r="3.7" fill="#e8d5b7" opacity="0.83"/><circle cx="137.9" cy="98.9" r="3.1" fill="#e8d5b7" opacity="0.72"/><circle cx="45.7" cy="392.0" r="1.7" fill="#e8d5b7" opacity="0.43"/><circle cx="384.9" cy="90.9" r="3.9" fill="#e8d5b7" opacity="0.87"/><circle cx="113.8" cy="230.5" r="1.9" fill="#e8d5b7" opacity="0.48"/><circle cx="404.9" cy="168.5" r="3.2" fill="#e8d5b7" opacity="0.75"/><circle cx="522.6" cy="241.7" r="2.5" fill="#e8d5b7" opacity="0.59"/><circle cx="600.0" cy="506.1" r="1.4" fill="#e8d5b7" opacity="0.39"/><circle cx="552.5" cy="497.1" r="2.1" fill="#e8d5b7" opacity="0.52"/><circle cx="798.9" cy="203.8" r="3.8" fill="#e8d5b7" opacity="0.87"/><circle cx="341.8" cy="210.6" r="3.3" fill="#e8d5b7" opacity="0.76"/><circle cx="576.5" cy="209.5" r="3.2" fill="#e8d5b7" opacity="0.74"/><circle cx="344.6" cy="27.1" r="3.8" fill="#e8d5b7" opacity="0.87"/><circle cx="77.5" cy="408.5" r="1.3" fill="#e8d5b7" opacity="0.36"/><circle cx="158.1" cy="461.5" r="2.5" fill="#e8d5b7" opacity="0.60"/><circle cx="674.9" cy="134.3" r="3.4" fill="#e8d5b7" opacity="0.78"/><circle cx="12.3" cy="473.3" r="2.3" fill="#e8d5b7" opacity="0.57"/><circle cx="21.9" cy="384.8" r="1.5" fill="#e8d5b7" opacity="0.40"/><circle cx="83.1" cy="157.9" r="1.5" fill="#e8d5b7" opacity="0.39"/><circle cx="771.0" cy="467.8" r="3.9" fill="#e8d5b7" opacity="0.89"/><circle cx="228.8" cy="149.6" r="2.6" fill="#e8d5b7" opacity="0.62"/><circle cx="76.1" cy="102.4" r="1.6" fill="#e8d5b7" opacity="0.42"/><circle cx="260.0" cy="275.8" r="1.2" fill="#e8d5b7" opacity="0.33"/></g><circle cx="400" cy="252" r="60" fill="none" stroke="#e8d5b7" stroke-width="1" opacity="0.25"/><circle cx="400" cy="252" r="110" fill="none" stroke="#a78b71" stroke-width="1" opacity="0.15"/></svg>