<svg xmlns="http://www.w3.org/2000/svg" viewBox="0 0 800 600" width="800" height="600"><defs><linearGradient id="g" x1="0" y1="0" x2="1" y2="1"><stop offset="0.1" stop-color="#a78b71"/><stop offset="0.9" stop-color="#c9b8a0"/></linearGradient><radialGradient id="bg" cx="50%" cy="40%" r="75%"><stop offset="0" stop-color="#16120d"/><stop offset="1" stop-color="#0a0a0a"/></radialGradient></defs><rect width="800" height="600" fill="url(#bg)"/><g><path d="M465.1,348.9 L467.1,335.0 L463.4,321.5 L452.3,312.9 L438.5,315.4 L427.7,324.3 L417.7,334.1 L407.8,344.0 L397.9,353.9 L388.0,363.8 L378.1,373.7 L368.2,383.6 L358.3,393.5 L348.4,403.4 L338.5,413.3 L328.6,423.2 L318.7,433.1 L308.8,443.0 L298.9,452.9 L289.0,462.8 L279.1,472.7 L269.3,482.6 L259.4,492.5" stroke="url(#g)" stroke-width="1.43" fill="none" opacity="0.19"/><path d="M684.0,544.2 L693.5,554.4 L706.4,559.9 L720.3,561.8 L734.3,562.2 L748.3,562.2 L762.3,563.1 L776.0,566.0 L788.4,572.5 L797.0,583.5 L798.2,597.5 L792.2,610.1 L783.3,620.9 L773.6,631.0 L763.8,641.0 L753.9,650.9 L744.0,660.8 L734.1,670.7 L724.2,680.6 L714.3,690.5 L704.4,700.4 L694.5,710.3 L684.6,720.2" stroke="url(#g)" stroke-width="1.91" fill="none" opacity="0.09"/><path d="M534.3,404.5 L547.7,400.4 L560.3,394.2 L571.9,386.5 L582.9,377.8 L593.4,368.5 L603.6,358.9 L613.7,349.2 L623.7,339.4 L633.6,329.6 L643.6,319.7 L653.5,309.8 L663.4,299.9 L673.3,290.0 L683.2,280.1 L693.1,270.2 L703.0,260.3 L712.9,250.4 L722.8,240.5 L732.7,230.6 L742.6,220.7 L752.5,210.8 L762.4,200.9" stroke="url(#g)" stroke-width="1.41" fill="none" opacity="0.25"/><path d="M3.5,46.5 L13.0,36.2 L22.3,25.7 L31.2,15.0 L39.7,3.8 L47.3,-7.9 L53.6,-20.4 L57.5,-33.9 L57.2,-47.9 L50.1,-59.9 L36.6,-63.7 L24.2,-57.1 L14.0,-47.5 L4.1,-37.7 L-5.8,-27.8 L-15.7,-17.9 L-25.6,-8.0 L-35.5,1.9 L-45.4,11.8 L-55.3,21.7 L-65.2,31.6 L-75.1,41.5 L-85.0,51.4" stroke="url(#g)" stroke-width="1.20" fill="none" opacity="0.06"/><path d="M165.2,271.0 L172.8,282.7 L184.9,289.8 L198.6,292.8 L212.5,293.5 L226.5,293.5 L240.5,294.0 L254.4,296.0 L267.4,301.1 L277.8,310.5 L282.0,323.8 L278.1,337.3 L269.9,348.6 L260.3,358.8 L250.5,368.8 L240.6,378.7 L230.7,388.6 L220.8,398.5 L210.9,408.4 L201.0,418.3 L191.1,428.2 L181.2,438.1 L171.3,448.0" stroke="url(#g)" stroke-width="1.02" fill="none" opacity="0.18"/><path d="M320.0,66.0 L307.1,71.4 L293.1,72.6 L280.7,66.1 L277.9,52.4 L285.9,40.9 L295.8,31.0 L305.7,21.1 L315.6,11.2 L325.5,1.3 L335.4,-8.6 L345.3,-18.5 L355.2,-28.4 L365.1,-38.3 L375.0,-48.2 L384.9,-58.1 L394.8,-68.0 L404.7,-77.9 L414.6,-87.8 L424.5,-97.7 L434.4,-107.6 L444.3,-117.5 L454.2,-127.4" stroke="url(#g)" stroke-width="1.63" fill="none" opacity="0.27"/><path d="M248.7,528.4 L235.5,523.8 L222.9,529.7 L212.6,539.3 L202.7,549.1 L192.8,559.0 L182.9,568.9 L173.0,578.8 L163.1,588.7 L153.2,598.6 L143.3,608.5 L133.4,618.4 L123.5,628.3 L113.6,638.2 L103.7,648.1 L93.8,658.0 L83.9,667.9 L74.0,677.8 L64.1,687.7 L54.2,697.6 L44.3,707.5 L34.4,717.4 L24.5,727.3" stroke="url(#g)" stroke-width="0.97" fill="none" opacity="0.16"/><path d="M306.6,552.7 L319.8,548.1 L333.5,545.2 L347.5,543.9 L361.5,543.7 L375.5,543.6 L389.4,542.6 L403.1,539.8 L416.2,534.8 L428.4,527.9 L439.8,519.7 L450.5,510.8 L460.9,501.3 L471.0,491.7 L481.1,481.9 L491.0,472.1 L501.0,462.2 L510.9,452.4 L520.8,442.5 L530.7,432.6 L540.6,422.7 L550.5,412.8 L560.4,402.9" stroke="url(#g)" stroke-width="0.96" fill="none" opacity="0.26"/><path d="M690.4,91.3 L678.3,84.3 L664.9,88.3 L654.4,97.6 L644.4,107.4 L634.5,117.3 L624.6,127.2 L614.7,137.1 L604.8,147.0 L594.9,156.9 L585.0,166.8 L575.1,176.7 L565.2,186.6 L555.3,196.5 L545.4,206.4 L535.5,216.3 L525.6,226.2 L515.7,236.1 L505.8,246.0 L495.9,255.9 L486.0,265.8 L476.1,275.7 L466.2,285.6" stroke="url(#g)" stroke-width="0.79" fill="none" opacity="0.13"/><path d="M21.9,133.0 L35.2,128.6 L47.6,122.2 L59.2,114.3 L70.0,105.5 L80.5,96.1 L90.7,86.5 L100.7,76.8 L110.7,67.0 L120.7,57.1 L130.6,47.3 L140.5,37.4 L150.4,27.5 L160.3,17.6 L170.2,7.7 L180.1,-2.2 L190.0,-12.1 L199.9,-22.0 L209.8,-31.9 L219.7,-41.8 L229.6,-51.7 L239.5,-61.6 L249.4,-71.5" stroke="url(#g)" stroke-width="0.72" fill="none" opacity="0.17"/><path d="M432.9,386.8 L437.3,373.5 L437.7,359.5 L431.8,346.8 L418.9,341.4 L406.0,346.8 L395.7,356.2 L385.7,366.1 L375.8,376.0 L365.9,385.9 L356.0,395.8 L346.1,405.7 L336.2,415.6 L326.3,425.5 L316.4,435.4 L306.5,445.3 L296.6,455.2 L286.7,465.1 L276.8,475.0 L266.9,484.9 L257.0,494.8 L247.1,504.7 L237.2,514.6" stroke="url(#g)" stroke-width="1.05" fill="none" opacity="0.22"/><path d="M321.8,331.9 L311.1,322.9 L297.3,325.5 L286.1,334.0 L276.0,343.6 L266.0,353.4 L256.1,363.3 L246.2,373.2 L236.3,383.1 L226.4,393.0 L216.5,402.9 L206.6,412.8 L196.7,422.7 L186.8,432.6 L176.9,442.5 L167.0,452.4 L157.1,462.3 L147.2,472.2 L137.3,482.1 L127.4,492.0 L117.5,501.9 L107.6,511.8 L97.7,521.7" stroke="url(#g)" stroke-width="1.08" fill="none" opacity="0.28"/><path d="M4.6,532.5 L18.4,535.0 L31.2,540.7 L40.8,551.0 L43.5,564.7 L38.5,577.8 L29.9,588.8 L20.3,599.0 L10.4,608.9 L0.5,618.8 L-9.4,628.7 L-19.3,638.6 L-29.2,648.5 L-39.1,658.4 L-49.0,668.3 L-58.9,678.2 L-68.8,688.1 L-78.7,698.0 L-88.6,707.9 L-98.5,717.8 L-108.4,727.7 L-118.3,737.6 L-128.2,747.5" stroke="url(#g)" stroke-width="1.25" fill="none" opacity="0.12"/><path d="M473.8,195.0 L471.4,181.2 L460.2,172.8 L446.6,176.0 L435.5,184.5 L425.3,194.2 L415.4,204.0 L405.5,213.9 L395.6,223.8 L385.7,233.7 L375.8,243.6 L365.9,253.5 L356.0,263.4 L346.1,273.3 L336.2,283.2 L326.3,293.1 L316.4,303.0 L306.5,312.9 L296.6,322.8 L286.7,332.7 L276.8,342.6 L266.9,352.5 L257.0,362.4" stroke="url(#g)" stroke-width="0.96" fill="none" opacity="0.09"/><path d="M741.1,313.4 L734.4,325.7 L731.2,339.3 L735.0,352.8 L747.8,358.7 L760.0,352.0 L770.0,342.1 L779.9,332.2 L789.8,322.3 L799.7,312.4 L809.6,302.5 L819.5,292.6 L829.4,282.7 L839.3,272.8 L849.2,262.9 L859.1,253.0 L869.0,243.1 L878.9,233.2 L888.8,223.3 L898.7,213.4 L908.6,203.5 L918.5,193.6 L928.4,183.7" stroke="url(#g)" stroke-width="0.78" fill="none" opacity="0.12"/><path d="M1.7,512.5 L15.7,512.6 L29.6,513.8 L43.1,517.4 L55.0,524.8 L62.3,536.8 L61.7,550.8 L54.7,562.9 L45.5,573.5 L35.7,583.5 L25.9,593.5 L16.0,603.4 L6.1,613.3 L-3.8,623.2 L-13.7,633.1 L-23.6,643.0 L-33.5,652.9 L-43.4,662.8 L-53.3,672.7 L-63.2,682.6 L-73.1,692.5 L-83.0,702.4 L-92.9,712.3" stroke="url(#g)" stroke-width="1.12" fill="none" opacity="0.12"/><path d="M631.9,158.4 L622.9,147.7 L608.9,146.9 L597.3,154.8 L587.3,164.6 L577.4,174.4 L567.5,184.3 L557.6,194.2 L547.7,204.1 L537.8,214.0 L527.9,223.9 L518.0,233.8 L508.1,243.7 L498.2,253.6 L488.3,263.5 L478.4,273.4 L468.5,283.3 L458.6,293.2 L448.7,303.1 L438.8,313.0 L428.9,322.9 L419.0,332.8 L409.1,342.7" stroke="url(#g)" stroke-width="1.54" fill="none" opacity="0.10"/><path d="M289.4,242.2 L303.3,243.9 L316.7,248.2 L327.8,256.7 L333.4,269.5 L330.9,283.3 L323.2,295.0 L313.8,305.3 L304.0,315.3 L294.1,325.3 L284.2,335.2 L274.3,345.1 L264.4,355.0 L254.5,364.9 L244.6,374.8 L234.7,384.7 L224.8,394.6 L214.9,404.5 L205.0,414.4 L195.1,424.3 L185.2,434.2 L175.3,444.1 L165.4,454.0" stroke="url(#g)" stroke-width="1.40" fill="none" opacity="0.18"/><path d="M3.5,516.9 L17.5,517.4 L31.3,519.5 L44.3,524.6 L54.6,534.1 L58.6,547.6 L54.6,561.0 L46.2,572.2 L36.7,582.5 L26.9,592.4 L17.0,602.4 L7.1,612.3 L-2.8,622.2 L-12.7,632.1 L-22.6,642.0 L-32.5,651.9 L-42.4,661.8 L-52.3,671.7 L-62.2,681.6 L-72.1,691.5 L-82.0,701.4 L-91.9,711.3 L-101.8,721.2" stroke="url(#g)" stroke-width="1.66" fill="none" opacity="0.09"/><path d="M280.7,133.7 L279.5,147.7 L283.9,161.0 L294.0,170.7 L307.1,175.7 L321.0,177.4 L335.0,177.6 L349.0,177.7 L362.9,178.7 L376.5,182.0 L388.7,188.9 L396.7,200.4 L397.0,214.4 L390.5,226.8 L381.4,237.5 L371.7,247.6 L361.8,257.5 L352.0,267.4 L342.1,277.3 L332.2,287.2 L322.3,297.1 L312.4,307.0 L302.5,316.9" stroke="url(#g)" stroke-width="1.04" fill="none" opacity="0.12"/><path d="M449.2,34.6 L463.1,36.1 L477.1,36.3 L491.1,36.4 L505.0,37.6 L518.6,41.0 L530.6,48.2 L538.2,59.9 L538.0,73.9 L531.3,86.2 L522.1,96.8 L512.4,106.9 L502.5,116.8 L492.7,126.7 L482.8,136.6 L472.9,146.5 L463.0,156.4 L453.1,166.3 L443.2,176.2 L433.3,186.1 L423.4,196.0 L413.5,205.9 L403.6,215.8" stroke="url(#g)" stroke-width="2.06" fill="none" opacity="0.14"/><path d="M477.9,352.0 L485.9,340.4 L492.7,328.2 L497.5,315.1 L498.7,301.1 L494.0,287.9 L481.9,280.8 L468.5,284.7 L458.0,293.9 L448.0,303.8 L438.1,313.7 L428.2,323.6 L418.3,333.5 L408.4,343.4 L398.5,353.3 L388.6,363.2 L378.7,373.1 L368.8,383.0 L358.9,392.9 L349.0,402.8 L339.1,412.7 L329.2,422.6 L319.3,432.5" stroke="url(#g)" stroke-width="1.23" fill="none" opacity="0.15"/><path d="M395.6,329.8 L402.2,342.1 L396.3,354.8 L386.7,365.0 L376.9,374.9 L367.0,384.8 L357.1,394.7 L347.2,404.6 L337.3,414.5 L327.4,424.4 L317.5,434.3 L307.6,444.2 L297.7,454.1 L287.8,464.0 L277.9,473.9 L268.0,483.8 L258.1,493.7 L248.2,503.6 L238.3,513.5 L228.4,523.4 L218.5,533.3 L208.6,543.2 L198.7,553.1" stroke="url(#g)" stroke-width="0.85" fill="none" opacity="0.14"/><path d="M100.1,501.1 L98.5,515.0 L91.0,526.9 L81.7,537.3 L71.9,547.4 L62.1,557.3 L52.2,567.2 L42.3,577.1 L32.4,587.0 L22.5,596.9 L12.6,606.8 L2.7,616.7 L-7.2,626.6 L-17.1,636.5 L-27.0,646.4 L-36.9,656.3 L-46.8,666.2 L-56.7,676.1 L-66.6,686.0 L-76.5,695.9 L-86.4,705.8 L-96.3,715.7 L-106.2,725.6" stroke="url(#g)" stroke-width="1.82" fill="none" opacity="0.18"/><path d="M509.8,569.8 L519.1,580.3 L532.9,578.3 L543.3,568.9 L553.2,559.0 L563.1,549.1 L573.0,539.2 L582.9,529.3 L592.8,519.4 L602.7,509.5 L612.6,499.6 L622.5,489.7 L632.4,479.8 L642.3,469.9 L652.2,460.0 L662.1,450.1 L672.0,440.2 L681.9,430.3 L691.8,420.4 L701.7,410.5 L711.6,400.6 L721.5,390.7 L731.4,380.8" stroke="url(#g)" stroke-width="1.53" fill="none" opacity="0.16"/><path d="M131.7,248.2 L117.9,250.2 L104.8,245.2 L100.0,232.0 L107.0,219.9 L116.8,209.9 L126.7,200.0 L136.6,190.1 L146.5,180.2 L156.4,170.3 L166.3,160.4 L176.2,150.5 L186.1,140.6 L196.0,130.7 L205.9,120.8 L215.8,110.9 L225.7,101.0 L235.6,91.1 L245.5,81.2 L255.4,71.3 L265.3,61.4 L275.2,51.5 L285.1,41.6" stroke="url(#g)" stroke-width="1.97" fill="none" opacity="0.28"/><path d="M415.2,447.8 L428.7,444.0 L442.5,441.9 L456.5,441.2 L470.5,441.2 L484.5,440.8 L498.4,439.1 L511.8,435.2 L524.5,429.3 L536.3,421.7 L547.3,413.1 L557.9,403.9 L568.1,394.4 L578.2,384.7 L588.2,374.9 L598.2,365.0 L608.1,355.1 L618.0,345.3 L627.9,335.4 L637.8,325.5 L647.7,315.6 L657.6,305.7 L667.5,295.8" stroke="url(#g)" stroke-width="1.07" fill="none" opacity="0.12"/><path d="M717.0,545.8 L730.8,548.3 L744.7,548.9 L758.7,548.9 L772.7,549.5 L786.5,551.9 L799.3,557.5 L809.0,567.6 L811.9,581.3 L807.1,594.5 L798.5,605.5 L788.9,615.7 L779.1,625.7 L769.2,635.6 L759.3,645.5 L749.4,655.4 L739.5,665.3 L729.6,675.2 L719.7,685.1 L709.8,695.0 L699.9,704.9 L690.0,714.8 L680.1,724.7" stroke="url(#g)" stroke-width="1.68" fill="none" opacity="0.13"/><path d="M171.3,159.7 L178.9,147.9 L188.8,138.0 L198.7,128.1 L208.6,118.2 L218.5,108.3 L228.4,98.4 L238.3,88.5 L248.2,78.6 L258.1,68.7 L268.0,58.8 L277.9,48.9 L287.8,39.0 L297.7,29.1 L307.6,19.2 L317.5,9.3 L327.4,-0.6 L337.3,-10.5 L347.2,-20.4 L357.1,-30.3 L367.0,-40.2 L376.9,-50.1 L386.8,-60.0" stroke="url(#g)" stroke-width="1.32" fill="none" opacity="0.10"/><path d="M651.8,55.0 L665.6,57.1 L673.8,68.5 L669.2,81.7 L659.7,92.0 L649.9,101.9 L640.0,111.8 L630.1,121.7 L620.2,131.6 L610.3,141.5 L600.4,151.4 L590.5,161.3 L580.6,171.2 L570.7,181.1 L560.8,191.0 L550.9,200.9 L541.0,210.8 L531.1,220.7 L521.2,230.6 L511.3,240.5 L501.4,250.4 L491.5,260.3 L481.6,270.2" stroke="url(#g)" stroke-width="1.44" fill="none" opacity="0.24"/><path d="M569.5,382.1 L581.6,375.1 L592.9,366.8 L603.6,357.8 L613.9,348.4 L624.1,338.7 L634.1,328.9 L644.0,319.1 L654.0,309.2 L663.9,299.4 L673.8,289.5 L683.7,279.6 L693.6,269.7 L703.5,259.8 L713.4,249.9 L723.3,240.0 L733.2,230.1 L743.1,220.2 L753.0,210.3 L762.9,200.4 L772.8,190.5 L782.7,180.6 L792.6,170.7" stroke="url(#g)" stroke-width="1.75" fill="none" opacity="0.15"/><path d="M323.0,566.5 L337.0,566.2 L351.0,566.2 L364.9,565.4 L378.7,562.8 L391.9,558.1 L404.2,551.5 L415.7,543.5 L426.5,534.6 L436.9,525.2 L447.1,515.6 L457.1,505.8 L467.1,496.0 L477.0,486.2 L487.0,476.3 L496.9,466.4 L506.8,456.5 L516.7,446.6 L526.6,436.7 L536.5,426.8 L546.4,416.9 L556.3,407.0 L566.2,397.1" stroke="url(#g)" stroke-width="0.59" fill="none" opacity="0.20"/><path d="M231.8,451.5 L239.1,439.6 L243.5,426.3 L241.8,412.4 L231.2,403.2 L217.4,405.5 L206.2,413.9 L196.0,423.5 L186.1,433.3 L176.2,443.2 L166.3,453.1 L156.4,463.0 L146.5,472.9 L136.6,482.8 L126.7,492.7 L116.8,502.6 L106.9,512.5 L97.0,522.4 L87.1,532.3 L77.2,542.2 L67.3,552.1 L57.4,562.0 L47.5,571.9" stroke="url(#g)" stroke-width="2.08" fill="none" opacity="0.20"/><path d="M157.0,422.0 L164.5,433.9 L164.2,447.9 L157.4,460.1 L148.3,470.7 L138.5,480.7 L128.7,490.7 L118.8,500.6 L108.9,510.5 L99.0,520.4 L89.1,530.3 L79.2,540.2 L69.3,550.1 L59.4,560.0 L49.5,569.9 L39.6,579.8 L29.7,589.7 L19.8,599.6 L9.9,609.5 L-0.0,619.4 L-9.9,629.3 L-19.8,639.2 L-29.7,649.1" stroke="url(#g)" stroke-width="1.61" fill="none" opacity="0.19"/><path d="M440.8,143.3 L446.6,156.1 L444.3,169.9 L436.5,181.6 L427.1,191.9 L417.3,202.0 L407.5,211.9 L397.6,221.8 L387.7,231.7 L377.8,241.6 L367.9,251.5 L358.0,261.4 L348.1,271.3 L338.2,281.2 L328.3,291.1 L318.4,301.0 L308.5,310.9 L298.6,320.8 L288.7,330.7 L278.8,340.6 L268.9,350.5 L259.0,360.4 L249.1,370.3" stroke="url(#g)" stroke-width="0.88" fill="none" opacity="0.18"/><path d="M13.0,533.7 L26.3,538.0 L37.6,546.3 L43.4,559.0 L41.2,572.8 L33.5,584.6 L24.1,594.9 L14.4,605.0 L4.5,614.9 L-5.4,624.8 L-15.3,634.7 L-25.2,644.6 L-35.1,654.5 L-45.0,664.4 L-54.9,674.3 L-64.8,684.2 L-74.7,694.1 L-84.6,704.0 L-94.5,713.9 L-104.4,723.8 L-114.3,733.7 L-124.2,743.6 L-134.1,753.5" stroke="url(#g)" stroke-width="1.53" fill="none" opacity="0.06"/><path d="M20.9,253.1 L17.3,266.7 L20.3,280.3 L32.4,287.3 L45.1,281.4 L55.1,271.6 L65.0,261.7 L74.9,251.8 L84.8,241.9 L94.7,232.0 L104.6,222.1 L114.5,212.2 L124.4,202.3 L134.3,192.4 L144.2,182.5 L154.1,172.6 L164.0,162.7 L173.9,152.8 L183.8,142.9 L193.7,133.0 L203.6,123.1 L213.5,113.2 L223.4,103.3" stroke="url(#g)" stroke-width="0.96" fill="none" opacity="0.22"/><path d="M224.2,202.8 L228.5,216.1 L238.5,225.9 L251.6,230.9 L265.5,232.7 L279.5,232.9 L293.5,233.0 L307.4,234.0 L321.1,237.2 L333.3,244.1 L341.3,255.5 L341.8,269.5 L335.3,281.9 L326.3,292.6 L316.6,302.7 L306.7,312.6 L296.8,322.5 L286.9,332.4 L277.0,342.3 L267.1,352.2 L257.2,362.1 L247.3,372.0 L237.4,381.9" stroke="url(#g)" stroke-width="1.20" fill="none" opacity="0.09"/><path d="M305.0,178.6 L318.9,180.2 L332.9,180.4 L346.9,180.5 L360.9,181.6 L374.4,185.0 L386.5,192.1 L394.1,203.9 L394.0,217.9 L387.3,230.2 L378.2,240.8 L368.5,250.8 L358.6,260.8 L348.7,270.7 L338.8,280.6 L328.9,290.5 L319.0,300.4 L309.1,310.3 L299.2,320.2 L289.3,330.1 L279.4,340.0 L269.5,349.9 L259.6,359.8" stroke="url(#g)" stroke-width="0.72" fill="none" opacity="0.13"/><path d="M723.9,136.8 L737.3,132.5 L751.0,130.0 L765.0,128.9 L779.0,128.8 L793.0,128.7 L806.9,127.4 L820.6,124.1 L833.5,118.7 L845.5,111.6 L856.7,103.2 L867.4,94.1 L877.7,84.7 L887.8,75.0 L897.8,65.2 L907.8,55.4 L917.7,45.5 L927.6,35.6 L937.5,25.7 L947.4,15.8 L957.3,5.9 L967.3,-4.0 L977.2,-13.9" stroke="url(#g)" stroke-width="1.30" fill="none" opacity="0.22"/><path d="M187.9,302.8 L201.9,303.6 L215.9,303.6 L229.9,304.0 L243.8,306.0 L256.9,310.9 L267.4,320.1 L271.9,333.4 L268.3,346.9 L260.1,358.3 L250.6,368.5 L240.8,378.5 L230.9,388.4 L221.0,398.3 L211.1,408.2 L201.2,418.1 L191.3,428.0 L181.4,437.9 L171.5,447.8 L161.6,457.7 L151.7,467.6 L141.8,477.5 L131.9,487.4" stroke="url(#g)" stroke-width="1.74" fill="none" opacity="0.27"/><path d="M443.5,65.7 L457.5,65.7 L471.5,66.4 L485.2,69.0 L497.9,74.9 L507.3,85.3 L509.6,99.1 L504.4,112.1 L495.6,123.1 L486.0,133.2 L476.2,143.2 L466.3,153.1 L456.4,163.0 L446.5,172.9 L436.6,182.8 L426.7,192.7 L416.8,202.6 L406.9,212.5 L397.0,222.4 L387.1,232.3 L377.2,242.2 L367.3,252.1 L357.4,262.0" stroke="url(#g)" stroke-width="1.22" fill="none" opacity="0.19"/><path d="M162.9,179.4 L163.1,165.4 L172.1,154.6 L182.0,144.7 L191.9,134.8 L201.8,124.9 L211.7,115.0 L221.6,105.1 L231.5,95.2 L241.4,85.3 L251.3,75.4 L261.2,65.5 L271.1,55.6 L281.0,45.7 L290.9,35.8 L300.8,25.9 L310.7,16.0 L320.6,6.1 L330.5,-3.8 L340.4,-13.7 L350.3,-23.6 L360.2,-33.5 L370.1,-43.4" stroke="url(#g)" stroke-width="1.73" fill="none" opacity="0.16"/><path d="M483.0,555.9 L469.8,560.6 L455.8,560.3 L444.5,552.1 L441.6,538.4 L446.1,525.1 L453.8,513.4 L462.7,502.6 L472.1,492.2 L481.7,482.1 L491.5,472.1 L501.3,462.1 L511.2,452.2 L521.1,442.2 L531.0,432.3 L540.9,422.4 L550.8,412.5 L560.7,402.6 L570.6,392.7 L580.5,382.8 L590.4,372.9 L600.3,363.0 L610.1,353.1" stroke="url(#g)" stroke-width="1.03" fill="none" opacity="0.11"/><path d="M458.5,318.7 L445.3,314.0 L432.6,320.0 L422.4,329.5 L412.4,339.4 L402.5,349.3 L392.6,359.2 L382.7,369.1 L372.8,379.0 L362.9,388.9 L353.0,398.8 L343.1,408.7 L333.2,418.6 L323.3,428.5 L313.4,438.4 L303.5,448.3 L293.6,458.2 L283.7,468.1 L273.8,478.0 L263.9,487.9 L254.0,497.8 L244.1,507.7 L234.2,517.6" stroke="url(#g)" stroke-width="1.95" fill="none" opacity="0.11"/><path d="M28.0,23.0 L37.8,13.0 L47.5,2.9 L57.1,-7.3 L66.6,-17.6 L75.8,-28.2 L84.7,-39.0 L93.0,-50.2 L100.5,-62.1 L106.4,-74.8 L109.7,-88.4 L108.2,-102.3 L99.6,-113.3 L85.7,-114.8 L73.9,-107.1 L63.9,-97.4 L54.0,-87.5 L44.1,-77.6 L34.2,-67.7 L24.3,-57.8 L14.4,-47.9 L4.5,-38.0 L-5.4,-28.1" stroke="url(#g)" stroke-width="1.07" fill="none" opacity="0.07"/><path d="M61.9,376.3 L70.2,387.6 L82.6,394.2 L96.3,396.8 L110.3,397.4 L124.3,397.4 L138.3,397.9 L152.1,400.3 L165.0,405.7 L174.9,415.7 L178.1,429.3 L173.5,442.5 L165.0,453.6 L155.4,463.8 L145.5,473.8 L135.7,483.7 L125.8,493.6 L115.9,503.5 L106.0,513.4 L96.1,523.3 L86.2,533.2 L76.3,543.1 L66.4,553.0" stroke="url(#g)" stroke-width="1.86" fill="none" opacity="0.24"/><path d="M114.0,142.9 L101.7,149.6 L88.2,153.1 L74.4,150.5 L65.2,140.0 L65.1,126.0 L71.0,113.3 L79.2,101.9 L88.2,91.3 L97.7,81.0 L107.4,70.9 L117.2,60.9 L127.1,50.9 L136.9,41.0 L146.8,31.1 L156.7,21.2 L166.6,11.3 L176.5,1.4 L186.4,-8.5 L196.3,-18.4 L206.2,-28.3 L216.1,-38.2 L226.0,-48.1" stroke="url(#g)" stroke-width="0.84" fill="none" opacity="0.15"/><path d="M497.0,342.7 L507.5,333.5 L518.4,324.6 L529.5,316.2 L541.2,308.5 L553.5,301.7 L566.4,296.2 L579.8,292.4 L593.6,290.2 L607.6,289.4 L621.6,289.4 L635.6,289.1 L649.5,287.4 L663.0,283.6 L675.7,277.8 L687.6,270.3 L698.6,261.7 L709.2,252.5 L719.5,243.0 L729.5,233.3 L739.5,223.5 L749.5,213.7 L759.4,203.8" stroke="url(#g)" stroke-width="0.89" fill="none" opacity="0.20"/><path d="M480.0,460.8 L493.2,456.3 L505.6,449.7 L517.2,441.8 L528.0,432.9 L538.4,423.6 L548.6,414.0 L558.7,404.3 L568.7,394.4 L578.6,384.6 L588.5,374.7 L598.4,364.8 L608.3,354.9 L618.2,345.0 L628.1,335.1 L638.0,325.2 L647.9,315.3 L657.8,305.4 L667.7,295.5 L677.6,285.6 L687.5,275.7 L697.4,265.8 L707.3,255.9" stroke="url(#g)" stroke-width="1.68" fill="none" opacity="0.25"/><path d="M771.9,535.2 L785.9,535.7 L799.7,538.1 L812.6,543.5 L822.4,553.5 L825.7,567.1 L821.1,580.3 L812.6,591.4 L803.0,601.6 L793.2,611.6 L783.3,621.5 L773.4,631.4 L763.5,641.3 L753.6,651.2 L743.7,661.1 L733.8,671.0 L723.9,680.9 L714.0,690.8 L704.1,700.7 L694.2,710.6 L684.3,720.5 L674.4,730.4 L664.5,740.3" stroke="url(#g)" stroke-width="1.14" fill="none" opacity="0.26"/><path d="M123.0,198.5 L135.1,191.5 L145.1,181.6 L155.0,171.7 L164.9,161.8 L174.8,151.9 L184.7,142.0 L194.6,132.1 L204.5,122.2 L214.4,112.3 L224.3,102.4 L234.2,92.5 L244.1,82.6 L254.0,72.7 L263.9,62.8 L273.8,52.9 L283.7,43.0 L293.6,33.1 L303.5,23.2 L313.4,13.3 L323.3,3.4 L333.2,-6.5 L343.1,-16.4" stroke="url(#g)" stroke-width="0.81" fill="none" opacity="0.22"/><path d="M310.4,391.3 L324.3,389.9 L336.4,396.9 L337.8,410.9 L329.4,422.1 L319.7,432.1 L309.8,442.0 L299.9,451.9 L290.0,461.8 L280.1,471.7 L270.2,481.6 L260.3,491.5 L250.4,501.4 L240.5,511.3 L230.6,521.2 L220.7,531.1 L210.8,541.0 L200.9,550.9 L191.0,560.8 L181.1,570.7 L171.2,580.6 L161.3,590.5 L151.4,600.4" stroke="url(#g)" stroke-width="2.03" fill="none" opacity="0.14"/><path d="M703.6,60.0 L690.0,63.4 L679.4,72.5 L669.4,82.4 L659.5,92.3 L649.6,102.2 L639.7,112.1 L629.8,122.0 L619.9,131.9 L610.0,141.8 L600.1,151.7 L590.2,161.6 L580.3,171.5 L570.4,181.4 L560.5,191.3 L550.6,201.2 L540.7,211.1 L530.8,221.0 L520.9,230.9 L511.0,240.8 L501.1,250.7 L491.2,260.6 L481.3,270.5" stroke="url(#g)" stroke-width="1.36" fill="none" opacity="0.15"/><path d="M443.6,265.0 L457.2,268.3 L463.7,280.8 L457.8,293.4 L448.1,303.6 L438.3,313.5 L428.4,323.4 L418.5,333.3 L408.6,343.2 L398.7,353.1 L388.8,363.0 L378.9,372.9 L369.0,382.8 L359.1,392.7 L349.2,402.6 L339.3,412.5 L329.4,422.4 L319.5,432.3 L309.6,442.2 L299.7,452.1 L289.8,462.0 L279.9,471.9 L270.0,481.8" stroke="url(#g)" stroke-width="1.45" fill="none" opacity="0.22"/><path d="M562.4,434.5 L559.3,420.8 L563.8,407.5 L571.5,395.8 L580.3,385.0 L589.7,374.6 L599.4,364.4 L609.1,354.4 L619.0,344.4 L628.8,334.5 L638.7,324.6 L648.6,314.7 L658.5,304.8 L668.4,294.9 L678.3,285.0 L688.2,275.1 L698.1,265.2 L708.0,255.3 L717.9,245.4 L727.8,235.5 L737.7,225.6 L747.6,215.7 L757.5,205.8" stroke="url(#g)" stroke-width="2.09" fill="none" opacity="0.15"/><path d="M30.5,223.3 L17.4,228.2 L3.4,228.2 L-8.3,220.4 L-11.6,206.8 L-7.3,193.5 L0.2,181.7 L9.1,170.9 L18.4,160.5 L28.1,150.3 L37.9,140.3 L47.7,130.3 L57.5,120.4 L67.4,110.5 L77.3,100.6 L87.2,90.7 L97.1,80.8 L107.0,70.9 L116.9,61.0 L126.8,51.1 L136.7,41.2 L146.6,31.3 L156.5,21.4" stroke="url(#g)" stroke-width="1.14" fill="none" opacity="0.17"/><path d="M754.8,198.2 L766.7,190.9 L777.8,182.4 L788.4,173.2 L798.7,163.7 L808.8,154.0 L818.8,144.2 L828.8,134.4 L838.7,124.5 L848.6,114.6 L858.5,104.8 L868.4,94.9 L878.3,85.0 L888.2,75.1 L898.1,65.2 L908.0,55.3 L917.9,45.4 L927.8,35.5 L937.7,25.6 L947.6,15.7 L957.5,5.8 L967.4,-4.1 L977.3,-14.0" stroke="url(#g)" stroke-width="1.89" fill="none" opacity="0.09"/><path d="M7.6,46.7 L18.2,37.4 L29.0,28.5 L40.1,20.1 L51.8,12.3 L64.0,5.5 L76.9,0.0 L90.3,-3.9 L104.1,-6.2 L118.1,-7.0 L132.1,-7.0 L146.1,-7.3 L160.0,-8.9 L173.5,-12.6 L186.3,-18.4 L198.1,-25.8 L209.2,-34.3 L219.8,-43.5 L230.1,-53.0 L240.2,-62.7 L250.2,-72.5 L260.1,-82.4 L270.1,-92.2" stroke="url(#g)" stroke-width="1.46" fill="none" opacity="0.19"/><path d="M134.7,314.0 L145.6,322.8 L159.0,327.0 L172.9,328.3 L186.9,328.4 L200.9,328.5 L214.9,329.9 L228.3,333.7 L240.0,341.6 L246.7,353.8 L245.4,367.8 L238.1,379.8 L228.8,390.2 L219.0,400.3 L209.2,410.2 L199.3,420.1 L189.4,430.0 L179.5,439.9 L169.6,449.8 L159.7,459.7 L149.8,469.6 L139.9,479.5 L130.0,489.4" stroke="url(#g)" stroke-width="1.47" fill="none" opacity="0.16"/><path d="M156.2,430.1 L161.1,443.2 L158.0,456.9 L150.0,468.3 L140.5,478.6 L130.7,488.6 L120.8,498.6 L110.9,508.5 L101.0,518.4 L91.1,528.3 L81.2,538.2 L71.3,548.1 L61.4,558.0 L51.5,567.9 L41.6,577.8 L31.7,587.7 L21.8,597.6 L11.9,607.5 L2.0,617.4 L-7.9,627.3 L-17.8,637.2 L-27.7,647.1 L-37.6,656.9" stroke="url(#g)" stroke-width="1.53" fill="none" opacity="0.23"/><path d="M629.2,228.2 L642.2,223.2 L655.8,219.8 L669.7,218.2 L683.7,217.8 L697.7,217.7 L711.7,217.1 L725.5,214.8 L738.8,210.4 L751.2,203.9 L762.8,196.0 L773.7,187.2 L784.1,177.9 L794.3,168.3 L804.4,158.6 L814.4,148.7 L824.3,138.9 L834.2,129.0 L844.1,119.1 L854.0,109.2 L863.9,99.3 L873.8,89.4 L883.7,79.5" stroke="url(#g)" stroke-width="1.77" fill="none" opacity="0.22"/><path d="M191.1,586.7 L178.0,581.7 L165.3,587.4 L155.0,596.9 L145.0,606.8 L135.1,616.7 L125.2,626.6 L115.3,636.5 L105.4,646.4 L95.5,656.3 L85.6,666.2 L75.7,676.1 L65.8,686.0 L55.9,695.9 L46.0,705.8 L36.1,715.7 L26.2,725.6 L16.3,735.5 L6.4,745.4 L-3.5,755.3 L-13.4,765.2 L-23.3,775.1 L-33.2,785.0" stroke="url(#g)" stroke-width="1.31" fill="none" opacity="0.07"/><path d="M346.4,266.7 L339.1,278.7 L329.8,289.2 L320.1,299.2 L310.2,309.2 L300.3,319.1 L290.4,329.0 L280.5,338.9 L270.6,348.8 L260.7,358.7 L250.8,368.6 L240.9,378.5 L231.0,388.4 L221.1,398.3 L211.2,408.2 L201.3,418.1 L191.4,428.0 L181.5,437.9 L171.6,447.8 L161.7,457.7 L151.8,467.6 L141.9,477.5 L132.0,487.4" stroke="url(#g)" stroke-width="2.07" fill="none" opacity="0.06"/><path d="M285.7,53.1 L288.3,39.4 L297.7,29.0 L307.6,19.1 L317.5,9.2 L327.4,-0.7 L337.3,-10.6 L347.2,-20.5 L357.1,-30.4 L367.0,-40.3 L376.9,-50.2 L386.8,-60.1 L396.7,-70.0 L406.6,-79.9 L416.5,-89.8 L426.4,-99.7 L436.3,-109.6 L446.2,-119.5 L456.1,-129.4 L466.0,-139.3 L475.9,-149.2 L485.8,-159.1 L495.7,-169.0" stroke="url(#g)" stroke-width="0.55" fill="none" opacity="0.28"/><path d="M149.7,428.6 L157.5,440.3 L157.5,454.3 L150.8,466.6 L141.7,477.2 L132.0,487.3 L122.1,497.2 L112.2,507.2 L102.3,517.1 L92.4,527.0 L82.5,536.9 L72.6,546.8 L62.7,556.7 L52.8,566.6 L42.9,576.5 L33.0,586.4 L23.1,596.3 L13.2,606.2 L3.3,616.1 L-6.6,626.0 L-16.5,635.9 L-26.4,645.8 L-36.3,655.6" stroke="url(#g)" stroke-width="0.88" fill="none" opacity="0.25"/><path d="M749.5,496.9 L762.2,502.7 L776.0,504.9 L790.0,505.3 L804.0,505.3 L818.0,506.0 L831.7,508.8 L844.3,514.9 L853.4,525.5 L855.3,539.4 L849.8,552.3 L841.0,563.2 L831.3,573.3 L821.5,583.2 L811.6,593.2 L801.7,603.1 L791.8,613.0 L781.9,622.9 L772.0,632.8 L762.1,642.7 L752.2,652.6 L742.3,662.5 L732.4,672.4" stroke="url(#g)" stroke-width="1.46" fill="none" opacity="0.21"/><path d="M736.9,377.5 L745.6,366.5 L755.5,356.6 L765.4,346.7 L775.3,336.8 L785.2,326.9 L795.1,317.0 L805.0,307.1 L814.9,297.2 L824.8,287.3 L834.7,277.4 L844.6,267.5 L854.5,257.6 L864.4,247.7 L874.3,237.8 L884.2,227.9 L894.1,218.0 L904.0,208.1 L913.9,198.2 L923.8,188.3 L933.7,178.4 L943.6,168.5 L953.5,158.6" stroke="url(#g)" stroke-width="1.32" fill="none" opacity="0.10"/><path d="M160.9,325.6 L174.8,326.9 L188.8,327.0 L202.8,327.2 L216.7,328.6 L230.2,332.6 L241.7,340.5 L248.1,352.9 L246.6,366.8 L239.2,378.7 L229.9,389.2 L220.1,399.2 L210.2,409.1 L200.3,419.0 L190.4,428.9 L180.5,438.8 L170.6,448.7 L160.7,458.6 L150.8,468.5 L140.9,478.4 L131.0,488.3 L121.1,498.2 L111.2,508.1" stroke="url(#g)" stroke-width="0.80" fill="none" opacity="0.11"/><path d="M495.1,31.6 L509.1,32.6 L522.7,35.9 L534.9,42.8 L542.8,54.3 L543.1,68.3 L536.6,80.7 L527.5,91.4 L517.8,101.5 L507.9,111.4 L498.1,121.3 L488.2,131.2 L478.3,141.1 L468.4,151.0 L458.5,160.9 L448.6,170.8 L438.7,180.7 L428.8,190.6 L418.9,200.5 L409.0,210.4 L399.1,220.3 L389.2,230.2 L379.3,240.1" stroke="url(#g)" stroke-width="0.93" fill="none" opacity="0.24"/><path d="M196.0,98.3 L205.4,108.7 L219.2,106.6 L229.6,97.2 L239.5,87.3 L249.4,77.4 L259.3,67.5 L269.2,57.6 L279.1,47.7 L289.0,37.8 L298.9,27.9 L308.8,18.0 L318.7,8.1 L328.6,-1.8 L338.5,-11.7 L348.4,-21.6 L358.3,-31.5 L368.2,-41.4 L378.1,-51.3 L388.0,-61.2 L397.9,-71.1 L407.8,-81.0 L417.7,-90.9" stroke="url(#g)" stroke-width="0.53" fill="none" opacity="0.20"/><path d="M495.3,151.8 L482.4,146.4 L469.5,151.9 L458.8,161.0 L448.8,170.7 L438.8,180.6 L428.9,190.5 L419.0,200.4 L409.1,210.3 L399.2,220.1 L389.3,230.0 L379.4,239.9 L369.5,249.8 L359.6,259.7 L349.7,269.6 L339.8,279.5 L329.9,289.4 L320.0,299.3 L310.1,309.2 L300.2,319.1 L290.3,329.0 L280.4,338.9 L270.5,348.8" stroke="url(#g)" stroke-width="1.66" fill="none" opacity="0.16"/><path d="M66.9,137.4 L67.2,123.4 L73.3,110.8 L81.5,99.5 L90.6,88.9 L100.1,78.6 L109.8,68.5 L119.6,58.5 L129.5,48.5 L139.3,38.6 L149.2,28.7 L159.1,18.8 L169.0,8.9 L178.9,-1.0 L188.8,-10.9 L198.7,-20.8 L208.6,-30.7 L218.5,-40.6 L228.4,-50.5 L238.3,-60.4 L248.2,-70.3 L258.1,-80.2 L268.0,-90.1" stroke="url(#g)" stroke-width="1.96" fill="none" opacity="0.12"/><path d="M237.0,528.2 L223.2,530.6 L212.4,539.5 L202.5,549.4 L192.6,559.3 L182.7,569.2 L172.8,579.1 L162.9,589.0 L153.0,598.9 L143.1,608.8 L133.2,618.7 L123.3,628.6 L113.4,638.5 L103.5,648.4 L93.6,658.2 L83.7,668.1 L73.8,678.0 L63.9,687.9 L54.0,697.8 L44.1,707.7 L34.2,717.6 L24.3,727.5 L14.4,737.4" stroke="url(#g)" stroke-width="0.71" fill="none" opacity="0.18"/><path d="M260.3,544.1 L257.7,530.3 L247.7,520.5 L233.7,521.1 L222.5,529.5 L212.5,539.3 L202.6,549.2 L192.7,559.1 L182.8,569.0 L172.9,578.9 L163.0,588.8 L153.1,598.7 L143.2,608.6 L133.3,618.5 L123.4,628.4 L113.5,638.3 L103.6,648.2 L93.7,658.1 L83.8,668.0 L73.9,677.9 L64.0,687.8 L54.1,697.7 L44.2,707.6" stroke="url(#g)" stroke-width="1.68" fill="none" opacity="0.16"/><path d="M228.6,565.1 L221.0,553.3 L207.3,550.3 L195.2,557.2 L185.0,566.8 L175.1,576.7 L165.2,586.6 L155.3,596.5 L145.4,606.4 L135.5,616.3 L125.6,626.2 L115.7,636.1 L105.8,646.0 L95.9,655.9 L86.0,665.8 L76.1,675.7 L66.2,685.6 L56.3,695.5 L46.4,705.4 L36.5,715.3 L26.6,725.2 L16.7,735.1 L6.8,745.0" stroke="url(#g)" stroke-width="1.32" fill="none" opacity="0.13"/><path d="M549.3,13.2 L560.8,21.0 L567.4,33.4 L566.0,47.3 L558.6,59.3 L549.3,69.7 L539.5,79.7 L529.7,89.7 L519.8,99.6 L509.9,109.5 L500.0,119.4 L490.1,129.3 L480.2,139.2 L470.3,149.1 L460.4,159.0 L450.5,168.9 L440.6,178.8 L430.7,188.7 L420.8,198.6 L410.9,208.5 L401.0,218.4 L391.1,228.3 L381.2,238.2" stroke="url(#g)" stroke-width="0.79" fill="none" opacity="0.09"/><path d="M123.8,463.7 L128.3,477.0 L124.7,490.5 L116.5,501.9 L107.0,512.1 L97.2,522.1 L87.3,532.1 L77.4,542.0 L67.5,551.9 L57.6,561.8 L47.7,571.7 L37.8,581.6 L27.9,591.5 L18.0,601.4 L8.1,611.3 L-1.8,621.2 L-11.7,631.1 L-21.6,641.0 L-31.5,650.9 L-41.4,660.8 L-51.3,670.7 L-61.2,680.6 L-71.1,690.4" stroke="url(#g)" stroke-width="0.99" fill="none" opacity="0.27"/><path d="M21.0,51.3 L34.1,46.3 L47.7,43.1 L61.6,41.5 L75.6,41.1 L89.6,41.1 L103.6,40.4 L117.4,38.0 L130.6,33.5 L143.0,26.9 L154.5,19.0 L165.4,10.2 L175.8,0.8 L186.0,-8.8 L196.1,-18.5 L206.0,-28.3 L216.0,-38.2 L225.9,-48.1 L235.8,-58.0 L245.7,-67.9 L255.6,-77.7 L265.5,-87.6 L275.4,-97.5" stroke="url(#g)" stroke-width="1.96" fill="none" opacity="0.17"/><path d="M499.5,5.0 L513.5,5.0 L527.5,5.4 L541.4,7.2 L554.6,11.9 L565.4,20.8 L570.4,33.8 L567.3,47.5 L559.3,59.0 L549.8,69.3 L540.0,79.3 L530.2,89.2 L520.3,99.1 L510.4,109.0 L500.5,118.9 L490.6,128.8 L480.7,138.7 L470.8,148.6 L460.9,158.5 L451.0,168.4 L441.1,178.3 L431.2,188.2 L421.3,198.1" stroke="url(#g)" stroke-width="2.04" fill="none" opacity="0.15"/><path d="M152.4,195.0 L149.2,181.3 L157.1,169.7 L166.9,159.8 L176.8,149.9 L186.7,140.0 L196.6,130.1 L206.5,120.2 L216.4,110.3 L226.3,100.4 L236.2,90.5 L246.1,80.6 L256.0,70.7 L265.9,60.8 L275.8,50.9 L285.7,41.0 L295.6,31.1 L305.5,21.2 L315.4,11.3 L325.3,1.4 L335.2,-8.5 L345.1,-18.4 L355.0,-28.3" stroke="url(#g)" stroke-width="0.79" fill="none" opacity="0.23"/><path d="M173.1,330.0 L187.1,330.1 L201.1,330.3 L215.0,332.0 L228.4,336.3 L239.5,344.7 L245.3,357.5 L242.9,371.3 L235.2,382.9 L225.8,393.3 L216.0,403.3 L206.1,413.3 L196.2,423.2 L186.3,433.1 L176.4,443.0 L166.5,452.9 L156.6,462.8 L146.7,472.7 L136.8,482.6 L126.9,492.5 L117.0,502.4 L107.1,512.3 L97.2,522.2" stroke="url(#g)" stroke-width="1.89" fill="none" opacity="0.07"/><path d="M455.5,430.7 L469.5,430.2 L483.5,430.2 L497.5,429.7 L511.3,427.6 L524.7,423.5 L537.3,417.3 L548.9,409.5 L559.9,400.8 L570.4,391.5 L580.6,382.0 L590.7,372.2 L600.6,362.4 L610.6,352.6 L620.5,342.7 L630.4,332.8 L640.3,322.9 L650.2,313.0 L660.1,303.1 L670.0,293.2 L679.9,283.3 L689.8,273.4 L699.7,263.5" stroke="url(#g)" stroke-width="0.75" fill="none" opacity="0.16"/><path d="M347.5,319.5 L344.1,305.9 L331.9,299.0 L318.6,303.3 L307.8,312.2 L297.6,321.8 L287.7,331.7 L277.8,341.6 L267.9,351.5 L258.0,361.4 L248.1,371.3 L238.2,381.2 L228.3,391.1 L218.4,401.0 L208.5,410.9 L198.6,420.8 L188.7,430.7 L178.8,440.6 L168.9,450.5 L159.0,460.4 L149.1,470.3 L139.2,480.2 L129.3,490.1" stroke="url(#g)" stroke-width="1.29" fill="none" opacity="0.08"/><path d="M555.8,15.8 L565.5,25.9 L568.3,39.6 L563.5,52.8 L554.8,63.8 L545.2,74.0 L535.4,83.9 L525.5,93.9 L515.6,103.8 L505.7,113.7 L495.8,123.6 L485.9,133.5 L476.0,143.4 L466.1,153.3 L456.2,163.2 L446.3,173.1 L436.4,183.0 L426.5,192.9 L416.6,202.8 L406.7,212.7 L396.8,222.6 L386.9,232.5 L377.0,242.4" stroke="url(#g)" stroke-width="1.93" fill="none" opacity="0.23"/><path d="M578.4,172.8 L568.8,183.0 L558.9,192.9 L549.0,202.8 L539.1,212.7 L529.2,222.6 L519.3,232.5 L509.4,242.4 L499.5,252.3 L489.6,262.2 L479.7,272.1 L469.8,282.0 L459.9,291.9 L450.0,301.8 L440.1,311.7 L430.2,321.6 L420.3,331.5 L410.4,341.4 L400.5,351.3 L390.6,361.2 L380.7,371.1 L370.8,381.0 L360.9,390.9" stroke="url(#g)" stroke-width="1.92" fill="none" opacity="0.27"/><path d="M572.5,499.8 L577.5,512.9 L590.9,517.1 L602.6,509.4 L612.5,499.6 L622.4,489.7 L632.3,479.8 L642.2,469.9 L652.1,460.0 L662.0,450.1 L671.9,440.2 L681.8,430.3 L691.7,420.4 L701.6,410.5 L711.5,400.6 L721.4,390.7 L731.3,380.8 L741.2,370.9 L751.1,361.0 L761.0,351.1 L770.9,341.2 L780.8,331.3 L790.7,321.4" stroke="url(#g)" stroke-width="1.82" fill="none" opacity="0.13"/><path d="M477.8,185.7 L472.0,172.9 L458.6,168.9 L446.1,175.0 L435.5,184.2 L425.5,194.0 L415.5,203.8 L405.6,213.7 L395.7,223.6 L385.8,233.5 L375.9,243.4 L366.0,253.3 L356.1,263.2 L346.2,273.1 L336.3,283.0 L326.4,292.9 L316.5,302.8 L306.6,312.7 L296.7,322.6 L286.8,332.5 L276.9,342.4 L267.0,352.3 L257.1,362.2" stroke="url(#g)" stroke-width="0.75" fill="none" opacity="0.12"/><path d="M25.1,347.4 L11.3,345.0 L2.8,333.9 L6.8,320.5 L16.5,310.3 L26.4,300.4 L36.3,290.5 L46.2,280.6 L56.1,270.7 L66.0,260.8 L75.9,250.9 L85.7,241.0 L95.6,231.1 L105.5,221.2 L115.4,211.3 L125.3,201.4 L135.2,191.5 L145.1,181.6 L155.0,171.7 L164.9,161.8 L174.8,151.9 L184.7,142.0 L194.6,132.1" stroke="url(#g)" stroke-width="0.93" fill="none" opacity="0.26"/><path d="M517.4,127.4 L504.0,123.4 L491.5,129.7 L480.9,138.9 L470.8,148.6 L460.9,158.5 L451.0,168.4 L441.1,178.3 L431.2,188.2 L421.3,198.1 L411.4,208.0 L401.5,217.9 L391.6,227.8 L381.7,237.7 L371.8,247.6 L361.9,257.5 L352.0,267.4 L342.1,277.3 L332.2,287.2 L322.3,297.1 L312.4,307.0 L302.5,316.9 L292.6,326.8" stroke="url(#g)" stroke-width="1.05" fill="none" opacity="0.23"/><path d="M733.5,361.2 L747.5,362.4 L758.4,353.7 L768.3,343.8 L778.2,333.9 L788.1,324.0 L798.0,314.1 L807.9,304.2 L817.8,294.3 L827.7,284.4 L837.6,274.5 L847.5,264.6 L857.4,254.7 L867.3,244.8 L877.2,234.9 L887.1,225.0 L897.0,215.1 L906.9,205.2 L916.8,195.3 L926.7,185.4 L936.6,175.5 L946.5,165.6 L956.4,155.7" stroke="url(#g)" stroke-width="1.56" fill="none" opacity="0.14"/><path d="M8.7,417.4 L12.7,430.8 L22.4,440.9 L35.4,446.2 L49.3,448.1 L63.3,448.3 L77.3,448.4 L91.2,449.3 L104.9,452.4 L117.2,459.0 L125.6,470.2 L126.5,484.2 L120.4,496.8 L111.4,507.5 L101.7,517.6 L91.8,527.5 L81.9,537.4 L72.0,547.3 L62.1,557.2 L52.2,567.1 L42.3,577.0 L32.4,586.9 L22.5,596.8" stroke="url(#g)" stroke-width="0.56" fill="none" opacity="0.15"/><path d="M631.8,105.3 L630.6,119.3 L621.6,130.0 L611.8,140.0 L601.9,149.9 L592.0,159.8 L582.1,169.7 L572.2,179.6 L562.3,189.5 L552.4,199.4 L542.5,209.3 L532.6,219.2 L522.7,229.1 L512.8,239.0 L502.9,248.9 L493.0,258.8 L483.1,268.7 L473.2,278.6 L463.3,288.5 L453.4,298.4 L443.5,308.3 L433.6,318.2 L423.7,328.1" stroke="url(#g)" stroke-width="1.68" fill="none" opacity="0.25"/><path d="M264.7,302.1 L275.4,311.1 L280.3,324.2 L277.1,337.8 L269.0,349.3 L259.5,359.6 L249.7,369.6 L239.9,379.5 L230.0,389.4 L220.1,399.3 L210.2,409.2 L200.3,419.1 L190.4,429.0 L180.5,438.9 L170.6,448.8 L160.7,458.7 L150.8,468.6 L140.9,478.5 L131.0,488.4 L121.1,498.3 L111.2,508.2 L101.3,518.1 L91.4,528.0" stroke="url(#g)" stroke-width="1.65" fill="none" opacity="0.20"/><path d="M714.1,329.2 L702.1,336.5 L688.9,341.1 L674.9,340.5 L663.8,332.1 L661.2,318.3 L666.0,305.1 L673.7,293.4 L682.6,282.6 L692.0,272.3 L701.7,262.1 L711.4,252.1 L721.3,242.1 L731.1,232.2 L741.0,222.3 L750.9,212.4 L760.8,202.5 L770.7,192.6 L780.6,182.7 L790.5,172.8 L800.4,162.9 L810.3,153.0 L820.2,143.1" stroke="url(#g)" stroke-width="2.07" fill="none" opacity="0.11"/><path d="M692.9,230.4 L706.8,228.9 L720.4,225.4 L733.2,219.8 L745.1,212.4 L756.2,203.9 L766.8,194.8 L777.1,185.3 L787.2,175.6 L797.2,165.8 L807.2,156.0 L817.1,146.1 L827.0,136.2 L836.9,126.3 L846.8,116.4 L856.7,106.5 L866.6,96.6 L876.5,86.7 L886.4,76.8 L896.3,66.9 L906.2,57.0 L916.1,47.1 L926.0,37.2" stroke="url(#g)" stroke-width="1.18" fill="none" opacity="0.15"/><path d="M657.9,591.3 L670.9,596.5 L684.8,598.3 L698.8,598.6 L712.8,598.6 L726.8,599.6 L740.4,602.7 L752.7,609.5 L760.9,620.8 L761.6,634.8 L755.3,647.3 L746.3,658.0 L736.6,668.1 L726.7,678.0 L716.8,687.9 L706.9,697.9 L697.0,707.8 L687.1,717.7 L677.2,727.5 L667.3,737.4 L657.4,747.3 L647.5,757.2 L637.6,767.1" stroke="url(#g)" stroke-width="0.74" fill="none" opacity="0.11"/><path d="M577.8,30.3 L572.8,43.4 L564.2,54.5 L554.6,64.6 L544.7,74.6 L534.9,84.5 L525.0,94.4 L515.1,104.3 L505.2,114.2 L495.3,124.1 L485.4,134.0 L475.5,143.9 L465.6,153.8 L455.7,163.7 L445.8,173.6 L435.9,183.5 L426.0,193.4 L416.1,203.3 L406.2,213.2 L396.3,223.1 L386.4,233.0 L376.5,242.9 L366.6,252.8" stroke="url(#g)" stroke-width="2.01" fill="none" opacity="0.08"/><path d="M116.3,483.2 L115.5,497.2 L108.4,509.3 L99.2,519.8 L89.4,529.8 L79.6,539.8 L69.7,549.7 L59.8,559.6 L49.9,569.5 L40.0,579.4 L30.1,589.3 L20.2,599.2 L10.3,609.1 L0.4,619.0 L-9.5,628.9 L-19.4,638.8 L-29.3,648.7 L-39.2,658.6 L-49.1,668.5 L-59.0,678.4 L-68.9,688.3 L-78.8,698.2 L-88.7,708.1" stroke="url(#g)" stroke-width="1.72" fill="none" opacity="0.22"/><path d="M263.4,85.1 L259.5,71.6 L267.0,59.8 L276.9,49.8 L286.8,39.9 L296.7,30.0 L306.6,20.1 L316.5,10.3 L326.4,0.4 L336.3,-9.5 L346.2,-19.4 L356.1,-29.3 L366.0,-39.2 L375.9,-49.1 L385.8,-59.0 L395.7,-68.9 L405.6,-78.8 L415.5,-88.7 L425.4,-98.6 L435.3,-108.5 L445.2,-118.4 L455.1,-128.3 L465.0,-138.2" stroke="url(#g)" stroke-width="1.58" fill="none" opacity="0.12"/><path d="M709.6,252.8 L719.7,243.1 L729.7,233.3 L739.7,223.5 L749.6,213.6 L759.5,203.7 L769.4,193.8 L779.3,183.9 L789.2,174.0 L799.1,164.1 L809.0,154.2 L818.9,144.3 L828.8,134.4 L838.7,124.5 L848.6,114.6 L858.5,104.7 L868.4,94.8 L878.3,84.9 L888.2,75.0 L898.1,65.1 L908.0,55.2 L917.9,45.3 L927.8,35.4" stroke="url(#g)" stroke-width="1.65" fill="none" opacity="0.15"/><path d="M363.9,109.7 L377.5,112.8 L391.5,113.7 L405.5,113.7 L419.5,114.1 L433.3,116.0 L446.5,120.8 L457.1,129.9 L461.8,143.1 L458.4,156.6 L450.3,168.0 L440.8,178.3 L431.0,188.3 L421.1,198.2 L411.2,208.1 L401.3,218.0 L391.4,227.9 L381.5,237.8 L371.6,247.7 L361.7,257.6 L351.8,267.5 L341.9,277.4 L332.0,287.3" stroke="url(#g)" stroke-width="1.98" fill="none" opacity="0.13"/><path d="M306.3,227.7 L320.2,229.6 L333.3,234.5 L343.8,243.8 L348.2,257.0 L344.7,270.6 L336.5,281.9 L326.9,292.2 L317.1,302.2 L307.3,312.1 L297.4,322.0 L287.5,331.9 L277.6,341.8 L267.7,351.7 L257.8,361.6 L247.9,371.5 L238.0,381.4 L228.1,391.3 L218.2,401.2 L208.3,411.1 L198.4,421.0 L188.5,430.9 L178.6,440.8" stroke="url(#g)" stroke-width="0.62" fill="none" opacity="0.10"/><path d="M227.3,328.1 L239.8,334.3 L248.8,345.0 L250.6,358.9 L245.0,371.7 L236.2,382.6 L226.5,392.7 L216.7,402.7 L206.8,412.6 L196.9,422.5 L187.0,432.4 L177.1,442.3 L167.2,452.2 L157.3,462.1 L147.4,472.0 L137.5,481.9 L127.6,491.8 L117.7,501.7 L107.8,511.6 L97.9,521.5 L88.0,531.4 L78.1,541.3 L68.2,551.2" stroke="url(#g)" stroke-width="0.76" fill="none" opacity="0.17"/><path d="M12.0,237.9 L-1.7,240.5 L-15.1,236.5 L-22.8,224.8 L-21.4,210.8 L-14.9,198.4 L-6.5,187.2 L2.7,176.7 L12.2,166.4 L21.9,156.3 L31.7,146.3 L41.6,136.4 L51.5,126.5 L61.3,116.6 L71.2,106.7 L81.1,96.8 L91.0,86.9 L100.9,77.0 L110.8,67.1 L120.7,57.2 L130.6,47.3 L140.5,37.4 L150.4,27.5" stroke="url(#g)" stroke-width="1.55" fill="none" opacity="0.27"/><path d="M525.4,251.0 L512.0,246.8 L499.5,253.0 L489.3,262.6 L479.4,272.5 L469.5,282.4 L459.6,292.3 L449.7,302.2 L439.8,312.0 L429.9,321.9 L420.0,331.8 L410.1,341.7 L400.2,351.6 L390.3,361.5 L380.4,371.4 L370.5,381.3 L360.6,391.2 L350.7,401.1 L340.8,411.0 L330.9,420.9 L321.0,430.8 L311.1,440.7 L301.2,450.6" stroke="url(#g)" stroke-width="1.56" fill="none" opacity="0.24"/><path d="M715.0,237.6 L727.0,230.3 L738.2,221.9 L748.8,212.8 L759.1,203.3 L769.2,193.6 L779.2,183.8 L789.2,174.0 L799.1,164.1 L809.0,154.2 L818.9,144.4 L828.8,134.5 L838.7,124.6 L848.6,114.7 L858.5,104.8 L868.4,94.9 L878.3,85.0 L888.2,75.1 L898.1,65.2 L908.0,55.3 L917.9,45.4 L927.8,35.5 L937.7,25.6" stroke="url(#g)" stroke-width="1.95" fill="none" opacity="0.18"/><path d="M636.7,454.1 L650.1,458.0 L661.8,450.3 L671.7,440.4 L681.6,430.5 L691.5,420.6 L701.4,410.7 L711.3,400.8 L721.2,390.9 L731.1,381.0 L741.0,371.1 L750.9,361.2 L760.8,351.3 L770.7,341.4 L780.6,331.5 L790.5,321.6 L800.4,311.7 L810.3,301.8 L820.2,291.9 L830.1,282.0 L840.0,272.1 L849.9,262.2 L859.8,252.3" stroke="url(#g)" stroke-width="0.73" fill="none" opacity="0.16"/><path d="M769.8,326.4 L783.8,326.6 L794.5,317.6 L804.4,307.7 L814.3,297.8 L824.2,287.9 L834.1,278.0 L844.0,268.1 L853.9,258.2 L863.8,248.3 L873.7,238.4 L883.6,228.5 L893.5,218.6 L903.4,208.7 L913.3,198.8 L923.2,188.9 L933.1,179.0 L943.0,169.1 L952.9,159.2 L962.8,149.3 L972.7,139.4 L982.6,129.5 L992.5,119.6" stroke="url(#g)" stroke-width="0.81" fill="none" opacity="0.19"/><path d="M527.1,157.6 L535.1,146.1 L541.1,133.5 L542.8,119.6 L536.4,107.1 L522.8,103.9 L510.5,110.5 L500.0,119.7 L489.9,129.5 L480.0,139.4 L470.1,149.3 L460.2,159.2 L450.3,169.1 L440.4,179.0 L430.5,188.9 L420.6,198.8 L410.7,208.7 L400.8,218.6 L390.9,228.5 L381.0,238.4 L371.1,248.3 L361.2,258.2 L351.3,268.1" stroke="url(#g)" stroke-width="0.62" fill="none" opacity="0.14"/><path d="M187.1,169.0 L178.7,157.9 L182.8,144.5 L192.4,134.3 L202.3,124.4 L212.2,114.5 L222.1,104.6 L232.0,94.7 L241.9,84.8 L251.8,74.9 L261.7,65.0 L271.6,55.1 L281.5,45.2 L291.4,35.3 L301.3,25.4 L311.2,15.5 L321.1,5.6 L331.0,-4.3 L340.9,-14.2 L350.8,-24.1 L360.7,-34.0 L370.6,-43.9 L380.5,-53.8" stroke="url(#g)" stroke-width="1.87" fill="none" opacity="0.28"/><path d="M331.1,206.7 L344.8,209.3 L357.5,215.2 L366.9,225.6 L369.3,239.4 L364.1,252.4 L355.4,263.3 L345.7,273.5 L335.9,283.5 L326.0,293.4 L316.1,303.3 L306.2,313.2 L296.3,323.1 L286.4,333.0 L276.5,342.9 L266.6,352.8 L256.7,362.7 L246.8,372.6 L236.9,382.5 L227.0,392.4 L217.1,402.3 L207.2,412.2 L197.3,422.1" stroke="url(#g)" stroke-width="1.95" fill="none" opacity="0.28"/><path d="M12.3,214.8 L2.2,205.0 L1.2,191.1 L6.6,178.2 L14.6,166.7 L23.7,156.0 L33.1,145.7 L42.8,135.5 L52.6,125.5 L62.4,115.6 L72.3,105.6 L82.2,95.7 L92.1,85.8 L102.0,75.9 L111.9,66.0 L121.8,56.1 L131.7,46.2 L141.6,36.3 L151.5,26.4 L161.4,16.5 L171.3,6.6 L181.2,-3.3 L191.1,-13.2" stroke="url(#g)" stroke-width="0.94" fill="none" opacity="0.15"/><path d="M548.1,53.6 L546.3,67.5 L538.7,79.3 L529.4,89.7 L519.6,99.7 L509.7,109.6 L499.8,119.5 L489.9,129.4 L480.0,139.3 L470.1,149.2 L460.2,159.1 L450.3,169.0 L440.4,178.9 L430.5,188.8 L420.6,198.7 L410.7,208.6 L400.8,218.5 L390.9,228.4 L381.0,238.3 L371.1,248.2 L361.2,258.1 L351.3,268.0 L341.4,277.9" stroke="url(#g)" stroke-width="1.26" fill="none" opacity="0.06"/><path d="M708.8,514.7 L717.0,526.0 L729.3,532.6 L743.1,535.3 L757.1,535.8 L771.1,535.8 L785.1,536.4 L798.9,538.7 L811.8,544.1 L821.7,554.0 L825.0,567.6 L820.5,580.9 L812.0,592.0 L802.4,602.2 L792.6,612.2 L782.7,622.1 L772.8,632.0 L762.9,641.9 L753.0,651.8 L743.1,661.7 L733.2,671.6 L723.3,681.5 L713.4,691.4" stroke="url(#g)" stroke-width="1.19" fill="none" opacity="0.25"/><path d="M553.1,139.9 L565.0,132.7 L578.4,128.5 L592.2,130.7 L600.3,142.1 L595.6,155.3 L586.1,165.6 L576.2,175.6 L566.4,185.5 L556.5,195.4 L546.6,205.3 L536.7,215.2 L526.8,225.1 L516.9,235.0 L507.0,244.9 L497.1,254.8 L487.2,264.7 L477.3,274.6 L467.4,284.5 L457.5,294.4 L447.6,304.3 L437.7,314.2 L427.8,324.1" stroke="url(#g)" stroke-width="1.66" fill="none" opacity="0.24"/><path d="M624.0,137.9 L610.7,142.4 L600.2,151.7 L590.3,161.5 L580.4,171.4 L570.5,181.3 L560.6,191.2 L550.7,201.1 L540.8,211.0 L530.9,220.9 L521.0,230.8 L511.1,240.7 L501.2,250.6 L491.3,260.5 L481.4,270.4 L471.5,280.3 L461.6,290.2 L451.7,300.1 L441.8,310.0 L431.9,319.9 L422.0,329.8 L412.1,339.7 L402.2,349.6" stroke="url(#g)" stroke-width="1.40" fill="none" opacity="0.19"/><path d="M158.7,81.7 L145.1,78.7 L136.4,67.7 L136.8,53.7 L142.9,41.1 L151.2,29.8 L160.3,19.1 L169.8,8.9 L179.5,-1.2 L189.3,-11.2 L199.2,-21.2 L209.0,-31.1 L218.9,-41.0 L228.8,-50.9 L238.7,-60.8 L248.6,-70.7 L258.5,-80.6 L268.4,-90.5 L278.3,-100.4 L288.2,-110.3 L298.1,-120.2 L308.0,-130.1 L317.9,-140.0" stroke="url(#g)" stroke-width="0.68" fill="none" opacity="0.15"/><path d="M130.2,186.7 L143.6,182.7 L153.7,173.0 L163.6,163.1 L173.5,153.2 L183.4,143.3 L193.3,133.4 L203.2,123.5 L213.1,113.6 L223.0,103.7 L232.9,93.8 L242.8,83.9 L252.7,74.0 L262.6,64.1 L272.5,54.2 L282.4,44.3 L292.3,34.4 L302.2,24.5 L312.1,14.6 L322.0,4.7 L331.9,-5.2 L341.8,-15.1 L351.7,-25.0" stroke="url(#g)" stroke-width="0.86" fill="none" opacity="0.19"/><path d="M120.5,455.5 L129.0,466.6 L130.0,480.6 L123.9,493.2 L114.9,503.9 L105.2,514.0 L95.4,524.0 L85.5,533.9 L75.6,543.8 L65.7,553.7 L55.8,563.6 L45.9,573.5 L36.0,583.4 L26.1,593.3 L16.2,603.2 L6.3,613.1 L-3.6,623.0 L-13.5,632.9 L-23.4,642.8 L-33.3,652.7 L-43.2,662.6 L-53.1,672.5 L-63.0,682.4" stroke="url(#g)" stroke-width="1.72" fill="none" opacity="0.11"/><path d="M57.8,209.2 L49.9,220.7 L44.2,233.5 L43.0,247.4 L50.2,259.5 L64.1,260.5 L75.0,251.7 L84.9,241.8 L94.8,231.9 L104.7,222.0 L114.6,212.1 L124.5,202.2 L134.4,192.3 L144.3,182.4 L154.2,172.5 L164.1,162.6 L174.0,152.7 L183.9,142.8 L193.8,132.9 L203.7,123.0 L213.6,113.1 L223.5,103.2 L233.4,93.3" stroke="url(#g)" stroke-width="1.06" fill="none" opacity="0.20"/><path d="M597.7,385.5 L600.9,371.9 L608.1,359.9 L616.7,348.9 L626.0,338.4 L635.7,328.2 L645.4,318.2 L655.2,308.2 L665.1,298.3 L675.0,288.4 L684.9,278.5 L694.7,268.5 L704.6,258.6 L714.5,248.7 L724.4,238.8 L734.3,228.9 L744.2,219.0 L754.1,209.1 L764.0,199.2 L773.9,189.3 L783.8,179.4 L793.7,169.5 L803.6,159.6" stroke="url(#g)" stroke-width="0.73" fill="none" opacity="0.25"/><path d="M85.9,11.0 L99.9,10.1 L113.9,10.0 L127.9,9.8 L141.8,8.3 L155.4,4.8 L168.2,-0.8 L180.1,-8.1 L191.3,-16.6 L201.9,-25.7 L212.2,-35.2 L222.3,-44.9 L232.3,-54.7 L242.3,-64.5 L252.2,-74.4 L262.1,-84.3 L272.0,-94.2 L281.9,-104.1 L291.8,-113.9 L301.7,-123.8 L311.6,-133.7 L321.5,-143.6 L331.4,-153.5" stroke="url(#g)" stroke-width="1.74" fill="none" opacity="0.23"/><path d="M379.0,533.9 L393.0,533.4 L406.8,531.5 L420.2,527.5 L432.9,521.4 L444.6,513.7 L455.6,505.0 L466.1,495.8 L476.3,486.2 L486.4,476.5 L496.4,466.7 L506.3,456.9 L516.2,447.0 L526.2,437.1 L536.1,427.2 L546.0,417.3 L555.9,407.4 L565.8,397.5 L575.7,387.6 L585.6,377.7 L595.5,367.8 L605.4,357.9 L615.3,348.0" stroke="url(#g)" stroke-width="1.70" fill="none" opacity="0.20"/><path d="M434.2,264.8 L447.8,261.4 L461.3,265.2 L467.2,277.9 L460.9,290.4 L451.2,300.5 L441.4,310.4 L431.5,320.4 L421.6,330.2 L411.7,340.1 L401.8,350.0 L391.9,359.9 L382.0,369.8 L372.1,379.7 L362.2,389.6 L352.3,399.5 L342.4,409.4 L332.5,419.3 L322.6,429.2 L312.7,439.1 L302.8,449.0 L292.9,458.9 L283.0,468.8" stroke="url(#g)" stroke-width="1.02" fill="none" opacity="0.17"/><path d="M727.3,91.1 L731.1,77.6 L730.6,63.7 L723.3,51.7 L709.7,48.3 L697.4,55.0 L687.3,64.6 L677.3,74.5 L667.4,84.4 L657.5,94.3 L647.6,104.2 L637.7,114.1 L627.8,124.0 L617.9,133.9 L608.0,143.8 L598.1,153.7 L588.3,163.6 L578.4,173.5 L568.5,183.4 L558.6,193.3 L548.7,203.2 L538.8,213.1 L528.9,223.0" stroke="url(#g)" stroke-width="1.24" fill="none" opacity="0.07"/><path d="M326.2,118.2 L336.2,128.0 L349.2,133.1 L363.1,134.9 L377.1,135.1 L391.1,135.2 L405.1,136.2 L418.7,139.4 L430.9,146.2 L439.1,157.6 L439.6,171.6 L433.2,184.1 L424.1,194.7 L414.4,204.8 L404.6,214.8 L394.7,224.7 L384.8,234.6 L374.9,244.5 L365.0,254.4 L355.1,264.3 L345.2,274.2 L335.3,284.1 L325.4,294.0" stroke="url(#g)" stroke-width="0.71" fill="none" opacity="0.28"/><path d="M724.4,370.0 L738.3,371.4 L749.3,362.8 L759.2,352.9 L769.1,343.0 L779.0,333.1 L788.9,323.2 L798.8,313.3 L808.7,303.4 L818.6,293.5 L828.5,283.6 L838.4,273.7 L848.3,263.8 L858.2,253.9 L868.1,244.0 L878.0,234.1 L887.9,224.2 L897.8,214.3 L907.7,204.4 L917.6,194.5 L927.5,184.6 L937.4,174.7 L947.3,164.8" stroke="url(#g)" stroke-width="1.05" fill="none" opacity="0.18"/><path d="M262.0,199.6 L274.8,205.3 L288.7,207.4 L302.7,207.7 L316.7,207.7 L330.7,208.6 L344.4,211.4 L356.9,217.6 L365.8,228.5 L367.4,242.4 L361.7,255.2 L352.8,266.0 L343.1,276.1 L333.3,286.1 L323.4,296.0 L313.5,305.9 L303.6,315.8 L293.7,325.7 L283.8,335.6 L273.9,345.5 L264.0,355.4 L254.1,365.3 L244.2,375.2" stroke="url(#g)" stroke-width="1.32" fill="none" opacity="0.07"/><path d="M86.2,0.0 L100.1,-2.3 L114.0,-3.1 L128.0,-3.1 L142.0,-3.4 L155.9,-5.0 L169.5,-8.6 L182.2,-14.4 L194.1,-21.8 L205.2,-30.3 L215.8,-39.5 L226.1,-49.0 L236.2,-58.7 L246.2,-68.5 L256.1,-78.3 L266.0,-88.2 L275.9,-98.1 L285.9,-108.0 L295.8,-117.9 L305.7,-127.8 L315.6,-137.7 L325.5,-147.6 L335.4,-157.5" stroke="url(#g)" stroke-width="1.66" fill="none" opacity="0.21"/><path d="M356.8,222.2 L364.4,234.0 L364.1,248.0 L357.3,260.2 L348.1,270.8 L338.4,280.9 L328.5,290.8 L318.7,300.7 L308.8,310.6 L298.9,320.5 L289.0,330.4 L279.1,340.3 L269.2,350.2 L259.3,360.1 L249.4,370.0 L239.5,379.9 L229.6,389.8 L219.7,399.7 L209.8,409.6 L199.9,419.5 L190.0,429.4 L180.1,439.3 L170.2,449.2" stroke="url(#g)" stroke-width="0.81" fill="none" opacity="0.11"/><path d="M408.0,324.9 L409.7,338.8 L401.4,350.1 L391.7,360.1 L381.8,370.0 L371.9,379.9 L362.0,389.8 L352.1,399.7 L342.2,409.6 L332.3,419.5 L322.4,429.4 L312.5,439.3 L302.6,449.2 L292.7,459.1 L282.8,469.0 L272.9,478.9 L263.0,488.8 L253.1,498.7 L243.2,508.6 L233.3,518.5 L223.4,528.4 L213.5,538.3 L203.6,548.2" stroke="url(#g)" stroke-width="2.06" fill="none" opacity="0.11"/><path d="M120.9,185.7 L134.6,188.8 L146.0,180.7 L155.9,170.8 L165.8,160.9 L175.7,151.0 L185.6,141.1 L195.5,131.2 L205.4,121.3 L215.3,111.4 L225.2,101.5 L235.1,91.6 L245.0,81.7 L254.9,71.8 L264.8,61.9 L274.7,52.0 L284.6,42.1 L294.5,32.2 L304.4,22.3 L314.3,12.4 L324.2,2.5 L334.1,-7.4 L344.0,-17.3" stroke="url(#g)" stroke-width="1.02" fill="none" opacity="0.19"/><path d="M493.6,1.3 L507.6,1.7 L521.6,1.7 L535.6,2.4 L549.4,5.0 L562.0,11.0 L571.3,21.5 L573.6,35.3 L568.3,48.3 L559.5,59.2 L549.9,69.3 L540.0,79.3 L530.2,89.2 L520.3,99.1 L510.4,109.0 L500.5,118.9 L490.6,128.8 L480.7,138.7 L470.8,148.6 L460.9,158.5 L451.0,168.4 L441.1,178.3 L431.2,188.2" stroke="url(#g)" stroke-width="0.90" fill="none" opacity="0.16"/><path d="M362.8,376.8 L360.0,390.5 L350.7,401.0 L340.9,410.9 L331.0,420.8 L321.1,430.7 L311.2,440.6 L301.3,450.5 L291.4,460.4 L281.5,470.3 L271.6,480.2 L261.7,490.1 L251.8,500.0 L241.9,509.9 L232.0,519.8 L222.1,529.7 L212.2,539.6 L202.3,549.5 L192.4,559.4 L182.5,569.3 L172.6,579.2 L162.7,589.1 L152.8,599.0" stroke="url(#g)" stroke-width="0.52" fill="none" opacity="0.17"/><path d="M82.6,399.8 L96.5,401.6 L110.5,401.8 L124.5,401.9 L138.5,402.9 L152.1,406.1 L164.3,413.0 L172.4,424.4 L172.8,438.4 L166.4,450.8 L157.4,461.5 L147.7,471.6 L137.8,481.5 L127.9,491.4 L118.0,501.3 L108.1,511.2 L98.2,521.1 L88.3,531.0 L78.4,540.9 L68.5,550.8 L58.6,560.7 L48.7,570.6 L38.8,580.5" stroke="url(#g)" stroke-width="1.34" fill="none" opacity="0.06"/><path d="M58.1,166.7 L48.9,156.1 L48.9,142.1 L54.8,129.4 L63.0,118.0 L72.1,107.4 L81.6,97.1 L91.3,87.0 L101.1,77.0 L110.9,67.1 L120.8,57.1 L130.7,47.2 L140.6,37.3 L150.5,27.4 L160.4,17.5 L170.3,7.6 L180.2,-2.3 L190.1,-12.2 L200.0,-22.1 L209.9,-32.0 L219.8,-41.9 L229.7,-51.8 L239.6,-61.7" stroke="url(#g)" stroke-width="0.74" fill="none" opacity="0.10"/><path d="M80.8,208.3 L87.1,220.8 L100.9,223.0 L112.1,214.6 L122.0,204.7 L131.9,194.8 L141.8,184.9 L151.7,175.0 L161.6,165.1 L171.5,155.2 L181.4,145.3 L191.3,135.4 L201.2,125.5 L211.1,115.6 L221.0,105.7 L230.9,95.8 L240.8,85.9 L250.7,76.0 L260.6,66.1 L270.5,56.2 L280.4,46.3 L290.3,36.4 L300.2,26.5" stroke="url(#g)" stroke-width="1.73" fill="none" opacity="0.09"/><path d="M9.1,407.6 L8.9,421.6 L14.6,434.4 L25.6,443.1 L38.9,447.2 L52.9,448.5 L66.9,448.6 L80.9,448.8 L94.8,450.2 L108.2,454.1 L119.8,461.9 L126.4,474.3 L125.1,488.2 L117.7,500.1 L108.4,510.6 L98.7,520.6 L88.8,530.6 L78.9,540.5 L69.0,550.4 L59.1,560.3 L49.2,570.2 L39.3,580.1 L29.4,590.0" stroke="url(#g)" stroke-width="1.46" fill="none" opacity="0.12"/><path d="M683.3,236.2 L697.3,235.2 L711.0,232.3 L724.0,227.2 L736.2,220.3 L747.5,212.0 L758.3,203.0 L768.6,193.6 L778.8,184.0 L788.8,174.2 L798.8,164.4 L808.7,154.5 L818.6,144.6 L828.5,134.7 L838.4,124.8 L848.3,115.0 L858.2,105.1 L868.1,95.2 L878.0,85.3 L887.9,75.4 L897.8,65.5 L907.7,55.6 L917.6,45.7" stroke="url(#g)" stroke-width="0.86" fill="none" opacity="0.07"/><circle cx="465.1" cy="348.9" r="2.7" fill="#e8d5b7" opacity="0.65"/><circle cx="745.8" cy="289.5" r="1.4" fill="#e8d5b7" opacity="0.39"/><circle cx="563.9" cy="82.4" r="3.6" fill="#e8d5b7" opacity="0.83"/><circle cx="217.7" cy="192.0" r="1.0" fill="#e8d5b7" opacity="0.30"/><circle cx="274.6" cy="434.1" r="2.7" fill="#e8d5b7" opacity="0.64"/><circle cx="791.0" cy="16.0" r="3.8" fill="#e8d5b7" opacity="0.86"/><circle cx="309.7" cy="441.5" r="2.3" fill="#e8d5b7" opacity="0.56"/><circle cx="15.6" cy="10.6" r="3.8" fill="#e8d5b7" opacity="0.86"/><circle cx="780.5" cy="170.9" r="2.0" fill="#e8d5b7" opacity="0.50"/><circle cx="21.3" cy="20.0" r="2.4" fill="#e8d5b7" opacity="0.59"/><circle cx="733.6" cy="212.5" r="3.1" fill="#e8d5b7" opacity="0.72"/><circle cx="329.9" cy="172.3" r="4.0" fill="#e8d5b7" opacity="0.89"/><circle cx="626.4" cy="357.1" r="1.9" fill="#e8d5b7" opacity="0.48"/><circle cx="692.8" cy="235.4" r="1.4" fill="#e8d5b7" opacity="0.38"/><circle cx="516.4" cy="587.6" r="1.9" fill="#e8d5b7" opacity="0.47"/><circle cx="271.9" cy="8.5" r="1.8" fill="#e8d5b7" opacity="0.46"/><circle cx="617.7" cy="546.6" r="1.5" fill="#e8d5b7" opacity="0.41"/><circle cx="771.9" cy="550.1" r="2.6" fill="#e8d5b7" opacity="0.62"/><circle cx="283.3" cy="519.6" r="1.4" fill="#e8d5b7" opacity="0.38"/><circle cx="331.8" cy="106.0" r="1.8" fill="#e8d5b7" opacity="0.46"/><circle cx="321.2" cy="398.9" r="2.0" fill="#e8d5b7" opacity="0.51"/><circle cx="651.3" cy="130.3" r="2.2" fill="#e8d5b7" opacity="0.53"/><circle cx="795.1" cy="406.6" r="2.1" fill="#e8d5b7" opacity="0.52"/><circle cx="660.3" cy="282.5" r="2.6" fill="#e8d5b7" opacity="0.62"/><circle cx="514.8" cy="115.6" r="2.4" fill="#e8d5b7" opacity="0.58"/><circle cx="20.8" cy="146.8" r="4.0" fill="#e8d5b7" opacity="0.89"/></g><circle cx="400" cy="252" r="60" fill="none" stroke="#e8d5b7" stroke-width="1" opacity="0.25"/><circle cx="400" cy="252" r="110" fill="none" stroke="#a78b71" stroke-width="1" opacity="0.15"/></svg>