<svg xmlns="http://www.w3.org/2000/svg" viewBox="0 0 800 1000" width="800" height="1000"><defs><linearGradient id="pg" x1="0" y1="0" x2="1" y2="1"><stop offset="0" stop-color="#f3e4c8"/><stop offset="1" stop-color="#a78b71"/></linearGradient><radialGradient id="halo" cx="50%" cy="34%" r="60%"><stop offset="0" stop-color="rgba(167,139,113,0.28)"/><stop offset="1" stop-color="rgba(167,139,113,0)"/></radialGradient><radialGradient id="pbg" cx="50%" cy="32%" r="85%"><stop offset="0" stop-color="#1b160e"/><stop offset="1" stop-color="#0a0a0a"/></radialGradient></defs><rect width="800" height="1000" fill="url(#pbg)"/><ellipse cx="400" cy="360" rx="280" ry="320" fill="url(#halo)" opacity="0.9"/><line x1="477" y1="0" x2="477" y2="1000" stroke="#a78b71" stroke-width="0.4" opacity="0.04"/><line x1="160" y1="0" x2="160" y2="1000" stroke="#a78b71" stroke-width="0.4" opacity="0.04"/><line x1="800" y1="0" x2="800" y2="1000" stroke="#a78b71" stroke-width="0.4" opacity="0.04"/><line x1="697" y1="0" x2="697" y2="1000" stroke="#a78b71" stroke-width="0.4" opacity="0.04"/><line x1="391" y1="0" x2="391" y2="1000" stroke="#a78b71" stroke-width="0.4" opacity="0.04"/><line x1="34" y1="0" x2="34" y2="1000" stroke="#a78b71" stroke-width="0.4" opacity="0.04"/><line x1="383" y1="0" x2="383" y2="1000" stroke="#a78b71" stroke-width="0.4" opacity="0.04"/><line x1="625" y1="0" x2="625" y2="1000" stroke="#a78b71" stroke-width="0.4" opacity="0.04"/><line x1="675" y1="0" x2="675" y2="1000" stroke="#a78b71" stroke-width="0.4" opacity="0.04"/><line x1="760" y1="0" x2="760" y2="1000" stroke="#a78b71" stroke-width="0.4" opacity="0.04"/><line x1="540" y1="0" x2="540" y2="1000" stroke="#a78b71" stroke-width="0.4" opacity="0.04"/><line x1="117" y1="0" x2="117" y2="1000" stroke="#a78b71" stroke-width="0.4" opacity="0.04"/><line x1="592" y1="0" x2="592" y2="1000" stroke="#a78b71" stroke-width="0.4" opacity="0.04"/><line x1="155" y1="0" x2="155" y2="1000" stroke="#a78b71" stroke-width="0.4" opacity="0.04"/><line x1="319" y1="0" x2="319" y2="1000" stroke="#a78b71" stroke-width="0.4" opacity="0.04"/><line x1="238" y1="0" x2="238" y2="1000" stroke="#a78b71" stroke-width="0.4" opacity="0.04"/><line x1="312" y1="0" x2="312" y2="1000" stroke="#a78b71" stroke-width="0.4" opacity="0.04"/><line x1="204" y1="0" x2="204" y2="1000" stroke="#a78b71" stroke-width="0.4" opacity="0.04"/><line x1="144" y1="0" x2="144" y2="1000" stroke="#a78b71" stroke-width="0.4" opacity="0.04"/><line x1="340" y1="0" x2="340" y2="1000" stroke="#a78b71" stroke-width="0.4" opacity="0.04"/><line x1="467" y1="0" x2="467" y2="1000" stroke="#a78b71" stroke-width="0.4" opacity="0.04"/><line x1="461" y1="0" x2="461" y2="1000" stroke="#a78b71" stroke-width="0.4" opacity="0.04"/><line x1="320" y1="0" x2="320" y2="1000" stroke="#a78b71" stroke-width="0.4" opacity="0.04"/><line x1="355" y1="0" x2="355" y2="1000" stroke="#a78b71" stroke-width="0.4" opacity="0.04"/><line x1="549" y1="0" x2="549" y2="1000" stroke="#a78b71" stroke-width="0.4" opacity="0.04"/><line x1="582" y1="0" x2="582" y2="1000" stroke="#a78b71" stroke-width="0.4" opacity="0.04"/><line x1="596" y1="0" x2="596" y2="1000" stroke="#a78b71" stroke-width="0.4" opacity="0.04"/><line x1="563" y1="0" x2="563" y2="1000" stroke="#a78b71" stroke-width="0.4" opacity="0.04"/><line x1="320" y1="0" x2="320" y2="1000" stroke="#a78b71" stroke-width="0.4" opacity="0.04"/><line x1="700" y1="0" x2="700" y2="1000" stroke="#a78b71" stroke-width="0.4" opacity="0.04"/><line x1="650" y1="0" x2="650" y2="1000" stroke="#a78b71" stroke-width="0.4" opacity="0.04"/><line x1="665" y1="0" x2="665" y2="1000" stroke="#a78b71" stroke-width="0.4" opacity="0.04"/><line x1="10" y1="0" x2="10" y2="1000" stroke="#a78b71" stroke-width="0.4" opacity="0.04"/><line x1="597" y1="0" x2="597" y2="1000" stroke="#a78b71" stroke-width="0.4" opacity="0.04"/><line x1="364" y1="0" x2="364" y2="1000" stroke="#a78b71" stroke-width="0.4" opacity="0.04"/><line x1="409" y1="0" x2="409" y2="1000" stroke="#a78b71" stroke-width="0.4" opacity="0.04"/><line x1="319" y1="0" x2="319" y2="1000" stroke="#a78b71" stroke-width="0.4" opacity="0.04"/><line x1="108" y1="0" x2="108" y2="1000" stroke="#a78b71" stroke-width="0.4" opacity="0.04"/><line x1="676" y1="0" x2="676" y2="1000" stroke="#a78b71" stroke-width="0.4" opacity="0.04"/><line x1="683" y1="0" x2="683" y2="1000" stroke="#a78b71" stroke-width="0.4" opacity="0.04"/><line x1="727" y1="0" x2="727" y2="1000" stroke="#a78b71" stroke-width="0.4" opacity="0.04"/><line x1="773" y1="0" x2="773" y2="1000" stroke="#a78b71" stroke-width="0.4" opacity="0.04"/><line x1="757" y1="0" x2="757" y2="1000" stroke="#a78b71" stroke-width="0.4" opacity="0.04"/><line x1="732" y1="0" x2="732" y2="1000" stroke="#a78b71" stroke-width="0.4" opacity="0.04"/><line x1="120" y1="0" x2="120" y2="1000" stroke="#a78b71" stroke-width="0.4" opacity="0.04"/><line x1="590" y1="0" x2="590" y2="1000" stroke="#a78b71" stroke-width="0.4" opacity="0.04"/><line x1="713" y1="0" x2="713" y2="1000" stroke="#a78b71" stroke-width="0.4" opacity="0.04"/><line x1="42" y1="0" x2="42" y2="1000" stroke="#a78b71" stroke-width="0.4" opacity="0.04"/><line x1="70" y1="0" x2="70" y2="1000" stroke="#a78b71" stroke-width="0.4" opacity="0.04"/><line x1="193" y1="0" x2="193" y2="1000" stroke="#a78b71" stroke-width="0.4" opacity="0.04"/><line x1="323" y1="0" x2="323" y2="1000" stroke="#a78b71" stroke-width="0.4" opacity="0.04"/><line x1="412" y1="0" x2="412" y2="1000" stroke="#a78b71" stroke-width="0.4" opacity="0.04"/><line x1="718" y1="0" x2="718" y2="1000" stroke="#a78b71" stroke-width="0.4" opacity="0.04"/><line x1="526" y1="0" x2="526" y2="1000" stroke="#a78b71" stroke-width="0.4" opacity="0.04"/><line x1="117" y1="0" x2="117" y2="1000" stroke="#a78b71" stroke-width="0.4" opacity="0.04"/><line x1="739" y1="0" x2="739" y2="1000" stroke="#a78b71" stroke-width="0.4" opacity="0.04"/><line x1="91" y1="0" x2="91" y2="1000" stroke="#a78b71" stroke-width="0.4" opacity="0.04"/><line x1="36" y1="0" x2="36" y2="1000" stroke="#a78b71" stroke-width="0.4" opacity="0.04"/><line x1="260" y1="0" x2="260" y2="1000" stroke="#a78b71" stroke-width="0.4" opacity="0.04"/><line x1="521" y1="0" x2="521" y2="1000" stroke="#a78b71" stroke-width="0.4" opacity="0.04"/><line x1="446" y1="0" x2="446" y2="1000" stroke="#a78b71" stroke-width="0.4" opacity="0.04"/><line x1="341" y1="0" x2="341" y2="1000" stroke="#a78b71" stroke-width="0.4" opacity="0.04"/><line x1="628" y1="0" x2="628" y2="1000" stroke="#a78b71" stroke-width="0.4" opacity="0.04"/><line x1="81" y1="0" x2="81" y2="1000" stroke="#a78b71" stroke-width="0.4" opacity="0.04"/><line x1="189" y1="0" x2="189" y2="1000" stroke="#a78b71" stroke-width="0.4" opacity="0.04"/><line x1="659" y1="0" x2="659" y2="1000" stroke="#a78b71" stroke-width="0.4" opacity="0.04"/><line x1="605" y1="0" x2="605" y2="1000" stroke="#a78b71" stroke-width="0.4" opacity="0.04"/><line x1="211" y1="0" x2="211" y2="1000" stroke="#a78b71" stroke-width="0.4" opacity="0.04"/><line x1="217" y1="0" x2="217" y2="1000" stroke="#a78b71" stroke-width="0.4" opacity="0.04"/><line x1="628" y1="0" x2="628" y2="1000" stroke="#a78b71" stroke-width="0.4" opacity="0.04"/><line x1="6" y1="0" x2="6" y2="1000" stroke="#a78b71" stroke-width="0.4" opacity="0.04"/><line x1="93" y1="0" x2="93" y2="1000" stroke="#a78b71" stroke-width="0.4" opacity="0.04"/><line x1="90" y1="0" x2="90" y2="1000" stroke="#a78b71" stroke-width="0.4" opacity="0.04"/><line x1="47" y1="0" x2="47" y2="1000" stroke="#a78b71" stroke-width="0.4" opacity="0.04"/><line x1="25" y1="0" x2="25" y2="1000" stroke="#a78b71" stroke-width="0.4" opacity="0.04"/><line x1="465" y1="0" x2="465" y2="1000" stroke="#a78b71" stroke-width="0.4" opacity="0.04"/><line x1="675" y1="0" x2="675" y2="1000" stroke="#a78b71" stroke-width="0.4" opacity="0.04"/><line x1="671" y1="0" x2="671" y2="1000" stroke="#a78b71" stroke-width="0.4" opacity="0.04"/><line x1="445" y1="0" x2="445" y2="1000" stroke="#a78b71" stroke-width="0.4" opacity="0.04"/><line x1="115" y1="0" x2="115" y2="1000" stroke="#a78b71" stroke-width="0.4" opacity="0.04"/><ellipse cx="400" cy="330" rx="168" ry="210" fill="none" stroke="url(#pg)" stroke-width="1.10" opacity="0.62"/><ellipse cx="400" cy="330" rx="167" ry="208" fill="none" stroke="url(#pg)" stroke-width="1.09" opacity="0.61"/><ellipse cx="400" cy="330" rx="166" ry="207" fill="none" stroke="url(#pg)" stroke-width="1.07" opacity="0.60"/><ellipse cx="400" cy="330" rx="165" ry="205" fill="none" stroke="url(#pg)" stroke-width="1.06" opacity="0.58"/><ellipse cx="400" cy="330" rx="164" ry="204" fill="none" stroke="url(#pg)" stroke-width="1.04" opacity="0.57"/><ellipse cx="400" cy="330" rx="163" ry="202" fill="none" stroke="url(#pg)" stroke-width="1.03" opacity="0.56"/><ellipse cx="400" cy="330" rx="161" ry="200" fill="none" stroke="url(#pg)" stroke-width="1.01" opacity="0.55"/><ellipse cx="400" cy="330" rx="160" ry="199" fill="none" stroke="url(#pg)" stroke-width="1.00" opacity="0.53"/><ellipse cx="400" cy="330" rx="159" ry="197" fill="none" stroke="url(#pg)" stroke-width="0.98" opacity="0.52"/><ellipse cx="400" cy="330" rx="158" ry="196" fill="none" stroke="url(#pg)" stroke-width="0.97" opacity="0.51"/><ellipse cx="400" cy="330" rx="157" ry="194" fill="none" stroke="url(#pg)" stroke-width="0.95" opacity="0.50"/><ellipse cx="400" cy="330" rx="156" ry="192" fill="none" stroke="url(#pg)" stroke-width="0.94" opacity="0.48"/><ellipse cx="400" cy="330" rx="155" ry="191" fill="none" stroke="url(#pg)" stroke-width="0.92" opacity="0.47"/><ellipse cx="400" cy="330" rx="154" ry="189" fill="none" stroke="url(#pg)" stroke-width="0.91" opacity="0.46"/><ellipse cx="400" cy="330" rx="153" ry="188" fill="none" stroke="url(#pg)" stroke-width="0.89" opacity="0.45"/><ellipse cx="400" cy="330" rx="152" ry="186" fill="none" stroke="url(#pg)" stroke-width="0.88" opacity="0.43"/><ellipse cx="400" cy="330" rx="150" ry="184" fill="none" stroke="url(#pg)" stroke-width="0.86" opacity="0.42"/><ellipse cx="400" cy="330" rx="149" ry="183" fill="none" stroke="url(#pg)" stroke-width="0.85" opacity="0.41"/><ellipse cx="400" cy="330" rx="148" ry="181" fill="none" stroke="url(#pg)" stroke-width="0.84" opacity="0.40"/><ellipse cx="400" cy="330" rx="147" ry="180" fill="none" stroke="url(#pg)" stroke-width="0.82" opacity="0.39"/><ellipse cx="400" cy="330" rx="146" ry="178" fill="none" stroke="url(#pg)" stroke-width="0.81" opacity="0.37"/><ellipse cx="400" cy="330" rx="145" ry="176" fill="none" stroke="url(#pg)" stroke-width="0.79" opacity="0.36"/><ellipse cx="400" cy="330" rx="144" ry="175" fill="none" stroke="url(#pg)" stroke-width="0.78" opacity="0.35"/><ellipse cx="400" cy="330" rx="143" ry="173" fill="none" stroke="url(#pg)" stroke-width="0.76" opacity="0.34"/><ellipse cx="400" cy="330" rx="142" ry="172" fill="none" stroke="url(#pg)" stroke-width="0.75" opacity="0.32"/><ellipse cx="400" cy="330" rx="141" ry="170" fill="none" stroke="url(#pg)" stroke-width="0.73" opacity="0.31"/><ellipse cx="400" cy="330" rx="139" ry="168" fill="none" stroke="url(#pg)" stroke-width="0.72" opacity="0.30"/><ellipse cx="400" cy="330" rx="138" ry="167" fill="none" stroke="url(#pg)" stroke-width="0.70" opacity="0.29"/><ellipse cx="400" cy="330" rx="137" ry="165" fill="none" stroke="url(#pg)" stroke-width="0.69" opacity="0.27"/><ellipse cx="400" cy="330" rx="136" ry="164" fill="none" stroke="url(#pg)" stroke-width="0.67" opacity="0.26"/><ellipse cx="400" cy="330" rx="135" ry="162" fill="none" stroke="url(#pg)" stroke-width="0.66" opacity="0.25"/><ellipse cx="400" cy="330" rx="134" ry="160" fill="none" stroke="url(#pg)" stroke-width="0.64" opacity="0.24"/><ellipse cx="400" cy="330" rx="133" ry="159" fill="none" stroke="url(#pg)" stroke-width="0.63" opacity="0.22"/><ellipse cx="400" cy="330" rx="132" ry="157" fill="none" stroke="url(#pg)" stroke-width="0.61" opacity="0.21"/><path d="M110,1000 C150,620 275,545 400,545 C525,545 650,620 690,1000" fill="none" stroke="url(#pg)" stroke-width="1.00" opacity="0.50"/><path d="M120,1000 C158,629 280,555 400,555 C520,555 642,629 680,1000" fill="none" stroke="url(#pg)" stroke-width="0.95" opacity="0.46"/><path d="M130,1000 C166,638 285,565 400,565 C515,565 634,638 670,1000" fill="none" stroke="url(#pg)" stroke-width="0.90" opacity="0.43"/><path d="M140,1000 C174,647 290,575 400,575 C510,575 626,647 660,1000" fill="none" stroke="url(#pg)" stroke-width="0.85" opacity="0.40"/><path d="M150,1000 C182,656 295,585 400,585 C505,585 618,656 650,1000" fill="none" stroke="url(#pg)" stroke-width="0.80" opacity="0.36"/><path d="M160,1000 C190,665 300,595 400,595 C500,595 610,665 640,1000" fill="none" stroke="url(#pg)" stroke-width="0.75" opacity="0.32"/><path d="M170,1000 C198,674 305,605 400,605 C495,605 602,674 630,1000" fill="none" stroke="url(#pg)" stroke-width="0.70" opacity="0.29"/><path d="M180,1000 C206,683 310,615 400,615 C490,615 594,683 620,1000" fill="none" stroke="url(#pg)" stroke-width="0.65" opacity="0.26"/><path d="M190,1000 C214,692 315,625 400,625 C485,625 586,692 610,1000" fill="none" stroke="url(#pg)" stroke-width="0.60" opacity="0.22"/><path d="M200,1000 C222,701 320,635 400,635 C480,635 578,701 600,1000" fill="none" stroke="url(#pg)" stroke-width="0.55" opacity="0.18"/><path d="M210,1000 C230,710 325,645 400,645 C475,645 570,710 590,1000" fill="none" stroke="url(#pg)" stroke-width="0.50" opacity="0.15"/><path d="M220,1000 C238,719 330,655 400,655 C470,655 562,719 580,1000" fill="none" stroke="url(#pg)" stroke-width="0.45" opacity="0.11"/><circle cx="297" cy="238" r="2.0" fill="#e8d5b7" opacity="0.63"/><circle cx="450" cy="528" r="1.2" fill="#e8d5b7" opacity="0.41"/><circle cx="510" cy="330" r="2.8" fill="#e8d5b7" opacity="0.85"/><circle cx="519" cy="170" r="2.5" fill="#e8d5b7" opacity="0.78"/><circle cx="255" cy="343" r="1.8" fill="#e8d5b7" opacity="0.57"/><circle cx="483" cy="359" r="0.9" fill="#e8d5b7" opacity="0.32"/><circle cx="330" cy="342" r="1.8" fill="#e8d5b7" opacity="0.56"/><circle cx="424" cy="175" r="2.4" fill="#e8d5b7" opacity="0.73"/><circle cx="477" cy="183" r="2.5" fill="#e8d5b7" opacity="0.76"/><circle cx="533" cy="275" r="2.7" fill="#e8d5b7" opacity="0.82"/><circle cx="330" cy="154" r="2.1" fill="#e8d5b7" opacity="0.67"/><circle cx="488" cy="479" r="1.1" fill="#e8d5b7" opacity="0.38"/><circle cx="394" cy="203" r="2.3" fill="#e8d5b7" opacity="0.71"/><circle cx="455" cy="522" r="1.2" fill="#e8d5b7" opacity="0.41"/><circle cx="261" cy="461" r="1.6" fill="#e8d5b7" opacity="0.52"/><circle cx="357" cy="507" r="1.4" fill="#e8d5b7" opacity="0.46"/><circle cx="355" cy="378" r="1.6" fill="#e8d5b7" opacity="0.51"/><circle cx="396" cy="477" r="1.3" fill="#e8d5b7" opacity="0.44"/><circle cx="428" cy="407" r="1.2" fill="#e8d5b7" opacity="0.40"/><circle cx="353" cy="361" r="1.6" fill="#e8d5b7" opacity="0.53"/><circle cx="296" cy="252" r="2.0" fill="#e8d5b7" opacity="0.62"/><circle cx="347" cy="294" r="2.0" fill="#e8d5b7" opacity="0.62"/><circle cx="281" cy="440" r="1.6" fill="#e8d5b7" opacity="0.52"/><circle cx="258" cy="397" r="1.7" fill="#e8d5b7" opacity="0.54"/><circle cx="376" cy="257" r="2.2" fill="#e8d5b7" opacity="0.68"/><circle cx="383" cy="173" r="2.3" fill="#e8d5b7" opacity="0.70"/><circle cx="396" cy="175" r="2.3" fill="#e8d5b7" opacity="0.71"/><circle cx="374" cy="217" r="2.2" fill="#e8d5b7" opacity="0.69"/><circle cx="283" cy="439" r="1.6" fill="#e8d5b7" opacity="0.52"/><circle cx="452" cy="263" r="2.5" fill="#e8d5b7" opacity="0.78"/><circle cx="460" cy="145" r="2.4" fill="#e8d5b7" opacity="0.75"/><circle cx="437" cy="244" r="2.5" fill="#e8d5b7" opacity="0.76"/><circle cx="499" cy="340" r="0.8" fill="#e8d5b7" opacity="0.31"/><circle cx="396" cy="105" r="2.3" fill="#e8d5b7" opacity="0.71"/><circle cx="316" cy="362" r="1.7" fill="#e8d5b7" opacity="0.55"/><circle cx="330" cy="323" r="1.8" fill="#e8d5b7" opacity="0.58"/><circle cx="287" cy="438" r="1.6" fill="#e8d5b7" opacity="0.52"/><circle cx="504" cy="482" r="1.1" fill="#e8d5b7" opacity="0.37"/><circle cx="497" cy="147" r="2.5" fill="#e8d5b7" opacity="0.76"/><circle cx="438" cy="266" r="2.5" fill="#e8d5b7" opacity="0.77"/><circle cx="400" cy="300" r="7" fill="#f3e4c8"/></svg>