<svg xmlns="http://www.w3.org/2000/svg" viewBox="0 0 800 1000" width="800" height="1000"><defs><linearGradient id="pg" x1="0" y1="0" x2="1" y2="1"><stop offset="0" stop-color="#f3e4c8"/><stop offset="1" stop-color="#9d8161"/></linearGradient><radialGradient id="halo" cx="50%" cy="34%" r="60%"><stop offset="0" stop-color="rgba(167,139,113,0.28)"/><stop offset="1" stop-color="rgba(167,139,113,0)"/></radialGradient><radialGradient id="pbg" cx="50%" cy="32%" r="85%"><stop offset="0" stop-color="#1b160e"/><stop offset="1" stop-color="#0a0a0a"/></radialGradient></defs><rect width="800" height="1000" fill="url(#pbg)"/><ellipse cx="400" cy="360" rx="280" ry="320" fill="url(#halo)" opacity="0.9"/><line x1="116" y1="0" x2="116" y2="1000" stroke="#a78b71" stroke-width="0.4" opacity="0.04"/><line x1="313" y1="0" x2="313" y2="1000" stroke="#a78b71" stroke-width="0.4" opacity="0.04"/><line x1="177" y1="0" x2="177" y2="1000" stroke="#a78b71" stroke-width="0.4" opacity="0.04"/><line x1="750" y1="0" x2="750" y2="1000" stroke="#a78b71" stroke-width="0.4" opacity="0.04"/><line x1="605" y1="0" x2="605" y2="1000" stroke="#a78b71" stroke-width="0.4" opacity="0.04"/><line x1="580" y1="0" x2="580" y2="1000" stroke="#a78b71" stroke-width="0.4" opacity="0.04"/><line x1="103" y1="0" x2="103" y2="1000" stroke="#a78b71" stroke-width="0.4" opacity="0.04"/><line x1="666" y1="0" x2="666" y2="1000" stroke="#a78b71" stroke-width="0.4" opacity="0.04"/><line x1="545" y1="0" x2="545" y2="1000" stroke="#a78b71" stroke-width="0.4" opacity="0.04"/><line x1="607" y1="0" x2="607" y2="1000" stroke="#a78b71" stroke-width="0.4" opacity="0.04"/><line x1="173" y1="0" x2="173" y2="1000" stroke="#a78b71" stroke-width="0.4" opacity="0.04"/><line x1="6" y1="0" x2="6" y2="1000" stroke="#a78b71" stroke-width="0.4" opacity="0.04"/><line x1="267" y1="0" x2="267" y2="1000" stroke="#a78b71" stroke-width="0.4" opacity="0.04"/><line x1="74" y1="0" x2="74" y2="1000" stroke="#a78b71" stroke-width="0.4" opacity="0.04"/><line x1="705" y1="0" x2="705" y2="1000" stroke="#a78b71" stroke-width="0.4" opacity="0.04"/><line x1="404" y1="0" x2="404" y2="1000" stroke="#a78b71" stroke-width="0.4" opacity="0.04"/><line x1="220" y1="0" x2="220" y2="1000" stroke="#a78b71" stroke-width="0.4" opacity="0.04"/><line x1="325" y1="0" x2="325" y2="1000" stroke="#a78b71" stroke-width="0.4" opacity="0.04"/><line x1="138" y1="0" x2="138" y2="1000" stroke="#a78b71" stroke-width="0.4" opacity="0.04"/><line x1="224" y1="0" x2="224" y2="1000" stroke="#a78b71" stroke-width="0.4" opacity="0.04"/><line x1="299" y1="0" x2="299" y2="1000" stroke="#a78b71" stroke-width="0.4" opacity="0.04"/><line x1="447" y1="0" x2="447" y2="1000" stroke="#a78b71" stroke-width="0.4" opacity="0.04"/><line x1="229" y1="0" x2="229" y2="1000" stroke="#a78b71" stroke-width="0.4" opacity="0.04"/><line x1="73" y1="0" x2="73" y2="1000" stroke="#a78b71" stroke-width="0.4" opacity="0.04"/><line x1="271" y1="0" x2="271" y2="1000" stroke="#a78b71" stroke-width="0.4" opacity="0.04"/><line x1="113" y1="0" x2="113" y2="1000" stroke="#a78b71" stroke-width="0.4" opacity="0.04"/><line x1="614" y1="0" x2="614" y2="1000" stroke="#a78b71" stroke-width="0.4" opacity="0.04"/><line x1="583" y1="0" x2="583" y2="1000" stroke="#a78b71" stroke-width="0.4" opacity="0.04"/><line x1="227" y1="0" x2="227" y2="1000" stroke="#a78b71" stroke-width="0.4" opacity="0.04"/><line x1="103" y1="0" x2="103" y2="1000" stroke="#a78b71" stroke-width="0.4" opacity="0.04"/><line x1="370" y1="0" x2="370" y2="1000" stroke="#a78b71" stroke-width="0.4" opacity="0.04"/><line x1="468" y1="0" x2="468" y2="1000" stroke="#a78b71" stroke-width="0.4" opacity="0.04"/><line x1="796" y1="0" x2="796" y2="1000" stroke="#a78b71" stroke-width="0.4" opacity="0.04"/><line x1="442" y1="0" x2="442" y2="1000" stroke="#a78b71" stroke-width="0.4" opacity="0.04"/><line x1="59" y1="0" x2="59" y2="1000" stroke="#a78b71" stroke-width="0.4" opacity="0.04"/><line x1="551" y1="0" x2="551" y2="1000" stroke="#a78b71" stroke-width="0.4" opacity="0.04"/><line x1="485" y1="0" x2="485" y2="1000" stroke="#a78b71" stroke-width="0.4" opacity="0.04"/><line x1="54" y1="0" x2="54" y2="1000" stroke="#a78b71" stroke-width="0.4" opacity="0.04"/><line x1="790" y1="0" x2="790" y2="1000" stroke="#a78b71" stroke-width="0.4" opacity="0.04"/><line x1="229" y1="0" x2="229" y2="1000" stroke="#a78b71" stroke-width="0.4" opacity="0.04"/><line x1="262" y1="0" x2="262" y2="1000" stroke="#a78b71" stroke-width="0.4" opacity="0.04"/><line x1="129" y1="0" x2="129" y2="1000" stroke="#a78b71" stroke-width="0.4" opacity="0.04"/><line x1="406" y1="0" x2="406" y2="1000" stroke="#a78b71" stroke-width="0.4" opacity="0.04"/><line x1="16" y1="0" x2="16" y2="1000" stroke="#a78b71" stroke-width="0.4" opacity="0.04"/><line x1="46" y1="0" x2="46" y2="1000" stroke="#a78b71" stroke-width="0.4" opacity="0.04"/><line x1="600" y1="0" x2="600" y2="1000" stroke="#a78b71" stroke-width="0.4" opacity="0.04"/><line x1="539" y1="0" x2="539" y2="1000" stroke="#a78b71" stroke-width="0.4" opacity="0.04"/><line x1="797" y1="0" x2="797" y2="1000" stroke="#a78b71" stroke-width="0.4" opacity="0.04"/><line x1="231" y1="0" x2="231" y2="1000" stroke="#a78b71" stroke-width="0.4" opacity="0.04"/><line x1="119" y1="0" x2="119" y2="1000" stroke="#a78b71" stroke-width="0.4" opacity="0.04"/><line x1="63" y1="0" x2="63" y2="1000" stroke="#a78b71" stroke-width="0.4" opacity="0.04"/><line x1="335" y1="0" x2="335" y2="1000" stroke="#a78b71" stroke-width="0.4" opacity="0.04"/><line x1="134" y1="0" x2="134" y2="1000" stroke="#a78b71" stroke-width="0.4" opacity="0.04"/><line x1="255" y1="0" x2="255" y2="1000" stroke="#a78b71" stroke-width="0.4" opacity="0.04"/><line x1="164" y1="0" x2="164" y2="1000" stroke="#a78b71" stroke-width="0.4" opacity="0.04"/><line x1="4" y1="0" x2="4" y2="1000" stroke="#a78b71" stroke-width="0.4" opacity="0.04"/><line x1="189" y1="0" x2="189" y2="1000" stroke="#a78b71" stroke-width="0.4" opacity="0.04"/><line x1="149" y1="0" x2="149" y2="1000" stroke="#a78b71" stroke-width="0.4" opacity="0.04"/><line x1="719" y1="0" x2="719" y2="1000" stroke="#a78b71" stroke-width="0.4" opacity="0.04"/><line x1="558" y1="0" x2="558" y2="1000" stroke="#a78b71" stroke-width="0.4" opacity="0.04"/><line x1="33" y1="0" x2="33" y2="1000" stroke="#a78b71" stroke-width="0.4" opacity="0.04"/><line x1="734" y1="0" x2="734" y2="1000" stroke="#a78b71" stroke-width="0.4" opacity="0.04"/><line x1="617" y1="0" x2="617" y2="1000" stroke="#a78b71" stroke-width="0.4" opacity="0.04"/><line x1="118" y1="0" x2="118" y2="1000" stroke="#a78b71" stroke-width="0.4" opacity="0.04"/><line x1="658" y1="0" x2="658" y2="1000" stroke="#a78b71" stroke-width="0.4" opacity="0.04"/><line x1="704" y1="0" x2="704" y2="1000" stroke="#a78b71" stroke-width="0.4" opacity="0.04"/><line x1="660" y1="0" x2="660" y2="1000" stroke="#a78b71" stroke-width="0.4" opacity="0.04"/><line x1="75" y1="0" x2="75" y2="1000" stroke="#a78b71" stroke-width="0.4" opacity="0.04"/><line x1="597" y1="0" x2="597" y2="1000" stroke="#a78b71" stroke-width="0.4" opacity="0.04"/><line x1="519" y1="0" x2="519" y2="1000" stroke="#a78b71" stroke-width="0.4" opacity="0.04"/><line x1="56" y1="0" x2="56" y2="1000" stroke="#a78b71" stroke-width="0.4" opacity="0.04"/><line x1="510" y1="0" x2="510" y2="1000" stroke="#a78b71" stroke-width="0.4" opacity="0.04"/><line x1="625" y1="0" x2="625" y2="1000" stroke="#a78b71" stroke-width="0.4" opacity="0.04"/><line x1="423" y1="0" x2="423" y2="1000" stroke="#a78b71" stroke-width="0.4" opacity="0.04"/><line x1="349" y1="0" x2="349" y2="1000" stroke="#a78b71" stroke-width="0.4" opacity="0.04"/><line x1="427" y1="0" x2="427" y2="1000" stroke="#a78b71" stroke-width="0.4" opacity="0.04"/><line x1="142" y1="0" x2="142" y2="1000" stroke="#a78b71" stroke-width="0.4" opacity="0.04"/><line x1="250" y1="0" x2="250" y2="1000" stroke="#a78b71" stroke-width="0.4" opacity="0.04"/><line x1="590" y1="0" x2="590" y2="1000" stroke="#a78b71" stroke-width="0.4" opacity="0.04"/><line x1="230" y1="0" x2="230" y2="1000" stroke="#a78b71" stroke-width="0.4" opacity="0.04"/><ellipse cx="400" cy="330" rx="168" ry="210" fill="none" stroke="url(#pg)" stroke-width="1.10" opacity="0.62"/><ellipse cx="400" cy="330" rx="167" ry="208" fill="none" stroke="url(#pg)" stroke-width="1.09" opacity="0.61"/><ellipse cx="400" cy="330" rx="166" ry="207" fill="none" stroke="url(#pg)" stroke-width="1.07" opacity="0.60"/><ellipse cx="400" cy="330" rx="165" ry="205" fill="none" stroke="url(#pg)" stroke-width="1.06" opacity="0.58"/><ellipse cx="400" cy="330" rx="164" ry="204" fill="none" stroke="url(#pg)" stroke-width="1.04" opacity="0.57"/><ellipse cx="400" cy="330" rx="163" ry="202" fill="none" stroke="url(#pg)" stroke-width="1.03" opacity="0.56"/><ellipse cx="400" cy="330" rx="161" ry="200" fill="none" stroke="url(#pg)" stroke-width="1.01" opacity="0.55"/><ellipse cx="400" cy="330" rx="160" ry="199" fill="none" stroke="url(#pg)" stroke-width="1.00" opacity="0.53"/><ellipse cx="400" cy="330" rx="159" ry="197" fill="none" stroke="url(#pg)" stroke-width="0.98" opacity="0.52"/><ellipse cx="400" cy="330" rx="158" ry="196" fill="none" stroke="url(#pg)" stroke-width="0.97" opacity="0.51"/><ellipse cx="400" cy="330" rx="157" ry="194" fill="none" stroke="url(#pg)" stroke-width="0.95" opacity="0.50"/><ellipse cx="400" cy="330" rx="156" ry="192" fill="none" stroke="url(#pg)" stroke-width="0.94" opacity="0.48"/><ellipse cx="400" cy="330" rx="155" ry="191" fill="none" stroke="url(#pg)" stroke-width="0.92" opacity="0.47"/><ellipse cx="400" cy="330" rx="154" ry="189" fill="none" stroke="url(#pg)" stroke-width="0.91" opacity="0.46"/><ellipse cx="400" cy="330" rx="153" ry="188" fill="none" stroke="url(#pg)" stroke-width="0.89" opacity="0.45"/><ellipse cx="400" cy="330" rx="152" ry="186" fill="none" stroke="url(#pg)" stroke-width="0.88" opacity="0.43"/><ellipse cx="400" cy="330" rx="150" ry="184" fill="none" stroke="url(#pg)" stroke-width="0.86" opacity="0.42"/><ellipse cx="400" cy="330" rx="149" ry="183" fill="none" stroke="url(#pg)" stroke-width="0.85" opacity="0.41"/><ellipse cx="400" cy="330" rx="148" ry="181" fill="none" stroke="url(#pg)" stroke-width="0.84" opacity="0.40"/><ellipse cx="400" cy="330" rx="147" ry="180" fill="none" stroke="url(#pg)" stroke-width="0.82" opacity="0.39"/><ellipse cx="400" cy="330" rx="146" ry="178" fill="none" stroke="url(#pg)" stroke-width="0.81" opacity="0.37"/><ellipse cx="400" cy="330" rx="145" ry="176" fill="none" stroke="url(#pg)" stroke-width="0.79" opacity="0.36"/><ellipse cx="400" cy="330" rx="144" ry="175" fill="none" stroke="url(#pg)" stroke-width="0.78" opacity="0.35"/><ellipse cx="400" cy="330" rx="143" ry="173" fill="none" stroke="url(#pg)" stroke-width="0.76" opacity="0.34"/><ellipse cx="400" cy="330" rx="142" ry="172" fill="none" stroke="url(#pg)" stroke-width="0.75" opacity="0.32"/><ellipse cx="400" cy="330" rx="141" ry="170" fill="none" stroke="url(#pg)" stroke-width="0.73" opacity="0.31"/><ellipse cx="400" cy="330" rx="139" ry="168" fill="none" stroke="url(#pg)" stroke-width="0.72" opacity="0.30"/><ellipse cx="400" cy="330" rx="138" ry="167" fill="none" stroke="url(#pg)" stroke-width="0.70" opacity="0.29"/><ellipse cx="400" cy="330" rx="137" ry="165" fill="none" stroke="url(#pg)" stroke-width="0.69" opacity="0.27"/><ellipse cx="400" cy="330" rx="136" ry="164" fill="none" stroke="url(#pg)" stroke-width="0.67" opacity="0.26"/><ellipse cx="400" cy="330" rx="135" ry="162" fill="none" stroke="url(#pg)" stroke-width="0.66" opacity="0.25"/><ellipse cx="400" cy="330" rx="134" ry="160" fill="none" stroke="url(#pg)" stroke-width="0.64" opacity="0.24"/><ellipse cx="400" cy="330" rx="133" ry="159" fill="none" stroke="url(#pg)" stroke-width="0.63" opacity="0.22"/><ellipse cx="400" cy="330" rx="132" ry="157" fill="none" stroke="url(#pg)" stroke-width="0.61" opacity="0.21"/><path d="M110,1000 C150,620 275,545 400,545 C525,545 650,620 690,1000" fill="none" stroke="url(#pg)" stroke-width="1.00" opacity="0.50"/><path d="M120,1000 C158,629 280,555 400,555 C520,555 642,629 680,1000" fill="none" stroke="url(#pg)" stroke-width="0.95" opacity="0.46"/><path d="M130,1000 C166,638 285,565 400,565 C515,565 634,638 670,1000" fill="none" stroke="url(#pg)" stroke-width="0.90" opacity="0.43"/><path d="M140,1000 C174,647 290,575 400,575 C510,575 626,647 660,1000" fill="none" stroke="url(#pg)" stroke-width="0.85" opacity="0.40"/><path d="M150,1000 C182,656 295,585 400,585 C505,585 618,656 650,1000" fill="none" stroke="url(#pg)" stroke-width="0.80" opacity="0.36"/><path d="M160,1000 C190,665 300,595 400,595 C500,595 610,665 640,1000" fill="none" stroke="url(#pg)" stroke-width="0.75" opacity="0.32"/><path d="M170,1000 C198,674 305,605 400,605 C495,605 602,674 630,1000" fill="none" stroke="url(#pg)" stroke-width="0.70" opacity="0.29"/><path d="M180,1000 C206,683 310,615 400,615 C490,615 594,683 620,1000" fill="none" stroke="url(#pg)" stroke-width="0.65" opacity="0.26"/><path d="M190,1000 C214,692 315,625 400,625 C485,625 586,692 610,1000" fill="none" stroke="url(#pg)" stroke-width="0.60" opacity="0.22"/><path d="M200,1000 C222,701 320,635 400,635 C480,635 578,701 600,1000" fill="none" stroke="url(#pg)" stroke-width="0.55" opacity="0.18"/><path d="M210,1000 C230,710 325,645 400,645 C475,645 570,710 590,1000" fill="none" stroke="url(#pg)" stroke-width="0.50" opacity="0.15"/><path d="M220,1000 C238,719 330,655 400,655 C470,655 562,719 580,1000" fill="none" stroke="url(#pg)" stroke-width="0.45" opacity="0.11"/><circle cx="441" cy="397" r="1.1" fill="#e8d5b7" opacity="0.38"/><circle cx="268" cy="469" r="1.6" fill="#e8d5b7" opacity="0.51"/><circle cx="411" cy="411" r="1.2" fill="#e8d5b7" opacity="0.42"/><circle cx="536" cy="258" r="2.7" fill="#e8d5b7" opacity="0.82"/><circle cx="404" cy="213" r="2.3" fill="#e8d5b7" opacity="0.72"/><circle cx="382" cy="186" r="2.2" fill="#e8d5b7" opacity="0.70"/><circle cx="448" cy="395" r="1.1" fill="#e8d5b7" opacity="0.37"/><circle cx="460" cy="195" r="2.5" fill="#e8d5b7" opacity="0.76"/><circle cx="362" cy="223" r="2.2" fill="#e8d5b7" opacity="0.67"/><circle cx="407" cy="146" r="2.3" fill="#e8d5b7" opacity="0.72"/><circle cx="423" cy="466" r="1.2" fill="#e8d5b7" opacity="0.42"/><circle cx="520" cy="338" r="0.8" fill="#e8d5b7" opacity="0.30"/><circle cx="336" cy="471" r="1.5" fill="#e8d5b7" opacity="0.48"/><circle cx="471" cy="390" r="1.0" fill="#e8d5b7" opacity="0.35"/><circle cx="484" cy="231" r="2.6" fill="#e8d5b7" opacity="0.78"/><circle cx="254" cy="324" r="1.8" fill="#e8d5b7" opacity="0.58"/><circle cx="387" cy="438" r="1.3" fill="#e8d5b7" opacity="0.45"/><circle cx="315" cy="403" r="1.6" fill="#e8d5b7" opacity="0.52"/><circle cx="435" cy="414" r="1.1" fill="#e8d5b7" opacity="0.39"/><circle cx="386" cy="420" r="1.4" fill="#e8d5b7" opacity="0.45"/><circle cx="363" cy="378" r="1.5" fill="#e8d5b7" opacity="0.51"/><circle cx="338" cy="299" r="1.9" fill="#e8d5b7" opacity="0.61"/><circle cx="365" cy="525" r="1.4" fill="#e8d5b7" opacity="0.46"/><circle cx="512" cy="422" r="1.0" fill="#e8d5b7" opacity="0.35"/><circle cx="320" cy="494" r="1.5" fill="#e8d5b7" opacity="0.49"/><circle cx="474" cy="447" r="1.1" fill="#e8d5b7" opacity="0.38"/><circle cx="416" cy="146" r="2.3" fill="#e8d5b7" opacity="0.72"/><circle cx="390" cy="236" r="2.3" fill="#e8d5b7" opacity="0.70"/><circle cx="375" cy="476" r="1.4" fill="#e8d5b7" opacity="0.46"/><circle cx="501" cy="465" r="1.1" fill="#e8d5b7" opacity="0.37"/><circle cx="304" cy="360" r="1.7" fill="#e8d5b7" opacity="0.55"/><circle cx="255" cy="220" r="2.0" fill="#e8d5b7" opacity="0.62"/><circle cx="542" cy="324" r="2.8" fill="#e8d5b7" opacity="0.85"/><circle cx="293" cy="283" r="1.9" fill="#e8d5b7" opacity="0.60"/><circle cx="544" cy="422" r="0.9" fill="#e8d5b7" opacity="0.34"/><circle cx="380" cy="268" r="2.2" fill="#e8d5b7" opacity="0.68"/><circle cx="354" cy="283" r="2.0" fill="#e8d5b7" opacity="0.63"/><circle cx="547" cy="414" r="0.9" fill="#e8d5b7" opacity="0.34"/><circle cx="447" cy="325" r="2.8" fill="#e8d5b7" opacity="0.84"/><circle cx="361" cy="543" r="1.4" fill="#e8d5b7" opacity="0.46"/><circle cx="400" cy="300" r="7" fill="#f3e4c8"/></svg>