<svg width="60" height="60" viewBox="0 0 60 60" fill="none" xmlns="http://www.w3.org/2000/svg">
<g filter="url(#filter0_i_2119_3024)">
<rect x="0.775385" y="0.775385" width="58.4492" height="58.4492" rx="29.2246" stroke="#FF5A03" stroke-width="1.55077"/>
<path d="M46.2499 12.5H43.1249V11.875C43.1249 10.8414 42.2835 10 41.2499 10C40.2163 10 39.3749 10.8414 39.3749 11.875V12.5H20.625V11.875C20.625 10.8414 19.7836 10 18.75 10C17.7164 10 16.875 10.8414 16.875 11.875V12.5H13.75C12.3719 12.5 11.25 13.6219 11.25 15V41.2499C11.25 42.628 12.3719 43.7499 13.75 43.7499H18.125C18.4703 43.7499 18.75 43.4702 18.75 43.1249C18.75 42.7796 18.4703 42.4999 18.125 42.4999H13.75C13.0609 42.4999 12.5 41.9389 12.5 41.2499V20H47.4999V41.2499C47.4999 41.9389 46.9389 42.4999 46.2499 42.4999H40.6249C40.2796 42.4999 39.9999 42.7796 39.9999 43.1249C39.9999 43.4702 40.2796 43.7499 40.6249 43.7499H46.2499C47.628 43.7499 48.7499 42.628 48.7499 41.2499C48.7499 40.1061 48.7499 16.2559 48.7499 15C48.7499 13.6219 47.628 12.5 46.2499 12.5ZM40.6249 11.875C40.6249 11.5305 40.9053 11.25 41.2499 11.25C41.5944 11.25 41.8749 11.5305 41.8749 11.875V15C41.8749 15.3445 41.5944 15.625 41.2499 15.625C40.9053 15.625 40.6249 15.3445 40.6249 15C40.6249 13.9138 40.6249 12.9579 40.6249 11.875ZM18.125 11.875C18.125 11.5305 18.4054 11.25 18.75 11.25C19.0945 11.25 19.375 11.5305 19.375 11.875V15C19.375 15.3445 19.0945 15.625 18.75 15.625C18.4054 15.625 18.125 15.3445 18.125 15C18.125 13.9138 18.125 12.9579 18.125 11.875Z" fill="#FF5A03"/>
<path d="M40.6249 39.5092C40.6249 37.6575 38.4948 36.8731 37.2945 38.0709L32.8664 42.4998H21.5625C20.3562 42.4998 19.375 43.4811 19.375 44.6873C19.375 45.8936 20.3562 46.8748 21.5625 46.8748H22.3626L21.8871 49.2522C21.8194 49.5907 22.0389 49.92 22.3773 49.9877C22.7182 50.0555 23.0455 49.8341 23.1128 49.4975L23.6374 46.8748H33.8626L34.3871 49.4974C34.4466 49.7945 34.7075 50 34.9993 50C35.3956 50 35.6899 49.6376 35.6129 49.2522L35.0513 46.4439C38.4131 42.8895 37.0884 44.3597 40.1555 40.7787C40.4585 40.4256 40.6249 39.9748 40.6249 39.5092Z" fill="#FF5A03"/>
<path d="M22.0507 33.239C21.9905 33.5794 22.2171 33.9029 22.5577 33.9632L26.6506 34.6847C26.7745 34.7066 26.8939 34.6268 26.9202 34.5038C27.4259 32.1372 28.4288 29.0449 29.96 27.1345C30.0897 26.9727 29.9596 26.7341 29.7533 26.7552C25.8785 27.1529 22.6756 29.6949 22.0507 33.239Z" fill="#FF5A03"/>
<path d="M35.508 36.0174C35.4903 36.1421 35.5759 36.2582 35.6999 36.2801C40.0891 37.0546 39.8212 37.0116 39.9011 37.0116C40.2035 37.0116 40.4638 36.7942 40.5167 36.4952C41.1416 32.9504 39.0006 29.4661 35.495 27.7672C35.3084 27.6768 35.1045 27.8567 35.1711 28.0531C35.9559 30.3682 35.8455 33.6403 35.508 36.0174Z" fill="#FF5A03"/>
<path d="M29.8029 41.2499H30.5964C30.7101 41.2499 30.8075 41.1683 30.8272 41.0562L31.5234 37.1074C31.5459 36.9799 31.4607 36.8583 31.3332 36.8358L30.5636 36.7006C30.4362 36.6782 30.3147 36.7633 30.2922 36.8908L29.5719 40.9748C29.5468 41.1183 29.6572 41.2499 29.8029 41.2499Z" fill="#FF5A03"/>
<path d="M33.4189 26.3584C33.4791 26.0186 33.2518 25.6944 32.9119 25.6342C32.5721 25.5748 32.2479 25.8014 32.1877 26.1412C32.0583 26.8761 32.085 26.7244 32.0486 26.9303C31.6885 27.1061 31.3025 27.4545 30.9127 27.9514C29.5025 29.75 28.5667 32.6784 28.1064 34.9412C32.8493 35.778 29.6052 35.2056 34.2439 36.024C34.5899 33.7421 34.7033 30.6528 33.9986 28.4951C33.8025 27.8951 33.558 27.435 33.2799 27.1467C33.3173 26.9351 33.2868 27.1079 33.4189 26.3584Z" fill="#FF5A03"/>
<path d="M28.2182 49.2873C28.1648 49.6641 28.4577 49.9998 28.8377 49.9998C29.144 49.9998 29.412 49.774 29.4557 49.4623L29.6064 48.3918C29.6263 48.2508 29.5167 48.1248 29.3743 48.1248H28.5859C28.4691 48.1248 28.3701 48.2108 28.3538 48.3264L28.2182 49.2873Z" fill="#FF5A03"/>
</g>
<defs>
<filter id="filter0_i_2119_3024" x="0" y="-5" width="60" height="65" filterUnits="userSpaceOnUse" color-interpolation-filters="sRGB">
<feFlood flood-opacity="0" result="BackgroundImageFix"/>
<feBlend mode="normal" in="SourceGraphic" in2="BackgroundImageFix" result="shape"/>
<feColorMatrix in="SourceAlpha" type="matrix" values="0 0 0 0 0 0 0 0 0 0 0 0 0 0 0 0 0 0 127 0" result="hardAlpha"/>
<feOffset dy="-5"/>
<feGaussianBlur stdDeviation="5"/>
<feComposite in2="hardAlpha" operator="arithmetic" k2="-1" k3="1"/>
<feColorMatrix type="matrix" values="0 0 0 0 0.660256 0 0 0 0 0.913257 0 0 0 0 1 0 0 0 0.4 0"/>
<feBlend mode="plus-lighter" in2="shape" result="effect1_innerShadow_2119_3024"/>
</filter>
</defs>
</svg>
