<svg width="64" height="64" viewBox="0 0 64 64" fill="none" xmlns="http://www.w3.org/2000/svg">
<g filter="url(#filter0_i_2115_11328)">
<rect x="0.775385" y="0.775385" width="62.4492" height="62.4492" rx="31.2246" stroke="#FF5A03" stroke-width="1.55077"/>
<path d="M42 19.5H15.75C15.087 19.5 14.4511 19.7634 13.9822 20.2322C13.5134 20.7011 13.25 21.337 13.25 22V29.5H26.4625C26.6064 28.9704 26.9206 28.5029 27.3566 28.1695C27.7926 27.8362 28.3262 27.6556 28.875 27.6556C29.4238 27.6556 29.9574 27.8362 30.3934 28.1695C30.8294 28.5029 31.1436 28.9704 31.2875 29.5H44.5V22C44.5 21.337 44.2366 20.7011 43.7678 20.2322C43.2989 19.7634 42.663 19.5 42 19.5Z" fill="#FF5A03"/>
<path d="M42 33.25C40.2694 33.25 38.5777 33.7632 37.1388 34.7246C35.6998 35.6861 34.5783 37.0527 33.9161 38.6515C33.2538 40.2504 33.0805 42.0097 33.4181 43.707C33.7558 45.4044 34.5891 46.9635 35.8128 48.1872C37.0365 49.4109 38.5956 50.2442 40.293 50.5819C41.9903 50.9195 43.7496 50.7462 45.3485 50.0839C46.9473 49.4217 48.3139 48.3002 49.2754 46.8612C50.2368 45.4223 50.75 43.7306 50.75 42C50.75 39.6794 49.8281 37.4538 48.1872 35.8128C46.5462 34.1719 44.3206 33.25 42 33.25ZM45.125 42.625H41.9563C41.8021 42.625 41.6543 42.5638 41.5452 42.4548C41.4362 42.3457 41.375 42.1979 41.375 42.0437V37C41.375 36.8342 41.4409 36.6753 41.5581 36.5581C41.6753 36.4408 41.8342 36.375 42 36.375C42.1658 36.375 42.3247 36.4408 42.4419 36.5581C42.5592 36.6753 42.625 36.8342 42.625 37V41.375H45.125C45.2908 41.375 45.4497 41.4408 45.5669 41.5581C45.6842 41.6753 45.75 41.8342 45.75 42C45.75 42.1658 45.6842 42.3247 45.5669 42.4419C45.4497 42.5592 45.2908 42.625 45.125 42.625Z" fill="#FF5A03"/>
<path d="M23.25 18.25V17.625C23.25 15.9313 25.825 14.5 28.875 14.5C31.925 14.5 34.5 15.9313 34.5 17.625V18.25H38.25V17.625C38.25 17.4592 38.1842 17.3003 38.0669 17.1831C37.9497 17.0658 37.7908 17 37.625 17H35.675C35.2125 14.8562 32.3938 13.25 28.875 13.25C25.3562 13.25 22.5375 14.8562 22.075 17H20.125C19.9592 17 19.8003 17.0658 19.6831 17.1831C19.5658 17.3003 19.5 17.4592 19.5 17.625V18.25H23.25Z" fill="#FF5A03"/>
<path d="M31.2875 30.75C31.1436 31.2796 30.8294 31.7471 30.3934 32.0805C29.9574 32.4138 29.4238 32.5944 28.875 32.5944C28.3262 32.5944 27.7926 32.4138 27.3566 32.0805C26.9206 31.7471 26.6064 31.2796 26.4625 30.75H13.25V42C13.25 42.663 13.5134 43.2989 13.9822 43.7678C14.4511 44.2366 15.087 44.5 15.75 44.5H32.3312C32.1128 43.6846 32.0014 42.8442 32 42C32 39.3478 33.0536 36.8043 34.9289 34.9289C36.8043 33.0536 39.3478 32 42 32C42.8442 32.0014 43.6846 32.1128 44.5 32.3312V30.75H31.2875Z" fill="#FF5A03"/>
</g>
<defs>
<filter id="filter0_i_2115_11328" x="0" y="-5" width="64" height="69" filterUnits="userSpaceOnUse" color-interpolation-filters="sRGB">
<feFlood flood-opacity="0" result="BackgroundImageFix"/>
<feBlend mode="normal" in="SourceGraphic" in2="BackgroundImageFix" result="shape"/>
<feColorMatrix in="SourceAlpha" type="matrix" values="0 0 0 0 0 0 0 0 0 0 0 0 0 0 0 0 0 0 127 0" result="hardAlpha"/>
<feOffset dy="-5"/>
<feGaussianBlur stdDeviation="5"/>
<feComposite in2="hardAlpha" operator="arithmetic" k2="-1" k3="1"/>
<feColorMatrix type="matrix" values="0 0 0 0 0.660256 0 0 0 0 0.913257 0 0 0 0 1 0 0 0 0.4 0"/>
<feBlend mode="plus-lighter" in2="shape" result="effect1_innerShadow_2115_11328"/>
</filter>
</defs>
</svg>
