<svg width="64" height="64" viewBox="0 0 64 64" fill="none" xmlns="http://www.w3.org/2000/svg">
<g filter="url(#filter0_i_2115_11318)">
<rect x="0.775385" y="0.775385" width="62.4492" height="62.4492" rx="31.2246" stroke="#FF5A03" stroke-width="1.55077"/>
<g clip-path="url(#clip0_2115_11318)">
<path d="M38.5137 19.2607C38.6624 19.1792 38.8548 19.1454 39.0635 19.1934C39.2873 19.2449 39.4561 19.3714 39.5518 19.5244C39.7707 19.8747 39.6714 20.3395 39.335 20.5732C39.3069 20.5816 39.1438 20.6448 38.7695 20.7227C38.3741 20.8049 37.8794 20.8746 37.3145 20.9326C37.6144 20.4454 37.895 20.0262 38.1426 19.7012C38.3552 19.422 38.479 19.2967 38.5137 19.2607Z" stroke="#FF5A03" stroke-width="5.12"/>
<path d="M28.8398 27.415V28.0283H20.832V27.415H28.8398Z" stroke="#FF5A03" stroke-width="5.12"/>
<path d="M28.8398 34.3474V44.8386H22.0342V34.3474H28.8398Z" stroke="#FF5A03" stroke-width="5.12"/>
<path d="M24.9355 19.1926C25.1425 19.145 25.3344 19.1779 25.4844 19.26C25.5176 19.2946 25.6418 19.4196 25.8564 19.7014C26.1012 20.0228 26.3768 20.437 26.6729 20.9172C26.108 20.8613 25.614 20.7939 25.2188 20.7141C24.8513 20.6399 24.6894 20.5786 24.6592 20.5696C24.3269 20.3349 24.2301 19.8736 24.4482 19.5247C24.5447 19.3704 24.7129 19.244 24.9355 19.1926Z" stroke="#FF5A03" stroke-width="5.12"/>
<path d="M38.8242 34.3474C37.4348 34.7039 36.1819 35.4021 35.1592 36.3464V34.3474H38.8242Z" stroke="#FF5A03" stroke-width="5.12"/>
<path d="M43.167 27.415V28.0283H35.1592V27.415H43.167Z" stroke="#FF5A03" stroke-width="5.12"/>
<mask id="path-9-inside-1_2115_11318" fill="white">
<path d="M40.9476 37.8396C38.312 37.8396 36.168 39.9836 36.168 42.6192C36.168 45.2548 38.312 47.3988 40.9476 47.3988C43.5548 47.3988 45.7268 45.2792 45.7268 42.6192C45.7268 39.9824 43.5116 37.8396 40.9476 37.8396ZM45.1524 42.62C45.1524 42.9516 44.8836 43.22 44.5524 43.22H41.5476V46.2248C41.5476 46.5564 41.2788 46.8248 40.9476 46.8248C40.6164 46.8248 40.3476 46.5564 40.3476 46.2248V43.22H37.3424C37.0112 43.22 36.7424 42.9516 36.7424 42.62C36.7424 42.2884 37.0112 42.02 37.3424 42.02H40.3476V39.0152C40.3476 38.6836 40.6164 38.4152 40.9476 38.4152C41.2788 38.4152 41.5476 38.6836 41.5476 39.0152V42.02H44.5524C44.8836 42.02 45.1524 42.2884 45.1524 42.62Z"/>
</mask>
<path d="M41.5476 43.22V38.1H36.4276V43.22H41.5476ZM40.3476 43.22H45.4676V38.1H40.3476V43.22ZM40.3476 42.02V47.14H45.4676V42.02H40.3476ZM41.5476 42.02H36.4276V47.14H41.5476V42.02ZM40.9476 37.8396V32.7196C35.4843 32.7196 31.048 37.1559 31.048 42.6192H36.168H41.288C41.288 42.7182 41.2421 42.8091 41.1898 42.8614C41.1375 42.9137 41.0465 42.9596 40.9476 42.9596V37.8396ZM36.168 42.6192H31.048C31.048 48.0825 35.4843 52.5188 40.9476 52.5188V47.3988V42.2788C41.0465 42.2788 41.1375 42.3247 41.1898 42.377C41.2421 42.4293 41.288 42.5202 41.288 42.6192H36.168ZM40.9476 47.3988V52.5188C46.3462 52.5188 50.8468 48.1431 50.8468 42.6192H45.7268H40.6068C40.6068 42.5212 40.6545 42.4258 40.7081 42.3725C40.7562 42.3248 40.8418 42.2788 40.9476 42.2788V47.3988ZM45.7268 42.6192H50.8468C50.8468 37.1049 46.2892 32.7196 40.9476 32.7196V37.8396V42.9596C40.789 42.9596 40.7141 42.8965 40.6971 42.8797C40.6725 42.8554 40.6068 42.7671 40.6068 42.6192H45.7268ZM45.1524 42.62H40.0324C40.0324 40.1217 42.0581 38.1 44.5524 38.1V43.22V48.34C47.709 48.34 50.2724 45.7815 50.2724 42.62H45.1524ZM44.5524 43.22V38.1H41.5476V43.22V48.34H44.5524V43.22ZM41.5476 43.22H36.4276V46.2248H41.5476H46.6676V43.22H41.5476ZM41.5476 46.2248H36.4276C36.4276 43.7265 38.4533 41.7048 40.9476 41.7048V46.8248V51.9448C44.1042 51.9448 46.6676 49.3863 46.6676 46.2248H41.5476ZM40.9476 46.8248V41.7048C43.4418 41.7048 45.4676 43.7265 45.4676 46.2248H40.3476H35.2276C35.2276 49.3863 37.7909 51.9448 40.9476 51.9448V46.8248ZM40.3476 46.2248H45.4676V43.22H40.3476H35.2276V46.2248H40.3476ZM40.3476 43.22V38.1H37.3424V43.22V48.34H40.3476V43.22ZM37.3424 43.22V38.1C39.8366 38.1 41.8624 40.1217 41.8624 42.62H36.7424H31.6224C31.6224 45.7815 34.1857 48.34 37.3424 48.34V43.22ZM36.7424 42.62H41.8624C41.8624 45.1183 39.8366 47.14 37.3424 47.14V42.02V36.9C34.1857 36.9 31.6224 39.4585 31.6224 42.62H36.7424ZM37.3424 42.02V47.14H40.3476V42.02V36.9H37.3424V42.02ZM40.3476 42.02H45.4676V39.0152H40.3476H35.2276V42.02H40.3476ZM40.3476 39.0152H45.4676C45.4676 41.5135 43.4418 43.5352 40.9476 43.5352V38.4152V33.2952C37.7909 33.2952 35.2276 35.8537 35.2276 39.0152H40.3476ZM40.9476 38.4152V43.5352C38.4533 43.5352 36.4276 41.5135 36.4276 39.0152H41.5476H46.6676C46.6676 35.8537 44.1042 33.2952 40.9476 33.2952V38.4152ZM41.5476 39.0152H36.4276V42.02H41.5476H46.6676V39.0152H41.5476ZM41.5476 42.02V47.14H44.5524V42.02V36.9H41.5476V42.02ZM44.5524 42.02V47.14C42.0581 47.14 40.0324 45.1183 40.0324 42.62H45.1524H50.2724C50.2724 39.4585 47.709 36.9 44.5524 36.9V42.02Z" fill="#FF5A03" mask="url(#path-9-inside-1_2115_11318)"/>
</g>
</g>
<defs>
<filter id="filter0_i_2115_11318" x="0" y="-5" width="64" height="69" filterUnits="userSpaceOnUse" color-interpolation-filters="sRGB">
<feFlood flood-opacity="0" result="BackgroundImageFix"/>
<feBlend mode="normal" in="SourceGraphic" in2="BackgroundImageFix" result="shape"/>
<feColorMatrix in="SourceAlpha" type="matrix" values="0 0 0 0 0 0 0 0 0 0 0 0 0 0 0 0 0 0 127 0" result="hardAlpha"/>
<feOffset dy="-5"/>
<feGaussianBlur stdDeviation="5"/>
<feComposite in2="hardAlpha" operator="arithmetic" k2="-1" k3="1"/>
<feColorMatrix type="matrix" values="0 0 0 0 0.660256 0 0 0 0 0.913257 0 0 0 0 1 0 0 0 0.4 0"/>
<feBlend mode="plus-lighter" in2="shape" result="effect1_innerShadow_2115_11318"/>
</filter>
<clipPath id="clip0_2115_11318">
<rect width="40" height="40" fill="white" transform="translate(12 12)"/>
</clipPath>
</defs>
</svg>
