<svg width="64" height="64" viewBox="0 0 64 64" fill="none" xmlns="http://www.w3.org/2000/svg">
<g filter="url(#filter0_i_2113_11210)">
<rect x="0.775385" y="0.775385" width="62.4492" height="62.4492" rx="31.2246" stroke="#FF5A03" stroke-width="1.55077"/>
<path d="M31.9886 17.2727C23.2698 9.64692 12.184 16.3472 12.0023 25.4305C11.9559 27.7454 12.6242 30.0003 13.9543 32.0791H22.5758L24.1093 29.5232C24.5546 28.7812 25.6322 28.7573 26.1027 29.497L29.3381 34.5813L34.0544 24.6249C34.4657 23.7562 35.6915 23.7286 36.1451 24.571L40.1879 32.0791H50.023C57.3085 20.6925 42.9098 7.72073 31.9886 17.2727Z" fill="#FF5A03"/>
<path d="M38.456 33.8064L35.18 27.7224L30.5474 37.5021C30.1533 38.3342 28.9941 38.4064 28.4999 37.6296L25.1431 32.3548L24.2437 33.8537C24.0319 34.2067 23.6505 34.4226 23.2389 34.4226H15.8076C16.0406 34.6664 14.799 33.4274 31.1618 49.7053C31.6188 50.1601 32.3575 50.1602 32.8146 49.7053C48.9256 33.6778 47.9363 34.6659 48.1687 34.4226H39.4877C39.0566 34.4227 38.6603 34.186 38.456 33.8064Z" fill="#FF5A03"/>
</g>
<defs>
<filter id="filter0_i_2113_11210" x="0" y="-5" width="64" height="69" filterUnits="userSpaceOnUse" color-interpolation-filters="sRGB">
<feFlood flood-opacity="0" result="BackgroundImageFix"/>
<feBlend mode="normal" in="SourceGraphic" in2="BackgroundImageFix" result="shape"/>
<feColorMatrix in="SourceAlpha" type="matrix" values="0 0 0 0 0 0 0 0 0 0 0 0 0 0 0 0 0 0 127 0" result="hardAlpha"/>
<feOffset dy="-5"/>
<feGaussianBlur stdDeviation="5"/>
<feComposite in2="hardAlpha" operator="arithmetic" k2="-1" k3="1"/>
<feColorMatrix type="matrix" values="0 0 0 0 0.660256 0 0 0 0 0.913257 0 0 0 0 1 0 0 0 0.4 0"/>
<feBlend mode="plus-lighter" in2="shape" result="effect1_innerShadow_2113_11210"/>
</filter>
</defs>
</svg>
