<svg width="60" height="60" viewBox="0 0 60 60" fill="none" xmlns="http://www.w3.org/2000/svg">
<g filter="url(#filter0_i_2119_3014)">
<rect x="0.775385" y="0.775385" width="58.4492" height="58.4492" rx="29.2246" stroke="#FF5A03" stroke-width="1.55077"/>
<path d="M31.4861 35.7847C31.2112 33.7371 30.2022 32.0053 28.5271 30.729C27.6972 30.0967 26.7312 29.6044 25.6791 29.2654V31.3706C25.6791 32.0178 25.1544 32.5425 24.5072 32.5425C23.86 32.5425 23.3354 32.0178 23.3354 31.3706V28.7837C22.9466 28.7454 22.5525 28.7241 22.1537 28.7241C21.755 28.7241 21.3608 28.7454 20.9721 28.7837V31.3706C20.9721 32.0178 20.4474 32.5425 19.8002 32.5425C19.153 32.5425 18.6283 32.0178 18.6283 31.3706V29.2654C17.5762 29.6044 16.6102 30.0967 15.7804 30.729C14.1052 32.0053 13.0962 33.7371 12.8213 35.7847H31.4861Z" fill="#FF5A03"/>
<path d="M45.8208 35.7847L46.0839 33.4214H33.5244L33.7875 35.7847H45.8208Z" fill="#FF5A03"/>
<path d="M46.3456 31.0776L46.6088 28.7144H33.001L33.2642 31.0776H46.3456Z" fill="#FF5A03"/>
<path d="M46.8695 26.3706L47.1327 24.0073H48.0469C48.6941 24.0073 49.2188 23.4826 49.2188 22.8354C49.2188 22.1883 48.6941 21.6636 48.0469 21.6636H31.5625C30.9153 21.6636 30.3906 22.1883 30.3906 22.8354C30.3906 23.4826 30.9153 24.0073 31.5625 24.0073H32.4767L32.7398 26.3706H46.8695Z" fill="#FF5A03"/>
<path d="M46.1484 19.3101L45.6337 17.7592C45.4746 17.2799 45.0264 16.9565 44.5215 16.9565H35.0879C34.583 16.9565 34.1348 17.28 33.9757 17.7592L33.4609 19.3101H46.1484Z" fill="#FF5A03"/>
<path d="M11.172 38.1284C10.2661 38.1284 9.70704 39.11 10.1611 39.8939C11.1787 41.6509 13.0795 42.8354 15.252 42.8354H44.7481C46.9205 42.8354 48.8213 41.6509 49.8389 39.8939C50.2929 39.11 49.7338 38.1284 48.828 38.1284H11.172Z" fill="#FF5A03"/>
</g>
<defs>
<filter id="filter0_i_2119_3014" x="0" y="-5" width="60" height="65" filterUnits="userSpaceOnUse" color-interpolation-filters="sRGB">
<feFlood flood-opacity="0" result="BackgroundImageFix"/>
<feBlend mode="normal" in="SourceGraphic" in2="BackgroundImageFix" result="shape"/>
<feColorMatrix in="SourceAlpha" type="matrix" values="0 0 0 0 0 0 0 0 0 0 0 0 0 0 0 0 0 0 127 0" result="hardAlpha"/>
<feOffset dy="-5"/>
<feGaussianBlur stdDeviation="5"/>
<feComposite in2="hardAlpha" operator="arithmetic" k2="-1" k3="1"/>
<feColorMatrix type="matrix" values="0 0 0 0 0.660256 0 0 0 0 0.913257 0 0 0 0 1 0 0 0 0.4 0"/>
<feBlend mode="plus-lighter" in2="shape" result="effect1_innerShadow_2119_3014"/>
</filter>
</defs>
</svg>
