<svg width="60" height="60" viewBox="0 0 60 60" fill="none" xmlns="http://www.w3.org/2000/svg">
<g filter="url(#filter0_i_2119_3034)">
<rect x="0.775385" y="0.775385" width="58.4492" height="58.4492" rx="29.2246" stroke="#FF5A03" stroke-width="1.55077"/>
<g clip-path="url(#clip0_2119_3034)">
<path d="M48.1516 10.9333H11.8496C11.3825 10.9333 11.0039 11.3119 11.0039 11.7791V29.9795C11.0039 30.4466 11.3825 30.8253 11.8496 30.8253H48.1516C48.6188 30.8253 48.9973 30.4467 48.9973 29.9796V11.779C48.9973 11.3119 48.6188 10.9333 48.1516 10.9333ZM47.3059 24.4498C44.8973 24.8166 42.9887 26.7252 42.6219 29.1338H17.3794C17.0126 26.7252 15.104 24.8166 12.6953 24.4498V17.3087C15.104 16.9419 17.0125 15.0333 17.3794 12.6247H42.622C42.9888 15.0333 44.8973 16.9419 47.306 17.3087V24.4498H47.3059Z" fill="#FF5A03"/>
<path d="M29.999 15.5034C27.0347 15.5034 24.623 17.9151 24.623 20.8794C24.623 23.8437 27.0347 26.2553 29.999 26.2553C32.9633 26.2553 35.3749 23.8437 35.3749 20.8794C35.3749 17.915 32.9633 15.5034 29.999 15.5034Z" fill="#FF5A03"/>
<path d="M21.0365 20.0337H18.0059C17.5387 20.0337 17.1602 20.4123 17.1602 20.8794C17.1602 21.3465 17.5387 21.7251 18.0059 21.7251H21.0365C21.5036 21.7251 21.8822 21.3465 21.8822 20.8794C21.8822 20.4123 21.5036 20.0337 21.0365 20.0337Z" fill="#FF5A03"/>
<path d="M41.9925 20.0334H38.9619C38.4948 20.0334 38.1162 20.412 38.1162 20.8792C38.1162 21.3463 38.4948 21.7249 38.9619 21.7249H41.9925C42.4596 21.7249 42.8382 21.3463 42.8382 20.8792C42.8382 20.412 42.4596 20.0334 41.9925 20.0334Z" fill="#FF5A03"/>
<path d="M49.8671 37.2969C49.5238 36.2564 48.5945 35.5633 47.4993 35.5312C44.94 35.4546 41.9069 36.3748 38.4795 38.2605C37.5872 38.7514 36.7088 39.0975 35.8896 39.3369C36.3271 38.8091 36.6532 38.1563 36.8562 37.3875C37.0958 36.4795 36.9052 35.5329 36.3332 34.7903C35.7636 34.0509 34.9014 33.6267 33.9676 33.6267H25.2935C23.8864 33.6267 22.619 34.0944 21.3934 34.5467L21.1649 34.6309C17.3859 36.0191 13.2014 38.0291 11.4146 38.8874C11.0025 39.0853 10.6133 39.2724 10.5312 39.3053C10.2912 39.4016 10.1081 39.6028 10.0348 39.8508C9.96152 40.0987 10.0052 40.3667 10.1543 40.578L15.8901 48.7084C16.0541 48.9409 16.3153 49.0667 16.5818 49.0667C16.7318 49.0667 16.8835 49.0268 17.0203 48.9435C21.5066 46.2166 22.6647 46.5682 24.7666 47.2066C25.7546 47.5065 26.9843 47.8798 28.7504 48.0123C32.407 48.2869 36.0072 47.4224 38.1582 46.906C38.4728 46.8305 38.7578 46.762 39.0092 46.7053C39.8022 46.5264 40.5593 46.168 41.2 45.6684L48.9803 40.1505C48.9918 40.1425 49.003 40.1341 49.0139 40.1255C49.8755 39.4478 50.2103 38.3376 49.8671 37.2969Z" fill="#FF5A03"/>
</g>
</g>
<defs>
<filter id="filter0_i_2119_3034" x="0" y="-5" width="60" height="65" filterUnits="userSpaceOnUse" color-interpolation-filters="sRGB">
<feFlood flood-opacity="0" result="BackgroundImageFix"/>
<feBlend mode="normal" in="SourceGraphic" in2="BackgroundImageFix" result="shape"/>
<feColorMatrix in="SourceAlpha" type="matrix" values="0 0 0 0 0 0 0 0 0 0 0 0 0 0 0 0 0 0 127 0" result="hardAlpha"/>
<feOffset dy="-5"/>
<feGaussianBlur stdDeviation="5"/>
<feComposite in2="hardAlpha" operator="arithmetic" k2="-1" k3="1"/>
<feColorMatrix type="matrix" values="0 0 0 0 0.660256 0 0 0 0 0.913257 0 0 0 0 1 0 0 0 0.4 0"/>
<feBlend mode="plus-lighter" in2="shape" result="effect1_innerShadow_2119_3034"/>
</filter>
<clipPath id="clip0_2119_3034">
<rect width="40" height="40" fill="white" transform="translate(10 10)"/>
</clipPath>
</defs>
</svg>
