<svg xmlns="http://www.w3.org/2000/svg" viewBox="0 0 240 240" width="240" height="240" preserveAspectRatio="xMidYMid slice">
<defs><filter id="grain-av502"><feTurbulence type="fractalNoise" baseFrequency="0.9" numOctaves="3" stitchTiles="stitch"/><feColorMatrix type="saturate" values="0"/></filter><clipPath id="cav502"><circle cx="120" cy="120" r="120"/></clipPath></defs>
<g clip-path="url(#cav502)"><rect width="240" height="240" fill="#E7E3DA"/><path d="M 30 240 Q 120 148.8 210 240 Z" fill="#C27B66"/><path d="M 30 240 Q 120 168 210 240" fill="none" stroke="#A8624E" stroke-width="3" opacity="0.5"/><rect x="104" y="134.4" width="32" height="40" rx="14" fill="#D8A87E"/><circle cx="120" cy="110.4" r="52.8" fill="#D8A87E"/><path d="M 64 120 Q 60 38.4 120 38.4 Q 180 38.4 176 120 Q 160 72 120 72 Q 80 72 64 120 Z" fill="#2D2620"/><path d="M 177.6 100.8 Q 194.9 95.74 196.88 77.82 Q 179.58 82.88 177.6 100.8 Z" fill="#8C9A84"/><path d="M 177.6 100.8 L 196.88 77.82" stroke="#222C25" stroke-width="1" fill="none" stroke-linecap="round" opacity="0.5"/><path d="M 177.6 100.8 Q 191.97 107.41 203.21 96.29 Q 188.84 89.68 177.6 100.8 Z" fill="#A7B29F"/><path d="M 177.6 100.8 L 203.21 96.29" stroke="#222C25" stroke-width="1" fill="none" stroke-linecap="round" opacity="0.5"/><rect width="240" height="240" filter="url(#grain-av502)" opacity="0.05"/></g><circle cx="120" cy="120" r="119" fill="none" stroke="#E6E2DA" stroke-width="2"/>
</svg>
