<svg xmlns="http://www.w3.org/2000/svg" viewBox="0 0 800 1000" width="800" height="1000" preserveAspectRatio="xMidYMid slice">
<defs>
		<filter id="grain-feat303"><feTurbulence type="fractalNoise" baseFrequency="0.9" numOctaves="3" stitchTiles="stitch"/><feColorMatrix type="saturate" values="0"/></filter>
		<linearGradient id="bgfeat303" x1="0" y1="0" x2="0.3" y2="1">
			<stop offset="0" stop-color="#E4E8DD"/>
			<stop offset="1" stop-color="#E8DFD4"/>
		</linearGradient>
	</defs>
<rect width="800" height="1000" fill="url(#bgfeat303)"/><line x1="650.63" y1="240" x2="754.13" y2="240" stroke="#D8C9A8" stroke-width="1.4" opacity="0.27999999999999997" stroke-linecap="round"/><line x1="643.85" y1="278.48" x2="741.1" y2="313.88" stroke="#D8C9A8" stroke-width="1.4" opacity="0.27999999999999997" stroke-linecap="round"/><line x1="624.31" y1="312.31" x2="703.6" y2="378.84" stroke="#D8C9A8" stroke-width="1.4" opacity="0.27999999999999997" stroke-linecap="round"/><line x1="594.38" y1="337.43" x2="646.13" y2="427.06" stroke="#D8C9A8" stroke-width="1.4" opacity="0.27999999999999997" stroke-linecap="round"/><line x1="557.67" y1="350.79" x2="575.64" y2="452.72" stroke="#D8C9A8" stroke-width="1.4" opacity="0.27999999999999997" stroke-linecap="round"/><line x1="518.59" y1="350.79" x2="500.62" y2="452.72" stroke="#D8C9A8" stroke-width="1.4" opacity="0.27999999999999997" stroke-linecap="round"/><line x1="481.88" y1="337.43" x2="430.13" y2="427.06" stroke="#D8C9A8" stroke-width="1.4" opacity="0.27999999999999997" stroke-linecap="round"/><line x1="451.95" y1="312.31" x2="372.66" y2="378.84" stroke="#D8C9A8" stroke-width="1.4" opacity="0.27999999999999997" stroke-linecap="round"/><line x1="432.41" y1="278.48" x2="335.16" y2="313.88" stroke="#D8C9A8" stroke-width="1.4" opacity="0.27999999999999997" stroke-linecap="round"/><line x1="425.63" y1="240" x2="322.13" y2="240" stroke="#D8C9A8" stroke-width="1.4" opacity="0.27999999999999997" stroke-linecap="round"/><line x1="432.41" y1="201.52" x2="335.16" y2="166.12" stroke="#D8C9A8" stroke-width="1.4" opacity="0.27999999999999997" stroke-linecap="round"/><line x1="451.95" y1="167.69" x2="372.66" y2="101.16" stroke="#D8C9A8" stroke-width="1.4" opacity="0.27999999999999997" stroke-linecap="round"/><line x1="481.88" y1="142.57" x2="430.13" y2="52.94" stroke="#D8C9A8" stroke-width="1.4" opacity="0.27999999999999997" stroke-linecap="round"/><line x1="518.59" y1="129.21" x2="500.62" y2="27.28" stroke="#D8C9A8" stroke-width="1.4" opacity="0.27999999999999997" stroke-linecap="round"/><line x1="557.67" y1="129.21" x2="575.64" y2="27.28" stroke="#D8C9A8" stroke-width="1.4" opacity="0.27999999999999997" stroke-linecap="round"/><line x1="594.38" y1="142.57" x2="646.13" y2="52.94" stroke="#D8C9A8" stroke-width="1.4" opacity="0.27999999999999997" stroke-linecap="round"/><line x1="624.31" y1="167.69" x2="703.6" y2="101.16" stroke="#D8C9A8" stroke-width="1.4" opacity="0.27999999999999997" stroke-linecap="round"/><line x1="643.85" y1="201.52" x2="741.1" y2="166.12" stroke="#D8C9A8" stroke-width="1.4" opacity="0.27999999999999997" stroke-linecap="round"/><circle cx="538.1301759183407" cy="240" r="90" fill="#D8C9A8" opacity="0.4"/><path d="M -20 870 Q 400 780 820 870 L 820 1020 L -20 1020 Z" fill="#5C6B4E" opacity="0.9"/><path d="M 642.89 222.94 Q 648.03 122.28 556.31 80.49 Q 551.16 181.15 642.89 222.94 Z" fill="#6E7C66"/><path d="M 642.89 222.94 L 556.31 80.49" stroke="#222C25" stroke-width="1.4" fill="none" stroke-linecap="round" opacity="0.5"/><path d="M 255.27 230.96 Q 286.41 168.12 239.43 116.06 Q 208.28 178.89 255.27 230.96 Z" fill="#6E7C66"/><path d="M 255.27 230.96 L 239.43 116.06" stroke="#222C25" stroke-width="1.4" fill="none" stroke-linecap="round" opacity="0.5"/><path d="M 395.78 446.47 Q 352.06 357.35 253.11 365.26 Q 296.83 454.37 395.78 446.47 Z" fill="#5C6B4E"/><path d="M 395.78 446.47 L 253.11 365.26" stroke="#222C25" stroke-width="1.4" fill="none" stroke-linecap="round" opacity="0.5"/><path d="M 12.85 361.7 Q 56.25 264.14 -18.52 187.92 Q -61.92 285.48 12.85 361.7 Z" fill="#6E7C66"/><path d="M 12.85 361.7 L -18.52 187.92" stroke="#222C25" stroke-width="1.4" fill="none" stroke-linecap="round" opacity="0.5"/><path d="M 582.51 290.72 Q 539.8 156.38 399.17 146.71 Q 441.88 281.06 582.51 290.72 Z" fill="#6E7C66"/><path d="M 582.51 290.72 L 399.17 146.71" stroke="#222C25" stroke-width="1.4" fill="none" stroke-linecap="round" opacity="0.5"/><path d="M 599.29 326.37 Q 545.86 301.88 503.44 342.57 Q 556.87 367.06 599.29 326.37 Z" fill="#6E7C66"/><path d="M 599.29 326.37 L 503.44 342.57" stroke="#222C25" stroke-width="1.4" fill="none" stroke-linecap="round" opacity="0.5"/><path d="M 569.87 491.17 Q 698.44 425.43 684.57 281.7 Q 556 347.44 569.87 491.17 Z" fill="#6E7C66"/><path d="M 569.87 491.17 L 684.57 281.7" stroke="#222C25" stroke-width="1.4" fill="none" stroke-linecap="round" opacity="0.5"/><path d="M 194.88 321.3 Q 315.06 392.33 425.3 306.67 Q 305.12 235.64 194.88 321.3 Z" fill="#8C9A84"/><path d="M 194.88 321.3 L 425.3 306.67" stroke="#222C25" stroke-width="1.4" fill="none" stroke-linecap="round" opacity="0.5"/><path d="M 47.85 99.54 Q 177.07 134.97 257.52 27.82 Q 128.3 -7.61 47.85 99.54 Z" fill="#6E7C66"/><path d="M 47.85 99.54 L 257.52 27.82" stroke="#222C25" stroke-width="1.4" fill="none" stroke-linecap="round" opacity="0.5"/><path d="M 745.26 547.91 Q 627.83 468.8 511.09 548.93 Q 628.52 628.04 745.26 547.91 Z" fill="#6E7C66"/><path d="M 745.26 547.91 L 511.09 548.93" stroke="#222C25" stroke-width="1.4" fill="none" stroke-linecap="round" opacity="0.5"/><path d="M 298.5 426.42 Q 395.74 356.44 366.4 240.28 Q 269.16 310.26 298.5 426.42 Z" fill="#6E7C66"/><path d="M 298.5 426.42 L 366.4 240.28" stroke="#222C25" stroke-width="1.4" fill="none" stroke-linecap="round" opacity="0.5"/><path d="M 728.13 389.91 Q 813.36 497.63 944.86 457.98 Q 859.64 350.26 728.13 389.91 Z" fill="#8C9A84"/><path d="M 728.13 389.91 L 944.86 457.98" stroke="#222C25" stroke-width="1.4" fill="none" stroke-linecap="round" opacity="0.5"/><path d="M 513.71 589.07 Q 481.18 489.81 376.92 483.57 Q 409.44 582.83 513.71 589.07 Z" fill="#5C6B4E"/><path d="M 513.71 589.07 L 376.92 483.57" stroke="#222C25" stroke-width="1.4" fill="none" stroke-linecap="round" opacity="0.5"/><path d="M 279.81 510.84 Q 381.32 566.64 470.53 492.76 Q 369.02 436.96 279.81 510.84 Z" fill="#8C9A84"/><path d="M 279.81 510.84 L 470.53 492.76" stroke="#222C25" stroke-width="1.4" fill="none" stroke-linecap="round" opacity="0.5"/><path d="M 768.78 365.05 Q 765.48 302.44 706.04 282.49 Q 709.34 345.1 768.78 365.05 Z" fill="#8C9A84"/><path d="M 768.78 365.05 L 706.04 282.49" stroke="#222C25" stroke-width="1.4" fill="none" stroke-linecap="round" opacity="0.5"/><path d="M 479.81 -15.16 Q 570.33 68.94 681.82 15.68 Q 591.3 -68.42 479.81 -15.16 Z" fill="#6E7C66"/><path d="M 479.81 -15.16 L 681.82 15.68" stroke="#222C25" stroke-width="1.4" fill="none" stroke-linecap="round" opacity="0.5"/><path d="M 320.68 503.27 Q 399.24 506.35 430.99 434.43 Q 352.43 431.34 320.68 503.27 Z" fill="#5C6B4E"/><path d="M 320.68 503.27 L 430.99 434.43" stroke="#222C25" stroke-width="1.4" fill="none" stroke-linecap="round" opacity="0.5"/><path d="M 781.45 297.39 Q 756.1 241.45 694.75 244.46 Q 720.1 300.4 781.45 297.39 Z" fill="#5C6B4E"/><path d="M 781.45 297.39 L 694.75 244.46" stroke="#222C25" stroke-width="1.4" fill="none" stroke-linecap="round" opacity="0.5"/><path d="M 412.2 670.51 Q 316.26 640.15 252.76 718.2 Q 348.69 748.56 412.2 670.51 Z" fill="#6E7C66"/><path d="M 412.2 670.51 L 252.76 718.2" stroke="#222C25" stroke-width="1.4" fill="none" stroke-linecap="round" opacity="0.5"/><path d="M 185.13 35.57 Q 157.91 -39.3 78.26 -41.51 Q 105.49 33.37 185.13 35.57 Z" fill="#6E7C66"/><path d="M 185.13 35.57 L 78.26 -41.51" stroke="#222C25" stroke-width="1.4" fill="none" stroke-linecap="round" opacity="0.5"/><path d="M 603.39 404.46 Q 611.77 319.21 535.58 280.07 Q 527.19 365.32 603.39 404.46 Z" fill="#6E7C66"/><path d="M 603.39 404.46 L 535.58 280.07" stroke="#222C25" stroke-width="1.4" fill="none" stroke-linecap="round" opacity="0.5"/><path d="M 288.17 220.06 Q 285.16 142.66 212.08 117 Q 215.08 194.4 288.17 220.06 Z" fill="#6E7C66"/><path d="M 288.17 220.06 L 212.08 117" stroke="#222C25" stroke-width="1.4" fill="none" stroke-linecap="round" opacity="0.5"/><path d="M 320 870 Q 359 672 380 510" stroke="#5C6B4E" stroke-width="3" fill="none" stroke-linecap="round"/><path d="M 330.78 814.16 Q 339.24 781.72 313.32 760.45 Q 304.86 792.89 330.78 814.16 Z" fill="#8C9A84"/><path d="M 330.78 814.16 L 313.32 760.45" stroke="#222C25" stroke-width="1" fill="none" stroke-linecap="round" opacity="0.5"/><path d="M 330.78 814.16 Q 363.93 819.19 382.37 791.19 Q 349.22 786.17 330.78 814.16 Z" fill="#8C9A84"/><path d="M 330.78 814.16 L 382.37 791.19" stroke="#222C25" stroke-width="1" fill="none" stroke-linecap="round" opacity="0.5"/><path d="M 340.82 759.8 Q 348.47 730.44 325.02 711.19 Q 317.36 740.54 340.82 759.8 Z" fill="#8C9A84"/><path d="M 340.82 759.8 L 325.02 711.19" stroke="#222C25" stroke-width="1" fill="none" stroke-linecap="round" opacity="0.5"/><path d="M 340.82 759.8 Q 370.82 764.34 387.51 739.01 Q 357.51 734.46 340.82 759.8 Z" fill="#8C9A84"/><path d="M 340.82 759.8 L 387.51 739.01" stroke="#222C25" stroke-width="1" fill="none" stroke-linecap="round" opacity="0.5"/><path d="M 350.12 706.9 Q 356.95 680.72 336.04 663.55 Q 329.21 689.73 350.12 706.9 Z" fill="#8C9A84"/><path d="M 350.12 706.9 L 336.04 663.55" stroke="#222C25" stroke-width="1" fill="none" stroke-linecap="round" opacity="0.5"/><path d="M 350.12 706.9 Q 376.87 710.95 391.76 688.36 Q 365.01 684.3 350.12 706.9 Z" fill="#8C9A84"/><path d="M 350.12 706.9 L 391.76 688.36" stroke="#222C25" stroke-width="1" fill="none" stroke-linecap="round" opacity="0.5"/><path d="M 358.69 655.47 Q 364.22 634.29 347.3 620.41 Q 341.78 641.58 358.69 655.47 Z" fill="#8C9A84"/><path d="M 358.69 655.47 L 347.3 620.41" stroke="#222C25" stroke-width="1" fill="none" stroke-linecap="round" opacity="0.5"/><path d="M 358.69 655.47 Q 380.33 658.75 392.37 640.47 Q 370.73 637.19 358.69 655.47 Z" fill="#8C9A84"/><path d="M 358.69 655.47 L 392.37 640.47" stroke="#222C25" stroke-width="1" fill="none" stroke-linecap="round" opacity="0.5"/><path d="M 366.53 605.51 Q 372.97 580.81 353.24 564.62 Q 346.8 589.32 366.53 605.51 Z" fill="#8C9A84"/><path d="M 366.53 605.51 L 353.24 564.62" stroke="#222C25" stroke-width="1" fill="none" stroke-linecap="round" opacity="0.5"/><path d="M 366.53 605.51 Q 391.77 609.34 405.81 588.02 Q 380.57 584.2 366.53 605.51 Z" fill="#8C9A84"/><path d="M 366.53 605.51 L 405.81 588.02" stroke="#222C25" stroke-width="1" fill="none" stroke-linecap="round" opacity="0.5"/><path d="M 373.63 557.02 Q 378.09 539.93 364.44 528.72 Q 359.98 545.81 373.63 557.02 Z" fill="#8C9A84"/><path d="M 373.63 557.02 L 364.44 528.72" stroke="#222C25" stroke-width="1" fill="none" stroke-linecap="round" opacity="0.5"/><path d="M 373.63 557.02 Q 391.1 559.67 400.82 544.92 Q 383.35 542.27 373.63 557.02 Z" fill="#8C9A84"/><path d="M 373.63 557.02 L 400.82 544.92" stroke="#222C25" stroke-width="1" fill="none" stroke-linecap="round" opacity="0.5"/><path d="M 380 510 Q 399.23 497.11 395.94 474.19 Q 376.72 487.08 380 510 Z" fill="#8C9A84"/><path d="M 380 510 L 395.94 474.19" stroke="#222C25" stroke-width="1" fill="none" stroke-linecap="round" opacity="0.5"/><rect width="800" height="1000" filter="url(#grain-feat303)" opacity="0.045"/>
</svg>
