<svg xmlns="http://www.w3.org/2000/svg" viewBox="0 0 800 1000" width="800" height="1000" preserveAspectRatio="xMidYMid slice">
<defs>
		<filter id="grain-feat202"><feTurbulence type="fractalNoise" baseFrequency="0.9" numOctaves="3" stitchTiles="stitch"/><feColorMatrix type="saturate" values="0"/></filter>
		<linearGradient id="bgfeat202" x1="0" y1="0" x2="0.3" y2="1">
			<stop offset="0" stop-color="#EAECE3"/>
			<stop offset="1" stop-color="#F2F0EB"/>
		</linearGradient>
	</defs>
<rect width="800" height="1000" fill="url(#bgfeat202)"/><line x1="393.7" y1="240" x2="497.2" y2="240" stroke="#D8C9A8" stroke-width="1.4" opacity="0.27999999999999997" stroke-linecap="round"/><line x1="386.91" y1="278.48" x2="484.17" y2="313.88" stroke="#D8C9A8" stroke-width="1.4" opacity="0.27999999999999997" stroke-linecap="round"/><line x1="367.38" y1="312.31" x2="446.66" y2="378.84" stroke="#D8C9A8" stroke-width="1.4" opacity="0.27999999999999997" stroke-linecap="round"/><line x1="337.45" y1="337.43" x2="389.2" y2="427.06" stroke="#D8C9A8" stroke-width="1.4" opacity="0.27999999999999997" stroke-linecap="round"/><line x1="300.73" y1="350.79" x2="318.71" y2="452.72" stroke="#D8C9A8" stroke-width="1.4" opacity="0.27999999999999997" stroke-linecap="round"/><line x1="261.66" y1="350.79" x2="243.69" y2="452.72" stroke="#D8C9A8" stroke-width="1.4" opacity="0.27999999999999997" stroke-linecap="round"/><line x1="224.95" y1="337.43" x2="173.2" y2="427.06" stroke="#D8C9A8" stroke-width="1.4" opacity="0.27999999999999997" stroke-linecap="round"/><line x1="195.02" y1="312.31" x2="115.73" y2="378.84" stroke="#D8C9A8" stroke-width="1.4" opacity="0.27999999999999997" stroke-linecap="round"/><line x1="175.48" y1="278.48" x2="78.22" y2="313.88" stroke="#D8C9A8" stroke-width="1.4" opacity="0.27999999999999997" stroke-linecap="round"/><line x1="168.7" y1="240" x2="65.2" y2="240" stroke="#D8C9A8" stroke-width="1.4" opacity="0.27999999999999997" stroke-linecap="round"/><line x1="175.48" y1="201.52" x2="78.22" y2="166.12" stroke="#D8C9A8" stroke-width="1.4" opacity="0.27999999999999997" stroke-linecap="round"/><line x1="195.02" y1="167.69" x2="115.73" y2="101.16" stroke="#D8C9A8" stroke-width="1.4" opacity="0.27999999999999997" stroke-linecap="round"/><line x1="224.95" y1="142.57" x2="173.2" y2="52.94" stroke="#D8C9A8" stroke-width="1.4" opacity="0.27999999999999997" stroke-linecap="round"/><line x1="261.66" y1="129.21" x2="243.69" y2="27.28" stroke="#D8C9A8" stroke-width="1.4" opacity="0.27999999999999997" stroke-linecap="round"/><line x1="300.73" y1="129.21" x2="318.71" y2="27.28" stroke="#D8C9A8" stroke-width="1.4" opacity="0.27999999999999997" stroke-linecap="round"/><line x1="337.45" y1="142.57" x2="389.2" y2="52.94" stroke="#D8C9A8" stroke-width="1.4" opacity="0.27999999999999997" stroke-linecap="round"/><line x1="367.38" y1="167.69" x2="446.66" y2="101.16" stroke="#D8C9A8" stroke-width="1.4" opacity="0.27999999999999997" stroke-linecap="round"/><line x1="386.91" y1="201.52" x2="484.17" y2="166.12" stroke="#D8C9A8" stroke-width="1.4" opacity="0.27999999999999997" stroke-linecap="round"/><circle cx="281.1973927915096" cy="240" r="90" fill="#D8C9A8" opacity="0.4"/><path d="M -20 870 Q 400 780 820 870 L 820 1020 L -20 1020 Z" fill="#8C9A84" opacity="0.9"/><path d="M 73.9 870 Q 91.69 704.98 73.28 569.97" stroke="#5C6B4E" stroke-width="3" fill="none" stroke-linecap="round"/><path d="M 78.24 823.46 Q 74.39 800.72 52.11 794.69 Q 55.97 817.44 78.24 823.46 Z" fill="#6E7C66"/><path d="M 78.24 823.46 L 52.11 794.69" stroke="#222C25" stroke-width="1" fill="none" stroke-linecap="round" opacity="0.5"/><path d="M 78.24 823.46 Q 100.46 817.25 104.12 794.47 Q 81.91 800.69 78.24 823.46 Z" fill="#6E7C66"/><path d="M 78.24 823.46 L 104.12 794.47" stroke="#222C25" stroke-width="1" fill="none" stroke-linecap="round" opacity="0.5"/><path d="M 81.11 778.15 Q 77.65 757.77 57.7 752.38 Q 61.16 772.76 81.11 778.15 Z" fill="#6E7C66"/><path d="M 81.11 778.15 L 57.7 752.38" stroke="#222C25" stroke-width="1" fill="none" stroke-linecap="round" opacity="0.5"/><path d="M 81.11 778.15 Q 101.02 772.58 104.3 752.18 Q 84.39 757.74 81.11 778.15 Z" fill="#6E7C66"/><path d="M 81.11 778.15 L 104.3 752.18" stroke="#222C25" stroke-width="1" fill="none" stroke-linecap="round" opacity="0.5"/><path d="M 82.5 734.07 Q 79.38 715.7 61.41 710.84 Q 64.52 729.2 82.5 734.07 Z" fill="#6E7C66"/><path d="M 82.5 734.07 L 61.41 710.84" stroke="#222C25" stroke-width="1" fill="none" stroke-linecap="round" opacity="0.5"/><path d="M 82.5 734.07 Q 100.43 729.05 103.39 710.66 Q 85.45 715.68 82.5 734.07 Z" fill="#6E7C66"/><path d="M 82.5 734.07 L 103.39 710.66" stroke="#222C25" stroke-width="1" fill="none" stroke-linecap="round" opacity="0.5"/><path d="M 82.41 691.2 Q 79.7 675.21 64.04 670.97 Q 66.75 686.97 82.41 691.2 Z" fill="#6E7C66"/><path d="M 82.41 691.2 L 64.04 670.97" stroke="#222C25" stroke-width="1" fill="none" stroke-linecap="round" opacity="0.5"/><path d="M 82.41 691.2 Q 98.03 686.83 100.61 670.82 Q 84.99 675.19 82.41 691.2 Z" fill="#6E7C66"/><path d="M 82.41 691.2 L 100.61 670.82" stroke="#222C25" stroke-width="1" fill="none" stroke-linecap="round" opacity="0.5"/><path d="M 80.84 649.57 Q 78.29 634.5 63.54 630.51 Q 66.1 645.58 80.84 649.57 Z" fill="#6E7C66"/><path d="M 80.84 649.57 L 63.54 630.51" stroke="#222C25" stroke-width="1" fill="none" stroke-linecap="round" opacity="0.5"/><path d="M 80.84 649.57 Q 95.56 645.45 97.98 630.37 Q 83.27 634.48 80.84 649.57 Z" fill="#6E7C66"/><path d="M 80.84 649.57 L 97.98 630.37" stroke="#222C25" stroke-width="1" fill="none" stroke-linecap="round" opacity="0.5"/><path d="M 77.8 609.15 Q 75.13 593.41 59.71 589.24 Q 62.38 604.98 77.8 609.15 Z" fill="#6E7C66"/><path d="M 77.8 609.15 L 59.71 589.24" stroke="#222C25" stroke-width="1" fill="none" stroke-linecap="round" opacity="0.5"/><path d="M 77.8 609.15 Q 93.18 604.85 95.72 589.08 Q 80.34 593.38 77.8 609.15 Z" fill="#6E7C66"/><path d="M 77.8 609.15 L 95.72 589.08" stroke="#222C25" stroke-width="1" fill="none" stroke-linecap="round" opacity="0.5"/><path d="M 73.28 569.97 Q 82.39 555.33 73.16 540.78 Q 64.05 555.41 73.28 569.97 Z" fill="#6E7C66"/><path d="M 73.28 569.97 L 73.16 540.78" stroke="#222C25" stroke-width="1" fill="none" stroke-linecap="round" opacity="0.5"/><path d="M 148.53 870 Q 120.82 622.02 120.78 419.12" stroke="#5C6B4E" stroke-width="3" fill="none" stroke-linecap="round"/><path d="M 142.04 808.71 Q 163.08 798.22 162.38 774.72 Q 141.33 785.21 142.04 808.71 Z" fill="#5C6B4E"/><path d="M 142.04 808.71 L 162.38 774.72" stroke="#222C25" stroke-width="1" fill="none" stroke-linecap="round" opacity="0.5"/><path d="M 142.04 808.71 Q 133.81 786.68 110.36 784.93 Q 118.59 806.95 142.04 808.71 Z" fill="#5C6B4E"/><path d="M 142.04 808.71 L 110.36 784.93" stroke="#222C25" stroke-width="1" fill="none" stroke-linecap="round" opacity="0.5"/><path d="M 136.41 748.83 Q 153.07 740.52 152.51 721.91 Q 135.85 730.21 136.41 748.83 Z" fill="#5C6B4E"/><path d="M 136.41 748.83 L 152.51 721.91" stroke="#222C25" stroke-width="1" fill="none" stroke-linecap="round" opacity="0.5"/><path d="M 136.41 748.83 Q 129.89 731.38 111.32 729.99 Q 117.84 747.44 136.41 748.83 Z" fill="#5C6B4E"/><path d="M 136.41 748.83 L 111.32 729.99" stroke="#222C25" stroke-width="1" fill="none" stroke-linecap="round" opacity="0.5"/><path d="M 131.64 690.35 Q 146.48 682.96 145.99 666.38 Q 131.14 673.78 131.64 690.35 Z" fill="#5C6B4E"/><path d="M 131.64 690.35 L 145.99 666.38" stroke="#222C25" stroke-width="1" fill="none" stroke-linecap="round" opacity="0.5"/><path d="M 131.64 690.35 Q 125.84 674.82 109.3 673.58 Q 115.1 689.11 131.64 690.35 Z" fill="#5C6B4E"/><path d="M 131.64 690.35 L 109.3 673.58" stroke="#222C25" stroke-width="1" fill="none" stroke-linecap="round" opacity="0.5"/><path d="M 127.74 633.29 Q 144.23 625.07 143.68 606.65 Q 127.19 614.87 127.74 633.29 Z" fill="#5C6B4E"/><path d="M 127.74 633.29 L 143.68 606.65" stroke="#222C25" stroke-width="1" fill="none" stroke-linecap="round" opacity="0.5"/><path d="M 127.74 633.29 Q 121.29 616.02 102.91 614.65 Q 109.36 631.91 127.74 633.29 Z" fill="#5C6B4E"/><path d="M 127.74 633.29 L 102.91 614.65" stroke="#222C25" stroke-width="1" fill="none" stroke-linecap="round" opacity="0.5"/><path d="M 124.7 577.63 Q 137.15 571.43 136.74 557.52 Q 124.28 563.73 124.7 577.63 Z" fill="#5C6B4E"/><path d="M 124.7 577.63 L 136.74 557.52" stroke="#222C25" stroke-width="1" fill="none" stroke-linecap="round" opacity="0.5"/><path d="M 124.7 577.63 Q 119.83 564.6 105.96 563.56 Q 110.83 576.59 124.7 577.63 Z" fill="#5C6B4E"/><path d="M 124.7 577.63 L 105.96 563.56" stroke="#222C25" stroke-width="1" fill="none" stroke-linecap="round" opacity="0.5"/><path d="M 122.53 523.39 Q 135.49 516.93 135.05 502.46 Q 122.1 508.92 122.53 523.39 Z" fill="#5C6B4E"/><path d="M 122.53 523.39 L 135.05 502.46" stroke="#222C25" stroke-width="1" fill="none" stroke-linecap="round" opacity="0.5"/><path d="M 122.53 523.39 Q 117.47 509.83 103.03 508.75 Q 108.1 522.31 122.53 523.39 Z" fill="#5C6B4E"/><path d="M 122.53 523.39 L 103.03 508.75" stroke="#222C25" stroke-width="1" fill="none" stroke-linecap="round" opacity="0.5"/><path d="M 121.22 470.55 Q 132.99 464.69 132.59 451.55 Q 120.83 457.41 121.22 470.55 Z" fill="#5C6B4E"/><path d="M 121.22 470.55 L 132.59 451.55" stroke="#222C25" stroke-width="1" fill="none" stroke-linecap="round" opacity="0.5"/><path d="M 121.22 470.55 Q 116.63 458.24 103.52 457.26 Q 108.12 469.57 121.22 470.55 Z" fill="#5C6B4E"/><path d="M 121.22 470.55 L 103.52 457.26" stroke="#222C25" stroke-width="1" fill="none" stroke-linecap="round" opacity="0.5"/><path d="M 120.78 419.12 Q 126.28 404.82 115.79 393.67 Q 110.29 407.96 120.78 419.12 Z" fill="#5C6B4E"/><path d="M 120.78 419.12 L 115.79 393.67" stroke="#222C25" stroke-width="1" fill="none" stroke-linecap="round" opacity="0.5"/><path d="M 236.57 870 Q 270.73 725.98 282.74 608.14" stroke="#5C6B4E" stroke-width="3" fill="none" stroke-linecap="round"/><path d="M 243.89 838.32 Q 248.92 806.85 222.45 789.09 Q 217.42 820.57 243.89 838.32 Z" fill="#6E7C66"/><path d="M 243.89 838.32 L 222.45 789.09" stroke="#222C25" stroke-width="1" fill="none" stroke-linecap="round" opacity="0.5"/><path d="M 243.89 838.32 Q 275.71 840.03 290.6 811.85 Q 258.78 810.14 243.89 838.32 Z" fill="#6E7C66"/><path d="M 243.89 838.32 L 290.6 811.85" stroke="#222C25" stroke-width="1" fill="none" stroke-linecap="round" opacity="0.5"/><path d="M 250.66 807.28 Q 254.5 783.26 234.29 769.71 Q 230.45 793.73 250.66 807.28 Z" fill="#6E7C66"/><path d="M 250.66 807.28 L 234.29 769.71" stroke="#222C25" stroke-width="1" fill="none" stroke-linecap="round" opacity="0.5"/><path d="M 250.66 807.28 Q 274.95 808.59 286.32 787.08 Q 262.02 785.77 250.66 807.28 Z" fill="#6E7C66"/><path d="M 250.66 807.28 L 286.32 787.08" stroke="#222C25" stroke-width="1" fill="none" stroke-linecap="round" opacity="0.5"/><path d="M 256.88 776.89 Q 260.99 751.17 239.36 736.67 Q 235.25 762.39 256.88 776.89 Z" fill="#6E7C66"/><path d="M 256.88 776.89 L 239.36 736.67" stroke="#222C25" stroke-width="1" fill="none" stroke-linecap="round" opacity="0.5"/><path d="M 256.88 776.89 Q 282.89 778.3 295.06 755.26 Q 269.05 753.86 256.88 776.89 Z" fill="#6E7C66"/><path d="M 256.88 776.89 L 295.06 755.26" stroke="#222C25" stroke-width="1" fill="none" stroke-linecap="round" opacity="0.5"/><path d="M 262.56 747.15 Q 266.12 724.88 247.39 712.32 Q 243.83 734.59 262.56 747.15 Z" fill="#6E7C66"/><path d="M 262.56 747.15 L 247.39 712.32" stroke="#222C25" stroke-width="1" fill="none" stroke-linecap="round" opacity="0.5"/><path d="M 262.56 747.15 Q 285.08 748.37 295.61 728.42 Q 273.09 727.21 262.56 747.15 Z" fill="#6E7C66"/><path d="M 262.56 747.15 L 295.61 728.42" stroke="#222C25" stroke-width="1" fill="none" stroke-linecap="round" opacity="0.5"/><path d="M 267.69 718.06 Q 271.76 692.6 250.35 678.24 Q 246.28 703.7 267.69 718.06 Z" fill="#6E7C66"/><path d="M 267.69 718.06 L 250.35 678.24" stroke="#222C25" stroke-width="1" fill="none" stroke-linecap="round" opacity="0.5"/><path d="M 267.69 718.06 Q 293.43 719.44 305.47 696.65 Q 279.73 695.26 267.69 718.06 Z" fill="#6E7C66"/><path d="M 267.69 718.06 L 305.47 696.65" stroke="#222C25" stroke-width="1" fill="none" stroke-linecap="round" opacity="0.5"/><path d="M 272.27 689.61 Q 275.21 671.21 259.74 660.83 Q 256.79 679.23 272.27 689.61 Z" fill="#6E7C66"/><path d="M 272.27 689.61 L 259.74 660.83" stroke="#222C25" stroke-width="1" fill="none" stroke-linecap="round" opacity="0.5"/><path d="M 272.27 689.61 Q 290.88 690.61 299.58 674.13 Q 280.97 673.13 272.27 689.61 Z" fill="#6E7C66"/><path d="M 272.27 689.61 L 299.58 674.13" stroke="#222C25" stroke-width="1" fill="none" stroke-linecap="round" opacity="0.5"/><path d="M 276.31 661.8 Q 279.21 643.62 263.92 633.36 Q 261.01 651.55 276.31 661.8 Z" fill="#6E7C66"/><path d="M 276.31 661.8 L 263.92 633.36" stroke="#222C25" stroke-width="1" fill="none" stroke-linecap="round" opacity="0.5"/><path d="M 276.31 661.8 Q 294.7 662.8 303.3 646.51 Q 284.91 645.52 276.31 661.8 Z" fill="#6E7C66"/><path d="M 276.31 661.8 L 303.3 646.51" stroke="#222C25" stroke-width="1" fill="none" stroke-linecap="round" opacity="0.5"/><path d="M 279.79 634.65 Q 282.53 617.52 268.13 607.87 Q 265.39 624.99 279.79 634.65 Z" fill="#6E7C66"/><path d="M 279.79 634.65 L 268.13 607.87" stroke="#222C25" stroke-width="1" fill="none" stroke-linecap="round" opacity="0.5"/><path d="M 279.79 634.65 Q 297.11 635.58 305.21 620.25 Q 287.89 619.31 279.79 634.65 Z" fill="#6E7C66"/><path d="M 279.79 634.65 L 305.21 620.25" stroke="#222C25" stroke-width="1" fill="none" stroke-linecap="round" opacity="0.5"/><path d="M 282.74 608.14 Q 298.94 594.83 293.98 574.46 Q 277.77 587.77 282.74 608.14 Z" fill="#6E7C66"/><path d="M 282.74 608.14 L 293.98 574.46" stroke="#222C25" stroke-width="1" fill="none" stroke-linecap="round" opacity="0.5"/><path d="M 328.72 870 Q 316.27 601.03 344.58 380.96" stroke="#5C6B4E" stroke-width="3" fill="none" stroke-linecap="round"/><path d="M 326.46 810.83 Q 350.65 806.99 357.29 783.41 Q 333.1 787.26 326.46 810.83 Z" fill="#6E7C66"/><path d="M 326.46 810.83 L 357.29 783.41" stroke="#222C25" stroke-width="1" fill="none" stroke-linecap="round" opacity="0.5"/><path d="M 326.46 810.83 Q 325.16 786.37 302.41 777.31 Q 303.71 801.77 326.46 810.83 Z" fill="#6E7C66"/><path d="M 326.46 810.83 L 302.41 777.31" stroke="#222C25" stroke-width="1" fill="none" stroke-linecap="round" opacity="0.5"/><path d="M 325.2 752.87 Q 346.8 749.44 352.72 728.39 Q 331.13 731.83 325.2 752.87 Z" fill="#6E7C66"/><path d="M 325.2 752.87 L 352.72 728.39" stroke="#222C25" stroke-width="1" fill="none" stroke-linecap="round" opacity="0.5"/><path d="M 325.2 752.87 Q 324.04 731.04 303.73 722.95 Q 304.89 744.78 325.2 752.87 Z" fill="#6E7C66"/><path d="M 325.2 752.87 L 303.73 722.95" stroke="#222C25" stroke-width="1" fill="none" stroke-linecap="round" opacity="0.5"/><path d="M 324.95 696.12 Q 349.64 692.19 356.42 668.13 Q 331.73 672.06 324.95 696.12 Z" fill="#6E7C66"/><path d="M 324.95 696.12 L 356.42 668.13" stroke="#222C25" stroke-width="1" fill="none" stroke-linecap="round" opacity="0.5"/><path d="M 324.95 696.12 Q 323.63 671.16 300.4 661.9 Q 301.73 686.87 324.95 696.12 Z" fill="#6E7C66"/><path d="M 324.95 696.12 L 300.4 661.9" stroke="#222C25" stroke-width="1" fill="none" stroke-linecap="round" opacity="0.5"/><path d="M 325.71 640.57 Q 348.07 637.02 354.2 615.23 Q 331.84 618.78 325.71 640.57 Z" fill="#6E7C66"/><path d="M 325.71 640.57 L 354.2 615.23" stroke="#222C25" stroke-width="1" fill="none" stroke-linecap="round" opacity="0.5"/><path d="M 325.71 640.57 Q 324.51 617.97 303.48 609.59 Q 304.68 632.19 325.71 640.57 Z" fill="#6E7C66"/><path d="M 325.71 640.57 L 303.48 609.59" stroke="#222C25" stroke-width="1" fill="none" stroke-linecap="round" opacity="0.5"/><path d="M 327.47 586.24 Q 350.89 582.51 357.32 559.69 Q 333.9 563.41 327.47 586.24 Z" fill="#6E7C66"/><path d="M 327.47 586.24 L 357.32 559.69" stroke="#222C25" stroke-width="1" fill="none" stroke-linecap="round" opacity="0.5"/><path d="M 327.47 586.24 Q 326.21 562.56 304.18 553.78 Q 305.44 577.46 327.47 586.24 Z" fill="#6E7C66"/><path d="M 327.47 586.24 L 304.18 553.78" stroke="#222C25" stroke-width="1" fill="none" stroke-linecap="round" opacity="0.5"/><path d="M 330.24 533.11 Q 351.81 529.68 357.73 508.65 Q 336.16 512.08 330.24 533.11 Z" fill="#6E7C66"/><path d="M 330.24 533.11 L 357.73 508.65" stroke="#222C25" stroke-width="1" fill="none" stroke-linecap="round" opacity="0.5"/><path d="M 330.24 533.11 Q 329.08 511.3 308.79 503.21 Q 309.95 525.02 330.24 533.11 Z" fill="#6E7C66"/><path d="M 330.24 533.11 L 308.79 503.21" stroke="#222C25" stroke-width="1" fill="none" stroke-linecap="round" opacity="0.5"/><path d="M 334.01 481.18 Q 350.07 478.63 354.47 462.99 Q 338.42 465.54 334.01 481.18 Z" fill="#6E7C66"/><path d="M 334.01 481.18 L 354.47 462.99" stroke="#222C25" stroke-width="1" fill="none" stroke-linecap="round" opacity="0.5"/><path d="M 334.01 481.18 Q 333.15 464.95 318.06 458.94 Q 318.92 475.17 334.01 481.18 Z" fill="#6E7C66"/><path d="M 334.01 481.18 L 318.06 458.94" stroke="#222C25" stroke-width="1" fill="none" stroke-linecap="round" opacity="0.5"/><path d="M 338.8 430.47 Q 356.97 427.58 361.96 409.87 Q 343.78 412.76 338.8 430.47 Z" fill="#6E7C66"/><path d="M 338.8 430.47 L 361.96 409.87" stroke="#222C25" stroke-width="1" fill="none" stroke-linecap="round" opacity="0.5"/><path d="M 338.8 430.47 Q 337.82 412.09 320.73 405.28 Q 321.7 423.66 338.8 430.47 Z" fill="#6E7C66"/><path d="M 338.8 430.47 L 320.73 405.28" stroke="#222C25" stroke-width="1" fill="none" stroke-linecap="round" opacity="0.5"/><path d="M 344.58 380.96 Q 356.69 365.74 348.22 348.22 Q 336.12 363.45 344.58 380.96 Z" fill="#6E7C66"/><path d="M 344.58 380.96 L 348.22 348.22" stroke="#222C25" stroke-width="1" fill="none" stroke-linecap="round" opacity="0.5"/><path d="M 386.08 870 Q 408.08 577.53 397.5 338.24" stroke="#5C6B4E" stroke-width="3" fill="none" stroke-linecap="round"/><path d="M 391.7 787.52 Q 389.15 757.24 360.58 746.86 Q 363.13 777.15 391.7 787.52 Z" fill="#5C6B4E"/><path d="M 391.7 787.52 L 360.58 746.86" stroke="#222C25" stroke-width="1" fill="none" stroke-linecap="round" opacity="0.5"/><path d="M 391.7 787.52 Q 421.55 781.82 428.88 752.32 Q 399.03 758.03 391.7 787.52 Z" fill="#5C6B4E"/><path d="M 391.7 787.52 L 428.88 752.32" stroke="#222C25" stroke-width="1" fill="none" stroke-linecap="round" opacity="0.5"/><path d="M 395.99 707.22 Q 393.58 678.54 366.52 668.72 Q 368.94 697.4 395.99 707.22 Z" fill="#5C6B4E"/><path d="M 395.99 707.22 L 366.52 668.72" stroke="#222C25" stroke-width="1" fill="none" stroke-linecap="round" opacity="0.5"/><path d="M 395.99 707.22 Q 424.26 701.82 431.2 673.89 Q 402.93 679.28 395.99 707.22 Z" fill="#5C6B4E"/><path d="M 395.99 707.22 L 431.2 673.89" stroke="#222C25" stroke-width="1" fill="none" stroke-linecap="round" opacity="0.5"/><path d="M 398.95 629.08 Q 396.84 603.95 373.13 595.34 Q 375.24 620.47 398.95 629.08 Z" fill="#5C6B4E"/><path d="M 398.95 629.08 L 373.13 595.34" stroke="#222C25" stroke-width="1" fill="none" stroke-linecap="round" opacity="0.5"/><path d="M 398.95 629.08 Q 423.72 624.35 429.81 599.87 Q 405.03 604.6 398.95 629.08 Z" fill="#5C6B4E"/><path d="M 398.95 629.08 L 429.81 599.87" stroke="#222C25" stroke-width="1" fill="none" stroke-linecap="round" opacity="0.5"/><path d="M 400.58 553.11 Q 398.74 531.18 378.04 523.66 Q 379.89 545.6 400.58 553.11 Z" fill="#5C6B4E"/><path d="M 400.58 553.11 L 378.04 523.66" stroke="#222C25" stroke-width="1" fill="none" stroke-linecap="round" opacity="0.5"/><path d="M 400.58 553.11 Q 422.21 548.99 427.52 527.62 Q 405.89 531.75 400.58 553.11 Z" fill="#5C6B4E"/><path d="M 400.58 553.11 L 427.52 527.62" stroke="#222C25" stroke-width="1" fill="none" stroke-linecap="round" opacity="0.5"/><path d="M 400.89 479.32 Q 399.33 460.88 381.94 454.56 Q 383.49 473 400.89 479.32 Z" fill="#5C6B4E"/><path d="M 400.89 479.32 L 381.94 454.56" stroke="#222C25" stroke-width="1" fill="none" stroke-linecap="round" opacity="0.5"/><path d="M 400.89 479.32 Q 419.07 475.85 423.53 457.89 Q 405.35 461.36 400.89 479.32 Z" fill="#5C6B4E"/><path d="M 400.89 479.32 L 423.53 457.89" stroke="#222C25" stroke-width="1" fill="none" stroke-linecap="round" opacity="0.5"/><path d="M 399.86 407.69 Q 398.42 390.58 382.27 384.72 Q 383.71 401.83 399.86 407.69 Z" fill="#5C6B4E"/><path d="M 399.86 407.69 L 382.27 384.72" stroke="#222C25" stroke-width="1" fill="none" stroke-linecap="round" opacity="0.5"/><path d="M 399.86 407.69 Q 416.73 404.47 420.87 387.8 Q 404 391.02 399.86 407.69 Z" fill="#5C6B4E"/><path d="M 399.86 407.69 L 420.87 387.8" stroke="#222C25" stroke-width="1" fill="none" stroke-linecap="round" opacity="0.5"/><path d="M 397.5 338.24 Q 409.52 322.13 400.21 304.32 Q 388.2 320.43 397.5 338.24 Z" fill="#5C6B4E"/><path d="M 397.5 338.24 L 400.21 304.32" stroke="#222C25" stroke-width="1" fill="none" stroke-linecap="round" opacity="0.5"/><path d="M 494.35 870 Q 491.42 665.95 537.42 499.01" stroke="#5C6B4E" stroke-width="3" fill="none" stroke-linecap="round"/><path d="M 494.51 812.46 Q 527.22 813.51 541.88 784.25 Q 509.17 783.2 494.51 812.46 Z" fill="#6E7C66"/><path d="M 494.51 812.46 L 541.88 784.25" stroke="#222C25" stroke-width="1" fill="none" stroke-linecap="round" opacity="0.5"/><path d="M 494.51 812.46 Q 498.98 780.04 471.41 762.4 Q 466.94 794.82 494.51 812.46 Z" fill="#6E7C66"/><path d="M 494.51 812.46 L 471.41 762.4" stroke="#222C25" stroke-width="1" fill="none" stroke-linecap="round" opacity="0.5"/><path d="M 496.67 756.43 Q 528.8 757.47 543.2 728.72 Q 511.07 727.69 496.67 756.43 Z" fill="#6E7C66"/><path d="M 496.67 756.43 L 543.2 728.72" stroke="#222C25" stroke-width="1" fill="none" stroke-linecap="round" opacity="0.5"/><path d="M 496.67 756.43 Q 501.06 724.58 473.98 707.26 Q 469.59 739.11 496.67 756.43 Z" fill="#6E7C66"/><path d="M 496.67 756.43 L 473.98 707.26" stroke="#222C25" stroke-width="1" fill="none" stroke-linecap="round" opacity="0.5"/><path d="M 500.83 701.92 Q 530.24 702.87 543.43 676.55 Q 514.01 675.6 500.83 701.92 Z" fill="#6E7C66"/><path d="M 500.83 701.92 L 543.43 676.55" stroke="#222C25" stroke-width="1" fill="none" stroke-linecap="round" opacity="0.5"/><path d="M 500.83 701.92 Q 504.85 672.76 480.05 656.9 Q 476.04 686.06 500.83 701.92 Z" fill="#6E7C66"/><path d="M 500.83 701.92 L 480.05 656.9" stroke="#222C25" stroke-width="1" fill="none" stroke-linecap="round" opacity="0.5"/><path d="M 506.98 648.92 Q 533.27 649.77 545.05 626.25 Q 518.76 625.4 506.98 648.92 Z" fill="#6E7C66"/><path d="M 506.98 648.92 L 545.05 626.25" stroke="#222C25" stroke-width="1" fill="none" stroke-linecap="round" opacity="0.5"/><path d="M 506.98 648.92 Q 510.57 622.86 488.41 608.69 Q 484.82 634.74 506.98 648.92 Z" fill="#6E7C66"/><path d="M 506.98 648.92 L 488.41 608.69" stroke="#222C25" stroke-width="1" fill="none" stroke-linecap="round" opacity="0.5"/><path d="M 515.13 597.43 Q 540.54 598.25 551.92 575.53 Q 526.52 574.71 515.13 597.43 Z" fill="#6E7C66"/><path d="M 515.13 597.43 L 551.92 575.53" stroke="#222C25" stroke-width="1" fill="none" stroke-linecap="round" opacity="0.5"/><path d="M 515.13 597.43 Q 518.6 572.25 497.19 558.55 Q 493.72 583.73 515.13 597.43 Z" fill="#6E7C66"/><path d="M 515.13 597.43 L 497.19 558.55" stroke="#222C25" stroke-width="1" fill="none" stroke-linecap="round" opacity="0.5"/><path d="M 525.28 547.46 Q 547.47 548.18 557.41 528.33 Q 535.22 527.61 525.28 547.46 Z" fill="#6E7C66"/><path d="M 525.28 547.46 L 557.41 528.33" stroke="#222C25" stroke-width="1" fill="none" stroke-linecap="round" opacity="0.5"/><path d="M 525.28 547.46 Q 528.31 525.47 509.61 513.5 Q 506.57 535.5 525.28 547.46 Z" fill="#6E7C66"/><path d="M 525.28 547.46 L 509.61 513.5" stroke="#222C25" stroke-width="1" fill="none" stroke-linecap="round" opacity="0.5"/><path d="M 537.42 499.01 Q 555.24 483.72 549.2 461.04 Q 531.37 476.32 537.42 499.01 Z" fill="#6E7C66"/><path d="M 537.42 499.01 L 549.2 461.04" stroke="#222C25" stroke-width="1" fill="none" stroke-linecap="round" opacity="0.5"/><path d="M 575.09 870 Q 593.25 725.65 575.54 607.54" stroke="#5C6B4E" stroke-width="3" fill="none" stroke-linecap="round"/><path d="M 579.07 834.32 Q 573.95 802.72 543.11 794.13 Q 548.23 825.73 579.07 834.32 Z" fill="#6E7C66"/><path d="M 579.07 834.32 L 543.11 794.13" stroke="#222C25" stroke-width="1" fill="none" stroke-linecap="round" opacity="0.5"/><path d="M 579.07 834.32 Q 609.97 825.93 615.28 794.36 Q 584.39 802.75 579.07 834.32 Z" fill="#6E7C66"/><path d="M 579.07 834.32 L 615.28 794.36" stroke="#222C25" stroke-width="1" fill="none" stroke-linecap="round" opacity="0.5"/><path d="M 581.93 799.46 Q 576.36 765.09 542.81 755.75 Q 548.38 790.12 581.93 799.46 Z" fill="#6E7C66"/><path d="M 581.93 799.46 L 542.81 755.75" stroke="#222C25" stroke-width="1" fill="none" stroke-linecap="round" opacity="0.5"/><path d="M 581.93 799.46 Q 615.53 790.33 621.32 755.99 Q 587.71 765.12 581.93 799.46 Z" fill="#6E7C66"/><path d="M 581.93 799.46 L 621.32 755.99" stroke="#222C25" stroke-width="1" fill="none" stroke-linecap="round" opacity="0.5"/><path d="M 583.66 765.43 Q 579.43 739.25 553.88 732.14 Q 558.12 758.31 583.66 765.43 Z" fill="#6E7C66"/><path d="M 583.66 765.43 L 553.88 732.14" stroke="#222C25" stroke-width="1" fill="none" stroke-linecap="round" opacity="0.5"/><path d="M 583.66 765.43 Q 609.25 758.48 613.66 732.33 Q 588.07 739.28 583.66 765.43 Z" fill="#6E7C66"/><path d="M 583.66 765.43 L 613.66 732.33" stroke="#222C25" stroke-width="1" fill="none" stroke-linecap="round" opacity="0.5"/><path d="M 584.28 732.21 Q 579.76 704.28 552.5 696.69 Q 557.03 724.62 584.28 732.21 Z" fill="#6E7C66"/><path d="M 584.28 732.21 L 552.5 696.69" stroke="#222C25" stroke-width="1" fill="none" stroke-linecap="round" opacity="0.5"/><path d="M 584.28 732.21 Q 611.58 724.79 616.28 696.89 Q 588.98 704.31 584.28 732.21 Z" fill="#6E7C66"/><path d="M 584.28 732.21 L 616.28 696.89" stroke="#222C25" stroke-width="1" fill="none" stroke-linecap="round" opacity="0.5"/><path d="M 583.78 699.81 Q 579.31 672.21 552.37 664.71 Q 556.84 692.31 583.78 699.81 Z" fill="#6E7C66"/><path d="M 583.78 699.81 L 552.37 664.71" stroke="#222C25" stroke-width="1" fill="none" stroke-linecap="round" opacity="0.5"/><path d="M 583.78 699.81 Q 610.76 692.48 615.4 664.91 Q 588.42 672.24 583.78 699.81 Z" fill="#6E7C66"/><path d="M 583.78 699.81 L 615.4 664.91" stroke="#222C25" stroke-width="1" fill="none" stroke-linecap="round" opacity="0.5"/><path d="M 582.15 668.24 Q 578.26 644.21 554.81 637.68 Q 558.7 661.71 582.15 668.24 Z" fill="#6E7C66"/><path d="M 582.15 668.24 L 554.81 637.68" stroke="#222C25" stroke-width="1" fill="none" stroke-linecap="round" opacity="0.5"/><path d="M 582.15 668.24 Q 605.64 661.85 609.69 637.85 Q 586.2 644.23 582.15 668.24 Z" fill="#6E7C66"/><path d="M 582.15 668.24 L 609.69 637.85" stroke="#222C25" stroke-width="1" fill="none" stroke-linecap="round" opacity="0.5"/><path d="M 579.41 637.48 Q 576.33 618.49 557.8 613.32 Q 560.87 632.32 579.41 637.48 Z" fill="#6E7C66"/><path d="M 579.41 637.48 L 557.8 613.32" stroke="#222C25" stroke-width="1" fill="none" stroke-linecap="round" opacity="0.5"/><path d="M 579.41 637.48 Q 597.98 632.43 601.17 613.46 Q 582.6 618.51 579.41 637.48 Z" fill="#6E7C66"/><path d="M 579.41 637.48 L 601.17 613.46" stroke="#222C25" stroke-width="1" fill="none" stroke-linecap="round" opacity="0.5"/><path d="M 575.54 607.54 Q 588.26 587.45 575.67 567.28 Q 562.95 587.37 575.54 607.54 Z" fill="#6E7C66"/><path d="M 575.54 607.54 L 575.67 567.28" stroke="#222C25" stroke-width="1" fill="none" stroke-linecap="round" opacity="0.5"/><path d="M 661.05 870 Q 631.87 735.35 629.12 625.18" stroke="#5C6B4E" stroke-width="3" fill="none" stroke-linecap="round"/><path d="M 652.06 825.8 Q 670.07 816.16 668.86 795.77 Q 650.85 805.41 652.06 825.8 Z" fill="#5C6B4E"/><path d="M 652.06 825.8 L 668.86 795.77" stroke="#222C25" stroke-width="1" fill="none" stroke-linecap="round" opacity="0.5"/><path d="M 652.06 825.8 Q 644.36 806.88 623.95 805.95 Q 631.66 824.87 652.06 825.8 Z" fill="#5C6B4E"/><path d="M 652.06 825.8 L 623.95 805.95" stroke="#222C25" stroke-width="1" fill="none" stroke-linecap="round" opacity="0.5"/><path d="M 644.53 782.95 Q 662.33 773.43 661.14 753.28 Q 643.34 762.81 644.53 782.95 Z" fill="#5C6B4E"/><path d="M 644.53 782.95 L 661.14 753.28" stroke="#222C25" stroke-width="1" fill="none" stroke-linecap="round" opacity="0.5"/><path d="M 644.53 782.95 Q 636.92 764.26 616.76 763.34 Q 624.37 782.04 644.53 782.95 Z" fill="#5C6B4E"/><path d="M 644.53 782.95 L 616.76 763.34" stroke="#222C25" stroke-width="1" fill="none" stroke-linecap="round" opacity="0.5"/><path d="M 638.48 741.47 Q 655.94 732.13 654.76 712.37 Q 637.31 721.71 638.48 741.47 Z" fill="#5C6B4E"/><path d="M 638.48 741.47 L 654.76 712.37" stroke="#222C25" stroke-width="1" fill="none" stroke-linecap="round" opacity="0.5"/><path d="M 638.48 741.47 Q 631.01 723.13 611.23 722.23 Q 618.7 740.57 638.48 741.47 Z" fill="#5C6B4E"/><path d="M 638.48 741.47 L 611.23 722.23" stroke="#222C25" stroke-width="1" fill="none" stroke-linecap="round" opacity="0.5"/><path d="M 633.89 701.35 Q 646.56 694.57 645.71 680.23 Q 633.04 687.01 633.89 701.35 Z" fill="#5C6B4E"/><path d="M 633.89 701.35 L 645.71 680.23" stroke="#222C25" stroke-width="1" fill="none" stroke-linecap="round" opacity="0.5"/><path d="M 633.89 701.35 Q 628.47 688.04 614.12 687.39 Q 619.54 700.7 633.89 701.35 Z" fill="#5C6B4E"/><path d="M 633.89 701.35 L 614.12 687.39" stroke="#222C25" stroke-width="1" fill="none" stroke-linecap="round" opacity="0.5"/><path d="M 630.77 662.59 Q 643.71 655.66 642.84 641.01 Q 629.9 647.93 630.77 662.59 Z" fill="#5C6B4E"/><path d="M 630.77 662.59 L 642.84 641.01" stroke="#222C25" stroke-width="1" fill="none" stroke-linecap="round" opacity="0.5"/><path d="M 630.77 662.59 Q 625.23 648.99 610.57 648.32 Q 616.11 661.92 630.77 662.59 Z" fill="#5C6B4E"/><path d="M 630.77 662.59 L 610.57 648.32" stroke="#222C25" stroke-width="1" fill="none" stroke-linecap="round" opacity="0.5"/><path d="M 629.12 625.18 Q 634.35 610.29 623.21 599.12 Q 617.97 614.01 629.12 625.18 Z" fill="#5C6B4E"/><path d="M 629.12 625.18 L 623.21 599.12" stroke="#222C25" stroke-width="1" fill="none" stroke-linecap="round" opacity="0.5"/><path d="M 735.14 870 Q 733.31 666.57 678.49 500.12" stroke="#5C6B4E" stroke-width="3" fill="none" stroke-linecap="round"/><path d="M 733.06 803.22 Q 717.97 779.11 689.76 782.71 Q 704.85 806.82 733.06 803.22 Z" fill="#6E7C66"/><path d="M 733.06 803.22 L 689.76 782.71" stroke="#222C25" stroke-width="1" fill="none" stroke-linecap="round" opacity="0.5"/><path d="M 733.06 803.22 Q 755.46 785.69 748.93 758.01 Q 726.53 775.54 733.06 803.22 Z" fill="#6E7C66"/><path d="M 733.06 803.22 L 748.93 758.01" stroke="#222C25" stroke-width="1" fill="none" stroke-linecap="round" opacity="0.5"/><path d="M 728.04 738.49 Q 715.41 718.31 691.79 721.32 Q 704.42 741.5 728.04 738.49 Z" fill="#6E7C66"/><path d="M 728.04 738.49 L 691.79 721.32" stroke="#222C25" stroke-width="1" fill="none" stroke-linecap="round" opacity="0.5"/><path d="M 728.04 738.49 Q 746.78 723.82 741.32 700.65 Q 722.57 715.32 728.04 738.49 Z" fill="#6E7C66"/><path d="M 728.04 738.49 L 741.32 700.65" stroke="#222C25" stroke-width="1" fill="none" stroke-linecap="round" opacity="0.5"/><path d="M 720.07 675.81 Q 707.25 655.33 683.28 658.39 Q 696.1 678.87 720.07 675.81 Z" fill="#6E7C66"/><path d="M 720.07 675.81 L 683.28 658.39" stroke="#222C25" stroke-width="1" fill="none" stroke-linecap="round" opacity="0.5"/><path d="M 720.07 675.81 Q 739.1 660.92 733.54 637.41 Q 714.51 652.3 720.07 675.81 Z" fill="#6E7C66"/><path d="M 720.07 675.81 L 733.54 637.41" stroke="#222C25" stroke-width="1" fill="none" stroke-linecap="round" opacity="0.5"/><path d="M 709.15 615.19 Q 698.78 598.62 679.39 601.1 Q 689.76 617.67 709.15 615.19 Z" fill="#6E7C66"/><path d="M 709.15 615.19 L 679.39 601.1" stroke="#222C25" stroke-width="1" fill="none" stroke-linecap="round" opacity="0.5"/><path d="M 709.15 615.19 Q 724.55 603.15 720.06 584.12 Q 704.66 596.17 709.15 615.19 Z" fill="#6E7C66"/><path d="M 709.15 615.19 L 720.06 584.12" stroke="#222C25" stroke-width="1" fill="none" stroke-linecap="round" opacity="0.5"/><path d="M 695.29 556.63 Q 685.6 541.14 667.47 543.46 Q 677.17 558.94 695.29 556.63 Z" fill="#6E7C66"/><path d="M 695.29 556.63 L 667.47 543.46" stroke="#222C25" stroke-width="1" fill="none" stroke-linecap="round" opacity="0.5"/><path d="M 695.29 556.63 Q 709.68 545.37 705.49 527.59 Q 691.1 538.84 695.29 556.63 Z" fill="#6E7C66"/><path d="M 695.29 556.63 L 705.49 527.59" stroke="#222C25" stroke-width="1" fill="none" stroke-linecap="round" opacity="0.5"/><path d="M 678.49 500.12 Q 681.84 480.07 665.23 468.35 Q 661.88 488.4 678.49 500.12 Z" fill="#6E7C66"/><path d="M 678.49 500.12 L 665.23 468.35" stroke="#222C25" stroke-width="1" fill="none" stroke-linecap="round" opacity="0.5"/><circle cx="256.58" cy="364.15" r="8.82" fill="#C27B66" opacity="0.85"/><line x1="256.58" y1="364.15" x2="256.58" y2="432.95" stroke="#5C6B4E" stroke-width="1.4"/><circle cx="491.95" cy="284.12" r="7.2" fill="#C27B66" opacity="0.85"/><line x1="491.95" y1="284.12" x2="491.95" y2="368.81" stroke="#5C6B4E" stroke-width="1.4"/><circle cx="367.38" cy="411.76" r="9.75" fill="#C27B66" opacity="0.85"/><line x1="367.38" y1="411.76" x2="367.38" y2="463.88" stroke="#5C6B4E" stroke-width="1.4"/><circle cx="140.83" cy="366.24" r="7.54" fill="#C27B66" opacity="0.85"/><line x1="140.83" y1="366.24" x2="140.83" y2="423.84" stroke="#5C6B4E" stroke-width="1.4"/><circle cx="266.74" cy="226.12" r="10.83" fill="#C27B66" opacity="0.85"/><line x1="266.74" y1="226.12" x2="266.74" y2="292.75" stroke="#5C6B4E" stroke-width="1.4"/><rect width="800" height="1000" filter="url(#grain-feat202)" opacity="0.045"/>
</svg>
