<svg xmlns="http://www.w3.org/2000/svg" viewBox="0 0 800 1000" width="800" height="1000" preserveAspectRatio="xMidYMid slice">
<defs>
		<filter id="grain-feat101"><feTurbulence type="fractalNoise" baseFrequency="0.9" numOctaves="3" stitchTiles="stitch"/><feColorMatrix type="saturate" values="0"/></filter>
		<linearGradient id="bgfeat101" x1="0" y1="0" x2="0.3" y2="1">
			<stop offset="0" stop-color="#E8DFD4"/>
			<stop offset="1" stop-color="#F2F0EB"/>
		</linearGradient>
	</defs>
<rect width="800" height="1000" fill="url(#bgfeat101)"/><line x1="395.91" y1="240" x2="499.41" y2="240" stroke="#D8C9A8" stroke-width="1.4" opacity="0.27999999999999997" stroke-linecap="round"/><line x1="389.12" y1="278.48" x2="486.38" y2="313.88" stroke="#D8C9A8" stroke-width="1.4" opacity="0.27999999999999997" stroke-linecap="round"/><line x1="369.59" y1="312.31" x2="448.87" y2="378.84" stroke="#D8C9A8" stroke-width="1.4" opacity="0.27999999999999997" stroke-linecap="round"/><line x1="339.66" y1="337.43" x2="391.41" y2="427.06" stroke="#D8C9A8" stroke-width="1.4" opacity="0.27999999999999997" stroke-linecap="round"/><line x1="302.94" y1="350.79" x2="320.92" y2="452.72" stroke="#D8C9A8" stroke-width="1.4" opacity="0.27999999999999997" stroke-linecap="round"/><line x1="263.87" y1="350.79" x2="245.9" y2="452.72" stroke="#D8C9A8" stroke-width="1.4" opacity="0.27999999999999997" stroke-linecap="round"/><line x1="227.16" y1="337.43" x2="175.41" y2="427.06" stroke="#D8C9A8" stroke-width="1.4" opacity="0.27999999999999997" stroke-linecap="round"/><line x1="197.23" y1="312.31" x2="117.94" y2="378.84" stroke="#D8C9A8" stroke-width="1.4" opacity="0.27999999999999997" stroke-linecap="round"/><line x1="177.69" y1="278.48" x2="80.43" y2="313.88" stroke="#D8C9A8" stroke-width="1.4" opacity="0.27999999999999997" stroke-linecap="round"/><line x1="170.91" y1="240" x2="67.41" y2="240" stroke="#D8C9A8" stroke-width="1.4" opacity="0.27999999999999997" stroke-linecap="round"/><line x1="177.69" y1="201.52" x2="80.43" y2="166.12" stroke="#D8C9A8" stroke-width="1.4" opacity="0.27999999999999997" stroke-linecap="round"/><line x1="197.23" y1="167.69" x2="117.94" y2="101.16" stroke="#D8C9A8" stroke-width="1.4" opacity="0.27999999999999997" stroke-linecap="round"/><line x1="227.16" y1="142.57" x2="175.41" y2="52.94" stroke="#D8C9A8" stroke-width="1.4" opacity="0.27999999999999997" stroke-linecap="round"/><line x1="263.87" y1="129.21" x2="245.9" y2="27.28" stroke="#D8C9A8" stroke-width="1.4" opacity="0.27999999999999997" stroke-linecap="round"/><line x1="302.94" y1="129.21" x2="320.92" y2="27.28" stroke="#D8C9A8" stroke-width="1.4" opacity="0.27999999999999997" stroke-linecap="round"/><line x1="339.66" y1="142.57" x2="391.41" y2="52.94" stroke="#D8C9A8" stroke-width="1.4" opacity="0.27999999999999997" stroke-linecap="round"/><line x1="369.59" y1="167.69" x2="448.87" y2="101.16" stroke="#D8C9A8" stroke-width="1.4" opacity="0.27999999999999997" stroke-linecap="round"/><line x1="389.12" y1="201.52" x2="486.38" y2="166.12" stroke="#D8C9A8" stroke-width="1.4" opacity="0.27999999999999997" stroke-linecap="round"/><circle cx="283.40731509029865" cy="240" r="90" fill="#D8C9A8" opacity="0.4"/><path d="M -20 870 Q 400 780 820 870 L 820 1020 L -20 1020 Z" fill="#DCCFC2" opacity="0.9"/><ellipse cx="224.00000000000003" cy="856" rx="70" ry="14" fill="#222C25" opacity="0.10"/><path d="M 224 775 Q 231.5 648.5 194 545" stroke="#5C6B4E" stroke-width="3" fill="none" stroke-linecap="round"/><path d="M 225.25 733.47 Q 216.17 710.29 191.32 708.82 Q 200.4 732 225.25 733.47 Z" fill="#5C6B4E"/><path d="M 225.25 733.47 L 191.32 708.82" stroke="#222C25" stroke-width="1" fill="none" stroke-linecap="round" opacity="0.5"/><path d="M 225.25 733.47 Q 247.36 722.02 246.22 697.15 Q 224.11 708.6 225.25 733.47 Z" fill="#5C6B4E"/><path d="M 225.25 733.47 L 246.22 697.15" stroke="#222C25" stroke-width="1" fill="none" stroke-linecap="round" opacity="0.5"/><path d="M 224 693.22 Q 216.18 673.25 194.77 671.98 Q 202.59 691.96 224 693.22 Z" fill="#5C6B4E"/><path d="M 224 693.22 L 194.77 671.98" stroke="#222C25" stroke-width="1" fill="none" stroke-linecap="round" opacity="0.5"/><path d="M 224 693.22 Q 243.05 683.36 242.07 661.93 Q 223.02 671.79 224 693.22 Z" fill="#5C6B4E"/><path d="M 224 693.22 L 242.07 661.93" stroke="#222C25" stroke-width="1" fill="none" stroke-linecap="round" opacity="0.5"/><path d="M 220.25 654.25 Q 212.9 635.49 192.79 634.3 Q 200.13 653.06 220.25 654.25 Z" fill="#5C6B4E"/><path d="M 220.25 654.25 L 192.79 634.3" stroke="#222C25" stroke-width="1" fill="none" stroke-linecap="round" opacity="0.5"/><path d="M 220.25 654.25 Q 238.14 644.98 237.22 624.85 Q 219.33 634.12 220.25 654.25 Z" fill="#5C6B4E"/><path d="M 220.25 654.25 L 237.22 624.85" stroke="#222C25" stroke-width="1" fill="none" stroke-linecap="round" opacity="0.5"/><path d="M 214 616.56 Q 207.86 600.87 191.04 599.88 Q 197.18 615.56 214 616.56 Z" fill="#5C6B4E"/><path d="M 214 616.56 L 191.04 599.88" stroke="#222C25" stroke-width="1" fill="none" stroke-linecap="round" opacity="0.5"/><path d="M 214 616.56 Q 228.96 608.81 228.19 591.98 Q 213.23 599.73 214 616.56 Z" fill="#5C6B4E"/><path d="M 214 616.56 L 228.19 591.98" stroke="#222C25" stroke-width="1" fill="none" stroke-linecap="round" opacity="0.5"/><path d="M 205.25 580.14 Q 199.24 564.79 182.78 563.81 Q 188.79 579.17 205.25 580.14 Z" fill="#5C6B4E"/><path d="M 205.25 580.14 L 182.78 563.81" stroke="#222C25" stroke-width="1" fill="none" stroke-linecap="round" opacity="0.5"/><path d="M 205.25 580.14 Q 219.89 572.56 219.14 556.09 Q 204.5 563.67 205.25 580.14 Z" fill="#5C6B4E"/><path d="M 205.25 580.14 L 219.14 556.09" stroke="#222C25" stroke-width="1" fill="none" stroke-linecap="round" opacity="0.5"/><path d="M 194 545 Q 199.98 528.7 187.89 516.24 Q 181.91 532.54 194 545 Z" fill="#5C6B4E"/><path d="M 194 545 L 187.89 516.24" stroke="#222C25" stroke-width="1" fill="none" stroke-linecap="round" opacity="0.5"/>
	<path d="M 176 764 L 272 764 L 261 850 L 187 850 Z" fill="#C27B66"/>
	<path d="M 224 764 L 261 850 L 187 850 L 224 764 Z" fill="#A8624E" opacity="0.35"/>
	<rect x="170.24" y="750.24" width="107.52" height="14.45" rx="5.5" fill="#A8624E"/><ellipse cx="440.00000000000006" cy="862" rx="66" ry="14" fill="#222C25" opacity="0.10"/><path d="M 440 756 Q 422 602 440 476" stroke="#5C6B4E" stroke-width="3" fill="none" stroke-linecap="round"/><path d="M 435.59 712.57 Q 461.97 705.31 466.43 678.32 Q 440.05 685.57 435.59 712.57 Z" fill="#6E7C66"/><path d="M 435.59 712.57 L 466.43 678.32" stroke="#222C25" stroke-width="1" fill="none" stroke-linecap="round" opacity="0.5"/><path d="M 435.59 712.57 Q 431.13 685.57 404.75 678.32 Q 409.21 705.31 435.59 712.57 Z" fill="#6E7C66"/><path d="M 435.59 712.57 L 404.75 678.32" stroke="#222C25" stroke-width="1" fill="none" stroke-linecap="round" opacity="0.5"/><path d="M 432.65 670.29 Q 459.92 662.78 464.53 634.88 Q 437.26 642.38 432.65 670.29 Z" fill="#6E7C66"/><path d="M 432.65 670.29 L 464.53 634.88" stroke="#222C25" stroke-width="1" fill="none" stroke-linecap="round" opacity="0.5"/><path d="M 432.65 670.29 Q 428.04 642.38 400.77 634.88 Q 405.38 662.78 432.65 670.29 Z" fill="#6E7C66"/><path d="M 432.65 670.29 L 400.77 634.88" stroke="#222C25" stroke-width="1" fill="none" stroke-linecap="round" opacity="0.5"/><path d="M 431.18 629.14 Q 451.55 623.54 455 602.7 Q 434.63 608.3 431.18 629.14 Z" fill="#6E7C66"/><path d="M 431.18 629.14 L 455 602.7" stroke="#222C25" stroke-width="1" fill="none" stroke-linecap="round" opacity="0.5"/><path d="M 431.18 629.14 Q 427.74 608.3 407.37 602.7 Q 410.81 623.54 431.18 629.14 Z" fill="#6E7C66"/><path d="M 431.18 629.14 L 407.37 602.7" stroke="#222C25" stroke-width="1" fill="none" stroke-linecap="round" opacity="0.5"/><path d="M 431.18 589.14 Q 449.01 584.24 452.02 566 Q 434.2 570.9 431.18 589.14 Z" fill="#6E7C66"/><path d="M 431.18 589.14 L 452.02 566" stroke="#222C25" stroke-width="1" fill="none" stroke-linecap="round" opacity="0.5"/><path d="M 431.18 589.14 Q 428.17 570.9 410.35 566 Q 413.36 584.24 431.18 589.14 Z" fill="#6E7C66"/><path d="M 431.18 589.14 L 410.35 566" stroke="#222C25" stroke-width="1" fill="none" stroke-linecap="round" opacity="0.5"/><path d="M 432.65 550.29 Q 450.66 545.33 453.7 526.91 Q 435.7 531.86 432.65 550.29 Z" fill="#6E7C66"/><path d="M 432.65 550.29 L 453.7 526.91" stroke="#222C25" stroke-width="1" fill="none" stroke-linecap="round" opacity="0.5"/><path d="M 432.65 550.29 Q 429.61 531.86 411.61 526.91 Q 414.65 545.33 432.65 550.29 Z" fill="#6E7C66"/><path d="M 432.65 550.29 L 411.61 526.91" stroke="#222C25" stroke-width="1" fill="none" stroke-linecap="round" opacity="0.5"/><path d="M 435.59 512.57 Q 453.96 507.52 457.06 488.73 Q 438.7 493.78 435.59 512.57 Z" fill="#6E7C66"/><path d="M 435.59 512.57 L 457.06 488.73" stroke="#222C25" stroke-width="1" fill="none" stroke-linecap="round" opacity="0.5"/><path d="M 435.59 512.57 Q 432.49 493.78 414.12 488.73 Q 417.23 507.52 435.59 512.57 Z" fill="#6E7C66"/><path d="M 435.59 512.57 L 414.12 488.73" stroke="#222C25" stroke-width="1" fill="none" stroke-linecap="round" opacity="0.5"/><path d="M 440 476 Q 450.56 459.2 440 442.4 Q 429.44 459.2 440 476 Z" fill="#6E7C66"/><path d="M 440 476 L 440 442.4" stroke="#222C25" stroke-width="1" fill="none" stroke-linecap="round" opacity="0.5"/>
	<path d="M 395 774 L 485 774 L 474 856 L 406 856 Z" fill="#C27B66"/>
	<path d="M 440 774 L 474 856 L 406 856 L 440 774 Z" fill="#A8624E" opacity="0.35"/>
	<rect x="389.6" y="760.88" width="100.8" height="13.78" rx="5.25" fill="#A8624E"/><ellipse cx="624" cy="856" rx="62" ry="14" fill="#222C25" opacity="0.10"/><path d="M 624 785 Q 652.5 669.5 654 575" stroke="#5C6B4E" stroke-width="3" fill="none" stroke-linecap="round"/><path d="M 630.7 756.45 Q 632.04 727.22 606.05 713.76 Q 604.72 742.99 630.7 756.45 Z" fill="#5C6B4E"/><path d="M 630.7 756.45 L 606.05 713.76" stroke="#222C25" stroke-width="1" fill="none" stroke-linecap="round" opacity="0.5"/><path d="M 630.7 756.45 Q 659.92 754.73 670.59 727.47 Q 641.37 729.2 630.7 756.45 Z" fill="#5C6B4E"/><path d="M 630.7 756.45 L 670.59 727.47" stroke="#222C25" stroke-width="1" fill="none" stroke-linecap="round" opacity="0.5"/><path d="M 636.56 728.56 Q 638.01 696.94 609.9 682.39 Q 608.46 714.01 636.56 728.56 Z" fill="#5C6B4E"/><path d="M 636.56 728.56 L 609.9 682.39" stroke="#222C25" stroke-width="1" fill="none" stroke-linecap="round" opacity="0.5"/><path d="M 636.56 728.56 Q 668.16 726.7 679.7 697.22 Q 648.1 699.09 636.56 728.56 Z" fill="#5C6B4E"/><path d="M 636.56 728.56 L 679.7 697.22" stroke="#222C25" stroke-width="1" fill="none" stroke-linecap="round" opacity="0.5"/><path d="M 641.58 701.33 Q 642.79 674.9 619.3 662.74 Q 618.09 689.16 641.58 701.33 Z" fill="#5C6B4E"/><path d="M 641.58 701.33 L 619.3 662.74" stroke="#222C25" stroke-width="1" fill="none" stroke-linecap="round" opacity="0.5"/><path d="M 641.58 701.33 Q 667.99 699.77 677.63 675.13 Q 651.22 676.69 641.58 701.33 Z" fill="#5C6B4E"/><path d="M 641.58 701.33 L 677.63 675.13" stroke="#222C25" stroke-width="1" fill="none" stroke-linecap="round" opacity="0.5"/><path d="M 645.75 674.75 Q 646.75 652.84 627.27 642.75 Q 626.27 664.66 645.75 674.75 Z" fill="#5C6B4E"/><path d="M 645.75 674.75 L 627.27 642.75" stroke="#222C25" stroke-width="1" fill="none" stroke-linecap="round" opacity="0.5"/><path d="M 645.75 674.75 Q 667.65 673.46 675.65 653.03 Q 653.75 654.32 645.75 674.75 Z" fill="#5C6B4E"/><path d="M 645.75 674.75 L 675.65 653.03" stroke="#222C25" stroke-width="1" fill="none" stroke-linecap="round" opacity="0.5"/><path d="M 649.08 648.83 Q 649.99 628.84 632.23 619.64 Q 631.31 639.63 649.08 648.83 Z" fill="#5C6B4E"/><path d="M 649.08 648.83 L 632.23 619.64" stroke="#222C25" stroke-width="1" fill="none" stroke-linecap="round" opacity="0.5"/><path d="M 649.08 648.83 Q 669.05 647.65 676.34 629.02 Q 656.37 630.2 649.08 648.83 Z" fill="#5C6B4E"/><path d="M 649.08 648.83 L 676.34 629.02" stroke="#222C25" stroke-width="1" fill="none" stroke-linecap="round" opacity="0.5"/><path d="M 651.56 623.56 Q 652.51 602.87 634.12 593.35 Q 633.17 614.04 651.56 623.56 Z" fill="#5C6B4E"/><path d="M 651.56 623.56 L 634.12 593.35" stroke="#222C25" stroke-width="1" fill="none" stroke-linecap="round" opacity="0.5"/><path d="M 651.56 623.56 Q 672.24 622.34 679.79 603.05 Q 659.11 604.28 651.56 623.56 Z" fill="#5C6B4E"/><path d="M 651.56 623.56 L 679.79 603.05" stroke="#222C25" stroke-width="1" fill="none" stroke-linecap="round" opacity="0.5"/><path d="M 653.2 598.95 Q 653.97 582.28 639.15 574.6 Q 638.38 591.28 653.2 598.95 Z" fill="#5C6B4E"/><path d="M 653.2 598.95 L 639.15 574.6" stroke="#222C25" stroke-width="1" fill="none" stroke-linecap="round" opacity="0.5"/><path d="M 653.2 598.95 Q 669.86 597.97 675.95 582.43 Q 659.29 583.41 653.2 598.95 Z" fill="#5C6B4E"/><path d="M 653.2 598.95 L 675.95 582.43" stroke="#222C25" stroke-width="1" fill="none" stroke-linecap="round" opacity="0.5"/><path d="M 654 575 Q 669.55 558.98 661.86 538.03 Q 646.31 554.04 654 575 Z" fill="#5C6B4E"/><path d="M 654 575 L 661.86 538.03" stroke="#222C25" stroke-width="1" fill="none" stroke-linecap="round" opacity="0.5"/>
	<path d="M 582 772 L 666 772 L 655 850 L 593 850 Z" fill="#C27B66"/>
	<path d="M 624 772 L 655 850 L 593 850 L 624 772 Z" fill="#A8624E" opacity="0.35"/>
	<rect x="576.96" y="759.52" width="94.08" height="13.1" rx="4.99" fill="#A8624E"/><path d="M 90 0 L 90 70" stroke="#5C6B4E" stroke-width="2" fill="none"/><path d="M 90 150 Q 108 84 90 30" stroke="#5C6B4E" stroke-width="3" fill="none" stroke-linecap="round"/><path d="M 95 128.33 Q 92.56 113.56 78.13 109.59 Q 80.57 124.36 95 128.33 Z" fill="#6E7C66"/><path d="M 95 128.33 L 78.13 109.59" stroke="#222C25" stroke-width="1" fill="none" stroke-linecap="round" opacity="0.5"/><path d="M 95 128.33 Q 109.43 124.36 111.87 109.59 Q 97.44 113.56 95 128.33 Z" fill="#6E7C66"/><path d="M 95 128.33 L 111.87 109.59" stroke="#222C25" stroke-width="1" fill="none" stroke-linecap="round" opacity="0.5"/><path d="M 98 107.33 Q 95.34 91.23 79.6 86.9 Q 82.26 103 98 107.33 Z" fill="#6E7C66"/><path d="M 98 107.33 L 79.6 86.9" stroke="#222C25" stroke-width="1" fill="none" stroke-linecap="round" opacity="0.5"/><path d="M 98 107.33 Q 113.74 103 116.4 86.9 Q 100.66 91.23 98 107.33 Z" fill="#6E7C66"/><path d="M 98 107.33 L 116.4 86.9" stroke="#222C25" stroke-width="1" fill="none" stroke-linecap="round" opacity="0.5"/><path d="M 99 87 Q 96.9 74.32 84.51 70.91 Q 86.61 83.59 99 87 Z" fill="#6E7C66"/><path d="M 99 87 L 84.51 70.91" stroke="#222C25" stroke-width="1" fill="none" stroke-linecap="round" opacity="0.5"/><path d="M 99 87 Q 111.39 83.59 113.49 70.91 Q 101.1 74.32 99 87 Z" fill="#6E7C66"/><path d="M 99 87 L 113.49 70.91" stroke="#222C25" stroke-width="1" fill="none" stroke-linecap="round" opacity="0.5"/><path d="M 98 67.33 Q 96.24 56.67 85.82 53.8 Q 87.58 64.47 98 67.33 Z" fill="#6E7C66"/><path d="M 98 67.33 L 85.82 53.8" stroke="#222C25" stroke-width="1" fill="none" stroke-linecap="round" opacity="0.5"/><path d="M 98 67.33 Q 108.42 64.47 110.18 53.8 Q 99.76 56.67 98 67.33 Z" fill="#6E7C66"/><path d="M 98 67.33 L 110.18 53.8" stroke="#222C25" stroke-width="1" fill="none" stroke-linecap="round" opacity="0.5"/><path d="M 95 48.33 Q 93.11 36.87 81.9 33.78 Q 83.79 45.25 95 48.33 Z" fill="#6E7C66"/><path d="M 95 48.33 L 81.9 33.78" stroke="#222C25" stroke-width="1" fill="none" stroke-linecap="round" opacity="0.5"/><path d="M 95 48.33 Q 106.21 45.25 108.1 33.78 Q 96.89 36.87 95 48.33 Z" fill="#6E7C66"/><path d="M 95 48.33 L 108.1 33.78" stroke="#222C25" stroke-width="1" fill="none" stroke-linecap="round" opacity="0.5"/><path d="M 90 30 Q 96.6 19.5 90 9 Q 83.4 19.5 90 30 Z" fill="#6E7C66"/><path d="M 90 30 L 90 9" stroke="#222C25" stroke-width="1" fill="none" stroke-linecap="round" opacity="0.5"/><rect width="800" height="1000" filter="url(#grain-feat101)" opacity="0.045"/>
</svg>
