<svg xmlns="http://www.w3.org/2000/svg" viewBox="0 0 900 1200" width="900" height="1200" preserveAspectRatio="xMidYMid slice">
<defs>
		<filter id="grain-hero"><feTurbulence type="fractalNoise" baseFrequency="0.9" numOctaves="3" stitchTiles="stitch"/><feColorMatrix type="saturate" values="0"/></filter>
		<clipPath id="heroArch"><path d="M 0 1200 L 0 120 A 450 450 0 0 1 900 120 L 900 1200 Z"/></clipPath>
		<linearGradient id="heroSky" x1="0" y1="0" x2="0" y2="1">
			<stop offset="0" stop-color="#E8DFD4"/>
			<stop offset="0.55" stop-color="#F2F0EB"/>
			<stop offset="1" stop-color="#E6E2DA"/>
		</linearGradient>
		<radialGradient id="heroGlow" cx="0.5" cy="0.28" r="0.6">
			<stop offset="0" stop-color="#D8C9A8" stop-opacity="0.9"/>
			<stop offset="1" stop-color="#D8C9A8" stop-opacity="0"/>
		</radialGradient>
	</defs>
<rect width="900" height="1200" fill="#F2F0EB"/><g clip-path="url(#heroArch)"><rect width="900" height="1200" fill="url(#heroSky)"/><line x1="600" y1="270" x2="738" y2="270" stroke="#D8C9A8" stroke-width="1.4" opacity="0.385" stroke-linecap="round"/><line x1="590.95" y1="321.3" x2="720.63" y2="368.5" stroke="#D8C9A8" stroke-width="1.4" opacity="0.385" stroke-linecap="round"/><line x1="564.91" y1="366.42" x2="670.62" y2="455.12" stroke="#D8C9A8" stroke-width="1.4" opacity="0.385" stroke-linecap="round"/><line x1="525" y1="399.9" x2="594" y2="519.42" stroke="#D8C9A8" stroke-width="1.4" opacity="0.385" stroke-linecap="round"/><line x1="476.05" y1="417.72" x2="500.01" y2="553.62" stroke="#D8C9A8" stroke-width="1.4" opacity="0.385" stroke-linecap="round"/><line x1="423.95" y1="417.72" x2="399.99" y2="553.62" stroke="#D8C9A8" stroke-width="1.4" opacity="0.385" stroke-linecap="round"/><line x1="375" y1="399.9" x2="306" y2="519.42" stroke="#D8C9A8" stroke-width="1.4" opacity="0.385" stroke-linecap="round"/><line x1="335.09" y1="366.42" x2="229.38" y2="455.12" stroke="#D8C9A8" stroke-width="1.4" opacity="0.385" stroke-linecap="round"/><line x1="309.05" y1="321.3" x2="179.37" y2="368.5" stroke="#D8C9A8" stroke-width="1.4" opacity="0.385" stroke-linecap="round"/><line x1="300" y1="270" x2="162" y2="270" stroke="#D8C9A8" stroke-width="1.4" opacity="0.385" stroke-linecap="round"/><line x1="309.05" y1="218.7" x2="179.37" y2="171.5" stroke="#D8C9A8" stroke-width="1.4" opacity="0.385" stroke-linecap="round"/><line x1="335.09" y1="173.58" x2="229.38" y2="84.88" stroke="#D8C9A8" stroke-width="1.4" opacity="0.385" stroke-linecap="round"/><line x1="375" y1="140.1" x2="306" y2="20.58" stroke="#D8C9A8" stroke-width="1.4" opacity="0.385" stroke-linecap="round"/><line x1="423.95" y1="122.28" x2="399.99" y2="-13.62" stroke="#D8C9A8" stroke-width="1.4" opacity="0.385" stroke-linecap="round"/><line x1="476.05" y1="122.28" x2="500.01" y2="-13.62" stroke="#D8C9A8" stroke-width="1.4" opacity="0.385" stroke-linecap="round"/><line x1="525" y1="140.1" x2="594" y2="20.58" stroke="#D8C9A8" stroke-width="1.4" opacity="0.385" stroke-linecap="round"/><line x1="564.91" y1="173.58" x2="670.62" y2="84.88" stroke="#D8C9A8" stroke-width="1.4" opacity="0.385" stroke-linecap="round"/><line x1="590.95" y1="218.7" x2="720.63" y2="171.5" stroke="#D8C9A8" stroke-width="1.4" opacity="0.385" stroke-linecap="round"/><circle cx="450" cy="270" r="120" fill="#D8C9A8" opacity="0.55"/><rect width="900" height="1200" fill="url(#heroGlow)"/><path d="M 65.35 159.35 Q 62.21 146 48.98 142.36 Q 52.13 155.71 65.35 159.35 Z" fill="#8C9A84"/><path d="M 65.35 159.35 L 48.98 142.36" stroke="#222C25" stroke-width="1" fill="none" stroke-linecap="round" opacity="0.5"/><path d="M 65.35 159.35 Q 74.61 165.9 84.56 160.46 Q 75.3 153.92 65.35 159.35 Z" fill="#A7B29F"/><path d="M 65.35 159.35 L 84.56 160.46" stroke="#222C25" stroke-width="1" fill="none" stroke-linecap="round" opacity="0.5"/><path d="M 88.52 198.7 Q 88.17 185.49 76.14 180 Q 76.5 193.22 88.52 198.7 Z" fill="#8C9A84"/><path d="M 88.52 198.7 L 76.14 180" stroke="#222C25" stroke-width="1" fill="none" stroke-linecap="round" opacity="0.5"/><path d="M 88.52 198.7 Q 98.62 202.66 106.18 194.89 Q 96.08 190.93 88.52 198.7 Z" fill="#A7B29F"/><path d="M 88.52 198.7 L 106.18 194.89" stroke="#222C25" stroke-width="1" fill="none" stroke-linecap="round" opacity="0.5"/><path d="M 86.37 238.05 Q 80.25 226.47 67.16 227.03 Q 73.28 238.61 86.37 238.05 Z" fill="#8C9A84"/><path d="M 86.37 238.05 L 67.16 227.03" stroke="#222C25" stroke-width="1" fill="none" stroke-linecap="round" opacity="0.5"/><path d="M 86.37 238.05 Q 96.36 243.15 105.23 236.29 Q 95.24 231.2 86.37 238.05 Z" fill="#A7B29F"/><path d="M 86.37 238.05 L 105.23 236.29" stroke="#222C25" stroke-width="1" fill="none" stroke-linecap="round" opacity="0.5"/><path d="M 61.25 277.41 Q 64.11 265.38 53.92 258.4 Q 51.05 270.42 61.25 277.41 Z" fill="#8C9A84"/><path d="M 61.25 277.41 L 53.92 258.4" stroke="#222C25" stroke-width="1" fill="none" stroke-linecap="round" opacity="0.5"/><path d="M 61.25 277.41 Q 67.04 286.53 77.69 284.69 Q 71.9 275.56 61.25 277.41 Z" fill="#A7B29F"/><path d="M 61.25 277.41 L 77.69 284.69" stroke="#222C25" stroke-width="1" fill="none" stroke-linecap="round" opacity="0.5"/><path d="M 40.61 316.76 Q 35.39 306.11 23.66 307.85 Q 28.88 318.5 40.61 316.76 Z" fill="#8C9A84"/><path d="M 40.61 316.76 L 23.66 307.85" stroke="#222C25" stroke-width="1" fill="none" stroke-linecap="round" opacity="0.5"/><path d="M 40.61 316.76 Q 48.92 323.89 58.78 319.12 Q 50.47 311.99 40.61 316.76 Z" fill="#A7B29F"/><path d="M 40.61 316.76 L 58.78 319.12" stroke="#222C25" stroke-width="1" fill="none" stroke-linecap="round" opacity="0.5"/><path d="M 47.01 356.11 Q 49.55 344.75 39.34 339.17 Q 36.8 350.52 47.01 356.11 Z" fill="#8C9A84"/><path d="M 47.01 356.11 L 39.34 339.17" stroke="#222C25" stroke-width="1" fill="none" stroke-linecap="round" opacity="0.5"/><path d="M 47.01 356.11 Q 55.88 363.96 67.06 360.04 Q 58.18 352.18 47.01 356.11 Z" fill="#A7B29F"/><path d="M 47.01 356.11 L 67.06 360.04" stroke="#222C25" stroke-width="1" fill="none" stroke-linecap="round" opacity="0.5"/><path d="M 65.35 120 Q 73.94 139.68 65.35 159.35 Q 72.26 179.03 88.52 198.7 Q 92.2 218.38 86.37 238.05 Q 74.44 257.73 61.25 277.41 Q 45.36 297.08 40.61 316.76 Q 48.52 336.43 47.01 356.11 " stroke="#5C6B4E" stroke-width="2" fill="none" opacity="0.85"/><path d="M 256.57 198.53 Q 256.64 184.04 244.42 176.26 Q 244.35 190.74 256.57 198.53 Z" fill="#8C9A84"/><path d="M 256.57 198.53 L 244.42 176.26" stroke="#222C25" stroke-width="1" fill="none" stroke-linecap="round" opacity="0.5"/><path d="M 256.57 198.53 Q 265.75 202.82 272.58 195.34 Q 263.41 191.05 256.57 198.53 Z" fill="#A7B29F"/><path d="M 256.57 198.53 L 272.58 195.34" stroke="#222C25" stroke-width="1" fill="none" stroke-linecap="round" opacity="0.5"/><path d="M 254.42 277.05 Q 246.94 266.68 234.44 269.38 Q 241.92 279.75 254.42 277.05 Z" fill="#8C9A84"/><path d="M 254.42 277.05 L 234.44 269.38" stroke="#222C25" stroke-width="1" fill="none" stroke-linecap="round" opacity="0.5"/><path d="M 254.42 277.05 Q 260.46 285.38 270.27 282.33 Q 264.24 274 254.42 277.05 Z" fill="#A7B29F"/><path d="M 254.42 277.05 L 270.27 282.33" stroke="#222C25" stroke-width="1" fill="none" stroke-linecap="round" opacity="0.5"/><path d="M 229.3 355.58 Q 226.34 343.13 213.75 340.86 Q 216.71 353.3 229.3 355.58 Z" fill="#8C9A84"/><path d="M 229.3 355.58 L 213.75 340.86" stroke="#222C25" stroke-width="1" fill="none" stroke-linecap="round" opacity="0.5"/><path d="M 229.3 355.58 Q 239.11 364.45 252.05 361.74 Q 242.25 352.87 229.3 355.58 Z" fill="#A7B29F"/><path d="M 229.3 355.58 L 252.05 361.74" stroke="#222C25" stroke-width="1" fill="none" stroke-linecap="round" opacity="0.5"/><path d="M 208.66 434.1 Q 204.8 422.25 192.35 421.45 Q 196.21 433.31 208.66 434.1 Z" fill="#8C9A84"/><path d="M 208.66 434.1 L 192.35 421.45" stroke="#222C25" stroke-width="1" fill="none" stroke-linecap="round" opacity="0.5"/><path d="M 208.66 434.1 Q 218.37 437.97 225.31 430.16 Q 215.6 426.29 208.66 434.1 Z" fill="#A7B29F"/><path d="M 208.66 434.1 L 225.31 430.16" stroke="#222C25" stroke-width="1" fill="none" stroke-linecap="round" opacity="0.5"/><path d="M 215.06 512.63 Q 209.55 501.47 197.15 502.49 Q 202.66 513.65 215.06 512.63 Z" fill="#8C9A84"/><path d="M 215.06 512.63 L 197.15 502.49" stroke="#222C25" stroke-width="1" fill="none" stroke-linecap="round" opacity="0.5"/><path d="M 215.06 512.63 Q 225.9 518.04 236.08 511.47 Q 225.24 506.06 215.06 512.63 Z" fill="#A7B29F"/><path d="M 215.06 512.63 L 236.08 511.47" stroke="#222C25" stroke-width="1" fill="none" stroke-linecap="round" opacity="0.5"/><path d="M 241.5 591.16 Q 243.14 577.59 231.98 569.7 Q 230.34 583.27 241.5 591.16 Z" fill="#8C9A84"/><path d="M 241.5 591.16 L 231.98 569.7" stroke="#222C25" stroke-width="1" fill="none" stroke-linecap="round" opacity="0.5"/><path d="M 241.5 591.16 Q 248.81 600.45 260.49 598.57 Q 253.18 589.28 241.5 591.16 Z" fill="#A7B29F"/><path d="M 241.5 591.16 L 260.49 598.57" stroke="#222C25" stroke-width="1" fill="none" stroke-linecap="round" opacity="0.5"/><path d="M 233.4 120 Q 247.23 159.26 256.57 198.53 Q 252.92 237.79 254.42 277.05 Q 239.5 316.32 229.3 355.58 Q 222.37 394.84 208.66 434.1 Q 219.29 473.37 215.06 512.63 Q 220.07 551.89 241.5 591.16 " stroke="#5C6B4E" stroke-width="2" fill="none" opacity="0.85"/><path d="M 401.68 196.53 Q 400.45 183.45 388.13 178.89 Q 389.35 191.98 401.68 196.53 Z" fill="#8C9A84"/><path d="M 401.68 196.53 L 388.13 178.89" stroke="#222C25" stroke-width="1" fill="none" stroke-linecap="round" opacity="0.5"/><path d="M 401.68 196.53 Q 409.07 207.26 422.09 207.4 Q 414.71 196.67 401.68 196.53 Z" fill="#A7B29F"/><path d="M 401.68 196.53 L 422.09 207.4" stroke="#222C25" stroke-width="1" fill="none" stroke-linecap="round" opacity="0.5"/><path d="M 376.56 273.06 Q 378.83 259.89 368.1 251.93 Q 365.83 265.09 376.56 273.06 Z" fill="#8C9A84"/><path d="M 376.56 273.06 L 368.1 251.93" stroke="#222C25" stroke-width="1" fill="none" stroke-linecap="round" opacity="0.5"/><path d="M 376.56 273.06 Q 387.55 280.54 400.1 276.13 Q 389.1 268.64 376.56 273.06 Z" fill="#A7B29F"/><path d="M 376.56 273.06 L 400.1 276.13" stroke="#222C25" stroke-width="1" fill="none" stroke-linecap="round" opacity="0.5"/><path d="M 355.92 349.58 Q 354.64 338.24 343.34 336.65 Q 344.61 348 355.92 349.58 Z" fill="#8C9A84"/><path d="M 355.92 349.58 L 343.34 336.65" stroke="#222C25" stroke-width="1" fill="none" stroke-linecap="round" opacity="0.5"/><path d="M 355.92 349.58 Q 363.18 357.95 373.8 354.78 Q 366.53 346.42 355.92 349.58 Z" fill="#A7B29F"/><path d="M 355.92 349.58 L 373.8 354.78" stroke="#222C25" stroke-width="1" fill="none" stroke-linecap="round" opacity="0.5"/><path d="M 362.31 426.11 Q 364.5 412.37 353.64 403.69 Q 351.45 417.43 362.31 426.11 Z" fill="#8C9A84"/><path d="M 362.31 426.11 L 353.64 403.69" stroke="#222C25" stroke-width="1" fill="none" stroke-linecap="round" opacity="0.5"/><path d="M 362.31 426.11 Q 369.69 435.4 381.39 433.5 Q 374.02 424.21 362.31 426.11 Z" fill="#A7B29F"/><path d="M 362.31 426.11 L 381.39 433.5" stroke="#222C25" stroke-width="1" fill="none" stroke-linecap="round" opacity="0.5"/><path d="M 388.76 502.64 Q 388.31 489.13 376.13 483.25 Q 376.58 496.77 388.76 502.64 Z" fill="#8C9A84"/><path d="M 388.76 502.64 L 376.13 483.25" stroke="#222C25" stroke-width="1" fill="none" stroke-linecap="round" opacity="0.5"/><path d="M 388.76 502.64 Q 399.39 507.84 409.11 501.08 Q 398.48 495.88 388.76 502.64 Z" fill="#A7B29F"/><path d="M 388.76 502.64 L 409.11 501.08" stroke="#222C25" stroke-width="1" fill="none" stroke-linecap="round" opacity="0.5"/><path d="M 406.35 579.17 Q 400.46 569.37 389.5 572.63 Q 395.39 582.43 406.35 579.17 Z" fill="#8C9A84"/><path d="M 406.35 579.17 L 389.5 572.63" stroke="#222C25" stroke-width="1" fill="none" stroke-linecap="round" opacity="0.5"/><path d="M 406.35 579.17 Q 415.08 589.09 428.23 587.86 Q 419.51 577.94 406.35 579.17 Z" fill="#A7B29F"/><path d="M 406.35 579.17 L 428.23 587.86" stroke="#222C25" stroke-width="1" fill="none" stroke-linecap="round" opacity="0.5"/><path d="M 380.66 120 Q 384.27 158.26 401.68 196.53 Q 395.2 234.79 376.56 273.06 Q 371.97 311.32 355.92 349.58 Q 360.01 387.85 362.31 426.11 Q 374.28 464.38 388.76 502.64 Q 392.82 540.9 406.35 579.17 " stroke="#5C6B4E" stroke-width="2" fill="none" opacity="0.85"/><path d="M 523.82 157.29 Q 523.22 143.94 511.04 138.46 Q 511.63 151.8 523.82 157.29 Z" fill="#8C9A84"/><path d="M 523.82 157.29 L 511.04 138.46" stroke="#222C25" stroke-width="1" fill="none" stroke-linecap="round" opacity="0.5"/><path d="M 523.82 157.29 Q 536.37 161.98 547.64 154.74 Q 535.09 150.05 523.82 157.29 Z" fill="#A7B29F"/><path d="M 523.82 157.29 L 547.64 154.74" stroke="#222C25" stroke-width="1" fill="none" stroke-linecap="round" opacity="0.5"/><path d="M 503.18 194.58 Q 503.5 181.04 491.66 174.44 Q 491.34 187.98 503.18 194.58 Z" fill="#8C9A84"/><path d="M 503.18 194.58 L 491.66 174.44" stroke="#222C25" stroke-width="1" fill="none" stroke-linecap="round" opacity="0.5"/><path d="M 503.18 194.58 Q 510.74 204.01 522.71 202.28 Q 515.14 192.85 503.18 194.58 Z" fill="#A7B29F"/><path d="M 503.18 194.58 L 522.71 202.28" stroke="#222C25" stroke-width="1" fill="none" stroke-linecap="round" opacity="0.5"/><path d="M 509.57 231.87 Q 505.43 217.72 491.33 213.41 Q 495.47 227.56 509.57 231.87 Z" fill="#8C9A84"/><path d="M 509.57 231.87 L 491.33 213.41" stroke="#222C25" stroke-width="1" fill="none" stroke-linecap="round" opacity="0.5"/><path d="M 509.57 231.87 Q 520.86 235.61 529.66 227.62 Q 518.38 223.88 509.57 231.87 Z" fill="#A7B29F"/><path d="M 509.57 231.87 L 529.66 227.62" stroke="#222C25" stroke-width="1" fill="none" stroke-linecap="round" opacity="0.5"/><path d="M 536.02 269.16 Q 537.3 257.15 526.38 252 Q 525.09 264.01 536.02 269.16 Z" fill="#8C9A84"/><path d="M 536.02 269.16 L 526.38 252" stroke="#222C25" stroke-width="1" fill="none" stroke-linecap="round" opacity="0.5"/><path d="M 536.02 269.16 Q 545.24 278.21 557.93 275.78 Q 548.71 266.73 536.02 269.16 Z" fill="#A7B29F"/><path d="M 536.02 269.16 L 557.93 275.78" stroke="#222C25" stroke-width="1" fill="none" stroke-linecap="round" opacity="0.5"/><path d="M 553.61 306.45 Q 550.76 292 537.11 286.46 Q 539.96 300.91 553.61 306.45 Z" fill="#8C9A84"/><path d="M 553.61 306.45 L 537.11 286.46" stroke="#222C25" stroke-width="1" fill="none" stroke-linecap="round" opacity="0.5"/><path d="M 553.61 306.45 Q 560.5 316.86 572.98 316.65 Q 566.09 306.24 553.61 306.45 Z" fill="#A7B29F"/><path d="M 553.61 306.45 L 572.98 316.65" stroke="#222C25" stroke-width="1" fill="none" stroke-linecap="round" opacity="0.5"/><path d="M 543.13 343.74 Q 541.94 331.66 530.16 328.73 Q 531.35 340.81 543.13 343.74 Z" fill="#8C9A84"/><path d="M 543.13 343.74 L 530.16 328.73" stroke="#222C25" stroke-width="1" fill="none" stroke-linecap="round" opacity="0.5"/><path d="M 543.13 343.74 Q 551.13 353.59 563.76 352.37 Q 555.76 342.52 543.13 343.74 Z" fill="#A7B29F"/><path d="M 543.13 343.74 L 563.76 352.37" stroke="#222C25" stroke-width="1" fill="none" stroke-linecap="round" opacity="0.5"/><path d="M 527.92 120 Q 528.01 138.65 523.82 157.29 Q 522.25 175.94 503.18 194.58 Q 499.88 213.23 509.57 231.87 Q 520.93 250.52 536.02 269.16 Q 547.67 287.81 553.61 306.45 Q 548.17 325.1 543.13 343.74 " stroke="#5C6B4E" stroke-width="2" fill="none" opacity="0.85"/><path d="M 637.96 180.71 Q 631.64 169.21 618.54 169.94 Q 624.85 181.45 637.96 180.71 Z" fill="#8C9A84"/><path d="M 637.96 180.71 L 618.54 169.94" stroke="#222C25" stroke-width="1" fill="none" stroke-linecap="round" opacity="0.5"/><path d="M 637.96 180.71 Q 646.75 187.01 655.95 181.32 Q 647.16 175.02 637.96 180.71 Z" fill="#A7B29F"/><path d="M 637.96 180.71 L 655.95 181.32" stroke="#222C25" stroke-width="1" fill="none" stroke-linecap="round" opacity="0.5"/><path d="M 644.35 241.42 Q 637.68 231.52 626.17 234.75 Q 632.85 244.66 644.35 241.42 Z" fill="#8C9A84"/><path d="M 644.35 241.42 L 626.17 234.75" stroke="#222C25" stroke-width="1" fill="none" stroke-linecap="round" opacity="0.5"/><path d="M 644.35 241.42 Q 654.52 244.3 660.81 235.82 Q 650.65 232.94 644.35 241.42 Z" fill="#A7B29F"/><path d="M 644.35 241.42 L 660.81 235.82" stroke="#222C25" stroke-width="1" fill="none" stroke-linecap="round" opacity="0.5"/><path d="M 670.8 302.14 Q 672.89 287.96 661.89 278.77 Q 659.8 292.94 670.8 302.14 Z" fill="#8C9A84"/><path d="M 670.8 302.14 L 661.89 278.77" stroke="#222C25" stroke-width="1" fill="none" stroke-linecap="round" opacity="0.5"/><path d="M 670.8 302.14 Q 680.05 306.41 686.96 298.91 Q 677.71 294.64 670.8 302.14 Z" fill="#A7B29F"/><path d="M 670.8 302.14 L 686.96 298.91" stroke="#222C25" stroke-width="1" fill="none" stroke-linecap="round" opacity="0.5"/><path d="M 688.39 362.85 Q 688.18 349.82 676.29 344.49 Q 676.49 357.52 688.39 362.85 Z" fill="#8C9A84"/><path d="M 688.39 362.85 L 676.29 344.49" stroke="#222C25" stroke-width="1" fill="none" stroke-linecap="round" opacity="0.5"/><path d="M 688.39 362.85 Q 698.07 368.51 707.32 362.19 Q 697.65 356.52 688.39 362.85 Z" fill="#A7B29F"/><path d="M 688.39 362.85 L 707.32 362.19" stroke="#222C25" stroke-width="1" fill="none" stroke-linecap="round" opacity="0.5"/><path d="M 677.91 423.56 Q 678.05 409.8 666.06 403.05 Q 665.92 416.8 677.91 423.56 Z" fill="#8C9A84"/><path d="M 677.91 423.56 L 666.06 403.05" stroke="#222C25" stroke-width="1" fill="none" stroke-linecap="round" opacity="0.5"/><path d="M 677.91 423.56 Q 685.38 432.65 696.93 430.46 Q 689.46 421.37 677.91 423.56 Z" fill="#A7B29F"/><path d="M 677.91 423.56 L 696.93 430.46" stroke="#222C25" stroke-width="1" fill="none" stroke-linecap="round" opacity="0.5"/><path d="M 650.8 484.27 Q 645.52 472.12 632.29 471.49 Q 637.57 483.64 650.8 484.27 Z" fill="#8C9A84"/><path d="M 650.8 484.27 L 632.29 471.49" stroke="#222C25" stroke-width="1" fill="none" stroke-linecap="round" opacity="0.5"/><path d="M 650.8 484.27 Q 658.43 493.21 669.94 490.8 Q 662.31 481.86 650.8 484.27 Z" fill="#A7B29F"/><path d="M 650.8 484.27 L 669.94 490.8" stroke="#222C25" stroke-width="1" fill="none" stroke-linecap="round" opacity="0.5"/><path d="M 662.7 120 Q 649.93 150.36 637.96 180.71 Q 640.75 211.07 644.35 241.42 Q 650.51 271.78 670.8 302.14 Q 677.88 332.49 688.39 362.85 Q 688.4 393.2 677.91 423.56 Q 662.77 453.92 650.8 484.27 " stroke="#5C6B4E" stroke-width="2" fill="none" opacity="0.85"/><path d="M 789.06 167.6 Q 788.65 153.44 776.28 146.55 Q 776.68 160.71 789.06 167.6 Z" fill="#8C9A84"/><path d="M 789.06 167.6 L 776.28 146.55" stroke="#222C25" stroke-width="1" fill="none" stroke-linecap="round" opacity="0.5"/><path d="M 789.06 167.6 Q 798.99 173.23 808.48 166.86 Q 798.54 161.23 789.06 167.6 Z" fill="#A7B29F"/><path d="M 789.06 167.6 L 808.48 166.86" stroke="#222C25" stroke-width="1" fill="none" stroke-linecap="round" opacity="0.5"/><path d="M 815.5 215.19 Q 811.94 203.51 799.75 202.85 Q 803.31 214.53 815.5 215.19 Z" fill="#8C9A84"/><path d="M 815.5 215.19 L 799.75 202.85" stroke="#222C25" stroke-width="1" fill="none" stroke-linecap="round" opacity="0.5"/><path d="M 815.5 215.19 Q 822.52 224.41 833.94 222.46 Q 826.92 213.24 815.5 215.19 Z" fill="#A7B29F"/><path d="M 815.5 215.19 L 833.94 222.46" stroke="#222C25" stroke-width="1" fill="none" stroke-linecap="round" opacity="0.5"/><path d="M 833.09 262.79 Q 829.56 248.54 815.69 243.75 Q 819.22 257.99 833.09 262.79 Z" fill="#8C9A84"/><path d="M 833.09 262.79 L 815.69 243.75" stroke="#222C25" stroke-width="1" fill="none" stroke-linecap="round" opacity="0.5"/><path d="M 833.09 262.79 Q 843.15 268.25 852.56 261.74 Q 842.5 256.27 833.09 262.79 Z" fill="#A7B29F"/><path d="M 833.09 262.79 L 852.56 261.74" stroke="#222C25" stroke-width="1" fill="none" stroke-linecap="round" opacity="0.5"/><path d="M 822.61 310.38 Q 824.48 298.18 813.76 292.06 Q 811.88 304.27 822.61 310.38 Z" fill="#8C9A84"/><path d="M 822.61 310.38 L 813.76 292.06" stroke="#222C25" stroke-width="1" fill="none" stroke-linecap="round" opacity="0.5"/><path d="M 822.61 310.38 Q 828.64 320.65 840.55 320.45 Q 834.52 310.18 822.61 310.38 Z" fill="#A7B29F"/><path d="M 822.61 310.38 L 840.55 320.45" stroke="#222C25" stroke-width="1" fill="none" stroke-linecap="round" opacity="0.5"/><path d="M 795.5 357.98 Q 791.99 345.44 779.14 343.32 Q 782.65 355.87 795.5 357.98 Z" fill="#8C9A84"/><path d="M 795.5 357.98 L 779.14 343.32" stroke="#222C25" stroke-width="1" fill="none" stroke-linecap="round" opacity="0.5"/><path d="M 795.5 357.98 Q 802.47 368.17 814.81 367.62 Q 807.84 357.43 795.5 357.98 Z" fill="#A7B29F"/><path d="M 795.5 357.98 L 814.81 367.62" stroke="#222C25" stroke-width="1" fill="none" stroke-linecap="round" opacity="0.5"/><path d="M 781.4 405.57 Q 774.44 393.92 760.89 394.61 Q 767.84 406.26 781.4 405.57 Z" fill="#8C9A84"/><path d="M 781.4 405.57 L 760.89 394.61" stroke="#222C25" stroke-width="1" fill="none" stroke-linecap="round" opacity="0.5"/><path d="M 781.4 405.57 Q 792.22 411.48 802.95 405.4 Q 792.13 399.49 781.4 405.57 Z" fill="#A7B29F"/><path d="M 781.4 405.57 L 802.95 405.4" stroke="#222C25" stroke-width="1" fill="none" stroke-linecap="round" opacity="0.5"/><path d="M 807.4 120 Q 804.11 143.8 789.06 167.6 Q 809.84 191.39 815.5 215.19 Q 822.57 238.99 833.09 262.79 Q 828.52 286.58 822.61 310.38 Q 815.19 334.18 795.5 357.98 Q 789.36 381.77 781.4 405.57 " stroke="#5C6B4E" stroke-width="2" fill="none" opacity="0.85"/><ellipse cx="450" cy="1138" rx="230" ry="34" fill="#222C25" opacity="0.10"/><path d="M 410 980 Q 375.5 743.5 260 550" stroke="#5C6B4E" stroke-width="3" fill="none" stroke-linecap="round"/><path d="M 398.49 913.31 Q 364.12 900.37 337.98 926.17 Q 372.35 939.1 398.49 913.31 Z" fill="#6E7C66"/><path d="M 398.49 913.31 L 337.98 926.17" stroke="#222C25" stroke-width="1" fill="none" stroke-linecap="round" opacity="0.5"/><path d="M 398.49 913.31 Q 407.76 877.77 379.38 854.48 Q 370.11 890.01 398.49 913.31 Z" fill="#6E7C66"/><path d="M 398.49 913.31 L 379.38 854.48" stroke="#222C25" stroke-width="1" fill="none" stroke-linecap="round" opacity="0.5"/><path d="M 383.67 848.37 Q 349.38 835.46 323.29 861.2 Q 357.59 874.11 383.67 848.37 Z" fill="#6E7C66"/><path d="M 383.67 848.37 L 323.29 861.2" stroke="#222C25" stroke-width="1" fill="none" stroke-linecap="round" opacity="0.5"/><path d="M 383.67 848.37 Q 392.92 812.91 364.6 789.66 Q 355.35 825.12 383.67 848.37 Z" fill="#6E7C66"/><path d="M 383.67 848.37 L 364.6 789.66" stroke="#222C25" stroke-width="1" fill="none" stroke-linecap="round" opacity="0.5"/><path d="M 365.55 785.18 Q 337.85 774.76 316.78 795.55 Q 344.48 805.97 365.55 785.18 Z" fill="#6E7C66"/><path d="M 365.55 785.18 L 316.78 795.55" stroke="#222C25" stroke-width="1" fill="none" stroke-linecap="round" opacity="0.5"/><path d="M 365.55 785.18 Q 373.02 756.55 350.14 737.77 Q 342.67 766.41 365.55 785.18 Z" fill="#6E7C66"/><path d="M 365.55 785.18 L 350.14 737.77" stroke="#222C25" stroke-width="1" fill="none" stroke-linecap="round" opacity="0.5"/><path d="M 344.12 723.76 Q 319.33 714.43 300.47 733.03 Q 325.27 742.36 344.12 723.76 Z" fill="#6E7C66"/><path d="M 344.12 723.76 L 300.47 733.03" stroke="#222C25" stroke-width="1" fill="none" stroke-linecap="round" opacity="0.5"/><path d="M 344.12 723.76 Q 350.81 698.12 330.33 681.31 Q 323.65 706.95 344.12 723.76 Z" fill="#6E7C66"/><path d="M 344.12 723.76 L 330.33 681.31" stroke="#222C25" stroke-width="1" fill="none" stroke-linecap="round" opacity="0.5"/><path d="M 319.39 664.08 Q 298.22 656.12 282.13 672 Q 303.29 679.97 319.39 664.08 Z" fill="#6E7C66"/><path d="M 319.39 664.08 L 282.13 672" stroke="#222C25" stroke-width="1" fill="none" stroke-linecap="round" opacity="0.5"/><path d="M 319.39 664.08 Q 325.1 642.2 307.62 627.85 Q 301.91 649.73 319.39 664.08 Z" fill="#6E7C66"/><path d="M 319.39 664.08 L 307.62 627.85" stroke="#222C25" stroke-width="1" fill="none" stroke-linecap="round" opacity="0.5"/><path d="M 291.35 606.16 Q 268.3 597.49 250.78 614.79 Q 273.82 623.46 291.35 606.16 Z" fill="#6E7C66"/><path d="M 291.35 606.16 L 250.78 614.79" stroke="#222C25" stroke-width="1" fill="none" stroke-linecap="round" opacity="0.5"/><path d="M 291.35 606.16 Q 297.56 582.34 278.53 566.72 Q 272.31 590.54 291.35 606.16 Z" fill="#6E7C66"/><path d="M 291.35 606.16 L 278.53 566.72" stroke="#222C25" stroke-width="1" fill="none" stroke-linecap="round" opacity="0.5"/><path d="M 260 550 Q 247.64 526.61 221.2 527.6 Q 233.56 550.99 260 550 Z" fill="#6E7C66"/><path d="M 260 550 L 221.2 527.6" stroke="#222C25" stroke-width="1" fill="none" stroke-linecap="round" opacity="0.5"/><path d="M 490 980 Q 524.5 721.5 640 510" stroke="#5C6B4E" stroke-width="3" fill="none" stroke-linecap="round"/><path d="M 501.51 907.1 Q 531.11 936.32 570.04 921.67 Q 540.44 892.46 501.51 907.1 Z" fill="#5C6B4E"/><path d="M 501.51 907.1 L 570.04 921.67" stroke="#222C25" stroke-width="1" fill="none" stroke-linecap="round" opacity="0.5"/><path d="M 501.51 907.1 Q 533.66 880.71 523.16 840.47 Q 491.01 866.86 501.51 907.1 Z" fill="#5C6B4E"/><path d="M 501.51 907.1 L 523.16 840.47" stroke="#222C25" stroke-width="1" fill="none" stroke-linecap="round" opacity="0.5"/><path d="M 516.33 836.12 Q 545.69 865.1 584.31 850.57 Q 554.94 821.59 516.33 836.12 Z" fill="#5C6B4E"/><path d="M 516.33 836.12 L 584.31 850.57" stroke="#222C25" stroke-width="1" fill="none" stroke-linecap="round" opacity="0.5"/><path d="M 516.33 836.12 Q 548.22 809.94 537.8 770.02 Q 505.91 796.2 516.33 836.12 Z" fill="#5C6B4E"/><path d="M 516.33 836.12 L 537.8 770.02" stroke="#222C25" stroke-width="1" fill="none" stroke-linecap="round" opacity="0.5"/><path d="M 534.45 767.06 Q 557.01 789.33 586.69 778.16 Q 564.12 755.9 534.45 767.06 Z" fill="#5C6B4E"/><path d="M 534.45 767.06 L 586.69 778.16" stroke="#222C25" stroke-width="1" fill="none" stroke-linecap="round" opacity="0.5"/><path d="M 534.45 767.06 Q 558.95 746.95 550.95 716.27 Q 526.45 736.38 534.45 767.06 Z" fill="#5C6B4E"/><path d="M 534.45 767.06 L 550.95 716.27" stroke="#222C25" stroke-width="1" fill="none" stroke-linecap="round" opacity="0.5"/><path d="M 555.88 699.92 Q 576.27 720.04 603.07 709.95 Q 582.69 689.83 555.88 699.92 Z" fill="#5C6B4E"/><path d="M 555.88 699.92 L 603.07 709.95" stroke="#222C25" stroke-width="1" fill="none" stroke-linecap="round" opacity="0.5"/><path d="M 555.88 699.92 Q 578.02 681.75 570.79 654.03 Q 548.65 672.2 555.88 699.92 Z" fill="#5C6B4E"/><path d="M 555.88 699.92 L 570.79 654.03" stroke="#222C25" stroke-width="1" fill="none" stroke-linecap="round" opacity="0.5"/><path d="M 580.61 634.69 Q 598.08 651.93 621.04 643.29 Q 603.58 626.05 580.61 634.69 Z" fill="#5C6B4E"/><path d="M 580.61 634.69 L 621.04 643.29" stroke="#222C25" stroke-width="1" fill="none" stroke-linecap="round" opacity="0.5"/><path d="M 580.61 634.69 Q 599.58 619.13 593.39 595.38 Q 574.42 610.95 580.61 634.69 Z" fill="#5C6B4E"/><path d="M 580.61 634.69 L 593.39 595.38" stroke="#222C25" stroke-width="1" fill="none" stroke-linecap="round" opacity="0.5"/><path d="M 608.65 571.39 Q 628.02 590.5 653.49 580.92 Q 634.12 561.8 608.65 571.39 Z" fill="#5C6B4E"/><path d="M 608.65 571.39 L 653.49 580.92" stroke="#222C25" stroke-width="1" fill="none" stroke-linecap="round" opacity="0.5"/><path d="M 608.65 571.39 Q 629.69 554.12 622.82 527.79 Q 601.78 545.06 608.65 571.39 Z" fill="#5C6B4E"/><path d="M 608.65 571.39 L 622.82 527.79" stroke="#222C25" stroke-width="1" fill="none" stroke-linecap="round" opacity="0.5"/><path d="M 640 510 Q 668.92 511.09 682.44 485.5 Q 653.52 484.41 640 510 Z" fill="#5C6B4E"/><path d="M 640 510 L 682.44 485.5" stroke="#222C25" stroke-width="1" fill="none" stroke-linecap="round" opacity="0.5"/><path d="M 450 970 Q 471.5 684 460 450" stroke="#5C6B4E" stroke-width="3" fill="none" stroke-linecap="round"/><path d="M 454.86 899.31 Q 450.59 854.02 407.68 838.92 Q 411.94 884.22 454.86 899.31 Z" fill="#8C9A84"/><path d="M 454.86 899.31 L 407.68 838.92" stroke="#222C25" stroke-width="1" fill="none" stroke-linecap="round" opacity="0.5"/><path d="M 454.86 899.31 Q 499.46 890.34 509.99 846.08 Q 465.39 855.05 454.86 899.31 Z" fill="#8C9A84"/><path d="M 454.86 899.31 L 509.99 846.08" stroke="#222C25" stroke-width="1" fill="none" stroke-linecap="round" opacity="0.5"/><path d="M 458.69 830.25 Q 454.83 789.26 415.99 775.6 Q 419.85 816.59 458.69 830.25 Z" fill="#8C9A84"/><path d="M 458.69 830.25 L 415.99 775.6" stroke="#222C25" stroke-width="1" fill="none" stroke-linecap="round" opacity="0.5"/><path d="M 458.69 830.25 Q 499.05 822.13 508.57 782.08 Q 468.21 790.2 458.69 830.25 Z" fill="#8C9A84"/><path d="M 458.69 830.25 L 508.57 782.08" stroke="#222C25" stroke-width="1" fill="none" stroke-linecap="round" opacity="0.5"/><path d="M 461.48 762.81 Q 457.82 723.95 421 711 Q 424.66 749.86 461.48 762.81 Z" fill="#8C9A84"/><path d="M 461.48 762.81 L 421 711" stroke="#222C25" stroke-width="1" fill="none" stroke-linecap="round" opacity="0.5"/><path d="M 461.48 762.81 Q 499.75 755.11 508.78 717.14 Q 470.52 724.84 461.48 762.81 Z" fill="#8C9A84"/><path d="M 461.48 762.81 L 508.78 717.14" stroke="#222C25" stroke-width="1" fill="none" stroke-linecap="round" opacity="0.5"/><path d="M 463.25 697 Q 459.71 659.44 424.13 646.92 Q 427.66 684.48 463.25 697 Z" fill="#8C9A84"/><path d="M 463.25 697 L 424.13 646.92" stroke="#222C25" stroke-width="1" fill="none" stroke-linecap="round" opacity="0.5"/><path d="M 463.25 697 Q 500.23 689.56 508.96 652.86 Q 471.98 660.3 463.25 697 Z" fill="#8C9A84"/><path d="M 463.25 697 L 508.96 652.86" stroke="#222C25" stroke-width="1" fill="none" stroke-linecap="round" opacity="0.5"/><path d="M 463.98 632.81 Q 461.34 604.74 434.74 595.38 Q 437.38 623.45 463.98 632.81 Z" fill="#8C9A84"/><path d="M 463.98 632.81 L 434.74 595.38" stroke="#222C25" stroke-width="1" fill="none" stroke-linecap="round" opacity="0.5"/><path d="M 463.98 632.81 Q 491.63 627.25 498.16 599.81 Q 470.51 605.38 463.98 632.81 Z" fill="#8C9A84"/><path d="M 463.98 632.81 L 498.16 599.81" stroke="#222C25" stroke-width="1" fill="none" stroke-linecap="round" opacity="0.5"/><path d="M 463.69 570.25 Q 460.65 538.01 430.1 527.26 Q 433.14 559.5 463.69 570.25 Z" fill="#8C9A84"/><path d="M 463.69 570.25 L 430.1 527.26" stroke="#222C25" stroke-width="1" fill="none" stroke-linecap="round" opacity="0.5"/><path d="M 463.69 570.25 Q 495.43 563.86 502.93 532.36 Q 471.18 538.75 463.69 570.25 Z" fill="#8C9A84"/><path d="M 463.69 570.25 L 502.93 532.36" stroke="#222C25" stroke-width="1" fill="none" stroke-linecap="round" opacity="0.5"/><path d="M 462.36 509.31 Q 460.09 485.2 437.24 477.16 Q 439.51 501.27 462.36 509.31 Z" fill="#8C9A84"/><path d="M 462.36 509.31 L 437.24 477.16" stroke="#222C25" stroke-width="1" fill="none" stroke-linecap="round" opacity="0.5"/><path d="M 462.36 509.31 Q 486.11 504.53 491.71 480.97 Q 467.96 485.75 462.36 509.31 Z" fill="#8C9A84"/><path d="M 462.36 509.31 L 491.71 480.97" stroke="#222C25" stroke-width="1" fill="none" stroke-linecap="round" opacity="0.5"/><path d="M 460 450 Q 477.56 425.97 463.52 399.72 Q 445.96 423.76 460 450 Z" fill="#8C9A84"/><path d="M 460 450 L 463.52 399.72" stroke="#222C25" stroke-width="1" fill="none" stroke-linecap="round" opacity="0.5"/><path d="M 340 980 Q 270.5 782 90 620" stroke="#5C6B4E" stroke-width="3" fill="none" stroke-linecap="round"/><path d="M 313.75 915 Q 284.41 925.32 281.49 956.29 Q 310.83 945.97 313.75 915 Z" fill="#A7B29F"/><path d="M 313.75 915 L 281.49 956.29" stroke="#222C25" stroke-width="1" fill="none" stroke-linecap="round" opacity="0.5"/><path d="M 313.75 915 Q 300.42 886.9 269.31 887.23 Q 282.65 915.34 313.75 915 Z" fill="#A7B29F"/><path d="M 313.75 915 L 269.31 887.23" stroke="#222C25" stroke-width="1" fill="none" stroke-linecap="round" opacity="0.5"/><path d="M 281.33 852 Q 255.55 861.07 252.99 888.28 Q 278.77 879.21 281.33 852 Z" fill="#A7B29F"/><path d="M 281.33 852 L 252.99 888.28" stroke="#222C25" stroke-width="1" fill="none" stroke-linecap="round" opacity="0.5"/><path d="M 281.33 852 Q 269.62 827.3 242.29 827.6 Q 254 852.3 281.33 852 Z" fill="#A7B29F"/><path d="M 281.33 852 L 242.29 827.6" stroke="#222C25" stroke-width="1" fill="none" stroke-linecap="round" opacity="0.5"/><path d="M 242.75 791 Q 216.89 800.1 214.32 827.39 Q 240.18 818.29 242.75 791 Z" fill="#A7B29F"/><path d="M 242.75 791 L 214.32 827.39" stroke="#222C25" stroke-width="1" fill="none" stroke-linecap="round" opacity="0.5"/><path d="M 242.75 791 Q 231 766.23 203.59 766.53 Q 215.34 791.3 242.75 791 Z" fill="#A7B29F"/><path d="M 242.75 791 L 203.59 766.53" stroke="#222C25" stroke-width="1" fill="none" stroke-linecap="round" opacity="0.5"/><path d="M 198 732 Q 174.34 740.32 171.98 765.3 Q 195.65 756.98 198 732 Z" fill="#A7B29F"/><path d="M 198 732 L 171.98 765.3" stroke="#222C25" stroke-width="1" fill="none" stroke-linecap="round" opacity="0.5"/><path d="M 198 732 Q 187.25 709.34 162.16 709.61 Q 172.92 732.27 198 732 Z" fill="#A7B29F"/><path d="M 198 732 L 162.16 709.61" stroke="#222C25" stroke-width="1" fill="none" stroke-linecap="round" opacity="0.5"/><path d="M 147.08 675 Q 126.76 682.15 124.74 703.6 Q 145.06 696.45 147.08 675 Z" fill="#A7B29F"/><path d="M 147.08 675 L 124.74 703.6" stroke="#222C25" stroke-width="1" fill="none" stroke-linecap="round" opacity="0.5"/><path d="M 147.08 675 Q 137.85 655.53 116.3 655.76 Q 125.54 675.23 147.08 675 Z" fill="#A7B29F"/><path d="M 147.08 675 L 116.3 655.76" stroke="#222C25" stroke-width="1" fill="none" stroke-linecap="round" opacity="0.5"/><path d="M 90 620 Q 68.56 611.27 51.4 626.81 Q 72.84 635.54 90 620 Z" fill="#A7B29F"/><path d="M 90 620 L 51.4 626.81" stroke="#222C25" stroke-width="1" fill="none" stroke-linecap="round" opacity="0.5"/><path d="M 560 980 Q 629.5 771 810 600" stroke="#5C6B4E" stroke-width="3" fill="none" stroke-linecap="round"/><path d="M 586.25 911.39 Q 589.44 945.24 621.51 956.53 Q 618.33 922.67 586.25 911.39 Z" fill="#8C9A84"/><path d="M 586.25 911.39 L 621.51 956.53" stroke="#222C25" stroke-width="1" fill="none" stroke-linecap="round" opacity="0.5"/><path d="M 586.25 911.39 Q 620.25 911.76 634.83 881.04 Q 600.82 880.67 586.25 911.39 Z" fill="#8C9A84"/><path d="M 586.25 911.39 L 634.83 881.04" stroke="#222C25" stroke-width="1" fill="none" stroke-linecap="round" opacity="0.5"/><path d="M 618.67 844.89 Q 621.51 875.09 650.13 885.15 Q 647.28 854.95 618.67 844.89 Z" fill="#8C9A84"/><path d="M 618.67 844.89 L 650.13 885.15" stroke="#222C25" stroke-width="1" fill="none" stroke-linecap="round" opacity="0.5"/><path d="M 618.67 844.89 Q 649 845.22 662 817.81 Q 631.67 817.48 618.67 844.89 Z" fill="#8C9A84"/><path d="M 618.67 844.89 L 662 817.81" stroke="#222C25" stroke-width="1" fill="none" stroke-linecap="round" opacity="0.5"/><path d="M 657.25 780.5 Q 659.82 807.82 685.71 816.92 Q 683.13 789.61 657.25 780.5 Z" fill="#8C9A84"/><path d="M 657.25 780.5 L 685.71 816.92" stroke="#222C25" stroke-width="1" fill="none" stroke-linecap="round" opacity="0.5"/><path d="M 657.25 780.5 Q 684.69 780.8 696.45 756.01 Q 669.01 755.71 657.25 780.5 Z" fill="#8C9A84"/><path d="M 657.25 780.5 L 696.45 756.01" stroke="#222C25" stroke-width="1" fill="none" stroke-linecap="round" opacity="0.5"/><path d="M 702 718.22 Q 704.11 740.58 725.29 748.03 Q 723.18 725.67 702 718.22 Z" fill="#8C9A84"/><path d="M 702 718.22 L 725.29 748.03" stroke="#222C25" stroke-width="1" fill="none" stroke-linecap="round" opacity="0.5"/><path d="M 702 718.22 Q 724.45 718.46 734.07 698.18 Q 711.62 697.94 702 718.22 Z" fill="#8C9A84"/><path d="M 702 718.22 L 734.07 698.18" stroke="#222C25" stroke-width="1" fill="none" stroke-linecap="round" opacity="0.5"/><path d="M 752.92 658.06 Q 755.14 681.61 777.46 689.47 Q 775.24 665.91 752.92 658.06 Z" fill="#8C9A84"/><path d="M 752.92 658.06 L 777.46 689.47" stroke="#222C25" stroke-width="1" fill="none" stroke-linecap="round" opacity="0.5"/><path d="M 752.92 658.06 Q 776.58 658.31 786.72 636.93 Q 763.06 636.68 752.92 658.06 Z" fill="#8C9A84"/><path d="M 752.92 658.06 L 786.72 636.93" stroke="#222C25" stroke-width="1" fill="none" stroke-linecap="round" opacity="0.5"/><path d="M 810 600 Q 827.78 616.09 849.98 607.05 Q 832.21 590.96 810 600 Z" fill="#8C9A84"/><path d="M 810 600 L 849.98 607.05" stroke="#222C25" stroke-width="1" fill="none" stroke-linecap="round" opacity="0.5"/>
	<path d="M 320 940 L 580 940 L 550 1130 L 350 1130 Z" fill="#C27B66"/>
	<path d="M 450 940 L 550 1130 L 350 1130 L 450 940 Z" fill="#A8624E" opacity="0.35"/>
	<rect x="304.4" y="909.6" width="291.2" height="31.92" rx="12.16" fill="#A8624E"/><path d="M 40 1170 Q 43 972 100 810" stroke="#5C6B4E" stroke-width="3" fill="none" stroke-linecap="round"/><path d="M 41.96 1114.16 Q 69.28 1118.3 84.48 1095.23 Q 57.16 1091.09 41.96 1114.16 Z" fill="#6E7C66"/><path d="M 41.96 1114.16 L 84.48 1095.23" stroke="#222C25" stroke-width="1" fill="none" stroke-linecap="round" opacity="0.5"/><path d="M 41.96 1114.16 Q 48.93 1087.43 27.58 1069.9 Q 20.6 1096.63 41.96 1114.16 Z" fill="#6E7C66"/><path d="M 41.96 1114.16 L 27.58 1069.9" stroke="#222C25" stroke-width="1" fill="none" stroke-linecap="round" opacity="0.5"/><path d="M 46.12 1059.8 Q 68.93 1063.25 81.63 1043.99 Q 58.82 1040.53 46.12 1059.8 Z" fill="#6E7C66"/><path d="M 46.12 1059.8 L 81.63 1043.99" stroke="#222C25" stroke-width="1" fill="none" stroke-linecap="round" opacity="0.5"/><path d="M 46.12 1059.8 Q 51.95 1037.47 34.11 1022.83 Q 28.29 1045.16 46.12 1059.8 Z" fill="#6E7C66"/><path d="M 46.12 1059.8 L 34.11 1022.83" stroke="#222C25" stroke-width="1" fill="none" stroke-linecap="round" opacity="0.5"/><path d="M 52.49 1006.9 Q 77.76 1010.73 91.82 989.39 Q 66.55 985.56 52.49 1006.9 Z" fill="#6E7C66"/><path d="M 52.49 1006.9 L 91.82 989.39" stroke="#222C25" stroke-width="1" fill="none" stroke-linecap="round" opacity="0.5"/><path d="M 52.49 1006.9 Q 58.94 982.17 39.19 965.95 Q 32.74 990.68 52.49 1006.9 Z" fill="#6E7C66"/><path d="M 52.49 1006.9 L 39.19 965.95" stroke="#222C25" stroke-width="1" fill="none" stroke-linecap="round" opacity="0.5"/><path d="M 61.06 955.47 Q 82.63 958.74 94.63 940.53 Q 73.06 937.26 61.06 955.47 Z" fill="#6E7C66"/><path d="M 61.06 955.47 L 94.63 940.53" stroke="#222C25" stroke-width="1" fill="none" stroke-linecap="round" opacity="0.5"/><path d="M 61.06 955.47 Q 66.57 934.37 49.71 920.53 Q 44.2 941.63 61.06 955.47 Z" fill="#6E7C66"/><path d="M 61.06 955.47 L 49.71 920.53" stroke="#222C25" stroke-width="1" fill="none" stroke-linecap="round" opacity="0.5"/><path d="M 71.84 905.51 Q 92.11 908.58 103.39 891.46 Q 83.12 888.39 71.84 905.51 Z" fill="#6E7C66"/><path d="M 71.84 905.51 L 103.39 891.46" stroke="#222C25" stroke-width="1" fill="none" stroke-linecap="round" opacity="0.5"/><path d="M 71.84 905.51 Q 77.01 885.67 61.16 872.67 Q 55.99 892.5 71.84 905.51 Z" fill="#6E7C66"/><path d="M 71.84 905.51 L 61.16 872.67" stroke="#222C25" stroke-width="1" fill="none" stroke-linecap="round" opacity="0.5"/><path d="M 84.82 857.02 Q 103.12 859.79 113.31 844.34 Q 95 841.56 84.82 857.02 Z" fill="#6E7C66"/><path d="M 84.82 857.02 L 113.31 844.34" stroke="#222C25" stroke-width="1" fill="none" stroke-linecap="round" opacity="0.5"/><path d="M 84.82 857.02 Q 89.49 839.11 75.18 827.36 Q 70.51 845.27 84.82 857.02 Z" fill="#6E7C66"/><path d="M 84.82 857.02 L 75.18 827.36" stroke="#222C25" stroke-width="1" fill="none" stroke-linecap="round" opacity="0.5"/><path d="M 100 810 Q 117.17 798.49 114.24 778.03 Q 97.07 789.54 100 810 Z" fill="#6E7C66"/><path d="M 100 810 L 114.24 778.03" stroke="#222C25" stroke-width="1" fill="none" stroke-linecap="round" opacity="0.5"/><path d="M 860 1170 Q 857 972 800 810" stroke="#5C6B4E" stroke-width="3" fill="none" stroke-linecap="round"/><path d="M 858.04 1114.16 Q 840.98 1088.27 810.32 1092.92 Q 827.38 1118.81 858.04 1114.16 Z" fill="#5C6B4E"/><path d="M 858.04 1114.16 L 810.32 1092.92" stroke="#222C25" stroke-width="1" fill="none" stroke-linecap="round" opacity="0.5"/><path d="M 858.04 1114.16 Q 882.01 1094.49 874.18 1064.49 Q 850.21 1084.16 858.04 1114.16 Z" fill="#5C6B4E"/><path d="M 858.04 1114.16 L 874.18 1064.49" stroke="#222C25" stroke-width="1" fill="none" stroke-linecap="round" opacity="0.5"/><path d="M 853.88 1059.8 Q 837.71 1035.26 808.66 1039.67 Q 824.83 1064.2 853.88 1059.8 Z" fill="#5C6B4E"/><path d="M 853.88 1059.8 L 808.66 1039.67" stroke="#222C25" stroke-width="1" fill="none" stroke-linecap="round" opacity="0.5"/><path d="M 853.88 1059.8 Q 876.59 1041.15 869.17 1012.73 Q 846.46 1031.37 853.88 1059.8 Z" fill="#5C6B4E"/><path d="M 853.88 1059.8 L 869.17 1012.73" stroke="#222C25" stroke-width="1" fill="none" stroke-linecap="round" opacity="0.5"/><path d="M 847.51 1006.9 Q 835.7 988.97 814.48 992.19 Q 826.29 1010.11 847.51 1006.9 Z" fill="#5C6B4E"/><path d="M 847.51 1006.9 L 814.48 992.19" stroke="#222C25" stroke-width="1" fill="none" stroke-linecap="round" opacity="0.5"/><path d="M 847.51 1006.9 Q 864.1 993.28 858.68 972.51 Q 842.09 986.13 847.51 1006.9 Z" fill="#5C6B4E"/><path d="M 847.51 1006.9 L 858.68 972.51" stroke="#222C25" stroke-width="1" fill="none" stroke-linecap="round" opacity="0.5"/><path d="M 838.94 955.47 Q 828.26 939.26 809.06 942.17 Q 819.74 958.38 838.94 955.47 Z" fill="#5C6B4E"/><path d="M 838.94 955.47 L 809.06 942.17" stroke="#222C25" stroke-width="1" fill="none" stroke-linecap="round" opacity="0.5"/><path d="M 838.94 955.47 Q 853.95 943.15 849.05 924.36 Q 834.04 936.68 838.94 955.47 Z" fill="#5C6B4E"/><path d="M 838.94 955.47 L 849.05 924.36" stroke="#222C25" stroke-width="1" fill="none" stroke-linecap="round" opacity="0.5"/><path d="M 828.16 905.51 Q 817.79 889.77 799.15 892.59 Q 809.52 908.34 828.16 905.51 Z" fill="#5C6B4E"/><path d="M 828.16 905.51 L 799.15 892.59" stroke="#222C25" stroke-width="1" fill="none" stroke-linecap="round" opacity="0.5"/><path d="M 828.16 905.51 Q 842.74 893.55 837.98 875.3 Q 823.4 887.27 828.16 905.51 Z" fill="#5C6B4E"/><path d="M 828.16 905.51 L 837.98 875.3" stroke="#222C25" stroke-width="1" fill="none" stroke-linecap="round" opacity="0.5"/><path d="M 815.18 857.02 Q 805.08 841.69 786.92 844.44 Q 797.03 859.77 815.18 857.02 Z" fill="#5C6B4E"/><path d="M 815.18 857.02 L 786.92 844.44" stroke="#222C25" stroke-width="1" fill="none" stroke-linecap="round" opacity="0.5"/><path d="M 815.18 857.02 Q 829.38 845.37 824.74 827.6 Q 810.55 839.25 815.18 857.02 Z" fill="#5C6B4E"/><path d="M 815.18 857.02 L 824.74 827.6" stroke="#222C25" stroke-width="1" fill="none" stroke-linecap="round" opacity="0.5"/><path d="M 800 810 Q 802.93 789.54 785.76 778.03 Q 782.83 798.49 800 810 Z" fill="#5C6B4E"/><path d="M 800 810 L 785.76 778.03" stroke="#222C25" stroke-width="1" fill="none" stroke-linecap="round" opacity="0.5"/><rect width="900" height="1200" filter="url(#grain-hero)" opacity="0.05"/></g><path d="M 0 1200 L 0 120 A 450 450 0 0 1 900 120 L 900 1200 Z" fill="none" stroke="#E6E2DA" stroke-width="2"/><path d="M 14 1200 L 14 126 A 436 436 0 0 1 886 126 L 886 1200" fill="none" stroke="#DCCFC2" stroke-width="1.5" opacity="0.7"/>
</svg>
