<svg xmlns="http://www.w3.org/2000/svg" viewBox="0 0 800 600" width="800" height="600" preserveAspectRatio="xMidYMid slice">
<defs><filter id="grain-jrn401"><feTurbulence type="fractalNoise" baseFrequency="0.9" numOctaves="3" stitchTiles="stitch"/><feColorMatrix type="saturate" values="0"/></filter><linearGradient id="jbjrn401" x1="0" y1="0" x2="0.4" y2="1"><stop offset="0" stop-color="#E8DFD4"/><stop offset="1" stop-color="#F2F0EB"/></linearGradient></defs>
<rect width="800" height="600" fill="url(#jbjrn401)"/><path d="M 160 560 Q 255 362 380 200" stroke="#5C6B4E" stroke-width="3" fill="none" stroke-linecap="round"/><path d="M 181.48 516.44 Q 207.83 511.14 214.05 484.99 Q 187.7 490.3 181.48 516.44 Z" fill="#6E7C66"/><path d="M 181.48 516.44 L 214.05 484.99" stroke="#222C25" stroke-width="1" fill="none" stroke-linecap="round" opacity="0.5"/><path d="M 181.48 516.44 Q 189.51 542.1 216.17 545.55 Q 208.14 519.9 181.48 516.44 Z" fill="#6E7C66"/><path d="M 181.48 516.44 L 216.17 545.55" stroke="#222C25" stroke-width="1" fill="none" stroke-linecap="round" opacity="0.5"/><path d="M 203.7 473.78 Q 231.92 468.1 238.58 440.09 Q 210.37 445.77 203.7 473.78 Z" fill="#6E7C66"/><path d="M 203.7 473.78 L 238.58 440.09" stroke="#222C25" stroke-width="1" fill="none" stroke-linecap="round" opacity="0.5"/><path d="M 203.7 473.78 Q 212.3 501.25 240.85 504.95 Q 232.25 477.48 203.7 473.78 Z" fill="#6E7C66"/><path d="M 203.7 473.78 L 240.85 504.95" stroke="#222C25" stroke-width="1" fill="none" stroke-linecap="round" opacity="0.5"/><path d="M 226.67 432 Q 250.97 427.11 256.71 402.99 Q 232.4 407.88 226.67 432 Z" fill="#6E7C66"/><path d="M 226.67 432 L 256.71 402.99" stroke="#222C25" stroke-width="1" fill="none" stroke-linecap="round" opacity="0.5"/><path d="M 226.67 432 Q 234.07 455.66 258.66 458.84 Q 251.25 435.18 226.67 432 Z" fill="#6E7C66"/><path d="M 226.67 432 L 258.66 458.84" stroke="#222C25" stroke-width="1" fill="none" stroke-linecap="round" opacity="0.5"/><path d="M 250.37 391.11 Q 276.41 385.87 282.55 360.03 Q 256.52 365.27 250.37 391.11 Z" fill="#6E7C66"/><path d="M 250.37 391.11 L 282.55 360.03" stroke="#222C25" stroke-width="1" fill="none" stroke-linecap="round" opacity="0.5"/><path d="M 250.37 391.11 Q 258.3 416.46 284.64 419.87 Q 276.71 394.52 250.37 391.11 Z" fill="#6E7C66"/><path d="M 250.37 391.11 L 284.64 419.87" stroke="#222C25" stroke-width="1" fill="none" stroke-linecap="round" opacity="0.5"/><path d="M 274.81 351.11 Q 294.17 347.22 298.73 328.01 Q 279.38 331.91 274.81 351.11 Z" fill="#6E7C66"/><path d="M 274.81 351.11 L 298.73 328.01" stroke="#222C25" stroke-width="1" fill="none" stroke-linecap="round" opacity="0.5"/><path d="M 274.81 351.11 Q 280.71 369.95 300.29 372.49 Q 294.39 353.65 274.81 351.11 Z" fill="#6E7C66"/><path d="M 274.81 351.11 L 300.29 372.49" stroke="#222C25" stroke-width="1" fill="none" stroke-linecap="round" opacity="0.5"/><path d="M 300 312 Q 321.51 307.67 326.59 286.32 Q 305.08 290.65 300 312 Z" fill="#6E7C66"/><path d="M 300 312 L 326.59 286.32" stroke="#222C25" stroke-width="1" fill="none" stroke-linecap="round" opacity="0.5"/><path d="M 300 312 Q 306.55 332.94 328.31 335.76 Q 321.76 314.82 300 312 Z" fill="#6E7C66"/><path d="M 300 312 L 328.31 335.76" stroke="#222C25" stroke-width="1" fill="none" stroke-linecap="round" opacity="0.5"/><path d="M 325.93 273.78 Q 342.28 270.49 346.14 254.26 Q 329.79 257.55 325.93 273.78 Z" fill="#6E7C66"/><path d="M 325.93 273.78 L 346.14 254.26" stroke="#222C25" stroke-width="1" fill="none" stroke-linecap="round" opacity="0.5"/><path d="M 325.93 273.78 Q 330.91 289.7 347.45 291.84 Q 342.47 275.92 325.93 273.78 Z" fill="#6E7C66"/><path d="M 325.93 273.78 L 347.45 291.84" stroke="#222C25" stroke-width="1" fill="none" stroke-linecap="round" opacity="0.5"/><path d="M 352.59 236.44 Q 372.12 232.51 376.73 213.13 Q 357.2 217.06 352.59 236.44 Z" fill="#6E7C66"/><path d="M 352.59 236.44 L 376.73 213.13" stroke="#222C25" stroke-width="1" fill="none" stroke-linecap="round" opacity="0.5"/><path d="M 352.59 236.44 Q 358.54 255.46 378.3 258.02 Q 372.35 239 352.59 236.44 Z" fill="#6E7C66"/><path d="M 352.59 236.44 L 378.3 258.02" stroke="#222C25" stroke-width="1" fill="none" stroke-linecap="round" opacity="0.5"/><path d="M 380 200 Q 397.87 210.38 414.98 198.78 Q 397.11 188.4 380 200 Z" fill="#6E7C66"/><path d="M 380 200 L 414.98 198.78" stroke="#222C25" stroke-width="1" fill="none" stroke-linecap="round" opacity="0.5"/><path d="M 680 40 Q 606 -114 520 -240" stroke="#5C6B4E" stroke-width="3" fill="none" stroke-linecap="round"/><path d="M 658.61 -3.43 Q 662.39 -23.55 645.69 -35.4 Q 641.92 -15.28 658.61 -3.43 Z" fill="#8C9A84"/><path d="M 658.61 -3.43 L 645.69 -35.4" stroke="#222C25" stroke-width="1" fill="none" stroke-linecap="round" opacity="0.5"/><path d="M 658.61 -3.43 Q 638.99 -9.28 625.46 6.08 Q 645.08 11.93 658.61 -3.43 Z" fill="#8C9A84"/><path d="M 658.61 -3.43 L 625.46 6.08" stroke="#222C25" stroke-width="1" fill="none" stroke-linecap="round" opacity="0.5"/><path d="M 636.73 -45.71 Q 640.42 -65.36 624.12 -76.94 Q 620.44 -57.29 636.73 -45.71 Z" fill="#8C9A84"/><path d="M 636.73 -45.71 L 624.12 -76.94" stroke="#222C25" stroke-width="1" fill="none" stroke-linecap="round" opacity="0.5"/><path d="M 636.73 -45.71 Q 617.58 -51.43 604.36 -36.43 Q 623.52 -30.71 636.73 -45.71 Z" fill="#8C9A84"/><path d="M 636.73 -45.71 L 604.36 -36.43" stroke="#222C25" stroke-width="1" fill="none" stroke-linecap="round" opacity="0.5"/><path d="M 614.37 -86.86 Q 618.51 -108.93 600.2 -121.93 Q 596.06 -99.86 614.37 -86.86 Z" fill="#8C9A84"/><path d="M 614.37 -86.86 L 600.2 -121.93" stroke="#222C25" stroke-width="1" fill="none" stroke-linecap="round" opacity="0.5"/><path d="M 614.37 -86.86 Q 592.85 -93.28 578.01 -76.43 Q 599.52 -70.01 614.37 -86.86 Z" fill="#8C9A84"/><path d="M 614.37 -86.86 L 578.01 -76.43" stroke="#222C25" stroke-width="1" fill="none" stroke-linecap="round" opacity="0.5"/><path d="M 591.51 -126.86 Q 594.55 -143.09 581.09 -152.65 Q 578.05 -136.42 591.51 -126.86 Z" fill="#8C9A84"/><path d="M 591.51 -126.86 L 581.09 -152.65" stroke="#222C25" stroke-width="1" fill="none" stroke-linecap="round" opacity="0.5"/><path d="M 591.51 -126.86 Q 575.69 -131.58 564.77 -119.19 Q 580.59 -114.47 591.51 -126.86 Z" fill="#8C9A84"/><path d="M 591.51 -126.86 L 564.77 -119.19" stroke="#222C25" stroke-width="1" fill="none" stroke-linecap="round" opacity="0.5"/><path d="M 568.16 -165.71 Q 571.22 -182.01 557.7 -191.6 Q 554.65 -175.31 568.16 -165.71 Z" fill="#8C9A84"/><path d="M 568.16 -165.71 L 557.7 -191.6" stroke="#222C25" stroke-width="1" fill="none" stroke-linecap="round" opacity="0.5"/><path d="M 568.16 -165.71 Q 552.28 -170.46 541.32 -158.02 Q 557.21 -153.28 568.16 -165.71 Z" fill="#8C9A84"/><path d="M 568.16 -165.71 L 541.32 -158.02" stroke="#222C25" stroke-width="1" fill="none" stroke-linecap="round" opacity="0.5"/><path d="M 544.33 -203.43 Q 547.17 -218.57 534.6 -227.49 Q 531.77 -212.35 544.33 -203.43 Z" fill="#8C9A84"/><path d="M 544.33 -203.43 L 534.6 -227.49" stroke="#222C25" stroke-width="1" fill="none" stroke-linecap="round" opacity="0.5"/><path d="M 544.33 -203.43 Q 529.56 -207.83 519.38 -196.27 Q 534.14 -191.87 544.33 -203.43 Z" fill="#8C9A84"/><path d="M 544.33 -203.43 L 519.38 -196.27" stroke="#222C25" stroke-width="1" fill="none" stroke-linecap="round" opacity="0.5"/><path d="M 520 -240 Q 510.84 -254.75 493.58 -252.89 Q 502.74 -238.14 520 -240 Z" fill="#8C9A84"/><path d="M 520 -240 L 493.58 -252.89" stroke="#222C25" stroke-width="1" fill="none" stroke-linecap="round" opacity="0.5"/><rect width="800" height="600" filter="url(#grain-jrn401)" opacity="0.045"/>
</svg>
