<svg xmlns="http://www.w3.org/2000/svg" viewBox="0 0 800 600" width="800" height="600" preserveAspectRatio="xMidYMid slice">
<defs><filter id="grain-jrn403"><feTurbulence type="fractalNoise" baseFrequency="0.9" numOctaves="3" stitchTiles="stitch"/><feColorMatrix type="saturate" values="0"/></filter><linearGradient id="jbjrn403" x1="0" y1="0" x2="0.4" y2="1"><stop offset="0" stop-color="#E6EAE0"/><stop offset="1" stop-color="#F2F0EB"/></linearGradient></defs>
<rect width="800" height="600" fill="url(#jbjrn403)"/><ellipse cx="400" cy="554" rx="120" ry="16" fill="#222C25" opacity="0.10"/><path d="M 400 490 Q 418 369 400 270" stroke="#5C6B4E" stroke-width="3" fill="none" stroke-linecap="round"/><path d="M 404.41 455.88 Q 400.13 430 374.85 423.05 Q 379.12 448.92 404.41 455.88 Z" fill="#6E7C66"/><path d="M 404.41 455.88 L 374.85 423.05" stroke="#222C25" stroke-width="1" fill="none" stroke-linecap="round" opacity="0.5"/><path d="M 404.41 455.88 Q 429.69 448.92 433.97 423.05 Q 408.68 430 404.41 455.88 Z" fill="#6E7C66"/><path d="M 404.41 455.88 L 433.97 423.05" stroke="#222C25" stroke-width="1" fill="none" stroke-linecap="round" opacity="0.5"/><path d="M 407.35 422.65 Q 403.54 399.63 381.05 393.44 Q 384.85 416.46 407.35 422.65 Z" fill="#6E7C66"/><path d="M 407.35 422.65 L 381.05 393.44" stroke="#222C25" stroke-width="1" fill="none" stroke-linecap="round" opacity="0.5"/><path d="M 407.35 422.65 Q 429.84 416.46 433.65 393.44 Q 411.15 399.63 407.35 422.65 Z" fill="#6E7C66"/><path d="M 407.35 422.65 L 433.65 393.44" stroke="#222C25" stroke-width="1" fill="none" stroke-linecap="round" opacity="0.5"/><path d="M 408.82 390.33 Q 405.17 368.27 383.62 362.35 Q 387.27 384.4 408.82 390.33 Z" fill="#6E7C66"/><path d="M 408.82 390.33 L 383.62 362.35" stroke="#222C25" stroke-width="1" fill="none" stroke-linecap="round" opacity="0.5"/><path d="M 408.82 390.33 Q 430.37 384.4 434.01 362.35 Q 412.46 368.27 408.82 390.33 Z" fill="#6E7C66"/><path d="M 408.82 390.33 L 434.01 362.35" stroke="#222C25" stroke-width="1" fill="none" stroke-linecap="round" opacity="0.5"/><path d="M 408.82 358.9 Q 405.58 339.29 386.41 334.02 Q 389.65 353.63 408.82 358.9 Z" fill="#6E7C66"/><path d="M 408.82 358.9 L 386.41 334.02" stroke="#222C25" stroke-width="1" fill="none" stroke-linecap="round" opacity="0.5"/><path d="M 408.82 358.9 Q 427.98 353.63 431.22 334.02 Q 412.06 339.29 408.82 358.9 Z" fill="#6E7C66"/><path d="M 408.82 358.9 L 431.22 334.02" stroke="#222C25" stroke-width="1" fill="none" stroke-linecap="round" opacity="0.5"/><path d="M 407.35 328.37 Q 403.95 307.79 383.84 302.26 Q 387.24 322.84 407.35 328.37 Z" fill="#6E7C66"/><path d="M 407.35 328.37 L 383.84 302.26" stroke="#222C25" stroke-width="1" fill="none" stroke-linecap="round" opacity="0.5"/><path d="M 407.35 328.37 Q 427.46 322.84 430.86 302.26 Q 410.75 307.79 407.35 328.37 Z" fill="#6E7C66"/><path d="M 407.35 328.37 L 430.86 302.26" stroke="#222C25" stroke-width="1" fill="none" stroke-linecap="round" opacity="0.5"/><path d="M 404.41 298.73 Q 401.44 280.75 383.86 275.92 Q 386.83 293.9 404.41 298.73 Z" fill="#6E7C66"/><path d="M 404.41 298.73 L 383.86 275.92" stroke="#222C25" stroke-width="1" fill="none" stroke-linecap="round" opacity="0.5"/><path d="M 404.41 298.73 Q 421.98 293.9 424.95 275.92 Q 407.38 280.75 404.41 298.73 Z" fill="#6E7C66"/><path d="M 404.41 298.73 L 424.95 275.92" stroke="#222C25" stroke-width="1" fill="none" stroke-linecap="round" opacity="0.5"/><path d="M 400 270 Q 411 252.5 400 235 Q 389 252.5 400 270 Z" fill="#6E7C66"/><path d="M 400 270 L 400 235" stroke="#222C25" stroke-width="1" fill="none" stroke-linecap="round" opacity="0.5"/><path d="M 299.62 526.74 Q 286.55 522.99 278.95 534.27 Q 292.02 538.02 299.62 526.74 Z" fill="#5C6B4E"/><path d="M 299.62 526.74 L 278.95 534.27" stroke="#222C25" stroke-width="1" fill="none" stroke-linecap="round" opacity="0.5"/><path d="M 242.13 577.4 Q 229.05 573.64 221.45 584.92 Q 234.53 588.68 242.13 577.4 Z" fill="#5C6B4E"/><path d="M 242.13 577.4 L 221.45 584.92" stroke="#222C25" stroke-width="1" fill="none" stroke-linecap="round" opacity="0.5"/><path d="M 192.89 631.2 Q 179.82 627.45 172.22 638.73 Q 185.29 642.48 192.89 631.2 Z" fill="#5C6B4E"/><path d="M 192.89 631.2 L 172.22 638.73" stroke="#222C25" stroke-width="1" fill="none" stroke-linecap="round" opacity="0.5"/><path d="M 149.31 699.62 Q 136.24 695.86 128.64 707.14 Q 141.71 710.9 149.31 699.62 Z" fill="#5C6B4E"/><path d="M 149.31 699.62 L 128.64 707.14" stroke="#222C25" stroke-width="1" fill="none" stroke-linecap="round" opacity="0.5"/><path d="M 100.36 764.24 Q 87.29 760.49 79.69 771.77 Q 92.76 775.52 100.36 764.24 Z" fill="#5C6B4E"/><path d="M 100.36 764.24 L 79.69 771.77" stroke="#222C25" stroke-width="1" fill="none" stroke-linecap="round" opacity="0.5"/><path d="M 340 470 Q 310 498.37 299.62 526.74 Q 269.62 552.07 242.13 577.4 Q 212.13 604.3 192.89 631.2 Q 162.89 665.41 149.31 699.62 Q 119.31 731.93 100.36 764.24 " stroke="#5C6B4E" stroke-width="2" fill="none"/><path d="M 517.21 532.79 Q 524.81 544.07 537.88 540.31 Q 530.28 529.03 517.21 532.79 Z" fill="#5C6B4E"/><path d="M 517.21 532.79 L 537.88 540.31" stroke="#222C25" stroke-width="1" fill="none" stroke-linecap="round" opacity="0.5"/><path d="M 570.5 589.56 Q 578.1 600.84 591.17 597.09 Q 583.57 585.81 570.5 589.56 Z" fill="#5C6B4E"/><path d="M 570.5 589.56 L 591.17 597.09" stroke="#222C25" stroke-width="1" fill="none" stroke-linecap="round" opacity="0.5"/><path d="M 619.73 658.27 Q 627.34 669.55 640.41 665.79 Q 632.81 654.51 619.73 658.27 Z" fill="#5C6B4E"/><path d="M 619.73 658.27 L 640.41 665.79" stroke="#222C25" stroke-width="1" fill="none" stroke-linecap="round" opacity="0.5"/><path d="M 670.1 726.9 Q 677.7 738.18 690.78 734.43 Q 683.18 723.15 670.1 726.9 Z" fill="#5C6B4E"/><path d="M 670.1 726.9 L 690.78 734.43" stroke="#222C25" stroke-width="1" fill="none" stroke-linecap="round" opacity="0.5"/><path d="M 716.21 788.44 Q 723.81 799.72 736.88 795.97 Q 729.28 784.69 716.21 788.44 Z" fill="#5C6B4E"/><path d="M 716.21 788.44 L 736.88 795.97" stroke="#222C25" stroke-width="1" fill="none" stroke-linecap="round" opacity="0.5"/><path d="M 460 470 Q 490 501.39 517.21 532.79 Q 547.21 561.18 570.5 589.56 Q 600.5 623.92 619.73 658.27 Q 649.73 692.59 670.1 726.9 Q 700.1 757.67 716.21 788.44 " stroke="#5C6B4E" stroke-width="2" fill="none"/>
	<path d="M 325 440 L 475 440 L 455 550 L 345 550 Z" fill="#C27B66"/>
	<path d="M 400 440 L 455 550 L 345 550 L 400 440 Z" fill="#A8624E" opacity="0.35"/>
	<rect x="316" y="422.4" width="168" height="18.48" rx="7.04" fill="#A8624E"/><rect width="800" height="600" filter="url(#grain-jrn403)" opacity="0.045"/>
</svg>
