<svg xmlns="http://www.w3.org/2000/svg" viewBox="0 0 800 600" width="800" height="600" preserveAspectRatio="xMidYMid slice">
<defs><filter id="grain-jrn402"><feTurbulence type="fractalNoise" baseFrequency="0.9" numOctaves="3" stitchTiles="stitch"/><feColorMatrix type="saturate" values="0"/></filter><linearGradient id="jbjrn402" x1="0" y1="0" x2="0.4" y2="1"><stop offset="0" stop-color="#EAE6DD"/><stop offset="1" stop-color="#F2F0EB"/></linearGradient></defs>
<rect width="800" height="600" fill="url(#jbjrn402)"/><line x1="345.8" y1="423.47" x2="365.21" y2="580" stroke="#5C6B4E" stroke-width="1.6" opacity="0.7"/><path d="M 345.8 423.47 Q 355.31 431.09 364.83 423.47 Q 355.31 415.86 345.8 423.47 Z" fill="#D8C9A8"/><path d="M 345.8 423.47 L 364.83 423.47" stroke="#222C25" stroke-width="1" fill="none" stroke-linecap="round" opacity="0.5"/><path d="M 345.8 423.47 Q 343.96 435.52 355.31 439.95 Q 357.15 427.91 345.8 423.47 Z" fill="#C27B66"/><path d="M 345.8 423.47 L 355.31 439.95" stroke="#222C25" stroke-width="1" fill="none" stroke-linecap="round" opacity="0.5"/><path d="M 345.8 423.47 Q 334.45 427.91 336.28 439.95 Q 347.63 435.52 345.8 423.47 Z" fill="#D8C9A8"/><path d="M 345.8 423.47 L 336.28 439.95" stroke="#222C25" stroke-width="1" fill="none" stroke-linecap="round" opacity="0.5"/><path d="M 345.8 423.47 Q 336.28 415.86 326.77 423.47 Q 336.28 431.09 345.8 423.47 Z" fill="#C27B66"/><path d="M 345.8 423.47 L 326.77 423.47" stroke="#222C25" stroke-width="1" fill="none" stroke-linecap="round" opacity="0.5"/><path d="M 345.8 423.47 Q 347.63 411.43 336.28 406.99 Q 334.45 419.04 345.8 423.47 Z" fill="#D8C9A8"/><path d="M 345.8 423.47 L 336.28 406.99" stroke="#222C25" stroke-width="1" fill="none" stroke-linecap="round" opacity="0.5"/><path d="M 345.8 423.47 Q 357.15 419.04 355.31 406.99 Q 343.96 411.43 345.8 423.47 Z" fill="#C27B66"/><path d="M 345.8 423.47 L 355.31 406.99" stroke="#222C25" stroke-width="1" fill="none" stroke-linecap="round" opacity="0.5"/><circle cx="345.8" cy="423.47" r="6.09" fill="#A8624E"/><line x1="697.35" y1="153.51" x2="707.84" y2="580" stroke="#5C6B4E" stroke-width="1.6" opacity="0.7"/><path d="M 697.35 153.51 Q 710.25 163.84 723.16 153.51 Q 710.25 143.19 697.35 153.51 Z" fill="#D8C9A8"/><path d="M 697.35 153.51 L 723.16 153.51" stroke="#222C25" stroke-width="1" fill="none" stroke-linecap="round" opacity="0.5"/><path d="M 697.35 153.51 Q 694.86 169.85 710.25 175.87 Q 712.74 159.53 697.35 153.51 Z" fill="#C27B66"/><path d="M 697.35 153.51 L 710.25 175.87" stroke="#222C25" stroke-width="1" fill="none" stroke-linecap="round" opacity="0.5"/><path d="M 697.35 153.51 Q 681.96 159.53 684.44 175.87 Q 699.84 169.85 697.35 153.51 Z" fill="#D8C9A8"/><path d="M 697.35 153.51 L 684.44 175.87" stroke="#222C25" stroke-width="1" fill="none" stroke-linecap="round" opacity="0.5"/><path d="M 697.35 153.51 Q 684.44 143.19 671.54 153.51 Q 684.44 163.84 697.35 153.51 Z" fill="#C27B66"/><path d="M 697.35 153.51 L 671.54 153.51" stroke="#222C25" stroke-width="1" fill="none" stroke-linecap="round" opacity="0.5"/><path d="M 697.35 153.51 Q 699.84 137.18 684.44 131.16 Q 681.96 147.5 697.35 153.51 Z" fill="#D8C9A8"/><path d="M 697.35 153.51 L 684.44 131.16" stroke="#222C25" stroke-width="1" fill="none" stroke-linecap="round" opacity="0.5"/><path d="M 697.35 153.51 Q 712.74 147.5 710.25 131.16 Q 694.86 137.18 697.35 153.51 Z" fill="#C27B66"/><path d="M 697.35 153.51 L 710.25 131.16" stroke="#222C25" stroke-width="1" fill="none" stroke-linecap="round" opacity="0.5"/><circle cx="697.35" cy="153.51" r="8.26" fill="#A8624E"/><line x1="692.57" y1="261.28" x2="692.33" y2="580" stroke="#5C6B4E" stroke-width="1.6" opacity="0.7"/><path d="M 692.57 261.28 Q 702.94 269.57 713.3 261.28 Q 702.94 252.98 692.57 261.28 Z" fill="#D8C9A8"/><path d="M 692.57 261.28 L 713.3 261.28" stroke="#222C25" stroke-width="1" fill="none" stroke-linecap="round" opacity="0.5"/><path d="M 692.57 261.28 Q 690.57 274.4 702.94 279.23 Q 704.93 266.11 692.57 261.28 Z" fill="#C27B66"/><path d="M 692.57 261.28 L 702.94 279.23" stroke="#222C25" stroke-width="1" fill="none" stroke-linecap="round" opacity="0.5"/><path d="M 692.57 261.28 Q 680.21 266.11 682.21 279.23 Q 694.57 274.4 692.57 261.28 Z" fill="#D8C9A8"/><path d="M 692.57 261.28 L 682.21 279.23" stroke="#222C25" stroke-width="1" fill="none" stroke-linecap="round" opacity="0.5"/><path d="M 692.57 261.28 Q 682.21 252.98 671.84 261.28 Q 682.21 269.57 692.57 261.28 Z" fill="#C27B66"/><path d="M 692.57 261.28 L 671.84 261.28" stroke="#222C25" stroke-width="1" fill="none" stroke-linecap="round" opacity="0.5"/><path d="M 692.57 261.28 Q 694.57 248.15 682.21 243.32 Q 680.21 256.44 692.57 261.28 Z" fill="#D8C9A8"/><path d="M 692.57 261.28 L 682.21 243.32" stroke="#222C25" stroke-width="1" fill="none" stroke-linecap="round" opacity="0.5"/><path d="M 692.57 261.28 Q 704.93 256.44 702.94 243.32 Q 690.57 248.15 692.57 261.28 Z" fill="#C27B66"/><path d="M 692.57 261.28 L 702.94 243.32" stroke="#222C25" stroke-width="1" fill="none" stroke-linecap="round" opacity="0.5"/><circle cx="692.57" cy="261.28" r="6.63" fill="#A8624E"/><line x1="176.86" y1="412.22" x2="190.9" y2="580" stroke="#5C6B4E" stroke-width="1.6" opacity="0.7"/><path d="M 176.86 412.22 Q 188.72 421.71 200.58 412.22 Q 188.72 402.73 176.86 412.22 Z" fill="#D8C9A8"/><path d="M 176.86 412.22 L 200.58 412.22" stroke="#222C25" stroke-width="1" fill="none" stroke-linecap="round" opacity="0.5"/><path d="M 176.86 412.22 Q 174.58 427.23 188.72 432.76 Q 191.01 417.75 176.86 412.22 Z" fill="#C27B66"/><path d="M 176.86 412.22 L 188.72 432.76" stroke="#222C25" stroke-width="1" fill="none" stroke-linecap="round" opacity="0.5"/><path d="M 176.86 412.22 Q 162.72 417.75 165 432.76 Q 179.15 427.23 176.86 412.22 Z" fill="#D8C9A8"/><path d="M 176.86 412.22 L 165 432.76" stroke="#222C25" stroke-width="1" fill="none" stroke-linecap="round" opacity="0.5"/><path d="M 176.86 412.22 Q 165 402.73 153.15 412.22 Q 165 421.71 176.86 412.22 Z" fill="#C27B66"/><path d="M 176.86 412.22 L 153.15 412.22" stroke="#222C25" stroke-width="1" fill="none" stroke-linecap="round" opacity="0.5"/><path d="M 176.86 412.22 Q 179.15 397.21 165 391.68 Q 162.72 406.69 176.86 412.22 Z" fill="#D8C9A8"/><path d="M 176.86 412.22 L 165 391.68" stroke="#222C25" stroke-width="1" fill="none" stroke-linecap="round" opacity="0.5"/><path d="M 176.86 412.22 Q 191.01 406.69 188.72 391.68 Q 174.58 397.21 176.86 412.22 Z" fill="#C27B66"/><path d="M 176.86 412.22 L 188.72 391.68" stroke="#222C25" stroke-width="1" fill="none" stroke-linecap="round" opacity="0.5"/><circle cx="176.86" cy="412.22" r="7.59" fill="#A8624E"/><line x1="146.32" y1="452.11" x2="135.14" y2="580" stroke="#5C6B4E" stroke-width="1.6" opacity="0.7"/><path d="M 146.32 452.11 Q 155.25 459.26 164.19 452.11 Q 155.25 444.96 146.32 452.11 Z" fill="#D8C9A8"/><path d="M 146.32 452.11 L 164.19 452.11" stroke="#222C25" stroke-width="1" fill="none" stroke-linecap="round" opacity="0.5"/><path d="M 146.32 452.11 Q 144.6 463.42 155.25 467.59 Q 156.98 456.28 146.32 452.11 Z" fill="#C27B66"/><path d="M 146.32 452.11 L 155.25 467.59" stroke="#222C25" stroke-width="1" fill="none" stroke-linecap="round" opacity="0.5"/><path d="M 146.32 452.11 Q 135.66 456.28 137.38 467.59 Q 148.04 463.42 146.32 452.11 Z" fill="#D8C9A8"/><path d="M 146.32 452.11 L 137.38 467.59" stroke="#222C25" stroke-width="1" fill="none" stroke-linecap="round" opacity="0.5"/><path d="M 146.32 452.11 Q 137.38 444.96 128.45 452.11 Q 137.38 459.26 146.32 452.11 Z" fill="#C27B66"/><path d="M 146.32 452.11 L 128.45 452.11" stroke="#222C25" stroke-width="1" fill="none" stroke-linecap="round" opacity="0.5"/><path d="M 146.32 452.11 Q 148.04 440.8 137.38 436.64 Q 135.66 447.95 146.32 452.11 Z" fill="#D8C9A8"/><path d="M 146.32 452.11 L 137.38 436.64" stroke="#222C25" stroke-width="1" fill="none" stroke-linecap="round" opacity="0.5"/><path d="M 146.32 452.11 Q 156.98 447.95 155.25 436.64 Q 144.6 440.8 146.32 452.11 Z" fill="#C27B66"/><path d="M 146.32 452.11 L 155.25 436.64" stroke="#222C25" stroke-width="1" fill="none" stroke-linecap="round" opacity="0.5"/><circle cx="146.32" cy="452.11" r="5.72" fill="#A8624E"/><line x1="416.52" y1="213.35" x2="410.52" y2="580" stroke="#5C6B4E" stroke-width="1.6" opacity="0.7"/><path d="M 416.52 213.35 Q 428.99 223.32 441.46 213.35 Q 428.99 203.37 416.52 213.35 Z" fill="#D8C9A8"/><path d="M 416.52 213.35 L 441.46 213.35" stroke="#222C25" stroke-width="1" fill="none" stroke-linecap="round" opacity="0.5"/><path d="M 416.52 213.35 Q 414.12 229.13 428.99 234.95 Q 431.4 219.16 416.52 213.35 Z" fill="#C27B66"/><path d="M 416.52 213.35 L 428.99 234.95" stroke="#222C25" stroke-width="1" fill="none" stroke-linecap="round" opacity="0.5"/><path d="M 416.52 213.35 Q 401.65 219.16 404.05 234.95 Q 418.93 229.13 416.52 213.35 Z" fill="#D8C9A8"/><path d="M 416.52 213.35 L 404.05 234.95" stroke="#222C25" stroke-width="1" fill="none" stroke-linecap="round" opacity="0.5"/><path d="M 416.52 213.35 Q 404.05 203.37 391.58 213.35 Q 404.05 223.32 416.52 213.35 Z" fill="#C27B66"/><path d="M 416.52 213.35 L 391.58 213.35" stroke="#222C25" stroke-width="1" fill="none" stroke-linecap="round" opacity="0.5"/><path d="M 416.52 213.35 Q 418.93 197.56 404.05 191.75 Q 401.65 207.54 416.52 213.35 Z" fill="#D8C9A8"/><path d="M 416.52 213.35 L 404.05 191.75" stroke="#222C25" stroke-width="1" fill="none" stroke-linecap="round" opacity="0.5"/><path d="M 416.52 213.35 Q 431.4 207.54 428.99 191.75 Q 414.12 197.56 416.52 213.35 Z" fill="#C27B66"/><path d="M 416.52 213.35 L 428.99 191.75" stroke="#222C25" stroke-width="1" fill="none" stroke-linecap="round" opacity="0.5"/><circle cx="416.52" cy="213.35" r="7.98" fill="#A8624E"/><line x1="626.6" y1="227.96" x2="627.7" y2="580" stroke="#5C6B4E" stroke-width="1.6" opacity="0.7"/><path d="M 626.6 227.96 Q 637.5 236.68 648.4 227.96 Q 637.5 219.23 626.6 227.96 Z" fill="#D8C9A8"/><path d="M 626.6 227.96 L 648.4 227.96" stroke="#222C25" stroke-width="1" fill="none" stroke-linecap="round" opacity="0.5"/><path d="M 626.6 227.96 Q 624.49 241.76 637.5 246.84 Q 639.6 233.04 626.6 227.96 Z" fill="#C27B66"/><path d="M 626.6 227.96 L 637.5 246.84" stroke="#222C25" stroke-width="1" fill="none" stroke-linecap="round" opacity="0.5"/><path d="M 626.6 227.96 Q 613.59 233.04 615.69 246.84 Q 628.7 241.76 626.6 227.96 Z" fill="#D8C9A8"/><path d="M 626.6 227.96 L 615.69 246.84" stroke="#222C25" stroke-width="1" fill="none" stroke-linecap="round" opacity="0.5"/><path d="M 626.6 227.96 Q 615.69 219.23 604.79 227.96 Q 615.69 236.68 626.6 227.96 Z" fill="#C27B66"/><path d="M 626.6 227.96 L 604.79 227.96" stroke="#222C25" stroke-width="1" fill="none" stroke-linecap="round" opacity="0.5"/><path d="M 626.6 227.96 Q 628.7 214.15 615.69 209.07 Q 613.59 222.88 626.6 227.96 Z" fill="#D8C9A8"/><path d="M 626.6 227.96 L 615.69 209.07" stroke="#222C25" stroke-width="1" fill="none" stroke-linecap="round" opacity="0.5"/><path d="M 626.6 227.96 Q 639.6 222.88 637.5 209.07 Q 624.49 214.15 626.6 227.96 Z" fill="#C27B66"/><path d="M 626.6 227.96 L 637.5 209.07" stroke="#222C25" stroke-width="1" fill="none" stroke-linecap="round" opacity="0.5"/><circle cx="626.6" cy="227.96" r="6.98" fill="#A8624E"/><rect width="800" height="600" filter="url(#grain-jrn402)" opacity="0.045"/>
</svg>
