<svg xmlns="http://www.w3.org/2000/svg" viewBox="0 0 1000 1100" width="1000" height="1100" preserveAspectRatio="xMidYMid slice">
<defs>
		<filter id="grain-story"><feTurbulence type="fractalNoise" baseFrequency="0.9" numOctaves="3" stitchTiles="stitch"/><feColorMatrix type="saturate" values="0"/></filter>
		<linearGradient id="storyBg" x1="0" y1="0" x2="0" y2="1">
			<stop offset="0" stop-color="#E8DFD4"/>
			<stop offset="1" stop-color="#F2F0EB"/>
		</linearGradient>
	</defs>
<rect width="1000" height="1100" fill="url(#storyBg)"/><line x1="917.5" y1="220" x2="1044" y2="220" stroke="#D8C9A8" stroke-width="1.4" opacity="0.35" stroke-linecap="round"/><line x1="909.21" y1="267.03" x2="1028.08" y2="310.29" stroke="#D8C9A8" stroke-width="1.4" opacity="0.35" stroke-linecap="round"/><line x1="885.33" y1="308.38" x2="982.24" y2="389.7" stroke="#D8C9A8" stroke-width="1.4" opacity="0.35" stroke-linecap="round"/><line x1="848.75" y1="339.08" x2="912" y2="448.63" stroke="#D8C9A8" stroke-width="1.4" opacity="0.35" stroke-linecap="round"/><line x1="803.88" y1="355.41" x2="825.84" y2="479.99" stroke="#D8C9A8" stroke-width="1.4" opacity="0.35" stroke-linecap="round"/><line x1="756.12" y1="355.41" x2="734.16" y2="479.99" stroke="#D8C9A8" stroke-width="1.4" opacity="0.35" stroke-linecap="round"/><line x1="711.25" y1="339.08" x2="648" y2="448.63" stroke="#D8C9A8" stroke-width="1.4" opacity="0.35" stroke-linecap="round"/><line x1="674.67" y1="308.38" x2="577.76" y2="389.7" stroke="#D8C9A8" stroke-width="1.4" opacity="0.35" stroke-linecap="round"/><line x1="650.79" y1="267.03" x2="531.92" y2="310.29" stroke="#D8C9A8" stroke-width="1.4" opacity="0.35" stroke-linecap="round"/><line x1="642.5" y1="220" x2="516" y2="220" stroke="#D8C9A8" stroke-width="1.4" opacity="0.35" stroke-linecap="round"/><line x1="650.79" y1="172.97" x2="531.92" y2="129.71" stroke="#D8C9A8" stroke-width="1.4" opacity="0.35" stroke-linecap="round"/><line x1="674.67" y1="131.62" x2="577.76" y2="50.3" stroke="#D8C9A8" stroke-width="1.4" opacity="0.35" stroke-linecap="round"/><line x1="711.25" y1="100.92" x2="648" y2="-8.63" stroke="#D8C9A8" stroke-width="1.4" opacity="0.35" stroke-linecap="round"/><line x1="756.12" y1="84.59" x2="734.16" y2="-39.99" stroke="#D8C9A8" stroke-width="1.4" opacity="0.35" stroke-linecap="round"/><line x1="803.88" y1="84.59" x2="825.84" y2="-39.99" stroke="#D8C9A8" stroke-width="1.4" opacity="0.35" stroke-linecap="round"/><line x1="848.75" y1="100.92" x2="912" y2="-8.63" stroke="#D8C9A8" stroke-width="1.4" opacity="0.35" stroke-linecap="round"/><line x1="885.33" y1="131.62" x2="982.24" y2="50.3" stroke="#D8C9A8" stroke-width="1.4" opacity="0.35" stroke-linecap="round"/><line x1="909.21" y1="172.97" x2="1028.08" y2="129.71" stroke="#D8C9A8" stroke-width="1.4" opacity="0.35" stroke-linecap="round"/><circle cx="780" cy="220" r="110" fill="#D8C9A8" opacity="0.5"/><rect x="80" y="70" width="840" height="560" rx="420" ry="420" fill="#8C9A84" opacity="0.16"/><rect x="80" y="350" width="840" height="280" fill="#E8DFD4" opacity="0.4"/><line x1="500" y1="70" x2="500" y2="630" stroke="#E6E2DA" stroke-width="6"/><rect x="74" y="64" width="852" height="572" rx="420" fill="none" stroke="#DCCFC2" stroke-width="6"/><rect x="0" y="850" width="1000" height="26" fill="#D8C9A8"/><rect x="0" y="876" width="1000" height="12" fill="#A8624E" opacity="0.25"/><ellipse cx="170" cy="856" rx="61.333333333333336" ry="10" fill="#222C25" opacity="0.10"/><path d="M 170 777 Q 169.8 628.5 118 507" stroke="#5C6B4E" stroke-width="3" fill="none" stroke-linecap="round"/><path d="M 168.89 735.12 Q 152.44 706.84 119.88 709.93 Q 136.32 738.21 168.89 735.12 Z" fill="#6E7C66"/><path d="M 168.89 735.12 L 119.88 709.93" stroke="#222C25" stroke-width="1" fill="none" stroke-linecap="round" opacity="0.5"/><path d="M 168.89 735.12 Q 195.3 715.81 188.82 683.74 Q 162.41 703.06 168.89 735.12 Z" fill="#6E7C66"/><path d="M 168.89 735.12 L 188.82 683.74" stroke="#222C25" stroke-width="1" fill="none" stroke-linecap="round" opacity="0.5"/><path d="M 165.67 694.35 Q 149.64 666.78 117.9 669.79 Q 133.93 697.36 165.67 694.35 Z" fill="#6E7C66"/><path d="M 165.67 694.35 L 117.9 669.79" stroke="#222C25" stroke-width="1" fill="none" stroke-linecap="round" opacity="0.5"/><path d="M 165.67 694.35 Q 191.41 675.52 185.1 644.26 Q 159.36 663.09 165.67 694.35 Z" fill="#6E7C66"/><path d="M 165.67 694.35 L 185.1 644.26" stroke="#222C25" stroke-width="1" fill="none" stroke-linecap="round" opacity="0.5"/><path d="M 160.35 654.67 Q 145.85 629.74 117.14 632.47 Q 131.64 657.4 160.35 654.67 Z" fill="#6E7C66"/><path d="M 160.35 654.67 L 117.14 632.47" stroke="#222C25" stroke-width="1" fill="none" stroke-linecap="round" opacity="0.5"/><path d="M 160.35 654.67 Q 183.63 637.65 177.92 609.38 Q 154.64 626.4 160.35 654.67 Z" fill="#6E7C66"/><path d="M 160.35 654.67 L 177.92 609.38" stroke="#222C25" stroke-width="1" fill="none" stroke-linecap="round" opacity="0.5"/><path d="M 152.92 616.1 Q 142.19 597.64 120.93 599.66 Q 131.66 618.12 152.92 616.1 Z" fill="#6E7C66"/><path d="M 152.92 616.1 L 120.93 599.66" stroke="#222C25" stroke-width="1" fill="none" stroke-linecap="round" opacity="0.5"/><path d="M 152.92 616.1 Q 170.16 603.5 165.93 582.57 Q 148.69 595.17 152.92 616.1 Z" fill="#6E7C66"/><path d="M 152.92 616.1 L 165.93 582.57" stroke="#222C25" stroke-width="1" fill="none" stroke-linecap="round" opacity="0.5"/><path d="M 143.39 578.63 Q 132.33 559.62 110.43 561.7 Q 121.49 580.71 143.39 578.63 Z" fill="#6E7C66"/><path d="M 143.39 578.63 L 110.43 561.7" stroke="#222C25" stroke-width="1" fill="none" stroke-linecap="round" opacity="0.5"/><path d="M 143.39 578.63 Q 161.14 565.65 156.79 544.09 Q 139.03 557.07 143.39 578.63 Z" fill="#6E7C66"/><path d="M 143.39 578.63 L 156.79 544.09" stroke="#222C25" stroke-width="1" fill="none" stroke-linecap="round" opacity="0.5"/><path d="M 131.75 542.27 Q 121.96 525.43 102.57 527.27 Q 112.36 544.1 131.75 542.27 Z" fill="#6E7C66"/><path d="M 131.75 542.27 L 102.57 527.27" stroke="#222C25" stroke-width="1" fill="none" stroke-linecap="round" opacity="0.5"/><path d="M 131.75 542.27 Q 147.47 530.77 143.61 511.68 Q 127.89 523.18 131.75 542.27 Z" fill="#6E7C66"/><path d="M 131.75 542.27 L 143.61 511.68" stroke="#222C25" stroke-width="1" fill="none" stroke-linecap="round" opacity="0.5"/><path d="M 118 507 Q 122.56 484.3 104.08 470.35 Q 99.52 493.05 118 507 Z" fill="#6E7C66"/><path d="M 118 507 L 104.08 470.35" stroke="#222C25" stroke-width="1" fill="none" stroke-linecap="round" opacity="0.5"/>
	<path d="M 110 702 L 230 702 L 216 852 L 124 852 Z" fill="#C27B66"/>
	<path d="M 170 702 L 216 852 L 124 852 L 170 702 Z" fill="#A8624E" opacity="0.35"/>
	<rect x="102.8" y="678" width="134.4" height="25.2" rx="9.6" fill="#A8624E"/><ellipse cx="360" cy="856" rx="73.33333333333333" ry="10" fill="#222C25" opacity="0.10"/><path d="M 360 752 Q 332.9 576 334 432" stroke="#5C6B4E" stroke-width="3" fill="none" stroke-linecap="round"/><path d="M 351.75 694.22 Q 379.36 680.89 378.82 650.23 Q 351.2 663.56 351.75 694.22 Z" fill="#5C6B4E"/><path d="M 351.75 694.22 L 378.82 650.23" stroke="#222C25" stroke-width="1" fill="none" stroke-linecap="round" opacity="0.5"/><path d="M 351.75 694.22 Q 341.37 665.37 310.82 662.7 Q 321.2 691.56 351.75 694.22 Z" fill="#5C6B4E"/><path d="M 351.75 694.22 L 310.82 662.7" stroke="#222C25" stroke-width="1" fill="none" stroke-linecap="round" opacity="0.5"/><path d="M 345.07 638.22 Q 377.91 622.36 377.26 585.89 Q 344.42 601.75 345.07 638.22 Z" fill="#5C6B4E"/><path d="M 345.07 638.22 L 377.26 585.89" stroke="#222C25" stroke-width="1" fill="none" stroke-linecap="round" opacity="0.5"/><path d="M 345.07 638.22 Q 332.72 603.9 296.39 600.73 Q 308.73 635.06 345.07 638.22 Z" fill="#5C6B4E"/><path d="M 345.07 638.22 L 296.39 600.73" stroke="#222C25" stroke-width="1" fill="none" stroke-linecap="round" opacity="0.5"/><path d="M 339.95 584 Q 368.95 569.99 368.38 537.79 Q 339.38 551.8 339.95 584 Z" fill="#5C6B4E"/><path d="M 339.95 584 L 368.38 537.79" stroke="#222C25" stroke-width="1" fill="none" stroke-linecap="round" opacity="0.5"/><path d="M 339.95 584 Q 329.05 553.7 296.97 550.9 Q 307.87 581.2 339.95 584 Z" fill="#5C6B4E"/><path d="M 339.95 584 L 296.97 550.9" stroke="#222C25" stroke-width="1" fill="none" stroke-linecap="round" opacity="0.5"/><path d="M 336.4 531.56 Q 361.52 519.42 361.03 491.53 Q 335.9 503.66 336.4 531.56 Z" fill="#5C6B4E"/><path d="M 336.4 531.56 L 361.03 491.53" stroke="#222C25" stroke-width="1" fill="none" stroke-linecap="round" opacity="0.5"/><path d="M 336.4 531.56 Q 326.96 505.3 299.16 502.88 Q 308.61 529.13 336.4 531.56 Z" fill="#5C6B4E"/><path d="M 336.4 531.56 L 299.16 502.88" stroke="#222C25" stroke-width="1" fill="none" stroke-linecap="round" opacity="0.5"/><path d="M 334.42 480.89 Q 354.65 471.12 354.25 448.66 Q 334.02 458.43 334.42 480.89 Z" fill="#5C6B4E"/><path d="M 334.42 480.89 L 354.25 448.66" stroke="#222C25" stroke-width="1" fill="none" stroke-linecap="round" opacity="0.5"/><path d="M 334.42 480.89 Q 326.81 459.75 304.43 457.8 Q 312.04 478.94 334.42 480.89 Z" fill="#5C6B4E"/><path d="M 334.42 480.89 L 304.43 457.8" stroke="#222C25" stroke-width="1" fill="none" stroke-linecap="round" opacity="0.5"/><path d="M 334 432 Q 343.81 407.43 325.91 387.94 Q 316.11 412.51 334 432 Z" fill="#5C6B4E"/><path d="M 334 432 L 325.91 387.94" stroke="#222C25" stroke-width="1" fill="none" stroke-linecap="round" opacity="0.5"/>
	<path d="M 315 652 L 405 652 L 415 852 L 305 852 Z" fill="#DCCFC2"/>
	<path d="M 360 652 L 415 852 L 305 852 L 360 652 Z" fill="#A8624E" opacity="0.35"/>
	<rect x="309.6" y="620" width="100.8" height="33.6" rx="12.8" fill="#E6E2DA"/><ellipse cx="540" cy="856" rx="46.666666666666664" ry="10" fill="#222C25" opacity="0.10"/><path d="M 540 792 Q 558 660 540 552" stroke="#5C6B4E" stroke-width="3" fill="none" stroke-linecap="round"/><path d="M 543.94 759.38 Q 540.03 735.74 516.93 729.38 Q 520.84 753.02 543.94 759.38 Z" fill="#A7B29F"/><path d="M 543.94 759.38 L 516.93 729.38" stroke="#222C25" stroke-width="1" fill="none" stroke-linecap="round" opacity="0.5"/><path d="M 543.94 759.38 Q 567.04 753.02 570.94 729.38 Q 547.84 735.74 543.94 759.38 Z" fill="#A7B29F"/><path d="M 543.94 759.38 L 570.94 729.38" stroke="#222C25" stroke-width="1" fill="none" stroke-linecap="round" opacity="0.5"/><path d="M 546.75 727.5 Q 543.24 706.25 522.48 700.54 Q 525.99 721.79 546.75 727.5 Z" fill="#A7B29F"/><path d="M 546.75 727.5 L 522.48 700.54" stroke="#222C25" stroke-width="1" fill="none" stroke-linecap="round" opacity="0.5"/><path d="M 546.75 727.5 Q 567.51 721.79 571.02 700.54 Q 550.26 706.25 546.75 727.5 Z" fill="#A7B29F"/><path d="M 546.75 727.5 L 571.02 700.54" stroke="#222C25" stroke-width="1" fill="none" stroke-linecap="round" opacity="0.5"/><path d="M 548.44 696.38 Q 545.3 677.36 526.71 672.24 Q 529.85 691.26 548.44 696.38 Z" fill="#A7B29F"/><path d="M 548.44 696.38 L 526.71 672.24" stroke="#222C25" stroke-width="1" fill="none" stroke-linecap="round" opacity="0.5"/><path d="M 548.44 696.38 Q 567.02 691.26 570.16 672.24 Q 551.58 677.36 548.44 696.38 Z" fill="#A7B29F"/><path d="M 548.44 696.38 L 570.16 672.24" stroke="#222C25" stroke-width="1" fill="none" stroke-linecap="round" opacity="0.5"/><path d="M 549 666 Q 545.8 646.65 526.89 641.45 Q 530.09 660.8 549 666 Z" fill="#A7B29F"/><path d="M 549 666 L 526.89 641.45" stroke="#222C25" stroke-width="1" fill="none" stroke-linecap="round" opacity="0.5"/><path d="M 549 666 Q 567.91 660.8 571.11 641.45 Q 552.2 646.65 549 666 Z" fill="#A7B29F"/><path d="M 549 666 L 571.11 641.45" stroke="#222C25" stroke-width="1" fill="none" stroke-linecap="round" opacity="0.5"/><path d="M 548.44 636.38 Q 546.03 621.82 531.81 617.91 Q 534.22 632.46 548.44 636.38 Z" fill="#A7B29F"/><path d="M 548.44 636.38 L 531.81 617.91" stroke="#222C25" stroke-width="1" fill="none" stroke-linecap="round" opacity="0.5"/><path d="M 548.44 636.38 Q 562.66 632.46 565.06 617.91 Q 550.84 621.82 548.44 636.38 Z" fill="#A7B29F"/><path d="M 548.44 636.38 L 565.06 617.91" stroke="#222C25" stroke-width="1" fill="none" stroke-linecap="round" opacity="0.5"/><path d="M 546.75 607.5 Q 544.02 590.98 527.88 586.54 Q 530.61 603.06 546.75 607.5 Z" fill="#A7B29F"/><path d="M 546.75 607.5 L 527.88 586.54" stroke="#222C25" stroke-width="1" fill="none" stroke-linecap="round" opacity="0.5"/><path d="M 546.75 607.5 Q 562.89 603.06 565.62 586.54 Q 549.48 590.98 546.75 607.5 Z" fill="#A7B29F"/><path d="M 546.75 607.5 L 565.62 586.54" stroke="#222C25" stroke-width="1" fill="none" stroke-linecap="round" opacity="0.5"/><path d="M 543.94 579.38 Q 541.41 564.06 526.44 559.95 Q 528.97 575.26 543.94 579.38 Z" fill="#A7B29F"/><path d="M 543.94 579.38 L 526.44 559.95" stroke="#222C25" stroke-width="1" fill="none" stroke-linecap="round" opacity="0.5"/><path d="M 543.94 579.38 Q 558.9 575.26 561.43 559.95 Q 546.47 564.06 543.94 579.38 Z" fill="#A7B29F"/><path d="M 543.94 579.38 L 561.43 559.95" stroke="#222C25" stroke-width="1" fill="none" stroke-linecap="round" opacity="0.5"/><path d="M 540 552 Q 548.8 538 540 524 Q 531.2 538 540 552 Z" fill="#A7B29F"/><path d="M 540 552 L 540 524" stroke="#222C25" stroke-width="1" fill="none" stroke-linecap="round" opacity="0.5"/>
	<path d="M 505 732 L 575 732 L 575 852 L 505 852 Z" fill="#8C9A84"/>
	<path d="M 540 732 L 575 852 L 505 852 L 540 732 Z" fill="#A8624E" opacity="0.35"/>
	<rect x="500.8" y="712.8" width="78.4" height="20.16" rx="7.68" fill="#6E7C66"/><ellipse cx="720" cy="856" rx="64" ry="10" fill="#222C25" opacity="0.10"/><path d="M 720 767 Q 711.1 607.5 746 477" stroke="#5C6B4E" stroke-width="3" fill="none" stroke-linecap="round"/><path d="M 718.35 722.02 Q 754.99 718.83 767.43 684.22 Q 730.8 687.42 718.35 722.02 Z" fill="#8C9A84"/><path d="M 718.35 722.02 L 767.43 684.22" stroke="#222C25" stroke-width="1" fill="none" stroke-linecap="round" opacity="0.5"/><path d="M 718.35 722.02 Q 719.01 685.25 685.89 669.26 Q 685.24 706.03 718.35 722.02 Z" fill="#8C9A84"/><path d="M 718.35 722.02 L 685.89 669.26" stroke="#222C25" stroke-width="1" fill="none" stroke-linecap="round" opacity="0.5"/><path d="M 718.49 678.22 Q 747.4 675.7 757.23 648.39 Q 728.31 650.91 718.49 678.22 Z" fill="#8C9A84"/><path d="M 718.49 678.22 L 757.23 648.39" stroke="#222C25" stroke-width="1" fill="none" stroke-linecap="round" opacity="0.5"/><path d="M 718.49 678.22 Q 719.01 649.21 692.87 636.58 Q 692.36 665.6 718.49 678.22 Z" fill="#8C9A84"/><path d="M 718.49 678.22 L 692.87 636.58" stroke="#222C25" stroke-width="1" fill="none" stroke-linecap="round" opacity="0.5"/><path d="M 720.42 635.61 Q 752.32 632.83 763.16 602.7 Q 731.25 605.48 720.42 635.61 Z" fill="#8C9A84"/><path d="M 720.42 635.61 L 763.16 602.7" stroke="#222C25" stroke-width="1" fill="none" stroke-linecap="round" opacity="0.5"/><path d="M 720.42 635.61 Q 720.99 603.59 692.15 589.67 Q 691.58 621.68 720.42 635.61 Z" fill="#8C9A84"/><path d="M 720.42 635.61 L 692.15 589.67" stroke="#222C25" stroke-width="1" fill="none" stroke-linecap="round" opacity="0.5"/><path d="M 724.13 594.18 Q 753.12 591.66 762.97 564.27 Q 733.98 566.8 724.13 594.18 Z" fill="#8C9A84"/><path d="M 724.13 594.18 L 762.97 564.27" stroke="#222C25" stroke-width="1" fill="none" stroke-linecap="round" opacity="0.5"/><path d="M 724.13 594.18 Q 724.65 565.08 698.44 552.43 Q 697.92 581.53 724.13 594.18 Z" fill="#8C9A84"/><path d="M 724.13 594.18 L 698.44 552.43" stroke="#222C25" stroke-width="1" fill="none" stroke-linecap="round" opacity="0.5"/><path d="M 729.63 553.94 Q 755.68 551.67 764.53 527.07 Q 738.48 529.34 729.63 553.94 Z" fill="#8C9A84"/><path d="M 729.63 553.94 L 764.53 527.07" stroke="#222C25" stroke-width="1" fill="none" stroke-linecap="round" opacity="0.5"/><path d="M 729.63 553.94 Q 730.1 527.8 706.56 516.43 Q 706.09 542.57 729.63 553.94 Z" fill="#8C9A84"/><path d="M 729.63 553.94 L 706.56 516.43" stroke="#222C25" stroke-width="1" fill="none" stroke-linecap="round" opacity="0.5"/><path d="M 736.92 514.88 Q 760.71 512.8 768.79 490.34 Q 745 492.41 736.92 514.88 Z" fill="#8C9A84"/><path d="M 736.92 514.88 L 768.79 490.34" stroke="#222C25" stroke-width="1" fill="none" stroke-linecap="round" opacity="0.5"/><path d="M 736.92 514.88 Q 737.35 491.01 715.85 480.62 Q 715.42 504.49 736.92 514.88 Z" fill="#8C9A84"/><path d="M 736.92 514.88 L 715.85 480.62" stroke="#222C25" stroke-width="1" fill="none" stroke-linecap="round" opacity="0.5"/><path d="M 746 477 Q 762.77 458.73 753.58 435.69 Q 736.81 453.96 746 477 Z" fill="#8C9A84"/><path d="M 746 477 L 753.58 435.69" stroke="#222C25" stroke-width="1" fill="none" stroke-linecap="round" opacity="0.5"/>
	<path d="M 655 682 L 785 682 L 768 852 L 672 852 Z" fill="#C27B66"/>
	<path d="M 720 682 L 768 852 L 672 852 L 720 682 Z" fill="#A8624E" opacity="0.35"/>
	<rect x="647.2" y="654.8" width="145.6" height="28.56" rx="10.88" fill="#A8624E"/><ellipse cx="880" cy="856" rx="42.666666666666664" ry="10" fill="#222C25" opacity="0.10"/><path d="M 880 797 Q 916.2 670.5 932 567" stroke="#5C6B4E" stroke-width="3" fill="none" stroke-linecap="round"/><path d="M 891.5 755.47 Q 896.2 732.22 877.05 718.21 Q 872.35 741.47 891.5 755.47 Z" fill="#6E7C66"/><path d="M 891.5 755.47 L 877.05 718.21" stroke="#222C25" stroke-width="1" fill="none" stroke-linecap="round" opacity="0.5"/><path d="M 891.5 755.47 Q 915.12 757.71 927.05 737.2 Q 903.43 734.96 891.5 755.47 Z" fill="#6E7C66"/><path d="M 891.5 755.47 L 927.05 737.2" stroke="#222C25" stroke-width="1" fill="none" stroke-linecap="round" opacity="0.5"/><path d="M 901.87 715.22 Q 905.84 695.55 889.64 683.71 Q 885.67 703.38 901.87 715.22 Z" fill="#6E7C66"/><path d="M 901.87 715.22 L 889.64 683.71" stroke="#222C25" stroke-width="1" fill="none" stroke-linecap="round" opacity="0.5"/><path d="M 901.87 715.22 Q 921.84 717.12 931.93 699.77 Q 911.95 697.88 901.87 715.22 Z" fill="#6E7C66"/><path d="M 901.87 715.22 L 931.93 699.77" stroke="#222C25" stroke-width="1" fill="none" stroke-linecap="round" opacity="0.5"/><path d="M 911.1 676.25 Q 914.7 658.42 900.02 647.68 Q 896.42 665.51 911.1 676.25 Z" fill="#6E7C66"/><path d="M 911.1 676.25 L 900.02 647.68" stroke="#222C25" stroke-width="1" fill="none" stroke-linecap="round" opacity="0.5"/><path d="M 911.1 676.25 Q 929.21 677.97 938.35 662.24 Q 920.24 660.53 911.1 676.25 Z" fill="#6E7C66"/><path d="M 911.1 676.25 L 938.35 662.24" stroke="#222C25" stroke-width="1" fill="none" stroke-linecap="round" opacity="0.5"/><path d="M 919.2 638.56 Q 921.89 625.24 910.92 617.22 Q 908.23 630.53 919.2 638.56 Z" fill="#6E7C66"/><path d="M 919.2 638.56 L 910.92 617.22" stroke="#222C25" stroke-width="1" fill="none" stroke-linecap="round" opacity="0.5"/><path d="M 919.2 638.56 Q 932.73 639.84 939.56 628.09 Q 926.03 626.81 919.2 638.56 Z" fill="#6E7C66"/><path d="M 919.2 638.56 L 939.56 628.09" stroke="#222C25" stroke-width="1" fill="none" stroke-linecap="round" opacity="0.5"/><path d="M 926.17 602.14 Q 928.68 589.68 918.42 582.17 Q 915.9 594.63 926.17 602.14 Z" fill="#6E7C66"/><path d="M 926.17 602.14 L 918.42 582.17" stroke="#222C25" stroke-width="1" fill="none" stroke-linecap="round" opacity="0.5"/><path d="M 926.17 602.14 Q 938.83 603.34 945.22 592.35 Q 932.56 591.15 926.17 602.14 Z" fill="#6E7C66"/><path d="M 926.17 602.14 L 945.22 592.35" stroke="#222C25" stroke-width="1" fill="none" stroke-linecap="round" opacity="0.5"/><path d="M 932 567 Q 944.54 557.54 941.45 542.13 Q 928.91 551.6 932 567 Z" fill="#6E7C66"/><path d="M 932 567 L 941.45 542.13" stroke="#222C25" stroke-width="1" fill="none" stroke-linecap="round" opacity="0.5"/>
	<path d="M 840 742 L 920 742 L 912 852 L 848 852 Z" fill="#DCCFC2"/>
	<path d="M 880 742 L 912 852 L 848 852 L 880 742 Z" fill="#A8624E" opacity="0.35"/>
	<rect x="835.2" y="724.4" width="89.6" height="18.48" rx="7.04" fill="#E6E2DA"/><rect width="1000" height="1100" filter="url(#grain-story)" opacity="0.05"/>
</svg>
