<svg width="20" height="20" viewBox="0 0 20 20" fill="none" xmlns="http://www.w3.org/2000/svg">
<g clip-path="url(#clip0_3_5354)">
<path d="M5.72746 17.3176L9.29144 14.3602H10.353L11.6421 14.2085L12.7796 12.9953L15.2061 14.891L16.4952 13.8294L18.3151 15.2702V11.0995L17.5568 10.4171H15.8128L15.9644 6.17063L15.8128 4.19907L14.2962 2.83414L12.4004 2.53082L4.05921 2.68248L2.39096 3.81992L2.23931 7.00476L2.08765 10.2654L2.23931 12.9194L3.68006 14.1327L5.65163 14.3602L5.72746 17.3176Z" fill="#E8E9EE"/>
<path d="M9.03748 14.3981L5.57587 17.4692V14.3981H4.90175C4.14538 14.3981 3.42 14.0976 2.88516 13.5628C2.35033 13.0279 2.04984 12.3025 2.0498 11.5462V5.38276C2.04984 4.62639 2.35032 3.90101 2.88516 3.36618C3.41999 2.83134 4.14538 2.53086 4.90175 2.53082H13.3021C14.0585 2.53086 14.7839 2.83134 15.3187 3.36618C15.8536 3.90101 16.154 4.62639 16.1541 5.38276V8.97632" stroke="#1A2F5A" stroke-linecap="round" stroke-linejoin="round"/>
<path d="M6.33417 8.97633C6.66921 8.97633 6.94081 8.70473 6.94081 8.3697C6.94081 8.03466 6.66921 7.76306 6.33417 7.76306C5.99914 7.76306 5.72754 8.03466 5.72754 8.3697C5.72754 8.70473 5.99914 8.97633 6.33417 8.97633Z" fill="#1A2F5A"/>
<path d="M9.25361 8.97633C9.58864 8.97633 9.86024 8.70473 9.86024 8.3697C9.86024 8.03466 9.58864 7.76306 9.25361 7.76306C8.91857 7.76306 8.64697 8.03466 8.64697 8.3697C8.64697 8.70473 8.91857 8.97633 9.25361 8.97633Z" fill="#1A2F5A"/>
<path d="M15.2062 12.8436C15.5413 12.8436 15.8129 12.572 15.8129 12.237C15.8129 11.902 15.5413 11.6304 15.2062 11.6304C14.8712 11.6304 14.5996 11.902 14.5996 12.237C14.5996 12.572 14.8712 12.8436 15.2062 12.8436Z" fill="#1A2F5A"/>
<path d="M12.173 8.97633C12.5081 8.97633 12.7797 8.70473 12.7797 8.3697C12.7797 8.03466 12.5081 7.76306 12.173 7.76306C11.838 7.76306 11.5664 8.03466 11.5664 8.3697C11.5664 8.70473 11.838 8.97633 12.173 8.97633Z" fill="#1A2F5A"/>
<path d="M17.3318 10.4171H11.3363C10.7933 10.4171 10.353 10.8573 10.353 11.4003V15.5001C10.353 16.0432 10.7933 16.4834 11.3363 16.4834H17.3318C17.8749 16.4834 18.3151 16.0432 18.3151 15.5001V11.4003C18.3151 10.8573 17.8749 10.4171 17.3318 10.4171Z" stroke="#1A2F5A" stroke-linecap="round" stroke-linejoin="round"/>
<path d="M10.353 15.252L12.7796 12.8436L15.1303 14.891L16.4194 13.7536L18.3151 15.252" stroke="#1A2F5A" stroke-linecap="round" stroke-linejoin="round"/>
</g>
<defs>
<clipPath id="clip0_3_5354">
<rect width="17.327" height="16" fill="white" transform="translate(1.51904 2)"/>
</clipPath>
</defs>
</svg>
