<svg width="115" height="78" viewBox="0 0 115 78" fill="none" xmlns="http://www.w3.org/2000/svg">
<path d="M0.5 71.5217V5.97826C0.5 2.9527 2.9527 0.5 5.97826 0.5H33.6304C34.3868 0.5 35 1.11318 35 1.86957V11.4565C35 14.4821 37.4527 16.9348 40.4783 16.9348H77.1956C80.2212 16.9348 82.6739 14.4821 82.6739 11.4565V1.86957C82.6739 1.11318 83.2871 0.5 84.0435 0.5H108.696C111.721 0.5 114.174 2.9527 114.174 5.97826V71.5217C114.174 74.5473 111.721 77 108.696 77H5.97826C2.9527 77 0.5 74.5473 0.5 71.5217Z" fill="url(#paint0_linear_47_20910)" stroke="url(#paint1_linear_47_20910)" stroke-opacity="0.5"/>
<path d="M55.0918 41.6465C55.2656 41.5633 55.5041 41.6684 55.6348 41.8936C55.7702 42.1271 55.7381 42.3992 55.5635 42.501C55.5554 42.5057 55.5456 42.5079 55.5371 42.5117L55.5391 42.5156L50.582 45.3936V47.2773H50.5762C50.5783 47.2846 50.582 47.2913 50.582 47.2988C50.582 47.4097 50.3486 47.4999 50.0605 47.5C49.7723 47.5 49.5381 47.4098 49.5381 47.2988C49.5381 47.2913 49.5418 47.2846 49.5439 47.2773H49.5381V42.9023H49.5439C49.5418 42.895 49.5381 42.8884 49.5381 42.8809C49.5381 42.7699 49.7723 42.6797 50.0605 42.6797C50.3486 42.6798 50.582 42.77 50.582 42.8809C50.582 42.8884 50.5783 42.8951 50.5762 42.9023H50.582V44.2607L55.0918 41.6426V41.6465ZM59.6172 41.8936C59.7479 41.6685 59.9864 41.5624 60.1602 41.6455V41.6426L64.6699 44.2607V42.9023H64.6758C64.6736 42.895 64.67 42.8884 64.6699 42.8809C64.6699 42.7699 64.9041 42.6797 65.1924 42.6797C65.4804 42.6798 65.7139 42.77 65.7139 42.8809C65.7138 42.8884 65.7101 42.8951 65.708 42.9023H65.7139V47.2773H65.708C65.7101 47.2846 65.7138 47.2913 65.7139 47.2988C65.7139 47.4097 65.4804 47.4999 65.1924 47.5C64.9041 47.5 64.6699 47.4098 64.6699 47.2988C64.67 47.2913 64.6737 47.2846 64.6758 47.2773H64.6699V45.3936L59.7129 42.5156L59.7148 42.5107C59.7067 42.5071 59.6973 42.5055 59.6895 42.501C59.5146 42.3994 59.4817 42.1272 59.6172 41.8936ZM65.1533 31.5C65.4416 31.5 65.6758 31.5902 65.6758 31.7012C65.6758 31.7087 65.672 31.7154 65.6699 31.7227H65.6758V36.0977H65.6699C65.6721 36.105 65.6757 36.1116 65.6758 36.1191C65.6758 36.2301 65.4416 36.3203 65.1533 36.3203C64.8653 36.3202 64.6318 36.23 64.6318 36.1191C64.6319 36.1116 64.6356 36.105 64.6377 36.0977H64.6318V34.7393L60.1221 37.3574V37.3545C59.9483 37.4376 59.7098 37.3315 59.5791 37.1064C59.4436 36.8728 59.4765 36.6006 59.6514 36.499C59.6592 36.4945 59.6685 36.4929 59.6768 36.4893L59.6748 36.4844L64.6318 33.6064V31.7227H64.6377C64.6356 31.7154 64.6319 31.7087 64.6318 31.7012C64.6318 31.5903 64.8653 31.5001 65.1533 31.5ZM50.0225 31.5C50.3105 31.5001 50.5439 31.5903 50.5439 31.7012C50.5439 31.7087 50.5402 31.7154 50.5381 31.7227H50.5439V33.6064L55.501 36.4844L55.499 36.4883C55.5075 36.4921 55.5172 36.4943 55.5254 36.499C55.7 36.6007 55.7321 36.8729 55.5967 37.1064C55.466 37.3317 55.2275 37.4368 55.0537 37.3535V37.3574L50.5439 34.7393V36.0977H50.5381C50.5402 36.105 50.5439 36.1116 50.5439 36.1191C50.5439 36.23 50.3105 36.3202 50.0225 36.3203C49.7342 36.3203 49.5 36.2301 49.5 36.1191C49.5 36.1116 49.5037 36.105 49.5059 36.0977H49.5V31.7227H49.5059C49.5037 31.7154 49.5 31.7087 49.5 31.7012C49.5 31.5902 49.7342 31.5 50.0225 31.5Z" fill="#549EFF"/>
<g filter="url(#filter0_f_47_20910)" style="mix-blend-mode:plus-lighter">
<ellipse cx="58.5" cy="34.5" rx="9" ry="2" fill="#BBFFFF" fill-opacity="0.6"/>
</g>
<defs>
<filter id="filter0_f_47_20910" x="39.5" y="22.5" width="38" height="24" filterUnits="userSpaceOnUse" color-interpolation-filters="sRGB">
<feFlood flood-opacity="0" result="BackgroundImageFix"/>
<feBlend mode="normal" in="SourceGraphic" in2="BackgroundImageFix" result="shape"/>
<feGaussianBlur stdDeviation="5" result="effect1_foregroundBlur_47_20910"/>
</filter>
<linearGradient id="paint0_linear_47_20910" x1="57.337" y1="0.5" x2="57.337" y2="104.5" gradientUnits="userSpaceOnUse">
<stop stop-color="#C7DFF9"/>
<stop offset="1" stop-color="#EFF3F8"/>
</linearGradient>
<linearGradient id="paint1_linear_47_20910" x1="57.337" y1="0.5" x2="57.337" y2="63.5" gradientUnits="userSpaceOnUse">
<stop stop-color="white"/>
<stop offset="1" stop-color="white"/>
</linearGradient>
</defs>
</svg>
