<svg width="14" height="14" viewBox="0 0 14 14" fill="none" xmlns="http://www.w3.org/2000/svg">
<path d="M5.24992 5.83333C5.89425 5.83333 6.41659 5.311 6.41659 4.66667C6.41659 4.02233 5.89425 3.5 5.24992 3.5C4.60559 3.5 4.08325 4.02233 4.08325 4.66667C4.08325 5.311 4.60559 5.83333 5.24992 5.83333Z" stroke="#11315D" stroke-linecap="round" stroke-linejoin="round"/>
<path d="M7.58341 1.16669H5.25008C2.33341 1.16669 1.16675 2.33335 1.16675 5.25002V8.75002C1.16675 11.6667 2.33341 12.8334 5.25008 12.8334H8.75008C11.6667 12.8334 12.8334 11.6667 12.8334 8.75002V5.83335" fill="#11315D" fill-opacity="0.1"/>
<path d="M7.58341 1.16669H5.25008C2.33341 1.16669 1.16675 2.33335 1.16675 5.25002V8.75002C1.16675 11.6667 2.33341 12.8334 5.25008 12.8334H8.75008C11.6667 12.8334 12.8334 11.6667 12.8334 8.75002V5.83335" stroke="#11315D" stroke-linecap="round" stroke-linejoin="round"/>
<path d="M9.1875 2.91669H12.3958" stroke="#11315D" stroke-linecap="round"/>
<path d="M10.7917 4.52083V1.3125" stroke="#11315D" stroke-linecap="round"/>
<path d="M1.55762 11.0542L4.43345 9.12333C4.89428 8.81416 5.55928 8.84916 5.97345 9.20499L6.16595 9.37416C6.62095 9.76499 7.35595 9.76499 7.81095 9.37416L10.2376 7.29166C10.6926 6.90083 11.4276 6.90083 11.8826 7.29166L12.8335 8.10833" stroke="#11315D" stroke-linecap="round" stroke-linejoin="round"/>
</svg>
