<svg width="17" height="16" viewBox="0 0 17 16" fill="none" xmlns="http://www.w3.org/2000/svg">
<path d="M5.5918 10.1465C5.76558 10.0633 6.00407 10.1684 6.13477 10.3936C6.27017 10.6271 6.23807 10.8992 6.06348 11.001C6.05535 11.0057 6.04557 11.0079 6.03711 11.0117L6.03906 11.0156L1.08203 13.8936V15.7773H1.07617C1.07829 15.7846 1.082 15.7913 1.08203 15.7988C1.08203 15.9097 0.848572 15.9999 0.560547 16C0.272274 16 0.0380859 15.9098 0.0380859 15.7988C0.0381163 15.7913 0.0418247 15.7846 0.0439453 15.7773H0.0380859V11.4023H0.0439453C0.0418123 11.395 0.03813 11.3884 0.0380859 11.3809C0.0380859 11.2699 0.272274 11.1797 0.560547 11.1797C0.848572 11.1798 1.08203 11.27 1.08203 11.3809C1.08199 11.3884 1.07831 11.3951 1.07617 11.4023H1.08203V12.7607L5.5918 10.1426V10.1465ZM10.1172 10.3936C10.2479 10.1685 10.4864 10.0624 10.6602 10.1455V10.1426L15.1699 12.7607V11.4023H15.1758C15.1736 11.395 15.17 11.3884 15.1699 11.3809C15.1699 11.2699 15.4041 11.1797 15.6924 11.1797C15.9804 11.1798 16.2139 11.27 16.2139 11.3809C16.2138 11.3884 16.2101 11.3951 16.208 11.4023H16.2139V15.7773H16.208C16.2101 15.7846 16.2138 15.7913 16.2139 15.7988C16.2139 15.9097 15.9804 15.9999 15.6924 16C15.4041 16 15.1699 15.9098 15.1699 15.7988C15.17 15.7913 15.1737 15.7846 15.1758 15.7773H15.1699V13.8936L10.2129 11.0156L10.2148 11.0107C10.2067 11.0071 10.1973 11.0055 10.1895 11.001C10.0146 10.8994 9.98174 10.6272 10.1172 10.3936ZM15.6533 0C15.9416 1.11446e-05 16.1758 0.09025 16.1758 0.201172C16.1758 0.208685 16.172 0.215359 16.1699 0.222656H16.1758V4.59766H16.1699C16.1721 4.60495 16.1757 4.61163 16.1758 4.61914C16.1758 4.73006 15.9416 4.8203 15.6533 4.82031C15.3653 4.82021 15.1318 4.73001 15.1318 4.61914C15.1319 4.61163 15.1356 4.60496 15.1377 4.59766H15.1318V3.23926L10.6221 5.85742V5.85449C10.4483 5.93763 10.2098 5.83155 10.0791 5.60645C9.94364 5.37277 9.97647 5.10058 10.1514 4.99902C10.1592 4.99448 10.1685 4.99289 10.1768 4.98926L10.1748 4.98438L15.1318 2.10645V0.222656H15.1377C15.1356 0.215354 15.1319 0.208689 15.1318 0.201172C15.1318 0.090307 15.3653 0.000103449 15.6533 0ZM0.522461 0C0.810522 9.90847e-05 1.04395 0.0903043 1.04395 0.201172C1.04392 0.208691 1.04021 0.215352 1.03809 0.222656H1.04395V2.10645L6.00098 4.98438L5.99902 4.98828C6.0075 4.99208 6.01725 4.9943 6.02539 4.99902C6.20004 5.10074 6.23212 5.37289 6.09668 5.60645C5.96597 5.83167 5.7275 5.93678 5.55371 5.85352V5.85742L1.04395 3.23926V4.59766H1.03809C1.04022 4.60496 1.0439 4.61162 1.04395 4.61914C1.04395 4.73001 0.810522 4.82021 0.522461 4.82031C0.234189 4.82031 0 4.73007 0 4.61914C4.38678e-05 4.61163 0.00372611 4.60495 0.00585938 4.59766H0V0.222656H0.00585938C0.0037385 0.215356 3.02221e-05 0.208687 0 0.201172C0 0.0902453 0.234189 3.58239e-06 0.522461 0Z" fill="black"/>
</svg>
