<svg xmlns="http://www.w3.org/2000/svg" viewBox="0 0 800 600" width="800" height="600" role="img" aria-label="An engraving of a grand library reading hall with vaulted arches, towering bookcases, a brass chandelier and a long study table lit by green banker's lamps"><defs>
  <linearGradient id="ht-air" x1="0" y1="0" x2="0" y2="1">
    <stop offset="0" stop-color="#33271c"/><stop offset="0.6" stop-color="#3f3020"/><stop offset="1" stop-color="#241a12"/>
  </linearGradient>
  <radialGradient id="ht-glow" cx="0.5" cy="0.34" r="0.6">
    <stop offset="0" stop-color="#f0c069" stop-opacity="0.55"/><stop offset="1" stop-color="#f0c069" stop-opacity="0"/>
  </radialGradient>
  <linearGradient id="ht-wood" x1="0" y1="0" x2="0" y2="1"><stop offset="0" stop-color="#4a3320"/><stop offset="1" stop-color="#2a1c11"/></linearGradient>
  <linearGradient id="ht-floor" x1="0" y1="0" x2="0" y2="1"><stop offset="0" stop-color="#3a2a1b"/><stop offset="1" stop-color="#23180f"/></linearGradient>
  <linearGradient id="ht-brass" x1="0" y1="0" x2="0" y2="1"><stop offset="0" stop-color="#e6cf8f"/><stop offset="0.5" stop-color="#c9a962"/><stop offset="1" stop-color="#9c7a35"/></linearGradient>
</defs><rect width="800" height="600" fill="url(#ht-air)"/><g fill="none" stroke="#5a4528" stroke-width="2" opacity="0.7"><path d="M120 250 Q400 30 680 250"/><path d="M166 250 Q400 56 634 250"/><path d="M212 250 Q400 82 588 250"/><path d="M258 250 Q400 108 542 250"/><path d="M304 250 Q400 134 496 250"/><path d="M350 250 Q400 160 450 250"/></g><path d="M330 250 Q400 150 470 250 L470 430 L330 430 Z" fill="#2c2114" opacity="0.8"/><rect width="800" height="600" fill="url(#ht-glow)"/><rect x="40" y="150" width="150" height="320" fill="url(#ht-wood)"/><rect x="40" y="206" width="150" height="5" fill="#000" opacity="0.3"/><rect x="43" y="170" width="7" height="36" fill="#2f4760"/><rect x="51" y="171" width="14" height="35" fill="#5a3c20"/><rect x="51" y="185" width="14" height="3" fill="#c9a962" opacity="0.6"/><rect x="66" y="171" width="16" height="35" fill="#5a3c20"/><rect x="66" y="185" width="16" height="3" fill="#c9a962" opacity="0.6"/><rect x="83" y="170" width="9" height="36" fill="#2f4760"/><rect x="93" y="168" width="9" height="38" fill="#6e2733"/><rect x="93" y="183.2" width="9" height="3" fill="#c9a962" opacity="0.6"/><rect x="103" y="169" width="14" height="37" fill="#3f5a3a"/><rect x="118" y="169" width="16" height="37" fill="#3f5a3a"/><rect x="135" y="169" width="16" height="37" fill="#3f5a3a"/><rect x="152" y="173" width="10" height="33" fill="#4a3a22"/><rect x="163" y="173" width="16" height="33" fill="#4a3a22"/><rect x="40" y="258" width="150" height="5" fill="#000" opacity="0.3"/><rect x="43" y="220" width="9" height="38" fill="#6e2733"/><rect x="43" y="235.2" width="9" height="3" fill="#c9a962" opacity="0.6"/><rect x="53" y="221" width="14" height="37" fill="#3f5a3a"/><rect x="68" y="221" width="16" height="37" fill="#3f5a3a"/><rect x="85" y="221" width="16" height="37" fill="#3f5a3a"/><rect x="102" y="225" width="10" height="33" fill="#4a3a22"/><rect x="113" y="225" width="16" height="33" fill="#4a3a22"/><rect x="130" y="220" width="15" height="38" fill="#6e2733"/><rect x="130" y="235.2" width="15" height="3" fill="#c9a962" opacity="0.6"/><rect x="146" y="220" width="7" height="38" fill="#6e2733"/><rect x="146" y="235.2" width="7" height="3" fill="#c9a962" opacity="0.6"/><rect x="154" y="221" width="14" height="37" fill="#3f5a3a"/><rect x="169" y="223" width="12" height="35" fill="#5a3c20"/><rect x="169" y="237" width="12" height="3" fill="#c9a962" opacity="0.6"/><rect x="40" y="310" width="150" height="5" fill="#000" opacity="0.3"/><rect x="43" y="277" width="12" height="33" fill="#4a3a22"/><rect x="56" y="275" width="10" height="35" fill="#5a3c20"/><rect x="56" y="289" width="10" height="3" fill="#c9a962" opacity="0.6"/><rect x="67" y="276" width="15" height="34" fill="#7a2e3a"/><rect x="83" y="273" width="12" height="37" fill="#3f5a3a"/><rect x="96" y="273" width="16" height="37" fill="#3f5a3a"/><rect x="113" y="276" width="11" height="34" fill="#7a2e3a"/><rect x="125" y="277" width="14" height="33" fill="#4a3a22"/><rect x="140" y="276" width="7" height="34" fill="#7a2e3a"/><rect x="148" y="273" width="12" height="37" fill="#3f5a3a"/><rect x="161" y="276" width="11" height="34" fill="#7a2e3a"/><rect x="173" y="276" width="7" height="34" fill="#7a2e3a"/><rect x="40" y="362" width="150" height="5" fill="#000" opacity="0.3"/><rect x="43" y="329" width="14" height="33" fill="#4a3a22"/><rect x="58" y="324" width="15" height="38" fill="#6e2733"/><rect x="58" y="339.2" width="15" height="3" fill="#c9a962" opacity="0.6"/><rect x="74" y="326" width="13" height="36" fill="#2f4760"/><rect x="88" y="324" width="9" height="38" fill="#6e2733"/><rect x="88" y="339.2" width="9" height="3" fill="#c9a962" opacity="0.6"/><rect x="98" y="326" width="13" height="36" fill="#2f4760"/><rect x="112" y="326" width="7" height="36" fill="#2f4760"/><rect x="120" y="327" width="14" height="35" fill="#5a3c20"/><rect x="120" y="341" width="14" height="3" fill="#c9a962" opacity="0.6"/><rect x="135" y="327" width="16" height="35" fill="#5a3c20"/><rect x="135" y="341" width="16" height="3" fill="#c9a962" opacity="0.6"/><rect x="152" y="326" width="9" height="36" fill="#2f4760"/><rect x="162" y="324" width="9" height="38" fill="#6e2733"/><rect x="162" y="339.2" width="9" height="3" fill="#c9a962" opacity="0.6"/><rect x="172" y="325" width="14" height="37" fill="#3f5a3a"/><rect x="40" y="414" width="150" height="5" fill="#000" opacity="0.3"/><rect x="43" y="381" width="16" height="33" fill="#4a3a22"/><rect x="60" y="379" width="10" height="35" fill="#5a3c20"/><rect x="60" y="393" width="10" height="3" fill="#c9a962" opacity="0.6"/><rect x="71" y="381" width="12" height="33" fill="#4a3a22"/><rect x="84" y="376" width="15" height="38" fill="#6e2733"/><rect x="84" y="391.2" width="15" height="3" fill="#c9a962" opacity="0.6"/><rect x="100" y="380" width="9" height="34" fill="#7a2e3a"/><rect x="110" y="376" width="13" height="38" fill="#6e2733"/><rect x="110" y="391.2" width="13" height="3" fill="#c9a962" opacity="0.6"/><rect x="124" y="377" width="14" height="37" fill="#3f5a3a"/><rect x="139" y="378" width="15" height="36" fill="#2f4760"/><rect x="155" y="378" width="7" height="36" fill="#2f4760"/><rect x="163" y="377" width="8" height="37" fill="#3f5a3a"/><rect x="172" y="380" width="11" height="34" fill="#7a2e3a"/><rect x="40" y="466" width="150" height="5" fill="#000" opacity="0.3"/><rect x="43" y="433" width="8" height="33" fill="#4a3a22"/><rect x="52" y="433" width="16" height="33" fill="#4a3a22"/><rect x="69" y="431" width="10" height="35" fill="#5a3c20"/><rect x="69" y="445" width="10" height="3" fill="#c9a962" opacity="0.6"/><rect x="80" y="433" width="12" height="33" fill="#4a3a22"/><rect x="93" y="428" width="15" height="38" fill="#6e2733"/><rect x="93" y="443.2" width="15" height="3" fill="#c9a962" opacity="0.6"/><rect x="109" y="432" width="9" height="34" fill="#7a2e3a"/><rect x="119" y="428" width="13" height="38" fill="#6e2733"/><rect x="119" y="443.2" width="13" height="3" fill="#c9a962" opacity="0.6"/><rect x="133" y="429" width="14" height="37" fill="#3f5a3a"/><rect x="148" y="430" width="15" height="36" fill="#2f4760"/><rect x="164" y="430" width="7" height="36" fill="#2f4760"/><rect x="172" y="429" width="8" height="37" fill="#3f5a3a"/><rect x="610" y="150" width="150" height="320" fill="url(#ht-wood)"/><rect x="610" y="206" width="150" height="5" fill="#000" opacity="0.3"/><rect x="613" y="168" width="9" height="38" fill="#6e2733"/><rect x="613" y="183.2" width="9" height="3" fill="#c9a962" opacity="0.6"/><rect x="623" y="169" width="14" height="37" fill="#3f5a3a"/><rect x="638" y="169" width="16" height="37" fill="#3f5a3a"/><rect x="655" y="169" width="16" height="37" fill="#3f5a3a"/><rect x="672" y="173" width="10" height="33" fill="#4a3a22"/><rect x="683" y="173" width="16" height="33" fill="#4a3a22"/><rect x="700" y="168" width="15" height="38" fill="#6e2733"/><rect x="700" y="183.2" width="15" height="3" fill="#c9a962" opacity="0.6"/><rect x="716" y="168" width="7" height="38" fill="#6e2733"/><rect x="716" y="183.2" width="7" height="3" fill="#c9a962" opacity="0.6"/><rect x="724" y="169" width="14" height="37" fill="#3f5a3a"/><rect x="739" y="171" width="12" height="35" fill="#5a3c20"/><rect x="739" y="185" width="12" height="3" fill="#c9a962" opacity="0.6"/><rect x="610" y="258" width="150" height="5" fill="#000" opacity="0.3"/><rect x="613" y="225" width="12" height="33" fill="#4a3a22"/><rect x="626" y="223" width="10" height="35" fill="#5a3c20"/><rect x="626" y="237" width="10" height="3" fill="#c9a962" opacity="0.6"/><rect x="637" y="224" width="15" height="34" fill="#7a2e3a"/><rect x="653" y="221" width="12" height="37" fill="#3f5a3a"/><rect x="666" y="221" width="16" height="37" fill="#3f5a3a"/><rect x="683" y="224" width="11" height="34" fill="#7a2e3a"/><rect x="695" y="225" width="14" height="33" fill="#4a3a22"/><rect x="710" y="224" width="7" height="34" fill="#7a2e3a"/><rect x="718" y="221" width="12" height="37" fill="#3f5a3a"/><rect x="731" y="224" width="11" height="34" fill="#7a2e3a"/><rect x="743" y="224" width="7" height="34" fill="#7a2e3a"/><rect x="610" y="310" width="150" height="5" fill="#000" opacity="0.3"/><rect x="613" y="277" width="14" height="33" fill="#4a3a22"/><rect x="628" y="272" width="15" height="38" fill="#6e2733"/><rect x="628" y="287.2" width="15" height="3" fill="#c9a962" opacity="0.6"/><rect x="644" y="274" width="13" height="36" fill="#2f4760"/><rect x="658" y="272" width="9" height="38" fill="#6e2733"/><rect x="658" y="287.2" width="9" height="3" fill="#c9a962" opacity="0.6"/><rect x="668" y="274" width="13" height="36" fill="#2f4760"/><rect x="682" y="274" width="7" height="36" fill="#2f4760"/><rect x="690" y="275" width="14" height="35" fill="#5a3c20"/><rect x="690" y="289" width="14" height="3" fill="#c9a962" opacity="0.6"/><rect x="705" y="275" width="16" height="35" fill="#5a3c20"/><rect x="705" y="289" width="16" height="3" fill="#c9a962" opacity="0.6"/><rect x="722" y="274" width="9" height="36" fill="#2f4760"/><rect x="732" y="272" width="9" height="38" fill="#6e2733"/><rect x="732" y="287.2" width="9" height="3" fill="#c9a962" opacity="0.6"/><rect x="742" y="273" width="14" height="37" fill="#3f5a3a"/><rect x="610" y="362" width="150" height="5" fill="#000" opacity="0.3"/><rect x="613" y="329" width="16" height="33" fill="#4a3a22"/><rect x="630" y="327" width="10" height="35" fill="#5a3c20"/><rect x="630" y="341" width="10" height="3" fill="#c9a962" opacity="0.6"/><rect x="641" y="329" width="12" height="33" fill="#4a3a22"/><rect x="654" y="324" width="15" height="38" fill="#6e2733"/><rect x="654" y="339.2" width="15" height="3" fill="#c9a962" opacity="0.6"/><rect x="670" y="328" width="9" height="34" fill="#7a2e3a"/><rect x="680" y="324" width="13" height="38" fill="#6e2733"/><rect x="680" y="339.2" width="13" height="3" fill="#c9a962" opacity="0.6"/><rect x="694" y="325" width="14" height="37" fill="#3f5a3a"/><rect x="709" y="326" width="15" height="36" fill="#2f4760"/><rect x="725" y="326" width="7" height="36" fill="#2f4760"/><rect x="733" y="325" width="8" height="37" fill="#3f5a3a"/><rect x="742" y="328" width="11" height="34" fill="#7a2e3a"/><rect x="610" y="414" width="150" height="5" fill="#000" opacity="0.3"/><rect x="613" y="381" width="8" height="33" fill="#4a3a22"/><rect x="622" y="381" width="16" height="33" fill="#4a3a22"/><rect x="639" y="379" width="10" height="35" fill="#5a3c20"/><rect x="639" y="393" width="10" height="3" fill="#c9a962" opacity="0.6"/><rect x="650" y="381" width="12" height="33" fill="#4a3a22"/><rect x="663" y="376" width="15" height="38" fill="#6e2733"/><rect x="663" y="391.2" width="15" height="3" fill="#c9a962" opacity="0.6"/><rect x="679" y="380" width="9" height="34" fill="#7a2e3a"/><rect x="689" y="376" width="13" height="38" fill="#6e2733"/><rect x="689" y="391.2" width="13" height="3" fill="#c9a962" opacity="0.6"/><rect x="703" y="377" width="14" height="37" fill="#3f5a3a"/><rect x="718" y="378" width="15" height="36" fill="#2f4760"/><rect x="734" y="378" width="7" height="36" fill="#2f4760"/><rect x="742" y="377" width="8" height="37" fill="#3f5a3a"/><rect x="610" y="466" width="150" height="5" fill="#000" opacity="0.3"/><rect x="613" y="433" width="10" height="33" fill="#4a3a22"/><rect x="624" y="430" width="11" height="36" fill="#2f4760"/><rect x="636" y="428" width="9" height="38" fill="#6e2733"/><rect x="636" y="443.2" width="9" height="3" fill="#c9a962" opacity="0.6"/><rect x="646" y="433" width="8" height="33" fill="#4a3a22"/><rect x="655" y="429" width="12" height="37" fill="#3f5a3a"/><rect x="668" y="430" width="15" height="36" fill="#2f4760"/><rect x="684" y="432" width="13" height="34" fill="#7a2e3a"/><rect x="698" y="428" width="13" height="38" fill="#6e2733"/><rect x="698" y="443.2" width="13" height="3" fill="#c9a962" opacity="0.6"/><rect x="712" y="431" width="12" height="35" fill="#5a3c20"/><rect x="712" y="445" width="12" height="3" fill="#c9a962" opacity="0.6"/><rect x="725" y="431" width="16" height="35" fill="#5a3c20"/><rect x="725" y="445" width="16" height="3" fill="#c9a962" opacity="0.6"/><rect x="742" y="432" width="15" height="34" fill="#7a2e3a"/><g stroke="url(#ht-brass)" stroke-width="2" opacity="0.8">
  <line x1="40" y1="300" x2="190" y2="300"/><line x1="610" y1="300" x2="760" y2="300"/><line x1="52" y1="300" x2="52" y2="320"/><line x1="622" y1="300" x2="622" y2="320"/><line x1="78" y1="300" x2="78" y2="320"/><line x1="648" y1="300" x2="648" y2="320"/><line x1="104" y1="300" x2="104" y2="320"/><line x1="674" y1="300" x2="674" y2="320"/><line x1="130" y1="300" x2="130" y2="320"/><line x1="700" y1="300" x2="700" y2="320"/><line x1="156" y1="300" x2="156" y2="320"/><line x1="726" y1="300" x2="726" y2="320"/><line x1="182" y1="300" x2="182" y2="320"/><line x1="752" y1="300" x2="752" y2="320"/></g><rect x="0" y="430" width="800" height="170" fill="url(#ht-floor)"/><g opacity="0.18"><rect x="220" y="432" width="28" height="32" fill="#c9a962"/><rect x="280" y="432" width="28" height="32" fill="#c9a962"/><rect x="340" y="432" width="28" height="32" fill="#c9a962"/><rect x="400" y="432" width="28" height="32" fill="#c9a962"/><rect x="460" y="432" width="28" height="32" fill="#c9a962"/><rect x="520" y="432" width="28" height="32" fill="#c9a962"/><rect x="170" y="466" width="44" height="32" fill="#c9a962"/><rect x="262" y="466" width="44" height="32" fill="#c9a962"/><rect x="354" y="466" width="44" height="32" fill="#c9a962"/><rect x="446" y="466" width="44" height="32" fill="#c9a962"/><rect x="538" y="466" width="44" height="32" fill="#c9a962"/><rect x="630" y="466" width="44" height="32" fill="#c9a962"/><rect x="28" y="500" width="60" height="32" fill="#c9a962"/><rect x="152" y="500" width="60" height="32" fill="#c9a962"/><rect x="276" y="500" width="60" height="32" fill="#c9a962"/><rect x="400" y="500" width="60" height="32" fill="#c9a962"/><rect x="524" y="500" width="60" height="32" fill="#c9a962"/><rect x="648" y="500" width="60" height="32" fill="#c9a962"/><rect x="10" y="534" width="76" height="32" fill="#c9a962"/><rect x="166" y="534" width="76" height="32" fill="#c9a962"/><rect x="322" y="534" width="76" height="32" fill="#c9a962"/><rect x="478" y="534" width="76" height="32" fill="#c9a962"/><rect x="634" y="534" width="76" height="32" fill="#c9a962"/><rect x="790" y="534" width="76" height="32" fill="#c9a962"/><rect x="-164" y="568" width="92" height="32" fill="#c9a962"/><rect x="24" y="568" width="92" height="32" fill="#c9a962"/><rect x="212" y="568" width="92" height="32" fill="#c9a962"/><rect x="400" y="568" width="92" height="32" fill="#c9a962"/><rect x="588" y="568" width="92" height="32" fill="#c9a962"/><rect x="776" y="568" width="92" height="32" fill="#c9a962"/></g><g>
  <rect x="300" y="446" width="200" height="14" fill="#5a3c22"/>
  <rect x="300" y="446" width="200" height="4" fill="#8a6238" opacity="0.7"/>
  <rect x="316" y="460" width="10" height="120" fill="#3a2614"/>
  <rect x="474" y="460" width="10" height="120" fill="#3a2614"/><rect x="338" y="416" width="4" height="30" fill="url(#ht-brass)"/><path d="M318 416 q22 -16 44 0 Z" fill="#1f5a3a"/><path d="M318 416 q22 -16 44 0 Z" fill="none" stroke="#c9a962" stroke-width="1" opacity="0.6"/><ellipse cx="340" cy="430" rx="40" ry="20" fill="#a7e08a" opacity="0.22"/><rect x="398" y="416" width="4" height="30" fill="url(#ht-brass)"/><path d="M378 416 q22 -16 44 0 Z" fill="#1f5a3a"/><path d="M378 416 q22 -16 44 0 Z" fill="none" stroke="#c9a962" stroke-width="1" opacity="0.6"/><ellipse cx="400" cy="430" rx="40" ry="20" fill="#a7e08a" opacity="0.22"/><rect x="458" y="416" width="4" height="30" fill="url(#ht-brass)"/><path d="M438 416 q22 -16 44 0 Z" fill="#1f5a3a"/><path d="M438 416 q22 -16 44 0 Z" fill="none" stroke="#c9a962" stroke-width="1" opacity="0.6"/><ellipse cx="460" cy="430" rx="40" ry="20" fill="#a7e08a" opacity="0.22"/><path d="M348 446 q26 -8 52 0 v4 q-26 -6 -52 0 Z" fill="#e8dfd4"/><path d="M408 446 q26 -8 52 0 v4 q-26 -6 -52 0 Z" fill="#e8dfd4"/></g><g>
  <line x1="400" y1="40" x2="400" y2="120" stroke="url(#ht-brass)" stroke-width="3"/>
  <ellipse cx="400" cy="128" rx="58" ry="14" fill="none" stroke="url(#ht-brass)" stroke-width="3"/>
  <ellipse cx="400" cy="150" rx="40" ry="10" fill="none" stroke="url(#ht-brass)" stroke-width="2"/><circle cx="458.0" cy="122.0" r="3.5" fill="#f6d26b"/><circle cx="458.0" cy="122.0" r="9" fill="#f4c873" opacity="0.3"/><circle cx="441.0" cy="131.9" r="3.5" fill="#f6d26b"/><circle cx="441.0" cy="131.9" r="9" fill="#f4c873" opacity="0.3"/><circle cx="400.0" cy="136.0" r="3.5" fill="#f6d26b"/><circle cx="400.0" cy="136.0" r="9" fill="#f4c873" opacity="0.3"/><circle cx="359.0" cy="131.9" r="3.5" fill="#f6d26b"/><circle cx="359.0" cy="131.9" r="9" fill="#f4c873" opacity="0.3"/><circle cx="342.0" cy="122.0" r="3.5" fill="#f6d26b"/><circle cx="342.0" cy="122.0" r="9" fill="#f4c873" opacity="0.3"/><circle cx="359.0" cy="112.1" r="3.5" fill="#f6d26b"/><circle cx="359.0" cy="112.1" r="9" fill="#f4c873" opacity="0.3"/><circle cx="400.0" cy="108.0" r="3.5" fill="#f6d26b"/><circle cx="400.0" cy="108.0" r="9" fill="#f4c873" opacity="0.3"/><circle cx="441.0" cy="112.1" r="3.5" fill="#f6d26b"/><circle cx="441.0" cy="112.1" r="9" fill="#f4c873" opacity="0.3"/><circle cx="400" cy="128" r="70" fill="#f4c873" opacity="0.10"/></g><rect width="800" height="600" fill="none"/></svg>