<svg xmlns="http://www.w3.org/2000/svg" viewBox="0 0 600 800" width="600" height="800" role="img" aria-label="An engraving of a scholar reading by candlelight at a study desk surrounded by leather-bound tomes">
  <defs>
    <linearGradient id="hs-sky" x1="0" y1="0" x2="0" y2="1">
      <stop offset="0" stop-color="#2a211a"/>
      <stop offset="0.55" stop-color="#3a2c20"/>
      <stop offset="1" stop-color="#241a13"/>
    </linearGradient>
    <radialGradient id="hs-glow" cx="0.62" cy="0.46" r="0.55">
      <stop offset="0" stop-color="#f4c873" stop-opacity="0.9"/>
      <stop offset="0.35" stop-color="#d59a44" stop-opacity="0.45"/>
      <stop offset="1" stop-color="#d59a44" stop-opacity="0"/>
    </radialGradient>
    <linearGradient id="hs-wood" x1="0" y1="0" x2="0" y2="1">
      <stop offset="0" stop-color="#4a3320"/>
      <stop offset="1" stop-color="#2c1d12"/>
    </linearGradient>
    <linearGradient id="hs-brass" x1="0" y1="0" x2="0" y2="1">
      <stop offset="0" stop-color="#e6cf8f"/>
      <stop offset="0.5" stop-color="#c9a962"/>
      <stop offset="1" stop-color="#9c7a35"/>
    </linearGradient>
    <linearGradient id="hs-robe" x1="0" y1="0" x2="1" y2="1">
      <stop offset="0" stop-color="#5e2730"/>
      <stop offset="1" stop-color="#3a161d"/>
    </linearGradient>
  </defs>

  <rect width="600" height="800" fill="url(#hs-sky)"/>

  <!-- Back wall: tall arched window with leaded glass -->
  <g opacity="0.85">
    <path d="M210 70 h180 a90 90 0 0 1 0 0 v0 q90 0 90 90 v300 h-360 v-300 q0 -90 90 -90 Z" fill="#1d2630" opacity="0.5"/>
    <path d="M210 160 q0 -90 90 -90 q90 0 90 90 v300 h-180 Z" fill="#2b3a47" opacity="0.45"/>
    <g stroke="#6f8673" stroke-width="0" />
    <g fill="none" stroke="#7d6a48" stroke-width="2" opacity="0.7">
      <path d="M300 70 v390"/>
      <path d="M255 95 v365"/>
      <path d="M345 95 v365"/>
      <path d="M210 200 h180"/>
      <path d="M210 280 h180"/>
      <path d="M210 360 h180"/>
    </g>
    <!-- moonlight panes -->
    <g fill="#9fb6c4" opacity="0.10">
      <rect x="258" y="200" width="40" height="78"/>
      <rect x="302" y="280" width="40" height="78"/>
      <rect x="258" y="360" width="40" height="78"/>
    </g>
  </g>

  <!-- Bookshelves flanking -->
  <g>
    <rect x="20" y="120" width="170" height="430" fill="url(#hs-wood)"/>
    <rect x="410" y="120" width="170" height="430" fill="url(#hs-wood)"/>
    <g>
      <!-- shelf rows -->
      <g fill="#000" opacity="0.25">
        <rect x="20" y="210" width="170" height="6"/>
        <rect x="20" y="300" width="170" height="6"/>
        <rect x="20" y="390" width="170" height="6"/>
        <rect x="20" y="480" width="170" height="6"/>
        <rect x="410" y="210" width="170" height="6"/>
        <rect x="410" y="300" width="170" height="6"/>
        <rect x="410" y="390" width="170" height="6"/>
        <rect x="410" y="480" width="170" height="6"/>
      </g>
    </g>
  </g>

  <!-- Book spines (procedurally drawn via repeated rects) -->
  <g id="hs-books"><g transform="rotate(0 35.5 206)"><rect x="24" y="130" width="23" height="76" fill="#8a6238"/><rect x="24" y="130" width="23" height="76" fill="none" stroke="#000" stroke-opacity="0.25" stroke-width="1"/></g><g transform="rotate(0 58.5 206)"><rect x="49" y="137" width="19" height="69" fill="#2f4760"/><rect x="49" y="137" width="19" height="69" fill="none" stroke="#000" stroke-opacity="0.25" stroke-width="1"/><rect x="50" y="159.08" width="17" height="6.9" fill="#c9a962" opacity="0.7"/></g><g transform="rotate(-3 74.5 206)"><rect x="69" y="135" width="11" height="71" fill="#6b4a2c"/><rect x="69" y="135" width="11" height="71" fill="none" stroke="#000" stroke-opacity="0.25" stroke-width="1"/><rect x="70" y="157.72" width="9" height="7.1000000000000005" fill="#c9a962" opacity="0.7"/></g><g transform="rotate(3 90 206)"><rect x="81" y="131" width="18" height="75" fill="#4a3a22"/><rect x="81" y="131" width="18" height="75" fill="none" stroke="#000" stroke-opacity="0.25" stroke-width="1"/><rect x="82" y="155" width="16" height="7.5" fill="#c9a962" opacity="0.7"/><rect x="82" y="172.25" width="16" height="2" fill="#c9a962" opacity="0.5"/></g><g transform="rotate(0 108.5 206)"><rect x="101" y="137" width="15" height="69" fill="#6b4a2c"/><rect x="101" y="137" width="15" height="69" fill="none" stroke="#000" stroke-opacity="0.25" stroke-width="1"/><rect x="102" y="159.08" width="13" height="6.9" fill="#c9a962" opacity="0.7"/></g><g transform="rotate(0 127.5 206)"><rect x="118" y="131" width="19" height="75" fill="#5a3c20"/><rect x="118" y="131" width="19" height="75" fill="none" stroke="#000" stroke-opacity="0.25" stroke-width="1"/><rect x="119" y="155" width="17" height="7.5" fill="#c9a962" opacity="0.7"/></g><g transform="rotate(0 143.5 206)"><rect x="138" y="129" width="11" height="77" fill="#5e2730"/><rect x="138" y="129" width="11" height="77" fill="none" stroke="#000" stroke-opacity="0.25" stroke-width="1"/><rect x="139" y="153.64" width="9" height="7.7" fill="#c9a962" opacity="0.7"/></g><g transform="rotate(0 160.5 206)"><rect x="150" y="131" width="21" height="75" fill="#5e2730"/><rect x="150" y="131" width="21" height="75" fill="none" stroke="#000" stroke-opacity="0.25" stroke-width="1"/><rect x="151" y="155" width="19" height="7.5" fill="#c9a962" opacity="0.7"/></g><g transform="rotate(-3 179 206)"><rect x="172" y="132" width="14" height="74" fill="#324b3a"/><rect x="172" y="132" width="14" height="74" fill="none" stroke="#000" stroke-opacity="0.25" stroke-width="1"/><rect x="173" y="155.68" width="12" height="7.4" fill="#c9a962" opacity="0.7"/></g><g transform="rotate(0 30 296)"><rect x="24" y="227" width="12" height="69" fill="#2f4760"/><rect x="24" y="227" width="12" height="69" fill="none" stroke="#000" stroke-opacity="0.25" stroke-width="1"/><rect x="25" y="249.08" width="10" height="6.9" fill="#c9a962" opacity="0.7"/><rect x="25" y="264.95" width="10" height="2" fill="#c9a962" opacity="0.5"/></g><g transform="rotate(0 46.5 296)"><rect x="37" y="221" width="19" height="75" fill="#2f4760"/><rect x="37" y="221" width="19" height="75" fill="none" stroke="#000" stroke-opacity="0.25" stroke-width="1"/><rect x="38" y="245" width="17" height="7.5" fill="#c9a962" opacity="0.7"/><rect x="38" y="262.25" width="17" height="2" fill="#c9a962" opacity="0.5"/></g><g transform="rotate(0 63.5 296)"><rect x="58" y="222" width="11" height="74" fill="#2f4760"/><rect x="58" y="222" width="11" height="74" fill="none" stroke="#000" stroke-opacity="0.25" stroke-width="1"/><rect x="59" y="245.68" width="9" height="7.4" fill="#c9a962" opacity="0.7"/></g><g transform="rotate(0 82 296)"><rect x="71" y="228" width="22" height="68" fill="#6e2733"/><rect x="71" y="228" width="22" height="68" fill="none" stroke="#000" stroke-opacity="0.25" stroke-width="1"/><rect x="72" y="249.76" width="20" height="6.800000000000001" fill="#c9a962" opacity="0.7"/></g><g transform="rotate(0 105.5 296)"><rect x="94" y="223" width="23" height="73" fill="#6b4a2c"/><rect x="94" y="223" width="23" height="73" fill="none" stroke="#000" stroke-opacity="0.25" stroke-width="1"/></g><g transform="rotate(0 130 296)"><rect x="118" y="226" width="24" height="70" fill="#324b3a"/><rect x="118" y="226" width="24" height="70" fill="none" stroke="#000" stroke-opacity="0.25" stroke-width="1"/><rect x="119" y="248.4" width="22" height="7" fill="#c9a962" opacity="0.7"/></g><g transform="rotate(0 150.5 296)"><rect x="143" y="224" width="15" height="72" fill="#2f4760"/><rect x="143" y="224" width="15" height="72" fill="none" stroke="#000" stroke-opacity="0.25" stroke-width="1"/></g><g transform="rotate(-3 171 296)"><rect x="159" y="227" width="24" height="69" fill="#324b3a"/><rect x="159" y="227" width="24" height="69" fill="none" stroke="#000" stroke-opacity="0.25" stroke-width="1"/><rect x="160" y="249.08" width="22" height="6.9" fill="#c9a962" opacity="0.7"/><rect x="160" y="264.95" width="22" height="2" fill="#c9a962" opacity="0.5"/></g><g transform="rotate(3 32.5 386)"><rect x="24" y="313" width="17" height="73" fill="#3f5a3a"/><rect x="24" y="313" width="17" height="73" fill="none" stroke="#000" stroke-opacity="0.25" stroke-width="1"/><rect x="25" y="353.15" width="15" height="2" fill="#c9a962" opacity="0.5"/></g><g transform="rotate(0 49.5 386)"><rect x="43" y="313" width="13" height="73" fill="#3f5a3a"/><rect x="43" y="313" width="13" height="73" fill="none" stroke="#000" stroke-opacity="0.25" stroke-width="1"/><rect x="44" y="336.36" width="11" height="7.300000000000001" fill="#c9a962" opacity="0.7"/><rect x="44" y="353.15" width="11" height="2" fill="#c9a962" opacity="0.5"/></g><g transform="rotate(0 69 386)"><rect x="58" y="316" width="22" height="70" fill="#7a2e3a"/><rect x="58" y="316" width="22" height="70" fill="none" stroke="#000" stroke-opacity="0.25" stroke-width="1"/><rect x="59" y="338.4" width="20" height="7" fill="#c9a962" opacity="0.7"/><rect x="59" y="354.5" width="20" height="2" fill="#c9a962" opacity="0.5"/></g><g transform="rotate(0 87.5 386)"><rect x="82" y="316" width="11" height="70" fill="#324b3a"/><rect x="82" y="316" width="11" height="70" fill="none" stroke="#000" stroke-opacity="0.25" stroke-width="1"/><rect x="83" y="338.4" width="9" height="7" fill="#c9a962" opacity="0.7"/><rect x="83" y="354.5" width="9" height="2" fill="#c9a962" opacity="0.5"/></g><g transform="rotate(0 102.5 386)"><rect x="94" y="313" width="17" height="73" fill="#6e2733"/><rect x="94" y="313" width="17" height="73" fill="none" stroke="#000" stroke-opacity="0.25" stroke-width="1"/><rect x="95" y="336.36" width="15" height="7.300000000000001" fill="#c9a962" opacity="0.7"/></g><g transform="rotate(0 122.5 386)"><rect x="113" y="310" width="19" height="76" fill="#7a2e3a"/><rect x="113" y="310" width="19" height="76" fill="none" stroke="#000" stroke-opacity="0.25" stroke-width="1"/><rect x="114" y="334.32" width="17" height="7.6000000000000005" fill="#c9a962" opacity="0.7"/></g><g transform="rotate(0 144.5 386)"><rect x="133" y="318" width="23" height="68" fill="#7a2e3a"/><rect x="133" y="318" width="23" height="68" fill="none" stroke="#000" stroke-opacity="0.25" stroke-width="1"/><rect x="134" y="355.4" width="21" height="2" fill="#c9a962" opacity="0.5"/></g><g transform="rotate(0 167.5 386)"><rect x="158" y="316" width="19" height="70" fill="#4a3a22"/><rect x="158" y="316" width="19" height="70" fill="none" stroke="#000" stroke-opacity="0.25" stroke-width="1"/><rect x="159" y="338.4" width="17" height="7" fill="#c9a962" opacity="0.7"/><rect x="159" y="354.5" width="17" height="2" fill="#c9a962" opacity="0.5"/></g><g transform="rotate(0 34.5 476)"><rect x="24" y="408" width="21" height="68" fill="#3f5a3a"/><rect x="24" y="408" width="21" height="68" fill="none" stroke="#000" stroke-opacity="0.25" stroke-width="1"/><rect x="25" y="429.76" width="19" height="6.800000000000001" fill="#c9a962" opacity="0.7"/><rect x="25" y="445.4" width="19" height="2" fill="#c9a962" opacity="0.5"/></g><g transform="rotate(0 56.5 476)"><rect x="47" y="407" width="19" height="69" fill="#2f4760"/><rect x="47" y="407" width="19" height="69" fill="none" stroke="#000" stroke-opacity="0.25" stroke-width="1"/><rect x="48" y="444.95" width="17" height="2" fill="#c9a962" opacity="0.5"/></g><g transform="rotate(0 74 476)"><rect x="68" y="405" width="12" height="71" fill="#6e2733"/><rect x="68" y="405" width="12" height="71" fill="none" stroke="#000" stroke-opacity="0.25" stroke-width="1"/><rect x="69" y="427.72" width="10" height="7.1000000000000005" fill="#c9a962" opacity="0.7"/></g><g transform="rotate(0 87.5 476)"><rect x="82" y="402" width="11" height="74" fill="#5a3c20"/><rect x="82" y="402" width="11" height="74" fill="none" stroke="#000" stroke-opacity="0.25" stroke-width="1"/><rect x="83" y="425.68" width="9" height="7.4" fill="#c9a962" opacity="0.7"/></g><g transform="rotate(0 104 476)"><rect x="95" y="409" width="18" height="67" fill="#8a6238"/><rect x="95" y="409" width="18" height="67" fill="none" stroke="#000" stroke-opacity="0.25" stroke-width="1"/><rect x="96" y="430.44" width="16" height="6.7" fill="#c9a962" opacity="0.7"/><rect x="96" y="445.85" width="16" height="2" fill="#c9a962" opacity="0.5"/></g><g transform="rotate(0 125 476)"><rect x="115" y="400" width="20" height="76" fill="#324b3a"/><rect x="115" y="400" width="20" height="76" fill="none" stroke="#000" stroke-opacity="0.25" stroke-width="1"/><rect x="116" y="424.32" width="18" height="7.6000000000000005" fill="#c9a962" opacity="0.7"/><rect x="116" y="441.8" width="18" height="2" fill="#c9a962" opacity="0.5"/></g><g transform="rotate(0 148 476)"><rect x="136" y="409" width="24" height="67" fill="#324b3a"/><rect x="136" y="409" width="24" height="67" fill="none" stroke="#000" stroke-opacity="0.25" stroke-width="1"/><rect x="137" y="430.44" width="22" height="6.7" fill="#c9a962" opacity="0.7"/></g><g transform="rotate(0 168 476)"><rect x="162" y="409" width="12" height="67" fill="#6e2733"/><rect x="162" y="409" width="12" height="67" fill="none" stroke="#000" stroke-opacity="0.25" stroke-width="1"/><rect x="163" y="430.44" width="10" height="6.7" fill="#c9a962" opacity="0.7"/><rect x="163" y="445.85" width="10" height="2" fill="#c9a962" opacity="0.5"/></g><g transform="rotate(0 29 546)"><rect x="24" y="493" width="10" height="53" fill="#7a2e3a"/><rect x="24" y="493" width="10" height="53" fill="none" stroke="#000" stroke-opacity="0.25" stroke-width="1"/></g><g transform="rotate(-3 43.5 546)"><rect x="35" y="494" width="17" height="52" fill="#3f5a3a"/><rect x="35" y="494" width="17" height="52" fill="none" stroke="#000" stroke-opacity="0.25" stroke-width="1"/></g><g transform="rotate(0 63 546)"><rect x="53" y="499" width="20" height="47" fill="#324b3a"/><rect x="53" y="499" width="20" height="47" fill="none" stroke="#000" stroke-opacity="0.25" stroke-width="1"/><rect x="54" y="514.04" width="18" height="4.7" fill="#c9a962" opacity="0.7"/></g><g transform="rotate(0 87.5 546)"><rect x="75" y="490" width="25" height="56" fill="#5e2730"/><rect x="75" y="490" width="25" height="56" fill="none" stroke="#000" stroke-opacity="0.25" stroke-width="1"/><rect x="76" y="507.92" width="23" height="5.6000000000000005" fill="#c9a962" opacity="0.7"/></g><g transform="rotate(0 112 546)"><rect x="102" y="495" width="20" height="51" fill="#324b3a"/><rect x="102" y="495" width="20" height="51" fill="none" stroke="#000" stroke-opacity="0.25" stroke-width="1"/><rect x="103" y="511.32" width="18" height="5.1000000000000005" fill="#c9a962" opacity="0.7"/></g><g transform="rotate(0 131.5 546)"><rect x="123" y="492" width="17" height="54" fill="#5a3c20"/><rect x="123" y="492" width="17" height="54" fill="none" stroke="#000" stroke-opacity="0.25" stroke-width="1"/><rect x="124" y="509.28" width="15" height="5.4" fill="#c9a962" opacity="0.7"/></g><g transform="rotate(0 150 546)"><rect x="141" y="493" width="18" height="53" fill="#2f4760"/><rect x="141" y="493" width="18" height="53" fill="none" stroke="#000" stroke-opacity="0.25" stroke-width="1"/><rect x="142" y="522.15" width="16" height="2" fill="#c9a962" opacity="0.5"/></g><g transform="rotate(0 170.5 546)"><rect x="160" y="494" width="21" height="52" fill="#3f5a3a"/><rect x="160" y="494" width="21" height="52" fill="none" stroke="#000" stroke-opacity="0.25" stroke-width="1"/><rect x="161" y="510.64" width="19" height="5.2" fill="#c9a962" opacity="0.7"/><rect x="161" y="522.6" width="19" height="2" fill="#c9a962" opacity="0.5"/></g><g transform="rotate(0 421.5 206)"><rect x="414" y="136" width="15" height="70" fill="#4a3a22"/><rect x="414" y="136" width="15" height="70" fill="none" stroke="#000" stroke-opacity="0.25" stroke-width="1"/><rect x="415" y="158.4" width="13" height="7" fill="#c9a962" opacity="0.7"/><rect x="415" y="174.5" width="13" height="2" fill="#c9a962" opacity="0.5"/></g><g transform="rotate(0 438.5 206)"><rect x="431" y="130" width="15" height="76" fill="#6b4a2c"/><rect x="431" y="130" width="15" height="76" fill="none" stroke="#000" stroke-opacity="0.25" stroke-width="1"/><rect x="432" y="154.32" width="13" height="7.6000000000000005" fill="#c9a962" opacity="0.7"/><rect x="432" y="171.8" width="13" height="2" fill="#c9a962" opacity="0.5"/></g><g transform="rotate(0 453 206)"><rect x="448" y="137" width="10" height="69" fill="#8a6238"/><rect x="448" y="137" width="10" height="69" fill="none" stroke="#000" stroke-opacity="0.25" stroke-width="1"/><rect x="449" y="159.08" width="8" height="6.9" fill="#c9a962" opacity="0.7"/></g><g transform="rotate(0 470.5 206)"><rect x="459" y="136" width="23" height="70" fill="#3f5a3a"/><rect x="459" y="136" width="23" height="70" fill="none" stroke="#000" stroke-opacity="0.25" stroke-width="1"/><rect x="460" y="174.5" width="21" height="2" fill="#c9a962" opacity="0.5"/></g><g transform="rotate(0 495.5 206)"><rect x="484" y="133" width="23" height="73" fill="#6b4a2c"/><rect x="484" y="133" width="23" height="73" fill="none" stroke="#000" stroke-opacity="0.25" stroke-width="1"/><rect x="485" y="156.36" width="21" height="7.300000000000001" fill="#c9a962" opacity="0.7"/></g><g transform="rotate(0 517 206)"><rect x="509" y="128" width="16" height="78" fill="#5a3c20"/><rect x="509" y="128" width="16" height="78" fill="none" stroke="#000" stroke-opacity="0.25" stroke-width="1"/></g><g transform="rotate(0 535.5 206)"><rect x="527" y="133" width="17" height="73" fill="#6e2733"/><rect x="527" y="133" width="17" height="73" fill="none" stroke="#000" stroke-opacity="0.25" stroke-width="1"/><rect x="528" y="173.15" width="15" height="2" fill="#c9a962" opacity="0.5"/></g><g transform="rotate(0 551 206)"><rect x="545" y="132" width="12" height="74" fill="#6e2733"/><rect x="545" y="132" width="12" height="74" fill="none" stroke="#000" stroke-opacity="0.25" stroke-width="1"/><rect x="546" y="155.68" width="10" height="7.4" fill="#c9a962" opacity="0.7"/><rect x="546" y="172.7" width="10" height="2" fill="#c9a962" opacity="0.5"/></g><g transform="rotate(0 423.5 296)"><rect x="414" y="224" width="19" height="72" fill="#3f5a3a"/><rect x="414" y="224" width="19" height="72" fill="none" stroke="#000" stroke-opacity="0.25" stroke-width="1"/><rect x="415" y="247.04" width="17" height="7.2" fill="#c9a962" opacity="0.7"/><rect x="415" y="263.6" width="17" height="2" fill="#c9a962" opacity="0.5"/></g><g transform="rotate(0 444.5 296)"><rect x="434" y="227" width="21" height="69" fill="#5e2730"/><rect x="434" y="227" width="21" height="69" fill="none" stroke="#000" stroke-opacity="0.25" stroke-width="1"/><rect x="435" y="249.08" width="19" height="6.9" fill="#c9a962" opacity="0.7"/></g><g transform="rotate(0 467.5 296)"><rect x="457" y="225" width="21" height="71" fill="#8a6238"/><rect x="457" y="225" width="21" height="71" fill="none" stroke="#000" stroke-opacity="0.25" stroke-width="1"/></g><g transform="rotate(0 485.5 296)"><rect x="480" y="220" width="11" height="76" fill="#7a2e3a"/><rect x="480" y="220" width="11" height="76" fill="none" stroke="#000" stroke-opacity="0.25" stroke-width="1"/><rect x="481" y="244.32" width="9" height="7.6000000000000005" fill="#c9a962" opacity="0.7"/><rect x="481" y="261.8" width="9" height="2" fill="#c9a962" opacity="0.5"/></g><g transform="rotate(-3 503.5 296)"><rect x="492" y="227" width="23" height="69" fill="#7a2e3a"/><rect x="492" y="227" width="23" height="69" fill="none" stroke="#000" stroke-opacity="0.25" stroke-width="1"/></g><g transform="rotate(0 528.5 296)"><rect x="516" y="227" width="25" height="69" fill="#8a6238"/><rect x="516" y="227" width="25" height="69" fill="none" stroke="#000" stroke-opacity="0.25" stroke-width="1"/><rect x="517" y="264.95" width="23" height="2" fill="#c9a962" opacity="0.5"/></g><g transform="rotate(0 550 296)"><rect x="543" y="228" width="14" height="68" fill="#8a6238"/><rect x="543" y="228" width="14" height="68" fill="none" stroke="#000" stroke-opacity="0.25" stroke-width="1"/><rect x="544" y="249.76" width="12" height="6.800000000000001" fill="#c9a962" opacity="0.7"/><rect x="544" y="265.4" width="12" height="2" fill="#c9a962" opacity="0.5"/></g><g transform="rotate(-3 566.5 296)"><rect x="559" y="227" width="15" height="69" fill="#2f4760"/><rect x="559" y="227" width="15" height="69" fill="none" stroke="#000" stroke-opacity="0.25" stroke-width="1"/><rect x="560" y="249.08" width="13" height="6.9" fill="#c9a962" opacity="0.7"/></g><g transform="rotate(0 426 386)"><rect x="414" y="319" width="24" height="67" fill="#6e2733"/><rect x="414" y="319" width="24" height="67" fill="none" stroke="#000" stroke-opacity="0.25" stroke-width="1"/></g><g transform="rotate(0 447.5 386)"><rect x="440" y="315" width="15" height="71" fill="#7a2e3a"/><rect x="440" y="315" width="15" height="71" fill="none" stroke="#000" stroke-opacity="0.25" stroke-width="1"/><rect x="441" y="337.72" width="13" height="7.1000000000000005" fill="#c9a962" opacity="0.7"/></g><g transform="rotate(0 466 386)"><rect x="456" y="310" width="20" height="76" fill="#5e2730"/><rect x="456" y="310" width="20" height="76" fill="none" stroke="#000" stroke-opacity="0.25" stroke-width="1"/></g><g transform="rotate(0 486 386)"><rect x="478" y="311" width="16" height="75" fill="#5e2730"/><rect x="478" y="311" width="16" height="75" fill="none" stroke="#000" stroke-opacity="0.25" stroke-width="1"/></g><g transform="rotate(0 508 386)"><rect x="496" y="318" width="24" height="68" fill="#3f5a3a"/><rect x="496" y="318" width="24" height="68" fill="none" stroke="#000" stroke-opacity="0.25" stroke-width="1"/><rect x="497" y="355.4" width="22" height="2" fill="#c9a962" opacity="0.5"/></g><g transform="rotate(3 528 386)"><rect x="521" y="316" width="14" height="70" fill="#5e2730"/><rect x="521" y="316" width="14" height="70" fill="none" stroke="#000" stroke-opacity="0.25" stroke-width="1"/></g><g transform="rotate(0 549.5 386)"><rect x="537" y="311" width="25" height="75" fill="#3f5a3a"/><rect x="537" y="311" width="25" height="75" fill="none" stroke="#000" stroke-opacity="0.25" stroke-width="1"/></g><g transform="rotate(3 420.5 476)"><rect x="414" y="404" width="13" height="72" fill="#8a6238"/><rect x="414" y="404" width="13" height="72" fill="none" stroke="#000" stroke-opacity="0.25" stroke-width="1"/><rect x="415" y="427.04" width="11" height="7.2" fill="#c9a962" opacity="0.7"/></g><g transform="rotate(3 433.5 476)"><rect x="428" y="404" width="11" height="72" fill="#7a2e3a"/><rect x="428" y="404" width="11" height="72" fill="none" stroke="#000" stroke-opacity="0.25" stroke-width="1"/><rect x="429" y="427.04" width="9" height="7.2" fill="#c9a962" opacity="0.7"/><rect x="429" y="443.6" width="9" height="2" fill="#c9a962" opacity="0.5"/></g><g transform="rotate(0 445 476)"><rect x="440" y="407" width="10" height="69" fill="#6e2733"/><rect x="440" y="407" width="10" height="69" fill="none" stroke="#000" stroke-opacity="0.25" stroke-width="1"/><rect x="441" y="429.08" width="8" height="6.9" fill="#c9a962" opacity="0.7"/></g><g transform="rotate(0 463.5 476)"><rect x="451" y="404" width="25" height="72" fill="#5a3c20"/><rect x="451" y="404" width="25" height="72" fill="none" stroke="#000" stroke-opacity="0.25" stroke-width="1"/><rect x="452" y="443.6" width="23" height="2" fill="#c9a962" opacity="0.5"/></g><g transform="rotate(0 486.5 476)"><rect x="478" y="400" width="17" height="76" fill="#6e2733"/><rect x="478" y="400" width="17" height="76" fill="none" stroke="#000" stroke-opacity="0.25" stroke-width="1"/><rect x="479" y="424.32" width="15" height="7.6000000000000005" fill="#c9a962" opacity="0.7"/></g><g transform="rotate(3 505.5 476)"><rect x="497" y="400" width="17" height="76" fill="#6b4a2c"/><rect x="497" y="400" width="17" height="76" fill="none" stroke="#000" stroke-opacity="0.25" stroke-width="1"/><rect x="498" y="424.32" width="15" height="7.6000000000000005" fill="#c9a962" opacity="0.7"/><rect x="498" y="441.8" width="15" height="2" fill="#c9a962" opacity="0.5"/></g><g transform="rotate(0 528.5 476)"><rect x="516" y="405" width="25" height="71" fill="#4a3a22"/><rect x="516" y="405" width="25" height="71" fill="none" stroke="#000" stroke-opacity="0.25" stroke-width="1"/><rect x="517" y="427.72" width="23" height="7.1000000000000005" fill="#c9a962" opacity="0.7"/><rect x="517" y="444.05" width="23" height="2" fill="#c9a962" opacity="0.5"/></g><g transform="rotate(0 554.5 476)"><rect x="543" y="409" width="23" height="67" fill="#324b3a"/><rect x="543" y="409" width="23" height="67" fill="none" stroke="#000" stroke-opacity="0.25" stroke-width="1"/><rect x="544" y="430.44" width="21" height="6.7" fill="#c9a962" opacity="0.7"/></g><g transform="rotate(0 422.5 546)"><rect x="414" y="490" width="17" height="56" fill="#7a2e3a"/><rect x="414" y="490" width="17" height="56" fill="none" stroke="#000" stroke-opacity="0.25" stroke-width="1"/><rect x="415" y="507.92" width="15" height="5.6000000000000005" fill="#c9a962" opacity="0.7"/></g><g transform="rotate(0 438 546)"><rect x="433" y="492" width="10" height="54" fill="#7a2e3a"/><rect x="433" y="492" width="10" height="54" fill="none" stroke="#000" stroke-opacity="0.25" stroke-width="1"/><rect x="434" y="509.28" width="8" height="5.4" fill="#c9a962" opacity="0.7"/><rect x="434" y="521.7" width="8" height="2" fill="#c9a962" opacity="0.5"/></g><g transform="rotate(0 454 546)"><rect x="445" y="493" width="18" height="53" fill="#5a3c20"/><rect x="445" y="493" width="18" height="53" fill="none" stroke="#000" stroke-opacity="0.25" stroke-width="1"/><rect x="446" y="509.96" width="16" height="5.300000000000001" fill="#c9a962" opacity="0.7"/></g><g transform="rotate(0 469.5 546)"><rect x="464" y="495" width="11" height="51" fill="#6e2733"/><rect x="464" y="495" width="11" height="51" fill="none" stroke="#000" stroke-opacity="0.25" stroke-width="1"/><rect x="465" y="511.32" width="9" height="5.1000000000000005" fill="#c9a962" opacity="0.7"/></g><g transform="rotate(0 485.5 546)"><rect x="477" y="497" width="17" height="49" fill="#7a2e3a"/><rect x="477" y="497" width="17" height="49" fill="none" stroke="#000" stroke-opacity="0.25" stroke-width="1"/><rect x="478" y="512.68" width="15" height="4.9" fill="#c9a962" opacity="0.7"/></g><g transform="rotate(3 502 546)"><rect x="496" y="490" width="12" height="56" fill="#4a3a22"/><rect x="496" y="490" width="12" height="56" fill="none" stroke="#000" stroke-opacity="0.25" stroke-width="1"/></g><g transform="rotate(0 518.5 546)"><rect x="509" y="492" width="19" height="54" fill="#5e2730"/><rect x="509" y="492" width="19" height="54" fill="none" stroke="#000" stroke-opacity="0.25" stroke-width="1"/><rect x="510" y="509.28" width="17" height="5.4" fill="#c9a962" opacity="0.7"/><rect x="510" y="521.7" width="17" height="2" fill="#c9a962" opacity="0.5"/></g><g transform="rotate(0 538 546)"><rect x="530" y="496" width="16" height="50" fill="#5e2730"/><rect x="530" y="496" width="16" height="50" fill="none" stroke="#000" stroke-opacity="0.25" stroke-width="1"/><rect x="531" y="512" width="14" height="5" fill="#c9a962" opacity="0.7"/><rect x="531" y="523.5" width="14" height="2" fill="#c9a962" opacity="0.5"/></g><g transform="rotate(0 560 546)"><rect x="548" y="496" width="24" height="50" fill="#7a2e3a"/><rect x="548" y="496" width="24" height="50" fill="none" stroke="#000" stroke-opacity="0.25" stroke-width="1"/><rect x="549" y="523.5" width="22" height="2" fill="#c9a962" opacity="0.5"/></g></g>

  <!-- Warm candle glow over the scene -->
  <rect width="600" height="800" fill="url(#hs-glow)"/>

  <!-- Desk -->
  <rect x="60" y="600" width="480" height="200" fill="url(#hs-wood)"/>
  <rect x="60" y="600" width="480" height="14" fill="#6b4a2c"/>
  <rect x="60" y="600" width="480" height="4" fill="#8a6238" opacity="0.7"/>

  <!-- Stack of books on desk left -->
  <g>
    <rect x="92" y="556" width="150" height="20" rx="2" fill="#6e2733"/>
    <rect x="92" y="556" width="150" height="20" rx="2" fill="none" stroke="#c9a962" stroke-width="1" opacity="0.6"/>
    <rect x="100" y="534" width="138" height="22" rx="2" fill="#3f5a3a"/>
    <rect x="100" y="534" width="138" height="22" rx="2" fill="none" stroke="#c9a962" stroke-width="1" opacity="0.6"/>
    <rect x="96" y="510" width="150" height="24" rx="2" fill="#5a3c20"/>
    <rect x="96" y="510" width="150" height="24" rx="2" fill="none" stroke="#c9a962" stroke-width="1" opacity="0.6"/>
    <line x1="110" y1="546" x2="228" y2="546" stroke="#c9a962" stroke-width="1.5" opacity="0.7"/>
    <line x1="118" y1="522" x2="226" y2="522" stroke="#c9a962" stroke-width="1.5" opacity="0.7"/>
  </g>

  <!-- Candlestick (brass) right of figure -->
  <g>
    <ellipse cx="430" cy="592" rx="34" ry="9" fill="#1b120c" opacity="0.5"/>
    <path d="M412 592 q18 -10 36 0 l-6 -10 h-24 Z" fill="url(#hs-brass)"/>
    <rect x="424" y="520" width="12" height="64" rx="3" fill="url(#hs-brass)"/>
    <rect x="420" y="512" width="20" height="10" rx="3" fill="#b8953f"/>
    <!-- flame -->
    <path d="M430 470 q10 14 0 40 q-10 -14 0 -40 Z" fill="#f6d26b"/>
    <path d="M430 482 q5 8 0 24 q-5 -8 0 -24 Z" fill="#fff3c4"/>
    <circle cx="430" cy="492" r="34" fill="#f4c873" opacity="0.18"/>
  </g>

  <!-- The scholar -->
  <g>
    <!-- chair back hint -->
    <rect x="250" y="470" width="120" height="150" rx="8" fill="#3a2615" opacity="0.6"/>
    <!-- robe / body -->
    <path d="M250 770 q-6 -150 60 -190 q50 -28 100 14 q40 36 30 176 Z" fill="url(#hs-robe)"/>
    <!-- robe fold highlights -->
    <g stroke="#7a3340" stroke-width="2" fill="none" opacity="0.6">
      <path d="M300 600 q-10 80 -16 168"/>
      <path d="M350 596 q14 80 18 172"/>
    </g>
    <!-- collar -->
    <path d="M296 566 l30 26 l30 -26 q-30 18 -60 0 Z" fill="#e8dfd4" opacity="0.9"/>
    <!-- head -->
    <ellipse cx="326" cy="528" rx="34" ry="38" fill="#d8a87e"/>
    <!-- hair -->
    <path d="M292 520 q4 -42 34 -44 q34 2 36 44 q-8 -18 -36 -16 q-26 -2 -34 16 Z" fill="#3a2a1c"/>
    <!-- face shading -->
    <path d="M326 502 q16 4 18 30 q-2 20 -18 24 q4 -28 0 -54 Z" fill="#000" opacity="0.10"/>
    <!-- hand turning page -->
    <path d="M300 612 q22 -8 40 4 q-6 14 -24 12 q-14 -2 -16 -16 Z" fill="#d8a87e"/>
  </g>

  <!-- Open book under the candle, center -->
  <g>
    <path d="M210 660 q116 -34 230 0 l0 8 q-116 -30 -230 0 Z" fill="#000" opacity="0.25"/>
    <path d="M214 646 q112 -30 222 0 v6 q-112 -28 -222 0 Z" fill="#e8dfd4"/>
    <path d="M214 646 q112 -30 222 0 l-6 70 q-110 -26 -210 0 Z" fill="#efe7da"/>
    <path d="M214 646 q112 -30 222 0 l-6 70 q-110 -26 -210 0 Z" fill="none" stroke="#c9a962" stroke-width="1" opacity="0.4"/>
    <line x1="325" y1="640" x2="325" y2="716" stroke="#b8a07a" stroke-width="2" opacity="0.5"/>
    <g stroke="#9c8b7a" stroke-width="1.4" opacity="0.55">
      <line x1="232" y1="664" x2="312" y2="654"/>
      <line x1="232" y1="676" x2="312" y2="666"/>
      <line x1="232" y1="688" x2="312" y2="678"/>
      <line x1="338" y1="654" x2="418" y2="664"/>
      <line x1="338" y1="666" x2="418" y2="676"/>
      <line x1="338" y1="678" x2="418" y2="688"/>
    </g>
    <!-- illuminated initial on the page -->
    <rect x="236" y="658" width="18" height="18" fill="#8b2635" opacity="0.85"/>
  </g>

  <!-- Quill in inkwell, far right of desk -->
  <g>
    <ellipse cx="486" cy="618" rx="20" ry="8" fill="#1b120c"/>
    <ellipse cx="486" cy="615" rx="16" ry="6" fill="#2a1c12"/>
    <path d="M486 612 q26 -70 52 -120 q-10 60 -46 126 Z" fill="#efe7da" opacity="0.92"/>
    <path d="M500 590 q18 -40 32 -70" stroke="#9c8b7a" stroke-width="1" fill="none" opacity="0.6"/>
  </g>

  <!-- subtle floor vignette -->
  <rect x="0" y="690" width="600" height="110" fill="#1a120b" opacity="0.35"/>
</svg>
