<svg xmlns="http://www.w3.org/2000/svg" viewBox="0 0 640 480" width="640" height="480" role="img" aria-label="A hand-coloured botanical engraving plate of a flowering plant with leaves, bloom, root and a numbered specimen key"><defs>
  <linearGradient id="pg" x1="0" y1="0" x2="0" y2="1"><stop offset="0" stop-color="#e7dcc6"/><stop offset="1" stop-color="#d8c8a8"/></linearGradient>
  <radialGradient id="pv" cx="0.5" cy="0.5" r="0.75"><stop offset="0.55" stop-color="#000" stop-opacity="0"/><stop offset="1" stop-color="#5a4326" stop-opacity="0.35"/></radialGradient>
  <linearGradient id="qbrass" x1="0" y1="0" x2="0" y2="1"><stop offset="0" stop-color="#e6cf8f"/><stop offset="0.5" stop-color="#c9a962"/><stop offset="1" stop-color="#9c7a35"/></linearGradient>
</defs>
<rect width="640" height="480" fill="url(#pg)"/><circle cx="80" cy="90" r="40" fill="#9c7a35" opacity="0.06"/><circle cx="560" cy="400" r="55" fill="#9c7a35" opacity="0.06"/><circle cx="520" cy="80" r="30" fill="#9c7a35" opacity="0.06"/><circle cx="120" cy="420" r="46" fill="#9c7a35" opacity="0.06"/><g fill="#3a2c1c" opacity="0.55" font-family="serif"></g><g stroke="#3f5a3a" stroke-width="5" fill="none"><path d="M300 430 C300 360 280 300 300 240 C314 196 308 150 300 110"/></g><g transform="translate(300 330) rotate(18) scale(1)"><path d="M0 0 C30 -20 60 -16 80 6 C56 22 26 22 0 0 Z" fill="#3f5a3a"/><path d="M0 0 C30 -20 60 -16 80 6" stroke="#2c4329" stroke-width="1.5" fill="none"/><path d="M6 2 L70 8 M20 -6 L48 6 M22 10 L46 10" stroke="#2c4329" stroke-width="1" fill="none" opacity="0.7"/></g><g transform="translate(300 300) rotate(196) scale(0.9)"><path d="M0 0 C30 -20 60 -16 80 6 C56 22 26 22 0 0 Z" fill="#3f5a3a"/><path d="M0 0 C30 -20 60 -16 80 6" stroke="#2c4329" stroke-width="1.5" fill="none"/><path d="M6 2 L70 8 M20 -6 L48 6 M22 10 L46 10" stroke="#2c4329" stroke-width="1" fill="none" opacity="0.7"/></g><g transform="translate(296 250) rotate(8) scale(0.8)"><path d="M0 0 C30 -20 60 -16 80 6 C56 22 26 22 0 0 Z" fill="#3f5a3a"/><path d="M0 0 C30 -20 60 -16 80 6" stroke="#2c4329" stroke-width="1.5" fill="none"/><path d="M6 2 L70 8 M20 -6 L48 6 M22 10 L46 10" stroke="#2c4329" stroke-width="1" fill="none" opacity="0.7"/></g><g transform="translate(300 224) rotate(188) scale(0.7)"><path d="M0 0 C30 -20 60 -16 80 6 C56 22 26 22 0 0 Z" fill="#3f5a3a"/><path d="M0 0 C30 -20 60 -16 80 6" stroke="#2c4329" stroke-width="1.5" fill="none"/><path d="M6 2 L70 8 M20 -6 L48 6 M22 10 L46 10" stroke="#2c4329" stroke-width="1" fill="none" opacity="0.7"/></g><g><ellipse cx="322.0" cy="104.0" rx="16" ry="9" transform="rotate(0.0 322.0 104.0)" fill="#8b2635" opacity="0.92"/><ellipse cx="315.6" cy="119.6" rx="16" ry="9" transform="rotate(45.0 315.6 119.6)" fill="#8b2635" opacity="0.92"/><ellipse cx="300.0" cy="126.0" rx="16" ry="9" transform="rotate(90.0 300.0 126.0)" fill="#8b2635" opacity="0.92"/><ellipse cx="284.4" cy="119.6" rx="16" ry="9" transform="rotate(135.0 284.4 119.6)" fill="#8b2635" opacity="0.92"/><ellipse cx="278.0" cy="104.0" rx="16" ry="9" transform="rotate(180.0 278.0 104.0)" fill="#8b2635" opacity="0.92"/><ellipse cx="284.4" cy="88.4" rx="16" ry="9" transform="rotate(225.0 284.4 88.4)" fill="#8b2635" opacity="0.92"/><ellipse cx="300.0" cy="82.0" rx="16" ry="9" transform="rotate(270.0 300.0 82.0)" fill="#8b2635" opacity="0.92"/><ellipse cx="315.6" cy="88.4" rx="16" ry="9" transform="rotate(315.0 315.6 88.4)" fill="#8b2635" opacity="0.92"/><circle cx="300" cy="104" r="14" fill="#c9a962"/><g fill="#9c7a35"><circle cx="307.0" cy="104.0" r="1.6"/><circle cx="305.7" cy="108.1" r="1.6"/><circle cx="302.2" cy="110.7" r="1.6"/><circle cx="297.8" cy="110.7" r="1.6"/><circle cx="294.3" cy="108.1" r="1.6"/><circle cx="293.0" cy="104.0" r="1.6"/><circle cx="294.3" cy="99.9" r="1.6"/><circle cx="297.8" cy="97.3" r="1.6"/><circle cx="302.2" cy="97.3" r="1.6"/><circle cx="305.7" cy="99.9" r="1.6"/></g></g><g transform="translate(330 150) rotate(20)"><path d="M0 0 q10 -22 0 -40 q-10 18 0 40" fill="#7a2e3a"/><path d="M0 0 q6 -10 0 -22" stroke="#3f5a3a" stroke-width="3" fill="none"/></g><g stroke="#5a3c20" stroke-width="3" fill="none" opacity="0.85"><path d="M300 430 C290 452 270 458 250 470 M300 430 C310 452 330 456 350 472 M300 430 C300 452 298 462 300 478"/></g><g stroke="#8b6b34" stroke-width="1.5" fill="none" opacity="0.7"><circle cx="500" cy="140" r="34"/><circle cx="500" cy="300" r="30"/></g><g><circle cx="500" cy="140" r="9" fill="#c9a962"/><ellipse cx="516.0" cy="140.0" rx="9" ry="5" transform="rotate(0.0 516.0 140.0)" fill="#8b2635" opacity="0.9"/><ellipse cx="508.0" cy="153.9" rx="9" ry="5" transform="rotate(60.0 508.0 153.9)" fill="#8b2635" opacity="0.9"/><ellipse cx="492.0" cy="153.9" rx="9" ry="5" transform="rotate(120.0 492.0 153.9)" fill="#8b2635" opacity="0.9"/><ellipse cx="484.0" cy="140.0" rx="9" ry="5" transform="rotate(180.0 484.0 140.0)" fill="#8b2635" opacity="0.9"/><ellipse cx="492.0" cy="126.1" rx="9" ry="5" transform="rotate(240.0 492.0 126.1)" fill="#8b2635" opacity="0.9"/><ellipse cx="508.0" cy="126.1" rx="9" ry="5" transform="rotate(300.0 508.0 126.1)" fill="#8b2635" opacity="0.9"/></g><ellipse cx="500" cy="300" rx="12" ry="8" fill="#5a3c20"/><path d="M488 300 q12 -10 24 0" stroke="#2c1d12" stroke-width="1.5" fill="none"/><g fill="#5e2730" font-family="Georgia, 'Times New Roman', serif" font-size="18" font-style="italic" opacity="0.85"><text x="540" y="146">I.</text><text x="538" y="306">II.</text></g><rect x="24" y="24" width="592" height="432" fill="none" stroke="#8b6b34" stroke-width="2" opacity="0.7"/><rect x="32" y="32" width="576" height="416" fill="none" stroke="#8b6b34" stroke-width="1" opacity="0.5"/><rect width="640" height="480" fill="url(#pv)"/></svg>