<svg xmlns="http://www.w3.org/2000/svg" viewBox="0 0 640 480" width="640" height="480" role="img" aria-label="An aged illuminated manuscript page bearing a decorated initial, columns of script and a vermilion rubric"><defs>
  <linearGradient id="pg" x1="0" y1="0" x2="0" y2="1"><stop offset="0" stop-color="#e7dcc6"/><stop offset="1" stop-color="#d8c8a8"/></linearGradient>
  <radialGradient id="pv" cx="0.5" cy="0.5" r="0.75"><stop offset="0.55" stop-color="#000" stop-opacity="0"/><stop offset="1" stop-color="#5a4326" stop-opacity="0.35"/></radialGradient>
  <linearGradient id="qbrass" x1="0" y1="0" x2="0" y2="1"><stop offset="0" stop-color="#e6cf8f"/><stop offset="0.5" stop-color="#c9a962"/><stop offset="1" stop-color="#9c7a35"/></linearGradient>
</defs>
<rect width="640" height="480" fill="url(#pg)"/><circle cx="80" cy="90" r="40" fill="#9c7a35" opacity="0.06"/><circle cx="560" cy="400" r="55" fill="#9c7a35" opacity="0.06"/><circle cx="520" cy="80" r="30" fill="#9c7a35" opacity="0.06"/><circle cx="120" cy="420" r="46" fill="#9c7a35" opacity="0.06"/><g stroke="#3a2c1c" stroke-width="2" opacity="0.55"><line x1="190" y1="120" x2="300" y2="120"/><line x1="340" y1="120" x2="580" y2="120"/><line x1="190" y1="146" x2="300" y2="146"/><line x1="340" y1="146" x2="580" y2="146"/><line x1="190" y1="172" x2="300" y2="172"/><line x1="340" y1="172" x2="580" y2="172"/><line x1="190" y1="198" x2="300" y2="198"/><line x1="340" y1="198" x2="580" y2="198"/><line x1="60" y1="224" x2="300" y2="224"/><line x1="340" y1="224" x2="580" y2="224"/><line x1="60" y1="250" x2="300" y2="250"/><line x1="340" y1="250" x2="580" y2="250"/><line x1="60" y1="276" x2="300" y2="276"/><line x1="340" y1="276" x2="580" y2="276"/><line x1="60" y1="302" x2="300" y2="302"/><line x1="340" y1="302" x2="580" y2="302"/><line x1="60" y1="328" x2="300" y2="328"/><line x1="340" y1="328" x2="580" y2="328"/><line x1="60" y1="354" x2="300" y2="354"/><line x1="340" y1="354" x2="580" y2="354"/><line x1="60" y1="380" x2="300" y2="380"/><line x1="340" y1="380" x2="580" y2="380"/><line x1="60" y1="406" x2="300" y2="406"/><line x1="340" y1="406" x2="580" y2="406"/></g><rect x="60" y="96" width="110" height="110" fill="#5e2730"/><rect x="60" y="96" width="110" height="110" fill="none" stroke="url(#qbrass)" stroke-width="4"/><path d="M84 188 V112 h18 v30 l26 -30 h22 l-30 34 l32 42 h-22 l-24 -32 v32 Z" fill="#e7dcc6"/><g stroke="#c9a962" stroke-width="2" fill="none" opacity="0.8"><path d="M60 96 q-14 8 -10 26"/><path d="M170 206 q14 -8 10 -26"/></g><rect x="190" y="92" width="120" height="6" fill="#8b2635" opacity="0.85"/><g stroke="#3f5a3a" stroke-width="3" fill="none" opacity="0.7"><path d="M598 80 q-26 100 0 320"/></g><g fill="#7a2e3a" opacity="0.8"><circle cx="610" cy="110" r="6"/><circle cx="586" cy="158" r="6"/><circle cx="610" cy="206" r="6"/><circle cx="586" cy="254" r="6"/><circle cx="610" cy="302" r="6"/><circle cx="586" cy="350" r="6"/><circle cx="610" cy="398" r="6"/></g><g fill="#3f5a3a" opacity="0.7"><path d="M598 134 q16 -6 20 -18 q-14 4 -20 18"/><path d="M598 182 q16 -6 20 -18 q-14 4 -20 18"/><path d="M598 230 q16 -6 20 -18 q-14 4 -20 18"/><path d="M598 278 q16 -6 20 -18 q-14 4 -20 18"/><path d="M598 326 q16 -6 20 -18 q-14 4 -20 18"/><path d="M598 374 q16 -6 20 -18 q-14 4 -20 18"/></g><rect x="24" y="24" width="592" height="432" fill="none" stroke="#8b6b34" stroke-width="2" opacity="0.7"/><rect x="32" y="32" width="576" height="416" fill="none" stroke="#8b6b34" stroke-width="1" opacity="0.5"/><rect width="640" height="480" fill="url(#pv)"/></svg>