<svg xmlns="http://www.w3.org/2000/svg" viewBox="0 0 640 480" width="640" height="480" role="img" aria-label="A celestial engraving plate showing an armillary sphere ringed by a starfield and a band of zodiac constellations"><defs>
  <linearGradient id="pg" x1="0" y1="0" x2="0" y2="1"><stop offset="0" stop-color="#e7dcc6"/><stop offset="1" stop-color="#d8c8a8"/></linearGradient>
  <radialGradient id="pv" cx="0.5" cy="0.5" r="0.75"><stop offset="0.55" stop-color="#000" stop-opacity="0"/><stop offset="1" stop-color="#5a4326" stop-opacity="0.35"/></radialGradient>
  <linearGradient id="qbrass" x1="0" y1="0" x2="0" y2="1"><stop offset="0" stop-color="#e6cf8f"/><stop offset="0.5" stop-color="#c9a962"/><stop offset="1" stop-color="#9c7a35"/></linearGradient>
</defs>
<rect width="640" height="480" fill="url(#pg)"/><circle cx="80" cy="90" r="40" fill="#9c7a35" opacity="0.06"/><circle cx="560" cy="400" r="55" fill="#9c7a35" opacity="0.06"/><circle cx="520" cy="80" r="30" fill="#9c7a35" opacity="0.06"/><circle cx="120" cy="420" r="46" fill="#9c7a35" opacity="0.06"/><circle cx="320" cy="240" r="185" fill="none" stroke="#8b6b34" stroke-width="2" opacity="0.7"/><circle cx="320" cy="240" r="172" fill="none" stroke="#8b6b34" stroke-width="1" opacity="0.5"/><g stroke="#8b6b34" stroke-width="1.5" opacity="0.6"><line x1="492.0" y1="240.0" x2="480.0" y2="240.0"/><line x1="491.1" y1="258.0" x2="485.1" y2="257.4"/><line x1="488.2" y1="275.8" x2="482.4" y2="274.5"/><line x1="483.6" y1="293.2" x2="477.9" y2="291.3"/><line x1="477.1" y1="310.0" x2="471.6" y2="307.5"/><line x1="469.0" y1="326.0" x2="458.6" y2="320.0"/><line x1="459.2" y1="341.1" x2="454.3" y2="337.6"/><line x1="447.8" y1="355.1" x2="443.4" y2="351.1"/><line x1="435.1" y1="367.8" x2="431.1" y2="363.4"/><line x1="421.1" y1="379.2" x2="417.6" y2="374.3"/><line x1="406.0" y1="389.0" x2="400.0" y2="378.6"/><line x1="390.0" y1="397.1" x2="387.5" y2="391.6"/><line x1="373.2" y1="403.6" x2="371.3" y2="397.9"/><line x1="355.8" y1="408.2" x2="354.5" y2="402.4"/><line x1="338.0" y1="411.1" x2="337.4" y2="405.1"/><line x1="320.0" y1="412.0" x2="320.0" y2="400.0"/><line x1="302.0" y1="411.1" x2="302.6" y2="405.1"/><line x1="284.2" y1="408.2" x2="285.5" y2="402.4"/><line x1="266.8" y1="403.6" x2="268.7" y2="397.9"/><line x1="250.0" y1="397.1" x2="252.5" y2="391.6"/><line x1="234.0" y1="389.0" x2="240.0" y2="378.6"/><line x1="218.9" y1="379.2" x2="222.4" y2="374.3"/><line x1="204.9" y1="367.8" x2="208.9" y2="363.4"/><line x1="192.2" y1="355.1" x2="196.6" y2="351.1"/><line x1="180.8" y1="341.1" x2="185.7" y2="337.6"/><line x1="171.0" y1="326.0" x2="181.4" y2="320.0"/><line x1="162.9" y1="310.0" x2="168.4" y2="307.5"/><line x1="156.4" y1="293.2" x2="162.1" y2="291.3"/><line x1="151.8" y1="275.8" x2="157.6" y2="274.5"/><line x1="148.9" y1="258.0" x2="154.9" y2="257.4"/><line x1="148.0" y1="240.0" x2="160.0" y2="240.0"/><line x1="148.9" y1="222.0" x2="154.9" y2="222.6"/><line x1="151.8" y1="204.2" x2="157.6" y2="205.5"/><line x1="156.4" y1="186.8" x2="162.1" y2="188.7"/><line x1="162.9" y1="170.0" x2="168.4" y2="172.5"/><line x1="171.0" y1="154.0" x2="181.4" y2="160.0"/><line x1="180.8" y1="138.9" x2="185.7" y2="142.4"/><line x1="192.2" y1="124.9" x2="196.6" y2="128.9"/><line x1="204.9" y1="112.2" x2="208.9" y2="116.6"/><line x1="218.9" y1="100.8" x2="222.4" y2="105.7"/><line x1="234.0" y1="91.0" x2="240.0" y2="101.4"/><line x1="250.0" y1="82.9" x2="252.5" y2="88.4"/><line x1="266.8" y1="76.4" x2="268.7" y2="82.1"/><line x1="284.2" y1="71.8" x2="285.5" y2="77.6"/><line x1="302.0" y1="68.9" x2="302.6" y2="74.9"/><line x1="320.0" y1="68.0" x2="320.0" y2="80.0"/><line x1="338.0" y1="68.9" x2="337.4" y2="74.9"/><line x1="355.8" y1="71.8" x2="354.5" y2="77.6"/><line x1="373.2" y1="76.4" x2="371.3" y2="82.1"/><line x1="390.0" y1="82.9" x2="387.5" y2="88.4"/><line x1="406.0" y1="91.0" x2="400.0" y2="101.4"/><line x1="421.1" y1="100.8" x2="417.6" y2="105.7"/><line x1="435.1" y1="112.2" x2="431.1" y2="116.6"/><line x1="447.8" y1="124.9" x2="443.4" y2="128.9"/><line x1="459.2" y1="138.9" x2="454.3" y2="142.4"/><line x1="469.0" y1="154.0" x2="458.6" y2="160.0"/><line x1="477.1" y1="170.0" x2="471.6" y2="172.5"/><line x1="483.6" y1="186.8" x2="477.9" y2="188.7"/><line x1="488.2" y1="204.2" x2="482.4" y2="205.5"/><line x1="491.1" y1="222.0" x2="485.1" y2="222.6"/></g><g fill="none" stroke="url(#qbrass)" stroke-width="3"><circle cx="320" cy="240" r="120"/><ellipse cx="320" cy="240" rx="120" ry="44"/><ellipse cx="320" cy="240" rx="44" ry="120"/><ellipse cx="320" cy="240" rx="86" ry="86" transform="rotate(23 320 240)"/></g><ellipse cx="320" cy="240" rx="120" ry="32" transform="rotate(23 320 240)" fill="none" stroke="#8b2635" stroke-width="2" opacity="0.7"/><circle cx="320" cy="240" r="18" fill="#5e2730"/><circle cx="320" cy="240" r="18" fill="none" stroke="url(#qbrass)" stroke-width="2"/><g stroke="url(#qbrass)" stroke-width="1.5" opacity="0.9"><line x1="340.0" y1="240.0" x2="350.0" y2="240.0"/><line x1="337.3" y1="250.0" x2="346.0" y2="255.0"/><line x1="330.0" y1="257.3" x2="335.0" y2="266.0"/><line x1="320.0" y1="260.0" x2="320.0" y2="270.0"/><line x1="310.0" y1="257.3" x2="305.0" y2="266.0"/><line x1="302.7" y1="250.0" x2="294.0" y2="255.0"/><line x1="300.0" y1="240.0" x2="290.0" y2="240.0"/><line x1="302.7" y1="230.0" x2="294.0" y2="225.0"/><line x1="310.0" y1="222.7" x2="305.0" y2="214.0"/><line x1="320.0" y1="220.0" x2="320.0" y2="210.0"/><line x1="330.0" y1="222.7" x2="335.0" y2="214.0"/><line x1="337.3" y1="230.0" x2="346.0" y2="225.0"/></g><g fill="#3a2c1c" opacity="0.7"><circle cx="238.8" cy="120.3" r="2.0"/><circle cx="482.6" cy="235.8" r="2.1"/><circle cx="400.5" cy="392.5" r="2.1"/><circle cx="397.5" cy="93.8" r="1.5"/><circle cx="357.9" cy="106.0" r="1.9"/><circle cx="334.3" cy="379.3" r="2.3"/><circle cx="437.7" cy="116.7" r="1.2"/><circle cx="157.7" cy="270.5" r="1.6"/><circle cx="293.0" cy="385.2" r="2.5"/><circle cx="423.3" cy="131.1" r="1.7"/><circle cx="378.7" cy="114.8" r="1.3"/><circle cx="258.7" cy="374.8" r="1.8"/><circle cx="470.2" cy="214.2" r="2.2"/><circle cx="343.3" cy="389.1" r="2.4"/><circle cx="380.8" cy="108.6" r="1.9"/><circle cx="413.3" cy="105.6" r="1.2"/><circle cx="206.2" cy="168.5" r="2.1"/><circle cx="187.9" cy="336.5" r="1.4"/><circle cx="209.8" cy="340.6" r="1.7"/><circle cx="461.5" cy="188.2" r="1.0"/><circle cx="318.4" cy="376.4" r="2.1"/><circle cx="463.7" cy="245.0" r="1.4"/><circle cx="197.9" cy="309.4" r="2.3"/><circle cx="165.5" cy="260.1" r="2.4"/><circle cx="196.2" cy="133.1" r="1.0"/><circle cx="177.1" cy="189.5" r="1.8"/><circle cx="245.7" cy="116.7" r="1.8"/><circle cx="453.9" cy="200.4" r="1.8"/><circle cx="452.4" cy="151.5" r="1.0"/><circle cx="217.1" cy="115.9" r="1.6"/><circle cx="374.9" cy="86.6" r="1.5"/><circle cx="367.2" cy="68.6" r="1.8"/><circle cx="377.6" cy="386.4" r="2.1"/><circle cx="422.2" cy="120.2" r="2.1"/><circle cx="469.8" cy="330.2" r="1.1"/><circle cx="326.4" cy="391.6" r="2.3"/><circle cx="257.2" cy="399.4" r="1.4"/><circle cx="370.4" cy="99.1" r="1.7"/><circle cx="465.3" cy="248.2" r="2.1"/><circle cx="397.5" cy="90.8" r="2.6"/><circle cx="176.3" cy="146.8" r="1.5"/><circle cx="462.1" cy="245.1" r="1.8"/><circle cx="221.8" cy="110.0" r="2.1"/><circle cx="159.0" cy="252.0" r="2.5"/><circle cx="263.7" cy="115.9" r="1.9"/><circle cx="357.4" cy="398.1" r="1.7"/></g><g stroke="#8b2635" stroke-width="1.4" fill="#8b2635" opacity="0.8"><path d="M470 110 L 500 140 L 486 180 L 520 200 L 548 168" fill="none"/><circle cx="470" cy="110" r="2.6"/><circle cx="500" cy="140" r="2.6"/><circle cx="486" cy="180" r="2.6"/><circle cx="520" cy="200" r="2.6"/><circle cx="548" cy="168" r="2.6"/></g><rect x="250" y="436" width="140" height="22" fill="none" stroke="#8b6b34" stroke-width="1.5" opacity="0.7"/><rect x="24" y="24" width="592" height="432" fill="none" stroke="#8b6b34" stroke-width="2" opacity="0.7"/><rect x="32" y="32" width="576" height="416" fill="none" stroke="#8b6b34" stroke-width="1" opacity="0.5"/><rect width="640" height="480" fill="url(#pv)"/></svg>