<svg xmlns="http://www.w3.org/2000/svg" width="146" height="36" viewBox="0 0 146 36" fill="none"><path d="M47.4546 28.6018V7.39453H62.0346V10.34H50.724V16.172H61.4455V19.0585H50.724V28.6018H47.4546Z" fill="#181B25"></path><path d="M66.1255 28.6018V13.2854H69.2182V28.6018H66.1255ZM66.1255 10.6345V7.39453H69.2182V10.6345H66.1255Z" fill="#181B25"></path><path d="M83.5299 19.0585C83.5299 17.0851 82.5579 15.6713 80.3193 15.6713C79.1411 15.6713 76.4019 16.3487 76.4019 20.1189V28.6018H73.3091V13.2854H76.284V15.4356C77.315 13.9923 78.9055 12.932 81.144 12.932C84.8553 12.932 86.5931 15.5829 86.5931 18.7345V28.6018H83.5299V19.0585Z" fill="#181B25"></path><path d="M98.2539 28.6018C93.5117 28.6018 90.684 25.1851 90.684 20.5902C90.684 15.9953 93.5117 12.5785 98.2539 12.5785C103.026 12.5785 105.853 15.9953 105.853 20.5902C105.853 25.1851 103.026 28.6018 98.2539 28.6018ZM93.8651 20.5902C93.8651 23.7418 95.279 25.9509 98.2539 25.9509C101.258 25.9509 102.672 23.7418 102.672 20.5902C102.672 17.4385 101.258 15.2294 98.2539 15.2294C95.279 15.2294 93.8651 17.4385 93.8651 20.5902Z" fill="#181B25"></path><path d="M109.944 28.6018V13.2854H112.919V15.9364C114.038 13.7862 115.776 13.1087 117.661 13.1087H118.839V16.0247H117.573C114.981 16.0247 113.037 17.1145 113.037 20.7964V28.6018H109.944Z" fill="#181B25"></path><path d="M122.93 28.6018V13.2854H126.023V28.6018H122.93ZM122.93 10.6345V7.39453H126.023V10.6345H122.93Z" fill="#181B25"></path><path d="M137.684 28.6018C132.942 28.6018 130.114 25.1851 130.114 20.5902C130.114 15.9953 132.942 12.5785 137.684 12.5785C142.455 12.5785 145.283 15.9953 145.283 20.5902C145.283 25.1851 142.455 28.6018 137.684 28.6018ZM133.295 20.5902C133.295 23.7418 134.709 25.9509 137.684 25.9509C140.688 25.9509 142.102 23.7418 142.102 20.5902C142.102 17.4385 140.688 15.2294 137.684 15.2294C134.709 15.2294 133.295 17.4385 133.295 20.5902Z" fill="#181B25"></path><path d="M0 9C0 4.02944 4.02944 0 9 0H27C31.9706 0 36 4.02944 36 9V27C36 31.9706 31.9706 36 27 36H9C4.02944 36 0 31.9706 0 27V9Z" fill="#C6BDFA"></path><path d="M10.147 17.744C11.3017 17.744 12.2382 16.8075 12.2382 15.6539C12.2382 14.5003 11.3017 13.5638 10.147 13.5638C8.99228 13.5638 8.05692 14.4992 8.05692 15.6539C8.05692 16.8086 8.99339 17.744 10.147 17.744Z" fill="#181B25"></path><path d="M26.303 16.6382C26.303 16.057 25.8319 15.5859 25.2507 15.5859H19.7844C17.3736 15.5859 15.1822 16.5703 13.5954 18.157C12.0086 19.7438 11.0243 21.9352 11.0243 24.346V28.3725C11.0243 28.8571 11.4171 29.25 11.9018 29.25C13.8348 29.25 15.4105 27.6732 15.4105 25.7413V24.346C15.4105 23.1456 15.9037 22.0522 16.6966 21.2582C17.4905 20.4643 18.584 19.9721 19.7844 19.9721H22.9691C24.8053 19.9721 26.303 18.4744 26.303 16.6382Z" fill="#181B25"></path><path d="M11.9039 8.25C11.3221 8.25 10.8505 8.72162 10.8505 9.3034C10.8505 11.1396 12.3482 12.6373 14.1844 12.6373H28.3897C28.9715 12.6373 29.4431 12.1657 29.4431 11.5839C29.4431 9.74881 27.9454 8.25 26.1092 8.25H11.9039Z" fill="#181B25"></path></svg>