<svg width="80" height="80" viewBox="0 0 80 80" fill="none" xmlns="http://www.w3.org/2000/svg">
<path d="M29.7034 2.67188C25.4691 3.125 20.7659 4.71875 17.0472 6.96875C9.26593 11.6875 3.75031 20.125 2.56281 29.125C2.18781 31.9844 2.32843 36.75 2.89093 39.375C3.68781 43.2188 5.10968 46.5469 7.45343 50.0313C12.3597 57.4063 20.0784 62.1406 28.7347 63.1406C30.8753 63.375 35.5784 63.25 37.3909 62.8906L38.7816 62.6094L40.1253 63.0156C42.4847 63.7188 43.2503 63.8281 45.8597 63.8125C48.0472 63.7969 48.5472 63.75 49.9222 63.3906C52.5784 62.6719 55.1253 61.2969 57.1409 59.4688C57.6566 58.9844 58.1409 58.5938 58.1878 58.5938C58.2347 58.5938 58.2816 58.7969 58.2816 59.0313C58.2816 59.7344 59.1722 61.3438 59.8909 61.9688C60.7816 62.7344 61.5472 63.1094 62.5316 63.25L63.3441 63.3594L62.5316 63.8906C60.9847 64.8906 60.5003 65.9531 61.0159 67.2969C61.4378 68.375 66.4066 74.2031 68.6097 76.2031C69.7191 77.2031 70.7347 77.5625 72.3597 77.5469C75.5316 77.5156 77.8909 74.9063 77.6097 71.75C77.4066 69.7031 76.6409 68.75 71.5784 64.4063C67.7972 61.1563 67.6253 61.0469 66.5628 60.9688C65.3753 60.875 64.7659 61.1875 64.0628 62.2188L63.5159 63.0156L63.4066 62.3438C63.2503 61.4688 62.7816 60.5156 62.1097 59.7188C61.4534 58.9688 59.8753 58.125 59.0941 58.125H58.5316L59.1878 57.5781C60.9378 56.0625 62.9378 52.6094 63.7034 49.7344C64.0628 48.375 64.1097 47.8906 64.1253 45.5469C64.1409 42.6875 64.0003 41.75 63.1878 39.5C62.7816 38.4063 62.7659 38.3125 62.9534 37.1094C63.2972 34.8906 63.3597 30.625 63.0628 28.5938C62.0628 21.7031 59.3753 16.1562 54.8128 11.5312C48.2347 4.875 39.1878 1.6875 29.7034 2.67188ZM32.9222 5.65625C32.5472 7.21875 32.0628 11.375 31.9534 14.1406C31.9066 15.25 31.8284 16.3906 31.7816 16.6563L31.7191 17.1406L29.4066 17.2344C28.1409 17.2969 25.9222 17.5156 24.4691 17.7188C23.0003 17.9375 21.7972 18.0938 21.7659 18.0625C21.7347 18.0313 21.9691 17.2969 22.2659 16.4063C22.9066 14.5625 24.0941 12.1406 25.1097 10.5469C26.9691 7.67188 30.1722 5.32812 32.2503 5.3125C32.9534 5.3125 33.0003 5.32812 32.9222 5.65625ZM35.1253 5.64062C37.7191 6.51562 40.1097 8.90625 42.2659 12.7656C43.0628 14.1875 44.8909 18.2813 44.7816 18.3906C44.7659 18.4063 44.2191 18.3281 43.5784 18.1875C41.8441 17.8281 38.4222 17.375 36.5316 17.25L34.8753 17.1406L34.7659 15.0156C34.5941 11.2344 34.1722 7.09375 33.8128 5.67188C33.6878 5.21875 33.8753 5.21875 35.1253 5.64062ZM42.8753 6.90625C43.6409 7.15625 44.8284 7.625 45.5316 7.92188C51.6722 10.6094 57.1409 16.125 59.8753 22.4063C60.5316 23.9063 61.7191 27.3438 61.7191 27.75C61.7191 27.875 61.2972 27.4531 60.7659 26.8125C58.4222 23.8906 53.5784 20.9688 48.2347 19.2656L46.4066 18.6719L46.2503 18.0469C45.2816 14.25 43.3909 10.0781 41.5628 7.6875L40.4534 6.21875L40.9691 6.32812C41.2503 6.39062 42.1097 6.65625 42.8753 6.90625ZM23.6253 7.60938C21.6253 10.1562 19.5628 14.2813 18.5941 17.6406L18.1722 19.0938L16.4691 19.6875C14.1566 20.4844 13.4066 20.7969 11.5316 21.7344C10.0159 22.4844 7.96906 23.75 7.26593 24.375C6.32843 25.1875 6.46906 24.7031 8.21906 21.1719C11.2034 15.1094 16.0003 10.4688 21.9534 7.85938C22.9847 7.42188 23.8909 7.04688 23.9534 7.03125C24.0316 7.03125 23.8753 7.29688 23.6253 7.60938ZM40.6722 20.3906C43.0784 20.6875 45.3441 21.0938 45.5784 21.2813C45.7503 21.4219 46.5941 24.7031 46.7972 26.0156C46.8441 26.3594 46.9222 26.7813 46.9534 26.9531C47.0159 27.25 46.9222 27.2656 45.5628 27.2813C41.9534 27.3281 38.3753 28.5156 35.1409 30.7031C34.4378 31.1875 33.9066 31.4688 33.9691 31.3281C34.1722 30.7656 34.8441 22.4375 34.8441 20.25C34.8441 19.9688 34.9534 19.9531 36.8441 20.0469C37.9378 20.1094 39.6566 20.25 40.6722 20.3906ZM31.7816 21.9844C32.0159 26.2344 32.2191 28.6406 32.5159 30.6094C32.6878 31.7656 32.7659 32.7656 32.7034 32.8281C32.6253 32.9063 32.0159 32.8594 31.3284 32.7344C29.6878 32.4531 27.0941 32.2344 22.9691 32.0156C21.1253 31.9219 19.5941 31.8281 19.5628 31.8125C19.3284 31.5625 20.6409 21.9375 20.9534 21.6563C20.9847 21.625 21.9378 21.4219 23.0472 21.2031C25.3753 20.7344 29.0941 20.2656 31.0472 20.1875L31.6878 20.1563L31.7816 21.9844ZM48.3753 21.9531C53.0472 23.2969 56.5628 25.125 59.1722 27.5469C61.3128 29.5625 62.3909 31.6406 62.4066 33.8281C62.4222 34.9844 62.1253 36.5625 61.8909 36.5625C61.8441 36.5625 61.4847 36.0469 61.1097 35.4219C60.2191 33.9844 57.9222 31.7031 56.2034 30.5625C54.0003 29.0938 51.3284 28.0313 48.7659 27.5938L47.5784 27.4063L47.4691 26.3125C47.2191 23.8594 47.0159 22.0938 46.9378 21.8281C46.8284 21.5 46.7347 21.4844 48.3753 21.9531ZM17.1253 23.5469C16.8128 26.0938 16.5628 29.1406 16.5628 30.4063C16.5628 32.0625 16.6097 32.0313 14.8284 32.0313C12.9222 32.0313 6.70343 32.7344 5.59406 33.0625C5.39093 33.125 5.31281 33.0156 5.23468 32.5938C5.14093 32.1406 5.23468 31.7969 5.78156 30.6875C6.95343 28.2656 9.79718 25.8125 13.3909 24.1094C14.7034 23.4844 16.7191 22.7031 17.0941 22.6719C17.1722 22.6563 17.1878 23.0469 17.1253 23.5469ZM49.4066 30.6875C52.7659 31.3281 55.5784 32.9063 58.0941 35.5313C61.0472 38.6563 62.5316 42.4375 62.5472 46.9531C62.5628 50.3906 61.5628 53.5156 59.5003 56.5156C58.1097 58.5313 54.4534 60.875 51.4378 61.7031C48.7191 62.4531 45.4534 62.4531 42.6097 61.7188C37.0316 60.2969 32.6097 55.9375 31.0941 50.3906C30.6097 48.625 30.4847 45.0781 30.8441 43.2969C31.4691 40.2031 32.7972 37.7031 34.9847 35.4219C37.3597 32.9688 40.2659 31.3438 43.4378 30.7031C44.8128 30.4219 48.0003 30.4219 49.4066 30.6875ZM7.26593 34.0625C9.15656 34.4375 11.0628 34.6563 13.5159 34.7656C14.6409 34.8125 15.7659 34.8906 16.0316 34.9375L16.5159 35L16.6253 36.6875C16.7816 39.0313 17.4378 43.8594 17.7503 44.875C17.8753 45.2813 17.6722 45.2344 15.6566 44.3438C13.2503 43.2813 11.9378 42.5313 10.2347 41.25C7.18781 38.9688 5.31281 36.2813 5.31281 34.1719C5.31281 33.6563 5.35968 33.5781 5.59406 33.6719C5.73468 33.7188 6.50031 33.9063 7.26593 34.0625ZM30.6878 35.2656C29.6878 36.7188 28.8753 38.4219 28.3128 40.1563C27.6722 42.1719 27.4534 43.6406 27.4378 45.8906C27.4222 47.3125 27.3753 47.8125 27.2347 47.8125C26.8909 47.8125 21.9691 46.75 21.3284 46.5313L20.7034 46.3281L20.3597 44.5313C20.0316 42.8125 19.6409 39.375 19.4691 36.5469L19.3753 35.2031L20.0941 35.0938C20.5003 35.0469 21.4066 35 22.1097 35C24.3284 35 29.4847 34.5781 31.2816 34.2344C31.3597 34.2344 31.0784 34.6875 30.6878 35.2656ZM10.4378 43.9531C12.4378 44.9844 15.2816 46.1094 16.7972 46.4688C17.4066 46.6094 17.9691 46.7813 18.0628 46.8438C18.1566 46.9063 18.5628 48 18.9691 49.2969C19.3909 50.5781 20.0628 52.3594 20.4691 53.25C21.8128 56.0781 24.2347 59.4375 25.8909 60.7969C26.3441 61.1563 26.6878 61.4844 26.6566 61.5156C26.5472 61.625 23.9691 60.7344 22.5003 60.0938C16.2816 57.3594 10.6409 51.9219 8.12531 46.25C7.45343 44.75 6.25031 41.5156 6.25031 41.25C6.25031 41.1563 6.81281 41.5469 7.51593 42.0938C8.20343 42.6406 9.53156 43.4844 10.4378 43.9531ZM23.7034 48.0469C24.7972 48.1719 26.0628 48.2813 26.5003 48.2813C27.4066 48.2813 27.5628 48.4063 27.7347 49.2969C27.7972 49.6406 28.0159 50.4844 28.2347 51.1719C29.4691 55.0938 32.1878 58.7656 35.3597 60.7813C36.0941 61.25 36.7034 61.6875 36.7191 61.75C36.7191 61.7969 36.3753 61.9688 35.9691 62.0938C33.8128 62.8125 31.7503 62.7188 29.9222 61.8125C26.5941 60.1563 23.4534 55.5 21.4691 49.25L20.9534 47.625L21.3284 47.7188C21.5316 47.7656 22.5941 47.9219 23.7034 48.0469ZM37.8128 62.2656L38.2034 62.4844L37.7191 62.5C37.4534 62.5 36.9847 62.5469 36.7034 62.5938L36.1722 62.6875L36.6409 62.3594C37.1878 61.9844 37.2972 61.9688 37.8128 62.2656ZM66.8441 62.375C67.0316 62.5781 67.5784 63.2188 68.0628 63.8281C68.5628 64.4219 70.0784 66.1563 71.4222 67.6719C74.2972 70.8906 74.5316 71.2344 74.5316 72.2031C74.5316 73.4688 73.3753 74.6875 72.1878 74.6875C71.4534 74.6875 70.7972 74.2188 68.4066 72.0469C67.4378 71.1563 65.6409 69.5938 64.4222 68.5625C61.8284 66.4063 61.7972 66.3281 62.7191 64.75C63.9534 62.6094 65.9847 61.4375 66.8441 62.375Z" fill="white"/>
</svg>
