<svg width="272" height="182" viewBox="0 0 272 182" fill="none" xmlns="http://www.w3.org/2000/svg">
<rect x="0.5" y="0.5" width="271" height="181" rx="9.5" fill="#0C0C0C"/>
<rect x="0.5" y="0.5" width="271" height="181" rx="9.5" stroke="#C9CDD3"/>
<path d="M59.0371 108.186H60.6934C61.4199 108.186 61.9668 108.293 62.334 108.506C62.7012 108.72 62.8848 109.086 62.8848 109.604C62.8848 109.825 62.8444 110.023 62.7637 110.198C62.6829 110.372 62.5658 110.517 62.4121 110.631C62.2585 110.746 62.0697 110.824 61.8457 110.866V110.905C62.0801 110.944 62.2884 111.014 62.4707 111.116C62.653 111.217 62.7962 111.362 62.9004 111.549C63.0072 111.734 63.0605 111.972 63.0605 112.264C63.0605 112.613 62.9785 112.91 62.8145 113.155C62.6504 113.397 62.4173 113.582 62.1152 113.709C61.8158 113.834 61.459 113.897 61.0449 113.897H59.0371V108.186ZM59.8379 110.588H60.834C61.2949 110.588 61.6139 110.513 61.791 110.362C61.9681 110.211 62.0566 109.991 62.0566 109.702C62.0566 109.402 61.9512 109.187 61.7402 109.057C61.5293 108.924 61.1947 108.858 60.7363 108.858H59.8379V110.588ZM59.8379 111.249V113.221H60.9277C61.3991 113.221 61.7311 113.129 61.9238 112.944C62.1191 112.759 62.2168 112.51 62.2168 112.198C62.2168 112 62.1725 111.831 62.084 111.69C61.998 111.547 61.8574 111.437 61.6621 111.362C61.4668 111.286 61.2038 111.249 60.873 111.249H59.8379ZM64.9434 109.592V113.897H64.1582V109.592H64.9434ZM64.5566 107.963C64.6816 107.963 64.7884 108 64.877 108.073C64.9681 108.146 65.0137 108.264 65.0137 108.428C65.0137 108.592 64.9681 108.712 64.877 108.788C64.7884 108.861 64.6816 108.897 64.5566 108.897C64.429 108.897 64.321 108.861 64.2324 108.788C64.1465 108.712 64.1035 108.592 64.1035 108.428C64.1035 108.264 64.1465 108.146 64.2324 108.073C64.321 108 64.429 107.963 64.5566 107.963ZM67.0723 113.897H66.2832V107.819H67.0723V113.897ZM69.1973 113.897H68.4082V107.819H69.1973V113.897ZM74.3887 108.096C74.6777 108.096 74.9277 108.146 75.1387 108.245C75.3522 108.341 75.5176 108.482 75.6348 108.667C75.7546 108.849 75.8145 109.069 75.8145 109.327C75.8145 109.673 75.7038 109.966 75.4824 110.206C75.2637 110.443 74.9876 110.657 74.6543 110.85L76.1191 112.272C76.2546 112.103 76.3652 111.911 76.4512 111.698C76.5397 111.482 76.6152 111.251 76.6777 111.006H77.4785C77.3952 111.34 77.2845 111.657 77.1465 111.959C77.0111 112.262 76.8392 112.531 76.6309 112.768L77.7832 113.897H76.7559L76.1113 113.268C75.9499 113.409 75.7754 113.532 75.5879 113.639C75.4004 113.746 75.1934 113.829 74.9668 113.889C74.7428 113.946 74.4915 113.975 74.2129 113.975C73.8301 113.975 73.4993 113.914 73.2207 113.792C72.9421 113.667 72.7272 113.487 72.5762 113.252C72.4251 113.018 72.3496 112.734 72.3496 112.401C72.3496 112.125 72.3978 111.889 72.4941 111.694C72.5905 111.496 72.7285 111.321 72.9082 111.17C73.0879 111.017 73.3027 110.87 73.5527 110.729C73.4277 110.588 73.3132 110.449 73.209 110.311C73.1074 110.17 73.0267 110.023 72.9668 109.87C72.9069 109.713 72.877 109.543 72.877 109.358C72.877 109.095 72.9395 108.87 73.0645 108.682C73.1895 108.495 73.3639 108.35 73.5879 108.249C73.8145 108.147 74.0814 108.096 74.3887 108.096ZM74.0215 111.217C73.8444 111.324 73.6921 111.431 73.5645 111.538C73.4368 111.642 73.3392 111.759 73.2715 111.889C73.2064 112.019 73.1738 112.174 73.1738 112.354C73.1738 112.64 73.2715 112.87 73.4668 113.042C73.6647 113.211 73.9251 113.295 74.248 113.295C74.5553 113.295 74.821 113.246 75.0449 113.147C75.2689 113.048 75.4616 112.927 75.623 112.784L74.0215 111.217ZM74.3691 108.729C74.1582 108.729 73.9824 108.784 73.8418 108.893C73.7012 109.002 73.6309 109.164 73.6309 109.377C73.6309 109.557 73.679 109.725 73.7754 109.881C73.8743 110.038 74.0111 110.208 74.1855 110.393C74.4876 110.226 74.7077 110.065 74.8457 109.909C74.9863 109.752 75.0566 109.569 75.0566 109.358C75.0566 109.165 74.9915 109.013 74.8613 108.901C74.7337 108.786 74.5697 108.729 74.3691 108.729ZM82.5293 113.897H81.7246V108.877H79.9902V108.186H84.2598V108.877H82.5293V113.897ZM86.6816 109.518C87.2129 109.518 87.61 109.637 87.873 109.874C88.1361 110.108 88.2676 110.479 88.2676 110.987V113.897H87.7051L87.5527 113.272H87.5215C87.4017 113.428 87.2767 113.558 87.1465 113.663C87.0163 113.767 86.8652 113.845 86.6934 113.897C86.5241 113.949 86.3171 113.975 86.0723 113.975C85.8118 113.975 85.5801 113.928 85.377 113.834C85.1738 113.741 85.0137 113.6 84.8965 113.413C84.7819 113.222 84.7246 112.982 84.7246 112.69C84.7246 112.252 84.8926 111.92 85.2285 111.694C85.5645 111.467 86.0736 111.344 86.7559 111.323L87.498 111.292V111.049C87.498 110.713 87.4225 110.476 87.2715 110.338C87.123 110.2 86.9147 110.131 86.6465 110.131C86.4251 110.131 86.2129 110.164 86.0098 110.229C85.8066 110.292 85.6113 110.367 85.4238 110.456L85.1738 109.885C85.377 109.781 85.6074 109.694 85.8652 109.624C86.1257 109.553 86.3978 109.518 86.6816 109.518ZM87.4902 111.807L86.8887 111.834C86.3913 111.853 86.041 111.936 85.8379 112.084C85.6374 112.23 85.5371 112.435 85.5371 112.698C85.5371 112.927 85.6061 113.095 85.7441 113.202C85.8822 113.308 86.0645 113.362 86.291 113.362C86.64 113.362 86.9264 113.264 87.1504 113.069C87.377 112.871 87.4902 112.579 87.4902 112.194V111.807ZM90.5684 111.694L89.1074 109.592H90.002L91.0605 111.178L92.1191 109.592H93.0059L91.541 111.694L93.084 113.897H92.1895L91.0605 112.213L89.9238 113.897H89.0371L90.5684 111.694ZM95.5645 109.514C95.9395 109.514 96.2611 109.595 96.5293 109.756C96.7975 109.915 97.0033 110.14 97.1465 110.432C97.2897 110.724 97.3613 111.068 97.3613 111.463V111.909H94.4395C94.4473 112.37 94.5658 112.724 94.7949 112.971C95.0241 113.216 95.3457 113.338 95.7598 113.338C96.0332 113.338 96.2767 113.312 96.4902 113.26C96.7038 113.208 96.9251 113.131 97.1543 113.03V113.69C96.9382 113.789 96.7207 113.861 96.502 113.905C96.2858 113.952 96.0267 113.975 95.7246 113.975C95.3079 113.975 94.9421 113.892 94.627 113.725C94.3145 113.558 94.071 113.312 93.8965 112.987C93.722 112.659 93.6348 112.255 93.6348 111.776C93.6348 111.302 93.7142 110.897 93.873 110.561C94.0319 110.222 94.2559 109.963 94.5449 109.784C94.834 109.604 95.1738 109.514 95.5645 109.514ZM95.5605 110.124C95.2428 110.124 94.9876 110.228 94.7949 110.436C94.6022 110.642 94.4889 110.937 94.4551 111.323H96.5723C96.5697 111.086 96.5319 110.877 96.459 110.698C96.3861 110.518 96.2754 110.377 96.127 110.276C95.9811 110.174 95.7923 110.124 95.5605 110.124ZM101.271 112.694C101.271 112.972 101.202 113.208 101.064 113.401C100.929 113.591 100.731 113.734 100.471 113.831C100.21 113.927 99.8978 113.975 99.5332 113.975C99.2311 113.975 98.9707 113.952 98.752 113.905C98.5332 113.861 98.3353 113.795 98.1582 113.709V113.014C98.3483 113.105 98.5684 113.186 98.8184 113.256C99.0684 113.327 99.3132 113.362 99.5527 113.362C99.8887 113.362 100.131 113.308 100.279 113.202C100.43 113.095 100.506 112.95 100.506 112.768C100.506 112.661 100.476 112.568 100.416 112.487C100.356 112.403 100.251 112.321 100.1 112.241C99.9512 112.157 99.7376 112.062 99.459 111.956C99.1855 111.849 98.9512 111.742 98.7559 111.635C98.5632 111.528 98.416 111.4 98.3145 111.249C98.2129 111.097 98.1621 110.902 98.1621 110.663C98.1621 110.29 98.3105 110.006 98.6074 109.811C98.9069 109.613 99.3014 109.514 99.791 109.514C100.051 109.514 100.296 109.54 100.525 109.592C100.757 109.644 100.979 109.717 101.189 109.811L100.936 110.417C100.748 110.336 100.555 110.269 100.357 110.217C100.16 110.163 99.9577 110.135 99.752 110.135C99.4837 110.135 99.278 110.178 99.1348 110.264C98.9941 110.35 98.9238 110.469 98.9238 110.62C98.9238 110.737 98.9564 110.834 99.0215 110.913C99.0892 110.991 99.2012 111.068 99.3574 111.143C99.5137 111.216 99.7246 111.303 99.9902 111.405C100.253 111.504 100.48 111.607 100.67 111.713C100.863 111.82 101.011 111.95 101.115 112.104C101.219 112.258 101.271 112.454 101.271 112.694Z" fill="#88909F"/>
<path d="M222.492 118.899V118.22H224.469V118.899H222.492ZM226.793 121.173V120.36C226.483 120.355 226.191 120.328 225.918 120.278C225.647 120.229 225.419 120.162 225.234 120.079V119.349C225.424 119.437 225.663 119.517 225.949 119.587C226.238 119.655 226.52 119.692 226.793 119.7V118.11C226.434 117.996 226.138 117.873 225.906 117.743C225.677 117.613 225.507 117.458 225.395 117.278C225.283 117.096 225.227 116.876 225.227 116.618C225.227 116.353 225.292 116.125 225.422 115.935C225.552 115.744 225.734 115.595 225.969 115.485C226.206 115.376 226.48 115.312 226.793 115.294V114.638H227.285V115.282C227.569 115.293 227.829 115.325 228.066 115.38C228.303 115.435 228.527 115.506 228.738 115.595L228.492 116.231C228.307 116.156 228.111 116.093 227.902 116.044C227.694 115.994 227.488 115.962 227.285 115.946V117.513C227.618 117.617 227.906 117.728 228.148 117.845C228.391 117.962 228.577 118.108 228.707 118.282C228.837 118.457 228.902 118.683 228.902 118.962C228.902 119.345 228.763 119.657 228.484 119.899C228.206 120.139 227.806 120.284 227.285 120.333V121.173H226.793ZM227.285 119.669C227.572 119.638 227.784 119.566 227.922 119.454C228.062 119.342 228.133 119.194 228.133 119.009C228.133 118.881 228.104 118.776 228.047 118.692C227.992 118.606 227.902 118.532 227.777 118.47C227.655 118.405 227.491 118.342 227.285 118.282V119.669ZM226.793 117.337V115.962C226.621 115.975 226.475 116.009 226.355 116.063C226.238 116.116 226.15 116.185 226.09 116.271C226.03 116.356 226 116.459 226 116.579C226 116.712 226.026 116.824 226.078 116.915C226.13 117.006 226.215 117.086 226.332 117.153C226.449 117.218 226.603 117.28 226.793 117.337ZM232.281 120.708H231.504V116.845C231.504 116.707 231.504 116.58 231.504 116.466C231.507 116.349 231.51 116.238 231.516 116.134C231.521 116.027 231.526 115.924 231.531 115.825C231.464 115.896 231.392 115.963 231.316 116.028C231.243 116.091 231.159 116.162 231.062 116.243L230.41 116.771L230.008 116.255L231.629 114.997H232.281V120.708ZM236.176 117.177C236.553 117.177 236.883 117.243 237.164 117.376C237.448 117.506 237.668 117.698 237.824 117.95C237.983 118.203 238.062 118.51 238.062 118.872C238.062 119.268 237.978 119.609 237.809 119.896C237.639 120.182 237.393 120.402 237.07 120.556C236.747 120.709 236.357 120.786 235.898 120.786C235.602 120.786 235.324 120.76 235.066 120.708C234.809 120.656 234.59 120.578 234.41 120.474V119.751C234.603 119.863 234.835 119.954 235.105 120.024C235.379 120.092 235.642 120.126 235.895 120.126C236.171 120.126 236.41 120.083 236.613 119.997C236.819 119.911 236.978 119.781 237.09 119.606C237.202 119.432 237.258 119.211 237.258 118.942C237.258 118.588 237.147 118.315 236.926 118.122C236.704 117.929 236.357 117.833 235.883 117.833C235.724 117.833 235.552 117.847 235.367 117.876C235.182 117.902 235.03 117.929 234.91 117.958L234.543 117.735L234.762 114.997H237.668V115.696H235.441L235.309 117.271C235.405 117.25 235.525 117.229 235.668 117.208C235.811 117.187 235.98 117.177 236.176 117.177ZM242.93 119.419H242.117V120.708H241.348V119.419H238.668V118.798L241.332 114.974H242.117V118.743H242.93V119.419ZM241.348 118.743V117.103C241.348 116.972 241.349 116.849 241.352 116.731C241.354 116.612 241.358 116.498 241.363 116.392C241.368 116.285 241.374 116.186 241.379 116.095C241.384 116.001 241.388 115.916 241.391 115.841H241.359C241.31 115.945 241.254 116.053 241.191 116.165C241.132 116.277 241.068 116.381 241 116.478L239.418 118.743H241.348ZM243.637 120.263C243.637 120.065 243.686 119.925 243.785 119.845C243.887 119.761 244.009 119.72 244.152 119.72C244.298 119.72 244.422 119.761 244.523 119.845C244.625 119.925 244.676 120.065 244.676 120.263C244.676 120.455 244.625 120.596 244.523 120.685C244.422 120.773 244.298 120.817 244.152 120.817C244.009 120.817 243.887 120.773 243.785 120.685C243.686 120.596 243.637 120.455 243.637 120.263ZM247.48 117.177C247.858 117.177 248.188 117.243 248.469 117.376C248.753 117.506 248.973 117.698 249.129 117.95C249.288 118.203 249.367 118.51 249.367 118.872C249.367 119.268 249.283 119.609 249.113 119.896C248.944 120.182 248.698 120.402 248.375 120.556C248.052 120.709 247.661 120.786 247.203 120.786C246.906 120.786 246.629 120.76 246.371 120.708C246.113 120.656 245.895 120.578 245.715 120.474V119.751C245.908 119.863 246.139 119.954 246.41 120.024C246.684 120.092 246.947 120.126 247.199 120.126C247.475 120.126 247.715 120.083 247.918 119.997C248.124 119.911 248.283 119.781 248.395 119.606C248.507 119.432 248.562 119.211 248.562 118.942C248.562 118.588 248.452 118.315 248.23 118.122C248.009 117.929 247.661 117.833 247.188 117.833C247.029 117.833 246.857 117.847 246.672 117.876C246.487 117.902 246.335 117.929 246.215 117.958L245.848 117.735L246.066 114.997H248.973V115.696H246.746L246.613 117.271C246.71 117.25 246.829 117.229 246.973 117.208C247.116 117.187 247.285 117.177 247.48 117.177ZM254.004 117.845C254.004 118.308 253.969 118.722 253.898 119.087C253.828 119.451 253.716 119.76 253.562 120.013C253.411 120.265 253.214 120.458 252.969 120.591C252.727 120.721 252.434 120.786 252.09 120.786C251.658 120.786 251.301 120.67 251.02 120.438C250.738 120.207 250.529 119.872 250.391 119.435C250.253 118.994 250.184 118.465 250.184 117.845C250.184 117.235 250.246 116.712 250.371 116.274C250.496 115.834 250.698 115.497 250.977 115.263C251.258 115.026 251.629 114.907 252.09 114.907C252.527 114.907 252.887 115.024 253.168 115.259C253.452 115.491 253.661 115.826 253.797 116.267C253.935 116.704 254.004 117.23 254.004 117.845ZM250.973 117.845C250.973 118.353 251.009 118.776 251.082 119.114C251.155 119.453 251.273 119.707 251.438 119.876C251.602 120.043 251.819 120.126 252.09 120.126C252.361 120.126 252.578 120.043 252.742 119.876C252.909 119.709 253.029 119.457 253.102 119.118C253.174 118.78 253.211 118.355 253.211 117.845C253.211 117.345 253.174 116.927 253.102 116.591C253.029 116.252 252.91 115.998 252.746 115.829C252.585 115.657 252.366 115.571 252.09 115.571C251.814 115.571 251.594 115.657 251.43 115.829C251.268 115.998 251.151 116.252 251.078 116.591C251.008 116.927 250.973 117.345 250.973 117.845Z" fill="#88909F"/>
<path d="M60.7144 127.546V121.916H58.4259V121.144H63.8839V121.916H61.5953V127.546H60.7144ZM65.8693 127.628C65.4152 127.628 65.0216 127.534 64.6887 127.347C64.3557 127.153 64.0984 126.88 63.9167 126.529C63.7351 126.178 63.6443 125.769 63.6443 125.303C63.6443 124.837 63.7351 124.431 63.9167 124.086C64.0984 123.735 64.3557 123.466 64.6887 123.278C65.0216 123.084 65.4152 122.987 65.8693 122.987C66.3233 122.987 66.7169 123.084 67.0499 123.278C67.3828 123.466 67.6402 123.735 67.8218 124.086C68.0034 124.431 68.0942 124.837 68.0942 125.303C68.0942 125.769 68.0034 126.178 67.8218 126.529C67.6402 126.88 67.3828 127.153 67.0499 127.347C66.7169 127.534 66.3233 127.628 65.8693 127.628ZM65.8693 126.902C66.287 126.902 66.617 126.759 66.8591 126.475C67.1013 126.19 67.2224 125.8 67.2224 125.303C67.2224 124.801 67.1013 124.41 66.8591 124.132C66.617 123.853 66.287 123.714 65.8693 123.714C65.4515 123.714 65.1215 123.853 64.8794 124.132C64.6372 124.41 64.5161 124.801 64.5161 125.303C64.5161 125.8 64.6372 126.19 64.8794 126.475C65.1215 126.759 65.4515 126.902 65.8693 126.902ZM70.9246 127.628C70.5129 127.628 70.1526 127.534 69.8439 127.347C69.5411 127.153 69.305 126.88 69.1355 126.529C68.972 126.178 68.8903 125.769 68.8903 125.303C68.8903 124.837 68.972 124.431 69.1355 124.086C69.305 123.741 69.5411 123.472 69.8439 123.278C70.1466 123.084 70.5008 122.987 70.9064 122.987C71.2939 122.987 71.6238 123.078 71.8963 123.26C72.1748 123.442 72.3715 123.69 72.4866 124.005H72.4593V121.144H73.3402V127.546H72.5229V126.556H72.5411C72.42 126.896 72.2172 127.159 71.9326 127.347C71.6481 127.534 71.312 127.628 70.9246 127.628ZM71.1244 126.92C71.5421 126.92 71.8721 126.777 72.1142 126.493C72.3564 126.208 72.4775 125.812 72.4775 125.303C72.4775 124.795 72.3564 124.401 72.1142 124.123C71.8721 123.838 71.5421 123.696 71.1244 123.696C70.7066 123.696 70.3766 123.838 70.1345 124.123C69.8923 124.401 69.7712 124.795 69.7712 125.303C69.7712 125.812 69.8923 126.208 70.1345 126.493C70.3766 126.777 70.7066 126.92 71.1244 126.92ZM76.146 127.628C75.8312 127.628 75.5466 127.568 75.2924 127.446C75.0441 127.325 74.8474 127.162 74.7021 126.956C74.5567 126.75 74.4841 126.517 74.4841 126.257C74.4841 125.924 74.5749 125.66 74.7565 125.467C74.9442 125.267 75.2379 125.125 75.6375 125.04C76.037 124.949 76.5547 124.904 77.1904 124.904H77.7716V125.485H77.2267C76.8877 125.485 76.6001 125.497 76.364 125.521C76.1279 125.539 75.9341 125.576 75.7828 125.63C75.6375 125.685 75.5285 125.76 75.4558 125.857C75.3892 125.948 75.3559 126.066 75.3559 126.211C75.3559 126.448 75.4437 126.632 75.6193 126.765C75.8009 126.899 76.034 126.965 76.3186 126.965C76.5668 126.965 76.7878 126.908 76.9815 126.793C77.1813 126.678 77.3387 126.526 77.4538 126.339C77.5748 126.145 77.6354 125.93 77.6354 125.694V124.668C77.6354 124.322 77.5446 124.074 77.3629 123.923C77.1813 123.765 76.9058 123.687 76.5365 123.687C76.2701 123.687 76.0068 123.723 75.7464 123.796C75.4921 123.868 75.2258 123.989 74.9473 124.159L74.6657 123.523C74.8474 123.408 75.0441 123.311 75.256 123.233C75.474 123.154 75.698 123.093 75.9281 123.051C76.1581 123.009 76.3852 122.987 76.6092 122.987C77.0088 122.987 77.3478 123.051 77.6263 123.178C77.9048 123.299 78.1167 123.49 78.262 123.75C78.4134 124.005 78.4891 124.338 78.4891 124.749V127.546H77.708V126.566H77.7262C77.6536 126.765 77.5446 126.947 77.3993 127.11C77.254 127.268 77.0754 127.395 76.8635 127.492C76.6576 127.583 76.4185 127.628 76.146 127.628ZM80.2697 129.181L81.1325 127.238V127.801L79.1255 123.069H80.07L81.5139 126.729H81.414L82.8671 123.069H83.7752L81.187 129.181H80.2697ZM84.3765 128.818L83.9588 128.491C84.0738 128.376 84.1616 128.255 84.2221 128.128C84.2887 128.007 84.3372 127.882 84.3674 127.755C84.3977 127.628 84.4159 127.504 84.4219 127.383L84.5945 127.546H83.8861V126.493H84.985V127.265C84.985 127.446 84.9638 127.628 84.9214 127.81C84.8851 127.997 84.8215 128.176 84.7307 128.346C84.6459 128.515 84.5279 128.672 84.3765 128.818ZM88.638 127.546V126.793H90.2909V121.87L90.754 121.907L88.9559 123.042L88.5835 122.37L90.527 121.144H91.1718V126.793H92.6975V127.546H88.638ZM95.9451 127.628C95.4305 127.628 94.9916 127.504 94.6283 127.256C94.2711 127.008 93.9987 126.65 93.811 126.184C93.6233 125.712 93.5294 125.143 93.5294 124.477C93.5294 123.744 93.6324 123.127 93.8382 122.624C94.0501 122.116 94.3528 121.728 94.7464 121.462C95.1399 121.195 95.6121 121.062 96.1631 121.062C96.3932 121.062 96.6172 121.092 96.8351 121.153C97.0591 121.207 97.268 121.292 97.4617 121.407C97.6615 121.516 97.8432 121.652 98.0066 121.816L97.6888 122.497C97.4587 122.261 97.2135 122.091 96.9532 121.988C96.6989 121.88 96.4325 121.825 96.154 121.825C95.8634 121.825 95.6061 121.88 95.3821 121.988C95.1581 122.097 94.9673 122.258 94.8099 122.47C94.6586 122.682 94.5435 122.945 94.4648 123.26C94.3861 123.575 94.3468 123.938 94.3468 124.35V124.94H94.3286C94.3831 124.637 94.4891 124.38 94.6465 124.168C94.8099 123.956 95.0128 123.793 95.2549 123.678C95.5032 123.563 95.7726 123.505 96.0632 123.505C96.4446 123.505 96.7806 123.59 97.0712 123.759C97.3679 123.929 97.598 124.168 97.7614 124.477C97.9249 124.786 98.0066 125.137 98.0066 125.53C98.0066 125.936 97.9189 126.299 97.7433 126.62C97.5738 126.935 97.3316 127.183 97.0168 127.365C96.708 127.54 96.3508 127.628 95.9451 127.628ZM95.8997 126.893C96.154 126.893 96.378 126.838 96.5718 126.729C96.7655 126.614 96.9169 126.457 97.0258 126.257C97.1348 126.057 97.1893 125.824 97.1893 125.558C97.1893 125.297 97.1348 125.067 97.0258 124.867C96.9169 124.668 96.7655 124.513 96.5718 124.404C96.378 124.295 96.151 124.241 95.8906 124.241C95.6364 124.241 95.4093 124.298 95.2095 124.413C95.0158 124.522 94.8644 124.677 94.7554 124.876C94.6465 125.07 94.592 125.297 94.592 125.558C94.592 125.824 94.6465 126.057 94.7554 126.257C94.8644 126.457 95.0158 126.614 95.2095 126.729C95.4093 126.838 95.6394 126.893 95.8997 126.893ZM98.8749 124.104V123.069H99.9738V124.104H98.8749ZM98.8749 127.546V126.511H99.9738V127.546H98.8749ZM103.033 127.628C102.755 127.628 102.482 127.601 102.216 127.546C101.949 127.492 101.698 127.407 101.462 127.292C101.232 127.177 101.026 127.038 100.845 126.874L101.162 126.184C101.453 126.426 101.753 126.602 102.061 126.711C102.37 126.814 102.688 126.865 103.015 126.865C103.287 126.865 103.527 126.826 103.732 126.747C103.938 126.669 104.099 126.547 104.214 126.384C104.329 126.22 104.386 126.012 104.386 125.757C104.386 125.4 104.268 125.131 104.032 124.949C103.796 124.767 103.451 124.677 102.997 124.677H102.016V123.932H102.888C103.154 123.932 103.387 123.89 103.587 123.805C103.787 123.714 103.941 123.584 104.05 123.414C104.165 123.245 104.223 123.039 104.223 122.797C104.223 122.476 104.114 122.234 103.896 122.07C103.678 121.907 103.384 121.825 103.015 121.825C102.7 121.825 102.394 121.883 102.098 121.998C101.801 122.107 101.526 122.285 101.271 122.533L100.954 121.861C101.208 121.595 101.523 121.395 101.898 121.262C102.273 121.129 102.664 121.062 103.07 121.062C103.487 121.062 103.844 121.129 104.141 121.262C104.444 121.389 104.677 121.577 104.84 121.825C105.004 122.073 105.086 122.37 105.086 122.715C105.086 123.084 104.983 123.408 104.777 123.687C104.571 123.959 104.289 124.15 103.932 124.259V124.232C104.193 124.28 104.423 124.374 104.622 124.513C104.822 124.652 104.977 124.831 105.086 125.049C105.195 125.267 105.249 125.518 105.249 125.803C105.249 126.184 105.158 126.511 104.977 126.784C104.795 127.056 104.538 127.265 104.205 127.41C103.872 127.555 103.481 127.628 103.033 127.628ZM108.606 127.628C108.091 127.628 107.652 127.504 107.289 127.256C106.932 127.008 106.659 126.65 106.472 126.184C106.284 125.712 106.19 125.143 106.19 124.477C106.19 123.744 106.293 123.127 106.499 122.624C106.711 122.116 107.013 121.728 107.407 121.462C107.8 121.195 108.273 121.062 108.824 121.062C109.054 121.062 109.278 121.092 109.496 121.153C109.72 121.207 109.929 121.292 110.122 121.407C110.322 121.516 110.504 121.652 110.667 121.816L110.349 122.497C110.119 122.261 109.874 122.091 109.614 121.988C109.359 121.88 109.093 121.825 108.815 121.825C108.524 121.825 108.267 121.88 108.043 121.988C107.819 122.097 107.628 122.258 107.471 122.47C107.319 122.682 107.204 122.945 107.125 123.26C107.047 123.575 107.007 123.938 107.007 124.35V124.94H106.989C107.044 124.637 107.15 124.38 107.307 124.168C107.471 123.956 107.673 123.793 107.916 123.678C108.164 123.563 108.433 123.505 108.724 123.505C109.105 123.505 109.441 123.59 109.732 123.759C110.028 123.929 110.259 124.168 110.422 124.477C110.585 124.786 110.667 125.137 110.667 125.53C110.667 125.936 110.579 126.299 110.404 126.62C110.234 126.935 109.992 127.183 109.677 127.365C109.369 127.54 109.011 127.628 108.606 127.628ZM108.56 126.893C108.815 126.893 109.039 126.838 109.232 126.729C109.426 126.614 109.577 126.457 109.686 126.257C109.795 126.057 109.85 125.824 109.85 125.558C109.85 125.297 109.795 125.067 109.686 124.867C109.577 124.668 109.426 124.513 109.232 124.404C109.039 124.295 108.812 124.241 108.551 124.241C108.297 124.241 108.07 124.298 107.87 124.413C107.676 124.522 107.525 124.677 107.416 124.876C107.307 125.07 107.253 125.297 107.253 125.558C107.253 125.824 107.307 126.057 107.416 126.257C107.525 126.457 107.676 126.614 107.87 126.729C108.07 126.838 108.3 126.893 108.56 126.893Z" fill="#88909F"/>
<circle cx="34.0548" cy="115.79" r="15.8927" fill="#C9CDD3"/>
<g clip-path="url(#clip0_200_7526)">
<path d="M34.0543 112.006V108.979H26.4863V122.601H41.6222V112.006H34.0543ZM29.5135 121.087H27.9999V119.574H29.5135V121.087ZM29.5135 118.06H27.9999V116.546H29.5135V118.06ZM29.5135 115.033H27.9999V113.519H29.5135V115.033ZM29.5135 112.006H27.9999V110.492H29.5135V112.006ZM32.5407 121.087H31.0271V119.574H32.5407V121.087ZM32.5407 118.06H31.0271V116.546H32.5407V118.06ZM32.5407 115.033H31.0271V113.519H32.5407V115.033ZM32.5407 112.006H31.0271V110.492H32.5407V112.006ZM40.1086 121.087H34.0543V119.574H35.5679V118.06H34.0543V116.546H35.5679V115.033H34.0543V113.519H40.1086V121.087ZM38.5951 115.033H37.0815V116.546H38.5951V115.033ZM38.5951 118.06H37.0815V119.574H38.5951V118.06Z" fill="#1A1D21"/>
</g>
<path d="M63.623 148.827C63.623 149.47 63.5046 150.008 63.2676 150.44C63.0306 150.87 62.6868 151.194 62.2363 151.413C61.7884 151.629 61.2441 151.737 60.6035 151.737H59.0371V146.026H60.7793C61.3626 146.026 61.8665 146.133 62.291 146.346C62.7155 146.557 63.0436 146.871 63.2754 147.288C63.5072 147.702 63.623 148.215 63.623 148.827ZM62.7832 148.85C62.7832 148.361 62.7038 147.957 62.5449 147.639C62.3861 147.321 62.153 147.086 61.8457 146.932C61.5384 146.776 61.1621 146.698 60.7168 146.698H59.8379V151.057H60.5762C61.3132 151.057 61.8652 150.872 62.2324 150.502C62.5996 150.133 62.7832 149.582 62.7832 148.85ZM66.4629 147.354C66.8379 147.354 67.1595 147.435 67.4277 147.596C67.696 147.755 67.9017 147.98 68.0449 148.272C68.1882 148.564 68.2598 148.907 68.2598 149.303V149.749H65.3379C65.3457 150.209 65.4642 150.564 65.6934 150.811C65.9225 151.056 66.2441 151.178 66.6582 151.178C66.9316 151.178 67.1751 151.152 67.3887 151.1C67.6022 151.048 67.8236 150.971 68.0527 150.87V151.53C67.8366 151.629 67.6191 151.7 67.4004 151.745C67.1842 151.792 66.9251 151.815 66.623 151.815C66.2064 151.815 65.8405 151.732 65.5254 151.565C65.2129 151.398 64.9694 151.152 64.7949 150.827C64.6204 150.499 64.5332 150.095 64.5332 149.616C64.5332 149.142 64.6126 148.737 64.7715 148.401C64.9303 148.062 65.1543 147.803 65.4434 147.624C65.7324 147.444 66.0723 147.354 66.4629 147.354ZM66.459 147.963C66.1413 147.963 65.8861 148.068 65.6934 148.276C65.5007 148.482 65.3874 148.777 65.3535 149.163H67.4707C67.4681 148.926 67.4303 148.717 67.3574 148.538C67.2845 148.358 67.1738 148.217 67.0254 148.116C66.8796 148.014 66.6908 147.963 66.459 147.963ZM72.1699 150.534C72.1699 150.812 72.1009 151.048 71.9629 151.241C71.8275 151.431 71.6296 151.574 71.3691 151.67C71.1087 151.767 70.7962 151.815 70.4316 151.815C70.1296 151.815 69.8691 151.792 69.6504 151.745C69.4316 151.7 69.2337 151.635 69.0566 151.549V150.854C69.2467 150.945 69.4668 151.026 69.7168 151.096C69.9668 151.167 70.2116 151.202 70.4512 151.202C70.7871 151.202 71.0293 151.148 71.1777 151.042C71.3288 150.935 71.4043 150.79 71.4043 150.608C71.4043 150.501 71.3743 150.407 71.3145 150.327C71.2546 150.243 71.1491 150.161 70.998 150.081C70.8496 149.997 70.6361 149.902 70.3574 149.795C70.084 149.689 69.8496 149.582 69.6543 149.475C69.4616 149.368 69.3145 149.239 69.2129 149.088C69.1113 148.937 69.0605 148.742 69.0605 148.502C69.0605 148.13 69.209 147.846 69.5059 147.651C69.8053 147.453 70.1999 147.354 70.6895 147.354C70.9499 147.354 71.1947 147.38 71.4238 147.432C71.6556 147.484 71.877 147.557 72.0879 147.651L71.834 148.256C71.6465 148.176 71.4538 148.109 71.2559 148.057C71.0579 148.002 70.8561 147.975 70.6504 147.975C70.3822 147.975 70.1764 148.018 70.0332 148.104C69.8926 148.19 69.8223 148.308 69.8223 148.459C69.8223 148.577 69.8548 148.674 69.9199 148.752C69.9876 148.831 70.0996 148.907 70.2559 148.983C70.4121 149.056 70.623 149.143 70.8887 149.245C71.1517 149.344 71.3783 149.446 71.5684 149.553C71.7611 149.66 71.9095 149.79 72.0137 149.944C72.1178 150.097 72.1699 150.294 72.1699 150.534ZM73.9746 147.432V151.737H73.1895V147.432H73.9746ZM73.5879 145.803C73.7129 145.803 73.8197 145.84 73.9082 145.913C73.9993 145.986 74.0449 146.104 74.0449 146.268C74.0449 146.432 73.9993 146.552 73.9082 146.627C73.8197 146.7 73.7129 146.737 73.5879 146.737C73.4603 146.737 73.3522 146.7 73.2637 146.627C73.1777 146.552 73.1348 146.432 73.1348 146.268C73.1348 146.104 73.1777 145.986 73.2637 145.913C73.3522 145.84 73.4603 145.803 73.5879 145.803ZM76.5332 153.659C75.9577 153.659 75.515 153.553 75.2051 153.342C74.8978 153.131 74.7441 152.837 74.7441 152.459C74.7441 152.191 74.8288 151.963 74.998 151.776C75.1673 151.591 75.4043 151.466 75.709 151.401C75.5944 151.349 75.4954 151.269 75.4121 151.163C75.3314 151.053 75.291 150.931 75.291 150.795C75.291 150.637 75.3353 150.5 75.4238 150.385C75.515 150.268 75.6504 150.155 75.8301 150.045C75.6035 149.952 75.4212 149.797 75.2832 149.581C75.1452 149.362 75.0762 149.107 75.0762 148.815C75.0762 148.505 75.1413 148.241 75.2715 148.022C75.4043 147.803 75.5944 147.637 75.8418 147.522C76.0892 147.407 76.39 147.35 76.7441 147.35C76.8223 147.35 76.903 147.354 76.9863 147.362C77.0697 147.367 77.1491 147.376 77.2246 147.389C77.3001 147.402 77.3613 147.415 77.4082 147.428H78.8926V147.893L78.127 148.01C78.2025 148.109 78.2637 148.226 78.3105 148.362C78.3574 148.497 78.3809 148.646 78.3809 148.807C78.3809 149.245 78.2311 149.591 77.9316 149.846C77.6348 150.099 77.2233 150.225 76.6973 150.225C76.5749 150.222 76.4512 150.212 76.3262 150.194C76.2142 150.259 76.1296 150.331 76.0723 150.409C76.015 150.484 75.9863 150.571 75.9863 150.67C75.9863 150.746 76.0111 150.807 76.0605 150.854C76.1126 150.901 76.1868 150.936 76.2832 150.959C76.3796 150.98 76.4967 150.991 76.6348 150.991H77.3848C77.8535 150.991 78.2129 151.09 78.4629 151.288C78.7129 151.486 78.8379 151.775 78.8379 152.155C78.8379 152.637 78.64 153.008 78.2441 153.268C77.8483 153.528 77.278 153.659 76.5332 153.659ZM76.5605 153.084C76.8965 153.084 77.1764 153.051 77.4004 152.983C77.627 152.915 77.7975 152.819 77.9121 152.694C78.0267 152.569 78.084 152.42 78.084 152.249C78.084 152.092 78.0462 151.972 77.9707 151.889C77.8978 151.808 77.7884 151.754 77.6426 151.725C77.4967 151.696 77.3171 151.682 77.1035 151.682H76.3926C76.2103 151.682 76.0514 151.711 75.916 151.768C75.7806 151.825 75.6751 151.907 75.5996 152.014C75.5241 152.124 75.4863 152.258 75.4863 152.417C75.4863 152.633 75.5788 152.798 75.7637 152.913C75.9512 153.027 76.2168 153.084 76.5605 153.084ZM76.7324 149.69C77.0215 149.69 77.2376 149.614 77.3809 149.463C77.5241 149.31 77.5957 149.091 77.5957 148.807C77.5957 148.502 77.5228 148.273 77.377 148.12C77.2311 147.966 77.015 147.889 76.7285 147.889C76.4499 147.889 76.2363 147.969 76.0879 148.127C75.9421 148.284 75.8691 148.513 75.8691 148.815C75.8691 149.094 75.9434 149.31 76.0918 149.463C76.2402 149.614 76.4538 149.69 76.7324 149.69ZM81.8457 147.354C82.3431 147.354 82.7246 147.479 82.9902 147.729C83.2585 147.979 83.3926 148.38 83.3926 148.932V151.737H82.6152V149.038C82.6152 148.694 82.5397 148.436 82.3887 148.264C82.2376 148.09 82.0059 148.002 81.6934 148.002C81.248 148.002 80.9355 148.134 80.7559 148.397C80.5788 148.66 80.4902 149.042 80.4902 149.542V151.737H79.7051V147.432H80.3262L80.4395 148.038H80.4824C80.5736 147.887 80.6895 147.76 80.8301 147.659C80.9707 147.557 81.127 147.482 81.2988 147.432C81.4733 147.38 81.6556 147.354 81.8457 147.354ZM89.3184 146.635C89.0241 146.635 88.7598 146.687 88.5254 146.792C88.2936 146.893 88.097 147.043 87.9355 147.241C87.7741 147.436 87.6504 147.672 87.5645 147.948C87.4785 148.224 87.4355 148.535 87.4355 148.881C87.4355 149.342 87.5033 149.741 87.6387 150.077C87.7767 150.413 87.9837 150.672 88.2598 150.854C88.5358 151.036 88.8835 151.127 89.3027 151.127C89.5527 151.127 89.791 151.105 90.0176 151.061C90.2467 151.014 90.4746 150.954 90.7012 150.881V151.569C90.4824 151.652 90.2559 151.713 90.0215 151.752C89.7897 151.794 89.5176 151.815 89.2051 151.815C88.6217 151.815 88.1361 151.694 87.748 151.452C87.3626 151.209 87.0749 150.87 86.8848 150.432C86.6947 149.992 86.5996 149.474 86.5996 148.877C86.5996 148.445 86.6595 148.051 86.7793 147.694C86.8991 147.334 87.0749 147.025 87.3066 146.764C87.5384 146.501 87.8223 146.299 88.1582 146.159C88.4967 146.015 88.8861 145.944 89.3262 145.944C89.6126 145.944 89.8913 145.975 90.1621 146.038C90.4355 146.097 90.6868 146.182 90.916 146.292L90.6191 146.959C90.429 146.874 90.2246 146.798 90.0059 146.733C89.7897 146.668 89.5605 146.635 89.3184 146.635ZM95.5996 149.577C95.5996 149.931 95.5527 150.247 95.459 150.526C95.3678 150.802 95.2337 151.036 95.0566 151.229C94.8822 151.419 94.6712 151.565 94.4238 151.667C94.1764 151.765 93.8965 151.815 93.584 151.815C93.2923 151.815 93.0241 151.765 92.7793 151.667C92.5371 151.565 92.3275 151.419 92.1504 151.229C91.9733 151.036 91.8366 150.802 91.7402 150.526C91.6439 150.247 91.5957 149.931 91.5957 149.577C91.5957 149.105 91.6764 148.704 91.8379 148.374C91.9993 148.04 92.2298 147.788 92.5293 147.616C92.8314 147.441 93.1908 147.354 93.6074 147.354C94.0033 147.354 94.3509 147.441 94.6504 147.616C94.9499 147.79 95.1829 148.043 95.3496 148.374C95.5163 148.704 95.5996 149.105 95.5996 149.577ZM92.4004 149.577C92.4004 149.907 92.4421 150.193 92.5254 150.432C92.6113 150.669 92.7415 150.851 92.916 150.979C93.0931 151.107 93.321 151.17 93.5996 151.17C93.873 151.17 94.0983 151.107 94.2754 150.979C94.4525 150.851 94.5827 150.669 94.666 150.432C94.7493 150.193 94.791 149.907 94.791 149.577C94.791 149.249 94.7493 148.967 94.666 148.733C94.5827 148.499 94.4525 148.319 94.2754 148.194C94.1009 148.069 93.873 148.006 93.5918 148.006C93.1803 148.006 92.8783 148.144 92.6855 148.42C92.4954 148.694 92.4004 149.079 92.4004 149.577ZM100.346 147.432V151.737H99.7168L99.6074 151.147H99.5645C99.4759 151.295 99.3613 151.419 99.2207 151.518C99.0801 151.617 98.9225 151.691 98.748 151.741C98.5736 151.79 98.3887 151.815 98.1934 151.815C97.8626 151.815 97.5814 151.76 97.3496 151.651C97.1204 151.542 96.946 151.372 96.8262 151.143C96.709 150.911 96.6504 150.613 96.6504 150.249V147.432H97.4395V150.139C97.4395 150.486 97.5137 150.745 97.6621 150.917C97.8132 151.088 98.0423 151.174 98.3496 151.174C98.6491 151.174 98.8861 151.116 99.0605 150.999C99.2376 150.879 99.3639 150.706 99.4395 150.479C99.5176 150.25 99.5566 149.97 99.5566 149.639V147.432H100.346ZM103.76 147.354C103.838 147.354 103.923 147.359 104.014 147.37C104.105 147.377 104.183 147.388 104.248 147.401L104.166 148.131C104.104 148.116 104.031 148.103 103.947 148.092C103.867 148.082 103.791 148.077 103.721 148.077C103.554 148.077 103.395 148.108 103.244 148.17C103.093 148.233 102.96 148.324 102.846 148.444C102.731 148.561 102.641 148.706 102.576 148.877C102.511 149.047 102.479 149.241 102.479 149.459V151.737H101.689V147.432H102.322L102.416 148.209H102.451C102.54 148.053 102.646 147.91 102.771 147.78C102.899 147.65 103.045 147.547 103.209 147.471C103.376 147.393 103.559 147.354 103.76 147.354ZM107.889 150.534C107.889 150.812 107.82 151.048 107.682 151.241C107.546 151.431 107.348 151.574 107.088 151.67C106.827 151.767 106.515 151.815 106.15 151.815C105.848 151.815 105.588 151.792 105.369 151.745C105.15 151.7 104.952 151.635 104.775 151.549V150.854C104.965 150.945 105.186 151.026 105.436 151.096C105.686 151.167 105.93 151.202 106.17 151.202C106.506 151.202 106.748 151.148 106.896 151.042C107.048 150.935 107.123 150.79 107.123 150.608C107.123 150.501 107.093 150.407 107.033 150.327C106.973 150.243 106.868 150.161 106.717 150.081C106.568 149.997 106.355 149.902 106.076 149.795C105.803 149.689 105.568 149.582 105.373 149.475C105.18 149.368 105.033 149.239 104.932 149.088C104.83 148.937 104.779 148.742 104.779 148.502C104.779 148.13 104.928 147.846 105.225 147.651C105.524 147.453 105.919 147.354 106.408 147.354C106.669 147.354 106.913 147.38 107.143 147.432C107.374 147.484 107.596 147.557 107.807 147.651L107.553 148.256C107.365 148.176 107.173 148.109 106.975 148.057C106.777 148.002 106.575 147.975 106.369 147.975C106.101 147.975 105.895 148.018 105.752 148.104C105.611 148.19 105.541 148.308 105.541 148.459C105.541 148.577 105.574 148.674 105.639 148.752C105.706 148.831 105.818 148.907 105.975 148.983C106.131 149.056 106.342 149.143 106.607 149.245C106.87 149.344 107.097 149.446 107.287 149.553C107.48 149.66 107.628 149.79 107.732 149.944C107.837 150.097 107.889 150.294 107.889 150.534ZM110.596 147.354C110.971 147.354 111.292 147.435 111.561 147.596C111.829 147.755 112.035 147.98 112.178 148.272C112.321 148.564 112.393 148.907 112.393 149.303V149.749H109.471C109.479 150.209 109.597 150.564 109.826 150.811C110.055 151.056 110.377 151.178 110.791 151.178C111.064 151.178 111.308 151.152 111.521 151.1C111.735 151.048 111.956 150.971 112.186 150.87V151.53C111.969 151.629 111.752 151.7 111.533 151.745C111.317 151.792 111.058 151.815 110.756 151.815C110.339 151.815 109.973 151.732 109.658 151.565C109.346 151.398 109.102 151.152 108.928 150.827C108.753 150.499 108.666 150.095 108.666 149.616C108.666 149.142 108.745 148.737 108.904 148.401C109.063 148.062 109.287 147.803 109.576 147.624C109.865 147.444 110.205 147.354 110.596 147.354ZM110.592 147.963C110.274 147.963 110.019 148.068 109.826 148.276C109.633 148.482 109.52 148.777 109.486 149.163H111.604C111.601 148.926 111.563 148.717 111.49 148.538C111.417 148.358 111.307 148.217 111.158 148.116C111.012 148.014 110.824 147.963 110.592 147.963Z" fill="#88909F"/>
<path d="M227.125 156.739V156.06H229.102V156.739H227.125ZM231.426 159.013V158.2C231.116 158.195 230.824 158.168 230.551 158.118C230.28 158.069 230.052 158.002 229.867 157.919V157.188C230.057 157.277 230.296 157.356 230.582 157.427C230.871 157.494 231.152 157.532 231.426 157.54V155.95C231.066 155.836 230.771 155.713 230.539 155.583C230.31 155.453 230.139 155.298 230.027 155.118C229.915 154.936 229.859 154.716 229.859 154.458C229.859 154.192 229.924 153.965 230.055 153.774C230.185 153.584 230.367 153.435 230.602 153.325C230.839 153.216 231.113 153.152 231.426 153.134V152.478H231.918V153.122C232.202 153.132 232.462 153.165 232.699 153.22C232.936 153.274 233.16 153.346 233.371 153.435L233.125 154.071C232.94 153.996 232.743 153.933 232.535 153.884C232.327 153.834 232.121 153.802 231.918 153.786V155.353C232.251 155.457 232.539 155.567 232.781 155.685C233.023 155.802 233.21 155.948 233.34 156.122C233.47 156.297 233.535 156.523 233.535 156.802C233.535 157.185 233.396 157.497 233.117 157.739C232.839 157.979 232.439 158.123 231.918 158.173V159.013H231.426ZM231.918 157.509C232.204 157.478 232.417 157.406 232.555 157.294C232.695 157.182 232.766 157.034 232.766 156.849C232.766 156.721 232.737 156.616 232.68 156.532C232.625 156.446 232.535 156.372 232.41 156.31C232.288 156.244 232.124 156.182 231.918 156.122V157.509ZM231.426 155.177V153.802C231.254 153.815 231.108 153.849 230.988 153.903C230.871 153.955 230.783 154.024 230.723 154.11C230.663 154.196 230.633 154.299 230.633 154.419C230.633 154.552 230.659 154.664 230.711 154.755C230.763 154.846 230.848 154.925 230.965 154.993C231.082 155.058 231.236 155.119 231.426 155.177ZM235.051 158.548L237.348 153.536H234.309V152.837H238.188V153.399L235.902 158.548H235.051ZM242.754 155.685C242.754 156.148 242.719 156.562 242.648 156.927C242.578 157.291 242.466 157.6 242.312 157.853C242.161 158.105 241.964 158.298 241.719 158.431C241.477 158.561 241.184 158.626 240.84 158.626C240.408 158.626 240.051 158.51 239.77 158.278C239.488 158.047 239.279 157.712 239.141 157.274C239.003 156.834 238.934 156.304 238.934 155.685C238.934 155.075 238.996 154.552 239.121 154.114C239.246 153.674 239.448 153.337 239.727 153.103C240.008 152.866 240.379 152.747 240.84 152.747C241.277 152.747 241.637 152.864 241.918 153.099C242.202 153.33 242.411 153.666 242.547 154.106C242.685 154.544 242.754 155.07 242.754 155.685ZM239.723 155.685C239.723 156.192 239.759 156.616 239.832 156.954C239.905 157.293 240.023 157.547 240.188 157.716C240.352 157.882 240.569 157.966 240.84 157.966C241.111 157.966 241.328 157.882 241.492 157.716C241.659 157.549 241.779 157.297 241.852 156.958C241.924 156.619 241.961 156.195 241.961 155.685C241.961 155.185 241.924 154.767 241.852 154.431C241.779 154.092 241.66 153.838 241.496 153.669C241.335 153.497 241.116 153.411 240.84 153.411C240.564 153.411 240.344 153.497 240.18 153.669C240.018 153.838 239.901 154.092 239.828 154.431C239.758 154.767 239.723 155.185 239.723 155.685ZM243.691 158.103C243.691 157.905 243.741 157.765 243.84 157.685C243.941 157.601 244.064 157.56 244.207 157.56C244.353 157.56 244.477 157.601 244.578 157.685C244.68 157.765 244.73 157.905 244.73 158.103C244.73 158.295 244.68 158.436 244.578 158.524C244.477 158.613 244.353 158.657 244.207 158.657C244.064 158.657 243.941 158.613 243.84 158.524C243.741 158.436 243.691 158.295 243.691 158.103ZM249.48 155.685C249.48 156.148 249.445 156.562 249.375 156.927C249.305 157.291 249.193 157.6 249.039 157.853C248.888 158.105 248.69 158.298 248.445 158.431C248.203 158.561 247.91 158.626 247.566 158.626C247.134 158.626 246.777 158.51 246.496 158.278C246.215 158.047 246.005 157.712 245.867 157.274C245.729 156.834 245.66 156.304 245.66 155.685C245.66 155.075 245.723 154.552 245.848 154.114C245.973 153.674 246.174 153.337 246.453 153.103C246.734 152.866 247.105 152.747 247.566 152.747C248.004 152.747 248.363 152.864 248.645 153.099C248.928 153.33 249.138 153.666 249.273 154.106C249.411 154.544 249.48 155.07 249.48 155.685ZM246.449 155.685C246.449 156.192 246.486 156.616 246.559 156.954C246.632 157.293 246.75 157.547 246.914 157.716C247.078 157.882 247.296 157.966 247.566 157.966C247.837 157.966 248.055 157.882 248.219 157.716C248.385 157.549 248.505 157.297 248.578 156.958C248.651 156.619 248.688 156.195 248.688 155.685C248.688 155.185 248.651 154.767 248.578 154.431C248.505 154.092 248.387 153.838 248.223 153.669C248.061 153.497 247.842 153.411 247.566 153.411C247.29 153.411 247.07 153.497 246.906 153.669C246.745 153.838 246.628 154.092 246.555 154.431C246.484 154.767 246.449 155.185 246.449 155.685ZM254.059 155.685C254.059 156.148 254.023 156.562 253.953 156.927C253.883 157.291 253.771 157.6 253.617 157.853C253.466 158.105 253.268 158.298 253.023 158.431C252.781 158.561 252.488 158.626 252.145 158.626C251.712 158.626 251.355 158.51 251.074 158.278C250.793 158.047 250.583 157.712 250.445 157.274C250.307 156.834 250.238 156.304 250.238 155.685C250.238 155.075 250.301 154.552 250.426 154.114C250.551 153.674 250.753 153.337 251.031 153.103C251.312 152.866 251.684 152.747 252.145 152.747C252.582 152.747 252.941 152.864 253.223 153.099C253.507 153.33 253.716 153.666 253.852 154.106C253.99 154.544 254.059 155.07 254.059 155.685ZM251.027 155.685C251.027 156.192 251.064 156.616 251.137 156.954C251.21 157.293 251.328 157.547 251.492 157.716C251.656 157.882 251.874 157.966 252.145 157.966C252.415 157.966 252.633 157.882 252.797 157.716C252.964 157.549 253.083 157.297 253.156 156.958C253.229 156.619 253.266 156.195 253.266 155.685C253.266 155.185 253.229 154.767 253.156 154.431C253.083 154.092 252.965 153.838 252.801 153.669C252.639 153.497 252.421 153.411 252.145 153.411C251.868 153.411 251.648 153.497 251.484 153.669C251.323 153.838 251.206 154.092 251.133 154.431C251.062 154.767 251.027 155.185 251.027 155.685Z" fill="#88909F"/>
<path d="M59.0162 165.386V164.732L61.223 162.407C61.4349 162.183 61.6014 161.981 61.7225 161.799C61.8436 161.611 61.9313 161.433 61.9858 161.263C62.0403 161.088 62.0676 160.912 62.0676 160.736C62.0676 160.391 61.9556 160.128 61.7316 159.946C61.5136 159.759 61.2109 159.665 60.8234 159.665C60.5207 159.665 60.224 159.722 59.9334 159.837C59.6428 159.952 59.3704 160.134 59.1161 160.382L58.7891 159.701C59.0495 159.447 59.3643 159.25 59.7336 159.111C60.109 158.972 60.4965 158.902 60.8961 158.902C61.3259 158.902 61.6922 158.975 61.9949 159.12C62.2976 159.259 62.5307 159.462 62.6942 159.728C62.8577 159.989 62.9394 160.304 62.9394 160.673C62.9394 160.861 62.9152 161.045 62.8667 161.227C62.8244 161.409 62.7578 161.59 62.667 161.772C62.5761 161.947 62.4611 162.129 62.3219 162.317C62.1826 162.504 62.0131 162.701 61.8133 162.907L60.0696 164.732V164.632H63.1937V165.386H59.0162ZM64.4343 165.386V164.632H66.0871V159.71L66.5503 159.747L64.7522 160.882L64.3798 160.21L66.3233 158.984H66.9681V164.632H68.4938V165.386H64.4343ZM71.1908 165.459L71.1272 164.696L71.8083 164.66C72.0081 164.648 72.1776 164.599 72.3169 164.514C72.4622 164.424 72.5742 164.299 72.6529 164.142C72.7316 163.985 72.7709 163.803 72.7709 163.597V158.984H73.6609V163.633C73.6609 163.985 73.5913 164.29 73.4521 164.551C73.3189 164.811 73.1221 165.017 72.8618 165.168C72.6014 165.314 72.2896 165.398 71.9264 165.423L71.1908 165.459ZM76.7666 165.468C76.4034 165.468 76.0946 165.401 75.8403 165.268C75.5921 165.135 75.4044 164.935 75.2772 164.669C75.1562 164.396 75.0956 164.06 75.0956 163.661V160.909H75.9765V163.633C75.9765 163.864 76.0098 164.063 76.0764 164.233C76.143 164.396 76.249 164.52 76.3943 164.605C76.5456 164.69 76.7363 164.732 76.9664 164.732C77.2146 164.732 77.4326 164.675 77.6203 164.56C77.814 164.445 77.9654 164.287 78.0744 164.088C78.1833 163.888 78.2378 163.667 78.2378 163.425V160.909H79.1187V165.386H78.2923V164.405H78.3286C78.1894 164.744 77.9866 165.008 77.7202 165.196C77.4538 165.377 77.1359 165.468 76.7666 165.468ZM80.4485 165.386V160.909H81.2749V161.872H81.2476C81.393 161.539 81.6079 161.281 81.8924 161.1C82.183 160.918 82.51 160.827 82.8732 160.827C83.2426 160.827 83.5483 160.894 83.7905 161.027C84.0387 161.154 84.2234 161.354 84.3445 161.626C84.4655 161.893 84.5261 162.232 84.5261 162.644V165.386H83.6452V162.689C83.6452 162.447 83.6119 162.244 83.5453 162.081C83.4787 161.911 83.3727 161.784 83.2274 161.699C83.0821 161.608 82.8914 161.563 82.6553 161.563C82.3949 161.563 82.1649 161.62 81.9651 161.735C81.7653 161.85 81.6079 162.008 81.4928 162.208C81.3839 162.401 81.3294 162.625 81.3294 162.88V165.386H80.4485ZM86.1815 166.658L85.7637 166.331C85.8788 166.216 85.9665 166.095 86.0271 165.967C86.0937 165.846 86.1421 165.722 86.1724 165.595C86.2027 165.468 86.2208 165.344 86.2269 165.223L86.3994 165.386H85.6911V164.333H86.7899V165.105C86.7899 165.286 86.7688 165.468 86.7264 165.65C86.69 165.837 86.6265 166.016 86.5357 166.185C86.4509 166.355 86.3328 166.512 86.1815 166.658ZM90.443 165.386V164.632H92.0958V159.71L92.559 159.747L90.7608 160.882L90.3885 160.21L92.332 158.984H92.9767V164.632H94.5024V165.386H90.443ZM97.1144 165.468C96.8783 165.468 96.6482 165.441 96.4242 165.386C96.2062 165.332 95.9973 165.25 95.7976 165.141C95.5978 165.026 95.4161 164.887 95.2527 164.723L95.5796 164.051C95.8157 164.293 96.0609 164.463 96.3152 164.56C96.5755 164.657 96.8419 164.705 97.1144 164.705C97.405 164.705 97.6623 164.651 97.8863 164.542C98.1103 164.433 98.298 164.272 98.4494 164.06C98.6007 163.848 98.7158 163.585 98.7945 163.27C98.8732 162.955 98.9125 162.592 98.9125 162.18V161.59H98.9307C98.8823 161.887 98.7763 162.144 98.6128 162.362C98.4494 162.574 98.2465 162.737 98.0044 162.852C97.7622 162.961 97.4928 163.016 97.1961 163.016C96.8207 163.016 96.4847 162.931 96.1881 162.762C95.8975 162.586 95.6674 162.347 95.4979 162.044C95.3344 161.742 95.2527 161.393 95.2527 161C95.2527 160.588 95.3405 160.225 95.516 159.91C95.6916 159.595 95.9338 159.35 96.2426 159.174C96.5574 158.993 96.9146 158.902 97.3142 158.902C97.8409 158.902 98.2829 159.026 98.6401 159.274C99.0033 159.517 99.2758 159.874 99.4574 160.346C99.639 160.812 99.7299 161.381 99.7299 162.053C99.7299 162.78 99.6269 163.397 99.4211 163.906C99.2152 164.415 98.9156 164.802 98.522 165.068C98.1345 165.335 97.6653 165.468 97.1144 165.468ZM97.3687 162.289C97.629 162.289 97.856 162.235 98.0498 162.126C98.2435 162.011 98.3949 161.854 98.5039 161.654C98.6189 161.454 98.6764 161.224 98.6764 160.964C98.6764 160.697 98.6219 160.464 98.5129 160.264C98.404 160.064 98.2496 159.91 98.0498 159.801C97.856 159.692 97.626 159.638 97.3596 159.638C97.1053 159.638 96.8813 159.695 96.6875 159.81C96.4938 159.919 96.3424 160.074 96.2335 160.273C96.1305 160.473 96.0791 160.703 96.0791 160.964C96.0791 161.23 96.1336 161.463 96.2426 161.663C96.3515 161.863 96.5029 162.017 96.6966 162.126C96.8904 162.235 97.1144 162.289 97.3687 162.289ZM100.68 161.944V160.909H101.779V161.944H100.68ZM100.68 165.386V164.351H101.779V165.386H100.68ZM104.929 165.468C104.433 165.468 104.015 165.344 103.676 165.096C103.337 164.841 103.079 164.472 102.904 163.988C102.734 163.497 102.65 162.895 102.65 162.18C102.65 161.466 102.734 160.867 102.904 160.382C103.079 159.892 103.337 159.523 103.676 159.274C104.015 159.026 104.433 158.902 104.929 158.902C105.431 158.902 105.852 159.026 106.191 159.274C106.53 159.523 106.785 159.889 106.954 160.373C107.124 160.858 107.208 161.457 107.208 162.171C107.208 162.886 107.121 163.488 106.945 163.979C106.776 164.469 106.521 164.841 106.182 165.096C105.843 165.344 105.425 165.468 104.929 165.468ZM104.929 164.714C105.407 164.714 105.761 164.508 105.992 164.097C106.228 163.685 106.346 163.043 106.346 162.171C106.346 161.306 106.231 160.67 106.001 160.264C105.771 159.859 105.413 159.656 104.929 159.656C104.451 159.656 104.093 159.859 103.857 160.264C103.627 160.67 103.512 161.309 103.512 162.18C103.512 163.04 103.627 163.679 103.857 164.097C104.093 164.508 104.451 164.714 104.929 164.714ZM110.874 165.386V164.078H107.913V163.425L110.883 158.984H111.718V163.343H112.617V164.078H111.718V165.386H110.874ZM110.892 163.343V160.055H110.983L108.676 163.525L108.622 163.343H110.892Z" fill="#88909F"/>
<circle cx="34.0548" cy="153.63" r="15.8927" fill="#C9CDD3"/>
<g clip-path="url(#clip1_200_7526)">
<path d="M34.0533 146.818L25.7285 151.359L28.7557 153.009V157.55L34.0533 160.441L39.3508 157.55V153.009L40.8644 152.184V157.413H42.378V151.359L34.0533 146.818ZM39.2146 151.359L34.0533 154.174L28.8919 151.359L34.0533 148.544L39.2146 151.359ZM37.8372 156.649L34.0533 158.715L30.2693 156.649V153.834L34.0533 155.9L37.8372 153.834V156.649Z" fill="#1A1D21"/>
</g>
<path d="M19.045 89.7065V83.3041H21.7059C22.4021 83.3041 22.9379 83.4645 23.3133 83.7854C23.6887 84.1063 23.8764 84.5664 23.8764 85.1658C23.8764 85.5169 23.8037 85.8227 23.6584 86.083C23.5131 86.3373 23.3072 86.5371 23.0409 86.6824C22.7745 86.8277 22.4596 86.9155 22.0964 86.9458L22.1418 86.9094L22.2689 86.9185C22.4445 86.9427 22.5989 87.0093 22.7321 87.1183C22.8713 87.2212 23.0015 87.3877 23.1226 87.6178L24.2396 89.7065H23.2679L22.1872 87.6995C22.1024 87.53 22.0086 87.4029 21.9057 87.3181C21.8027 87.2273 21.6816 87.1637 21.5424 87.1274C21.4092 87.0911 21.2488 87.0729 21.0611 87.0729H19.935V89.7065H19.045ZM19.935 86.3645H21.615C22.0873 86.3645 22.4354 86.2677 22.6594 86.0739C22.8834 85.8741 22.9954 85.5775 22.9954 85.1839C22.9954 84.7965 22.8804 84.5119 22.6503 84.3303C22.4203 84.1426 22.0661 84.0487 21.5878 84.0487H19.935V86.3645ZM27.221 89.7883C26.7185 89.7883 26.2856 89.6975 25.9223 89.5158C25.5591 89.3281 25.2806 89.0618 25.0868 88.7167C24.8931 88.3655 24.7962 87.9508 24.7962 87.4725C24.7962 87.0184 24.887 86.6188 25.0687 86.2737C25.2503 85.9226 25.5076 85.6471 25.8406 85.4473C26.1796 85.2475 26.5732 85.1476 27.0212 85.1476C27.4511 85.1476 27.8173 85.2415 28.1201 85.4291C28.4288 85.6108 28.6619 85.8711 28.8193 86.2101C28.9828 86.5431 29.0645 86.9427 29.0645 87.4089V87.6995H25.4682V87.1183H28.4742L28.3199 87.2727C28.3199 86.8004 28.2078 86.4372 27.9838 86.1829C27.7659 85.9286 27.448 85.8015 27.0303 85.8015C26.7518 85.8015 26.5066 85.8651 26.2947 85.9922C26.0828 86.1193 25.9193 86.301 25.8043 86.5371C25.6892 86.7672 25.6317 87.0457 25.6317 87.3726V87.4543C25.6317 87.8115 25.6953 88.1112 25.8224 88.3534C25.9496 88.5956 26.1312 88.7772 26.3673 88.8983C26.6095 89.0194 26.8971 89.0799 27.2301 89.0799C27.4844 89.0799 27.7356 89.0466 27.9838 88.98C28.2381 88.9074 28.4742 88.7833 28.6922 88.6077L28.9737 89.2252C28.7558 89.4129 28.4863 89.5552 28.1655 89.6521C27.8506 89.7429 27.5358 89.7883 27.221 89.7883ZM32.1084 89.7883C31.6483 89.7883 31.2487 89.6944 30.9097 89.5067C30.5706 89.313 30.3072 89.0406 30.1196 88.6894C29.9379 88.3383 29.8471 87.9266 29.8471 87.4543C29.8471 86.9821 29.9379 86.5734 30.1196 86.2283C30.3072 85.8832 30.5706 85.6168 30.9097 85.4291C31.2548 85.2415 31.6574 85.1476 32.1175 85.1476C32.4202 85.1476 32.7108 85.1991 32.9893 85.302C33.2678 85.3989 33.4979 85.5351 33.6795 85.7107L33.3798 86.3555C33.2103 86.198 33.0196 86.08 32.8077 86.0013C32.5958 85.9226 32.3899 85.8832 32.1902 85.8832C31.73 85.8832 31.3728 86.0194 31.1185 86.2919C30.8642 86.5643 30.7371 86.9548 30.7371 87.4634C30.7371 87.9659 30.8642 88.3564 31.1185 88.6349C31.3728 88.9134 31.727 89.0527 32.1811 89.0527C32.3869 89.0527 32.5928 89.0133 32.7986 88.9346C33.0105 88.8559 33.2012 88.7409 33.3708 88.5895L33.6614 89.2343C33.4858 89.4038 33.2587 89.54 32.9802 89.643C32.7017 89.7398 32.4111 89.7883 32.1084 89.7883ZM36.5246 89.7883C36.0221 89.7883 35.5892 89.6975 35.2259 89.5158C34.8627 89.3281 34.5842 89.0618 34.3904 88.7167C34.1967 88.3655 34.0998 87.9508 34.0998 87.4725C34.0998 87.0184 34.1906 86.6188 34.3723 86.2737C34.5539 85.9226 34.8112 85.6471 35.1442 85.4473C35.4833 85.2475 35.8768 85.1476 36.3248 85.1476C36.7547 85.1476 37.121 85.2415 37.4237 85.4291C37.7324 85.6108 37.9655 85.8711 38.123 86.2101C38.2864 86.5431 38.3682 86.9427 38.3682 87.4089V87.6995H34.7719V87.1183H37.7779L37.6235 87.2727C37.6235 86.8004 37.5115 86.4372 37.2875 86.1829C37.0695 85.9286 36.7516 85.8015 36.3339 85.8015C36.0554 85.8015 35.8102 85.8651 35.5983 85.9922C35.3864 86.1193 35.2229 86.301 35.1079 86.5371C34.9928 86.7672 34.9353 87.0457 34.9353 87.3726V87.4543C34.9353 87.8115 34.9989 88.1112 35.126 88.3534C35.2532 88.5956 35.4348 88.7772 35.6709 88.8983C35.9131 89.0194 36.2007 89.0799 36.5337 89.0799C36.788 89.0799 37.0392 89.0466 37.2875 88.98C37.5417 88.9074 37.7779 88.7833 37.9958 88.6077L38.2773 89.2252C38.0594 89.4129 37.79 89.5552 37.4691 89.6521C37.1543 89.7429 36.8394 89.7883 36.5246 89.7883ZM39.4141 89.7065V85.2293H40.2405V86.192H40.2133C40.3586 85.859 40.5735 85.6017 40.8581 85.4201C41.1487 85.2384 41.4756 85.1476 41.8389 85.1476C42.2082 85.1476 42.5139 85.2142 42.7561 85.3474C43.0043 85.4745 43.189 85.6743 43.3101 85.9468C43.4312 86.2132 43.4917 86.5522 43.4917 86.9639V89.7065H42.6108V87.0093C42.6108 86.7672 42.5775 86.5643 42.5109 86.4009C42.4443 86.2313 42.3383 86.1042 42.193 86.0194C42.0477 85.9286 41.857 85.8832 41.6209 85.8832C41.3606 85.8832 41.1305 85.9407 40.9307 86.0558C40.7309 86.1708 40.5735 86.3282 40.4585 86.528C40.3495 86.7217 40.295 86.9458 40.295 87.2V89.7065H39.4141ZM46.7182 89.7883C46.1673 89.7883 45.7525 89.646 45.474 89.3614C45.1955 89.0708 45.0563 88.6561 45.0563 88.1173V85.9377H44.1663V85.2293H45.0744V83.9034H45.9281V85.2293H47.472V85.9377H45.9372V88.0446C45.9372 88.3776 46.0098 88.6258 46.1552 88.7893C46.3065 88.9528 46.5366 89.0345 46.8453 89.0345C46.9664 89.0345 47.0815 89.0224 47.1904 88.9982C47.2994 88.974 47.4054 88.9437 47.5083 88.9074L47.6536 89.5885C47.5386 89.6551 47.3963 89.7035 47.2268 89.7338C47.0573 89.7701 46.8877 89.7883 46.7182 89.7883Z" fill="#88909F"/>
<rect x="18.1641" y="15.1357" width="236.12" height="57.5164" rx="12.8655" fill="#212121"/>
<g clip-path="url(#clip2_200_7526)">
<path d="M227.797 31.0283C226.964 31.0283 226.283 31.7094 226.283 32.5419C226.283 33.3744 226.964 34.0555 227.797 34.0555C228.629 34.0555 229.31 33.3744 229.31 32.5419C229.31 31.7094 228.629 31.0283 227.797 31.0283ZM236.878 31.0283C236.046 31.0283 235.365 31.7094 235.365 32.5419C235.365 33.3744 236.046 34.0555 236.878 34.0555C237.711 34.0555 238.392 33.3744 238.392 32.5419C238.392 31.7094 237.711 31.0283 236.878 31.0283ZM232.338 31.0283C231.505 31.0283 230.824 31.7094 230.824 32.5419C230.824 33.3744 231.505 34.0555 232.338 34.0555C233.17 34.0555 233.851 33.3744 233.851 32.5419C233.851 31.7094 233.17 31.0283 232.338 31.0283Z" fill="white"/>
</g>
<path d="M36.6973 36.0831C36.0918 36.0831 35.5681 35.9469 35.1262 35.6744C34.6842 35.3959 34.3421 35.0115 34.1 34.5211C33.8638 34.0246 33.7458 33.4495 33.7458 32.7956C33.7458 32.1478 33.8638 31.5756 34.1 31.0792C34.3421 30.5827 34.6842 30.1983 35.1262 29.9258C35.5681 29.6473 36.0918 29.5081 36.6973 29.5081C37.4299 29.5081 38.0262 29.6867 38.4863 30.0439C38.9465 30.4011 39.2401 30.9036 39.3673 31.5514H38.3774C38.2805 31.176 38.0928 30.8763 37.8143 30.6523C37.5358 30.4283 37.1635 30.3163 36.6973 30.3163C36.2795 30.3163 35.9193 30.4162 35.6166 30.616C35.3139 30.8158 35.0808 31.1004 34.9173 31.4697C34.7538 31.839 34.6721 32.281 34.6721 32.7956C34.6721 33.3102 34.7538 33.7552 34.9173 34.1306C35.0808 34.4999 35.3139 34.7844 35.6166 34.9842C35.9193 35.178 36.2795 35.2748 36.6973 35.2748C37.1635 35.2748 37.5358 35.1689 37.8143 34.957C38.0928 34.739 38.2805 34.4454 38.3774 34.0761H39.3673C39.2401 34.7057 38.9465 35.1992 38.4863 35.5564C38.0262 35.9075 37.4299 36.0831 36.6973 36.0831ZM40.2556 35.9741V31.1972H41.073L41.1456 32.06C41.2606 31.842 41.4059 31.6634 41.5815 31.5242C41.7571 31.3789 41.969 31.2699 42.2172 31.1972C42.4655 31.1246 42.7409 31.0883 43.0436 31.0883V32.0418H42.5169C42.3413 32.0418 42.1718 32.066 42.0083 32.1145C41.8509 32.1568 41.7087 32.2295 41.5815 32.3324C41.4544 32.4353 41.3515 32.5776 41.2727 32.7593C41.2001 32.9348 41.1638 33.1558 41.1638 33.4222V35.9741H40.2556ZM45.638 36.0831C45.2081 36.0831 44.8267 35.9802 44.4937 35.7743C44.1607 35.5685 43.9004 35.2809 43.7127 34.9116C43.525 34.5362 43.4312 34.1003 43.4312 33.6038C43.4312 33.1013 43.522 32.6624 43.7036 32.287C43.8913 31.9056 44.1516 31.612 44.4846 31.4061C44.8237 31.1942 45.2142 31.0883 45.6561 31.0883C46.1163 31.0883 46.5038 31.1912 46.8186 31.397C47.1395 31.6029 47.3816 31.8814 47.5451 32.2325C47.7086 32.5837 47.7903 32.9712 47.7903 33.395C47.7903 33.4555 47.7903 33.5191 47.7903 33.5857C47.7903 33.6462 47.7843 33.7189 47.7721 33.8036H44.0941V33.1588H46.8912C46.8791 32.735 46.755 32.4111 46.5189 32.1871C46.2828 31.9571 45.9922 31.842 45.6471 31.842C45.4049 31.842 45.1839 31.9026 44.9841 32.0236C44.7843 32.1387 44.6239 32.3112 44.5028 32.5413C44.3817 32.7714 44.3212 33.062 44.3212 33.4131V33.6674C44.3212 34.0307 44.3787 34.3364 44.4937 34.5846C44.6148 34.8268 44.7722 35.0115 44.966 35.1386C45.1657 35.2658 45.3898 35.3293 45.638 35.3293C45.9468 35.3293 46.1889 35.2718 46.3645 35.1568C46.5401 35.0417 46.6703 34.8783 46.755 34.6664H47.6632C47.5845 34.9328 47.4513 35.1749 47.2636 35.3929C47.082 35.6048 46.8549 35.7743 46.5825 35.9015C46.31 36.0226 45.9952 36.0831 45.638 36.0831ZM50.6251 36.0831C50.2074 36.0831 49.835 35.9771 49.5081 35.7652C49.1872 35.5473 48.9359 35.2506 48.7543 34.8753C48.5787 34.4999 48.4909 34.0731 48.4909 33.5948C48.4909 33.1044 48.5818 32.6715 48.7634 32.2961C48.945 31.9207 49.1993 31.6271 49.5262 31.4152C49.8532 31.1972 50.2346 31.0883 50.6705 31.0883C51.0217 31.0883 51.3274 31.1609 51.5877 31.3062C51.8481 31.4455 52.0539 31.6422 52.2053 31.8965V29.4354H53.1134V35.9741H52.2961L52.2144 35.2476C52.1236 35.399 52.0055 35.5382 51.8602 35.6653C51.7149 35.7864 51.5423 35.8863 51.3425 35.965C51.1427 36.0437 50.9036 36.0831 50.6251 36.0831ZM50.8067 35.293C51.0852 35.293 51.3304 35.2234 51.5423 35.0841C51.7542 34.9449 51.9147 34.7481 52.0237 34.4938C52.1387 34.2395 52.1962 33.9368 52.1962 33.5857C52.1962 33.2345 52.1387 32.9318 52.0237 32.6775C51.9147 32.4232 51.7542 32.2265 51.5423 32.0872C51.3304 31.948 51.0852 31.8783 50.8067 31.8783C50.5403 31.8783 50.3012 31.948 50.0893 32.0872C49.8774 32.2265 49.7109 32.4232 49.5898 32.6775C49.4748 32.9318 49.4173 33.2345 49.4173 33.5857C49.4173 33.9368 49.4748 34.2395 49.5898 34.4938C49.7109 34.7481 49.8774 34.9449 50.0893 35.0841C50.3012 35.2234 50.5403 35.293 50.8067 35.293ZM54.2657 35.9741V31.1972H55.1739V35.9741H54.2657ZM54.7198 30.3981C54.5442 30.3981 54.3989 30.3436 54.2839 30.2346C54.1749 30.1256 54.1204 29.9864 54.1204 29.8168C54.1204 29.6534 54.1749 29.5202 54.2839 29.4172C54.3989 29.3083 54.5442 29.2538 54.7198 29.2538C54.8893 29.2538 55.0316 29.3083 55.1466 29.4172C55.2617 29.5202 55.3192 29.6534 55.3192 29.8168C55.3192 29.9864 55.2617 30.1256 55.1466 30.2346C55.0316 30.3436 54.8893 30.3981 54.7198 30.3981ZM58.261 35.9741C57.9704 35.9741 57.7191 35.9287 57.5072 35.8379C57.2953 35.7471 57.1318 35.5957 57.0168 35.3838C56.9018 35.1719 56.8443 34.8843 56.8443 34.5211V31.9601H56.0178V31.1972H56.8443L56.9623 29.9712H57.7524V31.1972H59.0692V31.9601H57.7524V34.5302C57.7524 34.7905 57.8069 34.9691 57.9159 35.066C58.0249 35.1568 58.2125 35.2022 58.4789 35.2022H59.0602V35.9741H58.261ZM62.1814 35.9741V29.617H64.5335C64.9815 29.617 65.3508 29.6897 65.6414 29.835C65.9381 29.9742 66.1621 30.168 66.3135 30.4162C66.4648 30.6584 66.5405 30.9339 66.5405 31.2426C66.5405 31.5635 66.4679 31.8329 66.3225 32.0509C66.1833 32.2689 65.9986 32.4384 65.7686 32.5595C65.5446 32.6745 65.3024 32.7411 65.0421 32.7593L65.1783 32.6684C65.4507 32.6745 65.702 32.7502 65.932 32.8955C66.1621 33.0347 66.3437 33.2224 66.4769 33.4585C66.6162 33.6947 66.6858 33.955 66.6858 34.2395C66.6858 34.5665 66.6041 34.8631 66.4406 35.1295C66.2832 35.3899 66.0501 35.5957 65.7413 35.7471C65.4326 35.8984 65.0542 35.9741 64.6061 35.9741H62.1814ZM63.0895 35.2204H64.4972C64.8907 35.2204 65.1995 35.1295 65.4235 34.9479C65.6475 34.7602 65.7595 34.4969 65.7595 34.1578C65.7595 33.8248 65.6445 33.5584 65.4144 33.3586C65.1843 33.1588 64.8725 33.0589 64.479 33.0589H63.0895V35.2204ZM63.0895 32.3597H64.4336C64.815 32.3597 65.1056 32.2719 65.3054 32.0963C65.5052 31.9147 65.6051 31.6664 65.6051 31.3516C65.6051 31.0489 65.5052 30.8098 65.3054 30.6342C65.1056 30.4525 64.8059 30.3617 64.4063 30.3617H63.0895V32.3597ZM69.0667 36.0831C68.6973 36.0831 68.3916 36.0165 68.1494 35.8833C67.9073 35.7501 67.7256 35.5715 67.6045 35.3475C67.4834 35.1174 67.4229 34.8722 67.4229 34.6119C67.4229 34.3092 67.4986 34.0488 67.6499 33.8309C67.8074 33.6069 68.0314 33.4373 68.322 33.3223C68.6126 33.2012 68.9577 33.1407 69.3573 33.1407H70.5197C70.5197 32.8501 70.4864 32.6109 70.4198 32.4232C70.3593 32.2295 70.2533 32.0872 70.102 31.9964C69.9506 31.8995 69.7448 31.8511 69.4844 31.8511C69.2301 31.8511 69.0152 31.9116 68.8396 32.0327C68.664 32.1538 68.552 32.3324 68.5036 32.5685H67.5955C67.6318 32.2537 67.7347 31.9873 67.9042 31.7694C68.0798 31.5514 68.3068 31.3849 68.5853 31.2699C68.8638 31.1488 69.1635 31.0883 69.4844 31.0883C69.9203 31.0883 70.2806 31.1639 70.5651 31.3153C70.8557 31.4666 71.0707 31.6816 71.2099 31.9601C71.3552 32.2325 71.4279 32.5595 71.4279 32.9409V35.9741H70.6378L70.5651 35.1931C70.5046 35.3202 70.4259 35.4383 70.329 35.5473C70.2382 35.6502 70.1292 35.7441 70.0021 35.8288C69.881 35.9075 69.7417 35.9681 69.5843 36.0104C69.4269 36.0589 69.2543 36.0831 69.0667 36.0831ZM69.2301 35.3475C69.4118 35.3475 69.5783 35.3081 69.7296 35.2294C69.887 35.1447 70.0233 35.0327 70.1383 34.8934C70.2533 34.7542 70.3411 34.5968 70.4017 34.4212C70.4682 34.2395 70.5046 34.0519 70.5106 33.8581V33.7855H69.4481C69.1938 33.7855 68.988 33.8188 68.8305 33.8854C68.6731 33.952 68.5581 34.0428 68.4854 34.1578C68.4128 34.2728 68.3765 34.406 68.3765 34.5574C68.3765 34.7148 68.4098 34.8541 68.4764 34.9752C68.543 35.0902 68.6398 35.181 68.767 35.2476C68.9002 35.3142 69.0546 35.3475 69.2301 35.3475ZM72.5125 35.9741V29.4354H73.4206V35.9741H72.5125ZM76.0289 36.0831C75.6596 36.0831 75.3539 36.0165 75.1117 35.8833C74.8695 35.7501 74.6879 35.5715 74.5668 35.3475C74.4457 35.1174 74.3852 34.8722 74.3852 34.6119C74.3852 34.3092 74.4609 34.0488 74.6122 33.8309C74.7696 33.6069 74.9936 33.4373 75.2843 33.3223C75.5749 33.2012 75.92 33.1407 76.3196 33.1407H77.482C77.482 32.8501 77.4487 32.6109 77.3821 32.4232C77.3216 32.2295 77.2156 32.0872 77.0642 31.9964C76.9129 31.8995 76.707 31.8511 76.4467 31.8511C76.1924 31.8511 75.9775 31.9116 75.8019 32.0327C75.6263 32.1538 75.5143 32.3324 75.4659 32.5685H74.5577C74.5941 32.2537 74.697 31.9873 74.8665 31.7694C75.0421 31.5514 75.2691 31.3849 75.5476 31.2699C75.8261 31.1488 76.1258 31.0883 76.4467 31.0883C76.8826 31.0883 77.2428 31.1639 77.5274 31.3153C77.818 31.4666 78.0329 31.6816 78.1722 31.9601C78.3175 32.2325 78.3901 32.5595 78.3901 32.9409V35.9741H77.6001L77.5274 35.1931C77.4669 35.3202 77.3881 35.4383 77.2913 35.5473C77.2005 35.6502 77.0915 35.7441 76.9643 35.8288C76.8433 35.9075 76.704 35.9681 76.5466 36.0104C76.3892 36.0589 76.2166 36.0831 76.0289 36.0831ZM76.1924 35.3475C76.374 35.3475 76.5405 35.3081 76.6919 35.2294C76.8493 35.1447 76.9855 35.0327 77.1006 34.8934C77.2156 34.7542 77.3034 34.5968 77.3639 34.4212C77.4305 34.2395 77.4669 34.0519 77.4729 33.8581V33.7855H76.4104C76.1561 33.7855 75.9502 33.8188 75.7928 33.8854C75.6354 33.952 75.5204 34.0428 75.4477 34.1578C75.3751 34.2728 75.3387 34.406 75.3387 34.5574C75.3387 34.7148 75.372 34.8541 75.4386 34.9752C75.5052 35.0902 75.6021 35.181 75.7293 35.2476C75.8624 35.3142 76.0168 35.3475 76.1924 35.3475ZM79.4748 35.9741V31.1972H80.2921L80.3466 31.9419C80.4798 31.6755 80.6765 31.4666 80.9369 31.3153C81.1972 31.1639 81.503 31.0883 81.8541 31.0883C82.2113 31.0883 82.5201 31.1579 82.7804 31.2971C83.0408 31.4364 83.2406 31.6453 83.3798 31.9238C83.5251 32.1962 83.5978 32.5383 83.5978 32.95V35.9741H82.6896V33.0499C82.6896 32.6563 82.5927 32.3597 82.399 32.1599C82.2053 31.9601 81.9419 31.8602 81.6089 31.8602C81.3849 31.8602 81.1791 31.9116 80.9914 32.0146C80.8097 32.1175 80.6614 32.2689 80.5464 32.4686C80.4374 32.6684 80.3829 32.9136 80.3829 33.2043V35.9741H79.4748ZM86.7833 36.0831C86.3414 36.0831 85.9478 35.9802 85.6027 35.7743C85.2576 35.5624 84.9882 35.2688 84.7945 34.8934C84.6007 34.518 84.5039 34.0882 84.5039 33.6038C84.5039 33.1013 84.6007 32.6624 84.7945 32.287C84.9882 31.9116 85.2576 31.618 85.6027 31.4061C85.9478 31.1942 86.3414 31.0883 86.7833 31.0883C87.3464 31.0883 87.8156 31.2396 88.191 31.5423C88.5663 31.839 88.8085 32.2416 88.9175 32.7502H87.973C87.9064 32.4717 87.7641 32.2567 87.5462 32.1054C87.3282 31.948 87.0709 31.8693 86.7743 31.8693C86.5139 31.8693 86.2808 31.9359 86.075 32.0691C85.8752 32.2023 85.7178 32.396 85.6027 32.6503C85.4877 32.9046 85.4302 33.2164 85.4302 33.5857C85.4302 33.8642 85.4605 34.1124 85.521 34.3304C85.5876 34.5483 85.6814 34.7299 85.8025 34.8753C85.9236 35.0206 86.0659 35.1295 86.2294 35.2022C86.3928 35.2748 86.5745 35.3112 86.7743 35.3112C86.974 35.3112 87.1557 35.2779 87.3191 35.2113C87.4826 35.1386 87.6219 35.0357 87.7369 34.9025C87.8519 34.7693 87.9306 34.6089 87.973 34.4212H88.9175C88.8146 34.9176 88.5724 35.3202 88.191 35.629C87.8096 35.9317 87.3403 36.0831 86.7833 36.0831ZM91.868 36.0831C91.4381 36.0831 91.0567 35.9802 90.7237 35.7743C90.3907 35.5685 90.1304 35.2809 89.9427 34.9116C89.755 34.5362 89.6612 34.1003 89.6612 33.6038C89.6612 33.1013 89.752 32.6624 89.9336 32.287C90.1213 31.9056 90.3817 31.612 90.7147 31.4061C91.0537 31.1942 91.4442 31.0883 91.8862 31.0883C92.3463 31.0883 92.7338 31.1912 93.0486 31.397C93.3695 31.6029 93.6117 31.8814 93.7751 32.2325C93.9386 32.5837 94.0203 32.9712 94.0203 33.395C94.0203 33.4555 94.0203 33.5191 94.0203 33.5857C94.0203 33.6462 94.0143 33.7189 94.0022 33.8036H90.3241V33.1588H93.1213C93.1092 32.735 92.985 32.4111 92.7489 32.1871C92.5128 31.9571 92.2222 31.842 91.8771 31.842C91.6349 31.842 91.4139 31.9026 91.2141 32.0236C91.0143 32.1387 90.8539 32.3112 90.7328 32.5413C90.6117 32.7714 90.5512 33.062 90.5512 33.4131V33.6674C90.5512 34.0307 90.6087 34.3364 90.7237 34.5846C90.8448 34.8268 91.0022 35.0115 91.196 35.1386C91.3958 35.2658 91.6198 35.3293 91.868 35.3293C92.1768 35.3293 92.419 35.2718 92.5945 35.1568C92.7701 35.0417 92.9003 34.8783 92.985 34.6664H93.8932C93.8145 34.9328 93.6813 35.1749 93.4936 35.3929C93.312 35.6048 93.0849 35.7743 92.8125 35.9015C92.54 36.0226 92.2252 36.0831 91.868 36.0831Z" fill="#C9CDD3"/>
<path d="M36.5994 59.2109V45.9064H37.5984V59.2109H36.5994ZM37.2351 58.0757C36.4682 58.0757 35.7821 57.9445 35.1766 57.6821C34.5813 57.4198 34.107 57.0363 33.7538 56.5318C33.4108 56.0273 33.2291 55.4168 33.2089 54.7004H35.3734C35.3936 55.0132 35.4743 55.2957 35.6156 55.548C35.7669 55.8002 35.9788 56.0021 36.2513 56.1534C36.5237 56.2947 36.8466 56.3653 37.22 56.3653C37.5429 56.3653 37.8204 56.3149 38.0524 56.214C38.2946 56.103 38.4813 55.9516 38.6125 55.7599C38.7436 55.5682 38.8092 55.3411 38.8092 55.0788C38.8092 54.776 38.7336 54.5238 38.5822 54.322C38.4409 54.1202 38.2391 53.9486 37.9768 53.8073C37.7144 53.6661 37.4167 53.5399 37.0837 53.429C36.7508 53.3079 36.3976 53.1817 36.0242 53.0506C35.1867 52.7781 34.546 52.4148 34.102 51.9608C33.6681 51.5067 33.4511 50.9063 33.4511 50.1596C33.4511 49.5239 33.6025 48.979 33.9052 48.5249C34.218 48.0708 34.6469 47.7227 35.1918 47.4805C35.7366 47.2384 36.3572 47.1173 37.0535 47.1173C37.7699 47.1173 38.3955 47.2434 38.9303 47.4957C39.4752 47.7378 39.9041 48.091 40.2169 48.5552C40.5398 49.0194 40.7063 49.5642 40.7164 50.1899H38.5217C38.5217 49.9578 38.4561 49.7408 38.3249 49.539C38.2038 49.3271 38.0323 49.1606 37.8103 49.0395C37.5883 48.9084 37.3259 48.8428 37.0232 48.8428C36.7608 48.8327 36.5187 48.873 36.2967 48.9639C36.0848 49.0547 35.9132 49.1909 35.7821 49.3725C35.661 49.5441 35.6004 49.761 35.6004 50.0234C35.6004 50.2756 35.661 50.4875 35.7821 50.6591C35.9132 50.8306 36.0898 50.982 36.3118 51.1132C36.5338 51.2342 36.7911 51.3503 37.0837 51.4613C37.3865 51.5622 37.7144 51.6681 38.0676 51.7791C38.6024 51.9608 39.0867 52.1777 39.5206 52.43C39.9646 52.6722 40.3178 52.99 40.5801 53.3835C40.8425 53.7771 40.9737 54.2967 40.9737 54.9425C40.9737 55.4975 40.8274 56.0121 40.5347 56.4864C40.2522 56.9607 39.8334 57.3441 39.2784 57.6367C38.7235 57.9294 38.0423 58.0757 37.2351 58.0757ZM42.117 57.894V56.3956C42.7628 55.881 43.3884 55.3663 43.9939 54.8517C44.6094 54.3371 45.1593 53.8275 45.6437 53.323C46.128 52.8084 46.5115 52.3089 46.794 51.8245C47.0766 51.3402 47.2178 50.871 47.2178 50.4169C47.2178 50.1344 47.1623 49.8771 47.0513 49.645C46.9504 49.4028 46.794 49.2111 46.5821 49.0698C46.3702 48.9185 46.0826 48.8428 45.7194 48.8428C45.3763 48.8428 45.0837 48.9235 44.8415 49.0849C44.5993 49.2464 44.4126 49.4633 44.2815 49.7358C44.1604 49.9981 44.0998 50.2958 44.0998 50.6288H42.1322C42.1523 49.8518 42.3239 49.201 42.6468 48.6763C42.9798 48.1516 43.4187 47.7631 43.9636 47.5108C44.5085 47.2485 45.1139 47.1173 45.7799 47.1173C46.5266 47.1173 47.1573 47.2585 47.6719 47.5411C48.1966 47.8135 48.5901 48.1869 48.8525 48.6611C49.1249 49.1354 49.2612 49.6803 49.2612 50.2958C49.2612 50.76 49.1754 51.2141 49.0039 51.658C48.8323 52.102 48.6002 52.5359 48.3076 52.9597C48.015 53.3735 47.682 53.772 47.3086 54.1555C46.9353 54.5389 46.5468 54.9072 46.1432 55.2604C45.7395 55.6035 45.346 55.9264 44.9626 56.2291H49.5033V57.894H42.117ZM54.6215 58.0757C53.8546 58.0757 53.1887 57.9395 52.6236 57.667C52.0686 57.3946 51.6347 57.0212 51.3219 56.5469C51.0091 56.0727 50.8275 55.5328 50.777 54.9274H52.7598C52.8405 55.3209 53.0474 55.6539 53.3804 55.9264C53.7134 56.1988 54.1321 56.335 54.6367 56.335C54.9999 56.335 55.3178 56.2442 55.5902 56.0626C55.8627 55.881 56.0746 55.6337 56.2259 55.3209C56.3773 55.0081 56.453 54.66 56.453 54.2766C56.453 53.8628 56.3722 53.5097 56.2108 53.217C56.0594 52.9244 55.8475 52.7024 55.5751 52.5511C55.3127 52.3896 55.005 52.3089 54.6518 52.3089C54.228 52.3089 53.8597 52.4148 53.5469 52.6267C53.2442 52.8286 53.0222 53.0758 52.8809 53.3684H50.9132L51.7911 47.2989H57.7395V49.0849H53.3198L52.8658 51.431C53.0878 51.1989 53.3854 51.0123 53.7588 50.871C54.1321 50.7196 54.5509 50.6439 55.0151 50.6439C55.5902 50.6439 56.0897 50.7448 56.5135 50.9467C56.9373 51.1384 57.2905 51.4058 57.573 51.7489C57.8556 52.0819 58.0675 52.4653 58.2087 52.8992C58.35 53.3331 58.4206 53.7821 58.4206 54.2463C58.4206 54.8114 58.3248 55.326 58.1331 55.7902C57.9514 56.2543 57.6941 56.6579 57.3611 57.001C57.0281 57.3441 56.6296 57.6115 56.1654 57.8032C55.7012 57.9849 55.1866 58.0757 54.6215 58.0757ZM59.239 59.7558L60.1018 55.9112H62.0543L60.571 59.7558H59.239ZM63.0702 57.894V56.3956C63.716 55.881 64.3416 55.3663 64.9471 54.8517C65.5626 54.3371 66.1125 53.8275 66.5969 53.323C67.0812 52.8084 67.4647 52.3089 67.7472 51.8245C68.0297 51.3402 68.171 50.871 68.171 50.4169C68.171 50.1344 68.1155 49.8771 68.0045 49.645C67.9036 49.4028 67.7472 49.2111 67.5353 49.0698C67.3234 48.9185 67.0358 48.8428 66.6725 48.8428C66.3295 48.8428 66.0368 48.9235 65.7947 49.0849C65.5525 49.2464 65.3658 49.4633 65.2346 49.7358C65.1135 49.9981 65.053 50.2958 65.053 50.6288H63.0853C63.1055 49.8518 63.2771 49.201 63.6 48.6763C63.9329 48.1516 64.3719 47.7631 64.9168 47.5108C65.4617 47.2485 66.0671 47.1173 66.7331 47.1173C67.4798 47.1173 68.1105 47.2585 68.6251 47.5411C69.1498 47.8135 69.5433 48.1869 69.8057 48.6611C70.0781 49.1354 70.2143 49.6803 70.2143 50.2958C70.2143 50.76 70.1286 51.2141 69.957 51.658C69.7855 52.102 69.5534 52.5359 69.2608 52.9597C68.9682 53.3735 68.6352 53.772 68.2618 54.1555C67.8885 54.5389 67.5 54.9072 67.0964 55.2604C66.6927 55.6035 66.2992 55.9264 65.9157 56.2291H70.4565V57.894H63.0702ZM73.0773 57.894V49.645L71.2156 50.1293V48.5098L73.94 47.2989H75.1963V57.894H73.0773ZM80.7558 58.0757C79.9889 58.0757 79.3229 57.9395 78.7579 57.667C78.2029 57.3946 77.769 57.0212 77.4562 56.5469C77.1434 56.0727 76.9617 55.5328 76.9113 54.9274H78.8941C78.9748 55.3209 79.1817 55.6539 79.5147 55.9264C79.8476 56.1988 80.2664 56.335 80.7709 56.335C81.1342 56.335 81.452 56.2442 81.7245 56.0626C81.9969 55.881 82.2088 55.6337 82.3602 55.3209C82.5116 55.0081 82.5872 54.66 82.5872 54.2766C82.5872 53.8628 82.5065 53.5097 82.3451 53.217C82.1937 52.9244 81.9818 52.7024 81.7094 52.5511C81.447 52.3896 81.1392 52.3089 80.7861 52.3089C80.3623 52.3089 79.994 52.4148 79.6811 52.6267C79.3784 52.8286 79.1564 53.0758 79.0152 53.3684H77.0475L77.9254 47.2989H83.8738V49.0849H79.4541L79 51.431C79.222 51.1989 79.5197 51.0123 79.893 50.871C80.2664 50.7196 80.6852 50.6439 81.1493 50.6439C81.7245 50.6439 82.224 50.7448 82.6478 50.9467C83.0716 51.1384 83.4248 51.4058 83.7073 51.7489C83.9898 52.0819 84.2017 52.4653 84.343 52.8992C84.4843 53.3331 84.5549 53.7821 84.5549 54.2463C84.5549 54.8114 84.459 55.326 84.2673 55.7902C84.0857 56.2543 83.8284 56.6579 83.4954 57.001C83.1624 57.3441 82.7638 57.6115 82.2997 57.8032C81.8355 57.9849 81.3209 58.0757 80.7558 58.0757Z" fill="white"/>
<path d="M193.74 56.9108C194.272 59.6353 196.389 64.7058 201.308 64.3274C206.227 63.949 206.817 51.4619 215.428 51.4619C224.039 51.4619 224.039 65.8626 238.391 53.408" stroke="white" strokeWidth="1.51359" strokeLinecap="round" strokeLinejoin="round"/>
<defs>
<clipPath id="clip0_200_7526">
<rect width="18.1631" height="18.1631" fill="white" transform="translate(24.9727 106.708)"/>
</clipPath>
<clipPath id="clip1_200_7526">
<rect width="18.1631" height="18.1631" fill="white" transform="translate(24.9727 144.548)"/>
</clipPath>
<clipPath id="clip2_200_7526">
<rect width="18.1631" height="18.1631" fill="white" transform="translate(223.256 23.4604)"/>
</clipPath>
</defs>
</svg>
