
<svg xmlns="http://www.w3.org/2000/svg" width="50" height="50" fill="none"><rect width="50" height="50" fill="#1B1B1B" rx="12"/><path fill="#fff" d="M23.176 6.57a2.39 2.39 0 0 1 2.39 0l14.168 8.18a2.39 2.39 0 0 1 1.195 2.07v9.131l-15.006-8.647a1.494 1.494 0 0 0-1.492 2.588L40.93 29.4v3.781a2.39 2.39 0 0 1-1.195 2.07l-14.168 8.18a2.39 2.39 0 0 1-2.39 0L9.007 35.25a2.39 2.39 0 0 1-1.194-2.07v-9.104l14.906 8.619a1.494 1.494 0 1 0 1.495-2.586L7.813 20.626V16.82a2.39 2.39 0 0 1 1.194-2.07l14.169-8.18Z"/></svg>
