
<svg display="block" role="presentation" viewBox="0 0 24 24" xmlns="http://www.w3.org/2000/svg"><defs ><linearGradient id="DIOfYwH8I-3267041450-linear-gradient" x1="0.49751243781094523" x2="0.5024875621890548" y1="0" y2="1"><stop offset="0" stop-color="rgb(255, 255, 255)"/><stop offset="1" stop-color="rgba(255, 255, 255, 0.3)"/></linearGradient></defs><path d="M 0 22.286 L 0 0 L 23.005 0 L 23.005 22.286 Z" fill="transparent" height="22.285714285714285px" id="yUaa_s1Nu" transform="translate(0.355 0.856)" width="23.004571428571317px"/><path d="M 19.626 12.263 C 19.626 12.462 19.546 12.653 19.405 12.793 C 19.264 12.933 19.072 13.012 18.872 13.012 C 18.672 13.012 18.48 12.933 18.339 12.793 C 18.197 12.653 18.118 12.462 18.118 12.263 L 18.118 5.571 C 18.118 5.373 18.197 5.182 18.339 5.042 C 18.48 4.901 18.672 4.822 18.872 4.822 C 19.072 4.822 19.264 4.901 19.405 5.042 C 19.546 5.182 19.626 5.373 19.626 5.571 Z M 19.364 16.9 C 19.264 16.999 16.461 19.32 11.321 19.32 C 6.181 19.32 3.396 17.011 3.277 16.912 C 3.203 16.85 3.141 16.773 3.096 16.687 C 3.052 16.601 3.024 16.507 3.016 16.41 C 3.008 16.314 3.019 16.216 3.049 16.124 C 3.079 16.032 3.127 15.946 3.19 15.872 C 3.32 15.723 3.504 15.63 3.703 15.615 C 3.901 15.6 4.098 15.664 4.249 15.792 C 4.293 15.823 6.797 17.841 11.314 17.841 C 15.831 17.841 18.355 15.81 18.38 15.792 C 18.533 15.665 18.73 15.602 18.929 15.617 C 19.128 15.632 19.313 15.724 19.445 15.872 C 19.572 16.02 19.636 16.211 19.622 16.405 C 19.608 16.598 19.517 16.778 19.37 16.906 Z M 3.009 5.571 C 3.021 5.372 3.111 5.185 3.26 5.052 C 3.41 4.919 3.606 4.849 3.807 4.86 C 3.993 4.87 4.168 4.949 4.299 5.08 C 4.431 5.212 4.508 5.387 4.517 5.571 L 4.517 12.251 C 4.517 12.45 4.438 12.64 4.296 12.781 C 4.155 12.921 3.963 13 3.763 13 C 3.563 13 3.371 12.921 3.23 12.781 C 3.089 12.64 3.009 12.45 3.009 12.251 Z M 6.791 4.086 C 6.802 3.886 6.893 3.7 7.042 3.566 C 7.191 3.433 7.388 3.364 7.589 3.374 C 7.775 3.384 7.95 3.463 8.081 3.594 C 8.212 3.726 8.29 3.901 8.299 4.086 L 8.299 13.99 C 8.299 14.189 8.219 14.38 8.078 14.52 C 7.937 14.661 7.745 14.739 7.545 14.739 C 7.345 14.739 7.153 14.661 7.012 14.52 C 6.871 14.38 6.791 14.189 6.791 13.99 Z M 10.592 3.714 C 10.592 3.516 10.671 3.325 10.813 3.185 C 10.954 3.044 11.146 2.965 11.346 2.965 C 11.546 2.965 11.737 3.044 11.879 3.185 C 12.02 3.325 12.099 3.516 12.099 3.714 L 12.099 14.486 C 12.099 14.684 12.02 14.875 11.879 15.015 C 11.737 15.156 11.546 15.235 11.346 15.235 C 11.146 15.235 10.954 15.156 10.813 15.015 C 10.671 14.875 10.592 14.684 10.592 14.486 Z M 14.33 4.086 C 14.33 3.887 14.409 3.697 14.551 3.556 C 14.692 3.416 14.884 3.337 15.084 3.337 C 15.284 3.337 15.475 3.416 15.617 3.556 C 15.758 3.697 15.838 3.887 15.838 4.086 L 15.838 13.99 C 15.838 14.189 15.758 14.38 15.617 14.52 C 15.475 14.661 15.284 14.739 15.084 14.739 C 14.884 14.739 14.692 14.661 14.551 14.52 C 14.409 14.38 14.33 14.189 14.33 13.99 Z M 19.831 0 L 2.835 0 C 2.464 -0.002 2.097 0.068 1.754 0.207 C 1.411 0.345 1.099 0.55 0.836 0.809 C 0.573 1.067 0.363 1.375 0.22 1.714 C 0.076 2.054 0.002 2.418 0 2.786 L 0 19.5 C 0.002 19.868 0.076 20.232 0.22 20.571 C 0.363 20.91 0.573 21.218 0.836 21.477 C 1.099 21.736 1.411 21.94 1.754 22.079 C 2.097 22.218 2.464 22.288 2.835 22.286 L 19.831 22.286 C 20.201 22.288 20.568 22.218 20.91 22.08 C 21.253 21.941 21.565 21.737 21.828 21.479 C 22.091 21.221 22.301 20.914 22.445 20.575 C 22.588 20.237 22.664 19.874 22.666 19.506 L 22.666 2.786 C 22.665 2.418 22.59 2.055 22.447 1.716 C 22.304 1.377 22.095 1.07 21.832 0.811 C 21.57 0.552 21.259 0.347 20.916 0.208 C 20.574 0.069 20.207 -0.002 19.838 0" fill="url(#DIOfYwH8I-3267041450-linear-gradient)" height="22.285665548848645px" id="DIOfYwH8I" transform="translate(0.444 0.856)" width="22.66620342803929px"/></svg>
