
<svg display="block" role="presentation" viewBox="0 0 24 24" xmlns="http://www.w3.org/2000/svg"><defs ><linearGradient id="ekGVsbZSC-916311181-linear-gradient" x1="0.49751243781094523" x2="0.5024875621890548" y1="0" y2="1"><stop offset="0" stop-color="rgb(255, 255, 255)"/><stop offset="1" stop-color="rgba(255, 255, 255, 0.3)"/></linearGradient></defs><path d="M 5.86 5.86 C 5.86 2.617 8.477 0 11.72 0 C 14.962 0 17.579 2.617 17.579 5.86 Z M 5.86 17.579 C 5.86 14.337 8.477 11.72 11.72 11.72 C 8.477 11.72 5.86 9.102 5.86 5.86 C 2.617 5.86 0 8.477 0 11.72 C 0 14.962 2.617 17.579 5.86 17.579 Z M 5.86 17.579 C 5.86 20.822 8.477 23.439 11.72 23.439 C 14.962 23.439 17.579 20.822 17.579 17.579 Z M 11.68 11.72 C 14.923 11.72 17.54 14.337 17.54 17.579 C 20.783 17.579 23.4 14.962 23.4 11.72 C 23.4 8.477 20.783 5.86 17.54 5.86 C 17.54 9.102 14.923 11.72 11.68 11.72 Z" fill="url(#ekGVsbZSC-916311181-linear-gradient)" height="23.439073332519527px" id="ekGVsbZSC" transform="translate(0.005 0.273)" width="23.39999255926523px"/></svg>
