<svg xmlns="http://www.w3.org/2000/svg" width="600" height="600" viewBox="0 0 600 600"><rect width="600" height="600" fill="#F8F4E8"/><g opacity="0.5"><circle cx="11" cy="11" r="1.4" fill="#09090B"/><circle cx="33" cy="11" r="2.2" fill="#09090B"/><circle cx="55" cy="11" r="2.2" fill="#09090B"/><circle cx="77" cy="11" r="2.0" fill="#09090B"/><circle cx="99" cy="11" r="2.4" fill="#09090B"/><circle cx="121" cy="11" r="2.3" fill="#09090B"/><circle cx="143" cy="11" r="1.3" fill="#09090B"/><circle cx="165" cy="11" r="1.0" fill="#09090B"/><circle cx="187" cy="11" r="2.3" fill="#09090B"/><circle cx="209" cy="11" r="2.0" fill="#09090B"/><circle cx="231" cy="11" r="0.8" fill="#09090B"/><circle cx="253" cy="11" r="1.8" fill="#09090B"/><circle cx="275" cy="11" r="1.4" fill="#09090B"/><circle cx="297" cy="11" r="1.3" fill="#09090B"/><circle cx="319" cy="11" r="1.3" fill="#09090B"/><circle cx="341" cy="11" r="1.0" fill="#09090B"/><circle cx="363" cy="11" r="0.7" fill="#09090B"/><circle cx="385" cy="11" r="1.2" fill="#09090B"/><circle cx="407" cy="11" r="1.3" fill="#09090B"/><circle cx="429" cy="11" r="2.3" fill="#09090B"/><circle cx="451" cy="11" r="0.9" fill="#09090B"/><circle cx="473" cy="11" r="2.3" fill="#09090B"/><circle cx="495" cy="11" r="1.1" fill="#09090B"/><circle cx="517" cy="11" r="1.3" fill="#09090B"/><circle cx="539" cy="11" r="2.1" fill="#09090B"/><circle cx="561" cy="11" r="2.1" fill="#09090B"/><circle cx="583" cy="11" r="1.4" fill="#09090B"/><circle cx="11" cy="33" r="0.8" fill="#09090B"/><circle cx="33" cy="33" r="1.5" fill="#09090B"/><circle cx="55" cy="33" r="1.3" fill="#09090B"/><circle cx="77" cy="33" r="2.3" fill="#09090B"/><circle cx="99" cy="33" r="1.0" fill="#09090B"/><circle cx="121" cy="33" r="1.3" fill="#09090B"/><circle cx="143" cy="33" r="2.2" fill="#09090B"/><circle cx="165" cy="33" r="0.8" fill="#09090B"/><circle cx="187" cy="33" r="1.4" fill="#09090B"/><circle cx="209" cy="33" r="2.1" fill="#09090B"/><circle cx="231" cy="33" r="2.0" fill="#09090B"/><circle cx="253" cy="33" r="0.8" fill="#09090B"/><circle cx="275" cy="33" r="0.8" fill="#09090B"/><circle cx="297" cy="33" r="0.8" fill="#09090B"/><circle cx="319" cy="33" r="2.3" fill="#09090B"/><circle cx="341" cy="33" r="1.2" fill="#09090B"/><circle cx="363" cy="33" r="2.0" fill="#09090B"/><circle cx="385" cy="33" r="2.2" fill="#09090B"/><circle cx="407" cy="33" r="1.3" fill="#09090B"/><circle cx="429" cy="33" r="1.2" fill="#09090B"/><circle cx="451" cy="33" r="2.3" fill="#09090B"/><circle cx="473" cy="33" r="1.8" fill="#09090B"/><circle cx="495" cy="33" r="1.2" fill="#09090B"/><circle cx="517" cy="33" r="1.9" fill="#09090B"/><circle cx="539" cy="33" r="1.3" fill="#09090B"/><circle cx="561" cy="33" r="1.2" fill="#09090B"/><circle cx="583" cy="33" r="0.7" fill="#09090B"/><circle cx="11" cy="55" r="2.0" fill="#09090B"/><circle cx="33" cy="55" r="2.3" fill="#09090B"/><circle cx="55" cy="55" r="1.8" fill="#09090B"/><circle cx="77" cy="55" r="2.3" fill="#09090B"/><circle cx="99" cy="55" r="0.8" fill="#09090B"/><circle cx="121" cy="55" r="1.1" fill="#09090B"/><circle cx="143" cy="55" r="1.5" fill="#09090B"/><circle cx="165" cy="55" r="2.3" fill="#09090B"/><circle cx="187" cy="55" r="2.3" fill="#09090B"/><circle cx="209" cy="55" r="1.4" fill="#09090B"/><circle cx="231" cy="55" r="1.1" fill="#09090B"/><circle cx="253" cy="55" r="1.4" fill="#09090B"/><circle cx="275" cy="55" r="1.5" fill="#09090B"/><circle cx="297" cy="55" r="2.3" fill="#09090B"/><circle cx="319" cy="55" r="1.0" fill="#09090B"/><circle cx="341" cy="55" r="2.1" fill="#09090B"/><circle cx="363" cy="55" r="2.0" fill="#09090B"/><circle cx="385" cy="55" r="2.1" fill="#09090B"/><circle cx="407" cy="55" r="2.0" fill="#09090B"/><circle cx="429" cy="55" r="1.7" fill="#09090B"/><circle cx="451" cy="55" r="1.3" fill="#09090B"/><circle cx="473" cy="55" r="1.3" fill="#09090B"/><circle cx="495" cy="55" r="1.3" fill="#09090B"/><circle cx="517" cy="55" r="2.0" fill="#09090B"/><circle cx="539" cy="55" r="0.9" fill="#09090B"/><circle cx="561" cy="55" r="1.1" fill="#09090B"/><circle cx="583" cy="55" r="2.0" fill="#09090B"/><circle cx="11" cy="77" r="1.1" fill="#09090B"/><circle cx="33" cy="77" r="0.8" fill="#09090B"/><circle cx="55" cy="77" r="0.8" fill="#09090B"/><circle cx="77" cy="77" r="1.6" fill="#09090B"/><circle cx="99" cy="77" r="1.3" fill="#09090B"/><circle cx="121" cy="77" r="2.4" fill="#09090B"/><circle cx="143" cy="77" r="2.2" fill="#09090B"/><circle cx="165" cy="77" r="2.4" fill="#09090B"/><circle cx="187" cy="77" r="1.2" fill="#09090B"/><circle cx="209" cy="77" r="0.9" fill="#09090B"/><circle cx="231" cy="77" r="0.9" fill="#09090B"/><circle cx="253" cy="77" r="1.6" fill="#09090B"/><circle cx="275" cy="77" r="1.9" fill="#09090B"/><circle cx="297" cy="77" r="1.5" fill="#09090B"/><circle cx="319" cy="77" r="1.1" fill="#09090B"/><circle cx="341" cy="77" r="1.4" fill="#09090B"/><circle cx="363" cy="77" r="1.8" fill="#09090B"/><circle cx="385" cy="77" r="1.9" fill="#09090B"/><circle cx="407" cy="77" r="2.0" fill="#09090B"/><circle cx="429" cy="77" r="2.1" fill="#09090B"/><circle cx="451" cy="77" r="1.8" fill="#09090B"/><circle cx="473" cy="77" r="0.9" fill="#09090B"/><circle cx="495" cy="77" r="2.1" fill="#09090B"/><circle cx="517" cy="77" r="1.2" fill="#09090B"/><circle cx="539" cy="77" r="1.7" fill="#09090B"/><circle cx="561" cy="77" r="1.3" fill="#09090B"/><circle cx="583" cy="77" r="2.0" fill="#09090B"/><circle cx="11" cy="99" r="1.1" fill="#09090B"/><circle cx="33" cy="99" r="1.1" fill="#09090B"/><circle cx="55" cy="99" r="1.1" fill="#09090B"/><circle cx="77" cy="99" r="1.0" fill="#09090B"/><circle cx="99" cy="99" r="2.2" fill="#09090B"/><circle cx="121" cy="99" r="1.7" fill="#09090B"/><circle cx="143" cy="99" r="1.3" fill="#09090B"/><circle cx="165" cy="99" r="1.4" fill="#09090B"/><circle cx="187" cy="99" r="2.4" fill="#09090B"/><circle cx="209" cy="99" r="1.6" fill="#09090B"/><circle cx="231" cy="99" r="1.1" fill="#09090B"/><circle cx="253" cy="99" r="2.1" fill="#09090B"/><circle cx="275" cy="99" r="1.8" fill="#09090B"/><circle cx="297" cy="99" r="2.4" fill="#09090B"/><circle cx="319" cy="99" r="0.9" fill="#09090B"/><circle cx="341" cy="99" r="1.5" fill="#09090B"/><circle cx="363" cy="99" r="2.1" fill="#09090B"/><circle cx="385" cy="99" r="2.1" fill="#09090B"/><circle cx="407" cy="99" r="2.3" fill="#09090B"/><circle cx="429" cy="99" r="0.8" fill="#09090B"/><circle cx="451" cy="99" r="1.2" fill="#09090B"/><circle cx="473" cy="99" r="0.9" fill="#09090B"/><circle cx="495" cy="99" r="1.0" fill="#09090B"/><circle cx="517" cy="99" r="2.4" fill="#09090B"/><circle cx="539" cy="99" r="1.7" fill="#09090B"/><circle cx="561" cy="99" r="2.3" fill="#09090B"/><circle cx="583" cy="99" r="1.3" fill="#09090B"/><circle cx="11" cy="121" r="2.2" fill="#09090B"/><circle cx="33" cy="121" r="1.5" fill="#09090B"/><circle cx="55" cy="121" r="1.2" fill="#09090B"/><circle cx="77" cy="121" r="2.0" fill="#09090B"/><circle cx="99" cy="121" r="2.3" fill="#09090B"/><circle cx="121" cy="121" r="0.9" fill="#09090B"/><circle cx="143" cy="121" r="1.7" fill="#09090B"/><circle cx="165" cy="121" r="1.8" fill="#09090B"/><circle cx="187" cy="121" r="1.1" fill="#09090B"/><circle cx="209" cy="121" r="1.3" fill="#09090B"/><circle cx="231" cy="121" r="1.0" fill="#09090B"/><circle cx="253" cy="121" r="1.1" fill="#09090B"/><circle cx="275" cy="121" r="1.1" fill="#09090B"/><circle cx="297" cy="121" r="1.7" fill="#09090B"/><circle cx="319" cy="121" r="1.8" fill="#09090B"/><circle cx="341" cy="121" r="1.1" fill="#09090B"/><circle cx="363" cy="121" r="0.7" fill="#09090B"/><circle cx="385" cy="121" r="1.3" fill="#09090B"/><circle cx="407" cy="121" r="1.9" fill="#09090B"/><circle cx="429" cy="121" r="1.0" fill="#09090B"/><circle cx="451" cy="121" r="1.2" fill="#09090B"/><circle cx="473" cy="121" r="1.1" fill="#09090B"/><circle cx="495" cy="121" r="2.1" fill="#09090B"/><circle cx="517" cy="121" r="1.6" fill="#09090B"/><circle cx="539" cy="121" r="0.8" fill="#09090B"/><circle cx="561" cy="121" r="0.9" fill="#09090B"/><circle cx="583" cy="121" r="1.4" fill="#09090B"/><circle cx="11" cy="143" r="1.6" fill="#09090B"/><circle cx="33" cy="143" r="1.8" fill="#09090B"/><circle cx="55" cy="143" r="0.9" fill="#09090B"/><circle cx="77" cy="143" r="1.0" fill="#09090B"/><circle cx="99" cy="143" r="1.9" fill="#09090B"/><circle cx="121" cy="143" r="1.4" fill="#09090B"/><circle cx="143" cy="143" r="1.2" fill="#09090B"/><circle cx="165" cy="143" r="1.2" fill="#09090B"/><circle cx="187" cy="143" r="2.3" fill="#09090B"/><circle cx="209" cy="143" r="1.2" fill="#09090B"/><circle cx="231" cy="143" r="1.7" fill="#09090B"/><circle cx="253" cy="143" r="1.3" fill="#09090B"/><circle cx="275" cy="143" r="1.4" fill="#09090B"/><circle cx="297" cy="143" r="2.2" fill="#09090B"/><circle cx="319" cy="143" r="2.4" fill="#09090B"/><circle cx="341" cy="143" r="1.3" fill="#09090B"/><circle cx="363" cy="143" r="1.1" fill="#09090B"/><circle cx="385" cy="143" r="1.9" fill="#09090B"/><circle cx="407" cy="143" r="1.1" fill="#09090B"/><circle cx="429" cy="143" r="0.7" fill="#09090B"/><circle cx="451" cy="143" r="2.2" fill="#09090B"/><circle cx="473" cy="143" r="1.4" fill="#09090B"/><circle cx="495" cy="143" r="2.1" fill="#09090B"/><circle cx="517" cy="143" r="1.4" fill="#09090B"/><circle cx="539" cy="143" r="2.2" fill="#09090B"/><circle cx="561" cy="143" r="1.5" fill="#09090B"/><circle cx="583" cy="143" r="1.0" fill="#09090B"/><circle cx="11" cy="165" r="0.7" fill="#09090B"/><circle cx="33" cy="165" r="1.6" fill="#09090B"/><circle cx="55" cy="165" r="1.8" fill="#09090B"/><circle cx="77" cy="165" r="2.2" fill="#09090B"/><circle cx="99" cy="165" r="0.9" fill="#09090B"/><circle cx="121" cy="165" r="1.8" fill="#09090B"/><circle cx="143" cy="165" r="1.3" fill="#09090B"/><circle cx="165" cy="165" r="1.6" fill="#09090B"/><circle cx="187" cy="165" r="1.0" fill="#09090B"/><circle cx="209" cy="165" r="1.2" fill="#09090B"/><circle cx="231" cy="165" r="1.6" fill="#09090B"/><circle cx="253" cy="165" r="2.3" fill="#09090B"/><circle cx="275" cy="165" r="0.9" fill="#09090B"/><circle cx="297" cy="165" r="1.5" fill="#09090B"/><circle cx="319" cy="165" r="2.1" fill="#09090B"/><circle cx="341" cy="165" r="2.3" fill="#09090B"/><circle cx="363" cy="165" r="1.1" fill="#09090B"/><circle cx="385" cy="165" r="0.9" fill="#09090B"/><circle cx="407" cy="165" r="2.3" fill="#09090B"/><circle cx="429" cy="165" r="2.4" fill="#09090B"/><circle cx="451" cy="165" r="1.5" fill="#09090B"/><circle cx="473" cy="165" r="0.8" fill="#09090B"/><circle cx="495" cy="165" r="2.3" fill="#09090B"/><circle cx="517" cy="165" r="1.4" fill="#09090B"/><circle cx="539" cy="165" r="2.2" fill="#09090B"/><circle cx="561" cy="165" r="1.8" fill="#09090B"/><circle cx="583" cy="165" r="2.1" fill="#09090B"/><circle cx="11" cy="187" r="1.0" fill="#09090B"/><circle cx="33" cy="187" r="2.0" fill="#09090B"/><circle cx="55" cy="187" r="1.1" fill="#09090B"/><circle cx="77" cy="187" r="1.4" fill="#09090B"/><circle cx="99" cy="187" r="2.1" fill="#09090B"/><circle cx="121" cy="187" r="2.1" fill="#09090B"/><circle cx="143" cy="187" r="1.0" fill="#09090B"/><circle cx="165" cy="187" r="1.1" fill="#09090B"/><circle cx="187" cy="187" r="1.4" fill="#09090B"/><circle cx="209" cy="187" r="1.6" fill="#09090B"/><circle cx="231" cy="187" r="1.4" fill="#09090B"/><circle cx="253" cy="187" r="0.9" fill="#09090B"/><circle cx="275" cy="187" r="1.1" fill="#09090B"/><circle cx="297" cy="187" r="1.9" fill="#09090B"/><circle cx="319" cy="187" r="2.2" fill="#09090B"/><circle cx="341" cy="187" r="0.8" fill="#09090B"/><circle cx="363" cy="187" r="1.7" fill="#09090B"/><circle cx="385" cy="187" r="2.0" fill="#09090B"/><circle cx="407" cy="187" r="0.8" fill="#09090B"/><circle cx="429" cy="187" r="2.1" fill="#09090B"/><circle cx="451" cy="187" r="0.9" fill="#09090B"/><circle cx="473" cy="187" r="1.7" fill="#09090B"/><circle cx="495" cy="187" r="1.6" fill="#09090B"/><circle cx="517" cy="187" r="1.8" fill="#09090B"/><circle cx="539" cy="187" r="1.2" fill="#09090B"/><circle cx="561" cy="187" r="1.4" fill="#09090B"/><circle cx="583" cy="187" r="1.7" fill="#09090B"/><circle cx="11" cy="209" r="1.4" fill="#09090B"/><circle cx="33" cy="209" r="1.8" fill="#09090B"/><circle cx="55" cy="209" r="1.5" fill="#09090B"/><circle cx="77" cy="209" r="1.5" fill="#09090B"/><circle cx="99" cy="209" r="0.8" fill="#09090B"/><circle cx="121" cy="209" r="1.8" fill="#09090B"/><circle cx="143" cy="209" r="1.5" fill="#09090B"/><circle cx="165" cy="209" r="1.1" fill="#09090B"/><circle cx="187" cy="209" r="2.0" fill="#09090B"/><circle cx="209" cy="209" r="2.0" fill="#09090B"/><circle cx="231" cy="209" r="1.5" fill="#09090B"/><circle cx="253" cy="209" r="1.0" fill="#09090B"/><circle cx="275" cy="209" r="1.5" fill="#09090B"/><circle cx="297" cy="209" r="0.9" fill="#09090B"/><circle cx="319" cy="209" r="0.9" fill="#09090B"/><circle cx="341" cy="209" r="1.4" fill="#09090B"/><circle cx="363" cy="209" r="0.9" fill="#09090B"/><circle cx="385" cy="209" r="1.5" fill="#09090B"/><circle cx="407" cy="209" r="1.6" fill="#09090B"/><circle cx="429" cy="209" r="0.8" fill="#09090B"/><circle cx="451" cy="209" r="1.8" fill="#09090B"/><circle cx="473" cy="209" r="0.9" fill="#09090B"/><circle cx="495" cy="209" r="2.0" fill="#09090B"/><circle cx="517" cy="209" r="2.0" fill="#09090B"/><circle cx="539" cy="209" r="1.6" fill="#09090B"/><circle cx="561" cy="209" r="0.8" fill="#09090B"/><circle cx="583" cy="209" r="1.6" fill="#09090B"/><circle cx="11" cy="231" r="1.4" fill="#09090B"/><circle cx="33" cy="231" r="2.3" fill="#09090B"/><circle cx="55" cy="231" r="0.9" fill="#09090B"/><circle cx="77" cy="231" r="2.2" fill="#09090B"/><circle cx="99" cy="231" r="2.4" fill="#09090B"/><circle cx="121" cy="231" r="1.9" fill="#09090B"/><circle cx="143" cy="231" r="2.1" fill="#09090B"/><circle cx="165" cy="231" r="1.0" fill="#09090B"/><circle cx="187" cy="231" r="2.4" fill="#09090B"/><circle cx="209" cy="231" r="1.5" fill="#09090B"/><circle cx="231" cy="231" r="2.3" fill="#09090B"/><circle cx="253" cy="231" r="2.3" fill="#09090B"/><circle cx="275" cy="231" r="1.0" fill="#09090B"/><circle cx="297" cy="231" r="2.0" fill="#09090B"/><circle cx="319" cy="231" r="2.3" fill="#09090B"/><circle cx="341" cy="231" r="0.8" fill="#09090B"/><circle cx="363" cy="231" r="1.3" fill="#09090B"/><circle cx="385" cy="231" r="2.0" fill="#09090B"/><circle cx="407" cy="231" r="1.0" fill="#09090B"/><circle cx="429" cy="231" r="2.2" fill="#09090B"/><circle cx="451" cy="231" r="1.2" fill="#09090B"/><circle cx="473" cy="231" r="2.1" fill="#09090B"/><circle cx="495" cy="231" r="1.0" fill="#09090B"/><circle cx="517" cy="231" r="1.6" fill="#09090B"/><circle cx="539" cy="231" r="2.3" fill="#09090B"/><circle cx="561" cy="231" r="1.1" fill="#09090B"/><circle cx="583" cy="231" r="1.2" fill="#09090B"/><circle cx="11" cy="253" r="1.6" fill="#09090B"/><circle cx="33" cy="253" r="1.3" fill="#09090B"/><circle cx="55" cy="253" r="0.8" fill="#09090B"/><circle cx="77" cy="253" r="1.0" fill="#09090B"/><circle cx="99" cy="253" r="1.0" fill="#09090B"/><circle cx="121" cy="253" r="2.3" fill="#09090B"/><circle cx="143" cy="253" r="1.9" fill="#09090B"/><circle cx="165" cy="253" r="2.2" fill="#09090B"/><circle cx="187" cy="253" r="1.0" fill="#09090B"/><circle cx="209" cy="253" r="2.0" fill="#09090B"/><circle cx="231" cy="253" r="0.9" fill="#09090B"/><circle cx="253" cy="253" r="1.6" fill="#09090B"/><circle cx="275" cy="253" r="1.8" fill="#09090B"/><circle cx="297" cy="253" r="1.3" fill="#09090B"/><circle cx="319" cy="253" r="2.2" fill="#09090B"/><circle cx="341" cy="253" r="1.7" fill="#09090B"/><circle cx="363" cy="253" r="1.7" fill="#09090B"/><circle cx="385" cy="253" r="2.2" fill="#09090B"/><circle cx="407" cy="253" r="0.9" fill="#09090B"/><circle cx="429" cy="253" r="2.4" fill="#09090B"/><circle cx="451" cy="253" r="1.8" fill="#09090B"/><circle cx="473" cy="253" r="1.4" fill="#09090B"/><circle cx="495" cy="253" r="2.1" fill="#09090B"/><circle cx="517" cy="253" r="1.2" fill="#09090B"/><circle cx="539" cy="253" r="2.4" fill="#09090B"/><circle cx="561" cy="253" r="1.7" fill="#09090B"/><circle cx="583" cy="253" r="1.3" fill="#09090B"/><circle cx="11" cy="275" r="2.0" fill="#09090B"/><circle cx="33" cy="275" r="1.5" fill="#09090B"/><circle cx="55" cy="275" r="1.0" fill="#09090B"/><circle cx="77" cy="275" r="2.0" fill="#09090B"/><circle cx="99" cy="275" r="0.8" fill="#09090B"/><circle cx="121" cy="275" r="2.1" fill="#09090B"/><circle cx="143" cy="275" r="1.1" fill="#09090B"/><circle cx="165" cy="275" r="1.8" fill="#09090B"/><circle cx="187" cy="275" r="2.4" fill="#09090B"/><circle cx="209" cy="275" r="1.7" fill="#09090B"/><circle cx="231" cy="275" r="1.8" fill="#09090B"/><circle cx="253" cy="275" r="1.2" fill="#09090B"/><circle cx="275" cy="275" r="0.7" fill="#09090B"/><circle cx="297" cy="275" r="0.8" fill="#09090B"/><circle cx="319" cy="275" r="1.0" fill="#09090B"/><circle cx="341" cy="275" r="1.8" fill="#09090B"/><circle cx="363" cy="275" r="1.4" fill="#09090B"/><circle cx="385" cy="275" r="1.6" fill="#09090B"/><circle cx="407" cy="275" r="2.2" fill="#09090B"/><circle cx="429" cy="275" r="0.9" fill="#09090B"/><circle cx="451" cy="275" r="1.1" fill="#09090B"/><circle cx="473" cy="275" r="1.8" fill="#09090B"/><circle cx="495" cy="275" r="0.8" fill="#09090B"/><circle cx="517" cy="275" r="0.7" fill="#09090B"/><circle cx="539" cy="275" r="1.3" fill="#09090B"/><circle cx="561" cy="275" r="0.9" fill="#09090B"/><circle cx="583" cy="275" r="1.3" fill="#09090B"/><circle cx="11" cy="297" r="1.1" fill="#09090B"/><circle cx="33" cy="297" r="1.7" fill="#09090B"/><circle cx="55" cy="297" r="1.7" fill="#09090B"/><circle cx="77" cy="297" r="1.1" fill="#09090B"/><circle cx="99" cy="297" r="1.8" fill="#09090B"/><circle cx="121" cy="297" r="1.5" fill="#09090B"/><circle cx="143" cy="297" r="0.9" fill="#09090B"/><circle cx="165" cy="297" r="2.3" fill="#09090B"/><circle cx="187" cy="297" r="1.1" fill="#09090B"/><circle cx="209" cy="297" r="1.0" fill="#09090B"/><circle cx="231" cy="297" r="0.9" fill="#09090B"/><circle cx="253" cy="297" r="1.8" fill="#09090B"/><circle cx="275" cy="297" r="2.2" fill="#09090B"/><circle cx="297" cy="297" r="2.0" fill="#09090B"/><circle cx="319" cy="297" r="1.4" fill="#09090B"/><circle cx="341" cy="297" r="1.2" fill="#09090B"/><circle cx="363" cy="297" r="0.7" fill="#09090B"/><circle cx="385" cy="297" r="1.8" fill="#09090B"/><circle cx="407" cy="297" r="1.7" fill="#09090B"/><circle cx="429" cy="297" r="1.3" fill="#09090B"/><circle cx="451" cy="297" r="1.8" fill="#09090B"/><circle cx="473" cy="297" r="1.5" fill="#09090B"/><circle cx="495" cy="297" r="2.3" fill="#09090B"/><circle cx="517" cy="297" r="2.0" fill="#09090B"/><circle cx="539" cy="297" r="1.1" fill="#09090B"/><circle cx="561" cy="297" r="2.2" fill="#09090B"/><circle cx="583" cy="297" r="0.8" fill="#09090B"/><circle cx="11" cy="319" r="1.6" fill="#09090B"/><circle cx="33" cy="319" r="1.4" fill="#09090B"/><circle cx="55" cy="319" r="1.1" fill="#09090B"/><circle cx="77" cy="319" r="0.8" fill="#09090B"/><circle cx="99" cy="319" r="2.0" fill="#09090B"/><circle cx="121" cy="319" r="0.7" fill="#09090B"/><circle cx="143" cy="319" r="1.6" fill="#09090B"/><circle cx="165" cy="319" r="2.3" fill="#09090B"/><circle cx="187" cy="319" r="1.0" fill="#09090B"/><circle cx="209" cy="319" r="1.1" fill="#09090B"/><circle cx="231" cy="319" r="1.7" fill="#09090B"/><circle cx="253" cy="319" r="1.6" fill="#09090B"/><circle cx="275" cy="319" r="1.8" fill="#09090B"/><circle cx="297" cy="319" r="2.1" fill="#09090B"/><circle cx="319" cy="319" r="1.0" fill="#09090B"/><circle cx="341" cy="319" r="1.2" fill="#09090B"/><circle cx="363" cy="319" r="1.2" fill="#09090B"/><circle cx="385" cy="319" r="0.8" fill="#09090B"/><circle cx="407" cy="319" r="2.2" fill="#09090B"/><circle cx="429" cy="319" r="2.0" fill="#09090B"/><circle cx="451" cy="319" r="1.9" fill="#09090B"/><circle cx="473" cy="319" r="0.7" fill="#09090B"/><circle cx="495" cy="319" r="2.1" fill="#09090B"/><circle cx="517" cy="319" r="2.0" fill="#09090B"/><circle cx="539" cy="319" r="1.5" fill="#09090B"/><circle cx="561" cy="319" r="2.0" fill="#09090B"/><circle cx="583" cy="319" r="1.5" fill="#09090B"/><circle cx="11" cy="341" r="1.1" fill="#09090B"/><circle cx="33" cy="341" r="0.9" fill="#09090B"/><circle cx="55" cy="341" r="1.1" fill="#09090B"/><circle cx="77" cy="341" r="0.8" fill="#09090B"/><circle cx="99" cy="341" r="1.3" fill="#09090B"/><circle cx="121" cy="341" r="2.0" fill="#09090B"/><circle cx="143" cy="341" r="1.9" fill="#09090B"/><circle cx="165" cy="341" r="2.1" fill="#09090B"/><circle cx="187" cy="341" r="1.9" fill="#09090B"/><circle cx="209" cy="341" r="1.2" fill="#09090B"/><circle cx="231" cy="341" r="1.7" fill="#09090B"/><circle cx="253" cy="341" r="1.5" fill="#09090B"/><circle cx="275" cy="341" r="2.0" fill="#09090B"/><circle cx="297" cy="341" r="1.6" fill="#09090B"/><circle cx="319" cy="341" r="1.2" fill="#09090B"/><circle cx="341" cy="341" r="1.8" fill="#09090B"/><circle cx="363" cy="341" r="2.3" fill="#09090B"/><circle cx="385" cy="341" r="1.1" fill="#09090B"/><circle cx="407" cy="341" r="2.2" fill="#09090B"/><circle cx="429" cy="341" r="0.7" fill="#09090B"/><circle cx="451" cy="341" r="1.2" fill="#09090B"/><circle cx="473" cy="341" r="1.1" fill="#09090B"/><circle cx="495" cy="341" r="2.0" fill="#09090B"/><circle cx="517" cy="341" r="2.3" fill="#09090B"/><circle cx="539" cy="341" r="2.0" fill="#09090B"/><circle cx="561" cy="341" r="1.3" fill="#09090B"/><circle cx="583" cy="341" r="2.2" fill="#09090B"/><circle cx="11" cy="363" r="1.3" fill="#09090B"/><circle cx="33" cy="363" r="1.1" fill="#09090B"/><circle cx="55" cy="363" r="2.2" fill="#09090B"/><circle cx="77" cy="363" r="1.8" fill="#09090B"/><circle cx="99" cy="363" r="1.9" fill="#09090B"/><circle cx="121" cy="363" r="1.8" fill="#09090B"/><circle cx="143" cy="363" r="2.4" fill="#09090B"/><circle cx="165" cy="363" r="1.5" fill="#09090B"/><circle cx="187" cy="363" r="2.1" fill="#09090B"/><circle cx="209" cy="363" r="1.9" fill="#09090B"/><circle cx="231" cy="363" r="2.2" fill="#09090B"/><circle cx="253" cy="363" r="1.5" fill="#09090B"/><circle cx="275" cy="363" r="1.9" fill="#09090B"/><circle cx="297" cy="363" r="1.7" fill="#09090B"/><circle cx="319" cy="363" r="1.2" fill="#09090B"/><circle cx="341" cy="363" r="1.1" fill="#09090B"/><circle cx="363" cy="363" r="1.8" fill="#09090B"/><circle cx="385" cy="363" r="0.9" fill="#09090B"/><circle cx="407" cy="363" r="2.3" fill="#09090B"/><circle cx="429" cy="363" r="1.0" fill="#09090B"/><circle cx="451" cy="363" r="0.8" fill="#09090B"/><circle cx="473" cy="363" r="0.9" fill="#09090B"/><circle cx="495" cy="363" r="2.3" fill="#09090B"/><circle cx="517" cy="363" r="1.3" fill="#09090B"/><circle cx="539" cy="363" r="1.0" fill="#09090B"/><circle cx="561" cy="363" r="0.8" fill="#09090B"/><circle cx="583" cy="363" r="0.8" fill="#09090B"/><circle cx="11" cy="385" r="1.9" fill="#09090B"/><circle cx="33" cy="385" r="1.8" fill="#09090B"/><circle cx="55" cy="385" r="1.9" fill="#09090B"/><circle cx="77" cy="385" r="2.0" fill="#09090B"/><circle cx="99" cy="385" r="0.8" fill="#09090B"/><circle cx="121" cy="385" r="1.7" fill="#09090B"/><circle cx="143" cy="385" r="1.3" fill="#09090B"/><circle cx="165" cy="385" r="2.1" fill="#09090B"/><circle cx="187" cy="385" r="2.1" fill="#09090B"/><circle cx="209" cy="385" r="2.2" fill="#09090B"/><circle cx="231" cy="385" r="0.8" fill="#09090B"/><circle cx="253" cy="385" r="2.2" fill="#09090B"/><circle cx="275" cy="385" r="2.3" fill="#09090B"/><circle cx="297" cy="385" r="2.3" fill="#09090B"/><circle cx="319" cy="385" r="0.9" fill="#09090B"/><circle cx="341" cy="385" r="1.1" fill="#09090B"/><circle cx="363" cy="385" r="0.9" fill="#09090B"/><circle cx="385" cy="385" r="0.8" fill="#09090B"/><circle cx="407" cy="385" r="2.1" fill="#09090B"/><circle cx="429" cy="385" r="2.1" fill="#09090B"/><circle cx="451" cy="385" r="1.8" fill="#09090B"/><circle cx="473" cy="385" r="2.1" fill="#09090B"/><circle cx="495" cy="385" r="1.8" fill="#09090B"/><circle cx="517" cy="385" r="1.2" fill="#09090B"/><circle cx="539" cy="385" r="0.9" fill="#09090B"/><circle cx="561" cy="385" r="0.9" fill="#09090B"/><circle cx="583" cy="385" r="2.0" fill="#09090B"/><circle cx="11" cy="407" r="1.1" fill="#09090B"/><circle cx="33" cy="407" r="1.3" fill="#09090B"/><circle cx="55" cy="407" r="1.4" fill="#09090B"/><circle cx="77" cy="407" r="0.8" fill="#09090B"/><circle cx="99" cy="407" r="1.2" fill="#09090B"/><circle cx="121" cy="407" r="1.2" fill="#09090B"/><circle cx="143" cy="407" r="1.9" fill="#09090B"/><circle cx="165" cy="407" r="1.3" fill="#09090B"/><circle cx="187" cy="407" r="1.3" fill="#09090B"/><circle cx="209" cy="407" r="2.3" fill="#09090B"/><circle cx="231" cy="407" r="1.6" fill="#09090B"/><circle cx="253" cy="407" r="2.2" fill="#09090B"/><circle cx="275" cy="407" r="1.8" fill="#09090B"/><circle cx="297" cy="407" r="0.8" fill="#09090B"/><circle cx="319" cy="407" r="1.4" fill="#09090B"/><circle cx="341" cy="407" r="1.5" fill="#09090B"/><circle cx="363" cy="407" r="2.0" fill="#09090B"/><circle cx="385" cy="407" r="1.3" fill="#09090B"/><circle cx="407" cy="407" r="1.9" fill="#09090B"/><circle cx="429" cy="407" r="1.6" fill="#09090B"/><circle cx="451" cy="407" r="1.1" fill="#09090B"/><circle cx="473" cy="407" r="2.2" fill="#09090B"/><circle cx="495" cy="407" r="0.9" fill="#09090B"/><circle cx="517" cy="407" r="2.1" fill="#09090B"/><circle cx="539" cy="407" r="1.0" fill="#09090B"/><circle cx="561" cy="407" r="0.7" fill="#09090B"/><circle cx="583" cy="407" r="1.1" fill="#09090B"/><circle cx="11" cy="429" r="2.0" fill="#09090B"/><circle cx="33" cy="429" r="2.4" fill="#09090B"/><circle cx="55" cy="429" r="0.7" fill="#09090B"/><circle cx="77" cy="429" r="1.5" fill="#09090B"/><circle cx="99" cy="429" r="1.5" fill="#09090B"/><circle cx="121" cy="429" r="2.1" fill="#09090B"/><circle cx="143" cy="429" r="1.0" fill="#09090B"/><circle cx="165" cy="429" r="1.6" fill="#09090B"/><circle cx="187" cy="429" r="1.3" fill="#09090B"/><circle cx="209" cy="429" r="2.1" fill="#09090B"/><circle cx="231" cy="429" r="1.2" fill="#09090B"/><circle cx="253" cy="429" r="2.3" fill="#09090B"/><circle cx="275" cy="429" r="1.2" fill="#09090B"/><circle cx="297" cy="429" r="1.1" fill="#09090B"/><circle cx="319" cy="429" r="1.9" fill="#09090B"/><circle cx="341" cy="429" r="1.6" fill="#09090B"/><circle cx="363" cy="429" r="0.9" fill="#09090B"/><circle cx="385" cy="429" r="1.8" fill="#09090B"/><circle cx="407" cy="429" r="0.9" fill="#09090B"/><circle cx="429" cy="429" r="2.0" fill="#09090B"/><circle cx="451" cy="429" r="1.9" fill="#09090B"/><circle cx="473" cy="429" r="2.0" fill="#09090B"/><circle cx="495" cy="429" r="1.8" fill="#09090B"/><circle cx="517" cy="429" r="1.3" fill="#09090B"/><circle cx="539" cy="429" r="1.4" fill="#09090B"/><circle cx="561" cy="429" r="1.4" fill="#09090B"/><circle cx="583" cy="429" r="2.2" fill="#09090B"/><circle cx="11" cy="451" r="0.9" fill="#09090B"/><circle cx="33" cy="451" r="2.2" fill="#09090B"/><circle cx="55" cy="451" r="0.8" fill="#09090B"/><circle cx="77" cy="451" r="1.1" fill="#09090B"/><circle cx="99" cy="451" r="1.2" fill="#09090B"/><circle cx="121" cy="451" r="2.2" fill="#09090B"/><circle cx="143" cy="451" r="1.6" fill="#09090B"/><circle cx="165" cy="451" r="1.4" fill="#09090B"/><circle cx="187" cy="451" r="2.2" fill="#09090B"/><circle cx="209" cy="451" r="1.1" fill="#09090B"/><circle cx="231" cy="451" r="1.5" fill="#09090B"/><circle cx="253" cy="451" r="1.6" fill="#09090B"/><circle cx="275" cy="451" r="2.0" fill="#09090B"/><circle cx="297" cy="451" r="2.0" fill="#09090B"/><circle cx="319" cy="451" r="1.8" fill="#09090B"/><circle cx="341" cy="451" r="1.3" fill="#09090B"/><circle cx="363" cy="451" r="1.3" fill="#09090B"/><circle cx="385" cy="451" r="1.0" fill="#09090B"/><circle cx="407" cy="451" r="2.1" fill="#09090B"/><circle cx="429" cy="451" r="1.8" fill="#09090B"/><circle cx="451" cy="451" r="2.0" fill="#09090B"/><circle cx="473" cy="451" r="1.0" fill="#09090B"/><circle cx="495" cy="451" r="1.5" fill="#09090B"/><circle cx="517" cy="451" r="2.0" fill="#09090B"/><circle cx="539" cy="451" r="1.7" fill="#09090B"/><circle cx="561" cy="451" r="0.9" fill="#09090B"/><circle cx="583" cy="451" r="1.5" fill="#09090B"/><circle cx="11" cy="473" r="2.2" fill="#09090B"/><circle cx="33" cy="473" r="1.1" fill="#09090B"/><circle cx="55" cy="473" r="1.0" fill="#09090B"/><circle cx="77" cy="473" r="1.2" fill="#09090B"/><circle cx="99" cy="473" r="1.9" fill="#09090B"/><circle cx="121" cy="473" r="2.1" fill="#09090B"/><circle cx="143" cy="473" r="1.0" fill="#09090B"/><circle cx="165" cy="473" r="1.0" fill="#09090B"/><circle cx="187" cy="473" r="1.1" fill="#09090B"/><circle cx="209" cy="473" r="1.3" fill="#09090B"/><circle cx="231" cy="473" r="1.6" fill="#09090B"/><circle cx="253" cy="473" r="1.0" fill="#09090B"/><circle cx="275" cy="473" r="1.3" fill="#09090B"/><circle cx="297" cy="473" r="1.0" fill="#09090B"/><circle cx="319" cy="473" r="2.4" fill="#09090B"/><circle cx="341" cy="473" r="1.9" fill="#09090B"/><circle cx="363" cy="473" r="0.9" fill="#09090B"/><circle cx="385" cy="473" r="2.3" fill="#09090B"/><circle cx="407" cy="473" r="0.9" fill="#09090B"/><circle cx="429" cy="473" r="1.4" fill="#09090B"/><circle cx="451" cy="473" r="2.4" fill="#09090B"/><circle cx="473" cy="473" r="2.1" fill="#09090B"/><circle cx="495" cy="473" r="2.0" fill="#09090B"/><circle cx="517" cy="473" r="1.5" fill="#09090B"/><circle cx="539" cy="473" r="1.0" fill="#09090B"/><circle cx="561" cy="473" r="1.8" fill="#09090B"/><circle cx="583" cy="473" r="0.9" fill="#09090B"/><circle cx="11" cy="495" r="1.1" fill="#09090B"/><circle cx="33" cy="495" r="1.4" fill="#09090B"/><circle cx="55" cy="495" r="0.8" fill="#09090B"/><circle cx="77" cy="495" r="1.4" fill="#09090B"/><circle cx="99" cy="495" r="2.0" fill="#09090B"/><circle cx="121" cy="495" r="1.9" fill="#09090B"/><circle cx="143" cy="495" r="1.6" fill="#09090B"/><circle cx="165" cy="495" r="1.8" fill="#09090B"/><circle cx="187" cy="495" r="1.5" fill="#09090B"/><circle cx="209" cy="495" r="1.0" fill="#09090B"/><circle cx="231" cy="495" r="1.7" fill="#09090B"/><circle cx="253" cy="495" r="1.4" fill="#09090B"/><circle cx="275" cy="495" r="2.0" fill="#09090B"/><circle cx="297" cy="495" r="2.2" fill="#09090B"/><circle cx="319" cy="495" r="1.4" fill="#09090B"/><circle cx="341" cy="495" r="1.7" fill="#09090B"/><circle cx="363" cy="495" r="2.0" fill="#09090B"/><circle cx="385" cy="495" r="1.4" fill="#09090B"/><circle cx="407" cy="495" r="1.1" fill="#09090B"/><circle cx="429" cy="495" r="1.9" fill="#09090B"/><circle cx="451" cy="495" r="2.2" fill="#09090B"/><circle cx="473" cy="495" r="2.0" fill="#09090B"/><circle cx="495" cy="495" r="1.9" fill="#09090B"/><circle cx="517" cy="495" r="2.2" fill="#09090B"/><circle cx="539" cy="495" r="1.9" fill="#09090B"/><circle cx="561" cy="495" r="1.8" fill="#09090B"/><circle cx="583" cy="495" r="1.5" fill="#09090B"/><circle cx="11" cy="517" r="1.2" fill="#09090B"/><circle cx="33" cy="517" r="1.8" fill="#09090B"/><circle cx="55" cy="517" r="0.9" fill="#09090B"/><circle cx="77" cy="517" r="1.4" fill="#09090B"/><circle cx="99" cy="517" r="2.0" fill="#09090B"/><circle cx="121" cy="517" r="1.9" fill="#09090B"/><circle cx="143" cy="517" r="1.8" fill="#09090B"/><circle cx="165" cy="517" r="1.1" fill="#09090B"/><circle cx="187" cy="517" r="1.4" fill="#09090B"/><circle cx="209" cy="517" r="1.5" fill="#09090B"/><circle cx="231" cy="517" r="1.8" fill="#09090B"/><circle cx="253" cy="517" r="1.4" fill="#09090B"/><circle cx="275" cy="517" r="1.9" fill="#09090B"/><circle cx="297" cy="517" r="2.3" fill="#09090B"/><circle cx="319" cy="517" r="1.0" fill="#09090B"/><circle cx="341" cy="517" r="1.8" fill="#09090B"/><circle cx="363" cy="517" r="2.0" fill="#09090B"/><circle cx="385" cy="517" r="1.4" fill="#09090B"/><circle cx="407" cy="517" r="1.5" fill="#09090B"/><circle cx="429" cy="517" r="2.4" fill="#09090B"/><circle cx="451" cy="517" r="0.8" fill="#09090B"/><circle cx="473" cy="517" r="1.6" fill="#09090B"/><circle cx="495" cy="517" r="1.0" fill="#09090B"/><circle cx="517" cy="517" r="2.0" fill="#09090B"/><circle cx="539" cy="517" r="2.3" fill="#09090B"/><circle cx="561" cy="517" r="1.6" fill="#09090B"/><circle cx="583" cy="517" r="0.9" fill="#09090B"/><circle cx="11" cy="539" r="1.7" fill="#09090B"/><circle cx="33" cy="539" r="1.6" fill="#09090B"/><circle cx="55" cy="539" r="1.9" fill="#09090B"/><circle cx="77" cy="539" r="1.6" fill="#09090B"/><circle cx="99" cy="539" r="1.8" fill="#09090B"/><circle cx="121" cy="539" r="2.1" fill="#09090B"/><circle cx="143" cy="539" r="1.6" fill="#09090B"/><circle cx="165" cy="539" r="1.4" fill="#09090B"/><circle cx="187" cy="539" r="2.3" fill="#09090B"/><circle cx="209" cy="539" r="1.1" fill="#09090B"/><circle cx="231" cy="539" r="1.9" fill="#09090B"/><circle cx="253" cy="539" r="1.4" fill="#09090B"/><circle cx="275" cy="539" r="2.0" fill="#09090B"/><circle cx="297" cy="539" r="0.9" fill="#09090B"/><circle cx="319" cy="539" r="2.4" fill="#09090B"/><circle cx="341" cy="539" r="1.3" fill="#09090B"/><circle cx="363" cy="539" r="0.8" fill="#09090B"/><circle cx="385" cy="539" r="1.2" fill="#09090B"/><circle cx="407" cy="539" r="1.4" fill="#09090B"/><circle cx="429" cy="539" r="0.7" fill="#09090B"/><circle cx="451" cy="539" r="1.4" fill="#09090B"/><circle cx="473" cy="539" r="1.4" fill="#09090B"/><circle cx="495" cy="539" r="1.9" fill="#09090B"/><circle cx="517" cy="539" r="1.3" fill="#09090B"/><circle cx="539" cy="539" r="1.2" fill="#09090B"/><circle cx="561" cy="539" r="1.1" fill="#09090B"/><circle cx="583" cy="539" r="2.0" fill="#09090B"/><circle cx="11" cy="561" r="2.3" fill="#09090B"/><circle cx="33" cy="561" r="1.6" fill="#09090B"/><circle cx="55" cy="561" r="1.1" fill="#09090B"/><circle cx="77" cy="561" r="2.1" fill="#09090B"/><circle cx="99" cy="561" r="1.4" fill="#09090B"/><circle cx="121" cy="561" r="1.1" fill="#09090B"/><circle cx="143" cy="561" r="0.9" fill="#09090B"/><circle cx="165" cy="561" r="2.0" fill="#09090B"/><circle cx="187" cy="561" r="2.1" fill="#09090B"/><circle cx="209" cy="561" r="1.8" fill="#09090B"/><circle cx="231" cy="561" r="1.5" fill="#09090B"/><circle cx="253" cy="561" r="1.7" fill="#09090B"/><circle cx="275" cy="561" r="1.1" fill="#09090B"/><circle cx="297" cy="561" r="2.3" fill="#09090B"/><circle cx="319" cy="561" r="1.3" fill="#09090B"/><circle cx="341" cy="561" r="1.8" fill="#09090B"/><circle cx="363" cy="561" r="2.1" fill="#09090B"/><circle cx="385" cy="561" r="2.1" fill="#09090B"/><circle cx="407" cy="561" r="1.5" fill="#09090B"/><circle cx="429" cy="561" r="1.2" fill="#09090B"/><circle cx="451" cy="561" r="1.6" fill="#09090B"/><circle cx="473" cy="561" r="0.9" fill="#09090B"/><circle cx="495" cy="561" r="2.1" fill="#09090B"/><circle cx="517" cy="561" r="1.3" fill="#09090B"/><circle cx="539" cy="561" r="2.1" fill="#09090B"/><circle cx="561" cy="561" r="1.2" fill="#09090B"/><circle cx="583" cy="561" r="1.4" fill="#09090B"/><circle cx="11" cy="583" r="1.1" fill="#09090B"/><circle cx="33" cy="583" r="1.4" fill="#09090B"/><circle cx="55" cy="583" r="1.0" fill="#09090B"/><circle cx="77" cy="583" r="0.7" fill="#09090B"/><circle cx="99" cy="583" r="1.9" fill="#09090B"/><circle cx="121" cy="583" r="1.2" fill="#09090B"/><circle cx="143" cy="583" r="1.1" fill="#09090B"/><circle cx="165" cy="583" r="1.2" fill="#09090B"/><circle cx="187" cy="583" r="1.5" fill="#09090B"/><circle cx="209" cy="583" r="1.4" fill="#09090B"/><circle cx="231" cy="583" r="1.8" fill="#09090B"/><circle cx="253" cy="583" r="1.8" fill="#09090B"/><circle cx="275" cy="583" r="1.3" fill="#09090B"/><circle cx="297" cy="583" r="2.3" fill="#09090B"/><circle cx="319" cy="583" r="2.2" fill="#09090B"/><circle cx="341" cy="583" r="0.8" fill="#09090B"/><circle cx="363" cy="583" r="2.1" fill="#09090B"/><circle cx="385" cy="583" r="2.2" fill="#09090B"/><circle cx="407" cy="583" r="2.0" fill="#09090B"/><circle cx="429" cy="583" r="1.0" fill="#09090B"/><circle cx="451" cy="583" r="2.1" fill="#09090B"/><circle cx="473" cy="583" r="1.8" fill="#09090B"/><circle cx="495" cy="583" r="0.7" fill="#09090B"/><circle cx="517" cy="583" r="0.7" fill="#09090B"/><circle cx="539" cy="583" r="2.3" fill="#09090B"/><circle cx="561" cy="583" r="1.8" fill="#09090B"/><circle cx="583" cy="583" r="1.1" fill="#09090B"/></g><circle cx="420.0" cy="210.0" r="168.00000000000003" fill="#09090B" opacity="0.9"/><rect x="60.0" y="330.0" width="330.0" height="180.0" rx="28" fill="#09090B" opacity="0.85"/></svg>