<svg xmlns="http://www.w3.org/2000/svg" width="640" height="640" viewBox="0 0 640 640"><rect width="640" height="640" fill="#D2E823"/><g opacity="0.4"><circle cx="12" cy="12" r="1.6" fill="#09090B"/><circle cx="36" cy="12" r="2.0" fill="#09090B"/><circle cx="60" cy="12" r="0.9" fill="#09090B"/><circle cx="84" cy="12" r="1.4" fill="#09090B"/><circle cx="108" cy="12" r="1.9" fill="#09090B"/><circle cx="132" cy="12" r="1.0" fill="#09090B"/><circle cx="156" cy="12" r="1.3" fill="#09090B"/><circle cx="180" cy="12" r="1.5" fill="#09090B"/><circle cx="204" cy="12" r="1.6" fill="#09090B"/><circle cx="228" cy="12" r="1.7" fill="#09090B"/><circle cx="252" cy="12" r="2.2" fill="#09090B"/><circle cx="276" cy="12" r="0.8" fill="#09090B"/><circle cx="300" cy="12" r="2.0" fill="#09090B"/><circle cx="324" cy="12" r="1.5" fill="#09090B"/><circle cx="348" cy="12" r="1.6" fill="#09090B"/><circle cx="372" cy="12" r="1.1" fill="#09090B"/><circle cx="396" cy="12" r="1.4" fill="#09090B"/><circle cx="420" cy="12" r="1.0" fill="#09090B"/><circle cx="444" cy="12" r="0.8" fill="#09090B"/><circle cx="468" cy="12" r="2.0" fill="#09090B"/><circle cx="492" cy="12" r="1.7" fill="#09090B"/><circle cx="516" cy="12" r="0.8" fill="#09090B"/><circle cx="540" cy="12" r="0.8" fill="#09090B"/><circle cx="564" cy="12" r="1.3" fill="#09090B"/><circle cx="588" cy="12" r="1.9" fill="#09090B"/><circle cx="612" cy="12" r="1.4" fill="#09090B"/><circle cx="636" cy="12" r="1.5" fill="#09090B"/><circle cx="12" cy="36" r="1.4" fill="#09090B"/><circle cx="36" cy="36" r="2.1" fill="#09090B"/><circle cx="60" cy="36" r="1.7" fill="#09090B"/><circle cx="84" cy="36" r="1.0" fill="#09090B"/><circle cx="108" cy="36" r="0.9" fill="#09090B"/><circle cx="132" cy="36" r="1.6" fill="#09090B"/><circle cx="156" cy="36" r="1.8" fill="#09090B"/><circle cx="180" cy="36" r="0.9" fill="#09090B"/><circle cx="204" cy="36" r="1.2" fill="#09090B"/><circle cx="228" cy="36" r="1.7" fill="#09090B"/><circle cx="252" cy="36" r="1.4" fill="#09090B"/><circle cx="276" cy="36" r="1.1" fill="#09090B"/><circle cx="300" cy="36" r="1.4" fill="#09090B"/><circle cx="324" cy="36" r="1.3" fill="#09090B"/><circle cx="348" cy="36" r="2.2" fill="#09090B"/><circle cx="372" cy="36" r="1.7" fill="#09090B"/><circle cx="396" cy="36" r="0.9" fill="#09090B"/><circle cx="420" cy="36" r="1.2" fill="#09090B"/><circle cx="444" cy="36" r="1.7" fill="#09090B"/><circle cx="468" cy="36" r="0.7" fill="#09090B"/><circle cx="492" cy="36" r="0.7" fill="#09090B"/><circle cx="516" cy="36" r="1.8" fill="#09090B"/><circle cx="540" cy="36" r="2.2" fill="#09090B"/><circle cx="564" cy="36" r="1.9" fill="#09090B"/><circle cx="588" cy="36" r="0.8" fill="#09090B"/><circle cx="612" cy="36" r="1.4" fill="#09090B"/><circle cx="636" cy="36" r="1.8" fill="#09090B"/><circle cx="12" cy="60" r="0.9" fill="#09090B"/><circle cx="36" cy="60" r="1.0" fill="#09090B"/><circle cx="60" cy="60" r="1.3" fill="#09090B"/><circle cx="84" cy="60" r="0.9" fill="#09090B"/><circle cx="108" cy="60" r="0.8" fill="#09090B"/><circle cx="132" cy="60" r="1.7" fill="#09090B"/><circle cx="156" cy="60" r="1.2" fill="#09090B"/><circle cx="180" cy="60" r="1.9" fill="#09090B"/><circle cx="204" cy="60" r="1.5" fill="#09090B"/><circle cx="228" cy="60" r="2.1" fill="#09090B"/><circle cx="252" cy="60" r="1.1" fill="#09090B"/><circle cx="276" cy="60" r="1.2" fill="#09090B"/><circle cx="300" cy="60" r="1.0" fill="#09090B"/><circle cx="324" cy="60" r="0.7" fill="#09090B"/><circle cx="348" cy="60" r="1.1" fill="#09090B"/><circle cx="372" cy="60" r="1.2" fill="#09090B"/><circle cx="396" cy="60" r="1.4" fill="#09090B"/><circle cx="420" cy="60" r="1.2" fill="#09090B"/><circle cx="444" cy="60" r="2.2" fill="#09090B"/><circle cx="468" cy="60" r="2.0" fill="#09090B"/><circle cx="492" cy="60" r="1.2" fill="#09090B"/><circle cx="516" cy="60" r="1.0" fill="#09090B"/><circle cx="540" cy="60" r="1.4" fill="#09090B"/><circle cx="564" cy="60" r="0.8" fill="#09090B"/><circle cx="588" cy="60" r="1.0" fill="#09090B"/><circle cx="612" cy="60" r="1.8" fill="#09090B"/><circle cx="636" cy="60" r="0.9" fill="#09090B"/><circle cx="12" cy="84" r="2.2" fill="#09090B"/><circle cx="36" cy="84" r="0.8" fill="#09090B"/><circle cx="60" cy="84" r="2.2" fill="#09090B"/><circle cx="84" cy="84" r="1.3" fill="#09090B"/><circle cx="108" cy="84" r="1.5" fill="#09090B"/><circle cx="132" cy="84" r="1.3" fill="#09090B"/><circle cx="156" cy="84" r="1.5" fill="#09090B"/><circle cx="180" cy="84" r="1.3" fill="#09090B"/><circle cx="204" cy="84" r="0.8" fill="#09090B"/><circle cx="228" cy="84" r="0.7" fill="#09090B"/><circle cx="252" cy="84" r="1.9" fill="#09090B"/><circle cx="276" cy="84" r="1.4" fill="#09090B"/><circle cx="300" cy="84" r="1.8" fill="#09090B"/><circle cx="324" cy="84" r="0.8" fill="#09090B"/><circle cx="348" cy="84" r="1.4" fill="#09090B"/><circle cx="372" cy="84" r="1.5" fill="#09090B"/><circle cx="396" cy="84" r="1.2" fill="#09090B"/><circle cx="420" cy="84" r="0.9" fill="#09090B"/><circle cx="444" cy="84" r="1.7" fill="#09090B"/><circle cx="468" cy="84" r="1.7" fill="#09090B"/><circle cx="492" cy="84" r="2.0" fill="#09090B"/><circle cx="516" cy="84" r="0.8" fill="#09090B"/><circle cx="540" cy="84" r="0.7" fill="#09090B"/><circle cx="564" cy="84" r="1.6" fill="#09090B"/><circle cx="588" cy="84" r="1.6" fill="#09090B"/><circle cx="612" cy="84" r="0.9" fill="#09090B"/><circle cx="636" cy="84" r="1.7" fill="#09090B"/><circle cx="12" cy="108" r="2.0" fill="#09090B"/><circle cx="36" cy="108" r="1.3" fill="#09090B"/><circle cx="60" cy="108" r="0.8" fill="#09090B"/><circle cx="84" cy="108" r="2.1" fill="#09090B"/><circle cx="108" cy="108" r="0.7" fill="#09090B"/><circle cx="132" cy="108" r="2.0" fill="#09090B"/><circle cx="156" cy="108" r="0.9" fill="#09090B"/><circle cx="180" cy="108" r="1.1" fill="#09090B"/><circle cx="204" cy="108" r="1.8" fill="#09090B"/><circle cx="228" cy="108" r="2.0" fill="#09090B"/><circle cx="252" cy="108" r="0.9" fill="#09090B"/><circle cx="276" cy="108" r="0.7" fill="#09090B"/><circle cx="300" cy="108" r="0.7" fill="#09090B"/><circle cx="324" cy="108" r="1.5" fill="#09090B"/><circle cx="348" cy="108" r="1.6" fill="#09090B"/><circle cx="372" cy="108" r="2.1" fill="#09090B"/><circle cx="396" cy="108" r="1.4" fill="#09090B"/><circle cx="420" cy="108" r="1.5" fill="#09090B"/><circle cx="444" cy="108" r="1.9" fill="#09090B"/><circle cx="468" cy="108" r="1.9" fill="#09090B"/><circle cx="492" cy="108" r="1.3" fill="#09090B"/><circle cx="516" cy="108" r="1.7" fill="#09090B"/><circle cx="540" cy="108" r="1.3" fill="#09090B"/><circle cx="564" cy="108" r="0.8" fill="#09090B"/><circle cx="588" cy="108" r="1.7" fill="#09090B"/><circle cx="612" cy="108" r="1.6" fill="#09090B"/><circle cx="636" cy="108" r="2.2" fill="#09090B"/><circle cx="12" cy="132" r="1.7" fill="#09090B"/><circle cx="36" cy="132" r="0.9" fill="#09090B"/><circle cx="60" cy="132" r="1.8" fill="#09090B"/><circle cx="84" cy="132" r="1.5" fill="#09090B"/><circle cx="108" cy="132" r="0.8" fill="#09090B"/><circle cx="132" cy="132" r="1.4" fill="#09090B"/><circle cx="156" cy="132" r="2.0" fill="#09090B"/><circle cx="180" cy="132" r="1.6" fill="#09090B"/><circle cx="204" cy="132" r="1.3" fill="#09090B"/><circle cx="228" cy="132" r="0.7" fill="#09090B"/><circle cx="252" cy="132" r="1.7" fill="#09090B"/><circle cx="276" cy="132" r="2.2" fill="#09090B"/><circle cx="300" cy="132" r="2.0" fill="#09090B"/><circle cx="324" cy="132" r="1.0" fill="#09090B"/><circle cx="348" cy="132" r="0.8" fill="#09090B"/><circle cx="372" cy="132" r="1.4" fill="#09090B"/><circle cx="396" cy="132" r="1.1" fill="#09090B"/><circle cx="420" cy="132" r="1.5" fill="#09090B"/><circle cx="444" cy="132" r="1.4" fill="#09090B"/><circle cx="468" cy="132" r="1.8" fill="#09090B"/><circle cx="492" cy="132" r="2.1" fill="#09090B"/><circle cx="516" cy="132" r="1.2" fill="#09090B"/><circle cx="540" cy="132" r="1.8" fill="#09090B"/><circle cx="564" cy="132" r="1.7" fill="#09090B"/><circle cx="588" cy="132" r="0.9" fill="#09090B"/><circle cx="612" cy="132" r="1.8" fill="#09090B"/><circle cx="636" cy="132" r="1.1" fill="#09090B"/><circle cx="12" cy="156" r="1.5" fill="#09090B"/><circle cx="36" cy="156" r="1.4" fill="#09090B"/><circle cx="60" cy="156" r="1.7" fill="#09090B"/><circle cx="84" cy="156" r="2.0" fill="#09090B"/><circle cx="108" cy="156" r="2.1" fill="#09090B"/><circle cx="132" cy="156" r="0.7" fill="#09090B"/><circle cx="156" cy="156" r="0.7" fill="#09090B"/><circle cx="180" cy="156" r="0.8" fill="#09090B"/><circle cx="204" cy="156" r="2.0" fill="#09090B"/><circle cx="228" cy="156" r="1.7" fill="#09090B"/><circle cx="252" cy="156" r="1.6" fill="#09090B"/><circle cx="276" cy="156" r="1.3" fill="#09090B"/><circle cx="300" cy="156" r="1.1" fill="#09090B"/><circle cx="324" cy="156" r="1.6" fill="#09090B"/><circle cx="348" cy="156" r="2.1" fill="#09090B"/><circle cx="372" cy="156" r="1.9" fill="#09090B"/><circle cx="396" cy="156" r="1.6" fill="#09090B"/><circle cx="420" cy="156" r="1.1" fill="#09090B"/><circle cx="444" cy="156" r="2.1" fill="#09090B"/><circle cx="468" cy="156" r="1.8" fill="#09090B"/><circle cx="492" cy="156" r="1.4" fill="#09090B"/><circle cx="516" cy="156" r="0.9" fill="#09090B"/><circle cx="540" cy="156" r="2.1" fill="#09090B"/><circle cx="564" cy="156" r="0.8" fill="#09090B"/><circle cx="588" cy="156" r="2.1" fill="#09090B"/><circle cx="612" cy="156" r="0.9" fill="#09090B"/><circle cx="636" cy="156" r="1.9" fill="#09090B"/><circle cx="12" cy="180" r="1.4" fill="#09090B"/><circle cx="36" cy="180" r="1.9" fill="#09090B"/><circle cx="60" cy="180" r="1.4" fill="#09090B"/><circle cx="84" cy="180" r="1.1" fill="#09090B"/><circle cx="108" cy="180" r="1.8" fill="#09090B"/><circle cx="132" cy="180" r="1.2" fill="#09090B"/><circle cx="156" cy="180" r="1.1" fill="#09090B"/><circle cx="180" cy="180" r="1.6" fill="#09090B"/><circle cx="204" cy="180" r="1.7" fill="#09090B"/><circle cx="228" cy="180" r="1.9" fill="#09090B"/><circle cx="252" cy="180" r="1.6" fill="#09090B"/><circle cx="276" cy="180" r="2.0" fill="#09090B"/><circle cx="300" cy="180" r="1.8" fill="#09090B"/><circle cx="324" cy="180" r="0.7" fill="#09090B"/><circle cx="348" cy="180" r="0.9" fill="#09090B"/><circle cx="372" cy="180" r="1.9" fill="#09090B"/><circle cx="396" cy="180" r="1.6" fill="#09090B"/><circle cx="420" cy="180" r="2.2" fill="#09090B"/><circle cx="444" cy="180" r="1.0" fill="#09090B"/><circle cx="468" cy="180" r="1.3" fill="#09090B"/><circle cx="492" cy="180" r="1.2" fill="#09090B"/><circle cx="516" cy="180" r="1.8" fill="#09090B"/><circle cx="540" cy="180" r="1.0" fill="#09090B"/><circle cx="564" cy="180" r="1.4" fill="#09090B"/><circle cx="588" cy="180" r="1.7" fill="#09090B"/><circle cx="612" cy="180" r="1.2" fill="#09090B"/><circle cx="636" cy="180" r="1.1" fill="#09090B"/><circle cx="12" cy="204" r="0.9" fill="#09090B"/><circle cx="36" cy="204" r="2.1" fill="#09090B"/><circle cx="60" cy="204" r="1.8" fill="#09090B"/><circle cx="84" cy="204" r="1.9" fill="#09090B"/><circle cx="108" cy="204" r="1.1" fill="#09090B"/><circle cx="132" cy="204" r="0.9" fill="#09090B"/><circle cx="156" cy="204" r="2.0" fill="#09090B"/><circle cx="180" cy="204" r="2.2" fill="#09090B"/><circle cx="204" cy="204" r="0.9" fill="#09090B"/><circle cx="228" cy="204" r="2.2" fill="#09090B"/><circle cx="252" cy="204" r="1.9" fill="#09090B"/><circle cx="276" cy="204" r="1.5" fill="#09090B"/><circle cx="300" cy="204" r="1.9" fill="#09090B"/><circle cx="324" cy="204" r="1.4" fill="#09090B"/><circle cx="348" cy="204" r="1.5" fill="#09090B"/><circle cx="372" cy="204" r="1.5" fill="#09090B"/><circle cx="396" cy="204" r="1.4" fill="#09090B"/><circle cx="420" cy="204" r="1.2" fill="#09090B"/><circle cx="444" cy="204" r="1.9" fill="#09090B"/><circle cx="468" cy="204" r="1.8" fill="#09090B"/><circle cx="492" cy="204" r="2.2" fill="#09090B"/><circle cx="516" cy="204" r="1.1" fill="#09090B"/><circle cx="540" cy="204" r="0.7" fill="#09090B"/><circle cx="564" cy="204" r="1.3" fill="#09090B"/><circle cx="588" cy="204" r="1.8" fill="#09090B"/><circle cx="612" cy="204" r="2.1" fill="#09090B"/><circle cx="636" cy="204" r="1.6" fill="#09090B"/><circle cx="12" cy="228" r="0.7" fill="#09090B"/><circle cx="36" cy="228" r="1.3" fill="#09090B"/><circle cx="60" cy="228" r="1.5" fill="#09090B"/><circle cx="84" cy="228" r="1.5" fill="#09090B"/><circle cx="108" cy="228" r="1.2" fill="#09090B"/><circle cx="132" cy="228" r="0.8" fill="#09090B"/><circle cx="156" cy="228" r="1.3" fill="#09090B"/><circle cx="180" cy="228" r="1.5" fill="#09090B"/><circle cx="204" cy="228" r="1.1" fill="#09090B"/><circle cx="228" cy="228" r="1.9" fill="#09090B"/><circle cx="252" cy="228" r="1.2" fill="#09090B"/><circle cx="276" cy="228" r="1.4" fill="#09090B"/><circle cx="300" cy="228" r="1.0" fill="#09090B"/><circle cx="324" cy="228" r="1.0" fill="#09090B"/><circle cx="348" cy="228" r="0.8" fill="#09090B"/><circle cx="372" cy="228" r="1.9" fill="#09090B"/><circle cx="396" cy="228" r="1.1" fill="#09090B"/><circle cx="420" cy="228" r="1.5" fill="#09090B"/><circle cx="444" cy="228" r="1.2" fill="#09090B"/><circle cx="468" cy="228" r="1.9" fill="#09090B"/><circle cx="492" cy="228" r="2.0" fill="#09090B"/><circle cx="516" cy="228" r="1.0" fill="#09090B"/><circle cx="540" cy="228" r="2.1" fill="#09090B"/><circle cx="564" cy="228" r="1.4" fill="#09090B"/><circle cx="588" cy="228" r="2.0" fill="#09090B"/><circle cx="612" cy="228" r="1.2" fill="#09090B"/><circle cx="636" cy="228" r="1.4" fill="#09090B"/><circle cx="12" cy="252" r="0.8" fill="#09090B"/><circle cx="36" cy="252" r="1.1" fill="#09090B"/><circle cx="60" cy="252" r="0.7" fill="#09090B"/><circle cx="84" cy="252" r="1.1" fill="#09090B"/><circle cx="108" cy="252" r="1.6" fill="#09090B"/><circle cx="132" cy="252" r="0.8" fill="#09090B"/><circle cx="156" cy="252" r="1.0" fill="#09090B"/><circle cx="180" cy="252" r="2.0" fill="#09090B"/><circle cx="204" cy="252" r="1.5" fill="#09090B"/><circle cx="228" cy="252" r="1.6" fill="#09090B"/><circle cx="252" cy="252" r="1.0" fill="#09090B"/><circle cx="276" cy="252" r="2.1" fill="#09090B"/><circle cx="300" cy="252" r="1.1" fill="#09090B"/><circle cx="324" cy="252" r="0.8" fill="#09090B"/><circle cx="348" cy="252" r="1.3" fill="#09090B"/><circle cx="372" cy="252" r="1.6" fill="#09090B"/><circle cx="396" cy="252" r="1.6" fill="#09090B"/><circle cx="420" cy="252" r="0.9" fill="#09090B"/><circle cx="444" cy="252" r="2.0" fill="#09090B"/><circle cx="468" cy="252" r="1.2" fill="#09090B"/><circle cx="492" cy="252" r="2.2" fill="#09090B"/><circle cx="516" cy="252" r="1.2" fill="#09090B"/><circle cx="540" cy="252" r="0.7" fill="#09090B"/><circle cx="564" cy="252" r="0.7" fill="#09090B"/><circle cx="588" cy="252" r="1.2" fill="#09090B"/><circle cx="612" cy="252" r="1.7" fill="#09090B"/><circle cx="636" cy="252" r="1.4" fill="#09090B"/><circle cx="12" cy="276" r="2.0" fill="#09090B"/><circle cx="36" cy="276" r="2.0" fill="#09090B"/><circle cx="60" cy="276" r="2.0" fill="#09090B"/><circle cx="84" cy="276" r="1.6" fill="#09090B"/><circle cx="108" cy="276" r="2.1" fill="#09090B"/><circle cx="132" cy="276" r="1.7" fill="#09090B"/><circle cx="156" cy="276" r="0.8" fill="#09090B"/><circle cx="180" cy="276" r="1.2" fill="#09090B"/><circle cx="204" cy="276" r="1.0" fill="#09090B"/><circle cx="228" cy="276" r="0.8" fill="#09090B"/><circle cx="252" cy="276" r="2.1" fill="#09090B"/><circle cx="276" cy="276" r="1.4" fill="#09090B"/><circle cx="300" cy="276" r="0.9" fill="#09090B"/><circle cx="324" cy="276" r="2.0" fill="#09090B"/><circle cx="348" cy="276" r="1.2" fill="#09090B"/><circle cx="372" cy="276" r="1.0" fill="#09090B"/><circle cx="396" cy="276" r="1.8" fill="#09090B"/><circle cx="420" cy="276" r="0.9" fill="#09090B"/><circle cx="444" cy="276" r="2.1" fill="#09090B"/><circle cx="468" cy="276" r="2.1" fill="#09090B"/><circle cx="492" cy="276" r="0.8" fill="#09090B"/><circle cx="516" cy="276" r="1.5" fill="#09090B"/><circle cx="540" cy="276" r="0.7" fill="#09090B"/><circle cx="564" cy="276" r="2.1" fill="#09090B"/><circle cx="588" cy="276" r="1.1" fill="#09090B"/><circle cx="612" cy="276" r="1.5" fill="#09090B"/><circle cx="636" cy="276" r="1.8" fill="#09090B"/><circle cx="12" cy="300" r="1.8" fill="#09090B"/><circle cx="36" cy="300" r="1.4" fill="#09090B"/><circle cx="60" cy="300" r="0.8" fill="#09090B"/><circle cx="84" cy="300" r="1.1" fill="#09090B"/><circle cx="108" cy="300" r="0.7" fill="#09090B"/><circle cx="132" cy="300" r="1.0" fill="#09090B"/><circle cx="156" cy="300" r="1.8" fill="#09090B"/><circle cx="180" cy="300" r="1.6" fill="#09090B"/><circle cx="204" cy="300" r="1.3" fill="#09090B"/><circle cx="228" cy="300" r="1.7" fill="#09090B"/><circle cx="252" cy="300" r="1.4" fill="#09090B"/><circle cx="276" cy="300" r="1.2" fill="#09090B"/><circle cx="300" cy="300" r="1.3" fill="#09090B"/><circle cx="324" cy="300" r="1.2" fill="#09090B"/><circle cx="348" cy="300" r="1.2" fill="#09090B"/><circle cx="372" cy="300" r="1.3" fill="#09090B"/><circle cx="396" cy="300" r="1.9" fill="#09090B"/><circle cx="420" cy="300" r="2.1" fill="#09090B"/><circle cx="444" cy="300" r="2.0" fill="#09090B"/><circle cx="468" cy="300" r="1.4" fill="#09090B"/><circle cx="492" cy="300" r="2.1" fill="#09090B"/><circle cx="516" cy="300" r="1.9" fill="#09090B"/><circle cx="540" cy="300" r="0.9" fill="#09090B"/><circle cx="564" cy="300" r="1.9" fill="#09090B"/><circle cx="588" cy="300" r="0.8" fill="#09090B"/><circle cx="612" cy="300" r="1.6" fill="#09090B"/><circle cx="636" cy="300" r="1.2" fill="#09090B"/><circle cx="12" cy="324" r="1.8" fill="#09090B"/><circle cx="36" cy="324" r="1.9" fill="#09090B"/><circle cx="60" cy="324" r="2.1" fill="#09090B"/><circle cx="84" cy="324" r="2.1" fill="#09090B"/><circle cx="108" cy="324" r="1.3" fill="#09090B"/><circle cx="132" cy="324" r="0.7" fill="#09090B"/><circle cx="156" cy="324" r="0.8" fill="#09090B"/><circle cx="180" cy="324" r="2.2" fill="#09090B"/><circle cx="204" cy="324" r="1.2" fill="#09090B"/><circle cx="228" cy="324" r="1.0" fill="#09090B"/><circle cx="252" cy="324" r="0.8" fill="#09090B"/><circle cx="276" cy="324" r="1.2" fill="#09090B"/><circle cx="300" cy="324" r="1.2" fill="#09090B"/><circle cx="324" cy="324" r="1.8" fill="#09090B"/><circle cx="348" cy="324" r="0.9" fill="#09090B"/><circle cx="372" cy="324" r="1.4" fill="#09090B"/><circle cx="396" cy="324" r="2.0" fill="#09090B"/><circle cx="420" cy="324" r="1.3" fill="#09090B"/><circle cx="444" cy="324" r="0.9" fill="#09090B"/><circle cx="468" cy="324" r="1.3" fill="#09090B"/><circle cx="492" cy="324" r="1.0" fill="#09090B"/><circle cx="516" cy="324" r="0.7" fill="#09090B"/><circle cx="540" cy="324" r="1.5" fill="#09090B"/><circle cx="564" cy="324" r="1.1" fill="#09090B"/><circle cx="588" cy="324" r="1.9" fill="#09090B"/><circle cx="612" cy="324" r="1.1" fill="#09090B"/><circle cx="636" cy="324" r="0.8" fill="#09090B"/><circle cx="12" cy="348" r="1.4" fill="#09090B"/><circle cx="36" cy="348" r="1.4" fill="#09090B"/><circle cx="60" cy="348" r="0.9" fill="#09090B"/><circle cx="84" cy="348" r="1.5" fill="#09090B"/><circle cx="108" cy="348" r="1.6" fill="#09090B"/><circle cx="132" cy="348" r="1.9" fill="#09090B"/><circle cx="156" cy="348" r="2.1" fill="#09090B"/><circle cx="180" cy="348" r="1.5" fill="#09090B"/><circle cx="204" cy="348" r="1.9" fill="#09090B"/><circle cx="228" cy="348" r="0.8" fill="#09090B"/><circle cx="252" cy="348" r="1.8" fill="#09090B"/><circle cx="276" cy="348" r="2.2" fill="#09090B"/><circle cx="300" cy="348" r="1.3" fill="#09090B"/><circle cx="324" cy="348" r="1.1" fill="#09090B"/><circle cx="348" cy="348" r="1.0" fill="#09090B"/><circle cx="372" cy="348" r="1.0" fill="#09090B"/><circle cx="396" cy="348" r="1.3" fill="#09090B"/><circle cx="420" cy="348" r="1.3" fill="#09090B"/><circle cx="444" cy="348" r="0.9" fill="#09090B"/><circle cx="468" cy="348" r="1.9" fill="#09090B"/><circle cx="492" cy="348" r="2.2" fill="#09090B"/><circle cx="516" cy="348" r="0.9" fill="#09090B"/><circle cx="540" cy="348" r="1.6" fill="#09090B"/><circle cx="564" cy="348" r="1.3" fill="#09090B"/><circle cx="588" cy="348" r="1.4" fill="#09090B"/><circle cx="612" cy="348" r="1.4" fill="#09090B"/><circle cx="636" cy="348" r="1.3" fill="#09090B"/><circle cx="12" cy="372" r="1.9" fill="#09090B"/><circle cx="36" cy="372" r="2.1" fill="#09090B"/><circle cx="60" cy="372" r="1.1" fill="#09090B"/><circle cx="84" cy="372" r="1.2" fill="#09090B"/><circle cx="108" cy="372" r="0.7" fill="#09090B"/><circle cx="132" cy="372" r="1.3" fill="#09090B"/><circle cx="156" cy="372" r="1.1" fill="#09090B"/><circle cx="180" cy="372" r="0.9" fill="#09090B"/><circle cx="204" cy="372" r="2.0" fill="#09090B"/><circle cx="228" cy="372" r="1.5" fill="#09090B"/><circle cx="252" cy="372" r="1.0" fill="#09090B"/><circle cx="276" cy="372" r="0.9" fill="#09090B"/><circle cx="300" cy="372" r="1.6" fill="#09090B"/><circle cx="324" cy="372" r="1.9" fill="#09090B"/><circle cx="348" cy="372" r="2.0" fill="#09090B"/><circle cx="372" cy="372" r="1.8" fill="#09090B"/><circle cx="396" cy="372" r="1.8" fill="#09090B"/><circle cx="420" cy="372" r="0.9" fill="#09090B"/><circle cx="444" cy="372" r="0.9" fill="#09090B"/><circle cx="468" cy="372" r="1.7" fill="#09090B"/><circle cx="492" cy="372" r="1.6" fill="#09090B"/><circle cx="516" cy="372" r="1.0" fill="#09090B"/><circle cx="540" cy="372" r="1.1" fill="#09090B"/><circle cx="564" cy="372" r="0.7" fill="#09090B"/><circle cx="588" cy="372" r="1.7" fill="#09090B"/><circle cx="612" cy="372" r="1.5" fill="#09090B"/><circle cx="636" cy="372" r="2.0" fill="#09090B"/><circle cx="12" cy="396" r="2.1" fill="#09090B"/><circle cx="36" cy="396" r="1.5" fill="#09090B"/><circle cx="60" cy="396" r="1.2" fill="#09090B"/><circle cx="84" cy="396" r="1.1" fill="#09090B"/><circle cx="108" cy="396" r="1.6" fill="#09090B"/><circle cx="132" cy="396" r="2.1" fill="#09090B"/><circle cx="156" cy="396" r="0.8" fill="#09090B"/><circle cx="180" cy="396" r="1.3" fill="#09090B"/><circle cx="204" cy="396" r="1.8" fill="#09090B"/><circle cx="228" cy="396" r="0.9" fill="#09090B"/><circle cx="252" cy="396" r="1.7" fill="#09090B"/><circle cx="276" cy="396" r="1.0" fill="#09090B"/><circle cx="300" cy="396" r="1.5" fill="#09090B"/><circle cx="324" cy="396" r="2.2" fill="#09090B"/><circle cx="348" cy="396" r="0.7" fill="#09090B"/><circle cx="372" cy="396" r="1.7" fill="#09090B"/><circle cx="396" cy="396" r="1.5" fill="#09090B"/><circle cx="420" cy="396" r="2.0" fill="#09090B"/><circle cx="444" cy="396" r="1.2" fill="#09090B"/><circle cx="468" cy="396" r="2.1" fill="#09090B"/><circle cx="492" cy="396" r="2.2" fill="#09090B"/><circle cx="516" cy="396" r="0.8" fill="#09090B"/><circle cx="540" cy="396" r="1.2" fill="#09090B"/><circle cx="564" cy="396" r="1.0" fill="#09090B"/><circle cx="588" cy="396" r="1.9" fill="#09090B"/><circle cx="612" cy="396" r="2.1" fill="#09090B"/><circle cx="636" cy="396" r="1.9" fill="#09090B"/><circle cx="12" cy="420" r="2.0" fill="#09090B"/><circle cx="36" cy="420" r="1.5" fill="#09090B"/><circle cx="60" cy="420" r="2.0" fill="#09090B"/><circle cx="84" cy="420" r="1.1" fill="#09090B"/><circle cx="108" cy="420" r="0.8" fill="#09090B"/><circle cx="132" cy="420" r="1.8" fill="#09090B"/><circle cx="156" cy="420" r="1.3" fill="#09090B"/><circle cx="180" cy="420" r="0.7" fill="#09090B"/><circle cx="204" cy="420" r="1.9" fill="#09090B"/><circle cx="228" cy="420" r="0.9" fill="#09090B"/><circle cx="252" cy="420" r="1.0" fill="#09090B"/><circle cx="276" cy="420" r="0.8" fill="#09090B"/><circle cx="300" cy="420" r="1.6" fill="#09090B"/><circle cx="324" cy="420" r="0.9" fill="#09090B"/><circle cx="348" cy="420" r="1.1" fill="#09090B"/><circle cx="372" cy="420" r="1.5" fill="#09090B"/><circle cx="396" cy="420" r="2.1" fill="#09090B"/><circle cx="420" cy="420" r="0.7" fill="#09090B"/><circle cx="444" cy="420" r="2.1" fill="#09090B"/><circle cx="468" cy="420" r="1.8" fill="#09090B"/><circle cx="492" cy="420" r="1.1" fill="#09090B"/><circle cx="516" cy="420" r="1.9" fill="#09090B"/><circle cx="540" cy="420" r="1.6" fill="#09090B"/><circle cx="564" cy="420" r="1.4" fill="#09090B"/><circle cx="588" cy="420" r="1.0" fill="#09090B"/><circle cx="612" cy="420" r="1.3" fill="#09090B"/><circle cx="636" cy="420" r="1.2" fill="#09090B"/><circle cx="12" cy="444" r="0.8" fill="#09090B"/><circle cx="36" cy="444" r="0.9" fill="#09090B"/><circle cx="60" cy="444" r="1.1" fill="#09090B"/><circle cx="84" cy="444" r="1.4" fill="#09090B"/><circle cx="108" cy="444" r="1.6" fill="#09090B"/><circle cx="132" cy="444" r="1.8" fill="#09090B"/><circle cx="156" cy="444" r="0.8" fill="#09090B"/><circle cx="180" cy="444" r="0.8" fill="#09090B"/><circle cx="204" cy="444" r="2.0" fill="#09090B"/><circle cx="228" cy="444" r="1.5" fill="#09090B"/><circle cx="252" cy="444" r="1.0" fill="#09090B"/><circle cx="276" cy="444" r="1.0" fill="#09090B"/><circle cx="300" cy="444" r="1.7" fill="#09090B"/><circle cx="324" cy="444" r="1.4" fill="#09090B"/><circle cx="348" cy="444" r="1.3" fill="#09090B"/><circle cx="372" cy="444" r="2.1" fill="#09090B"/><circle cx="396" cy="444" r="0.7" fill="#09090B"/><circle cx="420" cy="444" r="1.6" fill="#09090B"/><circle cx="444" cy="444" r="1.7" fill="#09090B"/><circle cx="468" cy="444" r="1.6" fill="#09090B"/><circle cx="492" cy="444" r="1.6" fill="#09090B"/><circle cx="516" cy="444" r="0.7" fill="#09090B"/><circle cx="540" cy="444" r="2.2" fill="#09090B"/><circle cx="564" cy="444" r="0.7" fill="#09090B"/><circle cx="588" cy="444" r="1.2" fill="#09090B"/><circle cx="612" cy="444" r="1.3" fill="#09090B"/><circle cx="636" cy="444" r="2.0" fill="#09090B"/><circle cx="12" cy="468" r="1.8" fill="#09090B"/><circle cx="36" cy="468" r="2.0" fill="#09090B"/><circle cx="60" cy="468" r="1.5" fill="#09090B"/><circle cx="84" cy="468" r="2.2" fill="#09090B"/><circle cx="108" cy="468" r="1.2" fill="#09090B"/><circle cx="132" cy="468" r="1.3" fill="#09090B"/><circle cx="156" cy="468" r="1.5" fill="#09090B"/><circle cx="180" cy="468" r="1.2" fill="#09090B"/><circle cx="204" cy="468" r="0.9" fill="#09090B"/><circle cx="228" cy="468" r="1.7" fill="#09090B"/><circle cx="252" cy="468" r="1.2" fill="#09090B"/><circle cx="276" cy="468" r="2.0" fill="#09090B"/><circle cx="300" cy="468" r="1.7" fill="#09090B"/><circle cx="324" cy="468" r="0.7" fill="#09090B"/><circle cx="348" cy="468" r="0.8" fill="#09090B"/><circle cx="372" cy="468" r="0.9" fill="#09090B"/><circle cx="396" cy="468" r="1.2" fill="#09090B"/><circle cx="420" cy="468" r="1.0" fill="#09090B"/><circle cx="444" cy="468" r="1.7" fill="#09090B"/><circle cx="468" cy="468" r="1.0" fill="#09090B"/><circle cx="492" cy="468" r="1.3" fill="#09090B"/><circle cx="516" cy="468" r="1.3" fill="#09090B"/><circle cx="540" cy="468" r="2.2" fill="#09090B"/><circle cx="564" cy="468" r="1.4" fill="#09090B"/><circle cx="588" cy="468" r="0.7" fill="#09090B"/><circle cx="612" cy="468" r="2.2" fill="#09090B"/><circle cx="636" cy="468" r="2.2" fill="#09090B"/><circle cx="12" cy="492" r="0.7" fill="#09090B"/><circle cx="36" cy="492" r="2.0" fill="#09090B"/><circle cx="60" cy="492" r="1.6" fill="#09090B"/><circle cx="84" cy="492" r="2.1" fill="#09090B"/><circle cx="108" cy="492" r="1.6" fill="#09090B"/><circle cx="132" cy="492" r="1.6" fill="#09090B"/><circle cx="156" cy="492" r="1.9" fill="#09090B"/><circle cx="180" cy="492" r="0.7" fill="#09090B"/><circle cx="204" cy="492" r="0.8" fill="#09090B"/><circle cx="228" cy="492" r="0.8" fill="#09090B"/><circle cx="252" cy="492" r="0.7" fill="#09090B"/><circle cx="276" cy="492" r="1.0" fill="#09090B"/><circle cx="300" cy="492" r="0.7" fill="#09090B"/><circle cx="324" cy="492" r="0.8" fill="#09090B"/><circle cx="348" cy="492" r="1.2" fill="#09090B"/><circle cx="372" cy="492" r="0.9" fill="#09090B"/><circle cx="396" cy="492" r="0.8" fill="#09090B"/><circle cx="420" cy="492" r="2.1" fill="#09090B"/><circle cx="444" cy="492" r="2.1" fill="#09090B"/><circle cx="468" cy="492" r="2.0" fill="#09090B"/><circle cx="492" cy="492" r="0.8" fill="#09090B"/><circle cx="516" cy="492" r="1.6" fill="#09090B"/><circle cx="540" cy="492" r="2.1" fill="#09090B"/><circle cx="564" cy="492" r="1.3" fill="#09090B"/><circle cx="588" cy="492" r="1.4" fill="#09090B"/><circle cx="612" cy="492" r="2.0" fill="#09090B"/><circle cx="636" cy="492" r="2.1" fill="#09090B"/><circle cx="12" cy="516" r="1.5" fill="#09090B"/><circle cx="36" cy="516" r="1.1" fill="#09090B"/><circle cx="60" cy="516" r="1.8" fill="#09090B"/><circle cx="84" cy="516" r="1.8" fill="#09090B"/><circle cx="108" cy="516" r="1.1" fill="#09090B"/><circle cx="132" cy="516" r="1.4" fill="#09090B"/><circle cx="156" cy="516" r="1.7" fill="#09090B"/><circle cx="180" cy="516" r="1.0" fill="#09090B"/><circle cx="204" cy="516" r="1.3" fill="#09090B"/><circle cx="228" cy="516" r="1.5" fill="#09090B"/><circle cx="252" cy="516" r="1.2" fill="#09090B"/><circle cx="276" cy="516" r="2.0" fill="#09090B"/><circle cx="300" cy="516" r="1.1" fill="#09090B"/><circle cx="324" cy="516" r="1.4" fill="#09090B"/><circle cx="348" cy="516" r="1.9" fill="#09090B"/><circle cx="372" cy="516" r="0.7" fill="#09090B"/><circle cx="396" cy="516" r="1.2" fill="#09090B"/><circle cx="420" cy="516" r="1.0" fill="#09090B"/><circle cx="444" cy="516" r="1.5" fill="#09090B"/><circle cx="468" cy="516" r="2.2" fill="#09090B"/><circle cx="492" cy="516" r="1.3" fill="#09090B"/><circle cx="516" cy="516" r="2.1" fill="#09090B"/><circle cx="540" cy="516" r="0.9" fill="#09090B"/><circle cx="564" cy="516" r="2.1" fill="#09090B"/><circle cx="588" cy="516" r="1.2" fill="#09090B"/><circle cx="612" cy="516" r="1.2" fill="#09090B"/><circle cx="636" cy="516" r="1.1" fill="#09090B"/><circle cx="12" cy="540" r="2.0" fill="#09090B"/><circle cx="36" cy="540" r="1.0" fill="#09090B"/><circle cx="60" cy="540" r="0.7" fill="#09090B"/><circle cx="84" cy="540" r="0.7" fill="#09090B"/><circle cx="108" cy="540" r="1.5" fill="#09090B"/><circle cx="132" cy="540" r="1.6" fill="#09090B"/><circle cx="156" cy="540" r="1.2" fill="#09090B"/><circle cx="180" cy="540" r="1.7" fill="#09090B"/><circle cx="204" cy="540" r="1.5" fill="#09090B"/><circle cx="228" cy="540" r="1.9" fill="#09090B"/><circle cx="252" cy="540" r="1.2" fill="#09090B"/><circle cx="276" cy="540" r="1.8" fill="#09090B"/><circle cx="300" cy="540" r="1.5" fill="#09090B"/><circle cx="324" cy="540" r="2.2" fill="#09090B"/><circle cx="348" cy="540" r="1.7" fill="#09090B"/><circle cx="372" cy="540" r="2.1" fill="#09090B"/><circle cx="396" cy="540" r="1.3" fill="#09090B"/><circle cx="420" cy="540" r="1.7" fill="#09090B"/><circle cx="444" cy="540" r="0.9" fill="#09090B"/><circle cx="468" cy="540" r="1.0" fill="#09090B"/><circle cx="492" cy="540" r="1.6" fill="#09090B"/><circle cx="516" cy="540" r="1.1" fill="#09090B"/><circle cx="540" cy="540" r="2.0" fill="#09090B"/><circle cx="564" cy="540" r="0.8" fill="#09090B"/><circle cx="588" cy="540" r="2.0" fill="#09090B"/><circle cx="612" cy="540" r="2.1" fill="#09090B"/><circle cx="636" cy="540" r="2.2" fill="#09090B"/><circle cx="12" cy="564" r="1.1" fill="#09090B"/><circle cx="36" cy="564" r="1.6" fill="#09090B"/><circle cx="60" cy="564" r="1.6" fill="#09090B"/><circle cx="84" cy="564" r="1.7" fill="#09090B"/><circle cx="108" cy="564" r="1.3" fill="#09090B"/><circle cx="132" cy="564" r="0.8" fill="#09090B"/><circle cx="156" cy="564" r="1.3" fill="#09090B"/><circle cx="180" cy="564" r="1.5" fill="#09090B"/><circle cx="204" cy="564" r="0.8" fill="#09090B"/><circle cx="228" cy="564" r="1.3" fill="#09090B"/><circle cx="252" cy="564" r="2.2" fill="#09090B"/><circle cx="276" cy="564" r="0.9" fill="#09090B"/><circle cx="300" cy="564" r="2.0" fill="#09090B"/><circle cx="324" cy="564" r="1.1" fill="#09090B"/><circle cx="348" cy="564" r="1.6" fill="#09090B"/><circle cx="372" cy="564" r="0.8" fill="#09090B"/><circle cx="396" cy="564" r="2.0" fill="#09090B"/><circle cx="420" cy="564" r="1.7" fill="#09090B"/><circle cx="444" cy="564" r="1.1" fill="#09090B"/><circle cx="468" cy="564" r="1.2" fill="#09090B"/><circle cx="492" cy="564" r="1.2" fill="#09090B"/><circle cx="516" cy="564" r="1.5" fill="#09090B"/><circle cx="540" cy="564" r="1.6" fill="#09090B"/><circle cx="564" cy="564" r="1.7" fill="#09090B"/><circle cx="588" cy="564" r="0.7" fill="#09090B"/><circle cx="612" cy="564" r="1.8" fill="#09090B"/><circle cx="636" cy="564" r="2.2" fill="#09090B"/><circle cx="12" cy="588" r="1.2" fill="#09090B"/><circle cx="36" cy="588" r="1.1" fill="#09090B"/><circle cx="60" cy="588" r="1.5" fill="#09090B"/><circle cx="84" cy="588" r="1.9" fill="#09090B"/><circle cx="108" cy="588" r="1.3" fill="#09090B"/><circle cx="132" cy="588" r="1.2" fill="#09090B"/><circle cx="156" cy="588" r="1.0" fill="#09090B"/><circle cx="180" cy="588" r="1.9" fill="#09090B"/><circle cx="204" cy="588" r="1.2" fill="#09090B"/><circle cx="228" cy="588" r="2.2" fill="#09090B"/><circle cx="252" cy="588" r="1.6" fill="#09090B"/><circle cx="276" cy="588" r="1.0" fill="#09090B"/><circle cx="300" cy="588" r="1.2" fill="#09090B"/><circle cx="324" cy="588" r="2.2" fill="#09090B"/><circle cx="348" cy="588" r="2.0" fill="#09090B"/><circle cx="372" cy="588" r="2.1" fill="#09090B"/><circle cx="396" cy="588" r="0.7" fill="#09090B"/><circle cx="420" cy="588" r="1.1" fill="#09090B"/><circle cx="444" cy="588" r="2.0" fill="#09090B"/><circle cx="468" cy="588" r="1.1" fill="#09090B"/><circle cx="492" cy="588" r="1.5" fill="#09090B"/><circle cx="516" cy="588" r="1.1" fill="#09090B"/><circle cx="540" cy="588" r="1.6" fill="#09090B"/><circle cx="564" cy="588" r="1.3" fill="#09090B"/><circle cx="588" cy="588" r="1.9" fill="#09090B"/><circle cx="612" cy="588" r="1.8" fill="#09090B"/><circle cx="636" cy="588" r="1.3" fill="#09090B"/><circle cx="12" cy="612" r="1.4" fill="#09090B"/><circle cx="36" cy="612" r="0.7" fill="#09090B"/><circle cx="60" cy="612" r="1.7" fill="#09090B"/><circle cx="84" cy="612" r="1.4" fill="#09090B"/><circle cx="108" cy="612" r="0.7" fill="#09090B"/><circle cx="132" cy="612" r="0.8" fill="#09090B"/><circle cx="156" cy="612" r="1.0" fill="#09090B"/><circle cx="180" cy="612" r="1.3" fill="#09090B"/><circle cx="204" cy="612" r="1.4" fill="#09090B"/><circle cx="228" cy="612" r="1.7" fill="#09090B"/><circle cx="252" cy="612" r="2.1" fill="#09090B"/><circle cx="276" cy="612" r="0.9" fill="#09090B"/><circle cx="300" cy="612" r="0.9" fill="#09090B"/><circle cx="324" cy="612" r="1.3" fill="#09090B"/><circle cx="348" cy="612" r="1.3" fill="#09090B"/><circle cx="372" cy="612" r="1.8" fill="#09090B"/><circle cx="396" cy="612" r="2.0" fill="#09090B"/><circle cx="420" cy="612" r="1.6" fill="#09090B"/><circle cx="444" cy="612" r="1.7" fill="#09090B"/><circle cx="468" cy="612" r="1.8" fill="#09090B"/><circle cx="492" cy="612" r="0.8" fill="#09090B"/><circle cx="516" cy="612" r="1.2" fill="#09090B"/><circle cx="540" cy="612" r="1.2" fill="#09090B"/><circle cx="564" cy="612" r="0.8" fill="#09090B"/><circle cx="588" cy="612" r="1.1" fill="#09090B"/><circle cx="612" cy="612" r="0.9" fill="#09090B"/><circle cx="636" cy="612" r="1.7" fill="#09090B"/><circle cx="12" cy="636" r="1.1" fill="#09090B"/><circle cx="36" cy="636" r="1.2" fill="#09090B"/><circle cx="60" cy="636" r="2.1" fill="#09090B"/><circle cx="84" cy="636" r="1.4" fill="#09090B"/><circle cx="108" cy="636" r="2.2" fill="#09090B"/><circle cx="132" cy="636" r="1.6" fill="#09090B"/><circle cx="156" cy="636" r="1.5" fill="#09090B"/><circle cx="180" cy="636" r="1.9" fill="#09090B"/><circle cx="204" cy="636" r="1.0" fill="#09090B"/><circle cx="228" cy="636" r="2.0" fill="#09090B"/><circle cx="252" cy="636" r="1.3" fill="#09090B"/><circle cx="276" cy="636" r="0.8" fill="#09090B"/><circle cx="300" cy="636" r="1.5" fill="#09090B"/><circle cx="324" cy="636" r="0.8" fill="#09090B"/><circle cx="348" cy="636" r="1.5" fill="#09090B"/><circle cx="372" cy="636" r="1.6" fill="#09090B"/><circle cx="396" cy="636" r="1.8" fill="#09090B"/><circle cx="420" cy="636" r="1.7" fill="#09090B"/><circle cx="444" cy="636" r="0.7" fill="#09090B"/><circle cx="468" cy="636" r="0.7" fill="#09090B"/><circle cx="492" cy="636" r="1.8" fill="#09090B"/><circle cx="516" cy="636" r="1.5" fill="#09090B"/><circle cx="540" cy="636" r="2.1" fill="#09090B"/><circle cx="564" cy="636" r="1.3" fill="#09090B"/><circle cx="588" cy="636" r="0.8" fill="#09090B"/><circle cx="612" cy="636" r="0.7" fill="#09090B"/><circle cx="636" cy="636" r="0.7" fill="#09090B"/></g><circle cx="320" cy="320" r="180" fill="#09090B"/><circle cx="320" cy="320" r="90" fill="#D2E823"/></svg>