<svg width="135" height="31" viewBox="0 0 135 31" fill="none" xmlns="http://www.w3.org/2000/svg">
<path d="M15.3299 10.2222C18.1536 10.2222 20.4409 7.93476 20.4409 5.11106C20.4409 2.28736 18.1521 0 15.3299 0C12.5078 0 10.2188 2.28736 10.2188 5.11106C10.2188 7.93476 12.5078 10.2222 15.3299 10.2222Z" fill="white"/>
<path d="M5.1111 10.0039C2.2889 10.0039 0 12.2929 0 15.115C0 17.9372 2.2889 20.2262 5.1111 20.2262C7.9333 20.2262 10.2222 17.9372 10.2222 15.115C10.2222 12.2929 7.9348 10.0039 5.1111 10.0039Z" fill="white"/>
<path d="M25.5564 10.0039C22.7327 10.0039 20.4453 12.2929 20.4453 15.115C20.4453 17.9372 22.7327 20.2262 25.5564 20.2262C28.3801 20.2262 30.6675 17.9372 30.6675 15.115C30.6675 12.2929 28.3786 10.0039 25.5564 10.0039Z" fill="white"/>
<path d="M15.3299 20.0117C12.5078 20.0117 10.2188 22.299 10.2188 25.1227C10.2188 27.9465 12.5078 30.2339 15.3299 30.2339C18.1521 30.2339 20.4409 27.9465 20.4409 25.1227C20.4409 22.299 18.1521 20.0117 15.3299 20.0117Z" fill="white"/>
<path d="M49.7622 21.4172C46.1622 21.4172 44.1622 19.2772 43.6222 16.4972L46.6222 16.2172C46.8822 17.6172 48.0822 18.7372 49.9422 18.7372C51.3622 18.7372 52.4422 18.0972 52.4422 17.1572C52.4422 16.2972 51.5622 15.7972 49.3222 15.3772C45.5622 14.6972 43.7022 13.2172 43.7022 10.9372C43.7022 8.55719 45.7222 6.61719 49.2622 6.61719C52.5422 6.61719 54.6622 8.27719 55.2622 11.0172L52.2422 11.4972C51.9822 10.1372 50.9622 9.29719 49.1622 9.29719C47.6422 9.29719 46.7622 9.89719 46.7622 10.7572C46.7622 11.6772 47.8222 12.1772 49.9622 12.5772C53.9422 13.3172 55.5022 14.7372 55.5022 16.8572C55.5022 19.4772 53.2422 21.4172 49.7622 21.4172ZM56.5952 21.6772C56.7752 22.1372 57.0352 22.4172 57.4152 22.4172C57.9552 22.4172 58.3152 21.8572 58.6552 21.0172L58.8752 20.4972L54.8952 10.7172H57.8752L59.8752 16.3572C60.0552 16.8172 60.1152 17.2572 60.1152 17.6772H60.3752C60.3752 17.2572 60.4352 16.8172 60.5752 16.3572L62.4752 10.7172H65.4552L61.7352 20.2172C60.4952 23.3572 59.4552 24.6172 57.5352 24.6172C55.8752 24.6172 54.7952 23.6972 54.4352 22.2572L56.5952 21.6772ZM65.7039 21.1172V10.7172H68.4039C68.4239 10.8972 68.4439 11.0772 68.4439 11.2972C68.4439 11.8572 68.3239 12.4172 68.0839 12.9772H68.3439C68.9439 11.5772 70.2039 10.4172 72.1239 10.4172C74.1039 10.4172 75.6239 11.6772 75.6239 14.3772V21.1172H72.9239V15.3372C72.9239 13.7372 72.4039 12.8372 71.0239 12.8372C69.7439 12.8372 68.4039 13.6372 68.4039 16.1772V21.1172H65.7039ZM81.5775 21.4172C78.4775 21.4172 76.2775 19.3772 76.2775 15.9172C76.2775 12.7972 78.1175 10.4172 81.5575 10.4172C85.0175 10.4172 86.3775 12.8372 86.3775 15.1972C86.3775 15.5972 86.3375 15.9972 86.2375 16.4772H79.1175C79.2975 18.2972 80.3175 19.1772 81.5775 19.1772C82.8575 19.1772 83.6375 18.2772 83.8975 17.4372L86.3575 18.1772C85.8175 19.8172 84.3375 21.4172 81.5775 21.4172ZM79.1775 14.7772H83.7775C83.7175 13.5772 82.9775 12.6572 81.5575 12.6572C80.3775 12.6572 79.4575 13.3172 79.1775 14.7772ZM87.2289 21.1172V10.7172H89.9289C89.9489 10.8972 89.9689 11.0772 89.9689 11.2972C89.9689 11.8772 89.8489 12.4972 89.6289 13.0172H89.8889C90.4289 11.3972 91.3089 10.4172 92.7689 10.4172C93.2889 10.4172 93.7889 10.5372 94.1289 10.7572L93.8689 13.6372C93.5289 13.3972 93.1089 13.2172 92.4889 13.2172C90.7889 13.2172 89.9289 14.4572 89.9289 16.9772V21.1172H87.2289ZM97.6981 24.6172C94.5581 24.6172 93.4581 23.5172 93.4581 22.3972C93.4581 21.5172 94.1181 20.8572 95.2581 20.4772V20.1972C94.2981 19.9572 93.6781 19.2772 93.6781 18.4372C93.6781 17.5372 94.3981 16.8772 95.1981 16.6172C94.7181 15.9972 94.4381 15.2172 94.4381 14.2572C94.4381 11.7172 96.3981 10.4172 98.6581 10.4172C99.3581 10.4172 100.038 10.5372 100.618 10.7972L103.818 9.47719V11.5772H101.798C102.418 12.2172 102.818 13.0972 102.818 14.2572C102.818 16.7372 100.998 18.0572 98.6381 18.0572C97.5981 18.0572 96.6581 17.7972 95.9381 17.3172C95.6581 17.4572 95.5181 17.6772 95.5181 17.9172C95.5181 18.5772 96.5181 18.9972 98.8581 18.9972H101.158C103.198 18.9972 103.998 19.9372 103.998 21.1172C103.998 23.3772 101.078 24.6172 97.6981 24.6172ZM98.6381 16.0372C99.6981 16.0372 100.118 15.2572 100.118 14.2572C100.118 13.2572 99.6981 12.4372 98.6381 12.4372C97.5981 12.4372 97.1381 13.2372 97.1381 14.2572C97.1381 15.2572 97.5781 16.0372 98.6381 16.0372ZM95.2781 21.6972C95.2781 22.1972 95.9981 22.5372 97.6781 22.5372C99.6981 22.5372 101.378 22.0972 101.378 21.4172C101.378 21.0772 100.918 20.9972 100.218 20.9972H98.7981C97.9981 20.9972 97.3381 20.9372 96.7981 20.8572C96.0981 20.9372 95.2781 21.1772 95.2781 21.6972ZM109.002 21.4172C105.902 21.4172 103.702 19.3772 103.702 15.9172C103.702 12.7972 105.542 10.4172 108.982 10.4172C112.442 10.4172 113.802 12.8372 113.802 15.1972C113.802 15.5972 113.762 15.9972 113.662 16.4772H106.542C106.722 18.2972 107.742 19.1772 109.002 19.1772C110.282 19.1772 111.062 18.2772 111.322 17.4372L113.782 18.1772C113.242 19.8172 111.762 21.4172 109.002 21.4172ZM106.602 14.7772H111.202C111.142 13.5772 110.402 12.6572 108.982 12.6572C107.802 12.6572 106.882 13.3172 106.602 14.7772ZM117.953 21.4172C116.093 21.4172 114.473 20.3172 114.473 17.1772V10.7172H117.173V16.5372C117.173 18.4772 118.113 18.9972 119.113 18.9972C120.773 18.9972 121.373 17.5772 121.373 15.7372V10.7172H124.073V20.0972C124.073 20.5572 124.153 20.8172 124.193 20.9572V21.1172H121.393C121.333 20.9572 121.273 20.7572 121.273 20.4172C121.273 19.9572 121.353 19.6172 121.613 18.9572H121.353C120.753 20.3572 119.773 21.4172 117.953 21.4172ZM129.612 21.4172C127.132 21.4172 125.352 20.1172 124.932 17.8572L127.392 17.6372C127.612 18.7772 128.512 19.2572 129.632 19.2572C130.792 19.2572 131.352 18.7572 131.352 18.1572C131.352 17.7372 131.032 17.3772 129.912 17.1572L128.712 16.8972C126.572 16.4572 125.072 15.5972 125.072 13.6972C125.072 11.4572 127.152 10.4172 129.312 10.4172C131.552 10.4172 133.472 11.5172 133.852 13.8372L131.332 14.0972C131.212 13.1572 130.432 12.5772 129.312 12.5772C128.432 12.5772 127.672 12.9372 127.672 13.5572C127.672 14.0972 128.312 14.3772 129.772 14.6972L130.372 14.8372C132.552 15.3372 133.952 16.0772 133.952 17.9372C133.952 20.0372 132.192 21.4172 129.612 21.4172Z" fill="url(#paint0_linear_0_450)"/>
<defs>
<linearGradient id="paint0_linear_0_450" x1="42.6675" y1="15.1172" x2="152" y2="15.0002" gradientUnits="userSpaceOnUse">
<stop stop-color="white"/>
<stop offset="1" stop-color="white" stop-opacity="0.4"/>
</linearGradient>
</defs>
</svg>
