<svg width="36" height="38" viewBox="0 0 36 38" fill="none" xmlns="http://www.w3.org/2000/svg">
<foreignObject x="-4.02601" y="-4.02601" width="44.052" height="44.052"><div xmlns="http://www.w3.org/1999/xhtml" style="backdrop-filter:blur(2.01px);clip-path:url(#bgblur_0_19124_3614_clip_path);height:100%;width:100%"></div></foreignObject><g data-figma-bg-blur-radius="4.02601">
<path d="M0 18C0 8.05888 8.05888 0 18 0C27.9411 0 36 8.05888 36 18C36 27.9411 27.9411 36 18 36C8.05888 36 0 27.9411 0 18Z" fill="#E6E6FF"/>
<g filter="url(#filter1_d_19124_3614)">
<path d="M18.9491 7.20703L9.58203 20.3731H17.0496L17.0496 28.7904L26.4166 15.6243L18.9491 15.6243V7.20703Z" fill="#9F9FFF" shape-rendering="crispEdges"/>
<path d="M19.0254 6.96875C19.1289 7.0019 19.1992 7.09833 19.1992 7.20703V15.374H26.417C26.5104 15.3742 26.5958 15.4267 26.6387 15.5098C26.6816 15.5929 26.6744 15.6933 26.6201 15.7695L17.2529 28.9355C17.1898 29.0239 17.0771 29.0613 16.9736 29.0283C16.87 28.9952 16.7998 28.8988 16.7998 28.79V20.623H9.58203C9.48847 20.623 9.40227 20.5705 9.35938 20.4873C9.31684 20.4044 9.32408 20.3045 9.37793 20.2285L18.7451 7.0625C18.8082 6.97388 18.9218 6.93565 19.0254 6.96875Z" stroke="url(#paint0_linear_19124_3614)" stroke-width="0.5" strokeLinecap="round" stroke-linejoin="round" shape-rendering="crispEdges"/>
</g>
</g>
<defs>
<clipPath id="bgblur_0_19124_3614_clip_path" transform="translate(4.02601 4.02601)"><path d="M0 18C0 8.05888 8.05888 0 18 0C27.9411 0 36 8.05888 36 18C36 27.9411 27.9411 36 18 36C8.05888 36 0 27.9411 0 18Z"/>
</clipPath><filter id="filter1_d_19124_3614" x="4.08203" y="4.70703" width="27.8359" height="32.582" filterUnits="userSpaceOnUse" color-interpolation-filters="sRGB">
<feFlood flood-opacity="0" result="BackgroundImageFix"/>
<feColorMatrix in="SourceAlpha" type="matrix" values="0 0 0 0 0 0 0 0 0 0 0 0 0 0 0 0 0 0 127 0" result="hardAlpha"/>
<feOffset dy="3"/>
<feGaussianBlur stdDeviation="2.5"/>
<feComposite in2="hardAlpha" operator="out"/>
<feColorMatrix type="matrix" values="0 0 0 0 0.623529 0 0 0 0 0.623529 0 0 0 0 1 0 0 0 0.5 0"/>
<feBlend mode="normal" in2="BackgroundImageFix" result="effect1_dropShadow_19124_3614"/>
<feBlend mode="normal" in="SourceGraphic" in2="effect1_dropShadow_19124_3614" result="shape"/>
</filter>
<linearGradient id="paint0_linear_19124_3614" x1="17.9993" y1="7.20703" x2="17.9993" y2="28.7904" gradientUnits="userSpaceOnUse">
<stop stop-color="#9F9FFF" stop-opacity="0.6"/>
<stop offset="1" stop-color="#9FC7FF" stop-opacity="0.2"/>
</linearGradient>
</defs>
</svg>
