<svg xmlns="http://www.w3.org/2000/svg" width="1600" height="900" viewBox="0 0 1600 900">
  <defs>
    <radialGradient id="bg" cx="55%" cy="30%" r="90%">
      <stop offset="0%" stop-color="#3a1466"/>
      <stop offset="45%" stop-color="#1d0b3d"/>
      <stop offset="100%" stop-color="#0a0518"/>
    </radialGradient>
    <linearGradient id="wave" x1="0" y1="0" x2="1" y2="1">
      <stop offset="0%" stop-color="#7C3AED"/>
      <stop offset="40%" stop-color="#C026D3"/>
      <stop offset="75%" stop-color="#EC4899"/>
      <stop offset="100%" stop-color="#F472B6"/>
    </linearGradient>
    <linearGradient id="wave2" x1="0" y1="0" x2="1" y2="0">
      <stop offset="0%" stop-color="#5B21B6" stop-opacity="0"/>
      <stop offset="50%" stop-color="#9333EA" stop-opacity="0.9"/>
      <stop offset="100%" stop-color="#DB2777" stop-opacity="0"/>
    </linearGradient>
    <filter id="blur" x="-30%" y="-30%" width="160%" height="160%">
      <feGaussianBlur stdDeviation="34"/>
    </filter>
    <filter id="blur2" x="-30%" y="-30%" width="160%" height="160%">
      <feGaussianBlur stdDeviation="18"/>
    </filter>
  </defs>
  <rect width="1600" height="900" fill="url(#bg)"/>
  <path d="M-100 560 C 300 360, 620 700, 980 460 C 1240 290, 1450 540, 1750 360 L 1750 950 L -100 950 Z"
        fill="url(#wave)" opacity="0.55" filter="url(#blur)"/>
  <path d="M-100 640 C 260 520, 560 780, 920 560 C 1200 400, 1420 640, 1750 470 L 1750 950 L -100 950 Z"
        fill="url(#wave2)" opacity="0.8" filter="url(#blur2)"/>
  <ellipse cx="820" cy="430" rx="520" ry="200" fill="#EC4899" opacity="0.35" filter="url(#blur)"/>
  <ellipse cx="520" cy="360" rx="360" ry="160" fill="#7C3AED" opacity="0.45" filter="url(#blur)"/>
</svg>
