<svg width="99" height="27" viewBox="0 0 99 27" fill="none" xmlns="http://www.w3.org/2000/svg">
<g clip-path="url(#clip0_15211_3859)">
<path fill-rule="evenodd" clip-rule="evenodd" d="M11.102 0C11.4627 0 11.7551 0.292385 11.7551 0.653061V5.48342C11.7551 5.62885 11.931 5.70168 12.0338 5.59885L17.25 0.382653C17.4949 0.137754 17.8271 5.21102e-05 18.1735 0H23.8928C24.066 2.63849e-05 24.2322 0.0688771 24.3546 0.191327L26.3138 2.15051C26.5688 2.40553 26.5688 2.81896 26.3138 3.07398L23.7889 5.59885C23.6861 5.7017 23.7589 5.87753 23.9043 5.87755H29.1173C29.2905 5.87758 29.4567 5.94643 29.5791 6.06888L31.5383 8.02808C31.7932 8.2831 31.7932 8.69649 31.5383 8.95151L28.9656 11.5242C28.8381 11.6517 28.8381 11.8585 28.9656 11.986L31.0765 14.0969C31.6679 14.6883 32 15.4903 32 16.3265C32 17.1628 31.6678 17.9648 31.0765 18.5561L23.8928 25.7398C23.6479 25.9847 23.3157 26.1224 22.9694 26.1224H20.898C20.5373 26.1224 20.2449 25.8301 20.2449 25.4694V20.639C20.2449 20.4936 20.069 20.4208 19.9662 20.5236L14.75 25.7398C14.5051 25.9847 14.1729 26.1224 13.8265 26.1224H8.10717C7.93398 26.1224 7.76784 26.0536 7.64539 25.9311L5.68622 23.9719C5.43126 23.7169 5.43126 23.3035 5.68622 23.0485L8.21107 20.5236C8.31393 20.4208 8.24111 20.2449 8.09567 20.2449H2.88265C2.70949 20.2449 2.54337 20.176 2.42092 20.0536L0.461735 18.0944C0.206763 17.8393 0.206764 17.426 0.461735 17.1709L3.03444 14.5982C3.16193 14.4707 3.16193 14.264 3.03444 14.1365L0.923468 12.0255C0.332181 11.4342 0 10.6322 0 9.79592C0 8.95967 0.33218 8.15765 0.923468 7.5663L8.10717 0.382653C8.35207 0.137754 8.68428 5.22751e-05 9.0306 0H11.102ZM13.1078 5.87755C12.2418 5.87755 11.4108 6.22182 10.7985 6.83416L3.82271 13.81C3.61705 14.0157 3.76271 14.3673 4.05357 14.3673H13.5791C13.8699 14.3674 14.0155 14.7191 13.81 14.9247L9.04718 19.6875C8.84153 19.8932 8.98717 20.2448 9.27804 20.2449H18.8922C19.7582 20.2449 20.5892 19.9006 21.2015 19.2883L28.1773 12.3125C28.3701 12.1197 28.2542 11.7984 27.9993 11.759L27.9464 11.7551H18.4209C18.13 11.7551 17.9844 11.4034 18.19 11.1977L22.9528 6.43495C23.1585 6.22926 23.0128 5.87759 22.722 5.87755H13.1078Z" fill="#6F65E8"/>
</g>
<path d="M44 20.092V5.80005H45.8225L53.8413 16.8691L52.978 17.0034V5.80005H55.2225V20.092H53.4001L45.4388 8.9462L46.2637 8.79273V20.092H44Z" fill="black"/>
<path d="M62.4598 20.3222C61.4239 20.3222 60.503 20.0856 59.6973 19.6124C58.9044 19.1264 58.2841 18.4742 57.8365 17.6557C57.3889 16.8244 57.165 15.8971 57.165 14.874C57.165 13.8253 57.3889 12.8981 57.8365 12.0923C58.2969 11.2866 58.9108 10.6536 59.6781 10.1931C60.4455 9.71994 61.3151 9.48334 62.2871 9.48334C63.0673 9.48334 63.7643 9.61763 64.3782 9.8862C64.9921 10.1548 65.51 10.5257 65.9321 10.9989C66.3541 11.4593 66.6738 11.99 66.8912 12.5911C67.1215 13.1922 67.2366 13.8317 67.2366 14.5095C67.2366 14.6758 67.2302 14.8484 67.2174 15.0275C67.2046 15.2065 67.179 15.3728 67.1406 15.5262H58.8724V13.7997H65.9129L64.8769 14.5862C65.0048 13.9596 64.9601 13.4032 64.7427 12.9172C64.538 12.4185 64.2183 12.0284 63.7835 11.747C63.3614 11.4529 62.8626 11.3058 62.2871 11.3058C61.7116 11.3058 61.2 11.4529 60.7524 11.747C60.3048 12.0284 59.9595 12.4377 59.7165 12.9748C59.4735 13.4992 59.3776 14.1386 59.4287 14.8932C59.3648 15.5966 59.4607 16.2105 59.7165 16.7348C59.9851 17.2592 60.356 17.6684 60.8292 17.9626C61.3152 18.2567 61.8651 18.4038 62.479 18.4038C63.1056 18.4038 63.6364 18.2631 64.0712 17.9818C64.5188 17.7004 64.8706 17.3359 65.1263 16.8883L66.8912 17.7516C66.6866 18.2376 66.3669 18.6788 65.9321 19.0753C65.51 19.4589 64.9984 19.7659 64.3974 19.9961C63.809 20.2135 63.1632 20.3222 62.4598 20.3222Z" fill="black"/>
<path d="M73.9755 20.3222C72.9779 20.3222 72.0635 20.0856 71.2322 19.6124C70.4137 19.1392 69.7614 18.4933 69.2754 17.6748C68.7894 16.8563 68.5465 15.9291 68.5465 14.8932C68.5465 13.8445 68.7894 12.9172 69.2754 12.1115C69.7614 11.293 70.4137 10.6536 71.2322 10.1931C72.0507 9.71994 72.9651 9.48334 73.9755 9.48334C74.9986 9.48334 75.913 9.71994 76.7188 10.1931C77.5373 10.6536 78.1831 11.293 78.6563 12.1115C79.1423 12.9172 79.3853 13.8445 79.3853 14.8932C79.3853 15.9419 79.1423 16.8755 78.6563 17.694C78.1703 18.5125 77.5181 19.1584 76.6996 19.6316C75.8811 20.092 74.973 20.3222 73.9755 20.3222ZM73.9755 18.3079C74.5894 18.3079 75.1329 18.1608 75.6061 17.8667C76.0793 17.5725 76.4502 17.1697 76.7188 16.6581C77.0001 16.1337 77.1408 15.5454 77.1408 14.8932C77.1408 14.2409 77.0001 13.659 76.7188 13.1475C76.4502 12.6359 76.0793 12.233 75.6061 11.9389C75.1329 11.6447 74.5894 11.4976 73.9755 11.4976C73.3744 11.4976 72.8308 11.6447 72.3449 11.9389C71.8716 12.233 71.4944 12.6359 71.213 13.1475C70.9444 13.659 70.8101 14.2409 70.8101 14.8932C70.8101 15.5454 70.9444 16.1337 71.213 16.6581C71.4944 17.1697 71.8716 17.5725 72.3449 17.8667C72.8308 18.1608 73.3744 18.3079 73.9755 18.3079Z" fill="black"/>
<path d="M79.7074 20.092L83.3331 14.8932L79.7074 9.71355H82.2588L85.2323 14.0491H84.0046L86.9781 9.71355H89.5295L85.8846 14.8932L89.5103 20.092H86.9589L84.0238 15.7373H85.2132L82.2588 20.092H79.7074Z" fill="black"/>
<path d="M93.5464 20.3222C92.843 20.3222 92.2227 20.2007 91.6856 19.9577C91.1612 19.7019 90.752 19.3566 90.4578 18.9218C90.1637 18.4742 90.0166 17.9498 90.0166 17.3487C90.0166 16.786 90.1381 16.2808 90.3811 15.8332C90.6369 15.3856 91.0269 15.0083 91.5513 14.7013C92.0757 14.3944 92.7343 14.177 93.5272 14.0491L97.1338 13.4544V15.1618L93.9493 15.7181C93.3738 15.8204 92.9517 16.0058 92.6832 16.2744C92.4146 16.5302 92.2803 16.8627 92.2803 17.272C92.2803 17.6684 92.4274 17.9946 92.7215 18.2504C93.0285 18.4933 93.4185 18.6148 93.8917 18.6148C94.48 18.6148 94.9916 18.487 95.4264 18.2312C95.8741 17.9754 96.2194 17.6365 96.4624 17.2144C96.7054 16.7796 96.8269 16.3 96.8269 15.7756V13.1091C96.8269 12.5975 96.635 12.1819 96.2513 11.8621C95.8805 11.5296 95.3817 11.3634 94.755 11.3634C94.1795 11.3634 93.6743 11.5168 93.2395 11.8238C92.8174 12.1179 92.5041 12.5016 92.2995 12.9748L90.4962 12.0732C90.688 11.5616 91.0014 11.114 91.4362 10.7303C91.871 10.3338 92.3762 10.0269 92.9517 9.80947C93.54 9.59205 94.1603 9.48334 94.8126 9.48334C95.6311 9.48334 96.3537 9.63681 96.9803 9.94376C97.6198 10.2507 98.1122 10.6791 98.4575 11.2291C98.8156 11.7662 98.9946 12.3929 98.9946 13.1091V20.092H96.9228V18.212L97.364 18.2695C97.121 18.6916 96.8077 19.0561 96.424 19.363C96.0531 19.67 95.6247 19.9066 95.1387 20.0728C94.6655 20.2391 94.1347 20.3222 93.5464 20.3222Z" fill="black"/>
<defs>
<clipPath id="clip0_15211_3859">
<rect width="32" height="26.1224" fill="white"/>
</clipPath>
</defs>
</svg>
