<svg xmlns="http://www.w3.org/2000/svg" width="110" height="28" viewBox="0 0 110 28" fill="none"><path d="M16.3562 13.2586C16.3681 12.3258 16.6131 11.4112 17.0685 10.5999C17.524 9.78856 18.175 9.10691 18.961 8.61833C18.4617 7.89731 17.8029 7.30395 17.0371 6.88535C16.2713 6.46676 15.4195 6.23448 14.5494 6.20696C12.6932 6.00997 10.8938 7.32993 9.94792 7.32993C8.98376 7.32993 7.52746 6.22651 5.95927 6.25914C4.94492 6.29227 3.95636 6.5905 3.0899 7.12477C2.22345 7.65903 1.50864 8.41112 1.01514 9.30774C-1.1226 13.0499 0.471963 18.5495 2.51974 21.5744C3.54429 23.0555 4.74169 24.7101 6.30846 24.6514C7.84165 24.5871 8.41426 23.6629 10.2649 23.6629C12.0984 23.6629 12.6357 24.6514 14.2342 24.6141C15.8794 24.5871 16.916 23.1263 17.9046 21.6311C18.6407 20.5757 19.2071 19.4093 19.5829 18.175C18.6271 17.7663 17.8115 17.0821 17.2377 16.2078C16.6639 15.3336 16.3573 14.3078 16.3562 13.2586Z" fill="#FFFFFF"></path><path d="M13.3368 4.21761C14.2338 3.12886 14.6757 1.72945 14.5687 0.316576C13.1983 0.462107 11.9323 1.12434 11.0232 2.17132C10.5787 2.68279 10.2383 3.27783 10.0213 3.92242C9.80442 4.567 9.71528 5.24849 9.75902 5.92793C10.4445 5.93507 11.1226 5.78485 11.7423 5.48859C12.3621 5.19234 12.9072 4.75777 13.3368 4.21761Z" fill="#FFFFFF"></path><path d="M35.7366 20.9017H30.5046L29.2481 24.6527H27.032L31.9878 10.7747H34.2902L39.2459 24.6527H36.992L35.7366 20.9017ZM31.0465 19.1707H35.1937L33.1493 13.083H33.0921L31.0465 19.1707Z" fill="#FFFFFF"></path><path d="M49.9486 19.5942C49.9486 22.7385 48.2841 24.7586 45.7722 24.7586C45.1359 24.7923 44.5031 24.6441 43.9462 24.331C43.3894 24.0179 42.9309 23.5526 42.6235 22.9884H42.5759V28H40.5218V14.5345H42.5101V16.2174H42.5479C42.8695 15.6559 43.3357 15.193 43.8968 14.878C44.4579 14.563 45.093 14.4077 45.7344 14.4286C48.2743 14.4287 49.9486 16.4586 49.9486 19.5942ZM47.8372 19.5942C47.8372 17.5457 46.7901 16.1989 45.1925 16.1989C43.623 16.1989 42.5673 17.574 42.5673 19.5942C42.5673 21.6329 43.623 22.9982 45.1925 22.9982C46.7901 22.9982 47.8372 21.6613 47.8372 19.5942Z" fill="#FFFFFF"></path><path d="M60.9632 19.5942C60.9632 22.7385 59.2987 24.7586 56.7868 24.7586C56.1505 24.7923 55.5177 24.6441 54.9608 24.331C54.404 24.0179 53.9456 23.5526 53.6381 22.9884H53.5906V28H51.5364V14.5345H53.5247V16.2174H53.5625C53.8841 15.6559 54.3502 15.193 54.9114 14.878C55.4725 14.563 56.1075 14.4077 56.749 14.4287C59.2889 14.4287 60.9632 16.4586 60.9632 19.5942ZM58.8518 19.5942C58.8518 17.5457 57.8047 16.1989 56.2071 16.1989C54.6376 16.1989 53.5819 17.574 53.5819 19.5942C53.5819 21.6329 54.6376 22.9982 56.2071 22.9982C57.8047 22.9982 58.8518 21.6613 58.8518 19.5942Z" fill="#FFFFFF"></path><path d="M68.2429 20.786C68.3951 22.1622 69.7174 23.0658 71.5244 23.0658C73.2558 23.0658 74.5015 22.1622 74.5015 20.9212C74.5015 19.844 73.7502 19.1991 71.9713 18.757L70.1924 18.3237C67.6719 17.7082 66.5018 16.5164 66.5018 14.5825C66.5018 12.188 68.5657 10.5433 71.4963 10.5433C74.3968 10.5433 76.3851 12.188 76.4521 14.5825H74.3784C74.2543 13.1975 73.122 12.3615 71.4672 12.3615C69.8124 12.3615 68.6801 13.2073 68.6801 14.4384C68.6801 15.4196 69.4033 15.9969 71.1725 16.4389L72.6848 16.8143C75.501 17.4877 76.6712 18.6315 76.6712 20.6615C76.6712 23.2579 74.6256 24.884 71.3722 24.884C68.3281 24.884 66.2729 23.2961 66.1401 20.7859L68.2429 20.786Z" fill="#FFFFFF"></path><path d="M81.1044 12.14V14.5345H83.0075V16.1792H81.1044V21.7573C81.1044 22.6238 81.4855 23.0277 82.322 23.0277C82.548 23.0237 82.7735 23.0076 82.9978 22.9796V24.6145C82.6217 24.6856 82.2394 24.7177 81.8568 24.7105C79.8307 24.7105 79.0406 23.9411 79.0406 21.9788V16.1792H77.5855V14.5345H79.0405V12.14H81.1044Z" fill="#FFFFFF"></path><path d="M84.1096 19.5942C84.1096 16.4106 85.9641 14.4101 88.856 14.4101C91.7575 14.4101 93.6033 16.4106 93.6033 19.5942C93.6033 22.7865 91.7672 24.7782 88.856 24.7782C85.9457 24.7782 84.1096 22.7865 84.1096 19.5942ZM91.5103 19.5942C91.5103 17.4103 90.5204 16.1214 88.8559 16.1214C87.1914 16.1214 86.2027 17.4201 86.2027 19.5942C86.2027 21.7868 87.1914 23.0659 88.8559 23.0659C90.5204 23.0659 91.5103 21.7868 91.5103 19.5942Z" fill="#FFFFFF"></path><path d="M95.2969 14.5345H97.2561V16.2567H97.3036C97.4362 15.7188 97.7478 15.2435 98.1862 14.9106C98.6246 14.5777 99.1629 14.4075 99.7108 14.4286C99.9475 14.4278 100.184 14.4538 100.415 14.5061V16.4488C100.116 16.3565 99.804 16.3141 99.4916 16.3233C99.1932 16.311 98.8957 16.3642 98.6195 16.4792C98.3434 16.5942 98.0951 16.7683 97.8917 16.9894C97.6884 17.2106 97.5348 17.4736 97.4414 17.7605C97.3481 18.0473 97.3173 18.3512 97.3511 18.6512V24.6527H95.2969L95.2969 14.5345Z" fill="#FFFFFF"></path><path d="M109.886 21.6809C109.609 23.5177 107.84 24.7782 105.576 24.7782C102.665 24.7782 100.858 22.8061 100.858 19.6422C100.858 16.4684 102.675 14.4101 105.49 14.4101C108.259 14.4101 110 16.3331 110 19.401V20.1126H102.932V20.2381C102.899 20.6105 102.945 20.9856 103.067 21.3386C103.189 21.6915 103.384 22.0143 103.638 22.2853C103.893 22.5564 104.202 22.7696 104.544 22.9108C104.886 23.0519 105.254 23.1178 105.624 23.1041C106.109 23.15 106.597 23.0364 107.013 22.78C107.429 22.5235 107.753 22.1381 107.935 21.6809L109.886 21.6809ZM102.942 18.661H107.945C107.963 18.3262 107.913 17.9912 107.797 17.6769C107.682 17.3626 107.503 17.0759 107.272 16.8348C107.042 16.5936 106.765 16.4033 106.458 16.2756C106.151 16.148 105.822 16.0858 105.49 16.093C105.156 16.091 104.824 16.156 104.514 16.2842C104.205 16.4124 103.924 16.6014 103.687 16.8401C103.45 17.0789 103.262 17.3627 103.134 17.6753C103.006 17.9878 102.941 18.3228 102.942 18.661Z" fill="#FFFFFF"></path><path d="M30.789 0.328567C31.2197 0.29732 31.6518 0.363101 32.0543 0.521163C32.4568 0.679225 32.8195 0.925629 33.1164 1.2426C33.4133 1.55957 33.6369 1.93921 33.7711 2.35414C33.9053 2.76906 33.9467 3.20893 33.8924 3.642C33.8924 5.77239 32.7536 6.99697 30.789 6.99697H28.4067V0.328567H30.789ZM29.4311 6.05391H30.6746C30.9823 6.07251 31.2903 6.0215 31.5761 5.90458C31.8619 5.78767 32.1183 5.6078 32.3266 5.37806C32.535 5.14833 32.69 4.87451 32.7805 4.57654C32.871 4.27858 32.8946 3.96396 32.8497 3.65559C32.8914 3.34845 32.8653 3.03578 32.7734 2.74C32.6816 2.44422 32.5261 2.17264 32.3183 1.94473C32.1104 1.71683 31.8552 1.53823 31.5711 1.42174C31.2869 1.30524 30.9808 1.25374 30.6746 1.27092H29.4311V6.05391Z" fill="#FFFFFF"></path><path d="M35.0496 4.47851C35.0183 4.1478 35.0557 3.81413 35.1594 3.49889C35.2632 3.18366 35.4309 2.89382 35.6519 2.64798C35.8729 2.40213 36.1423 2.2057 36.4428 2.07128C36.7433 1.93686 37.0682 1.86743 37.3968 1.86743C37.7254 1.86743 38.0504 1.93686 38.3509 2.07128C38.6513 2.2057 38.9207 2.40213 39.1417 2.64798C39.3627 2.89382 39.5305 3.18366 39.6342 3.49889C39.7379 3.81413 39.7754 4.1478 39.7441 4.47851C39.776 4.80956 39.739 5.1437 39.6355 5.45944C39.5321 5.77518 39.3644 6.06555 39.1434 6.31188C38.9223 6.55821 38.6527 6.75505 38.3519 6.88976C38.0511 7.02447 37.7258 7.09406 37.3968 7.09406C37.0678 7.09406 36.7425 7.02447 36.4417 6.88976C36.1409 6.75505 35.8713 6.55821 35.6503 6.31188C35.4292 6.06555 35.2616 5.77518 35.1581 5.45944C35.0547 5.1437 35.0177 4.80956 35.0496 4.47851ZM38.7337 4.47851C38.7337 3.38768 38.249 2.74977 37.3984 2.74977C36.5446 2.74977 36.0643 3.38768 36.0643 4.47852C36.0643 5.5781 36.5446 6.21109 37.3984 6.21109C38.2491 6.21108 38.7337 5.57371 38.7337 4.47851Z" fill="#FFFFFF"></path><path d="M45.9843 6.99687H44.9653L43.9366 3.29053H43.8589L42.8345 6.99687H41.8252L40.4533 1.9645H41.4496L42.3412 5.80449H42.4146L43.4379 1.9645H44.3803L45.4036 5.80449H45.4813L46.3686 1.9645H47.3509L45.9843 6.99687Z" fill="#FFFFFF"></path><path d="M48.5048 1.9645H49.4504V2.76394H49.5238C49.6483 2.47681 49.8583 2.23611 50.1246 2.0754C50.3908 1.91468 50.7 1.84196 51.0091 1.86736C51.2513 1.84895 51.4945 1.88587 51.7206 1.97538C51.9468 2.0649 52.1501 2.20471 52.3156 2.38446C52.481 2.56422 52.6043 2.77931 52.6764 3.0138C52.7485 3.24829 52.7674 3.49617 52.7319 3.73908V6.99681H51.7496V3.98848C51.7496 3.17976 51.402 2.77758 50.6756 2.77758C50.5111 2.76984 50.347 2.79813 50.1944 2.86053C50.0418 2.92292 49.9043 3.01794 49.7915 3.13907C49.6786 3.2602 49.5929 3.40457 49.5404 3.5623C49.4879 3.72002 49.4697 3.88737 49.4871 4.05286V6.99687H48.5048L48.5048 1.9645Z" fill="#FFFFFF"></path><path d="M54.2971 0H55.2794V6.99686H54.2971V0Z" fill="#FFFFFF"></path><path d="M56.6449 4.47851C56.6136 4.14778 56.651 3.81409 56.7548 3.49884C56.8585 3.18359 57.0263 2.89375 57.2473 2.6479C57.4684 2.40204 57.7378 2.20561 58.0383 2.07119C58.3388 1.93677 58.6638 1.86733 58.9924 1.86733C59.321 1.86733 59.646 1.93677 59.9465 2.07119C60.247 2.20561 60.5164 2.40204 60.7374 2.6479C60.9585 2.89375 61.1262 3.18359 61.23 3.49884C61.3337 3.81409 61.3712 4.14778 61.3399 4.47851C61.3717 4.80958 61.3347 5.14371 61.2312 5.45946C61.1278 5.7752 60.9601 6.06556 60.739 6.31188C60.5179 6.5582 60.2483 6.75504 59.9475 6.88974C59.6467 7.02444 59.3214 7.09403 58.9924 7.09403C58.6634 7.09403 58.338 7.02444 58.0372 6.88974C57.7364 6.75504 57.4668 6.5582 57.2458 6.31188C57.0247 6.06556 56.857 5.7752 56.7535 5.45946C56.65 5.14371 56.613 4.80958 56.6449 4.47851ZM60.329 4.47851C60.329 3.38768 59.8443 2.74977 58.9937 2.74977C58.1399 2.74977 57.6596 3.38768 57.6596 4.47852C57.6596 5.5781 58.1399 6.21109 58.9937 6.21109C59.8443 6.21108 60.329 5.57371 60.329 4.47851Z" fill="#FFFFFF"></path><path d="M62.374 5.57371C62.374 4.66786 63.0411 4.14564 64.2252 4.07142L65.5735 3.99285V3.55848C65.5735 3.02697 65.2259 2.72684 64.5545 2.72684C64.0061 2.72684 63.6262 2.93039 63.5171 3.28618H62.5661C62.6665 2.4218 63.4707 1.86738 64.5998 1.86738C65.8476 1.86738 66.5514 2.49546 66.5514 3.55848V6.99688H65.6059V6.28967H65.5281C65.3704 6.54335 65.1489 6.75016 64.8862 6.88897C64.6236 7.02779 64.3292 7.09364 64.0331 7.07979C63.8242 7.10177 63.613 7.07923 63.4132 7.01363C63.2134 6.94803 63.0294 6.84083 62.8731 6.69893C62.7167 6.55703 62.5916 6.38359 62.5056 6.18978C62.4197 5.99598 62.3748 5.78611 62.374 5.57371ZM65.5735 5.1437V4.72298L64.358 4.80156C63.6726 4.84794 63.3617 5.08368 63.3617 5.52732C63.3617 5.98024 63.7503 6.24381 64.2846 6.24381C64.4412 6.25984 64.5994 6.24385 64.7497 6.19682C64.9 6.14978 65.0395 6.07264 65.1597 5.97C65.28 5.86736 65.3786 5.74132 65.4496 5.59936C65.5207 5.45741 65.5628 5.30245 65.5735 5.1437Z" fill="#FFFFFF"></path><path d="M67.8424 4.47851C67.8424 2.88837 68.6509 1.88102 69.9085 1.88102C70.2196 1.86652 70.5283 1.94185 70.7986 2.0982C71.0688 2.25454 71.2895 2.48544 71.4348 2.7639H71.5082V0H72.4905V6.99686H71.5492V6.20178H71.4715C71.315 6.47837 71.0866 6.7064 70.8111 6.86116C70.5356 7.01593 70.2235 7.09153 69.9085 7.07979C68.6423 7.07985 67.8424 6.07248 67.8424 4.47851ZM68.8572 4.47851C68.8572 5.54589 69.3548 6.18817 70.187 6.18817C71.0149 6.18817 71.5266 5.53662 71.5266 4.48288C71.5266 3.43406 71.0096 2.77322 70.187 2.77322C69.3601 2.77322 68.8572 3.41986 68.8572 4.47851Z" fill="#FFFFFF"></path><path d="M76.5546 4.47851C76.5233 4.1478 76.5607 3.81413 76.6645 3.49889C76.7682 3.18366 76.9359 2.89382 77.1569 2.64798C77.3779 2.40213 77.6473 2.2057 77.9478 2.07128C78.2483 1.93686 78.5733 1.86743 78.9019 1.86743C79.2304 1.86743 79.5554 1.93686 79.8559 2.07128C80.1564 2.2057 80.4258 2.40213 80.6468 2.64798C80.8678 2.89382 81.0355 3.18366 81.1392 3.49889C81.243 3.81413 81.2804 4.1478 81.2491 4.47851C81.281 4.80956 81.244 5.1437 81.1406 5.45944C81.0371 5.77518 80.8695 6.06555 80.6484 6.31188C80.4273 6.55821 80.1578 6.75505 79.857 6.88976C79.5562 7.02447 79.2308 7.09406 78.9019 7.09406C78.5729 7.09406 78.2475 7.02447 77.9467 6.88976C77.646 6.75505 77.3764 6.55821 77.1553 6.31188C76.9342 6.06555 76.7666 5.77518 76.6631 5.45944C76.5597 5.1437 76.5227 4.80956 76.5546 4.47851ZM80.2387 4.47851C80.2387 3.38768 79.7541 2.74977 78.9035 2.74977C78.0496 2.74977 77.5693 3.38768 77.5693 4.47852C77.5693 5.5781 78.0497 6.21109 78.9035 6.21109C79.7541 6.21108 80.2387 5.57371 80.2387 4.47851Z" fill="#FFFFFF"></path><path d="M82.5671 1.9645H83.5127V2.76394H83.5861C83.7106 2.47681 83.9206 2.23611 84.1869 2.0754C84.4531 1.91468 84.7623 1.84196 85.0714 1.86736C85.3136 1.84895 85.5568 1.88587 85.7829 1.97538C86.0091 2.0649 86.2124 2.20471 86.3778 2.38446C86.5433 2.56422 86.6666 2.77931 86.7387 3.0138C86.8108 3.24829 86.8297 3.49617 86.7942 3.73908V6.99681H85.8119V3.98848C85.8119 3.17976 85.4643 2.77758 84.7379 2.77758C84.5734 2.76984 84.4093 2.79813 84.2567 2.86053C84.1041 2.92292 83.9666 3.01794 83.8537 3.13907C83.7409 3.2602 83.6552 3.40457 83.6027 3.5623C83.5501 3.72002 83.532 3.88737 83.5494 4.05286V6.99687H82.5671V1.9645Z" fill="#FFFFFF"></path><path d="M92.3447 0.711595V1.98742H93.423V2.82397H92.3447V5.41164C92.3447 5.93878 92.5595 6.16961 93.0485 6.16961C93.1737 6.1692 93.2987 6.16155 93.423 6.14668V6.97395C93.2466 7.00586 93.0679 7.02283 92.8887 7.0247C91.7963 7.0247 91.3613 6.63616 91.3613 5.66593V2.82393H90.5712V1.98738H91.3613V0.711595H92.3447Z" fill="#FFFFFF"></path><path d="M94.7648 0H95.7384V2.77321H95.8161C95.9467 2.4834 96.1625 2.24134 96.4341 2.08002C96.7057 1.9187 97.0198 1.84597 97.3338 1.87173C97.5747 1.85847 97.8156 1.89914 98.0391 1.99083C98.2627 2.08252 98.4636 2.22297 98.6273 2.40216C98.791 2.58135 98.9136 2.79486 98.9863 3.02747C99.059 3.26008 99.0801 3.50604 99.0479 3.74782V6.99687H98.0647V3.99282C98.0647 3.18902 97.6944 2.78193 97.0003 2.78193C96.8315 2.76793 96.6617 2.7914 96.5028 2.85069C96.3438 2.90998 96.1997 3.00366 96.0803 3.12519C95.9609 3.24671 95.8693 3.39313 95.8117 3.55422C95.7542 3.7153 95.7321 3.88716 95.7471 4.05775V6.99685H94.7648L94.7648 0Z" fill="#FFFFFF"></path><path d="M104.776 5.6381C104.642 6.09803 104.353 6.49586 103.959 6.76202C103.564 7.02817 103.09 7.14568 102.619 7.094C102.291 7.10275 101.965 7.03925 101.664 6.9079C101.363 6.77656 101.093 6.58051 100.874 6.33337C100.656 6.08623 100.493 5.79392 100.397 5.47673C100.301 5.15954 100.275 4.82506 100.32 4.49652C100.276 4.16696 100.303 3.83176 100.398 3.51362C100.494 3.19547 100.656 2.90181 100.874 2.65251C101.091 2.40321 101.359 2.20409 101.66 2.06863C101.96 1.93317 102.286 1.86454 102.614 1.86737C103.999 1.86737 104.835 2.82402 104.835 4.40427V4.75082H101.32V4.80647C101.305 4.99115 101.328 5.17704 101.388 5.35222C101.447 5.5274 101.543 5.688 101.668 5.82374C101.792 5.95948 101.944 6.06735 102.112 6.14043C102.281 6.21352 102.462 6.25021 102.646 6.24815C102.881 6.27667 103.119 6.23389 103.33 6.12526C103.54 6.01662 103.715 5.84703 103.83 5.63806L104.776 5.6381ZM101.32 4.0163H103.834C103.847 3.84741 103.824 3.67776 103.768 3.51826C103.711 3.35876 103.623 3.21294 103.507 3.09017C103.392 2.96739 103.252 2.87038 103.098 2.80537C102.943 2.74035 102.777 2.70877 102.609 2.71265C102.439 2.71049 102.271 2.74274 102.113 2.8075C101.956 2.87226 101.813 2.96821 101.693 3.08971C101.573 3.2112 101.478 3.35578 101.414 3.51492C101.35 3.67406 101.318 3.84453 101.32 4.0163Z" fill="#FFFFFF"></path></svg>