<svg xmlns="http://www.w3.org/2000/svg" width="1600" height="1000" viewBox="0 0 1600 1000" preserveAspectRatio="xMidYMid slice">
  <defs>
    <radialGradient id="g1" cx="28%" cy="34%" r="70%">
      <stop offset="0%" stop-color="#0c3d2e"/>
      <stop offset="38%" stop-color="#0a221b"/>
      <stop offset="100%" stop-color="#050505"/>
    </radialGradient>
    <radialGradient id="g2" cx="78%" cy="22%" r="55%">
      <stop offset="0%" stop-color="#34d399" stop-opacity="0.55"/>
      <stop offset="55%" stop-color="#0f5132" stop-opacity="0.18"/>
      <stop offset="100%" stop-color="#050505" stop-opacity="0"/>
    </radialGradient>
    <radialGradient id="g3" cx="62%" cy="92%" r="60%">
      <stop offset="0%" stop-color="#1d4d3c" stop-opacity="0.6"/>
      <stop offset="100%" stop-color="#050505" stop-opacity="0"/>
    </radialGradient>
    <linearGradient id="streak" x1="0" y1="0" x2="1" y2="1">
      <stop offset="0%" stop-color="#34d399" stop-opacity="0"/>
      <stop offset="50%" stop-color="#6ee7b7" stop-opacity="0.8"/>
      <stop offset="100%" stop-color="#34d399" stop-opacity="0"/>
    </linearGradient>
    <filter id="soft"><feGaussianBlur stdDeviation="60"/></filter>
    <filter id="soft2"><feGaussianBlur stdDeviation="24"/></filter>
    <filter id="grain">
      <feTurbulence type="fractalNoise" baseFrequency="0.9" numOctaves="2" stitchTiles="stitch"/>
      <feColorMatrix type="saturate" values="0"/>
      <feComponentTransfer><feFuncA type="linear" slope="0.12"/></feComponentTransfer>
    </filter>
  </defs>
  <rect width="1600" height="1000" fill="url(#g1)"/>
  <rect width="1600" height="1000" fill="url(#g2)"/>
  <rect width="1600" height="1000" fill="url(#g3)"/>
  <g filter="url(#soft)" opacity="0.85">
    <ellipse cx="1180" cy="230" rx="360" ry="300" fill="#34d399" opacity="0.30"/>
    <ellipse cx="320" cy="760" rx="420" ry="320" fill="#0e6b4c" opacity="0.45"/>
  </g>
  <g filter="url(#soft2)" stroke="url(#streak)" fill="none" stroke-width="2" opacity="0.55">
    <path d="M-100 640 C 380 420, 760 760, 1240 420 S 1800 540, 1900 360"/>
    <path d="M-100 760 C 420 560, 820 880, 1300 540 S 1820 660, 1900 480"/>
    <path d="M-100 520 C 340 300, 720 620, 1200 300 S 1780 420, 1900 240"/>
  </g>
  <g opacity="0.22" stroke="#6ee7b7" stroke-width="1" fill="none">
    <circle cx="1180" cy="230" r="120"/>
    <circle cx="1180" cy="230" r="200"/>
    <circle cx="1180" cy="230" r="290"/>
  </g>
  <rect width="1600" height="1000" filter="url(#grain)" opacity="0.5"/>
</svg>
