<svg width="166" height="37" viewBox="0 0 166 37" fill="none" xmlns="http://www.w3.org/2000/svg">
<path d="M47.518 22.1799V8.17993H56.358V9.79993H49.318V14.2999H55.618V15.9199H49.318V22.1799H47.518ZM57.7549 22.1799V20.6599H59.7349V13.6999H58.0349V12.1799H61.5349V20.6599H63.3749V22.1799H57.7549ZM59.6349 10.3199V8.15993H61.4749V10.3199H59.6349ZM65.2715 22.1799V20.6599H67.2515V9.69993H65.5915V8.17993H69.0515V20.6599H70.8915V22.1799H65.2715ZM77.188 22.4199C75.648 22.4199 74.448 21.9599 73.588 20.9599C72.748 20.0199 72.368 18.7199 72.368 17.1599C72.368 15.6799 72.788 14.3799 73.628 13.4399C74.508 12.4399 75.728 11.9399 77.168 11.9399C78.748 11.9399 80.248 12.6199 81.068 13.9199C81.668 14.8799 81.988 16.2999 81.908 17.7199H74.328C74.368 19.9199 75.288 20.9799 77.168 20.9799C78.868 20.9799 79.788 20.2599 80.028 18.7399L81.768 18.8799C81.328 21.2199 79.728 22.4199 77.188 22.4199ZM80.068 16.2599C80.048 15.6999 79.868 14.9799 79.528 14.4799C79.008 13.7199 78.268 13.3999 77.188 13.3999C76.068 13.3999 75.228 13.8199 74.828 14.4799C74.468 15.0599 74.348 15.7799 74.348 16.2599H80.068ZM90.8638 22.1799V8.17993H93.5838L95.7038 14.7799C96.2638 16.6199 96.6638 17.8599 96.8638 18.7799H96.9038C97.1038 17.6399 97.6038 16.2999 98.0638 14.7799L100.164 8.17993H102.884V22.1799H101.144V13.6799C101.144 13.2599 101.184 11.3199 101.244 10.1799H101.204C100.764 12.0399 100.404 13.0599 100.204 13.7199L97.8638 20.7799H95.8838L93.5838 13.7199C93.3638 13.0199 92.8638 11.4199 92.5638 10.1799H92.5038C92.5638 11.3199 92.6038 13.2599 92.6038 13.6799V22.1799H90.8638ZM107.908 22.4199C106.228 22.4199 104.548 21.4999 104.548 19.5399C104.548 17.3799 106.368 16.7799 107.948 16.4799L111.248 15.8399C111.248 14.9399 111.208 14.4399 110.908 14.0199C110.628 13.6199 109.968 13.3599 109.088 13.3599C107.348 13.3599 106.648 13.9999 106.648 15.5199L104.888 15.2799C104.928 14.0799 105.348 13.1999 106.128 12.6799C106.848 12.1999 107.908 11.9399 109.188 11.9399C111.708 11.9399 112.988 13.0599 112.988 15.2399V20.0199C112.988 20.5399 112.988 20.7799 113.568 20.7799C113.728 20.7799 113.888 20.7599 114.148 20.6999L114.188 22.1799C113.808 22.2399 113.468 22.2599 113.068 22.2599C111.968 22.2599 111.368 21.7599 111.268 20.6999C110.708 21.8399 109.608 22.4199 107.908 22.4199ZM108.188 20.9799C110.368 20.9799 111.248 19.8399 111.248 18.3999V17.1799L108.228 17.8399C107.168 18.0799 106.388 18.3799 106.388 19.5199C106.388 20.4599 107.208 20.9799 108.188 20.9799ZM115.55 22.1799V12.1799H117.35V13.6999C117.85 12.5799 118.83 11.9399 120.43 11.9399C121.75 11.9399 122.69 12.2999 123.41 13.0599C124.17 13.8799 124.19 15.2599 124.19 16.2399V22.1799H122.33V16.3399C122.33 15.4199 122.33 14.5999 121.73 14.0199C121.17 13.4599 120.51 13.4399 119.95 13.4399C119.07 13.4399 117.35 13.7999 117.35 16.6599V22.1799H115.55ZM129.365 22.4199C127.685 22.4199 126.005 21.4999 126.005 19.5399C126.005 17.3799 127.825 16.7799 129.405 16.4799L132.705 15.8399C132.705 14.9399 132.665 14.4399 132.365 14.0199C132.085 13.6199 131.425 13.3599 130.545 13.3599C128.805 13.3599 128.105 13.9999 128.105 15.5199L126.345 15.2799C126.385 14.0799 126.805 13.1999 127.585 12.6799C128.305 12.1999 129.365 11.9399 130.645 11.9399C133.165 11.9399 134.445 13.0599 134.445 15.2399V20.0199C134.445 20.5399 134.445 20.7799 135.025 20.7799C135.185 20.7799 135.345 20.7599 135.605 20.6999L135.645 22.1799C135.265 22.2399 134.925 22.2599 134.525 22.2599C133.425 22.2599 132.825 21.7599 132.725 20.6999C132.165 21.8399 131.065 22.4199 129.365 22.4199ZM129.645 20.9799C131.825 20.9799 132.705 19.8399 132.705 18.3999V17.1799L129.685 17.8399C128.625 18.0799 127.845 18.3799 127.845 19.5199C127.845 20.4599 128.665 20.9799 129.645 20.9799ZM141.067 26.2799C139.087 26.2799 136.907 25.4199 136.807 22.8999L138.527 22.7799C138.607 24.4399 139.667 24.8799 141.267 24.8799C142.887 24.8799 144.067 23.8999 144.067 22.0799V20.3799C143.327 21.5199 142.287 22.0999 140.907 22.0999C138.147 22.0999 136.327 20.0399 136.327 16.9199C136.327 13.9599 138.167 11.9399 140.847 11.9399C142.347 11.9399 143.367 12.5199 144.067 13.5799V12.1799H145.867V21.9599C145.867 24.6399 144.007 26.2799 141.067 26.2799ZM141.187 20.6599C142.127 20.6599 142.787 20.3399 143.247 19.8399C143.907 19.1199 144.147 17.9999 144.147 16.9199C144.147 14.5599 143.107 13.3799 141.227 13.3799C140.207 13.3799 139.507 13.6599 139.047 14.1999C138.487 14.7999 138.287 15.7399 138.287 16.9199C138.287 19.2599 138.887 20.6599 141.187 20.6599ZM152.278 22.4199C150.738 22.4199 149.538 21.9599 148.678 20.9599C147.838 20.0199 147.458 18.7199 147.458 17.1599C147.458 15.6799 147.878 14.3799 148.718 13.4399C149.598 12.4399 150.818 11.9399 152.258 11.9399C153.838 11.9399 155.338 12.6199 156.158 13.9199C156.758 14.8799 157.078 16.2999 156.998 17.7199H149.418C149.458 19.9199 150.378 20.9799 152.258 20.9799C153.958 20.9799 154.878 20.2599 155.118 18.7399L156.858 18.8799C156.418 21.2199 154.818 22.4199 152.278 22.4199ZM155.158 16.2599C155.138 15.6999 154.958 14.9799 154.618 14.4799C154.098 13.7199 153.358 13.3999 152.278 13.3999C151.158 13.3999 150.318 13.8199 149.918 14.4799C149.558 15.0599 149.438 15.7799 149.438 16.2599H155.158ZM159.596 22.1799V12.1799H161.396V14.0999C161.776 12.7999 163.376 12.0399 165.096 11.9399H165.736L165.696 13.6399C165.536 13.6199 165.316 13.6199 165.076 13.6199C163.016 13.6199 161.396 14.2999 161.396 17.5999V22.1799H159.596Z" fill="#1F2937"/>
<g filter="url(#filter0_d_53052_58878)">
<g filter="url(#filter1_n_53052_58878)">
<mask id="path-2-inside-1_53052_58878" fill="white">
<path d="M14.9668 1.86865C16.2059 1.86871 17.3842 2.40396 18.2002 3.33643L19.485 4.80383C19.821 5.1876 20.3062 5.40771 20.8163 5.40771H31.8418C33.6565 5.40791 35.1278 6.87914 35.1279 8.69385V25.3784C35.1279 27.0537 33.7691 28.4116 32.0938 28.4116H9.96973C8.29454 28.4115 6.9366 27.0536 6.93652 25.3784V3.63818C6.93652 2.6609 7.72877 1.86865 8.70605 1.86865H14.9668Z"/>
</mask>
<path d="M14.9668 1.86865C16.2059 1.86871 17.3842 2.40396 18.2002 3.33643L19.485 4.80383C19.821 5.1876 20.3062 5.40771 20.8163 5.40771H31.8418C33.6565 5.40791 35.1278 6.87914 35.1279 8.69385V25.3784C35.1279 27.0537 33.7691 28.4116 32.0938 28.4116H9.96973C8.29454 28.4115 6.9366 27.0536 6.93652 25.3784V3.63818C6.93652 2.6609 7.72877 1.86865 8.70605 1.86865H14.9668Z" fill="#3758F9"/>
<path d="M14.9668 1.86865L14.9668 1.50645H14.9668V1.86865ZM18.2002 3.33643L17.9276 3.57495L17.9277 3.57502L18.2002 3.33643ZM31.8418 5.40771L31.8418 5.04552H31.8418V5.40771ZM35.1279 8.69385H35.4901V8.69382L35.1279 8.69385ZM35.1279 25.3784L35.4901 25.3784V25.3784H35.1279ZM9.96973 28.4116L9.9697 28.7738H9.96973V28.4116ZM6.93652 25.3784H6.57433V25.3784L6.93652 25.3784ZM19.485 4.80383L19.2124 5.04242L19.485 4.80383ZM14.9668 1.86865L14.9668 2.23085C16.1013 2.2309 17.1803 2.72099 17.9276 3.57495L18.2002 3.33643L18.4728 3.0979C17.5881 2.08693 16.3104 1.50651 14.9668 1.50645L14.9668 1.86865ZM18.2002 3.33643L17.9277 3.57502L19.2124 5.04242L19.485 4.80383L19.7575 4.56524L18.4727 3.09783L18.2002 3.33643ZM20.8163 5.40771V5.76991H31.8418V5.40771V5.04552H20.8163V5.40771ZM31.8418 5.40771L31.8418 5.76991C33.4565 5.77009 34.7656 7.0792 34.7657 8.69388L35.1279 8.69385L35.4901 8.69382C35.49 6.67909 33.8565 5.04574 31.8418 5.04552L31.8418 5.40771ZM35.1279 8.69385H34.7657V25.3784H35.1279H35.4901V8.69385H35.1279ZM35.1279 25.3784L34.7657 25.3784C34.7657 26.8535 33.5691 28.0494 32.0938 28.0494V28.4116V28.7738C33.969 28.7738 35.49 27.2539 35.4901 25.3784L35.1279 25.3784ZM32.0938 28.4116V28.0494H9.96973V28.4116V28.7738H32.0938V28.4116ZM9.96973 28.4116L9.96976 28.0494C8.49457 28.0493 7.29879 26.8536 7.29872 25.3784L6.93652 25.3784L6.57433 25.3784C6.57441 27.2537 8.09451 28.7737 9.9697 28.7738L9.96973 28.4116ZM6.93652 25.3784H7.29872V3.63818H6.93652H6.57433V25.3784H6.93652ZM8.70605 1.86865V2.23085H14.9668V1.86865V1.50645H8.70605V1.86865ZM6.93652 3.63818H7.29872C7.29872 2.86093 7.92881 2.23085 8.70605 2.23085V1.86865V1.50645C7.52873 1.50645 6.57433 2.46086 6.57433 3.63818H6.93652ZM19.485 4.80383L19.2124 5.04242C19.6172 5.50475 20.2018 5.76991 20.8163 5.76991V5.40771V5.04552C20.4106 5.04552 20.0247 4.87046 19.7575 4.56524L19.485 4.80383Z" fill="#2237EE" mask="url(#path-2-inside-1_53052_58878)"/>
</g>
<g filter="url(#filter2_i_53052_58878)">
<path d="M5.01028 13.6622C4.75734 11.0944 6.77463 8.86865 9.35482 8.86865H32.7214C35.3015 8.86865 37.3188 11.0944 37.0659 13.6622L35.9558 24.9311C35.7357 27.1655 33.8566 28.8687 31.6113 28.8687H10.4649C8.2196 28.8687 6.34046 27.1655 6.12035 24.9311L5.01028 13.6622Z" fill="#5E84FC"/>
</g>
<path d="M9.35449 9.0874H32.7217C35.1727 9.08759 37.0889 11.2018 36.8486 13.6411L35.7383 24.9097C35.5292 27.0324 33.7443 28.6499 31.6113 28.6499H10.4648C8.33186 28.6499 6.54701 27.0324 6.33789 24.9097L5.22754 13.6411C4.98725 11.2018 6.90347 9.08759 9.35449 9.0874Z" stroke="#3758F9" stroke-width="0.436556"/>
<rect x="17.1621" y="13.0103" width="1.42873" height="1.42873" fill="#BECDFF"/>
<rect x="15.585" y="14.439" width="1.42873" height="1.42873" fill="#BECDFF"/>
<rect x="18.7402" y="14.4389" width="1.42873" height="1.42873" fill="#BECDFF"/>
<rect x="23.4922" y="13.0103" width="1.42873" height="1.42873" fill="#BECDFF"/>
<rect x="21.915" y="14.439" width="1.42873" height="1.42873" fill="#BECDFF"/>
<rect x="25.0703" y="14.4389" width="1.42873" height="1.42873" fill="#BECDFF"/>
<rect x="23.6611" y="22.982" width="5.23868" height="1.74622" transform="rotate(-180 23.6611 22.982)" fill="#BECDFF"/>
<rect x="25.626" y="21.2358" width="1.74623" height="1.74623" transform="rotate(-180 25.626 21.2358)" fill="#BECDFF"/>
<rect x="18.2041" y="21.2358" width="1.74623" height="1.74623" transform="rotate(-180 18.2041 21.2358)" fill="#BECDFF"/>
</g>
<defs>
<filter id="filter0_d_53052_58878" x="-0.000143528" y="-3.02792e-05" width="42.0364" height="36.3612" filterUnits="userSpaceOnUse" color-interpolation-filters="sRGB">
<feFlood flood-opacity="0" result="BackgroundImageFix"/>
<feColorMatrix in="SourceAlpha" type="matrix" values="0 0 0 0 0 0 0 0 0 0 0 0 0 0 0 0 0 0 127 0" result="hardAlpha"/>
<feOffset dy="2.66955"/>
<feGaussianBlur stdDeviation="2.26911"/>
<feComposite in2="hardAlpha" operator="out"/>
<feColorMatrix type="matrix" values="0 0 0 0 0.41369 0 0 0 0 0.403752 0 0 0 0 1 0 0 0 0.19 0"/>
<feBlend mode="normal" in2="BackgroundImageFix" result="effect1_dropShadow_53052_58878"/>
<feBlend mode="normal" in="SourceGraphic" in2="effect1_dropShadow_53052_58878" result="shape"/>
</filter>
<filter id="filter1_n_53052_58878" x="6.93652" y="1.86865" width="28.1914" height="26.543" filterUnits="userSpaceOnUse" color-interpolation-filters="sRGB">
<feFlood flood-opacity="0" result="BackgroundImageFix"/>
<feBlend mode="normal" in="SourceGraphic" in2="BackgroundImageFix" result="shape"/>
<feTurbulence type="fractalNoise" baseFrequency="10 10" stitchTiles="stitch" numOctaves="3" result="noise" seed="7560" />
<feColorMatrix in="noise" type="luminanceToAlpha" result="alphaNoise" />
<feComponentTransfer in="alphaNoise" result="coloredNoise1">
<feFuncA type="discrete" tableValues="1 1 1 1 1 1 1 1 1 1 1 1 1 1 1 1 1 1 1 1 1 1 1 1 1 1 1 1 1 1 1 1 1 1 1 1 1 1 1 1 1 1 1 1 1 1 1 1 1 1 1 0 0 0 0 0 0 0 0 0 0 0 0 0 0 0 0 0 0 0 0 0 0 0 0 0 0 0 0 0 0 0 0 0 0 0 0 0 0 0 0 0 0 0 0 0 0 0 0 0 "/>
</feComponentTransfer>
<feComposite operator="in" in2="shape" in="coloredNoise1" result="noise1Clipped" />
<feFlood flood-color="rgba(0, 0, 0, 0.25)" result="color1Flood" />
<feComposite operator="in" in2="noise1Clipped" in="color1Flood" result="color1" />
<feMerge result="effect1_noise_53052_58878">
<feMergeNode in="shape" />
<feMergeNode in="color1" />
</feMerge>
</filter>
<filter id="filter2_i_53052_58878" x="4.98926" y="8.86865" width="32.0977" height="20" filterUnits="userSpaceOnUse" color-interpolation-filters="sRGB">
<feFlood flood-opacity="0" result="BackgroundImageFix"/>
<feBlend mode="normal" in="SourceGraphic" in2="BackgroundImageFix" result="shape"/>
<feColorMatrix in="SourceAlpha" type="matrix" values="0 0 0 0 0 0 0 0 0 0 0 0 0 0 0 0 0 0 127 0" result="hardAlpha"/>
<feOffset dy="0.9"/>
<feComposite in2="hardAlpha" operator="arithmetic" k2="-1" k3="1"/>
<feColorMatrix type="matrix" values="0 0 0 0 1 0 0 0 0 1 0 0 0 0 1 0 0 0 0.25 0"/>
<feBlend mode="normal" in2="shape" result="effect1_innerShadow_53052_58878"/>
</filter>
</defs>
</svg>
