<svg xmlns="http://www.w3.org/2000/svg" width="900" height="640" viewBox="0 0 900 640" fill="none">
  <rect width="900" height="640" fill="#e8e7e1"/>
  <g stroke="#1c1c1c" stroke-width="1" opacity="0.5">
    <line x1="0" y1="160" x2="900" y2="160"/>
    <line x1="0" y1="320" x2="900" y2="320"/>
    <line x1="0" y1="480" x2="900" y2="480"/>
    <line x1="225" y1="0" x2="225" y2="640"/>
    <line x1="450" y1="0" x2="450" y2="640"/>
    <line x1="675" y1="0" x2="675" y2="640"/>
  </g>
  <g fill="#1c1c1c" opacity="0.85">
    <rect x="64" y="56" width="180" height="10"/>
    <rect x="64" y="84" width="120" height="10" opacity="0.5"/>
  </g>
  <g stroke="#3d7068" stroke-width="2" fill="none">
    <path d="M64 420 C 180 280, 300 480, 430 300 S 700 360, 836 210"/>
    <circle cx="430" cy="300" r="7" fill="#3d7068"/>
    <circle cx="64" cy="420" r="7" fill="#3d7068"/>
    <circle cx="836" cy="210" r="7" fill="#3d7068"/>
  </g>
  <g fill="#1c1c1c" opacity="0.18">
    <rect x="520" y="64" width="316" height="120"/>
    <rect x="520" y="208" width="150" height="80"/>
    <rect x="686" y="208" width="150" height="80"/>
    <rect x="64" y="512" width="772" height="64"/>
  </g>
  <g font-family="monospace" font-size="13" fill="#1c1c1c" opacity="0.6" letter-spacing="3">
    <text x="64" y="612">FIG.01 — PIPELINE/RENDER</text>
    <text x="700" y="612">REV 4.2</text>
  </g>
</svg>
