<svg width="30" height="31" viewBox="0 0 30 31" fill="none" xmlns="http://www.w3.org/2000/svg">
<g clip-path="url(#clip0_0_59)">
<path fill-rule="evenodd" clip-rule="evenodd" d="M19.1668 9.05611C17.9334 8.20454 16.4834 7.75 15 7.75V0C17.9667 0 20.8668 0.90906 23.3335 2.61222C25.8003 4.31538 27.7229 6.73615 28.8582 9.56838C29.9935 12.4006 30.2906 15.5172 29.7118 18.5239C29.133 21.5306 27.7044 24.2925 25.6066 26.4601C23.5088 28.6279 20.8361 30.1041 17.9263 30.7022C15.0167 31.3002 12.0006 30.9933 9.25973 29.8201C6.51886 28.6469 4.17617 26.6603 2.52796 24.1113C0.879735 21.5624 0 18.5656 0 15.5H7.5C7.5 17.0328 7.93988 18.5312 8.76398 19.8057C9.58807 21.0802 10.7594 22.0735 12.1299 22.6601C13.5003 23.2467 15.0083 23.4001 16.4632 23.101C17.918 22.802 19.2544 22.0639 20.3033 20.9801C21.3522 19.8962 22.0665 18.5153 22.3559 17.0119C22.6453 15.5086 22.4968 13.9503 21.9291 12.5342C21.3614 11.1181 20.4002 9.90768 19.1668 9.05611Z" fill="white"/>
<path fill-rule="evenodd" clip-rule="evenodd" d="M7.5 3.35672e-06C7.5 1.01775 7.30601 2.02553 6.9291 2.9658C6.55218 3.90607 5.99974 4.76043 5.3033 5.48008C4.60686 6.19974 3.78007 6.7706 2.87013 7.16007C1.96018 7.54954 0.984911 7.75 3.27832e-07 7.75L0 15.5C1.96983 15.5 3.92037 15.0991 5.74026 14.3201C7.56015 13.5412 9.21375 12.3995 10.6066 10.9601C11.9995 9.52088 13.1044 7.81216 13.8582 5.9316C14.612 4.05104 15 2.03549 15 0L7.5 3.35672e-06Z" fill="white"/>
</g>
<defs>
<clipPath id="clip0_0_59">
<rect width="30" height="31" fill="white"/>
</clipPath>
</defs>
</svg>
