<svg width="28" height="28" viewBox="0 0 28 28" fill="none" xmlns="http://www.w3.org/2000/svg">
<path d="M26.7868 8.43617C26.2627 7.23773 25.569 6.12087 24.727 5.11987C23.4823 3.59595 21.929 2.35291 20.1693 1.47255C18.4096 0.592197 16.4834 0.094493 14.5175 0.0121949C12.5516 -0.0701031 10.5906 0.264869 8.76343 0.995069C6.93631 1.72527 5.28454 2.83414 3.91685 4.2487C2.54915 5.66325 1.49653 7.35143 0.828272 9.2021C0.160014 11.0528 -0.108735 13.024 0.0397181 14.986C0.188171 16.948 0.750458 18.8564 1.68957 20.5854C2.62868 22.3145 3.92333 23.8251 5.48829 25.0177C6.49246 25.7983 7.60203 26.4328 8.78401 26.9025C10.4412 27.5816 12.2147 27.9314 14.0056 27.9324C17.7024 27.9242 21.2451 26.4506 23.8572 23.8347C26.4693 21.2187 27.9376 17.6739 27.9403 13.9771C27.943 12.0702 27.5503 10.1835 26.7868 8.43617ZM13.9954 2.84376C15.6036 2.84359 17.1925 3.1951 18.6505 3.87367C18.295 4.0273 17.9212 4.13461 17.5382 4.19295C16.2782 4.37534 15.111 4.96031 14.2108 5.86055C13.3105 6.76079 12.7256 7.92801 12.5432 9.18801C12.4631 9.89465 12.1417 10.552 11.6333 11.0493C11.1248 11.5465 10.4604 11.853 9.75212 11.9173C8.49212 12.0997 7.3249 12.6846 6.42466 13.5849C5.52442 14.4851 4.93945 15.6523 4.75706 16.9123C4.69531 17.5842 4.40863 18.2156 3.94343 18.7044C3.14077 17.0084 2.7802 15.1369 2.89526 13.2641C3.01032 11.3913 3.59728 9.57803 4.60151 7.99305C5.60574 6.40807 6.99461 5.10289 8.63886 4.19897C10.2831 3.29505 12.1293 2.82177 14.0056 2.82316L13.9954 2.84376ZM5.478 21.1865C5.60159 21.0732 5.72518 20.9702 5.84876 20.8466C6.76503 19.9582 7.35317 18.7856 7.51722 17.52C7.58373 16.8086 7.90137 16.1441 8.41324 15.6455C8.90579 15.1328 9.56877 14.8178 10.2774 14.7598C11.5374 14.5774 12.7046 13.9925 13.6048 13.0922C14.5051 12.192 15.09 11.0248 15.2724 9.76476C15.317 9.02066 15.6363 8.31963 16.1685 7.79763C16.6732 7.29488 17.3425 6.99132 18.0532 6.9428C19.2107 6.78354 20.2903 6.26895 21.1429 5.47004C22.1138 6.2755 22.9363 7.24446 23.5735 8.33319C23.5344 8.38607 23.4895 8.43443 23.4396 8.47737C22.948 8.99459 22.2859 9.3165 21.5755 9.38369C20.3142 9.5629 19.1452 10.1468 18.2444 11.0477C17.3436 11.9485 16.7596 13.1175 16.5804 14.3788C16.5078 15.0878 16.1924 15.7499 15.6875 16.2529C15.1825 16.756 14.5193 17.069 13.81 17.1389C12.5463 17.3199 11.3747 17.9037 10.4693 18.8036C9.56381 19.7035 8.97279 20.8714 8.78401 22.134C8.72858 22.6373 8.55572 23.1206 8.27935 23.545C7.22266 22.9176 6.27627 22.1208 5.478 21.1865ZM13.9954 25.1619C12.9503 25.163 11.9102 25.0174 10.9056 24.7293C11.2493 24.0887 11.4727 23.3906 11.5648 22.6695C11.6369 21.9621 11.9509 21.3012 12.4538 20.7984C12.9566 20.2955 13.6175 19.9815 14.3249 19.9094C15.5868 19.729 16.7563 19.145 17.6586 18.2446C18.5609 17.3441 19.1473 16.1758 19.3303 14.9143C19.4025 14.2069 19.7165 13.546 20.2193 13.0432C20.7221 12.5403 21.383 12.2263 22.0904 12.1541C23.04 12.0306 23.9451 11.6771 24.727 11.1242C25.1612 12.7699 25.2126 14.4932 24.8774 16.1619C24.5421 17.8306 23.8291 19.4003 22.793 20.7506C21.7569 22.1009 20.4252 23.1959 18.9002 23.9517C17.3752 24.7074 15.6973 25.1038 13.9954 25.1104V25.1619Z" fill="black"/>
</svg>
