<svg width="31" height="19" viewBox="0 0 31 19" fill="none" xmlns="http://www.w3.org/2000/svg">
<path d="M18.3515 12.3381L18.4402 0.133357L12.3379 0.0889861L12.2491 12.2938L6.14669 12.2494L6.10232 18.3518L12.2048 18.3962L18.3515 12.3381Z" fill="white"/>
<path d="M30.5557 12.4269L30.6445 0.222102L24.5421 0.177731L24.4533 12.3825L18.351 12.3381L18.3066 18.4406L24.409 18.4849L30.5557 12.4269Z" fill="white"/>
<path d="M0.0443708 12.205L6.14671 12.2494L6.23545 0.0446326L0.133113 0.00026203L0.0443708 12.205Z" fill="white"/>
<path d="M18.3515 12.3381L18.4402 0.133357L12.3379 0.0889861L12.2491 12.2938L6.14669 12.2494L6.10232 18.3518L12.2048 18.3962L18.3515 12.3381Z" fill="white"/>
<path d="M30.5557 12.4269L30.6445 0.222102L24.5421 0.177731L24.4533 12.3825L18.351 12.3381L18.3066 18.4406L24.409 18.4849L30.5557 12.4269Z" fill="white"/>
<path d="M0.0443708 12.205L6.14671 12.2494L6.23545 0.0446326L0.133113 0.00026203L0.0443708 12.205Z" fill="white"/>
</svg>
