<svg width="86" height="32" viewBox="0 0 86 32" fill="none" xmlns="http://www.w3.org/2000/svg">
<g filter="url(#filter0_i_53431_4457)">
<rect width="32" height="32" rx="16" fill="#3758F9"/>
<mask id="path-2-inside-1_53431_4457" fill="white">
<path d="M22.6924 16.4811C23.2447 16.4811 23.6987 16.9304 23.6313 17.4786C23.476 18.7417 23.0271 19.956 22.315 21.0218C21.4169 22.3658 20.1405 23.4134 18.647 24.032C17.1536 24.6506 15.5103 24.8125 13.9248 24.4971C12.3394 24.1817 10.8831 23.4033 9.74009 22.2603C8.59707 21.1173 7.81866 19.661 7.5033 18.0755C7.18794 16.4901 7.34979 14.8468 7.96839 13.3534C8.58699 11.8599 9.63456 10.5835 10.9786 9.6854C12.0444 8.97325 13.2587 8.52441 14.5218 8.36908C15.07 8.30167 15.5193 8.7557 15.5193 9.30798L15.5193 15.4811C15.5193 16.0333 15.967 16.4811 16.5193 16.4811H22.6924Z"/>
</mask>
<path d="M22.6924 16.4811C23.2447 16.4811 23.6987 16.9304 23.6313 17.4786C23.476 18.7417 23.0271 19.956 22.315 21.0218C21.4169 22.3658 20.1405 23.4134 18.647 24.032C17.1536 24.6506 15.5103 24.8125 13.9248 24.4971C12.3394 24.1817 10.8831 23.4033 9.74009 22.2603C8.59707 21.1173 7.81866 19.661 7.5033 18.0755C7.18794 16.4901 7.34979 14.8468 7.96839 13.3534C8.58699 11.8599 9.63456 10.5835 10.9786 9.6854C12.0444 8.97325 13.2587 8.52441 14.5218 8.36908C15.07 8.30167 15.5193 8.7557 15.5193 9.30798L15.5193 15.4811C15.5193 16.0333 15.967 16.4811 16.5193 16.4811H22.6924Z" fill="url(#paint0_linear_53431_4457)" fill-opacity="0.8" stroke="url(#paint1_linear_53431_4457)" stroke-width="1.6" mask="url(#path-2-inside-1_53431_4457)"/>
<mask id="path-3-inside-2_53431_4457" fill="white">
<path d="M17.4424 7.38489C17.4424 6.8326 17.8918 6.37857 18.4399 6.44596C20.2399 6.66727 21.9259 7.483 23.2216 8.77873C24.5174 10.0745 25.3331 11.7604 25.5544 13.5604C25.6218 14.1086 25.1678 14.558 24.6155 14.558L18.4424 14.558C17.8901 14.558 17.4424 14.1102 17.4424 13.558L17.4424 7.38489Z"/>
</mask>
<path d="M17.4424 7.38489C17.4424 6.8326 17.8918 6.37857 18.4399 6.44596C20.2399 6.66727 21.9259 7.483 23.2216 8.77873C24.5174 10.0745 25.3331 11.7604 25.5544 13.5604C25.6218 14.1086 25.1678 14.558 24.6155 14.558L18.4424 14.558C17.8901 14.558 17.4424 14.1102 17.4424 13.558L17.4424 7.38489Z" fill="url(#paint2_linear_53431_4457)" fill-opacity="0.8" stroke="url(#paint3_linear_53431_4457)" stroke-width="1.6" mask="url(#path-3-inside-2_53431_4457)"/>
</g>
<path d="M41.598 23V8.45455H43.7926V21.1108H50.3835V23H41.598ZM52.6918 27.0909C52.3745 27.0909 52.0857 27.0649 51.8253 27.0128C51.5649 26.9654 51.3707 26.9134 51.2429 26.8565L51.7543 25.1165C52.1425 25.2206 52.4882 25.2656 52.7912 25.2514C53.0942 25.2372 53.3617 25.1236 53.5937 24.9105C53.8305 24.6974 54.0388 24.3494 54.2187 23.8665L54.4815 23.142L50.4901 12.0909H52.7628L55.5256 20.5568H55.6392L58.402 12.0909H60.6818L56.1861 24.456C55.9777 25.0241 55.7126 25.5047 55.3906 25.8977C55.0687 26.2955 54.6851 26.5937 54.2401 26.7926C53.795 26.9915 53.2789 27.0909 52.6918 27.0909ZM67.7699 12.0909V13.7955H61.8111V12.0909H67.7699ZM63.4091 9.47727H65.5327V19.7969C65.5327 20.2088 65.5942 20.5189 65.7173 20.7273C65.8404 20.9309 65.9991 21.0705 66.1932 21.1463C66.392 21.2173 66.6075 21.2528 66.8395 21.2528C67.0099 21.2528 67.1591 21.241 67.2869 21.2173C67.4148 21.1937 67.5142 21.1747 67.5852 21.1605L67.9687 22.9148C67.8456 22.9621 67.6705 23.0095 67.4432 23.0568C67.2159 23.1089 66.9318 23.1373 66.5909 23.142C66.0322 23.1515 65.5114 23.0521 65.0284 22.8438C64.5455 22.6354 64.1548 22.3134 63.8565 21.8778C63.5582 21.4422 63.4091 20.8954 63.4091 20.2372V9.47727ZM70.119 23V12.0909H72.2425V23H70.119ZM71.1914 10.4077C70.8221 10.4077 70.5049 10.2846 70.2397 10.0384C69.9793 9.78741 69.8491 9.48911 69.8491 9.14347C69.8491 8.79309 69.9793 8.49479 70.2397 8.24858C70.5049 7.99763 70.8221 7.87216 71.1914 7.87216C71.5607 7.87216 71.8756 7.99763 72.136 8.24858C72.4012 8.49479 72.5337 8.79309 72.5337 9.14347C72.5337 9.48911 72.4012 9.78741 72.136 10.0384C71.8756 10.2846 71.5607 10.4077 71.1914 10.4077ZM79.6946 23.2202C78.6387 23.2202 77.7296 22.9811 76.9673 22.5028C76.2097 22.0199 75.6274 21.3546 75.2202 20.5071C74.813 19.6596 74.6094 18.6889 74.6094 17.5952C74.6094 16.4872 74.8177 15.5095 75.2344 14.6619C75.651 13.8097 76.2382 13.1444 76.9957 12.6662C77.7533 12.188 78.6458 11.9489 79.6733 11.9489C80.5019 11.9489 81.2405 12.1027 81.8892 12.4105C82.5379 12.7135 83.0611 13.1397 83.4588 13.6889C83.8613 14.2382 84.1004 14.8797 84.1761 15.6136H82.1094C81.9957 15.1023 81.7353 14.6619 81.3281 14.2926C80.9257 13.9233 80.3859 13.7386 79.7088 13.7386C79.1169 13.7386 78.5985 13.8949 78.1534 14.2074C77.7131 14.5152 77.3698 14.9555 77.1236 15.5284C76.8774 16.0966 76.7543 16.7689 76.7543 17.5455C76.7543 18.3409 76.875 19.0275 77.1165 19.6051C77.358 20.1828 77.6989 20.6302 78.1392 20.9474C78.5843 21.2647 79.1075 21.4233 79.7088 21.4233C80.1113 21.4233 80.4758 21.3499 80.8026 21.2031C81.134 21.0516 81.411 20.8362 81.6335 20.5568C81.8608 20.2775 82.0194 19.9413 82.1094 19.5483H84.1761C84.1004 20.2538 83.8707 20.8835 83.4872 21.4375C83.1037 21.9915 82.59 22.4271 81.946 22.7443C81.3068 23.0616 80.5563 23.2202 79.6946 23.2202Z" fill="#1F2937"/>
<defs>
<filter id="filter0_i_53431_4457" x="0" y="-3.2" width="32" height="35.2" filterUnits="userSpaceOnUse" color-interpolation-filters="sRGB">
<feFlood flood-opacity="0" result="BackgroundImageFix"/>
<feBlend mode="normal" in="SourceGraphic" in2="BackgroundImageFix" result="shape"/>
<feColorMatrix in="SourceAlpha" type="matrix" values="0 0 0 0 0 0 0 0 0 0 0 0 0 0 0 0 0 0 127 0" result="hardAlpha"/>
<feOffset dy="-3.2"/>
<feGaussianBlur stdDeviation="3.2"/>
<feComposite in2="hardAlpha" operator="arithmetic" k2="-1" k3="1"/>
<feColorMatrix type="matrix" values="0 0 0 0 1 0 0 0 0 1 0 0 0 0 1 0 0 0 0.64 0"/>
<feBlend mode="normal" in2="shape" result="effect1_innerShadow_53431_4457"/>
</filter>
<linearGradient id="paint0_linear_53431_4457" x1="15.5193" y1="8.30798" x2="15.5193" y2="33.0946" gradientUnits="userSpaceOnUse">
<stop offset="0.313079" stop-color="white"/>
<stop offset="1" stop-color="white" stop-opacity="0"/>
</linearGradient>
<linearGradient id="paint1_linear_53431_4457" x1="44.3718" y1="-31.3661" x2="-3.72264" y2="7.65025" gradientUnits="userSpaceOnUse">
<stop stop-color="white"/>
<stop offset="1" stop-color="white" stop-opacity="0"/>
</linearGradient>
<linearGradient id="paint2_linear_53431_4457" x1="25.6155" y1="14.558" x2="0.828909" y2="14.558" gradientUnits="userSpaceOnUse">
<stop offset="0.313079" stop-color="white"/>
<stop offset="1" stop-color="white" stop-opacity="0"/>
</linearGradient>
<linearGradient id="paint3_linear_53431_4457" x1="65.2895" y1="43.4104" x2="26.2732" y2="-4.68401" gradientUnits="userSpaceOnUse">
<stop stop-color="white"/>
<stop offset="1" stop-color="white" stop-opacity="0"/>
</linearGradient>
</defs>
</svg>
