
<svg display="block" role="presentation" viewBox="0 0 24 24" xmlns="http://www.w3.org/2000/svg"><defs ><linearGradient id="C9d1sWqSg-993121049-linear-gradient" x1="0.49751243781094523" x2="0.5024875621890548" y1="0" y2="1"><stop offset="0" stop-color="rgb(255, 255, 255)"/><stop offset="1" stop-color="rgba(255, 255, 255, 0.3)"/></linearGradient></defs><g d="M 0 23.04 L 0 0 L 23.04 0 L 23.04 23.04 Z M 20.849 17.509 L 17.861 3.307 C 17.823 3.121 17.748 2.945 17.641 2.788 C 17.534 2.631 17.397 2.497 17.238 2.394 C 17.079 2.29 16.901 2.219 16.715 2.184 C 16.528 2.15 16.337 2.152 16.151 2.192 L 11.938 3.097 C 11.566 3.179 11.241 3.404 11.033 3.724 C 10.826 4.045 10.753 4.434 10.831 4.807 L 13.819 19.009 C 13.885 19.333 14.061 19.624 14.317 19.834 C 14.573 20.043 14.894 20.158 15.224 20.159 C 15.327 20.159 15.429 20.148 15.529 20.127 L 19.742 19.221 C 20.115 19.14 20.44 18.914 20.648 18.593 C 20.855 18.272 20.927 17.882 20.849 17.509 Z M 12.24 4.513 C 12.24 4.507 12.24 4.505 12.24 4.505 L 16.452 3.605 L 16.752 5.033 L 12.54 5.939 Z M 13.14 8.777 L 12.838 7.346 L 17.052 6.441 L 17.353 7.872 Z M 19.44 17.814 L 15.228 18.714 L 14.928 17.286 L 19.14 16.379 L 19.44 17.806 C 19.44 17.811 19.44 17.814 19.44 17.814 Z M 9.36 2.879 L 5.04 2.879 C 4.658 2.879 4.292 3.031 4.022 3.301 C 3.752 3.571 3.6 3.937 3.6 4.319 L 3.6 18.719 C 3.6 19.101 3.752 19.467 4.022 19.737 C 4.292 20.008 4.658 20.159 5.04 20.159 L 9.36 20.159 C 9.742 20.159 10.108 20.008 10.378 19.737 C 10.648 19.467 10.8 19.101 10.8 18.719 L 10.8 4.319 C 10.8 3.937 10.648 3.571 10.378 3.301 C 10.108 3.031 9.742 2.879 9.36 2.879 Z M 5.04 4.319 L 9.36 4.319 L 9.36 5.759 L 5.04 5.759 Z M 9.36 18.719 L 5.04 18.719 L 5.04 17.279 L 9.36 17.279 Z" fill="transparent" height="23.039999999254942px" id="ISTW8c6GQ" transform="translate(0.48 0.774)" width="23.04px"><path d="M 0 23.04 L 0 0 L 23.04 0 L 23.04 23.04 Z" fill="transparent" height="23.04px" id="G7kgL1LdC" transform="translate(0 0)" width="23.04px"/><g d="M 17.249 15.349 L 14.261 1.147 C 14.223 0.961 14.148 0.785 14.041 0.628 C 13.934 0.471 13.797 0.337 13.638 0.234 C 13.479 0.13 13.301 0.059 13.115 0.024 C 12.928 -0.01 12.737 -0.008 12.551 0.032 L 8.338 0.937 C 7.966 1.019 7.641 1.244 7.433 1.564 C 7.226 1.885 7.153 2.274 7.231 2.647 L 10.219 16.849 C 10.285 17.173 10.461 17.464 10.717 17.674 C 10.973 17.883 11.294 17.998 11.624 17.999 C 11.727 17.999 11.829 17.988 11.929 17.967 L 16.142 17.061 C 16.515 16.98 16.84 16.754 17.048 16.433 C 17.255 16.112 17.327 15.722 17.249 15.349 Z M 8.64 2.353 C 8.64 2.347 8.64 2.345 8.64 2.345 L 12.852 1.445 L 13.152 2.873 L 8.94 3.779 Z M 9.54 6.617 L 9.238 5.186 L 13.452 4.281 L 13.753 5.712 Z M 15.84 15.654 L 11.628 16.554 L 11.328 15.126 L 15.54 14.219 L 15.84 15.646 C 15.84 15.651 15.84 15.654 15.84 15.654 Z M 5.76 0.719 L 1.44 0.719 C 1.058 0.719 0.692 0.871 0.422 1.141 C 0.152 1.411 0 1.777 0 2.159 L 0 16.559 C 0 16.941 0.152 17.307 0.422 17.577 C 0.692 17.848 1.058 17.999 1.44 17.999 L 5.76 17.999 C 6.142 17.999 6.508 17.848 6.778 17.577 C 7.048 17.307 7.2 16.941 7.2 16.559 L 7.2 2.159 C 7.2 1.777 7.048 1.411 6.778 1.141 C 6.508 0.871 6.142 0.719 5.76 0.719 Z M 1.44 2.159 L 5.76 2.159 L 5.76 3.599 L 1.44 3.599 Z M 5.76 16.559 L 1.44 16.559 L 1.44 15.119 L 5.76 15.119 Z" fill="transparent" height="17.999194695645905px" id="tP26C436a" transform="translate(3.6 2.16)" width="17.27953618267467px"><path d="M 17.249 15.349 L 14.261 1.147 C 14.223 0.961 14.148 0.785 14.041 0.628 C 13.934 0.471 13.797 0.337 13.638 0.234 C 13.479 0.13 13.301 0.059 13.115 0.024 C 12.928 -0.01 12.737 -0.008 12.551 0.032 L 8.338 0.937 C 7.966 1.019 7.641 1.244 7.433 1.564 C 7.226 1.885 7.153 2.274 7.231 2.647 L 10.219 16.849 C 10.285 17.173 10.461 17.464 10.717 17.674 C 10.973 17.883 11.294 17.998 11.624 17.999 C 11.727 17.999 11.829 17.988 11.929 17.967 L 16.142 17.061 C 16.515 16.98 16.84 16.754 17.048 16.433 C 17.255 16.112 17.327 15.722 17.249 15.349 Z M 8.64 2.353 C 8.64 2.347 8.64 2.345 8.64 2.345 L 12.852 1.445 L 13.152 2.873 L 8.94 3.779 Z M 9.54 6.617 L 9.238 5.186 L 13.452 4.281 L 13.753 5.712 Z M 15.84 15.654 L 11.628 16.554 L 11.328 15.126 L 15.54 14.219 L 15.84 15.646 C 15.84 15.651 15.84 15.654 15.84 15.654 Z M 5.76 0.719 L 1.44 0.719 C 1.058 0.719 0.692 0.871 0.422 1.141 C 0.152 1.411 0 1.777 0 2.159 L 0 16.559 C 0 16.941 0.152 17.307 0.422 17.577 C 0.692 17.848 1.058 17.999 1.44 17.999 L 5.76 17.999 C 6.142 17.999 6.508 17.848 6.778 17.577 C 7.048 17.307 7.2 16.941 7.2 16.559 L 7.2 2.159 C 7.2 1.777 7.048 1.411 6.778 1.141 C 6.508 0.871 6.142 0.719 5.76 0.719 Z M 1.44 2.159 L 5.76 2.159 L 5.76 3.599 L 1.44 3.599 Z M 5.76 16.559 L 1.44 16.559 L 1.44 15.119 L 5.76 15.119 Z" fill="url(#C9d1sWqSg-993121049-linear-gradient)" height="17.999194695645905px" id="C9d1sWqSg" width="17.27953618267467px"/></g></g></svg>
