
<svg display="block" role="presentation" viewBox="0 0 24 24" xmlns="http://www.w3.org/2000/svg"><defs ><linearGradient id="VfzliyxDp-3811206352-linear-gradient" x1="0.49751243781094523" x2="0.5024875621890548" y1="0" y2="1"><stop offset="0" stop-color="rgb(255, 255, 255)"/><stop offset="1" stop-color="rgba(255, 255, 255, 0.3)"/></linearGradient></defs><path d="M 0 23.04 L 0 0 L 23.04 0 L 23.04 23.04 Z" fill="transparent" height="23.04px" id="OzS2P3ZAb" transform="translate(0.48 0.774)" width="23.04px"/><path d="M 15.84 1.44 L 13.68 1.44 L 13.68 0.72 C 13.68 0.529 13.604 0.346 13.469 0.211 C 13.334 0.076 13.151 0 12.96 0 C 12.769 0 12.586 0.076 12.451 0.211 C 12.316 0.346 12.24 0.529 12.24 0.72 L 12.24 1.44 L 5.04 1.44 L 5.04 0.72 C 5.04 0.529 4.964 0.346 4.829 0.211 C 4.694 0.076 4.511 0 4.32 0 C 4.129 0 3.946 0.076 3.811 0.211 C 3.676 0.346 3.6 0.529 3.6 0.72 L 3.6 1.44 L 1.44 1.44 C 1.058 1.44 0.692 1.592 0.422 1.862 C 0.152 2.132 0 2.498 0 2.88 L 0 17.28 C 0 17.662 0.152 18.028 0.422 18.298 C 0.692 18.568 1.058 18.72 1.44 18.72 L 15.84 18.72 C 16.222 18.72 16.588 18.568 16.858 18.298 C 17.128 18.028 17.28 17.662 17.28 17.28 L 17.28 2.88 C 17.28 2.498 17.128 2.132 16.858 1.862 C 16.588 1.592 16.222 1.44 15.84 1.44 Z M 4.68 15.12 C 4.466 15.12 4.258 15.057 4.08 14.938 C 3.902 14.819 3.764 14.651 3.682 14.453 C 3.6 14.256 3.579 14.039 3.621 13.829 C 3.662 13.62 3.765 13.427 3.916 13.276 C 4.067 13.125 4.26 13.022 4.469 12.981 C 4.679 12.939 4.896 12.96 5.093 13.042 C 5.291 13.124 5.459 13.262 5.578 13.44 C 5.697 13.618 5.76 13.826 5.76 14.04 C 5.76 14.326 5.646 14.601 5.444 14.804 C 5.241 15.006 4.966 15.12 4.68 15.12 Z M 8.64 15.12 C 8.426 15.12 8.218 15.057 8.04 14.938 C 7.862 14.819 7.724 14.651 7.642 14.453 C 7.56 14.256 7.539 14.039 7.581 13.829 C 7.622 13.62 7.725 13.427 7.876 13.276 C 8.027 13.125 8.22 13.022 8.429 12.981 C 8.639 12.939 8.856 12.96 9.053 13.042 C 9.251 13.124 9.419 13.262 9.538 13.44 C 9.657 13.618 9.72 13.826 9.72 14.04 C 9.72 14.326 9.606 14.601 9.404 14.804 C 9.201 15.006 8.926 15.12 8.64 15.12 Z M 8.64 11.52 C 8.426 11.52 8.218 11.457 8.04 11.338 C 7.862 11.219 7.724 11.051 7.642 10.853 C 7.56 10.656 7.539 10.439 7.581 10.229 C 7.622 10.02 7.725 9.827 7.876 9.676 C 8.027 9.525 8.22 9.422 8.429 9.381 C 8.639 9.339 8.856 9.36 9.053 9.442 C 9.251 9.524 9.419 9.662 9.538 9.84 C 9.657 10.018 9.72 10.226 9.72 10.44 C 9.72 10.726 9.606 11.001 9.404 11.204 C 9.201 11.406 8.926 11.52 8.64 11.52 Z M 12.6 15.12 C 12.386 15.12 12.178 15.057 12 14.938 C 11.822 14.819 11.684 14.651 11.602 14.453 C 11.52 14.256 11.499 14.039 11.541 13.829 C 11.582 13.62 11.685 13.427 11.836 13.276 C 11.987 13.125 12.18 13.022 12.389 12.981 C 12.599 12.939 12.816 12.96 13.013 13.042 C 13.211 13.124 13.379 13.262 13.498 13.44 C 13.617 13.618 13.68 13.826 13.68 14.04 C 13.68 14.326 13.566 14.601 13.364 14.804 C 13.161 15.006 12.886 15.12 12.6 15.12 Z M 12.6 11.52 C 12.386 11.52 12.178 11.457 12 11.338 C 11.822 11.219 11.684 11.051 11.602 10.853 C 11.52 10.656 11.499 10.439 11.541 10.229 C 11.582 10.02 11.685 9.827 11.836 9.676 C 11.987 9.525 12.18 9.422 12.389 9.381 C 12.599 9.339 12.816 9.36 13.013 9.442 C 13.211 9.524 13.379 9.662 13.498 9.84 C 13.617 10.018 13.68 10.226 13.68 10.44 C 13.68 10.726 13.566 11.001 13.364 11.204 C 13.161 11.406 12.886 11.52 12.6 11.52 Z M 15.84 5.76 L 1.44 5.76 L 1.44 2.88 L 3.6 2.88 L 3.6 3.6 C 3.6 3.791 3.676 3.974 3.811 4.109 C 3.946 4.244 4.129 4.32 4.32 4.32 C 4.511 4.32 4.694 4.244 4.829 4.109 C 4.964 3.974 5.04 3.791 5.04 3.6 L 5.04 2.88 L 12.24 2.88 L 12.24 3.6 C 12.24 3.791 12.316 3.974 12.451 4.109 C 12.586 4.244 12.769 4.32 12.96 4.32 C 13.151 4.32 13.334 4.244 13.469 4.109 C 13.604 3.974 13.68 3.791 13.68 3.6 L 13.68 2.88 L 15.84 2.88 Z" fill="url(#VfzliyxDp-3811206352-linear-gradient)" height="18.719961599999998px" id="VfzliyxDp" transform="translate(3.36 2.214)" width="17.28000000208616px"/></svg>
