
<svg display="block" role="presentation" viewBox="0 0 24 24" xmlns="http://www.w3.org/2000/svg"><defs ><linearGradient id="iRk_Eeya1-3746276072-linear-gradient" x1="0.49751243781094523" x2="0.5024875621890548" y1="0" y2="1"><stop offset="0" stop-color="rgb(255, 255, 255)"/><stop offset="1" stop-color="rgba(255, 255, 255, 0.3)"/></linearGradient></defs><path d="M 0 23.04 L 0 0 L 23.04 0 L 23.04 23.04 Z" fill="transparent" height="23.04px" id="TvxgwWMND" transform="translate(0.45 0.508)" width="23.04px"/><path d="M 15.84 1.44 L 13.68 1.44 L 13.68 0.72 C 13.68 0.529 13.604 0.346 13.469 0.211 C 13.334 0.076 13.151 0 12.96 0 C 12.769 0 12.586 0.076 12.451 0.211 C 12.316 0.346 12.24 0.529 12.24 0.72 L 12.24 1.44 L 5.04 1.44 L 5.04 0.72 C 5.04 0.529 4.964 0.346 4.829 0.211 C 4.694 0.076 4.511 0 4.32 0 C 4.129 0 3.946 0.076 3.811 0.211 C 3.676 0.346 3.6 0.529 3.6 0.72 L 3.6 1.44 L 1.44 1.44 C 1.058 1.44 0.692 1.592 0.422 1.862 C 0.152 2.132 0 2.498 0 2.88 L 0 17.28 C 0 17.662 0.152 18.028 0.422 18.298 C 0.692 18.568 1.058 18.72 1.44 18.72 L 15.84 18.72 C 16.222 18.72 16.588 18.568 16.858 18.298 C 17.128 18.028 17.28 17.662 17.28 17.28 L 17.28 2.88 C 17.28 2.498 17.128 2.132 16.858 1.862 C 16.588 1.592 16.222 1.44 15.84 1.44 Z M 12.389 10.589 L 8.069 14.909 C 8.003 14.976 7.923 15.029 7.836 15.066 C 7.748 15.102 7.655 15.121 7.56 15.121 C 7.465 15.121 7.372 15.102 7.284 15.066 C 7.197 15.029 7.117 14.976 7.051 14.909 L 4.891 12.749 C 4.755 12.614 4.68 12.431 4.68 12.24 C 4.68 12.049 4.755 11.866 4.891 11.731 C 5.026 11.595 5.209 11.52 5.4 11.52 C 5.591 11.52 5.774 11.595 5.909 11.731 L 7.56 13.382 L 11.371 9.571 C 11.437 9.504 11.517 9.451 11.604 9.414 C 11.692 9.378 11.785 9.36 11.88 9.36 C 11.975 9.36 12.068 9.378 12.156 9.414 C 12.243 9.451 12.323 9.504 12.389 9.571 C 12.456 9.638 12.509 9.717 12.546 9.804 C 12.582 9.892 12.6 9.985 12.6 10.08 C 12.6 10.175 12.582 10.268 12.546 10.356 C 12.509 10.443 12.456 10.522 12.389 10.589 Z M 1.44 5.76 L 1.44 2.88 L 3.6 2.88 L 3.6 3.6 C 3.6 3.791 3.676 3.974 3.811 4.109 C 3.946 4.244 4.129 4.32 4.32 4.32 C 4.511 4.32 4.694 4.244 4.829 4.109 C 4.964 3.974 5.04 3.791 5.04 3.6 L 5.04 2.88 L 12.24 2.88 L 12.24 3.6 C 12.24 3.791 12.316 3.974 12.451 4.109 C 12.586 4.244 12.769 4.32 12.96 4.32 C 13.151 4.32 13.334 4.244 13.469 4.109 C 13.604 3.974 13.68 3.791 13.68 3.6 L 13.68 2.88 L 15.84 2.88 L 15.84 5.76 Z" fill="url(#iRk_Eeya1-3746276072-linear-gradient)" height="18.72000000327826px" id="iRk_Eeya1" transform="translate(3.33 1.948)" width="17.280048003576265px"/></svg>
