
<svg display="block" role="presentation" viewBox="0 0 24 24" xmlns="http://www.w3.org/2000/svg"><g d="M 0 22.857 L 0 0 L 22.857 0 L 22.857 22.857 Z M 8.571 10.714 C 12.516 10.714 15.714 9.275 15.714 7.5 C 15.714 5.725 12.516 4.286 8.571 4.286 C 4.627 4.286 1.429 5.725 1.429 7.5 C 1.429 9.275 4.627 10.714 8.571 10.714 Z M 1.429 7.5 L 1.429 11.071 C 1.429 12.846 4.627 14.286 8.571 14.286 C 12.516 14.286 15.714 12.846 15.714 11.071 L 15.714 7.5 M 5.714 10.446 L 5.714 14.018 M 15.716 8.636 C 18.977 8.934 21.43 10.231 21.43 11.786 C 21.43 13.561 18.232 15 14.288 15 C 12.537 15 10.934 14.717 9.692 14.247 M 7.143 14.221 L 7.143 15.357 C 7.143 17.132 10.341 18.571 14.286 18.571 C 18.23 18.571 21.429 17.132 21.429 15.357 L 21.429 11.786 M 17.143 14.732 L 17.143 18.304 M 11.429 10.446 L 11.429 18.304" fill="transparent" height="22.857142858739408px" id="FrFfEW7oW" transform="translate(0.57 0.35)" width="22.857142857142854px"><path d="M 0 22.857 L 0 0 L 22.857 0 L 22.857 22.857 Z" fill="transparent" height="22.857142857142854px" id="XzKqfOCmi" transform="translate(0 0)" width="22.857142857142854px"/><path d="M 7.143 6.429 C 11.088 6.429 14.286 4.989 14.286 3.214 C 14.286 1.439 11.088 0 7.143 0 C 3.198 0 0 1.439 0 3.214 C 0 4.989 3.198 6.429 7.143 6.429 Z" fill="transparent" height="6.428571428571428px" id="WzX86cQs2" stroke-dasharray="" stroke-linecap="round" stroke-linejoin="round" stroke-width="1.83" stroke="var(--token-aee63b76-e5c0-49ca-a252-571eed390796, rgb(255, 255, 255))" transform="translate(1.429 4.286)" width="14.285714285714285px"/><path d="M 0 0 L 0 3.571 C 0 5.346 3.198 6.786 7.143 6.786 C 11.088 6.786 14.286 5.346 14.286 3.571 L 14.286 0" fill="transparent" height="6.785668571428571px" id="hNbhYw_jH" stroke-dasharray="" stroke-linecap="round" stroke-linejoin="round" stroke-width="1.83" stroke="var(--token-aee63b76-e5c0-49ca-a252-571eed390796, rgb(255, 255, 255))" transform="translate(1.429 7.5)" width="14.285714285714285px"/><path d="M 0 0 L 0 3.571" fill="transparent" height="3.5714628571428566px" id="s2WeswjNI" stroke-dasharray="" stroke-linecap="round" stroke-linejoin="round" stroke-width="1.83" stroke="var(--token-aee63b76-e5c0-49ca-a252-571eed390796, rgb(255, 255, 255))" transform="translate(5.714 10.446)" width="1px"/><path d="M 6.024 0 C 9.285 0.298 11.738 1.595 11.738 3.15 C 11.738 4.925 8.54 6.364 4.596 6.364 C 2.846 6.364 1.242 6.081 0 5.611" fill="transparent" height="6.3642514285714284px" id="rjI5jX8K9" stroke-dasharray="" stroke-linecap="round" stroke-linejoin="round" stroke-width="1.83" stroke="var(--token-aee63b76-e5c0-49ca-a252-571eed390796, rgb(255, 255, 255))" transform="translate(9.692 8.636)" width="11.738434285714382px"/><path d="M 0 2.436 L 0 3.571 C 0 5.347 3.198 6.786 7.143 6.786 C 11.088 6.786 14.286 5.347 14.286 3.571 L 14.286 0" fill="transparent" height="6.7857142857142865px" id="ulUAMLW8L" stroke-dasharray="" stroke-linecap="round" stroke-linejoin="round" stroke-width="1.83" stroke="var(--token-aee63b76-e5c0-49ca-a252-571eed390796, rgb(255, 255, 255))" transform="translate(7.143 11.786)" width="14.285714285714285px"/><path d="M 0 0 L 0 3.571" fill="transparent" height="3.5714285714285694px" id="gwNVK_PkP" stroke-dasharray="" stroke-linecap="round" stroke-linejoin="round" stroke-width="1.83" stroke="var(--token-aee63b76-e5c0-49ca-a252-571eed390796, rgb(255, 255, 255))" transform="translate(17.143 14.732)" width="1px"/><path d="M 0 0 L 0 7.857" fill="transparent" height="7.857177142857145px" id="HsML3l5dy" stroke-dasharray="" stroke-linecap="round" stroke-linejoin="round" stroke-width="1.83" stroke="var(--token-aee63b76-e5c0-49ca-a252-571eed390796, rgb(255, 255, 255))" transform="translate(11.429 10.446)" width="1px"/></g></svg>
