
<svg display="block" role="presentation" viewBox="0 0 24 24" xmlns="http://www.w3.org/2000/svg"><defs ><linearGradient id="a2ZXiodWY-3670128109-linear-gradient" x1="0.49751243781094523" x2="0.5024875621890548" y1="0" y2="1"><stop offset="0" stop-color="rgb(255, 255, 255)"/><stop offset="1" stop-color="rgba(255, 255, 255, 0.6)"/></linearGradient></defs><path d="M 18.667 0 L 0.982 0 C 0.722 0 0.472 0.103 0.288 0.288 C 0.104 0.472 0 0.722 0 0.982 L 0 4.912 L 0.877 4.912 C 1.856 4.912 2.764 5.581 2.921 6.547 C 2.969 6.829 2.954 7.118 2.879 7.394 C 2.804 7.67 2.669 7.926 2.485 8.145 C 2.3 8.363 2.07 8.539 1.811 8.659 C 1.551 8.78 1.268 8.842 0.982 8.842 L 0 8.842 L 0 12.772 C 0 13.033 0.104 13.282 0.288 13.467 C 0.472 13.651 0.722 13.754 0.982 13.754 L 18.667 13.754 C 18.927 13.754 19.177 13.651 19.361 13.467 C 19.546 13.282 19.649 13.033 19.649 12.772 L 19.649 8.842 L 18.667 8.842 C 18.381 8.842 18.098 8.78 17.839 8.659 C 17.579 8.539 17.349 8.363 17.165 8.145 C 16.98 7.926 16.845 7.67 16.77 7.394 C 16.695 7.118 16.68 6.829 16.728 6.547 C 16.885 5.581 17.793 4.912 18.772 4.912 L 19.649 4.912 L 19.649 0.982 C 19.649 0.722 19.546 0.472 19.361 0.288 C 19.177 0.103 18.927 0 18.667 0 Z M 6.877 3.93 C 7.138 3.93 7.388 4.033 7.572 4.218 C 7.756 4.402 7.86 4.652 7.86 4.912 C 7.86 5.173 7.756 5.423 7.572 5.607 C 7.388 5.791 7.138 5.895 6.877 5.895 C 6.617 5.895 6.367 5.791 6.182 5.607 C 5.998 5.423 5.895 5.173 5.895 4.912 C 5.895 4.652 5.998 4.402 6.182 4.218 C 6.367 4.033 6.617 3.93 6.877 3.93 Z M 6.091 10.218 L 11.986 2.358 L 13.558 3.537 L 7.663 11.397 Z M 12.772 9.825 C 12.511 9.825 12.261 9.721 12.077 9.537 C 11.893 9.353 11.789 9.103 11.789 8.842 C 11.789 8.582 11.893 8.332 12.077 8.147 C 12.261 7.963 12.511 7.86 12.772 7.86 C 13.032 7.86 13.282 7.963 13.467 8.147 C 13.651 8.332 13.754 8.582 13.754 8.842 C 13.754 9.103 13.651 9.353 13.467 9.537 C 13.282 9.721 13.032 9.825 12.772 9.825 Z" fill="url(#a2ZXiodWY-3670128109-linear-gradient)" height="13.754400000000002px" id="a2ZXiodWY" transform="translate(2.175 5.042)" width="19.64910735587268px"/></svg>
