
<svg display="block" role="presentation" viewBox="0 0 24 24" xmlns="http://www.w3.org/2000/svg"><defs ><linearGradient id="xGk17Pgux-3456604580-linear-gradient" x1="0.49751243781094523" x2="0.5024875621890548" y1="0" y2="1"><stop offset="0" stop-color="rgb(255, 255, 255)"/><stop offset="1" stop-color="rgba(255, 255, 255, 0.6)"/></linearGradient></defs><path d="M 0 23.579 L 0 0 L 23.579 0 L 23.579 23.579 Z" fill="transparent" height="23.578947368421055px" id="BeJtzwFeA" transform="translate(0.28 0.49)" width="23.578947368421055px"/><path d="M 18.423 1.474 L 18.423 13.263 C 18.423 13.654 18.267 14.029 17.991 14.305 C 17.715 14.582 17.34 14.737 16.949 14.737 L 15.475 14.737 C 15.084 14.737 14.71 14.582 14.433 14.305 C 14.157 14.029 14.002 13.654 14.002 13.263 L 14.002 8.105 L 9.581 8.105 L 9.581 13.263 C 9.581 13.654 9.425 14.029 9.149 14.305 C 8.873 14.582 8.498 14.737 8.107 14.737 L 6.633 14.737 C 6.242 14.737 5.868 14.582 5.591 14.305 C 5.315 14.029 5.16 13.654 5.16 13.263 L 5.16 1.474 C 5.16 1.083 5.315 0.708 5.591 0.432 C 5.868 0.155 6.242 0 6.633 0 L 8.107 0 C 8.498 0 8.873 0.155 9.149 0.432 C 9.425 0.708 9.581 1.083 9.581 1.474 L 9.581 6.632 L 14.002 6.632 L 14.002 1.474 C 14.002 1.083 14.157 0.708 14.433 0.432 C 14.71 0.155 15.084 0 15.475 0 L 16.949 0 C 17.34 0 17.715 0.155 17.991 0.432 C 18.267 0.708 18.423 1.083 18.423 1.474 Z M 3.317 2.211 L 2.949 2.211 C 2.558 2.211 2.183 2.366 1.907 2.642 C 1.631 2.919 1.475 3.293 1.475 3.684 L 1.475 6.632 L 0.763 6.632 C 0.573 6.629 0.389 6.698 0.247 6.826 C 0.106 6.953 0.018 7.13 0.002 7.32 C -0.005 7.42 0.009 7.521 0.043 7.617 C 0.077 7.712 0.13 7.799 0.199 7.873 C 0.268 7.946 0.352 8.005 0.445 8.045 C 0.537 8.085 0.637 8.105 0.738 8.105 L 1.475 8.105 L 1.475 11.053 C 1.475 11.443 1.631 11.818 1.907 12.095 C 2.183 12.371 2.558 12.526 2.949 12.526 L 3.317 12.526 C 3.415 12.526 3.509 12.487 3.578 12.418 C 3.647 12.349 3.686 12.256 3.686 12.158 L 3.686 2.579 C 3.686 2.481 3.647 2.388 3.578 2.318 C 3.509 2.249 3.415 2.211 3.317 2.211 Z M 23.581 7.32 C 23.564 7.13 23.477 6.954 23.336 6.826 C 23.195 6.699 23.011 6.629 22.821 6.632 L 22.107 6.632 L 22.107 3.684 C 22.107 3.293 21.952 2.919 21.675 2.642 C 21.399 2.366 21.024 2.211 20.633 2.211 L 20.265 2.211 C 20.167 2.211 20.073 2.249 20.004 2.318 C 19.935 2.388 19.896 2.481 19.896 2.579 L 19.896 12.158 C 19.896 12.256 19.935 12.349 20.004 12.418 C 20.073 12.487 20.167 12.526 20.265 12.526 L 20.633 12.526 C 21.024 12.526 21.399 12.371 21.675 12.095 C 21.952 11.818 22.107 11.443 22.107 11.053 L 22.107 8.105 L 22.844 8.105 C 22.945 8.105 23.045 8.085 23.137 8.045 C 23.23 8.005 23.314 7.946 23.383 7.873 C 23.452 7.799 23.505 7.712 23.539 7.617 C 23.573 7.521 23.587 7.42 23.581 7.32 Z" fill="url(#xGk17Pgux-3456604580-linear-gradient)" height="14.736842042521424px" id="xGk17Pgux" transform="translate(0.278 4.631)" width="23.58217545702402px"/></svg>
