<svg width="24" height="25" viewBox="0 0 24 25" fill="none" xmlns="http://www.w3.org/2000/svg">
<path d="M21 18.25V19C21 19.7956 20.6839 20.5587 20.1213 21.1213C19.5587 21.6839 18.7956 22 18 22H12.75" stroke="white" stroke-width="1.6" stroke-linecap="round" stroke-linejoin="round"/>
<path d="M21 11.5H18C17.6022 11.5 17.2206 11.658 16.9393 11.9393C16.658 12.2206 16.5 12.6022 16.5 13V16.75C16.5 17.1478 16.658 17.5294 16.9393 17.8107C17.2206 18.092 17.6022 18.25 18 18.25H21V11.5ZM21 11.5C21 10.3181 20.7672 9.14778 20.3149 8.05585C19.8626 6.96392 19.1997 5.97177 18.364 5.13604C17.5282 4.30031 16.5361 3.63738 15.4442 3.18508C14.3522 2.73279 13.1819 2.5 12 2.5C10.8181 2.5 9.64778 2.73279 8.55585 3.18508C7.46392 3.63738 6.47177 4.30031 5.63604 5.13604C4.80031 5.97177 4.13738 6.96392 3.68508 8.05585C3.23279 9.14778 3 10.3181 3 11.5M3 11.5V16.75C3 17.1478 3.15804 17.5294 3.43934 17.8107C3.72064 18.092 4.10218 18.25 4.5 18.25H6C6.39782 18.25 6.77936 18.092 7.06066 17.8107C7.34196 17.5294 7.5 17.1478 7.5 16.75V13C7.5 12.6022 7.34196 12.2206 7.06066 11.9393C6.77936 11.658 6.39782 11.5 6 11.5H3Z" stroke="white" stroke-width="1.6" stroke-linecap="round" stroke-linejoin="round"/>
</svg>
