
<svg display="block" role="presentation" viewBox="0 0 24 24" xmlns="http://www.w3.org/2000/svg"><defs ><linearGradient id="C0J6l0InO-2184228032-linear-gradient" x1="0.49751243781094523" x2="0.5024875621890548" y1="0" y2="1"><stop offset="0" stop-color="rgb(255, 255, 255)"/><stop offset="1" stop-color="rgba(255, 255, 255, 0.3)"/></linearGradient></defs><path d="M 0 23.273 L 0 0 L 23.273 0 L 23.273 23.273 Z" fill="transparent" height="23.272727272727273px" id="IvazwQRXQ" transform="translate(0.364 0.729)" width="23.272727272727273px"/><path d="M 11.636 8 C 11.636 8.193 11.56 8.378 11.423 8.514 C 11.287 8.651 11.102 8.727 10.909 8.727 L 8 8.727 C 7.807 8.727 7.622 8.651 7.486 8.514 C 7.349 8.378 7.273 8.193 7.273 8 C 7.273 7.807 7.349 7.622 7.486 7.486 C 7.622 7.349 7.807 7.273 8 7.273 L 10.909 7.273 C 11.102 7.273 11.287 7.349 11.423 7.486 C 11.56 7.622 11.636 7.807 11.636 8 Z M 18.909 4.364 L 18.909 16 C 18.909 16.386 18.756 16.756 18.483 17.029 C 18.21 17.301 17.84 17.455 17.455 17.455 L 1.455 17.455 C 1.069 17.455 0.699 17.301 0.426 17.029 C 0.153 16.756 0 16.386 0 16 L 0 4.364 C 0 3.978 0.153 3.608 0.426 3.335 C 0.699 3.062 1.069 2.909 1.455 2.909 L 5.091 2.909 L 5.091 2.182 C 5.091 1.603 5.321 1.048 5.73 0.639 C 6.139 0.23 6.694 0 7.273 0 L 11.636 0 C 12.215 0 12.77 0.23 13.179 0.639 C 13.588 1.048 13.818 1.603 13.818 2.182 L 13.818 2.909 L 17.455 2.909 C 17.84 2.909 18.21 3.062 18.483 3.335 C 18.756 3.608 18.909 3.978 18.909 4.364 Z M 6.545 2.909 L 12.364 2.909 L 12.364 2.182 C 12.364 1.989 12.287 1.804 12.151 1.668 C 12.014 1.531 11.829 1.455 11.636 1.455 L 7.273 1.455 C 7.08 1.455 6.895 1.531 6.758 1.668 C 6.622 1.804 6.545 1.989 6.545 2.182 Z M 17.455 8.146 L 17.455 4.364 L 1.455 4.364 L 1.455 8.146 C 3.909 9.483 6.66 10.182 9.455 10.182 C 12.249 10.182 15 9.483 17.455 8.146 Z" fill="url(#C0J6l0InO-2184228032-linear-gradient)" height="17.454545443708245px" id="C0J6l0InO" transform="translate(2.545 2.547)" width="18.90909093618393px"/></svg>
