
<svg display="block" role="presentation" viewBox="0 0 24 24" xmlns="http://www.w3.org/2000/svg"><defs ><linearGradient id="xT4MxqJVh-269391384-linear-gradient" x1="0.49751243781094523" x2="0.5024875621890548" y1="0" y2="1"><stop offset="0" stop-color="rgb(255, 255, 255)"/><stop offset="1" stop-color="rgba(255, 255, 255, 0.3)"/></linearGradient></defs><path d="M 0 23.04 L 0 0 L 23.04 0 L 23.04 23.04 Z" fill="transparent" height="23.04px" id="mVdfsz2in" transform="translate(0.022 0.853)" width="23.04px"/><path d="M 16.565 15.84 L 16.565 16.92 C 16.565 17.78 16.224 18.605 15.616 19.213 C 15.008 19.821 14.183 20.163 13.323 20.163 C 12.463 20.163 11.638 19.821 11.03 19.213 C 10.422 18.605 10.08 17.78 10.08 16.92 L 10.08 15.84 C 10.08 15.649 10.156 15.466 10.291 15.331 C 10.426 15.196 10.609 15.12 10.8 15.12 L 15.84 15.12 C 15.935 15.119 16.029 15.137 16.117 15.173 C 16.205 15.209 16.285 15.262 16.353 15.329 C 16.42 15.396 16.474 15.476 16.51 15.563 C 16.547 15.651 16.565 15.745 16.565 15.84 Z M 6.48 12.96 L 1.44 12.96 C 1.249 12.96 1.066 13.036 0.931 13.171 C 0.796 13.306 0.72 13.489 0.72 13.68 L 0.72 14.76 C 0.72 15.619 1.061 16.443 1.669 17.051 C 2.277 17.659 3.101 18 3.96 18 C 4.819 18 5.643 17.659 6.251 17.051 C 6.859 16.443 7.2 15.619 7.2 14.76 L 7.2 13.68 C 7.2 13.489 7.124 13.306 6.989 13.171 C 6.854 13.036 6.671 12.96 6.48 12.96 Z M 3.96 0 C 2.912 0 1.896 0.928 1.098 2.61 C -0.156 5.254 -0.572 9.18 1.124 11.25 C 1.192 11.333 1.277 11.399 1.373 11.445 C 1.47 11.49 1.575 11.514 1.682 11.514 L 6.232 11.514 C 6.338 11.514 6.444 11.49 6.54 11.445 C 6.637 11.399 6.722 11.333 6.79 11.25 C 8.486 9.18 8.069 5.251 6.816 2.61 C 6.017 0.928 5.001 0 3.96 0 Z M 11.052 13.68 L 15.602 13.68 C 15.708 13.68 15.814 13.657 15.91 13.611 C 16.007 13.565 16.092 13.499 16.16 13.416 C 17.856 11.346 17.439 7.418 16.186 4.776 C 15.384 3.088 14.368 2.16 13.32 2.16 C 12.273 2.16 11.26 3.088 10.461 4.77 C 9.207 7.414 8.79 11.34 10.487 13.41 C 10.554 13.494 10.64 13.562 10.737 13.609 C 10.834 13.656 10.941 13.68 11.049 13.68 Z" fill="url(#xT4MxqJVh-269391384-linear-gradient)" height="20.16271700892554px" id="xT4MxqJVh" transform="translate(2.903 2.293)" width="17.283756671540793px"/></svg>
