
<svg display="block" role="presentation" viewBox="0 0 24 24" xmlns="http://www.w3.org/2000/svg"><g d="M 0 22.857 L 0 0 L 22.857 0 L 22.857 22.857 Z M 11.429 20.001 L 19.408 11.908 C 20.245 11.07 20.715 9.935 20.715 8.751 C 20.715 7.566 20.245 6.431 19.408 5.593 C 18.57 4.756 17.435 4.286 16.251 4.286 C 15.066 4.286 13.931 4.756 13.093 5.593 L 11.429 7.143 L 9.765 5.593 C 8.928 4.756 7.792 4.286 6.608 4.286 C 5.424 4.286 4.288 4.756 3.451 5.593 C 2.613 6.431 2.143 7.566 2.143 8.751 C 2.143 9.935 2.613 11.07 3.451 11.908 Z" fill="transparent" height="22.857142858739408px" id="IrmYnUXLJ" transform="translate(0.571 0.35)" width="22.857142858207222px"><path d="M 0 22.857 L 0 0 L 22.857 0 L 22.857 22.857 Z" fill="transparent" height="22.857142857142854px" id="Lz2gdeoT5" transform="translate(0 0)" width="22.857142857142854px"/><path d="M 9.286 15.715 L 17.265 7.622 C 18.102 6.785 18.573 5.649 18.573 4.465 C 18.573 3.281 18.102 2.145 17.265 1.308 C 16.428 0.47 15.292 0 14.108 0 C 12.924 0 11.788 0.47 10.951 1.308 L 9.286 2.858 L 7.622 1.308 C 6.785 0.47 5.649 0 4.465 0 C 3.281 0 2.145 0.47 1.308 1.308 C 0.47 2.145 0 3.281 0 4.465 C 0 5.649 0.47 6.785 1.308 7.622 Z" fill="transparent" height="15.714925714285716px" id="GQ8nrCEhQ" stroke-dasharray="" stroke-linecap="round" stroke-linejoin="round" stroke-width="2.29" stroke="var(--token-aee63b76-e5c0-49ca-a252-571eed390796, rgb(255, 255, 255))" transform="translate(2.143 4.286)" width="18.5725714285714px"/></g></svg>
