
<svg display="block" role="presentation" viewBox="0 0 24 24" xmlns="http://www.w3.org/2000/svg"><defs ><linearGradient id="IK0vtlaDu-915178368-linear-gradient" x1="0.49751243781094523" x2="0.5024875621890548" y1="0" y2="1"><stop offset="0" stop-color="rgb(255, 255, 255)"/><stop offset="1" stop-color="rgba(255, 255, 255, 0.6)"/></linearGradient></defs><path d="M 0 23.579 L 0 0 L 23.579 0 L 23.579 23.579 Z" fill="transparent" height="23.578947368421055px" id="aAVfkFMNF" transform="translate(0.14 0.35)" width="23.578947368421055px"/><path d="M 19.102 9.861 C 19.047 9.996 18.952 10.111 18.831 10.192 C 18.71 10.273 18.567 10.316 18.422 10.316 L 14.737 10.316 L 14.737 12.527 C 14.737 12.722 14.66 12.91 14.522 13.048 C 14.383 13.186 14.196 13.264 14.001 13.264 L 5.158 13.264 C 4.963 13.264 4.776 13.186 4.637 13.048 C 4.499 12.91 4.422 12.722 4.422 12.527 L 4.422 10.316 L 0.737 10.316 C 0.592 10.316 0.449 10.273 0.328 10.192 C 0.206 10.111 0.112 9.996 0.056 9.862 C 0 9.727 -0.014 9.579 0.014 9.436 C 0.043 9.293 0.113 9.161 0.216 9.058 L 9.058 0.216 C 9.127 0.148 9.208 0.093 9.297 0.056 C 9.387 0.019 9.483 0 9.58 0 C 9.676 0 9.772 0.019 9.862 0.056 C 9.951 0.093 10.032 0.148 10.101 0.216 L 18.943 9.058 C 19.046 9.161 19.116 9.293 19.144 9.436 C 19.173 9.579 19.158 9.727 19.102 9.861 Z M 14.001 17.685 L 5.158 17.685 C 4.963 17.685 4.776 17.762 4.637 17.901 C 4.499 18.039 4.422 18.226 4.422 18.422 C 4.422 18.617 4.499 18.804 4.637 18.943 C 4.776 19.081 4.963 19.158 5.158 19.158 L 14.001 19.158 C 14.196 19.158 14.383 19.081 14.522 18.943 C 14.66 18.804 14.737 18.617 14.737 18.422 C 14.737 18.226 14.66 18.039 14.522 17.901 C 14.383 17.762 14.196 17.685 14.001 17.685 Z M 14.001 14.737 L 5.158 14.737 C 4.963 14.737 4.776 14.815 4.637 14.953 C 4.499 15.091 4.422 15.279 4.422 15.474 C 4.422 15.67 4.499 15.857 4.637 15.995 C 4.776 16.133 4.963 16.211 5.158 16.211 L 14.001 16.211 C 14.196 16.211 14.383 16.133 14.522 15.995 C 14.66 15.857 14.737 15.67 14.737 15.474 C 14.737 15.279 14.66 15.091 14.522 14.953 C 14.383 14.815 14.196 14.737 14.001 14.737 Z" fill="url(#IK0vtlaDu-915178368-linear-gradient)" height="19.158464331375924px" id="IK0vtlaDu" transform="translate(2.351 1.683)" width="19.158534372369996px"/></svg>
