
<svg display="block" role="presentation" viewBox="0 0 24 24" xmlns="http://www.w3.org/2000/svg"><defs ><linearGradient id="AZjo12JIN-610373253-linear-gradient" x1="0.49751243781094523" x2="0.5024875621890548" y1="0" y2="1"><stop offset="0" stop-color="rgb(255, 255, 255)"/><stop offset="1" stop-color="rgba(255, 255, 255, 0.6)"/></linearGradient></defs><path d="M 0 23.579 L 0 0 L 23.579 0 L 23.579 23.579 Z" fill="transparent" height="23.578947368421055px" id="Fgdb28R8t" transform="translate(0.21 0.211)" width="23.578947368421055px"/><path d="M 15.116 8.842 C 17.387 5.654 18.544 2.36 16.934 0.75 C 15.324 -0.86 12.03 0.297 8.842 2.568 C 5.654 0.297 2.36 -0.86 0.75 0.75 C -0.86 2.36 0.297 5.654 2.568 8.842 C 0.297 12.03 -0.86 15.324 0.75 16.934 C 1.268 17.453 1.961 17.684 2.768 17.684 C 4.469 17.684 6.68 16.655 8.847 15.116 C 11.004 16.655 13.214 17.684 14.921 17.684 C 15.728 17.684 16.421 17.452 16.939 16.934 C 18.544 15.324 17.387 12.03 15.116 8.842 Z M 15.893 1.791 C 16.596 2.495 16.121 4.776 14.187 7.62 C 13.575 6.862 12.923 6.138 12.235 5.449 C 11.546 4.762 10.821 4.111 10.064 3.5 C 12.908 1.566 15.189 1.088 15.893 1.791 Z M 1.791 1.791 C 1.994 1.588 2.328 1.483 2.769 1.483 C 3.858 1.483 5.596 2.118 7.619 3.5 C 6.862 4.111 6.138 4.762 5.449 5.449 C 4.761 6.138 4.111 6.862 3.5 7.62 C 1.566 4.776 1.088 2.495 1.791 1.791 Z M 1.791 15.893 C 1.088 15.189 1.566 12.908 3.5 10.064 C 4.112 10.822 4.763 11.546 5.452 12.235 C 6.14 12.922 6.864 13.573 7.62 14.184 C 4.776 16.118 2.495 16.596 1.791 15.893 Z M 8.842 9.947 C 8.623 9.947 8.41 9.882 8.228 9.761 C 8.046 9.639 7.905 9.467 7.821 9.265 C 7.737 9.063 7.715 8.841 7.758 8.626 C 7.801 8.412 7.906 8.215 8.06 8.06 C 8.215 7.906 8.412 7.801 8.626 7.758 C 8.841 7.715 9.063 7.737 9.265 7.821 C 9.467 7.905 9.639 8.046 9.761 8.228 C 9.882 8.41 9.947 8.623 9.947 8.842 C 9.947 9.135 9.831 9.416 9.623 9.623 C 9.416 9.831 9.135 9.947 8.842 9.947 Z M 15.893 15.894 C 15.189 16.598 12.908 16.122 10.064 14.188 C 10.821 13.575 11.546 12.924 12.235 12.236 C 12.923 11.547 13.573 10.822 14.184 10.064 C 16.118 12.908 16.596 15.189 15.893 15.893 Z" fill="url(#AZjo12JIN-610373253-linear-gradient)" height="17.68408900785069px" id="AZjo12JIN" transform="translate(3.157 3.158)" width="17.685376344786004px"/></svg>
