
<svg display="block" role="presentation" viewBox="0 0 24 24" xmlns="http://www.w3.org/2000/svg"><g d="M 0 24 L 0 0 L 24 0 L 24 24 Z M 17.25 6.75 L 3 21 M 13.719 17.781 C 13.579 17.921 13.388 18 13.19 18 L 6 18 L 6 10.81 C 6 10.612 6.079 10.421 6.219 10.281 L 12.787 3.787 C 13.772 2.803 15.108 2.25 16.5 2.25 C 17.19 2.25 17.872 2.386 18.509 2.649 C 19.146 2.913 19.725 3.3 20.212 3.787 C 20.7 4.275 21.087 4.854 21.351 5.491 C 21.615 6.128 21.75 6.811 21.75 7.5 C 21.75 8.189 21.615 8.872 21.351 9.509 C 21.087 10.146 20.7 10.725 20.212 11.212 Z M 10.5 6.049 L 10.5 13.5 M 12.75 11.25 L 20.175 11.25" fill="transparent" height="24px" id="s75YBHMc3" width="24px"><path d="M 0 24 L 0 0 L 24 0 L 24 24 Z" fill="transparent" height="24px" id="WCLJEcMBQ" width="24px"/><path d="M 14.25 0 L 0 14.25" fill="transparent" height="14.25px" id="i4TXpFVWz" stroke-dasharray="" stroke-linecap="round" stroke-linejoin="round" stroke-width="1.92" stroke="var(--token-aee63b76-e5c0-49ca-a252-571eed390796, rgb(255, 255, 255))" transform="translate(3 6.75)" width="14.25px"/><path d="M 7.719 15.531 C 7.579 15.671 7.388 15.75 7.19 15.75 L 0 15.75 L 0 8.561 C 0 8.362 0.079 8.171 0.219 8.031 L 6.787 1.538 C 7.772 0.553 9.108 0 10.5 0 C 11.19 0 11.872 0.136 12.509 0.4 C 13.146 0.664 13.725 1.05 14.212 1.538 C 14.7 2.025 15.087 2.604 15.351 3.241 C 15.615 3.878 15.75 4.561 15.75 5.25 C 15.75 5.94 15.615 6.622 15.351 7.259 C 15.087 7.896 14.7 8.475 14.212 8.963 Z" fill="transparent" height="15.750287999999998px" id="V8232aJOX" stroke-dasharray="" stroke-linecap="round" stroke-linejoin="round" stroke-width="1.92" stroke="var(--token-aee63b76-e5c0-49ca-a252-571eed390796, rgb(255, 255, 255))" transform="translate(6 2.25)" width="15.750239999999938px"/><path d="M 0 0 L 0 7.451" fill="transparent" height="7.451256000000001px" id="G2V810FUq" stroke-dasharray="" stroke-linecap="round" stroke-linejoin="round" stroke-width="1.92" stroke="var(--token-aee63b76-e5c0-49ca-a252-571eed390796, rgb(255, 255, 255))" transform="translate(10.5 6.049)" width="1px"/><path d="M 0 0 L 7.425 0" fill="transparent" height="1px" id="ZHXXxslNZ" stroke-dasharray="" stroke-linecap="round" stroke-linejoin="round" stroke-width="1.92" stroke="var(--token-aee63b76-e5c0-49ca-a252-571eed390796, rgb(255, 255, 255))" transform="translate(12.75 11.25)" width="7.425000000000001px"/></g></svg>
