
<svg display="block" role="presentation" viewBox="0 0 24 24" xmlns="http://www.w3.org/2000/svg"><defs ><linearGradient id="z01tzjsra-2259135139-linear-gradient" x1="0.49751243781094523" x2="0.5024875621890548" y1="0" y2="1"><stop offset="0" stop-color="rgb(255, 255, 255)"/><stop offset="1" stop-color="rgba(255, 255, 255, 0.6)"/></linearGradient></defs><path d="M 0 23.579 L 0 0 L 23.579 0 L 23.579 23.579 Z" fill="transparent" height="23.57894736842105px" id="cr9OOspp7" transform="translate(0.21 0.129)" width="23.578947368421055px"/><path d="M 15.719 1.965 L 13.754 1.965 L 13.754 0 L 11.789 0 L 11.789 1.965 L 5.895 1.965 L 5.895 0 L 3.93 0 L 3.93 1.965 L 1.965 1.965 C 0.881 1.965 0 2.846 0 3.93 L 0 17.684 C 0 18.768 0.881 19.649 1.965 19.649 L 15.719 19.649 C 16.803 19.649 17.684 18.768 17.684 17.684 L 17.684 3.93 C 17.684 2.846 16.803 1.965 15.719 1.965 Z M 12.135 13.47 L 8.844 16.702 L 5.554 13.47 C 5.351 13.275 5.189 13.041 5.079 12.782 C 4.969 12.523 4.912 12.244 4.912 11.963 C 4.912 11.681 4.969 11.403 5.079 11.144 C 5.189 10.885 5.351 10.65 5.554 10.455 C 5.963 10.052 6.514 9.825 7.089 9.825 C 7.664 9.825 8.215 10.052 8.624 10.455 L 8.844 10.67 L 9.064 10.455 C 9.473 10.052 10.025 9.825 10.6 9.825 C 11.175 9.825 11.726 10.052 12.135 10.455 C 12.338 10.65 12.5 10.885 12.61 11.144 C 12.72 11.403 12.777 11.681 12.777 11.963 C 12.777 12.244 12.72 12.523 12.61 12.782 C 12.5 13.041 12.338 13.275 12.135 13.47 Z M 15.719 6.877 L 1.965 6.877 L 1.965 4.912 L 15.719 4.912 Z" fill="url(#z01tzjsra-2259135139-linear-gradient)" height="19.64913271000611px" id="z01tzjsra" transform="translate(3.157 2.095)" width="17.684210601605862px"/></svg>
