
<svg display="block" role="presentation" viewBox="0 0 24 24" xmlns="http://www.w3.org/2000/svg"><defs ><linearGradient id="ImRy_nF8y-141838329-linear-gradient" x1="0.49751243781094523" x2="0.5024875621890548" y1="0" y2="1"><stop offset="0" stop-color="rgb(255, 255, 255)"/><stop offset="1" stop-color="rgba(255, 255, 255, 0.6)"/></linearGradient></defs><path d="M 0 23.579 L 0 0 L 23.579 0 L 23.579 23.579 Z" fill="transparent" height="23.57894736842105px" id="KS8Bsq8gA" transform="translate(0.21 0.129)" width="23.578947368421055px"/><g d="M 11.789 0 L 7.86 0 L 7.86 3.988 C 9.266 4.142 10.614 4.634 11.789 5.421 Z M 5.895 0 L 1.965 0 L 1.965 5.421 C 3.14 4.634 4.489 4.142 5.895 3.988 Z M 6.877 19.649 C 8.701 19.649 10.45 18.925 11.74 17.635 C 13.03 16.345 13.754 14.596 13.754 12.772 C 13.754 10.948 13.03 9.199 11.74 7.909 C 10.45 6.619 8.701 5.895 6.877 5.895 C 5.053 5.895 3.304 6.619 2.014 7.909 C 0.725 9.199 0 10.948 0 12.772 C 0 14.596 0.725 16.345 2.014 17.635 C 3.304 18.925 5.053 19.649 6.877 19.649 Z M 5.674 11.28 L 6.877 8.842 L 8.081 11.28 L 10.771 11.67 L 8.824 13.568 L 9.284 16.247 L 6.877 14.982 L 4.471 16.247 L 4.931 13.568 L 2.985 11.67 Z" fill="transparent" height="19.64913287369076px" id="D8qiQBgR_" transform="translate(5.123 2.095)" width="13.754357894736831px"><g d="M 11.789 0 L 7.86 0 L 7.86 3.988 C 9.266 4.142 10.614 4.634 11.789 5.421 Z M 5.895 0 L 1.965 0 L 1.965 5.421 C 3.14 4.634 4.489 4.142 5.895 3.988 Z M 6.877 19.649 C 8.701 19.649 10.45 18.925 11.74 17.635 C 13.03 16.345 13.754 14.596 13.754 12.772 C 13.754 10.948 13.03 9.199 11.74 7.909 C 10.45 6.619 8.701 5.895 6.877 5.895 C 5.053 5.895 3.304 6.619 2.014 7.909 C 0.725 9.199 0 10.948 0 12.772 C 0 14.596 0.725 16.345 2.014 17.635 C 3.304 18.925 5.053 19.649 6.877 19.649 Z M 5.674 11.28 L 6.877 8.842 L 8.081 11.28 L 10.771 11.67 L 8.824 13.568 L 9.284 16.247 L 6.877 14.982 L 4.471 16.247 L 4.931 13.568 L 2.985 11.67 Z" fill="transparent" height="19.649132952117924px" id="C4Cv84aOI" transform="translate(0 0)" width="13.754357894736842px"><path d="M 11.789 0 L 7.86 0 L 7.86 3.988 C 9.266 4.142 10.614 4.634 11.789 5.421 Z M 5.895 0 L 1.965 0 L 1.965 5.421 C 3.14 4.634 4.489 4.142 5.895 3.988 Z M 6.877 19.649 C 8.701 19.649 10.45 18.925 11.74 17.635 C 13.03 16.345 13.754 14.596 13.754 12.772 C 13.754 10.948 13.03 9.199 11.74 7.909 C 10.45 6.619 8.701 5.895 6.877 5.895 C 5.053 5.895 3.304 6.619 2.014 7.909 C 0.725 9.199 0 10.948 0 12.772 C 0 14.596 0.725 16.345 2.014 17.635 C 3.304 18.925 5.053 19.649 6.877 19.649 Z M 5.674 11.28 L 6.877 8.842 L 8.081 11.28 L 10.771 11.67 L 8.824 13.568 L 9.284 16.247 L 6.877 14.982 L 4.471 16.247 L 4.931 13.568 L 2.985 11.67 Z" fill="url(#ImRy_nF8y-141838329-linear-gradient)" height="19.649132952117924px" id="ImRy_nF8y" width="13.754357894736842px"/></g></g></svg>
