
<svg display="block" role="presentation" viewBox="0 0 24 24" xmlns="http://www.w3.org/2000/svg"><defs ><linearGradient id="YEC6qchEC-599758664-linear-gradient" x1="0.49751243781094523" x2="0.5024875621890548" y1="0" y2="1"><stop offset="0" stop-color="rgb(255, 255, 255)"/><stop offset="1" stop-color="rgba(255, 255, 255, 0.6)"/></linearGradient></defs><path d="M 0 24 L 0 0 L 24 0 L 24 24 Z" fill="transparent" height="24px" id="C9I6WOUJI" width="24px"/><path d="M 15.21 13.843 C 15.284 13.956 15.326 14.087 15.331 14.222 C 15.337 14.357 15.306 14.491 15.241 14.609 C 15.177 14.728 15.082 14.828 14.966 14.897 C 14.849 14.966 14.717 15.002 14.582 15.002 L 0.75 15.002 C 0.615 15.002 0.482 14.966 0.366 14.897 C 0.25 14.828 0.155 14.728 0.091 14.609 C 0.026 14.491 -0.005 14.357 0.001 14.222 C 0.006 14.087 0.048 13.956 0.122 13.843 C 1.178 12.218 2.73 10.977 4.549 10.307 C 3.543 9.638 2.78 8.663 2.372 7.527 C 1.964 6.39 1.932 5.153 2.282 3.997 C 2.631 2.841 3.344 1.828 4.313 1.108 C 5.283 0.389 6.458 0 7.666 0 C 8.873 0 10.049 0.389 11.019 1.108 C 11.988 1.828 12.7 2.841 13.05 3.997 C 13.4 5.153 13.368 6.39 12.96 7.527 C 12.551 8.663 11.788 9.638 10.783 10.307 C 12.601 10.977 14.154 12.218 15.21 13.843 Z M 23.451 13.829 C 22.395 12.21 20.846 10.976 19.033 10.307 C 20.22 9.508 21.057 8.286 21.375 6.891 C 21.693 5.496 21.467 4.033 20.744 2.798 C 20.02 1.564 18.854 0.651 17.481 0.247 C 16.109 -0.158 14.634 -0.024 13.356 0.62 C 13.308 0.645 13.265 0.681 13.231 0.725 C 13.198 0.768 13.174 0.818 13.162 0.872 C 13.151 0.926 13.151 0.981 13.163 1.035 C 13.175 1.089 13.198 1.139 13.232 1.183 C 14.182 2.367 14.727 3.825 14.788 5.343 C 14.85 6.86 14.423 8.357 13.572 9.614 C 13.517 9.697 13.497 9.797 13.516 9.894 C 13.534 9.991 13.591 10.077 13.672 10.133 C 14.782 10.908 15.732 11.889 16.471 13.023 C 16.769 13.479 16.89 14.028 16.813 14.567 C 16.804 14.621 16.807 14.676 16.822 14.728 C 16.837 14.78 16.862 14.829 16.898 14.87 C 16.933 14.912 16.977 14.945 17.026 14.968 C 17.075 14.991 17.129 15.002 17.183 15.002 L 22.836 15.002 C 23.002 15.002 23.162 14.948 23.293 14.847 C 23.424 14.747 23.518 14.606 23.561 14.446 C 23.587 14.341 23.591 14.232 23.572 14.126 C 23.553 14.019 23.512 13.918 23.451 13.829 Z" fill="url(#YEC6qchEC-599758664-linear-gradient)" height="15.00231441294517px" id="YEC6qchEC" transform="translate(0.208 4.498)" width="23.583910557817703px"/></svg>
