
<svg display="block" role="presentation" viewBox="0 0 24 24" xmlns="http://www.w3.org/2000/svg"><defs ><linearGradient id="iPClcAvhJ-2206510212-linear-gradient" x1="0.49751243781094523" x2="0.5024875621890548" y1="0" y2="1"><stop offset="0" stop-color="rgb(255, 255, 255)"/><stop offset="1" stop-color="rgba(255, 255, 255, 0.3)"/></linearGradient></defs><path d="M 21.635 6.066 L 16.544 0.248 C 16.476 0.17 16.392 0.108 16.298 0.065 C 16.204 0.023 16.102 0 15.998 0 L 5.817 0 C 5.713 0 5.611 0.023 5.517 0.065 C 5.423 0.108 5.339 0.17 5.271 0.248 L 0.18 6.066 C 0.061 6.202 -0.003 6.377 0 6.557 C 0.003 6.737 0.073 6.91 0.196 7.042 L 10.377 17.951 C 10.445 18.024 10.528 18.082 10.619 18.122 C 10.711 18.162 10.809 18.182 10.909 18.182 C 11.009 18.182 11.108 18.162 11.199 18.122 C 11.291 18.082 11.373 18.024 11.441 17.951 L 21.623 7.042 C 21.745 6.91 21.814 6.737 21.817 6.556 C 21.819 6.376 21.754 6.202 21.635 6.066 Z M 19.487 5.818 L 15.635 5.818 L 12.362 1.455 L 15.668 1.455 Z M 6.051 7.273 L 8.79 14.121 L 2.399 7.273 Z M 15.764 7.273 L 19.416 7.273 L 13.025 14.121 Z M 6.147 1.455 L 9.453 1.455 L 6.18 5.818 L 2.328 5.818 Z" fill="url(#iPClcAvhJ-2206510212-linear-gradient)" height="18.182109036723052px" id="iPClcAvhJ" transform="translate(0.85 3.274)" width="21.816675769656936px"/></svg>
