<svg display="block" role="presentation" viewBox="0 0 24 24" xmlns="http://www.w3.org/2000/svg" id="3142241284"><path d="M 0 22.857 L 0 0 L 22.857 0 L 22.857 22.857 Z" fill="transparent" height="22.857142857142854px" id="JgwKF8utr" transform="translate(0.571 1.141)" width="22.857142857142854px"></path><path d="M 2.72 15.852 C 1.898 15.03 2.443 13.304 2.025 12.294 C 1.591 11.25 0 10.402 0 9.286 C 0 8.17 1.591 7.321 2.025 6.278 C 2.443 5.268 1.898 3.541 2.72 2.72 C 3.541 1.898 5.268 2.443 6.278 2.025 C 7.326 1.591 8.17 0 9.286 0 C 10.402 0 11.25 1.591 12.294 2.025 C 13.304 2.443 15.03 1.898 15.852 2.72 C 16.673 3.541 16.129 5.267 16.546 6.278 C 16.98 7.326 18.571 8.17 18.571 9.286 C 18.571 10.402 16.98 11.25 16.546 12.294 C 16.129 13.304 16.673 15.03 15.852 15.852 C 15.03 16.673 13.304 16.129 12.294 16.546 C 11.25 16.98 10.402 18.571 9.286 18.571 C 8.17 18.571 7.321 16.98 6.278 16.546 C 5.268 16.129 3.541 16.673 2.72 15.852 Z" fill="transparent" height="18.57142857142857px" id="exzkex_UG" stroke-dasharray="" stroke-linecap="round" stroke-linejoin="round" stroke-width="1.83" stroke="var(--1umtsxu, var(--token-aee63b76-e5c0-49ca-a252-571eed390796, rgb(255, 255, 255)))" transform="translate(2.714 2.713)" width="18.57142857142857px"></path><path d="M 1.071 2.143 C 1.663 2.143 2.143 1.663 2.143 1.071 C 2.143 0.48 1.663 0 1.071 0 C 0.48 0 0 0.48 0 1.071 C 0 1.663 0.48 2.143 1.071 2.143 Z" fill="var(--token-aee63b76-e5c0-49ca-a252-571eed390796, rgb(255, 255, 255))" height="2.1428571428571406px" id="LYgI_enNT" transform="translate(10.929 15.57)" width="2.1428571428571423px"></path><path d="M 2.857 5.714 L 2.857 5 C 4.435 5 5.714 3.88 5.714 2.5 C 5.714 1.12 4.435 0 2.857 0 C 1.279 0 0 1.12 0 2.5 L 0 2.857" fill="transparent" height="5.714285714285714px" id="mwcKso1Gy" stroke-dasharray="" stroke-linecap="round" stroke-linejoin="round" stroke-width="1.83" stroke="var(--1umtsxu, var(--token-aee63b76-e5c0-49ca-a252-571eed390796, rgb(255, 255, 255)))" transform="translate(9.143 7.713)" width="5.7142857142857135px"></path></svg>
