
<svg display="block" role="presentation" viewBox="0 0 24 24" xmlns="http://www.w3.org/2000/svg"><defs ><linearGradient id="KjDvmmwVg-2017146720-linear-gradient" x1="0.49751243781094523" x2="0.5024875621890548" y1="0" y2="1"><stop offset="0" stop-color="rgb(255, 255, 255)"/><stop offset="1" stop-color="rgba(255, 255, 255, 0.3)"/></linearGradient></defs><path d="M 0 23.04 L 0 0 L 23.04 0 L 23.04 23.04 Z" fill="transparent" height="23.04px" id="iZzvJovkJ" transform="translate(0.48 0.774)" width="23.04px"/><path d="M 9.36 0 C 7.509 0 5.699 0.549 4.16 1.577 C 2.621 2.606 1.421 4.068 0.712 5.778 C 0.004 7.488 -0.181 9.37 0.18 11.186 C 0.541 13.002 1.432 14.67 2.741 15.978 C 4.051 17.288 5.718 18.179 7.534 18.54 C 9.35 18.901 11.232 18.716 12.942 18.008 C 14.652 17.299 16.114 16.099 17.143 14.56 C 18.171 13.021 18.72 11.211 18.72 9.36 C 18.717 6.878 17.73 4.499 15.976 2.744 C 14.221 0.99 11.842 0.003 9.36 0 Z M 6.12 6.48 C 6.334 6.48 6.542 6.543 6.72 6.662 C 6.898 6.781 7.036 6.949 7.118 7.147 C 7.2 7.344 7.221 7.561 7.179 7.771 C 7.138 7.98 7.035 8.173 6.884 8.324 C 6.733 8.475 6.54 8.578 6.331 8.619 C 6.121 8.661 5.904 8.64 5.707 8.558 C 5.509 8.476 5.341 8.338 5.222 8.16 C 5.103 7.982 5.04 7.774 5.04 7.56 C 5.04 7.274 5.154 6.999 5.356 6.796 C 5.559 6.594 5.834 6.48 6.12 6.48 Z M 13.583 11.88 C 12.657 13.481 11.118 14.4 9.36 14.4 C 7.602 14.4 6.063 13.482 5.137 11.88 C 5.085 11.798 5.05 11.706 5.034 11.611 C 5.019 11.515 5.022 11.417 5.046 11.322 C 5.069 11.228 5.111 11.139 5.169 11.062 C 5.227 10.984 5.3 10.919 5.385 10.87 C 5.469 10.822 5.562 10.791 5.658 10.779 C 5.754 10.767 5.852 10.775 5.945 10.802 C 6.039 10.829 6.126 10.875 6.201 10.936 C 6.276 10.998 6.338 11.074 6.383 11.16 C 7.055 12.322 8.112 12.96 9.36 12.96 C 10.608 12.96 11.665 12.321 12.337 11.16 C 12.382 11.074 12.444 10.998 12.519 10.936 C 12.595 10.875 12.681 10.829 12.775 10.802 C 12.868 10.775 12.966 10.767 13.062 10.779 C 13.158 10.791 13.251 10.822 13.336 10.87 C 13.42 10.919 13.493 10.984 13.551 11.062 C 13.609 11.139 13.651 11.228 13.675 11.322 C 13.698 11.417 13.701 11.515 13.686 11.611 C 13.67 11.706 13.635 11.798 13.583 11.88 Z M 14.4 8.28 L 11.52 8.28 C 11.329 8.28 11.146 8.204 11.011 8.069 C 10.876 7.934 10.8 7.751 10.8 7.56 C 10.8 7.369 10.876 7.186 11.011 7.051 C 11.146 6.916 11.329 6.84 11.52 6.84 L 14.4 6.84 C 14.591 6.84 14.774 6.916 14.909 7.051 C 15.044 7.186 15.12 7.369 15.12 7.56 C 15.12 7.751 15.044 7.934 14.909 8.069 C 14.774 8.204 14.591 8.28 14.4 8.28 Z" fill="url(#KjDvmmwVg-2017146720-linear-gradient)" height="18.72000119268044px" id="KjDvmmwVg" transform="translate(2.64 2.934)" width="18.72000117809352px"/></svg>
