
<svg display="block" role="presentation" viewBox="0 0 24 24" xmlns="http://www.w3.org/2000/svg"><defs ><linearGradient id="mBIaviwh6-2796396267-linear-gradient" x1="0.49751243781094523" x2="0.5024875621890548" y1="0" y2="1"><stop offset="0" stop-color="rgb(255, 255, 255)"/><stop offset="1" stop-color="rgba(255, 255, 255, 0.3)"/></linearGradient></defs><path d="M 0 23.04 L 0 0 L 23.04 0 L 23.04 23.04 Z" fill="transparent" height="23.04px" id="WoKue18B7" transform="translate(0.33 0.894)" width="23.04px"/><path d="M 17.28 0 L 1.44 0 C 1.058 0 0.692 0.152 0.422 0.422 C 0.152 0.692 0 1.058 0 1.44 L 0 14.4 C 0 14.782 0.152 15.148 0.422 15.418 C 0.692 15.688 1.058 15.84 1.44 15.84 L 17.28 15.84 C 17.662 15.84 18.028 15.688 18.298 15.418 C 18.568 15.148 18.72 14.782 18.72 14.4 L 18.72 1.44 C 18.72 1.058 18.568 0.692 18.298 0.422 C 18.028 0.152 17.662 0 17.28 0 Z M 15.84 13.68 L 2.88 13.68 C 2.689 13.68 2.506 13.604 2.371 13.469 C 2.236 13.334 2.16 13.151 2.16 12.96 L 2.16 2.88 C 2.16 2.689 2.236 2.506 2.371 2.371 C 2.506 2.236 2.689 2.16 2.88 2.16 C 3.071 2.16 3.254 2.236 3.389 2.371 C 3.524 2.506 3.6 2.689 3.6 2.88 L 3.6 9.782 L 6.691 6.691 C 6.757 6.624 6.837 6.571 6.924 6.534 C 7.012 6.498 7.105 6.479 7.2 6.479 C 7.295 6.479 7.388 6.498 7.476 6.534 C 7.563 6.571 7.643 6.624 7.709 6.691 L 9.36 8.342 L 13.382 4.32 L 10.8 4.32 C 10.609 4.32 10.426 4.244 10.291 4.109 C 10.156 3.974 10.08 3.791 10.08 3.6 C 10.08 3.409 10.156 3.226 10.291 3.091 C 10.426 2.956 10.609 2.88 10.8 2.88 L 15.12 2.88 C 15.311 2.88 15.494 2.956 15.629 3.091 C 15.764 3.226 15.84 3.409 15.84 3.6 L 15.84 7.92 C 15.84 8.111 15.764 8.294 15.629 8.429 C 15.494 8.564 15.311 8.64 15.12 8.64 C 14.929 8.64 14.746 8.564 14.611 8.429 C 14.476 8.294 14.4 8.111 14.4 7.92 L 14.4 5.338 L 9.869 9.869 C 9.803 9.936 9.723 9.989 9.636 10.026 C 9.548 10.062 9.455 10.081 9.36 10.081 C 9.265 10.081 9.172 10.062 9.084 10.026 C 8.997 9.989 8.917 9.936 8.851 9.869 L 7.2 8.218 L 3.6 11.818 L 3.6 12.24 L 15.84 12.24 C 16.031 12.24 16.214 12.316 16.349 12.451 C 16.484 12.586 16.56 12.769 16.56 12.96 C 16.56 13.151 16.484 13.334 16.349 13.469 C 16.214 13.604 16.031 13.68 15.84 13.68 Z" fill="url(#mBIaviwh6-2796396267-linear-gradient)" height="15.83996160715256px" id="mBIaviwh6" transform="translate(2.49 4.494)" width="18.720048003278244px"/></svg>
