<svg width="32" height="32" viewBox="0 0 32 32" fill="none" xmlns="http://www.w3.org/2000/svg">
<path d="M15.9985 16.0014C11.5816 16.0014 7.99924 12.4191 7.99924 7.99913C3.58233 7.99913 0 11.5815 0 16.0014C0 20.4183 3.58233 24.0007 7.99924 24.0007C7.99924 19.5838 11.5816 16.0014 15.9985 16.0014Z" fill="#121212"/>
<path d="M24.0008 7.99913C24.0008 12.419 20.4184 16.0014 15.9985 16.0014C20.4184 16.0014 24.0008 19.5838 24.0008 24.0007C28.4177 24.0007 32 20.4183 32 16.0014C32 11.5815 28.4177 7.99913 24.0008 7.99913Z" fill="#121212"/>
<path d="M15.9985 16.0014C15.9985 11.5815 19.5808 7.99913 24.0008 7.99913C24.0008 3.58222 20.4183 0 15.9984 0C11.5815 0 7.99924 3.58222 7.99924 7.99913C12.4192 7.99913 15.9985 11.5815 15.9985 16.0014Z" fill="#121212"/>
<path d="M15.9985 16.0014C15.9985 20.4183 12.4192 24.0007 7.99924 24.0007C7.99924 28.4176 11.5815 32 15.9984 32C20.4183 32 24.0008 28.4176 24.0008 24.0007C19.5808 24.0007 15.9985 20.4183 15.9985 16.0014Z" fill="#121212"/>
</svg>
