<svg width="25" height="23" viewBox="0 0 25 23" fill="none" xmlns="http://www.w3.org/2000/svg">
<path d="M12.3776 7.25751L8.48414 0.386331C8.61341 0.25471 8.76215 0.168378 8.91088 0.110352C7.76271 0.488231 7.23588 1.77755 7.23588 1.77755L0.12306 14.3268C0.0229777 14.7203 -0.00482539 15.0755 0.00768495 15.3883H7.77105L12.3776 7.25751Z" fill="#34A853"/>
<path d="M12.377 7.25751L16.9835 15.3883H24.7469C24.7594 15.0755 24.7316 14.7203 24.6315 14.3268L17.5187 1.77755C17.5187 1.77755 16.9905 0.488231 15.8437 0.110352C15.9911 0.168378 16.1412 0.25471 16.2705 0.386331L12.377 7.25751Z" fill="#FBBC05"/>
<path d="M12.3769 7.25785L16.2704 0.386669C16.1411 0.255048 15.991 0.168716 15.8437 0.110689C15.6741 0.0554932 15.492 0.018696 15.2946 0.00878906H15.0889H9.66493H9.4592C9.26321 0.0172807 9.07973 0.0540779 8.91014 0.110689C8.7628 0.168716 8.61267 0.255048 8.4834 0.386669L12.3769 7.25785Z" fill="#188038"/>
<path d="M7.77175 15.3887L3.92273 22.182C3.92273 22.182 3.79485 22.1197 3.62109 21.991C4.16738 22.4113 4.69837 22.5005 4.69837 22.5005H19.815C20.6491 22.5005 20.8228 22.182 20.8228 22.182C20.8256 22.1806 20.827 22.1792 20.8298 22.1778L16.9835 15.3887H7.77175Z" fill="#4285F4"/>
<path d="M7.77215 15.3887H0.00878906C0.0477101 16.3114 0.448042 16.8507 0.448042 16.8507L0.73995 17.3573C0.760801 17.387 0.77331 17.404 0.77331 17.404L1.40856 18.5193L2.83473 21.0017C2.87644 21.1022 2.92509 21.1941 2.97652 21.2819C2.99598 21.3116 3.01405 21.3442 3.0349 21.3725C3.04046 21.381 3.04602 21.3895 3.05158 21.398C3.22811 21.647 3.4255 21.8395 3.62289 21.991C3.79664 22.1212 3.92453 22.182 3.92453 22.182L7.77215 15.3887Z" fill="#1967D2"/>
<path d="M16.9834 15.3887H24.7468C24.7078 16.3114 24.3075 16.8507 24.3075 16.8507L24.0156 17.3573C23.9947 17.387 23.9822 17.404 23.9822 17.404L23.347 18.5193L21.9208 21.0017C21.8791 21.1022 21.8305 21.1941 21.779 21.2819C21.7596 21.3116 21.7415 21.3442 21.7206 21.3725C21.7151 21.381 21.7095 21.3895 21.704 21.398C21.5274 21.647 21.33 21.8395 21.1327 21.991C20.9589 22.1212 20.831 22.182 20.831 22.182L16.9834 15.3887Z" fill="#EA4335"/>
</svg>
