<svg width="25" height="21" viewBox="0 0 25 21" fill="none" xmlns="http://www.w3.org/2000/svg">
<path d="M0 18.6294C0 19.5244 0.731226 20.2494 1.63216 20.2494H1.65562C0.74089 20.2494 0 19.5244 0 18.6294Z" fill="#FBBC05"/>
<path d="M14.0261 6.07497V10.3045L19.7283 5.70507V1.61999C19.7283 0.724946 18.9971 0 18.0962 0H5.74249L5.73145 6.07497H14.0261Z" fill="#FBBC05"/>
<path d="M14.0251 14.5357H5.71669L5.70703 20.2502H18.0952C18.9975 20.2502 19.7274 19.5253 19.7274 18.6302V14.942L14.0251 10.3062V14.5357Z" fill="#34A853"/>
<path d="M5.74224 0L0 6.07497H5.73258L5.74224 0Z" fill="#EA4335"/>
<path d="M0 14.5352V18.6297C0 19.5247 0.74089 20.2497 1.65562 20.2497H5.70775L5.71741 14.5352H0Z" fill="#1967D2"/>
<path d="M5.73258 6.0752H0V14.5356H5.71741L5.73258 6.0752Z" fill="#4285F4"/>
<path d="M24.7419 17.1898V3.2849C24.4204 1.43946 22.3964 3.5549 22.3964 3.5549L19.7295 5.70544V14.9407L23.5471 18.0444C24.9254 18.2253 24.7419 17.1898 24.7419 17.1898Z" fill="#34A853"/>
<path d="M14.0264 10.3041L19.73 14.9414V5.70605L14.0264 10.3041Z" fill="#188038"/>
</svg>
