<svg xmlns="http://www.w3.org/2000/svg" width="320" height="320" viewBox="0 0 320 320" role="img" aria-label="Operator portrait op-02">
  <defs>
    <linearGradient id="bg-op-02" x1="0" y1="0" x2="0" y2="1">
      <stop offset="0%" stop-color="#324a52"/>
      <stop offset="100%" stop-color="#27373d"/>
    </linearGradient>
    <radialGradient id="spot-op-02" cx="36%" cy="28%" r="80%">
      <stop offset="0%" stop-color="#ffffff" stop-opacity="0.14"/>
      <stop offset="60%" stop-color="#ffffff" stop-opacity="0"/>
    </radialGradient>
  </defs>
  <rect width="320" height="320" fill="url(#bg-op-02)"/>
  <rect width="320" height="320" fill="url(#spot-op-02)"/>
  <g stroke="#ffffff" stroke-opacity="0.05" stroke-width="1">
    <line x1="0" y1="80" x2="320" y2="80"/><line x1="0" y1="160" x2="320" y2="160"/>
    <line x1="0" y1="240" x2="320" y2="240"/>
  </g>
  <!-- shoulders / coverall -->
  <path d="M40 320 q0 -76 120 -76 q120 0 120 76 z" fill="#3b4654"/>
  <path d="M40 320 q0 -76 120 -76 q120 0 120 76 z" fill="url(#spot-op-02)"/>
  <rect x="152" y="250" width="16" height="70" fill="#2a323c"/>
  <circle cx="160" cy="276" r="4" fill="#27c08a"/>
  <circle cx="160" cy="300" r="4" fill="#2a323c" stroke="#1c222a" stroke-width="1"/>
  <!-- neck -->
  <rect x="142" y="208" width="36" height="46" rx="8" fill="#a9714f"/>
  <!-- head -->
  <ellipse cx="160" cy="170" rx="62" ry="68" fill="#c98e6a"/>
  <path d="M160 102 a62 68 0 0 0 -62 68 q34 -18 62 -18 q28 0 62 18 a62 68 0 0 0 -62 -68 z" fill="#a9714f" opacity="0.35"/>
  <!-- ears -->
  <circle cx="100" cy="172" r="12" fill="#a9714f"/>
  <circle cx="220" cy="172" r="12" fill="#a9714f"/>
  <!-- hair / hat -->
  
    <path d="M96 118 q64 -64 128 0 q-64 -34 -128 0 z" fill="#1d1a18"/>
  <!-- brows + eyes -->
  <rect x="126" y="150" width="22" height="4" rx="2" fill="#1d1a18"/>
  <rect x="172" y="150" width="22" height="4" rx="2" fill="#1d1a18"/>
  <circle cx="137" cy="166" r="5" fill="#2b2320"/>
  <circle cx="183" cy="166" r="5" fill="#2b2320"/>
  <circle cx="135.5" cy="164.5" r="1.6" fill="#fff" opacity="0.8"/>
  <circle cx="181.5" cy="164.5" r="1.6" fill="#fff" opacity="0.8"/>
  
    <g fill="none" stroke="#1c1c1c" stroke-width="4">
      <rect x="120" y="150" width="34" height="26" rx="6" fill="#bcd3e0" fill-opacity="0.5"/>
      <rect x="170" y="150" width="34" height="26" rx="6" fill="#bcd3e0" fill-opacity="0.5"/>
      <line x1="154" y1="160" x2="170" y2="160"/>
    </g>
  <!-- nose + mouth -->
  <path d="M160 172 l-6 22 q6 5 12 0 z" fill="#a9714f" opacity="0.6"/>
  <path d="M146 204 q14 12 28 0" fill="none" stroke="#a9714f" stroke-width="3" stroke-linecap="round"/>
  <!-- ID chip -->
  <rect x="196" y="276" width="40" height="26" rx="4" fill="#e0e5ec"/>
  <rect x="200" y="280" width="14" height="18" rx="2" fill="#27c08a"/>
  <line x1="218" y1="284" x2="232" y2="284" stroke="#9aa6b2" stroke-width="2"/>
  <line x1="218" y1="290" x2="230" y2="290" stroke="#9aa6b2" stroke-width="2"/>
  <line x1="218" y1="296" x2="228" y2="296" stroke="#9aa6b2" stroke-width="2"/>
</svg>