<svg width="198" height="36" viewBox="0 0 198 36" fill="none" xmlns="http://www.w3.org/2000/svg">
<path d="M187.761 29.6983V10.6633C187.761 9.47077 187.952 8.51452 188.334 7.79452C188.739 7.05202 189.324 6.51202 190.089 6.17452C190.854 5.81452 191.777 5.63452 192.857 5.63452H194.612V8.46952H193.397C192.587 8.46952 192.002 8.63827 191.642 8.97577C191.304 9.29077 191.136 9.85327 191.136 10.6633V29.6983H187.761ZM185.331 15.692V12.9583H195.084V15.692H185.331Z" fill="#1E1E1E"/>
<path d="M179.398 29.6983V5.63452H182.773V29.6983H179.398Z" fill="#1E1E1E"/>
<path d="M168.176 30.103C166.556 30.103 165.116 29.743 163.856 29.023C162.596 28.2805 161.606 27.2567 160.886 25.9517C160.166 24.6467 159.806 23.1167 159.806 21.3617C159.806 19.6067 160.154 18.0767 160.852 16.7717C161.572 15.4442 162.562 14.4092 163.822 13.6667C165.082 12.9242 166.556 12.553 168.243 12.553C169.886 12.553 171.303 12.9242 172.496 13.6667C173.711 14.3867 174.644 15.343 175.297 16.5355C175.949 17.728 176.276 19.0555 176.276 20.518C176.276 20.743 176.276 20.9905 176.276 21.2605C176.276 21.5305 176.264 21.8117 176.242 22.1042H162.269V19.7417H172.901C172.833 18.3467 172.361 17.2555 171.483 16.468C170.606 15.6805 169.514 15.2867 168.209 15.2867C167.287 15.2867 166.432 15.4892 165.644 15.8942C164.879 16.2992 164.261 16.8955 163.788 17.683C163.338 18.4705 163.113 19.4717 163.113 20.6867V21.6317C163.113 22.8692 163.338 23.9155 163.788 24.7705C164.261 25.603 164.879 26.233 165.644 26.6605C166.432 27.088 167.276 27.3017 168.176 27.3017C169.233 27.3017 170.122 27.0655 170.842 26.593C171.562 26.098 172.091 25.4342 172.428 24.6017H175.803C175.511 25.6592 175.016 26.6042 174.318 27.4367C173.621 28.2467 172.754 28.8992 171.719 29.3942C170.707 29.8667 169.526 30.103 168.176 30.103Z" fill="#1E1E1E"/>
<path d="M141.265 29.6983V5.63452H144.64V15.7258H144.673C145.281 14.7133 146.068 13.937 147.036 13.397C148.026 12.8345 149.14 12.5533 150.377 12.5533C151.682 12.5533 152.818 12.8345 153.786 13.397C154.753 13.937 155.496 14.7695 156.013 15.8945C156.531 16.997 156.79 18.3808 156.79 20.0458V29.6983H153.448V20.3833C153.448 18.7633 153.111 17.537 152.436 16.7045C151.783 15.8495 150.793 15.422 149.466 15.422C148.543 15.422 147.711 15.647 146.968 16.097C146.248 16.5245 145.675 17.1545 145.247 17.987C144.842 18.8195 144.64 19.832 144.64 21.0245V29.6983H141.265Z" fill="#1E1E1E"/>
<path d="M129.948 30.1032C128.215 30.1032 126.697 29.7995 125.392 29.192C124.087 28.562 123.074 27.6845 122.354 26.5595C121.634 25.4345 121.274 24.1182 121.274 22.6107H124.818C124.818 23.4657 125.009 24.2532 125.392 24.9732C125.797 25.6707 126.37 26.2332 127.113 26.6607C127.878 27.0657 128.823 27.2682 129.948 27.2682C130.87 27.2682 131.669 27.122 132.344 26.8295C133.042 26.537 133.582 26.1207 133.964 25.5807C134.347 25.0182 134.538 24.3657 134.538 23.6232C134.538 22.7682 134.347 22.082 133.964 21.5645C133.582 21.0245 133.064 20.5745 132.412 20.2145C131.759 19.8545 131.017 19.5507 130.184 19.3032C129.352 19.0332 128.497 18.7407 127.619 18.4257C125.729 17.7732 124.312 16.9632 123.367 15.9957C122.444 15.0057 121.983 13.7232 121.983 12.1482C121.983 10.8657 122.287 9.74071 122.894 8.77321C123.524 7.80571 124.413 7.05196 125.56 6.51196C126.708 5.94946 128.058 5.66821 129.61 5.66821C131.14 5.66821 132.468 5.94946 133.593 6.51196C134.74 7.07446 135.64 7.85071 136.293 8.84071C136.945 9.83071 137.283 10.9895 137.305 12.317H133.728C133.728 11.642 133.559 11.0232 133.222 10.4607C132.907 9.87571 132.434 9.40321 131.804 9.04321C131.174 8.68321 130.398 8.50321 129.475 8.50321C128.71 8.48071 128.024 8.60446 127.417 8.87446C126.809 9.12196 126.325 9.49321 125.965 9.98821C125.628 10.4832 125.459 11.1132 125.459 11.8782C125.459 12.5757 125.605 13.1495 125.898 13.5995C126.213 14.027 126.652 14.3982 127.214 14.7132C127.799 15.0282 128.474 15.332 129.239 15.6245C130.027 15.8945 130.904 16.1982 131.872 16.5357C133.042 16.9182 134.088 17.3907 135.01 17.9532C135.933 18.4932 136.664 19.1907 137.204 20.0457C137.744 20.9007 138.014 22.0032 138.014 23.3532C138.014 24.5232 137.71 25.6257 137.103 26.6607C136.495 27.6732 135.595 28.5057 134.403 29.1582C133.21 29.7882 131.725 30.1032 129.948 30.1032Z" fill="#1E1E1E"/>
<path d="M102.834 29.6983V5.63452H106.209V15.7258H106.243C106.851 14.7133 107.638 13.937 108.606 13.397C109.596 12.8345 110.709 12.5533 111.947 12.5533C113.252 12.5533 114.388 12.8345 115.356 13.397C116.323 13.937 117.066 14.7695 117.583 15.8945C118.101 16.997 118.359 18.3808 118.359 20.0458V29.6983H115.018V20.3833C115.018 18.7633 114.681 17.537 114.006 16.7045C113.353 15.8495 112.363 15.422 111.036 15.422C110.113 15.422 109.281 15.647 108.538 16.097C107.818 16.5245 107.244 17.1545 106.817 17.987C106.412 18.8195 106.209 19.832 106.209 21.0245V29.6983H102.834Z" fill="#1E1E1E"/>
<path d="M91.6808 30.103C89.9933 30.103 88.5083 29.7317 87.2258 28.9892C85.9433 28.2467 84.942 27.223 84.222 25.918C83.5245 24.5905 83.1758 23.0605 83.1758 21.328C83.1758 19.5955 83.5358 18.0767 84.2558 16.7717C84.9983 15.4442 86.0108 14.4092 87.2933 13.6667C88.5983 12.9242 90.072 12.553 91.7145 12.553C93.762 12.553 95.472 13.093 96.8445 14.173C98.2395 15.2305 99.1283 16.6592 99.5108 18.4592H96.0008C95.7758 17.4692 95.2583 16.7042 94.4483 16.1642C93.6608 15.6242 92.727 15.3542 91.647 15.3542C90.7695 15.3542 89.9483 15.5792 89.1833 16.0292C88.4183 16.4792 87.7995 17.1542 87.327 18.0542C86.8545 18.9317 86.6183 20.023 86.6183 21.328C86.6183 22.273 86.7533 23.1167 87.0233 23.8592C87.2933 24.6017 87.6533 25.2317 88.1033 25.7492C88.5758 26.2442 89.1158 26.6267 89.7233 26.8967C90.3308 27.1442 90.972 27.268 91.647 27.268C92.3895 27.268 93.0533 27.1442 93.6383 26.8967C94.2233 26.6492 94.7183 26.3005 95.1233 25.8505C95.5508 25.378 95.8433 24.8267 96.0008 24.1967H99.5108C99.1283 25.9742 98.2395 27.403 96.8445 28.483C95.4495 29.563 93.7283 30.103 91.6808 30.103Z" fill="#1E1E1E"/>
<path d="M72.5946 30.103C70.9746 30.103 69.5346 29.743 68.2746 29.023C67.0146 28.2805 66.0246 27.2567 65.3046 25.9517C64.5846 24.6467 64.2246 23.1167 64.2246 21.3617C64.2246 19.6067 64.5734 18.0767 65.2709 16.7717C65.9909 15.4442 66.9809 14.4092 68.2409 13.6667C69.5009 12.9242 70.9746 12.553 72.6621 12.553C74.3046 12.553 75.7221 12.9242 76.9146 13.6667C78.1296 14.3867 79.0634 15.343 79.7159 16.5355C80.3684 17.728 80.6946 19.0555 80.6946 20.518C80.6946 20.743 80.6946 20.9905 80.6946 21.2605C80.6946 21.5305 80.6834 21.8117 80.6609 22.1042H66.6884V19.7417H77.3196C77.2521 18.3467 76.7796 17.2555 75.9021 16.468C75.0246 15.6805 73.9334 15.2867 72.6284 15.2867C71.7059 15.2867 70.8509 15.4892 70.0634 15.8942C69.2984 16.2992 68.6796 16.8955 68.2071 17.683C67.7571 18.4705 67.5321 19.4717 67.5321 20.6867V21.6317C67.5321 22.8692 67.7571 23.9155 68.2071 24.7705C68.6796 25.603 69.2984 26.233 70.0634 26.6605C70.8509 27.088 71.6946 27.3017 72.5946 27.3017C73.6521 27.3017 74.5409 27.0655 75.2609 26.593C75.9809 26.098 76.5096 25.4342 76.8471 24.6017H80.2221C79.9296 25.6592 79.4346 26.6042 78.7371 27.4367C78.0396 28.2467 77.1734 28.8992 76.1384 29.3942C75.1259 29.8667 73.9446 30.103 72.5946 30.103Z" fill="#1E1E1E"/>
<path d="M54.2541 29.6982V8.84074H47.2341V6.07324H64.6154V8.84074H57.6291V29.6982H54.2541Z" fill="#1E1E1E"/>
<g clip-path="url(#clip0_17160_440)">
<path fill-rule="evenodd" clip-rule="evenodd" d="M14.494 36H22.49V13.5H0V21.5H14.494V36ZM27.988 36H35.984V0H0V8H27.988V36Z" fill="#1E1E1E"/>
<path d="M8.99601 36H0V27H8.99601V36Z" fill="#8B5CF6"/>
</g>
<defs>
<clipPath id="clip0_17160_440">
<rect width="35.984" height="36" fill="white"/>
</clipPath>
</defs>
</svg>
