<svg width="165" height="30" viewBox="0 0 165 30" fill="none" xmlns="http://www.w3.org/2000/svg">
<path d="M156.467 24.7484V8.88594C156.467 7.89219 156.627 7.09531 156.945 6.49531C157.283 5.87656 157.77 5.42656 158.408 5.14531C159.045 4.84531 159.814 4.69531 160.714 4.69531H162.177V7.05781H161.164C160.489 7.05781 160.002 7.19844 159.702 7.47969C159.42 7.74219 159.28 8.21094 159.28 8.88594V24.7484H156.467ZM154.442 13.0766V10.7984H162.57V13.0766H154.442Z" fill="#1E1E1E"/>
<path d="M149.499 24.7484V4.69531H152.311V24.7484H149.499Z" fill="#1E1E1E"/>
<path d="M140.146 25.0859C138.796 25.0859 137.596 24.7859 136.546 24.1859C135.496 23.5672 134.671 22.7141 134.071 21.6266C133.471 20.5391 133.171 19.2641 133.171 17.8016C133.171 16.3391 133.462 15.0641 134.043 13.9766C134.643 12.8703 135.468 12.0078 136.518 11.3891C137.568 10.7703 138.796 10.4609 140.203 10.4609C141.571 10.4609 142.753 10.7703 143.746 11.3891C144.759 11.9891 145.537 12.7859 146.081 13.7797C146.625 14.7734 146.896 15.8797 146.896 17.0984C146.896 17.2859 146.896 17.4922 146.896 17.7172C146.896 17.9422 146.887 18.1766 146.868 18.4203H135.225V16.4516H144.084C144.028 15.2891 143.634 14.3797 142.903 13.7234C142.171 13.0672 141.262 12.7391 140.175 12.7391C139.406 12.7391 138.693 12.9078 138.037 13.2453C137.4 13.5828 136.884 14.0797 136.49 14.7359C136.115 15.3922 135.928 16.2266 135.928 17.2391V18.0266C135.928 19.0578 136.115 19.9297 136.49 20.6422C136.884 21.3359 137.4 21.8609 138.037 22.2172C138.693 22.5734 139.396 22.7516 140.146 22.7516C141.028 22.7516 141.768 22.5547 142.368 22.1609C142.968 21.7484 143.409 21.1953 143.69 20.5016H146.503C146.259 21.3828 145.846 22.1703 145.265 22.8641C144.684 23.5391 143.962 24.0828 143.1 24.4953C142.256 24.8891 141.271 25.0859 140.146 25.0859Z" fill="#1E1E1E"/>
<path d="M117.721 24.7484V4.69531H120.533V13.1047H120.561C121.068 12.2609 121.724 11.6141 122.53 11.1641C123.355 10.6953 124.283 10.4609 125.314 10.4609C126.402 10.4609 127.349 10.6953 128.155 11.1641C128.961 11.6141 129.58 12.3078 130.011 13.2453C130.443 14.1641 130.658 15.3172 130.658 16.7047V24.7484H127.874V16.9859C127.874 15.6359 127.593 14.6141 127.03 13.9203C126.486 13.2078 125.661 12.8516 124.555 12.8516C123.786 12.8516 123.093 13.0391 122.474 13.4141C121.874 13.7703 121.396 14.2953 121.039 14.9891C120.702 15.6828 120.533 16.5266 120.533 17.5203V24.7484H117.721Z" fill="#1E1E1E"/>
<path d="M108.29 25.0861C106.846 25.0861 105.581 24.833 104.493 24.3268C103.406 23.8018 102.562 23.0705 101.962 22.133C101.362 21.1955 101.062 20.0986 101.062 18.8424H104.015C104.015 19.5549 104.174 20.2111 104.493 20.8111C104.831 21.3924 105.309 21.8611 105.927 22.2174C106.565 22.5549 107.352 22.7236 108.29 22.7236C109.059 22.7236 109.724 22.6018 110.287 22.358C110.868 22.1143 111.318 21.7674 111.637 21.3174C111.956 20.8486 112.115 20.3049 112.115 19.6861C112.115 18.9736 111.956 18.4018 111.637 17.9705C111.318 17.5205 110.887 17.1455 110.343 16.8455C109.799 16.5455 109.181 16.2924 108.487 16.0861C107.793 15.8611 107.081 15.6174 106.349 15.3549C104.774 14.8111 103.593 14.1361 102.806 13.3299C102.037 12.5049 101.652 11.4361 101.652 10.1236C101.652 9.05488 101.906 8.11738 102.412 7.31113C102.937 6.50488 103.677 5.87676 104.634 5.42676C105.59 4.95801 106.715 4.72363 108.009 4.72363C109.284 4.72363 110.39 4.95801 111.327 5.42676C112.284 5.89551 113.034 6.54238 113.577 7.36738C114.121 8.19238 114.402 9.15801 114.421 10.2643H111.44C111.44 9.70176 111.299 9.18613 111.018 8.71738C110.756 8.22988 110.362 7.83613 109.837 7.53613C109.312 7.23613 108.665 7.08613 107.896 7.08613C107.259 7.06738 106.687 7.17051 106.181 7.39551C105.674 7.60176 105.271 7.91113 104.971 8.32363C104.69 8.73613 104.549 9.26113 104.549 9.89863C104.549 10.4799 104.671 10.958 104.915 11.333C105.177 11.6893 105.543 11.9986 106.012 12.2611C106.499 12.5236 107.062 12.7768 107.699 13.0205C108.356 13.2455 109.087 13.4986 109.893 13.7799C110.868 14.0986 111.74 14.4924 112.509 14.9611C113.277 15.4111 113.887 15.9924 114.337 16.7049C114.787 17.4174 115.012 18.3361 115.012 19.4611C115.012 20.4361 114.759 21.3549 114.252 22.2174C113.746 23.0611 112.996 23.7549 112.002 24.2986C111.009 24.8236 109.771 25.0861 108.29 25.0861Z" fill="#1E1E1E"/>
<path d="M85.6956 24.7484V4.69531H88.5081V13.1047H88.5362C89.0424 12.2609 89.6987 11.6141 90.5049 11.1641C91.3299 10.6953 92.2581 10.4609 93.2893 10.4609C94.3768 10.4609 95.3237 10.6953 96.1299 11.1641C96.9362 11.6141 97.5549 12.3078 97.9862 13.2453C98.4174 14.1641 98.6331 15.3172 98.6331 16.7047V24.7484H95.8487V16.9859C95.8487 15.6359 95.5674 14.6141 95.0049 13.9203C94.4612 13.2078 93.6362 12.8516 92.5299 12.8516C91.7612 12.8516 91.0674 13.0391 90.4487 13.4141C89.8487 13.7703 89.3706 14.2953 89.0143 14.9891C88.6768 15.6828 88.5081 16.5266 88.5081 17.5203V24.7484H85.6956Z" fill="#1E1E1E"/>
<path d="M76.4007 25.0859C74.9945 25.0859 73.757 24.7766 72.6882 24.1578C71.6195 23.5391 70.7851 22.6859 70.1851 21.5984C69.6039 20.4922 69.3132 19.2172 69.3132 17.7734C69.3132 16.3297 69.6132 15.0641 70.2132 13.9766C70.832 12.8703 71.6757 12.0078 72.7445 11.3891C73.832 10.7703 75.0601 10.4609 76.4289 10.4609C78.1351 10.4609 79.5601 10.9109 80.7039 11.8109C81.8664 12.6922 82.607 13.8828 82.9257 15.3828H80.0007C79.8132 14.5578 79.382 13.9203 78.707 13.4703C78.0507 13.0203 77.2726 12.7953 76.3726 12.7953C75.6414 12.7953 74.957 12.9828 74.3195 13.3578C73.682 13.7328 73.1664 14.2953 72.7726 15.0453C72.3789 15.7766 72.182 16.6859 72.182 17.7734C72.182 18.5609 72.2945 19.2641 72.5195 19.8828C72.7445 20.5016 73.0445 21.0266 73.4195 21.4578C73.8132 21.8703 74.2632 22.1891 74.7695 22.4141C75.2757 22.6203 75.8101 22.7234 76.3726 22.7234C76.9914 22.7234 77.5445 22.6203 78.032 22.4141C78.5195 22.2078 78.932 21.9172 79.2695 21.5422C79.6257 21.1484 79.8695 20.6891 80.0007 20.1641H82.9257C82.607 21.6453 81.8664 22.8359 80.7039 23.7359C79.5414 24.6359 78.107 25.0859 76.4007 25.0859Z" fill="#1E1E1E"/>
<path d="M60.4955 25.0859C59.1455 25.0859 57.9455 24.7859 56.8955 24.1859C55.8455 23.5672 55.0205 22.7141 54.4205 21.6266C53.8205 20.5391 53.5205 19.2641 53.5205 17.8016C53.5205 16.3391 53.8111 15.0641 54.3924 13.9766C54.9924 12.8703 55.8174 12.0078 56.8674 11.3891C57.9174 10.7703 59.1455 10.4609 60.5518 10.4609C61.9205 10.4609 63.1018 10.7703 64.0955 11.3891C65.108 11.9891 65.8861 12.7859 66.4299 13.7797C66.9736 14.7734 67.2455 15.8797 67.2455 17.0984C67.2455 17.2859 67.2455 17.4922 67.2455 17.7172C67.2455 17.9422 67.2361 18.1766 67.2174 18.4203H55.5736V16.4516H64.433C64.3768 15.2891 63.983 14.3797 63.2518 13.7234C62.5205 13.0672 61.6111 12.7391 60.5236 12.7391C59.7549 12.7391 59.0424 12.9078 58.3861 13.2453C57.7486 13.5828 57.233 14.0797 56.8393 14.7359C56.4643 15.3922 56.2768 16.2266 56.2768 17.2391V18.0266C56.2768 19.0578 56.4643 19.9297 56.8393 20.6422C57.233 21.3359 57.7486 21.8609 58.3861 22.2172C59.0424 22.5734 59.7455 22.7516 60.4955 22.7516C61.3768 22.7516 62.1174 22.5547 62.7174 22.1609C63.3174 21.7484 63.758 21.1953 64.0393 20.5016H66.8518C66.608 21.3828 66.1955 22.1703 65.6143 22.8641C65.033 23.5391 64.3111 24.0828 63.4486 24.4953C62.6049 24.8891 61.6205 25.0859 60.4955 25.0859Z" fill="#1E1E1E"/>
<path d="M45.2118 24.7485V7.36729H39.3618V5.06104H53.8462V7.36729H48.0243V24.7485H45.2118Z" fill="#1E1E1E"/>
<g clip-path="url(#clip0_17160_109)">
<path fill-rule="evenodd" clip-rule="evenodd" d="M12.0783 30H18.7417V11.25H0V17.9167H12.0783V30ZM23.3234 30H29.9867V0H0V6.66667H23.3234V30Z" fill="#1E1E1E"/>
<path d="M7.49668 30H0V22.5H7.49668V30Z" fill="#8B5CF6"/>
</g>
<defs>
<clipPath id="clip0_17160_109">
<rect width="29.9867" height="30" fill="white"/>
</clipPath>
</defs>
</svg>
