<svg width="120" height="36" viewBox="0 0 120 36" fill="none" xmlns="http://www.w3.org/2000/svg">
<g clip-path="url(#clip0_17220_369)">
<path d="M8.12813 19.8762C8.85163 22.6875 11.0648 24.9006 13.876 25.6241V33.7523C6.6385 32.8498 0.9025 27.1136 0 19.8762H8.12813ZM31.752 19.8762C30.8495 27.1136 25.1134 32.8498 17.876 33.7523V25.6241C20.6873 24.9006 22.9004 22.6875 23.6239 19.8762H31.752ZM15.876 15.8763C16.9806 15.8763 17.876 16.7716 17.876 17.8763C17.876 18.9809 16.9806 19.8762 15.876 19.8762C14.7714 19.8762 13.876 18.9809 13.876 17.8763C13.876 16.7716 14.7714 15.8763 15.876 15.8763ZM13.876 10.1283C11.0648 10.8518 8.85163 13.065 8.12813 15.8763H0C0.9025 8.63875 6.63863 2.90262 13.876 2.00013V10.1283ZM17.876 2C25.1134 2.90263 30.8495 8.63888 31.752 15.8763H23.6239C22.9004 13.065 20.6873 10.8518 17.876 10.1283V2Z" fill="#D6FF66"/>
</g>
<path d="M40 26.485V9.90318H50.2716V12.0569H42.4992V17.1091H49.5356V19.2547H42.4992V26.485H40Z" fill="white"/>
<path d="M52.8979 26.485V14.0486H55.3161V26.485H52.8979ZM54.1191 12.1297C53.6986 12.1297 53.3373 11.9894 53.0353 11.7087C52.7388 11.4226 52.5905 11.0826 52.5905 10.6885C52.5905 10.2891 52.7388 9.94906 53.0353 9.66838C53.3373 9.3823 53.6986 9.23926 54.1191 9.23926C54.5397 9.23926 54.8983 9.3823 55.1948 9.66838C55.4968 9.94906 55.6477 10.2891 55.6477 10.6885C55.6477 11.0826 55.4968 11.4226 55.1948 11.7087C54.8983 11.9894 54.5397 12.1297 54.1191 12.1297Z" fill="white"/>
<path d="M60.7347 19.1009V26.485H58.3164V14.0486H60.6377V16.0728H60.7913C61.0771 15.4143 61.5246 14.8853 62.1339 14.4858C62.7486 14.0864 63.5223 13.8867 64.4551 13.8867C65.3017 13.8867 66.0431 14.0648 66.6793 14.4211C67.3156 14.7719 67.8089 15.2955 68.1594 15.9918C68.5099 16.6881 68.6851 17.5491 68.6851 18.5746V26.485H66.2668V18.8661C66.2668 17.9647 66.0323 17.2603 65.5632 16.7529C65.0941 16.2401 64.4498 15.9837 63.6302 15.9837C63.0694 15.9837 62.5707 16.1052 62.1339 16.3481C61.7026 16.591 61.3602 16.9472 61.1068 17.4168C60.8587 17.881 60.7347 18.4424 60.7347 19.1009Z" fill="white"/>
<path d="M76.9082 26.736C75.7058 26.736 74.6705 26.4634 73.8024 25.9182C72.9397 25.3677 72.2765 24.6093 71.8128 23.6431C71.3491 22.6769 71.1172 21.5704 71.1172 20.3235C71.1172 19.0604 71.3545 17.9458 71.829 16.9796C72.3035 16.008 72.9721 15.2496 73.8348 14.7045C74.6975 14.1593 75.7138 13.8867 76.8839 13.8867C77.8275 13.8867 78.6686 14.0621 79.4073 14.413C80.146 14.7584 80.7418 15.2442 81.1947 15.8704C81.6531 16.4965 81.9254 17.2279 82.0116 18.0645H79.658C79.5286 17.4816 79.2321 16.9796 78.7684 16.5586C78.3101 16.1376 77.6954 15.927 76.9243 15.927C76.2503 15.927 75.6599 16.1052 75.1531 16.4614C74.6516 16.8123 74.2607 17.3143 73.9803 17.9674C73.7 18.6151 73.5598 19.3816 73.5598 20.2668C73.5598 21.1736 73.6973 21.9563 73.9723 22.6148C74.2472 23.2733 74.6355 23.7834 75.1369 24.1451C75.6438 24.5067 76.2396 24.6876 76.9243 24.6876C77.3826 24.6876 77.7978 24.6039 78.1699 24.4366C78.5473 24.2638 78.8627 24.0182 79.1162 23.6998C79.375 23.3813 79.5556 22.9981 79.658 22.5501H82.0116C81.9254 23.3543 81.6638 24.0722 81.2271 24.7037C80.7904 25.3353 80.2053 25.8319 79.472 26.1935C78.7441 26.5552 77.8895 26.736 76.9082 26.736Z" fill="white"/>
<path d="M87.96 26.7603C87.1727 26.7603 86.461 26.6145 85.8247 26.3231C85.1885 26.0262 84.6844 25.5971 84.3123 25.0357C83.9457 24.4743 83.7623 23.7861 83.7623 22.9711C83.7623 22.2694 83.8971 21.6918 84.1667 21.2384C84.4363 20.785 84.8003 20.426 85.2586 20.1616C85.7169 19.8971 86.2291 19.6974 86.7953 19.5624C87.3615 19.4275 87.9384 19.3249 88.5261 19.2547C89.2702 19.1684 89.8741 19.0982 90.3378 19.0442C90.8015 18.9849 91.1385 18.8904 91.3488 18.7608C91.5591 18.6313 91.6642 18.4208 91.6642 18.1293V18.0726C91.6642 17.3655 91.4647 16.8177 91.0657 16.429C90.6721 16.0404 90.0844 15.8461 89.3025 15.8461C88.4884 15.8461 87.8467 16.0269 87.3776 16.3885C86.9139 16.7448 86.5931 17.1415 86.4152 17.5787L84.1425 17.0606C84.4121 16.3049 84.8057 15.6949 85.3233 15.2307C85.8463 14.7611 86.4475 14.4211 87.1269 14.2106C87.8063 13.9947 88.5207 13.8867 89.2702 13.8867C89.7663 13.8867 90.292 13.9461 90.8473 14.0648C91.4081 14.1782 91.9311 14.3887 92.4164 14.6964C92.9071 15.004 93.3088 15.4439 93.6215 16.0161C93.9342 16.5829 94.0906 17.3197 94.0906 18.2265V26.485H91.7289V24.7847H91.6319C91.4755 25.0978 91.2409 25.4055 90.9282 25.7077C90.6155 26.01 90.2138 26.261 89.7231 26.4607C89.2325 26.6604 88.6447 26.7603 87.96 26.7603ZM88.4857 24.8171C89.1543 24.8171 89.7258 24.6849 90.2003 24.4204C90.6802 24.1559 91.0441 23.8104 91.2922 23.384C91.5456 22.9522 91.6723 22.4907 91.6723 21.9995V20.3964C91.586 20.4827 91.4189 20.5637 91.1708 20.6393C90.9282 20.7094 90.6505 20.7715 90.3378 20.8255C90.0251 20.8741 89.7204 20.9199 89.4239 20.9631C89.1273 21.0009 88.8793 21.0333 88.6798 21.0603C88.2107 21.1197 87.782 21.2195 87.3938 21.3599C87.011 21.5002 86.7036 21.7026 86.4718 21.9671C86.2453 22.2262 86.1321 22.5716 86.1321 23.0035C86.1321 23.6026 86.3532 24.056 86.7953 24.3637C87.2374 24.666 87.8009 24.8171 88.4857 24.8171Z" fill="white"/>
<path d="M106.368 17.0849L104.176 17.4735C104.084 17.1928 103.939 16.9256 103.739 16.6719C103.545 16.4182 103.281 16.2104 102.947 16.0485C102.612 15.8866 102.194 15.8056 101.693 15.8056C101.008 15.8056 100.437 15.9594 99.9782 16.2671C99.5199 16.5694 99.2908 16.9607 99.2908 17.4411C99.2908 17.8567 99.4445 18.1914 99.7518 18.4451C100.059 18.6988 100.555 18.9066 101.24 19.0685L103.213 19.5219C104.356 19.7864 105.208 20.1939 105.769 20.7445C106.33 21.2951 106.61 22.0103 106.61 22.8901C106.61 23.635 106.395 24.2989 105.963 24.8819C105.537 25.4594 104.942 25.9128 104.176 26.2421C103.416 26.5714 102.534 26.736 101.531 26.736C100.14 26.736 99.005 26.4391 98.1261 25.8454C97.2472 25.2462 96.708 24.3961 96.5085 23.2949L98.8459 22.9387C98.9915 23.5486 99.2908 24.0101 99.7437 24.3232C100.197 24.6309 100.787 24.7847 101.515 24.7847C102.308 24.7847 102.941 24.6201 103.416 24.2908C103.89 23.9562 104.127 23.5486 104.127 23.0682C104.127 22.6796 103.982 22.353 103.691 22.0885C103.405 21.8241 102.965 21.6243 102.372 21.4894L100.269 21.0279C99.1101 20.7634 98.2528 20.3424 97.6975 19.7648C97.1475 19.1873 96.8725 18.4559 96.8725 17.5707C96.8725 16.8366 97.0774 16.1942 97.4872 15.6437C97.897 15.0931 98.4631 14.664 99.1856 14.3563C99.9082 14.0432 100.736 13.8867 101.669 13.8867C103.011 13.8867 104.068 14.1782 104.839 14.7611C105.61 15.3387 106.12 16.1133 106.368 17.0849Z" fill="white"/>
<path d="M111.434 19.1009V26.485H109.016V9.90318H111.402V16.0728H111.556C111.847 15.4035 112.292 14.8718 112.89 14.4778C113.489 14.0837 114.271 13.8867 115.236 13.8867C116.088 13.8867 116.832 14.0621 117.468 14.413C118.11 14.7638 118.606 15.2874 118.956 15.9837C119.312 16.6746 119.49 17.5383 119.49 18.5746V26.485H117.072V18.8661C117.072 17.9539 116.837 17.2468 116.368 16.7448C115.899 16.2374 115.247 15.9837 114.411 15.9837C113.839 15.9837 113.327 16.1052 112.874 16.3481C112.427 16.591 112.073 16.9472 111.815 17.4168C111.561 17.881 111.434 18.4424 111.434 19.1009Z" fill="white"/>
<defs>
<clipPath id="clip0_17220_369">
<rect width="32" height="32" fill="white" transform="translate(0 2)"/>
</clipPath>
</defs>
</svg>
