<svg width="120" height="36" viewBox="0 0 120 36" fill="none" xmlns="http://www.w3.org/2000/svg">
<g clip-path="url(#clip0_17220_297)">
<path d="M8.12813 19.8762C8.85163 22.6875 11.0648 24.9006 13.876 25.6241V33.7523C6.6385 32.8498 0.9025 27.1136 0 19.8762H8.12813ZM31.752 19.8762C30.8495 27.1136 25.1134 32.8498 17.876 33.7523V25.6241C20.6873 24.9006 22.9004 22.6875 23.6239 19.8762H31.752ZM15.876 15.8763C16.9806 15.8763 17.876 16.7716 17.876 17.8763C17.876 18.9809 16.9806 19.8762 15.876 19.8762C14.7714 19.8762 13.876 18.9809 13.876 17.8763C13.876 16.7716 14.7714 15.8763 15.876 15.8763ZM13.876 10.1283C11.0648 10.8518 8.85163 13.065 8.12813 15.8763H0C0.9025 8.63875 6.63863 2.90262 13.876 2.00013V10.1283ZM17.876 2C25.1134 2.90263 30.8495 8.63888 31.752 15.8763H23.6239C22.9004 13.065 20.6873 10.8518 17.876 10.1283V2Z" fill="#D6FF66"/>
</g>
<path d="M40 26.4852V9.90342H50.2716V12.0571H42.4992V17.1094H49.5356V19.255H42.4992V26.4852H40Z" fill="white"/>
<path d="M52.8979 26.4852V14.0489H55.3161V26.4852H52.8979ZM54.1191 12.13C53.6986 12.13 53.3373 11.9896 53.0353 11.709C52.7388 11.4229 52.5905 11.0828 52.5905 10.6888C52.5905 10.2894 52.7388 9.9493 53.0353 9.66862C53.3373 9.38254 53.6986 9.2395 54.1191 9.2395C54.5397 9.2395 54.8983 9.38254 55.1948 9.66862C55.4968 9.9493 55.6477 10.2894 55.6477 10.6888C55.6477 11.0828 55.4968 11.4229 55.1948 11.709C54.8983 11.9896 54.5397 12.13 54.1191 12.13Z" fill="white"/>
<path d="M60.7347 19.1011V26.4852H58.3164V14.0489H60.6377V16.073H60.7913C61.0771 15.4145 61.5246 14.8855 62.1339 14.4861C62.7486 14.0867 63.5223 13.8869 64.4551 13.8869C65.3017 13.8869 66.0431 14.0651 66.6793 14.4213C67.3156 14.7722 67.8089 15.2958 68.1594 15.9921C68.5099 16.6884 68.6851 17.5493 68.6851 18.5749V26.4852H66.2668V18.8663C66.2668 17.9649 66.0323 17.2605 65.5632 16.7531C65.0941 16.2404 64.4498 15.984 63.6302 15.984C63.0694 15.984 62.5707 16.1054 62.1339 16.3483C61.7026 16.5912 61.3602 16.9475 61.1068 17.4171C60.8587 17.8813 60.7347 18.4426 60.7347 19.1011Z" fill="white"/>
<path d="M76.9082 26.7362C75.7058 26.7362 74.6705 26.4636 73.8024 25.9185C72.9397 25.3679 72.2765 24.6095 71.8128 23.6433C71.3491 22.6771 71.1172 21.5706 71.1172 20.3237C71.1172 19.0607 71.3545 17.946 71.829 16.9798C72.3035 16.0083 72.9721 15.2499 73.8348 14.7047C74.6975 14.1595 75.7138 13.8869 76.8839 13.8869C77.8275 13.8869 78.6686 14.0624 79.4073 14.4132C80.146 14.7587 80.7418 15.2445 81.1947 15.8706C81.6531 16.4967 81.9254 17.2281 82.0116 18.0648H79.658C79.5286 17.4818 79.2321 16.9798 78.7684 16.5588C78.3101 16.1378 77.6954 15.9273 76.9243 15.9273C76.2503 15.9273 75.6599 16.1054 75.1531 16.4617C74.6516 16.8125 74.2607 17.3145 73.9803 17.9676C73.7 18.6154 73.5598 19.3818 73.5598 20.2671C73.5598 21.1739 73.6973 21.9565 73.9723 22.6151C74.2472 23.2736 74.6355 23.7837 75.1369 24.1453C75.6438 24.507 76.2396 24.6878 76.9243 24.6878C77.3826 24.6878 77.7978 24.6041 78.1699 24.4368C78.5473 24.2641 78.8627 24.0185 79.1162 23.7C79.375 23.3815 79.5556 22.9983 79.658 22.5503H82.0116C81.9254 23.3546 81.6638 24.0725 81.2271 24.704C80.7904 25.3355 80.2053 25.8321 79.472 26.1938C78.7441 26.5554 77.8895 26.7362 76.9082 26.7362Z" fill="white"/>
<path d="M87.96 26.7605C87.1727 26.7605 86.461 26.6148 85.8247 26.3233C85.1885 26.0264 84.6844 25.5973 84.3123 25.036C83.9457 24.4746 83.7623 23.7864 83.7623 22.9713C83.7623 22.2696 83.8971 21.6921 84.1667 21.2387C84.4363 20.7852 84.8003 20.4263 85.2586 20.1618C85.7169 19.8973 86.2291 19.6976 86.7953 19.5627C87.3615 19.4277 87.9384 19.3252 88.5261 19.255C89.2702 19.1686 89.8741 19.0985 90.3378 19.0445C90.8015 18.9851 91.1385 18.8906 91.3488 18.7611C91.5591 18.6315 91.6642 18.421 91.6642 18.1296V18.0729C91.6642 17.3658 91.4647 16.8179 91.0657 16.4293C90.6721 16.0406 90.0844 15.8463 89.3025 15.8463C88.4884 15.8463 87.8467 16.0271 87.3776 16.3888C86.9139 16.745 86.5931 17.1418 86.4152 17.579L84.1425 17.0608C84.4121 16.3051 84.8057 15.6952 85.3233 15.231C85.8463 14.7614 86.4475 14.4213 87.1269 14.2108C87.8063 13.9949 88.5207 13.8869 89.2702 13.8869C89.7663 13.8869 90.292 13.9463 90.8473 14.0651C91.4081 14.1784 91.9311 14.3889 92.4164 14.6966C92.9071 15.0043 93.3088 15.4442 93.6215 16.0163C93.9342 16.5831 94.0906 17.3199 94.0906 18.2267V26.4852H91.7289V24.785H91.6319C91.4755 25.098 91.2409 25.4057 90.9282 25.708C90.6155 26.0102 90.2138 26.2612 89.7231 26.461C89.2325 26.6607 88.6447 26.7605 87.96 26.7605ZM88.4857 24.8173C89.1543 24.8173 89.7258 24.6851 90.2003 24.4206C90.6802 24.1561 91.0441 23.8107 91.2922 23.3842C91.5456 22.9524 91.6723 22.4909 91.6723 21.9997V20.3966C91.586 20.483 91.4189 20.5639 91.1708 20.6395C90.9282 20.7097 90.6505 20.7717 90.3378 20.8257C90.0251 20.8743 89.7204 20.9202 89.4239 20.9634C89.1273 21.0011 88.8793 21.0335 88.6798 21.0605C88.2107 21.1199 87.782 21.2198 87.3938 21.3601C87.011 21.5004 86.7036 21.7029 86.4718 21.9673C86.2453 22.2264 86.1321 22.5719 86.1321 23.0037C86.1321 23.6029 86.3532 24.0563 86.7953 24.3639C87.2374 24.6662 87.8009 24.8173 88.4857 24.8173Z" fill="white"/>
<path d="M106.368 17.0851L104.176 17.4737C104.084 17.1931 103.939 16.9259 103.739 16.6722C103.545 16.4185 103.281 16.2107 102.947 16.0487C102.612 15.8868 102.194 15.8058 101.693 15.8058C101.008 15.8058 100.437 15.9597 99.9782 16.2673C99.5199 16.5696 99.2908 16.961 99.2908 17.4413C99.2908 17.857 99.4445 18.1916 99.7518 18.4453C100.059 18.699 100.555 18.9068 101.24 19.0688L103.213 19.5222C104.356 19.7867 105.208 20.1942 105.769 20.7448C106.33 21.2953 106.61 22.0105 106.61 22.8904C106.61 23.6352 106.395 24.2992 105.963 24.8821C105.537 25.4597 104.942 25.9131 104.176 26.2423C103.416 26.5716 102.534 26.7362 101.531 26.7362C100.14 26.7362 99.005 26.4394 98.1261 25.8456C97.2472 25.2465 96.708 24.3963 96.5085 23.2952L98.8459 22.9389C98.9915 23.5489 99.2908 24.0104 99.7437 24.3235C100.197 24.6311 100.787 24.785 101.515 24.785C102.308 24.785 102.941 24.6203 103.416 24.2911C103.89 23.9564 104.127 23.5489 104.127 23.0685C104.127 22.6798 103.982 22.3533 103.691 22.0888C103.405 21.8243 102.965 21.6246 102.372 21.4896L100.269 21.0281C99.1101 20.7636 98.2528 20.3426 97.6975 19.7651C97.1475 19.1875 96.8725 18.4561 96.8725 17.5709C96.8725 16.8368 97.0774 16.1945 97.4872 15.6439C97.897 15.0933 98.4631 14.6642 99.1856 14.3565C99.9082 14.0435 100.736 13.8869 101.669 13.8869C103.011 13.8869 104.068 14.1784 104.839 14.7614C105.61 15.3389 106.12 16.1135 106.368 17.0851Z" fill="white"/>
<path d="M111.434 19.1011V26.4852H109.016V9.90342H111.402V16.073H111.556C111.847 15.4037 112.292 14.872 112.89 14.478C113.489 14.084 114.271 13.8869 115.236 13.8869C116.088 13.8869 116.832 14.0624 117.468 14.4132C118.11 14.7641 118.606 15.2877 118.956 15.984C119.312 16.6749 119.49 17.5385 119.49 18.5749V26.4852H117.072V18.8663C117.072 17.9541 116.837 17.247 116.368 16.745C115.899 16.2377 115.247 15.984 114.411 15.984C113.839 15.984 113.327 16.1054 112.874 16.3483C112.427 16.5912 112.073 16.9475 111.815 17.4171C111.561 17.8813 111.434 18.4426 111.434 19.1011Z" fill="white"/>
<defs>
<clipPath id="clip0_17220_297">
<rect width="32" height="32" fill="white" transform="translate(0 2)"/>
</clipPath>
</defs>
</svg>
