<svg xmlns="http://www.w3.org/2000/svg" width="120" height="32" fill="white" viewBox="0 0 146 32">
  <path fill="white" d="M4.3373 25.2621c-1.4507 0-2.5173-.064-3.2-.192-.6827-.128-1.024-.2774-1.024-.448l1.28-2.784c.4907.0853 1.7067.1706 3.648.256 1.9627.064 4.6507.096 8.064.096h.608c.9173 0 1.568-.16 1.952-.48.384-.3414.576-.9067.576-1.696v-.64c0-.7467-.16-1.28-.48-1.6-.2987-.32-.9814-.48-2.048-.48h-7.424c-2.1547 0-3.7227-.3947-4.704-1.184-.9814-.8107-1.472-2.1227-1.472-3.936v-.512c0-.9387.1706-1.8027.512-2.592.3626-.7894.9707-1.4187 1.824-1.888.8533-.4907 2.0267-.736 3.52-.736h8.704c1.4506 0 2.624.0746 3.52.224.896.1493 1.344.3093 1.344.48l-.64 2.688c-.5547-.064-1.8134-.128-3.776-.192-1.9627-.0854-4.5974-.128-7.904-.128l-.352-.032c-.9814 0-1.6427.2026-1.984.608-.3414.384-.5227.8746-.544 1.472v.544c0 .704.192 1.2373.576 1.6.4053.3413 1.0667.512 1.984.512h7.104c1.3653 0 2.528.1386 3.488.416.96.2773 1.696.7893 2.208 1.536.512.7253.768 1.8026.768 3.232v.512c0 1.6-.416 2.8906-1.248 3.872-.8107.9813-2.2294 1.472-4.256 1.472H4.3373ZM25.2608 25.2621V9.0061l-.32-2.592h14.176c1.3653 0 2.432.1813 3.2.544.7893.3626 1.3653.8426 1.728 1.44.384.576.6293 1.1946.736 1.856.1067.6613.16 1.2906.16 1.888v1.888c0 .4906-.0747 1.0453-.224 1.664-.1494.5973-.4267 1.184-.832 1.76-.4054.5546-.992 1.024-1.76 1.408-.768.3626-1.7707.544-3.008.544h-3.264c-1.344 0-2.6027-.032-3.776-.096-1.152-.064-2.016-.1174-2.592-.16v6.112h-4.224Zm4.224-8.928h8.704c.96 0 1.6213-.2347 1.984-.704.3626-.4694.544-1.0347.544-1.696v-2.016c0-.6827-.1814-1.2587-.544-1.728-.3627-.4694-1.0134-.704-1.952-.704h-8.736v6.848ZM69.8575 25.5821c-.8533 0-1.696-.128-2.528-.384-.8106-.2774-1.7386-.9387-2.784-1.984l-2.304-2.304c-.9386-.96-1.9733-1.664-3.104-2.112-1.1093-.448-2.5066-.672-4.192-.672h-.992v7.136h-4.224V9.0061l-.32-2.592h14.176c1.3654 0 2.432.1813 3.2.544.7894.3626 1.3654.8426 1.728 1.44.384.576.6294 1.1946.736 1.856.1067.6613.16 1.2906.16 1.888v.608c0 .4693-.064.992-.192 1.568-.128.576-.3733 1.1413-.736 1.696-.3626.5546-.8853 1.024-1.568 1.408-.6613.384-1.536.608-2.624.672.2774.1493.6294.384 1.056.704.4267.2986.864.6293 1.312.992.4694.3626.896.6933 1.28.992.384.2986.6827.512.896.64.768.448 1.4507.7573 2.048.928.5974.1706 1.088.2666 1.472.288.384.0213.608.032.672.032l-.64 2.592c-.192.064-.512.128-.96.192-.448.0853-.9706.128-1.568.128Zm-11.104-10.368c.8107 0 1.536-.0107 2.176-.032.64-.0427 1.216-.0854 1.728-.128.9387-.1067 1.5894-.3627 1.952-.768.384-.4267.576-.9707.576-1.632v-.736c0-.6827-.1813-1.2587-.544-1.728-.3626-.4694-1.0133-.704-1.952-.704h-8.736v5.568c.9387.064 1.8027.1066 2.592.128.7894.0213 1.5254.032 2.208.032ZM80.6455 25.5821c-1.9413 0-3.296-.5227-4.064-1.568-.768-1.0454-1.152-2.432-1.152-4.16V6.4461h4.224v13.536c0 1.0026.2454 1.6746.736 2.016.4907.3413 1.0987.512 1.824.512h6.784c.6827 0 1.28-.1707 1.792-.512.512-.3627.768-1.0347.768-2.016V6.4461h4.224v13.408c0 1.152-.16 2.1546-.48 3.008-.32.8533-.8533 1.5253-1.6 2.016-.7466.4693-1.7813.704-3.104.704h-9.952ZM105.946 25.2621c-1.515 0-2.699-.2134-3.552-.64-.854-.4267-1.451-1.0667-1.792-1.92-.342-.8534-.512-1.9094-.512-3.168v-7.136c0-2.048.458-3.552 1.376-4.512.917-.9814 2.41-1.472 4.48-1.472h9.632c1.472 0 2.592.0853 3.36.256.789.1493 1.184.3093 1.184.48l-.64 2.656c-.363-.064-1.44-.128-3.232-.192-1.771-.0854-4.352-.128-7.744-.128h-1.632c-1.707 0-2.56.7573-2.56 2.272v8.16c0 .7253.181 1.2906.544 1.696.384.384 1.056.576 2.016.576h1.312c3.541 0 6.282-.032 8.224-.096 1.962-.0854 3.178-.1707 3.648-.256l1.312 2.112c0 .1066-.182.2666-.544.48-.342.2133-.982.4053-1.92.576-.939.1706-2.294.256-4.064.256h-8.896ZM124.566 25.2621V6.4461h19.904v3.072h-15.68v4.416h11.968v3.168H128.79v5.088h15.808l1.28 2.72c0 .0853-.288.1706-.864.256-.576.064-1.568.096-2.976.096h-17.472Z"/>
</svg>