<svg xmlns="http://www.w3.org/2000/svg" width="110" height="32" fill="white" viewBox="0 0 124 32">
  <path fill="white" d="M0 16.0002V5.3912h2.4358l.0403 3.382-.3422-.765c.1476-.5368.4026-1.02.765-1.4494.3623-.4295.7784-.765 1.248-1.0065.4832-.255.9865-.3825 1.5099-.3825.2282 0 .4429.0201.6442.0604.2147.0402.3892.0872.5234.1409l-.6643 2.7177c-.1476-.0806-.3288-.1477-.5436-.2014a2.6473 2.6473 0 0 0-.6442-.0805c-.3355 0-.6576.0671-.9662.2013a2.369 2.369 0 0 0-.7851.5234c-.2282.2282-.4094.4966-.5436.8053-.1208.2952-.1812.6308-.1812 1.0065v5.6568H0ZM11.5841 16.2015c-1.1139 0-2.1003-.2348-2.9592-.7045-.8455-.4698-1.5099-1.1072-1.993-1.9125-.4697-.8186-.7046-1.7514-.7046-2.7982 0-.832.1342-1.5903.4026-2.2748.2684-.6844.6375-1.275 1.1072-1.7715.4832-.51 1.0536-.8992 1.7112-1.1676.671-.2819 1.4024-.4228 2.1942-.4228.6979 0 1.3488.1342 1.9527.4027.604.2684 1.1274.6374 1.5703 1.1072.4428.4563.7784 1.0065 1.0065 1.6507.2416.6308.3557 1.322.3422 2.0735l-.0201.8656h-8.596l-.463-1.691h6.9855l-.3221.3423v-.443c-.0402-.416-.1745-.7783-.4026-1.087-.2282-.3221-.5234-.5704-.8858-.7448-.3489-.188-.7381-.2819-1.1676-.2819-.6576 0-1.2145.1275-1.6708.3825-.443.255-.7784.624-1.0066 1.1072-.2281.4697-.3422 1.0602-.3422 1.7715 0 .6845.141 1.2817.4227 1.7917.2953.51.7046.9059 1.228 1.1877.5369.2684 1.1609.4026 1.8722.4026.4966 0 .9529-.0805 1.3689-.2415.4161-.1611.8657-.4496 1.3488-.8657l1.228 1.7112c-.3624.3355-.7784.624-1.2481.8656-.4563.2281-.9395.4093-1.4495.5435-.51.1342-1.0132.2013-1.5098.2013ZM16.9578 16.0002V5.3912h2.4359l.0402 2.1339-.4026.161c.1208-.3489.302-.671.5435-.9662a3.4565 3.4565 0 0 1 .8657-.7851c.3355-.2282.6911-.4027 1.0669-.5235.3758-.1342.7583-.2013 1.1475-.2013.5771 0 1.0871.094 1.5299.2819.4563.1744.8321.4563 1.1274.8455.3086.3892.5368.8857.6844 1.4897l-.3825-.0806.1611-.322c.1476-.3222.3556-.6107.624-.8657a4.6826 4.6826 0 0 1 .9059-.7046c.3355-.2147.6845-.3758 1.0468-.4831.3758-.1074.7449-.161 1.1072-.161.8053 0 1.4763.161 2.0131.483.5369.3222.9395.812 1.2079 1.4696.2684.6577.4026 1.4696.4026 2.4359v6.4016h-2.4962V9.7596c0-.5368-.0738-.9797-.2215-1.3286-.1342-.349-.3489-.604-.6442-.765-.2818-.1745-.6374-.2617-1.0669-.2617-.3355 0-.6576.0604-.9663.1812-.2952.1074-.5502.2684-.765.4831a2.1868 2.1868 0 0 0-.5032.7046c-.1208.2684-.1812.5637-.1812.8858v6.3412H23.742V9.7395c0-.51-.0739-.9327-.2215-1.2683-.1476-.3489-.3623-.6106-.6442-.785-.2818-.188-.624-.2819-1.0267-.2819-.3355 0-.6509.0604-.9461.1812-.2953.1074-.5503.2617-.765.463a2.187 2.187 0 0 0-.5033.7046c-.1207.2684-.1811.5637-.1811.8857v6.3614h-2.4963ZM34.7042 16.0002V5.3912h2.4761v10.609h-2.4761Zm1.2079-12.8637c-.4966 0-.8858-.1207-1.1676-.3623-.2684-.255-.4026-.6107-.4026-1.067 0-.4294.1409-.7784.4227-1.0468.2818-.2684.6643-.4026 1.1475-.4026.5099 0 .8991.1275 1.1676.3825.2818.2416.4227.5972.4227 1.067 0 .416-.1409.7582-.4227 1.0266-.2819.2684-.6711.4026-1.1676.4026ZM38.9109 16.0002V5.3912h2.4158l.0402 2.1741-.463.2416c.1342-.4831.3959-.9193.7851-1.3085.3892-.4026.8522-.7247 1.3891-.9663.5368-.2416 1.087-.3623 1.6507-.3623.8052 0 1.4763.161 2.0131.4831.5502.3221.9596.8053 1.228 1.4494.2818.6442.4227 1.4495.4227 2.4158v6.4821h-2.4761v-6.301c0-.5368-.0738-.9797-.2214-1.3286-.1476-.3624-.3758-.624-.6845-.7851-.3086-.1745-.6844-.255-1.1273-.2416-.3624 0-.6979.0604-1.0066.1812a2.2621 2.2621 0 0 0-.7851.4831 2.4738 2.4738 0 0 0-.5234.7046c-.1208.2684-.1811.5637-.1811.8858v6.4016h-2.4762ZM54.5401 20.6303c-.7918 0-1.5836-.1207-2.3754-.3623-.7784-.2416-1.4092-.557-1.8923-.9462l.8857-1.8319c.2819.2013.5972.3758.9462.5234.3489.1477.718.2617 1.1072.3423.4026.0805.7985.1207 1.1877.1207.7113 0 1.3018-.114 1.7715-.3422.4832-.2147.8455-.5502 1.0871-1.0065.2416-.4429.3624-.9999.3624-1.6709V13.504l.3623.1409c-.0805.416-.3019.812-.6643 1.1877-.3624.3758-.8187.6845-1.3689.9261-.5503.2281-1.1139.3422-1.691.3422-1.0066 0-1.899-.2349-2.6774-.7046-.765-.4697-1.3756-1.1072-1.8319-1.9124-.4429-.8187-.6644-1.7581-.6644-2.8184 0-1.0602.2215-1.9996.6644-2.8183.4428-.832 1.0468-1.483 1.8117-1.9527.7784-.4832 1.6508-.7247 2.6171-.7247.4026 0 .7918.047 1.1676.1409.3757.094.718.2281 1.0266.4026.3221.1745.6107.369.8657.5838.255.2147.463.4429.624.6845.1611.2415.2617.4764.302.7045l-.5234.161.0403-2.4559h2.4358v9.8843c0 .8589-.1275 1.6172-.3825 2.2748s-.624 1.2146-1.1072 1.6709c-.4831.4697-1.0669.8186-1.7514 1.0468-.6844.2416-1.4628.3623-2.3352.3623Zm.1007-6.6432c.6039 0 1.134-.1409 1.5903-.4227.4698-.2819.8321-.6711 1.0871-1.1676.255-.4966.3825-1.067.3825-1.7111 0-.6577-.1342-1.2348-.4026-1.7313-.255-.51-.6107-.9059-1.067-1.1877-.4563-.2819-.9864-.4228-1.5903-.4228-.604 0-1.1341.1476-1.5904.4429-.4563.2818-.8186.6777-1.087 1.1877-.255.4966-.3825 1.067-.3825 1.7112 0 .6307.1275 1.2011.3825 1.7111.2684.4965.6307.8857 1.087 1.1676.4563.2818.9864.4227 1.5904.4227ZM62.7183 16.0002V2.6937h2.4761v13.3065h-2.4761Zm-2.0936-8.314v-2.295h6.8848v2.295h-6.8848ZM72.7393 16.2015c-1.0602 0-2.0064-.2348-2.8385-.7045-.832-.4832-1.4897-1.1408-1.9728-1.9729-.4831-.8321-.7247-1.7782-.7247-2.8384 0-1.0603.2416-2.0064.7247-2.8385.4831-.832 1.1408-1.483 1.9728-1.9527.8321-.4832 1.7783-.7247 2.8385-.7247 1.0468 0 1.9863.2415 2.8183.7247.8321.4697 1.483 1.1206 1.9527 1.9527.4832.832.7248 1.7782.7248 2.8385 0 1.0602-.2416 2.0063-.7248 2.8384-.4697.8321-1.1206 1.4897-1.9527 1.9729-.832.4697-1.7715.7045-2.8183.7045Zm0-2.1942c.5771 0 1.0871-.1477 1.53-.4429.4563-.2953.8119-.6912 1.0669-1.1877.2684-.4966.3959-1.0603.3825-1.691.0134-.6442-.1141-1.2146-.3825-1.7112-.255-.4965-.6106-.8857-1.0669-1.1676-.4429-.2952-.9529-.4429-1.53-.4429-.5771 0-1.1005.1477-1.5702.443-.4563.2818-.812.6777-1.067 1.1876-.2549.4966-.3824 1.0603-.3824 1.6911 0 .6307.1275 1.1944.3824 1.691.255.4965.6107.8924 1.067 1.1877.4697.2952.9931.4429 1.5702.4429ZM79.0408 16.0002V5.3912h2.4157l.0402 2.1741-.463.2416c.1342-.4831.3959-.9193.7851-1.3085.3892-.4026.8522-.7247 1.3891-.9663.5368-.2416 1.087-.3623 1.6507-.3623.8052 0 1.4763.161 2.0131.4831.5503.3221.9596.8053 1.228 1.4494.2818.6442.4227 1.4495.4227 2.4158v6.4821h-2.4761v-6.301c0-.5368-.0738-.9797-.2214-1.3286-.1476-.3624-.3758-.624-.6845-.7851-.3086-.1745-.6844-.255-1.1273-.2416-.3623 0-.6979.0604-1.0065.1812a2.2603 2.2603 0 0 0-.7851.4831 2.4741 2.4741 0 0 0-.5235.7046c-.1207.2684-.1811.5637-.1811.8858v6.4016h-2.4761ZM47.6263 31.6123c-.9395 0-1.785-.1544-2.5365-.4631-.7382-.3221-1.3421-.7784-1.8118-1.3689l1.6104-1.389c.4027.4563.8523.7851 1.3488.9864.4966.2013 1.02.302 1.5702.302.2282 0 .4295-.0269.604-.0805.1878-.0537.3489-.1342.4831-.2416.1342-.1074.2349-.2282.302-.3624.0805-.1476.1208-.3086.1208-.4831 0-.3221-.1208-.5771-.3624-.765-.1342-.0939-.3489-.1946-.6442-.302-.2818-.1073-.6509-.2147-1.1072-.3221-.7247-.1878-1.3286-.4026-1.8118-.6441-.4831-.255-.8589-.5369-1.1273-.8455a2.7178 2.7178 0 0 1-.5234-.8657c-.1074-.3221-.1611-.671-.1611-1.0468 0-.4697.1007-.8925.302-1.2682.2147-.3892.5033-.7248.8656-1.0066.3624-.2818.7851-.4965 1.2683-.6442.4831-.1476.9864-.2214 1.5098-.2214.5368 0 1.0535.0671 1.5501.2013.51.1342.9797.3288 1.4091.5838.4429.2416.8187.5368 1.1274.8858l-1.3689 1.5098a5.0182 5.0182 0 0 0-.8455-.6442c-.2953-.1879-.5972-.3355-.9059-.4429-.3087-.1208-.5972-.1812-.8656-.1812-.255 0-.4832.0269-.6845.0805-.2013.0403-.3691.1074-.5033.2014a1.0485 1.0485 0 0 0-.3221.3623c-.0671.1342-.1006.2953-.1006.4832a1.39 1.39 0 0 0 .1208.463c.0805.1342.1878.2483.3221.3422.1476.0939.369.2013.6643.3221.2952.1208.6777.2349 1.1474.3422.6577.1745 1.2079.3691 1.6508.5838.4429.2147.7918.463 1.0468.7449.255.2415.4362.5234.5435.8455.1074.3221.1611.6777.1611 1.0669 0 .6308-.1812 1.1944-.5436 1.691-.3489.4966-.832.8858-1.4494 1.1676-.6039.2818-1.2884.4228-2.0533.4228ZM57.3968 31.6123c-.9931 0-1.8856-.2416-2.6774-.7248-.7918-.4831-1.4159-1.1407-1.8722-1.9728-.4563-.8321-.6844-1.7715-.6844-2.8183 0-1.0468.2281-1.9863.6844-2.8184.4563-.832 1.0804-1.4897 1.8722-1.9728.7918-.4831 1.6843-.7247 2.6774-.7247.9529 0 1.8185.1812 2.5969.5435.7784.3624 1.3824.8657 1.8118 1.5098l-1.3689 1.6508c-.2013-.2819-.4563-.5368-.765-.765a4.1746 4.1746 0 0 0-.9864-.5435c-.3489-.1342-.6978-.2013-1.0468-.2013-.5905 0-1.1206.1476-1.5903.4428-.4563.2819-.8187.6778-1.0871 1.1878-.2684.4965-.4026 1.0602-.4026 1.691 0 .6307.1342 1.1944.4026 1.691.2818.4965.6576.8924 1.1273 1.1877.4698.2952.9932.4429 1.5702.4429.349 0 .6845-.0537 1.0066-.1611a3.7803 3.7803 0 0 0 .9462-.5032c.2952-.2148.5703-.4832.8253-.8053l1.3689 1.6709c-.4563.5905-1.087 1.0736-1.8923 1.4494-.7918.3624-1.6306.5436-2.5164.5436Z"/>
  <path fill="white" d="m62.6925 31.4109.0258-15.4107h2.4761l-.0459 6.9759-.463.2415c.1342-.4831.3959-.9193.7851-1.3085.3892-.4026.8522-.7247 1.3891-.9663.5368-.2415 1.087-.3623 1.6507-.3623.8052 0 1.4763.161 2.0131.4831.5502.3221.9596.8053 1.228 1.4495.2818.6441.4227 1.4494.4227 2.4157v6.4821h-2.4761V25.11c0-.5369-.0738-.9798-.2214-1.3287-.1476-.3624-.3758-.6241-.6845-.7851-.3086-.1745-.6844-.255-1.1273-.2416-.3624 0-.6979.0604-1.0065.1812a2.2624 2.2624 0 0 0-.7852.4831 2.4752 2.4752 0 0 0-.5234.7046c-.1208.2684-.1811.5637-.1811.8858v6.4016h-2.4762ZM76.4495 31.4109l-3.5631-10.609 2.5365-.0201 2.3754 7.5692-.4429-.0402 2.5768-5.9185h1.4897l2.6371 5.9185-.5234.0604 2.3956-7.5693h2.5365l-3.5833 10.609h-1.7715l-2.7177-6.3613.3825.0402-2.5768 6.3211h-1.7514ZM92.9947 31.6123c-.8724 0-1.6642-.2416-2.3755-.7248-.7113-.4831-1.2816-1.1407-1.7111-1.9728-.4295-.8321-.6442-1.7782-.6442-2.8385 0-1.0602.2147-2.0063.6442-2.8384.4295-.8321 1.0133-1.483 1.7514-1.9527.7381-.4698 1.5702-.7046 2.4962-.7046.5369 0 1.0267.0805 1.4696.2416.4429.1476.8321.3623 1.1676.6441.3355.2819.6106.604.8254.9663.2281.3624.3824.7516.463 1.1676l-.5436-.1409v-2.6573h2.4963v10.609h-2.5164v-2.5365l.5838-.1006c-.0939.3623-.2684.718-.5234 1.0669-.2416.3355-.5503.6375-.926.9059-.3624.255-.7717.463-1.228.6241-.4429.161-.9193.2416-1.4293.2416Zm.6844-2.1943c.5771 0 1.0871-.1409 1.53-.4228.4429-.2818.7851-.671 1.0267-1.1676.255-.51.3825-1.0938.3825-1.7514 0-.6442-.1275-1.2145-.3825-1.7111-.2416-.4966-.5838-.8858-1.0267-1.1676-.4429-.2818-.9529-.4227-1.53-.4227-.5771 0-1.087.1409-1.5299.4227-.4295.2818-.765.671-1.0066 1.1676-.2415.4966-.3623 1.0669-.3623 1.7111 0 .6576.1208 1.2414.3623 1.7514.2416.4966.5771.8858 1.0066 1.1676.4429.2819.9528.4228 1.5299.4228ZM100.898 31.4109v-10.609h2.436l.04 3.382-.342-.765c.148-.5368.403-1.0199.765-1.4494.362-.4294.778-.765 1.248-1.0065.483-.255.987-.3825 1.51-.3825.228 0 .443.0201.644.0604.215.0402.389.0872.524.1409l-.665 2.7177c-.147-.0806-.329-.1477-.543-.2013a2.653 2.653 0 0 0-.645-.0806c-.335 0-.657.0671-.966.2013a2.3691 2.3691 0 0 0-.785.5235c-.228.2281-.409.4965-.543.8052-.121.2952-.182.6308-.182 1.0065v5.6568h-2.496ZM109.905 31.4109V18.1044h2.476v13.3065h-2.476Zm-2.093-8.314v-2.295h6.884v2.295h-6.884ZM115.133 31.4109v-1.7715l5.536-7.2874v.5234h-5.536v-2.0735h8.113v1.7715l-5.375 7.1465-.081-.3824h5.596v2.0734h-8.253Z"/>
</svg>