<svg xmlns="http://www.w3.org/2000/svg" width="80" height="32" fill="black" viewBox="0 0 106 32">
  <path fill="black" d="M86.117 25.057a6.9973 6.9973 0 0 1-1.2793-2.3543l-.0743-.2171-.0743-.2655-.0458-.1649-.0743-.3039-.0372-.1798a8.6956 8.6956 0 0 1-.0965-.526 1.7521 1.7521 0 0 0-.0285-.1935l-.0372-.3138a.968.968 0 0 0 0-.2084l-.0223-.2654 12.976-3.2623a5.9298 5.9298 0 0 0-.5896-2.0057 5.9762 5.9762 0 0 0-2.2478-2.6384 8.8342 8.8342 0 0 0-3.5913-1.3719l-.218-.0347a10.098 10.098 0 0 0-2.3157 0 9.43 9.43 0 0 0-5.4736 2.5912 9.593 9.593 0 0 0-2.8359 5.3834v.0818a4.5762 4.5762 0 0 0-.0557.4156c-.0149.1488 0 .1687-.0285.2654a1.3427 1.3427 0 0 1 0 .2233 2.6985 2.6985 0 0 1 0 .3857v.6239a9.5165 9.5165 0 0 0 .6674 3.2573c1.4948 3.6146 4.9102 5.9812 8.6848 6.016a9.4049 9.4049 0 0 0 4.5175-1.0531 9.5235 9.5235 0 0 0 3.4864-3.0886l-.2229-.5843c-.9177 1.8272-7.2485 4.0983-10.9834-.212Zm5.9033-8.0279-7.7151 1.9338c0-.2419 0-.4837.0322-.7108v-.0731a2.4654 2.4654 0 0 1 0-.2307l.0372-.3151a9.7776 9.7776 0 0 1 .3244-1.4836 8.7948 8.7948 0 0 1 1.1863-2.513 6.031 6.031 0 0 1 1.8031-1.739 4.1851 4.1851 0 0 1 2.2514-.6388c1.1059 0 1.9157.3225 2.4283.9675.1873.2233.3434.4751.4632.7442.5155 1.3669.477 3.6431-.811 4.0586Zm-29.0597 8.2251c-.9287 1.8469-7.2482 4.1131-10.9844-.1923-.6117-.7442-1.0699-1.6138-1.3436-2.5527a10.8606 10.8606 0 0 1-.4632-3.2908 10.5475 10.5475 0 0 1 .436-3.0737 8.7903 8.7903 0 0 1 1.1864-2.5131c.4693-.6983 1.0711-1.29 1.7708-1.734a4.1896 4.1896 0 0 1 2.2513-.6388c1.1059 0 1.9158.3225 2.4273.9675.5288.6958.8024 1.5666.7702 2.4547a4.13 4.13 0 0 1-.1944 1.3583l3.9381-.9675c-1.4316-3.8651-6.1771-4.4023-7.0526-4.4023-7.5169-.1252-11.6407 7.249-9.2135 13.2562 1.4972 3.617 4.9127 5.9862 8.6897 6.0259a9.4056 9.4056 0 0 0 4.5188-1.0543 9.514 9.514 0 0 0 3.4848-3.0874l-.2217-.5557Z"/>
  <path fill="black" fill-rule="evenodd" d="M33.7357 25.0557a6.9969 6.9969 0 0 1-1.2793-2.3542l-.0743-.2171-.0742-.2655-.0459-.1649-.0743-.3039-.0372-.1799a8.7565 8.7565 0 0 1-.0965-.5259 1.7059 1.7059 0 0 0-.0285-.1935l-.0372-.3138a.968.968 0 0 0 0-.2084l-.0222-.2655 12.9759-3.2622a5.931 5.931 0 0 0-.5896-2.0058 5.9762 5.9762 0 0 0-2.2477-2.6383 8.8332 8.8332 0 0 0-3.5914-1.3719l-.218-.0347a10.098 10.098 0 0 0-2.3157 0 9.4302 9.4302 0 0 0-5.4736 2.5912 9.593 9.593 0 0 0-2.8358 5.3833v.0819a4.5357 4.5357 0 0 0-.0558.4156c-.0057.057-.007.0951-.0081.1258-.0017.0495-.0028.0799-.0204.1396a1.3415 1.3415 0 0 1 0 .2232 2.6709 2.6709 0 0 1 0 .3858v.6239a9.517 9.517 0 0 0 .6675 3.2573c1.4947 3.6145 4.9102 5.9812 8.6847 6.0159a9.4057 9.4057 0 0 0 4.5175-1.053 9.5227 9.5227 0 0 0 3.4864-3.0886l-.2229-.5843c-.9177 1.8272-7.2485 4.0983-10.9834-.2121Zm-1.8118-6.094 7.7152-1.9338c1.2879-.4155 1.3264-2.6917.8109-4.0586a3.1471 3.1471 0 0 0-.4632-.7442c-.5125-.645-1.3224-.9675-2.4282-.9675a4.1843 4.1843 0 0 0-2.2514.6388 6.0287 6.0287 0 0 0-1.8031 1.739 8.7924 8.7924 0 0 0-1.1864 2.513 9.7776 9.7776 0 0 0-.3244 1.4836l-.0372.315a2.4654 2.4654 0 0 0 0 .2307v.0732c-.0322.227-.0322.4689-.0322.7108Z" clip-rule="evenodd"/>
  <path fill="black" d="M80.0461 25.2547c-.9263 1.8469-7.247 4.1131-10.9819-.1923a7.1453 7.1453 0 0 1-1.33-2.5329 10.8492 10.8492 0 0 1-.4644-3.2908 10.5474 10.5474 0 0 1 .4359-3.0737 8.7983 8.7983 0 0 1 1.1814-2.5131 6.1134 6.1134 0 0 1 1.7709-1.7539 4.1855 4.1855 0 0 1 2.2526-.6388c1.1021 0 1.912.3225 2.4272.9675.5337.6947.8124 1.5654.7839 2.4548a4.0107 4.0107 0 0 1-.1994 1.3582l3.9157-.9675c-1.4228-3.8651-6.1671-4.3972-7.0339-4.3972-7.517-.1253-11.6407 7.2489-9.2135 13.2561 1.4861 3.6257 4.9027 6.006 8.6847 6.0507a9.4018 9.4018 0 0 0 4.5275-1.0543 9.5208 9.5208 0 0 0 3.4848-3.0887l-.2402-.5829-.0013-.0012Zm22.9529.8608V1.4687l-5.5602 1.4116h-.037v.5458c.1946 0 1.8775.4838 1.8775 1.692v20.9105c0 2.6384-1.7897 3.0204-2.9992 3.101v.4404h9.7189v-.4391c-1.206-.0819-2.957-.4688-3-3.0154ZM.7266 29.4228v-.4236l.9057-.3388c.9201-.3671 1.3802-1.0871 1.3802-2.1601V4.3913c0-1.1295-.46-1.8496-1.3802-2.1602l-.9057-.3388v-.4236H12.113c3.0478 0 5.6644.5648 7.8497 1.6942 2.214 1.1012 3.9105 2.6966 5.0894 4.7861 1.2076 2.0613 1.8114 4.5461 1.8114 7.4544 0 2.9648-.6469 5.492-1.9408 7.5815s-3.1054 3.6848-5.4344 4.786c-2.3003 1.1013-5.0175 1.6519-8.1517 1.6519H.7266Zm6.5773-.8471h4.7588c2.0702 0 5.19-.3953 6.4551-1.1859 1.2652-.8189 2.9113-2.1743 3.4864-4.0661.6038-1.9201.9057-4.546.9057-7.8779s-.3019-5.9438-.9057-7.8356c-.5751-1.9201-2.2068-3.2755-3.4432-4.066-1.2364-.819-4.3131-1.2284-6.3258-1.2284H7.3039v26.2599Z"/>
</svg>