<svg xmlns="http://www.w3.org/2000/svg" viewBox="0 0 32 32">
	<defs>
		<linearGradient id="f" x1="0" y1="0" x2="0" y2="1">
			<stop offset="0" stop-color="#ffe08a" />
			<stop offset="0.45" stop-color="#fbb024" />
			<stop offset="0.8" stop-color="#f4622a" />
			<stop offset="1" stop-color="#ef3a32" />
		</linearGradient>
	</defs>
	<rect width="32" height="32" rx="7" fill="#000" />
	<path
		d="M16 4c4 3.6 6 7.7 6 11.6 0 2.6-1.1 5-3 6.6.4-1.4.3-2.9-.5-4.2-.3 1.8-1.2 3-2.5 4.1.2-2.3-.6-4-2-5.8-1 1.4-1.5 2.9-1.5 4.6 0 .5.1 1 .2 1.4-1.8-1.6-2.9-3.9-2.9-6.5C10 12 12 8 16 4z"
		fill="url(#f)"
	/>
</svg>
