<svg width="42" height="35" viewBox="0 0 42 35" fill="none" xmlns="http://www.w3.org/2000/svg">
<g filter="url(#filter0_n_53174_81514)">
<mask id="path-1-inside-1_53174_81514" fill="white">
<path d="M13.0176 0C14.5644 0 16.0361 0.667982 17.0547 1.83203L18.6584 3.66401C19.0778 4.14315 19.6836 4.41797 20.3204 4.41797H34.082C36.3474 4.41797 38.1843 6.25421 38.1846 8.51953V29.3467C38.1843 31.4378 36.4886 33.1328 34.3975 33.1328H6.78027C4.68932 33.1326 2.99436 31.4376 2.99414 29.3467V2.20885C2.99414 0.988934 3.98307 0 5.20299 0H13.0176Z"/>
</mask>
<path d="M13.0176 0C14.5644 0 16.0361 0.667982 17.0547 1.83203L18.6584 3.66401C19.0778 4.14315 19.6836 4.41797 20.3204 4.41797H34.082C36.3474 4.41797 38.1843 6.25421 38.1846 8.51953V29.3467C38.1843 31.4378 36.4886 33.1328 34.3975 33.1328H6.78027C4.68932 33.1326 2.99436 31.4376 2.99414 29.3467V2.20885C2.99414 0.988934 3.98307 0 5.20299 0H13.0176Z" fill="#91AEFF"/>
<path d="M17.0547 1.83203L16.7144 2.12977L16.7145 2.12983L17.0547 1.83203ZM38.1846 8.51953H38.6367V8.51948L38.1846 8.51953ZM38.1846 29.3467L38.6367 29.3467V29.3467H38.1846ZM6.78027 33.1328L6.78022 33.5849H6.78027V33.1328ZM2.99414 29.3467H2.54202V29.3467L2.99414 29.3467ZM18.6584 3.66401L18.3182 3.96181V3.96181L18.6584 3.66401ZM13.0176 0V0.452119C14.434 0.452119 15.7816 1.06379 16.7144 2.12977L17.0547 1.83203L17.3949 1.5343C16.2905 0.272169 14.6948 -0.452119 13.0176 -0.452119V0ZM17.0547 1.83203L16.7145 2.12983L18.3182 3.96181L18.6584 3.66401L18.9986 3.36622L17.3949 1.53424L17.0547 1.83203ZM20.3204 4.41797V4.87009H34.082V4.41797V3.96585H20.3204V4.41797ZM34.082 4.41797V4.87009C36.0978 4.87009 37.7322 6.504 37.7325 8.51958L38.1846 8.51953L38.6367 8.51948C38.6364 6.00441 36.597 3.96585 34.082 3.96585V4.41797ZM38.1846 8.51953H37.7325V29.3467H38.1846H38.6367V8.51953H38.1846ZM38.1846 29.3467L37.7325 29.3466C37.7323 31.188 36.239 32.6807 34.3975 32.6807V33.1328V33.5849C36.7382 33.5849 38.6364 31.6876 38.6367 29.3467L38.1846 29.3467ZM34.3975 33.1328V32.6807H6.78027V33.1328V33.5849H34.3975V33.1328ZM6.78027 33.1328L6.78032 32.6807C4.93903 32.6805 3.44645 31.1879 3.44626 29.3466L2.99414 29.3467L2.54202 29.3467C2.54226 31.6873 4.43962 33.5847 6.78022 33.5849L6.78027 33.1328ZM2.99414 29.3467H3.44626V2.20885H2.99414H2.54202V29.3467H2.99414ZM5.20299 0V0.452119H13.0176V0V-0.452119H5.20299V0ZM2.99414 2.20885H3.44626C3.44626 1.23863 4.23277 0.452119 5.20299 0.452119V0V-0.452119C3.73338 -0.452119 2.54202 0.739235 2.54202 2.20885H2.99414ZM18.6584 3.66401L18.3182 3.96181C18.8235 4.53902 19.5533 4.87009 20.3204 4.87009V4.41797V3.96585C19.8139 3.96585 19.3321 3.74728 18.9986 3.36622L18.6584 3.66401Z" fill="#5E84FC" mask="url(#path-1-inside-1_53174_81514)"/>
</g>
<g filter="url(#filter1_i_53174_81514)">
<path d="M0.589429 14.7214C0.273688 11.5161 2.7918 8.73779 6.01257 8.73779H35.1802C38.401 8.73779 40.9191 11.5161 40.6034 14.7214L39.2177 28.788C38.9429 31.5772 36.5973 33.7031 33.7946 33.7031H7.39822C4.59551 33.7031 2.24985 31.5772 1.97509 28.788L0.589429 14.7214Z" fill="#BECDFF"/>
</g>
<path d="M6.0127 9.01025H35.1807C38.2402 9.01051 40.632 11.65 40.332 14.6948L38.9463 28.7612C38.6853 31.4109 36.4573 33.43 33.7949 33.4302H7.39844C4.73586 33.4302 2.50711 31.411 2.24609 28.7612L0.860352 14.6948C0.560398 11.6498 2.95297 9.01025 6.0127 9.01025Z" stroke="#BECDFF" stroke-width="0.544939"/>
<defs>
<filter id="filter0_n_53174_81514" x="2.99414" y="0" width="35.1904" height="33.1328" filterUnits="userSpaceOnUse" color-interpolation-filters="sRGB">
<feFlood flood-opacity="0" result="BackgroundImageFix"/>
<feBlend mode="normal" in="SourceGraphic" in2="BackgroundImageFix" result="shape"/>
<feTurbulence type="fractalNoise" baseFrequency="8.0111112594604492 8.0111112594604492" stitchTiles="stitch" numOctaves="3" result="noise" seed="7560" />
<feColorMatrix in="noise" type="luminanceToAlpha" result="alphaNoise" />
<feComponentTransfer in="alphaNoise" result="coloredNoise1">
<feFuncA type="discrete" tableValues="1 1 1 1 1 1 1 1 1 1 1 1 1 1 1 1 1 1 1 1 1 1 1 1 1 1 1 1 1 1 1 1 1 1 1 1 1 1 1 1 1 1 1 1 1 1 1 1 1 1 1 0 0 0 0 0 0 0 0 0 0 0 0 0 0 0 0 0 0 0 0 0 0 0 0 0 0 0 0 0 0 0 0 0 0 0 0 0 0 0 0 0 0 0 0 0 0 0 0 0 "/>
</feComponentTransfer>
<feComposite operator="in" in2="shape" in="coloredNoise1" result="noise1Clipped" />
<feFlood flood-color="rgba(0, 0, 0, 0.25)" result="color1Flood" />
<feComposite operator="in" in2="noise1Clipped" in="color1Flood" result="color1" />
<feMerge result="effect1_noise_53174_81514">
<feMergeNode in="shape" />
<feMergeNode in="color1" />
</feMerge>
</filter>
<filter id="filter1_i_53174_81514" x="0.5625" y="8.73779" width="40.0674" height="24.9653" filterUnits="userSpaceOnUse" color-interpolation-filters="sRGB">
<feFlood flood-opacity="0" result="BackgroundImageFix"/>
<feBlend mode="normal" in="SourceGraphic" in2="BackgroundImageFix" result="shape"/>
<feColorMatrix in="SourceAlpha" type="matrix" values="0 0 0 0 0 0 0 0 0 0 0 0 0 0 0 0 0 0 127 0" result="hardAlpha"/>
<feOffset dy="1.12344"/>
<feComposite in2="hardAlpha" operator="arithmetic" k2="-1" k3="1"/>
<feColorMatrix type="matrix" values="0 0 0 0 1 0 0 0 0 1 0 0 0 0 1 0 0 0 0.25 0"/>
<feBlend mode="normal" in2="shape" result="effect1_innerShadow_53174_81514"/>
</filter>
</defs>
</svg>
