<svg width="28" height="27" viewBox="0 0 28 27" fill="none" xmlns="http://www.w3.org/2000/svg">
<path d="M17.8512 15.0932L16.5967 15.0587L17.6363 15.7675L20.6315 17.806L21.8593 18.6481C24.1409 20.2021 24.4592 23.5438 22.358 25.3377C22.2686 25.4145 22.1729 25.4945 22.0741 25.5604C21.9753 25.6262 21.8765 25.6968 21.7746 25.7611C19.4068 27.1912 16.3082 25.8583 15.5241 23.2192L15.1023 21.7969L14.0799 18.347L13.7223 17.1411L13.3664 18.347L12.3393 21.7969L11.9174 23.2192C11.1334 25.8583 8.03789 27.1912 5.6716 25.7611C5.57281 25.6968 5.46931 25.6325 5.37052 25.5604C5.27173 25.4882 5.17764 25.4145 5.08669 25.3377C2.98541 23.5438 3.30374 20.199 5.59006 18.6434L6.82259 17.806L9.81299 15.7675L10.8495 15.054L9.58562 15.0885L5.95856 15.192L4.46728 15.2296C1.70269 15.3064 -0.527172 12.7865 0.109483 10.1081C0.139277 9.9921 0.169072 9.87763 0.208275 9.76159C0.247478 9.64554 0.289817 9.53578 0.332156 9.42914C1.39848 6.88723 4.70407 6.15178 6.89943 7.83123L8.08179 8.73604L10.9562 10.9314L11.9519 11.6966L11.5317 10.5127L10.307 7.11774L9.80986 5.72055C8.88153 3.12688 10.6002 0.239979 13.3617 0.0173062C13.4815 0.00511507 13.6019 -0.000642954 13.7223 5.68852e-05C13.8433 -0.000456728 13.9642 0.00530076 14.0846 0.0173062C16.8413 0.239979 18.56 3.13629 17.6316 5.72525L17.1346 7.12088L15.9177 10.5174L15.4974 11.6966L16.4932 10.9361L19.3723 8.74074L20.553 7.83594C22.7484 6.16119 26.0415 6.89507 27.1093 9.43385C27.1517 9.54048 27.1956 9.65495 27.2332 9.77099C27.2709 9.88703 27.3022 10.0015 27.332 10.116C27.9687 12.7959 25.7341 15.3112 22.9679 15.239L21.4829 15.192L17.8512 15.0932Z" fill="white"/>
</svg>
