<svg width="64" height="64" viewBox="0 0 64 64" xmlns="http://www.w3.org/2000/svg">
  <rect width="64" height="64" rx="20" fill="#5D7052" />
  <path
    d="M32 14c10 4 16 12 16 22 0 8-6 14-16 14S16 44 16 36c0-10 6-18 16-22Z"
    fill="#F3F4F1"
    opacity="0.18"
  />
  <path
    d="M32 13c0 12-1 24-1 38M32 51c-8 0-16-6-17-18 9 0 15 4 17 12M32 51c8 0 16-6 17-18-9 0-15 4-17 12"
    fill="none"
    stroke="#F3F4F1"
    stroke-width="2.6"
    stroke-linecap="round"
    stroke-linejoin="round"
  />
</svg>
