<svg xmlns="http://www.w3.org/2000/svg" width="420" height="320" viewBox="0 0 420 320" fill="none" role="img" aria-label="Security by design">
  <defs>
    <filter id="s3" x="-20%" y="-20%" width="140%" height="140%">
      <feDropShadow dx="0" dy="10" stdDeviation="18" flood-color="#042718" flood-opacity="0.10"/>
    </filter>
  </defs>
  <rect x="24" y="18" width="372" height="284" rx="22" fill="#ffffff" filter="url(#s3)"/>
  <text x="48" y="54" font-family="'Onest','Inter',sans-serif" font-size="16" font-weight="600" fill="#042718">Security center</text>
  <rect x="300" y="40" width="72" height="22" rx="11" fill="#198F38" fill-opacity="0.12"/>
  <circle cx="315" cy="51" r="4" fill="#198F38"/>
  <text x="326" y="55" font-family="'Inter',sans-serif" font-size="11" font-weight="600" fill="#198F38">Active</text>

  <!-- Shield -->
  <g transform="translate(210,140)">
    <path d="M0 -54 L46 -36 V-2 C46 30 26 50 0 60 C-26 50 -46 30 -46 -2 V-36 Z" fill="#042718"/>
    <path d="M0 -54 L46 -36 V-2 C46 30 26 50 0 60 Z" fill="#0a3a23"/>
    <circle cx="0" cy="-2" r="15" fill="none" stroke="#3CCB7F" stroke-width="3"/>
    <path d="M-7 -2 l5 6 9 -12" stroke="#3CCB7F" stroke-width="3" fill="none" stroke-linecap="round" stroke-linejoin="round"/>
  </g>

  <!-- encryption rows -->
  <g font-family="'Inter',sans-serif" transform="translate(48,224)">
    <g>
      <rect width="156" height="32" rx="10" fill="#F6FBF9"/>
      <rect x="12" y="11" width="12" height="10" rx="2" fill="none" stroke="#042718" stroke-width="2"/>
      <path d="M14.5 11v-2a3 3 0 0 1 6 0v2" stroke="#042718" stroke-width="2" fill="none"/>
      <text x="34" y="21" font-size="11" font-weight="600" fill="#042718">AES-256</text>
    </g>
    <g transform="translate(168,0)">
      <rect width="156" height="32" rx="10" fill="#F6FBF9"/>
      <circle cx="20" cy="16" r="7" fill="none" stroke="#198F38" stroke-width="2"/>
      <path d="M17 16l2 2 4-4.5" stroke="#198F38" stroke-width="2" fill="none" stroke-linecap="round" stroke-linejoin="round"/>
      <text x="34" y="21" font-size="11" font-weight="600" fill="#042718">2FA enabled</text>
    </g>
  </g>
  <g transform="translate(48,266)">
    <rect width="324" height="26" rx="13" fill="#042718"/>
    <text x="162" y="17" text-anchor="middle" font-family="'Inter',sans-serif" font-size="11" font-weight="500" fill="#ffffff">Zero-knowledge · data never stored on our servers</text>
  </g>
</svg>
