<svg xmlns="http://www.w3.org/2000/svg" width="48" height="48" viewBox="0 0 48 48" fill="none" role="img" aria-label="PayPal">
  <rect width="48" height="48" rx="12" fill="#fff" stroke="#E6ECEA"/>
  <path d="M19.5 35l1-6.2h4.1c5.4 0 9.1-2.6 10-7.7.9-5-1.9-7.6-7-7.6h-8.2a1 1 0 0 0-1 .85L15.4 33a.7.7 0 0 0 .7.8h3.4Z" fill="#003087"/>
  <path d="M22 37l1-6.2h3.6c5.4 0 9.1-2.6 10-7.7.2-1 .2-1.9.1-2.7 1.6 1.4 2.1 3.7 1.5 6.7-.9 5.1-4.6 7.7-10 7.7h-1.3l-.9 5.4a.85.85 0 0 1-.84.72h-3.5Z" fill="#0070E0"/>
  <path d="M27.6 18.6c-.6-.2-1.3-.3-2.1-.3h-4.3a.7.7 0 0 0-.7.6l-1 6.4h2.9c3.6 0 6.1-1.5 6.8-5 .1-.6.2-1.2.2-1.7-.5-.2-1.1-.4-1.8-.5Z" fill="#001C64"/>
</svg>
