<svg width="108" height="30" viewBox="0 0 108 30" fill="none" xmlns="http://www.w3.org/2000/svg">
<g clip-path="url(#clip0_19112_903)">
<path d="M92.9219 16.9003C92.9219 16.4757 93.2913 16.125 93.7159 16.125C94.1404 16.125 94.4912 16.4757 94.4912 16.9003C94.4912 17.3248 94.1218 17.6756 93.7159 17.6756C93.3092 17.6756 92.9219 17.3248 92.9219 16.9003Z" fill="#737373"/>
<path d="M95.5811 14.9302H96.6328V15.3178C96.6328 16.0931 97.0574 16.6654 97.9437 16.6654C98.8301 16.6654 99.236 16.1116 99.236 15.281V9.55859H100.306V15.3178C100.306 16.7577 99.3462 17.6437 97.9251 17.6437C96.4116 17.6437 95.5625 16.6838 95.5625 15.2994V14.9117L95.5811 14.9302Z" fill="#737373"/>
<path d="M104.384 9.44922C105.899 9.44922 106.877 10.2983 106.969 11.6828H105.88C105.824 10.889 105.271 10.4275 104.366 10.4275C103.369 10.4275 102.723 10.9259 102.723 11.7197C102.723 12.3657 103.092 12.735 103.831 12.9195L105.141 13.2333C106.433 13.5287 107.098 14.2301 107.098 15.3561C107.098 16.796 105.99 17.7005 104.292 17.7005C102.594 17.7005 101.597 16.8513 101.523 15.4854H102.631C102.65 16.2422 103.295 16.7222 104.292 16.7222C105.344 16.7222 106.027 16.2237 106.027 15.43C106.027 14.8024 105.695 14.4148 104.92 14.2301L103.609 13.9348C102.317 13.6395 101.634 12.8827 101.634 11.7381C101.634 10.3722 102.742 9.44922 104.384 9.44922Z" fill="#737373"/>
<path d="M50.6308 1.48438V12.9475L43.0441 1.48438H40.2383V17.673H43.0257V6.19146L50.6308 17.673H53.4182V1.48438H50.6308Z" fill="#737373"/>
<path d="M65.5641 1.48438V4.08712H58.3466V8.25887H64.8073V10.7509H58.3466V15.0519H65.5641V17.673H55.5039V1.48438H65.5641Z" fill="#737373"/>
<path d="M83.6938 1.48438L81.9219 4.08712H87.053V17.673H89.896V4.08712H93.5144L95.2677 1.48438H83.6938Z" fill="#737373"/>
<path d="M71.6347 11.2891L73.37 13.8364L70.7488 17.676H67.2969L71.6347 11.2891Z" fill="#737373"/>
<path d="M81.8079 17.6731H78.3377L74.5532 12.0984L72.8183 9.55104L67.3359 1.48438H70.7878L74.5532 7.00367L78.3005 1.48438H81.7527L78.0979 6.85599L76.2701 9.55104L81.8079 17.6731Z" fill="#737373"/>
<path d="M40.2383 19.8281H45.0746V20.4557H42.9887V26.5658H42.3058V20.4557H40.2383V19.8281Z" fill="#737373"/>
<path d="M44.8555 24.2747C44.8555 22.8533 45.7415 21.875 47.0521 21.875C48.3627 21.875 49.1195 22.7426 49.1195 24.0348V24.3486H45.4831C45.5385 25.4561 46.1107 26.1022 47.0891 26.1022C47.8274 26.1022 48.3074 25.7884 48.4919 25.1792H49.1195C48.8795 26.1391 48.1597 26.656 47.0891 26.656C45.7415 26.656 44.8555 25.6961 44.8555 24.2747ZM45.5015 23.8871H48.4735C48.4735 23.0195 47.9012 22.4288 47.0521 22.4288C46.203 22.4288 45.6308 23.001 45.52 23.8871H45.5015Z" fill="#737373"/>
<path d="M50.1523 26.5637V22.0042H50.7246L50.7984 22.6503C51.0199 22.1704 51.5368 21.875 52.1828 21.875C52.9028 21.875 53.4381 22.2442 53.6596 22.8533C53.8626 22.2627 54.4164 21.875 55.1548 21.875C56.1516 21.875 56.7976 22.5211 56.7976 23.5733V26.5637H56.17V23.721C56.17 22.9457 55.727 22.4842 55.044 22.4842C54.2872 22.4842 53.8257 23.0564 53.8257 23.7579V26.5637H53.1796V23.7025C53.1796 22.9272 52.7366 22.4842 52.0536 22.4842C51.2968 22.4842 50.8354 23.0564 50.8354 23.7394V26.5637H50.1523Z" fill="#737373"/>
<path d="M58.0938 22.0042H58.666L58.7398 22.9272C59.0536 22.2257 59.6997 21.875 60.475 21.875C61.804 21.875 62.5793 22.8903 62.5793 24.2563C62.5793 25.6222 61.8225 26.656 60.475 26.656C59.6997 26.656 59.0906 26.3237 58.7768 25.6592V28.5204H58.1307V21.9858L58.0938 22.0042ZM60.3458 26.0837C61.3426 26.0837 61.9148 25.3269 61.9148 24.2747C61.9148 23.2225 61.3426 22.4657 60.3458 22.4657C59.349 22.4657 58.7583 23.2225 58.7583 24.2747C58.7583 25.3269 59.349 26.0837 60.3458 26.0837Z" fill="#737373"/>
<path d="M63.6289 26.5661V20.1607L64.275 19.6992V26.5476H63.6289V26.5661Z" fill="#737373"/>
<path d="M65.4141 25.328C65.4141 24.4973 66.0602 23.9619 67.1308 23.8881L68.6445 23.7589V23.6113C68.6445 22.7252 68.1091 22.4298 67.4446 22.4298C66.6509 22.4298 66.1894 22.7806 66.1894 23.4082H65.5987C65.5987 22.4853 66.3555 21.8945 67.4816 21.8945C68.5337 21.8945 69.309 22.4298 69.309 23.6297V26.5648H68.7552L68.6629 25.771C68.386 26.3432 67.7584 26.6939 66.9831 26.6939C66.0048 26.6939 65.4325 26.1401 65.4325 25.3464L65.4141 25.328ZM68.626 24.4973V24.2573L67.2784 24.3681C66.4109 24.4419 66.0786 24.8111 66.0786 25.328C66.0786 25.8817 66.4848 26.1586 67.1123 26.1586C68.0722 26.1586 68.626 25.4941 68.626 24.4973Z" fill="#737373"/>
<path d="M70.8995 26.5618V22.5561H69.9766V22.0023H70.8995V21.0055L71.5455 20.5625V22.0023H72.4685V22.5561H71.5455V26.5618H70.8995Z" fill="#737373"/>
<path d="M72.9297 24.2747C72.9297 22.8533 73.8157 21.875 75.1266 21.875C76.4368 21.875 77.1935 22.7426 77.1935 24.0348V24.3486H73.5573C73.6127 25.4561 74.1849 26.1022 75.1631 26.1022C75.9013 26.1022 76.3817 25.7884 76.5664 25.1792H77.1935C76.9537 26.1391 76.2342 26.656 75.1631 26.656C73.8157 26.656 72.9297 25.6961 72.9297 24.2747ZM73.5758 23.8871H76.5478C76.5478 23.0195 75.9757 22.4288 75.1266 22.4288C74.2772 22.4288 73.705 23.001 73.5942 23.8871H73.5758Z" fill="#737373"/>
<path d="M78.4709 25.2704C78.4709 25.8057 78.8589 26.1195 79.5047 26.1195C80.2063 26.1195 80.6309 25.8241 80.6309 25.3258C80.6309 24.9566 80.4462 24.735 79.9106 24.6058L79.136 24.4028C78.342 24.1997 77.954 23.7937 77.954 23.1661C77.954 22.3723 78.6191 21.8555 79.5971 21.8555C80.5758 21.8555 81.1843 22.3908 81.2029 23.2214H80.5758C80.5758 22.6861 80.1877 22.3908 79.5784 22.3908C78.9692 22.3908 78.5819 22.6676 78.5819 23.1476C78.5819 23.4983 78.8217 23.7382 79.32 23.8675L80.0954 24.0705C80.8893 24.2736 81.2402 24.6428 81.2402 25.2888C81.2402 26.1011 80.5385 26.6364 79.5047 26.6364C78.4709 26.6364 77.8438 26.0826 77.8438 25.252H78.4709V25.2704Z" fill="#737373"/>
<path d="M106.31 24.3818H84.4922L85.3227 23.4219H107.123L106.31 24.3818Z" fill="#737373"/>
<path d="M29.8116 14.8781C29.8116 16.927 29.4054 18.8838 28.6671 20.6374C26.4151 26.0274 21.1173 29.7931 14.915 29.7931C6.68222 29.7931 0 23.1294 0 14.8966C0 6.66376 6.68222 0 14.915 0C19.6959 0 23.96 2.25202 26.6919 5.75926H14.6381L16.7425 8.91581H19.4375V18.6991L16.4287 14.1397L10.8725 5.75926H7.6975V23.8345H10.854V11.0755L19.4375 24.0339H22.5756V8.91581H28.5748C29.3686 10.7432 29.8116 12.7553 29.8116 14.8781Z" fill="#737373"/>
</g>
<defs>
<clipPath id="clip0_19112_903">
<rect width="107.255" height="29.7931" fill="white"/>
</clipPath>
</defs>
</svg>
