<svg width="106" height="31" viewBox="0 0 106 31" fill="none" xmlns="http://www.w3.org/2000/svg">
<path fill-rule="evenodd" clip-rule="evenodd" d="M71.5447 9.75607C72.7922 9.75607 73.891 10.0446 74.8407 10.6218C75.8089 11.199 76.563 11.9905 77.103 12.996C77.6616 14.0015 77.9408 15.1469 77.9408 16.4318C77.9408 16.6551 77.9223 16.8878 77.885 17.1299C77.8664 17.3533 77.829 17.6048 77.7732 17.8841H67.7721C67.8558 18.2332 67.977 18.5593 68.1371 18.8617C68.4723 19.4947 68.9471 19.9881 69.5615 20.3419C70.176 20.677 70.8837 20.8448 71.6844 20.8448C72.3733 20.8448 73.0063 20.7237 73.5835 20.4816C74.1794 20.2396 74.6823 19.8855 75.092 19.42L77.0472 21.4031C76.3955 22.1666 75.604 22.7439 74.673 23.135C73.742 23.526 72.755 23.7215 71.7123 23.7215C70.3717 23.7215 69.1613 23.4237 68.0813 22.8279C67.02 22.2134 66.1726 21.3754 65.5395 20.314C64.9251 19.2526 64.618 18.0609 64.618 16.7388C64.618 15.4168 64.9251 14.2342 65.5395 13.1915C66.154 12.1302 66.9829 11.2924 68.0256 10.6779C69.0869 10.0635 70.2599 9.75608 71.5447 9.75607ZM71.4889 12.577C70.7068 12.577 70.0272 12.7448 69.45 13.08C68.8728 13.4151 68.4258 13.8899 68.1092 14.5044C67.9686 14.7691 67.8597 15.0577 67.7815 15.3701H74.9167C74.8362 14.9755 74.7176 14.6218 74.5611 14.3089C74.2818 13.7503 73.8815 13.3218 73.3601 13.0239C72.8574 12.726 72.2336 12.577 71.4889 12.577Z" fill="#737373"/>
<path d="M96.9157 17.6885C96.9157 18.3402 97.0179 18.8988 97.2227 19.3643C97.4461 19.8111 97.7628 20.1556 98.1724 20.3976C98.6007 20.6397 99.1033 20.7608 99.6805 20.7608C100.574 20.7608 101.254 20.5001 101.72 19.9787C102.204 19.4387 102.446 18.6753 102.446 17.6885V10.0356H105.518V17.8283C105.518 19.0013 105.267 20.0347 104.764 20.9284C104.28 21.8036 103.6 22.4925 102.725 22.9952C101.85 23.4793 100.835 23.7215 99.6805 23.7215C98.5447 23.7215 97.5299 23.4701 96.6361 22.9673C95.761 22.4646 95.0721 21.7757 94.5694 20.9006C94.0853 20.0068 93.8431 18.9827 93.843 17.8283V10.0356H96.9157V17.6885Z" fill="#737373"/>
<path d="M44.625 3.89072L52.0267 16.074L59.4283 3.89072H61.6627V23.4424H58.4507V10.9216L53.1441 19.6438H50.9097L45.6026 10.9216V23.4424H42.3906V3.89072H44.625Z" fill="#737373"/>
<path d="M83.4763 16.3391L88.8948 10.0356H92.5537L86.9045 16.4633L92.8332 23.4424H88.9227L83.4763 16.8684V23.4424H80.4037V3.33203H83.4763V16.3391Z" fill="#737373"/>
<path d="M0 6.23576H27.1681L27.1681 3.49324C27.1681 1.56397 25.604 0 23.6747 0H3.49333C1.56402 0 0 1.56398 0 3.49324V6.23576Z" fill="#737373"/>
<path d="M0 23.6764C0 25.6057 1.56401 27.1697 3.49333 27.1697H16.9765C16.0036 25.9251 14.4775 25.1173 12.7468 25.1154L10.4588 25.1129L10.4588 18.3301L12.7468 18.3276C15.7188 18.3243 18.0873 15.9445 18.0873 13.0582V10.7676H24.8978V13.0582C24.8978 14.8304 25.7908 16.4117 27.1681 17.3691L27.1681 8.56448L0 8.56457V23.6764Z" fill="#737373"/>
<path d="M20.3786 13.0586C20.3786 17.231 16.9639 20.6139 12.75 20.6186L12.75 22.8253C16.9639 22.8299 20.3786 26.2129 20.3786 30.3852H22.6079C22.6079 26.2129 26.0225 22.8299 30.2364 22.8253L30.2364 20.6186C26.0225 20.6139 22.6079 17.231 22.6079 13.0586H20.3786Z" fill="#737373"/>
</svg>
