<svg width="140" height="37" viewBox="0 0 140 37" fill="none" xmlns="http://www.w3.org/2000/svg">
<g clip-path="url(#clip0_19112_888)">
<g clip-path="url(#clip1_19112_888)">
<g opacity="0.7">
<path d="M108.096 26.7798C107.848 26.7798 107.645 26.6958 107.487 26.5277C107.329 26.3596 107.25 26.157 107.25 25.9196C107.25 25.6823 107.329 25.4845 107.487 25.3264C107.645 25.1582 107.848 25.0742 108.096 25.0742C108.333 25.0742 108.53 25.1582 108.688 25.3264C108.846 25.4845 108.925 25.6823 108.925 25.9196C108.925 26.157 108.846 26.3596 108.688 26.5277C108.53 26.6958 108.333 26.7798 108.096 26.7798Z" fill="#737373"/>
<path d="M110.801 26.6307V19.6601H111.839V26.6307H110.801ZM111.839 22.567L111.409 22.3742C111.409 21.4942 111.621 20.7971 112.047 20.2829C112.481 19.7688 113.075 19.5117 113.827 19.5117C114.172 19.5117 114.489 19.5759 114.775 19.7045C115.062 19.8232 115.329 20.016 115.577 20.2829L114.894 21.0096C114.726 20.8218 114.538 20.6883 114.331 20.6092C114.132 20.5301 113.906 20.4906 113.648 20.4906C113.114 20.4906 112.679 20.6686 112.343 21.0245C112.007 21.3705 111.839 21.8847 111.839 22.567Z" fill="#737373"/>
<path d="M119.441 26.7792C118.877 26.7792 118.373 26.6506 117.928 26.3936C117.483 26.1266 117.132 25.7657 116.875 25.3109C116.627 24.856 116.504 24.3221 116.504 23.7091V19.6602H117.557V23.6646C117.557 24.0897 117.631 24.4605 117.78 24.777C117.938 25.0934 118.16 25.3405 118.447 25.5185C118.734 25.6965 119.065 25.7855 119.441 25.7855C120.024 25.7855 120.484 25.5927 120.82 25.207C121.166 24.8215 121.339 24.3073 121.339 23.6646V19.6602H122.377V23.7091C122.377 24.3123 122.254 24.8461 122.006 25.3109C121.759 25.7756 121.414 26.1365 120.969 26.3936C120.524 26.6506 120.015 26.7792 119.441 26.7792Z" fill="#737373"/>
<path d="M129.389 26.6307V22.5373C129.389 21.9242 129.206 21.4299 128.84 21.0541C128.484 20.6686 128.01 20.4757 127.416 20.4757C127.011 20.4757 126.655 20.5647 126.348 20.7427C126.041 20.9207 125.8 21.1629 125.622 21.4694C125.443 21.776 125.355 22.127 125.355 22.5224L124.879 22.2555C124.879 21.7315 125.004 21.2618 125.251 20.8465C125.498 20.4313 125.829 20.105 126.245 19.8676C126.67 19.6303 127.154 19.5117 127.698 19.5117C128.232 19.5117 128.706 19.6402 129.122 19.8973C129.537 20.1544 129.859 20.5004 130.085 20.9355C130.323 21.3705 130.442 21.8452 130.442 22.3593V26.6307H129.389ZM124.316 26.6307V19.6601H125.355V26.6307H124.316Z" fill="#737373"/>
</g>
<path d="M47.6243 26.7773C46.2419 26.7773 45.0502 26.5548 44.0492 26.1099C43.064 25.6491 42.1583 24.9578 41.332 24.0363L43.7631 21.629C44.3034 22.2487 44.8992 22.7333 45.5508 23.0829C46.2181 23.4166 46.9887 23.5834 47.8627 23.5834C48.6571 23.5834 49.2689 23.4405 49.6979 23.1544C50.1428 22.8684 50.3653 22.4711 50.3653 21.9627C50.3653 21.5019 50.2223 21.1285 49.9363 20.8424C49.6503 20.5564 49.2689 20.3102 48.7923 20.1036C48.3315 19.897 47.815 19.6984 47.243 19.5077C46.6869 19.317 46.1307 19.1026 45.5746 18.8642C45.0184 18.61 44.502 18.3001 44.0253 17.9347C43.5645 17.5533 43.1911 17.0846 42.9051 16.5284C42.6191 15.9564 42.4761 15.2413 42.4761 14.3833C42.4761 13.3505 42.7224 12.4606 43.215 11.7139C43.7234 10.9671 44.4226 10.4029 45.3124 10.0216C46.2022 9.62434 47.2271 9.42578 48.3871 9.42578C49.5629 9.42578 50.6354 9.63233 51.6047 10.0454C52.5898 10.4585 53.4002 11.0227 54.0358 11.7377L51.6047 14.145C51.0962 13.6206 50.5798 13.2313 50.0555 12.9771C49.547 12.7228 48.967 12.5958 48.3156 12.5958C47.6641 12.5958 47.1477 12.7228 46.7663 12.9771C46.385 13.2154 46.1942 13.565 46.1942 14.0258C46.1942 14.4548 46.3373 14.8044 46.6232 15.0745C46.9093 15.3288 47.2827 15.5512 47.7435 15.7419C48.2202 15.9326 48.7367 16.1232 49.2928 16.3139C49.8648 16.5045 50.4289 16.727 50.985 16.9813C51.5412 17.2355 52.0496 17.5612 52.5104 17.9585C52.9871 18.3398 53.3684 18.8324 53.6545 19.4363C53.9405 20.0241 54.0835 20.7551 54.0835 21.629C54.0835 23.2338 53.5115 24.4971 52.3674 25.4187C51.2234 26.3244 49.6423 26.7773 47.6243 26.7773Z" fill="#737373"/>
<path d="M57.5398 26.5149V12.1268L61.1864 10.1406V26.5149H57.5398ZM54.918 18.0299V14.9314H63.8083V18.0299H54.918Z" fill="#737373"/>
<path d="M69.7839 26.7555C68.7194 26.7555 67.7659 26.4933 66.9238 25.969C66.0975 25.4447 65.4382 24.7296 64.9455 23.8239C64.4688 22.9182 64.2305 21.8854 64.2305 20.7254C64.2305 19.5654 64.4688 18.5327 64.9455 17.6269C65.4382 16.7212 66.0975 16.0061 66.9238 15.4818C67.7659 14.9575 68.7194 14.6953 69.7839 14.6953C70.5625 14.6953 71.2617 14.8463 71.8814 15.1481C72.5169 15.45 73.0334 15.8711 73.4306 16.4113C73.8278 16.9358 74.0503 17.5395 74.098 18.2228V23.228C74.0503 23.9113 73.8278 24.5231 73.4306 25.0633C73.0493 25.5876 72.5408 26.0008 71.9052 26.3027C71.2696 26.6046 70.5625 26.7555 69.7839 26.7555ZM70.5228 23.4664C71.3014 23.4664 71.9291 23.2121 72.4057 22.7037C72.8824 22.1793 73.1208 21.5199 73.1208 20.7254C73.1208 20.1852 73.0095 19.7085 72.7871 19.2954C72.5805 18.8822 72.2787 18.5644 71.8814 18.3419C71.5001 18.1037 71.0552 17.9844 70.5466 17.9844C70.0382 17.9844 69.5853 18.1037 69.1881 18.3419C68.8067 18.5644 68.4969 18.8822 68.2586 19.2954C68.0361 19.7085 67.9249 20.1852 67.9249 20.7254C67.9249 21.2497 68.0361 21.7186 68.2586 22.1317C68.481 22.5448 68.7908 22.8705 69.1881 23.1089C69.5853 23.3472 70.0302 23.4664 70.5228 23.4664ZM72.9777 26.5172V23.3949L73.526 20.5824L72.9777 17.77V14.9337H76.5529V26.5172H72.9777Z" fill="#737373"/>
<path d="M80.5242 26.5149V12.1268L84.1709 10.1406V26.5149H80.5242ZM77.9023 18.0299V14.9314H86.7926V18.0299H77.9023Z" fill="#737373"/>
<path d="M88.1629 26.5167V14.9332H91.81V26.5167H88.1629ZM89.9982 13.3362C89.4264 13.3362 88.9493 13.1455 88.5679 12.7642C88.2029 12.3669 88.0195 11.8902 88.0195 11.3341C88.0195 10.7621 88.2029 10.2854 88.5679 9.90404C88.9493 9.52273 89.4264 9.33203 89.9982 9.33203C90.5699 9.33203 91.0392 9.52273 91.4042 9.90404C91.77 10.2854 91.9525 10.7621 91.9525 11.3341C91.9525 11.8902 91.77 12.3669 91.4042 12.7642C91.0392 13.1455 90.5699 13.3362 89.9982 13.3362Z" fill="#737373"/>
<path d="M99.7384 26.7799C98.5471 26.7799 97.4661 26.5176 96.4972 25.9933C95.5274 25.4689 94.7653 24.746 94.2092 23.8243C93.6531 22.9027 93.375 21.87 93.375 20.7259C93.375 19.5659 93.6531 18.5331 94.2092 17.6274C94.781 16.7058 95.5518 15.9828 96.5207 15.4585C97.4904 14.9341 98.5784 14.6719 99.7862 14.6719C100.692 14.6719 101.518 14.8308 102.265 15.1486C103.027 15.4505 103.703 15.9113 104.291 16.531L101.955 18.8668C101.685 18.5648 101.367 18.3424 101.002 18.1994C100.653 18.0564 100.247 17.9849 99.7862 17.9849C99.2622 17.9849 98.793 18.1041 98.3802 18.3424C97.9831 18.5648 97.6651 18.8827 97.427 19.2958C97.2045 19.693 97.0933 20.1618 97.0933 20.7021C97.0933 21.2423 97.2045 21.719 97.427 22.1321C97.6651 22.5452 97.9909 22.871 98.4037 23.1094C98.8173 23.3476 99.2779 23.4668 99.7862 23.4668C100.263 23.4668 100.684 23.3874 101.05 23.2285C101.431 23.0537 101.756 22.8154 102.026 22.5134L104.339 24.8492C103.735 25.4848 103.052 25.9695 102.289 26.3032C101.526 26.6209 100.676 26.7799 99.7384 26.7799Z" fill="#737373"/>
<path d="M9.49675 4.15234C7.70009 4.15234 6.04698 5.13388 5.18692 6.71131L0 16.2246H9.05497C9.51865 16.2246 9.96547 16.0508 10.3073 15.7377L20.5797 6.32489L16.4655 14.8967C16.1702 15.512 16.6187 16.2246 17.3012 16.2246H24.0776C27.4112 16.2246 30.1136 13.5221 30.1136 10.1885C30.1136 6.85482 27.4112 4.15234 24.0776 4.15234H9.49675Z" fill="#737373"/>
<path d="M22.5681 31.959C24.3647 31.959 26.0178 30.9775 26.8779 29.4001L32.0648 19.8867H23.0099C22.5462 19.8867 22.0994 20.0605 21.7575 20.3737L11.4852 29.7864L15.5993 21.2147C15.8946 20.5994 15.4462 19.8867 14.7637 19.8867H7.98731C4.65365 19.8867 1.95117 22.5892 1.95117 25.9228C1.95117 29.2565 4.65365 31.959 7.98731 31.959H22.5681Z" fill="#737373"/>
</g>
</g>
<defs>
<clipPath id="clip0_19112_888">
<rect width="139.034" height="36.1129" fill="white"/>
</clipPath>
<clipPath id="clip1_19112_888">
<rect width="133.821" height="34.7586" fill="white" transform="translate(0 0.675781)"/>
</clipPath>
</defs>
</svg>
