<svg width="159" height="29" viewBox="0 0 159 29" fill="none" xmlns="http://www.w3.org/2000/svg">
<path d="M39.8711 8.31064H45.5599V24.6067H48.9626V8.31064H54.6514V5.17372H39.8711V8.31064Z" fill="#737373"/>
<path d="M58.4491 24.9523C60.496 24.9523 62.2771 24.0219 62.8353 22.6661L63.0746 24.6067H65.919V16.6315C65.919 12.9894 63.7392 11.0754 60.2036 11.0754C56.6414 11.0754 54.3021 12.9363 54.3021 15.7808H57.0668C57.0668 14.3984 58.1301 13.6009 60.0441 13.6009C61.6923 13.6009 62.7556 14.3187 62.7556 16.0998V16.3922L58.8213 16.6846C55.711 16.9239 53.9565 18.4392 53.9565 20.8583C53.9565 23.3307 55.6578 24.9523 58.4491 24.9523ZM59.5124 22.5066C58.0503 22.5066 57.2528 21.9217 57.2528 20.7254C57.2528 19.6621 58.0238 18.9975 60.0441 18.8114L62.7822 18.5987V19.2899C62.7822 21.3103 61.5062 22.5066 59.5124 22.5066Z" fill="#737373"/>
<path d="M70.7266 8.84232C71.79 8.84232 72.6672 7.96505 72.6672 6.8751C72.6672 5.78515 71.79 4.93446 70.7266 4.93446C69.6101 4.93446 68.7329 5.78515 68.7329 6.8751C68.7329 7.96505 69.6101 8.84232 70.7266 8.84232ZM69.1051 24.6067H72.3482V11.4742H69.1051V24.6067Z" fill="#737373"/>
<path d="M78.9687 24.6067V4.82812H75.7521V24.6067H78.9687Z" fill="#737373"/>
<path d="M84.524 24.6067L86.0924 20.114H93.3497L94.9181 24.6067H98.5068L91.4888 5.17372H88.0064L80.9884 24.6067H84.524ZM89.309 10.9691C89.4951 10.4374 89.6546 9.85252 89.7343 9.48034C89.7875 9.87911 89.9736 10.464 90.1331 10.9691L92.3661 17.2429H87.1026L89.309 10.9691Z" fill="#737373"/>
<path d="M105.264 24.9523C107.258 24.9523 108.959 24.075 109.757 22.5597L109.97 24.6067H112.947V4.82812H109.73V13.149C108.906 11.8463 107.285 11.0754 105.45 11.0754C101.49 11.0754 99.0971 13.9996 99.0971 18.0936C99.0971 22.161 101.463 24.9523 105.264 24.9523ZM105.982 21.9749C103.723 21.9749 102.34 20.3267 102.34 17.9873C102.34 15.6479 103.723 13.9731 105.982 13.9731C108.242 13.9731 109.704 15.6213 109.704 17.9873C109.704 20.3532 108.242 21.9749 105.982 21.9749Z" fill="#737373"/>
<path d="M119.57 24.6067V17.1632C119.57 15.0364 120.819 14.0262 122.361 14.0262C123.903 14.0262 124.887 15.0098 124.887 16.8441V24.6067H128.13V17.1632C128.13 15.0098 129.326 13.9996 130.894 13.9996C132.436 13.9996 133.446 14.9833 133.446 16.8707V24.6067H136.663V16.02C136.663 12.9894 134.909 11.0754 131.719 11.0754C129.725 11.0754 128.183 12.059 127.518 13.5743C126.827 12.059 125.445 11.0754 123.451 11.0754C121.564 11.0754 120.235 11.9261 119.57 13.016L119.304 11.4742H116.327V24.6067H119.57Z" fill="#737373"/>
<path d="M141.468 8.84232C142.532 8.84232 143.409 7.96505 143.409 6.8751C143.409 5.78515 142.532 4.93446 141.468 4.93446C140.352 4.93446 139.475 5.78515 139.475 6.8751C139.475 7.96505 140.352 8.84232 141.468 8.84232ZM139.847 24.6067H143.09V11.4742H139.847V24.6067Z" fill="#737373"/>
<path d="M149.684 24.6067V17.5353C149.684 15.4086 150.907 14.0262 152.9 14.0262C154.575 14.0262 155.665 15.0896 155.665 17.2961V24.6067H158.908V16.5251C158.908 13.1224 157.207 11.0754 153.911 11.0754C152.13 11.0754 150.535 11.8463 149.71 13.1755L149.445 11.4742H146.441V24.6067H149.684Z" fill="#737373"/>
<path fill-rule="evenodd" clip-rule="evenodd" d="M21.3685 0C25.5833 2.5829e-05 29 3.4168 29 7.63171V21.3683C29 25.5832 25.5833 29 21.3685 29H7.63148C3.41674 28.9999 0 25.5832 0 21.3683V7.63171C0 3.41682 3.41674 6.41325e-05 7.63148 0H21.3685ZM9.15745 6.10653C8.31477 6.10672 7.63167 6.78984 7.63148 7.63254V21.37C7.63148 22.2128 8.31465 22.8966 9.15745 22.8968C10.0004 22.8968 10.6842 22.2129 10.6842 21.37V7.63254C10.6841 6.78972 10.0003 6.10653 9.15745 6.10653ZM14.8823 12.2097C14.0394 12.2097 13.3555 12.8936 13.3555 13.7366V21.3683C13.3557 22.2111 14.0394 22.8943 14.8823 22.8943C15.725 22.8941 16.4081 22.211 16.4083 21.3683V13.7366C16.4083 12.8937 15.7251 12.21 14.8823 12.2097ZM20.6047 8.39305C19.7617 8.39305 19.0779 9.07691 19.0779 9.91989V21.3675C19.0779 22.2104 19.7617 22.8935 20.6047 22.8935C21.4476 22.8934 22.1306 22.2104 22.1306 21.3675V9.91989C22.1306 9.07694 21.4476 8.3931 20.6047 8.39305Z" fill="#737373"/>
</svg>
