
<svg display="block" role="presentation" viewBox="0 0 24 24" xmlns="http://www.w3.org/2000/svg"><defs ><linearGradient id="M_4Rc17nH-1585294349-linear-gradient" x1="0.49751243781094523" x2="0.5024875621890548" y1="0" y2="1"><stop offset="0" stop-color="rgb(255, 255, 255)"/><stop offset="1" stop-color="rgba(255, 255, 255, 0.3)"/></linearGradient></defs><path d="M 0 23.273 L 0 0 L 23.273 0 L 23.273 23.273 Z" fill="transparent" height="23.272727272727273px" id="MXz0JsH5E" transform="translate(0.121 0.712)" width="23.272727272727273px"/><path d="M 19.637 10.909 C 19.637 11.102 19.56 11.287 19.424 11.423 C 19.288 11.56 19.103 11.636 18.91 11.636 L 17.455 11.636 L 17.455 13.091 C 17.455 13.284 17.379 13.469 17.242 13.605 C 17.106 13.742 16.921 13.818 16.728 13.818 C 16.535 13.818 16.35 13.742 16.214 13.605 C 16.077 13.469 16.001 13.284 16.001 13.091 L 16.001 11.636 L 14.546 11.636 C 14.353 11.636 14.168 11.56 14.032 11.423 C 13.895 11.287 13.819 11.102 13.819 10.909 C 13.819 10.716 13.895 10.531 14.032 10.395 C 14.168 10.258 14.353 10.182 14.546 10.182 L 16.001 10.182 L 16.001 8.727 C 16.001 8.534 16.077 8.349 16.214 8.213 C 16.35 8.077 16.535 8 16.728 8 C 16.921 8 17.106 8.077 17.242 8.213 C 17.379 8.349 17.455 8.534 17.455 8.727 L 17.455 10.182 L 18.91 10.182 C 19.103 10.182 19.288 10.258 19.424 10.395 C 19.56 10.531 19.637 10.716 19.637 10.909 Z M 2.183 3.636 L 3.637 3.636 L 3.637 5.091 C 3.637 5.284 3.714 5.469 3.85 5.605 C 3.986 5.742 4.171 5.818 4.364 5.818 C 4.557 5.818 4.742 5.742 4.879 5.605 C 5.015 5.469 5.092 5.284 5.092 5.091 L 5.092 3.636 L 6.546 3.636 C 6.739 3.636 6.924 3.56 7.06 3.423 C 7.197 3.287 7.273 3.102 7.273 2.909 C 7.273 2.716 7.197 2.531 7.06 2.395 C 6.924 2.258 6.739 2.182 6.546 2.182 L 5.092 2.182 L 5.092 0.727 C 5.092 0.534 5.015 0.349 4.879 0.213 C 4.742 0.077 4.557 0 4.364 0 C 4.171 0 3.986 0.077 3.85 0.213 C 3.714 0.349 3.637 0.534 3.637 0.727 L 3.637 2.182 L 2.183 2.182 C 1.99 2.182 1.805 2.258 1.668 2.395 C 1.532 2.531 1.455 2.716 1.455 2.909 C 1.455 3.102 1.532 3.287 1.668 3.423 C 1.805 3.56 1.99 3.636 2.183 3.636 Z M 13.819 14.545 L 13.092 14.545 L 13.092 13.818 C 13.092 13.625 13.015 13.44 12.879 13.304 C 12.742 13.168 12.557 13.091 12.364 13.091 C 12.171 13.091 11.986 13.168 11.85 13.304 C 11.714 13.44 11.637 13.625 11.637 13.818 L 11.637 14.545 L 10.91 14.545 C 10.717 14.545 10.532 14.622 10.396 14.758 C 10.259 14.895 10.183 15.08 10.183 15.273 C 10.183 15.466 10.259 15.651 10.396 15.787 C 10.532 15.923 10.717 16 10.91 16 L 11.637 16 L 11.637 16.727 C 11.637 16.92 11.714 17.105 11.85 17.242 C 11.986 17.378 12.171 17.455 12.364 17.455 C 12.557 17.455 12.742 17.378 12.879 17.242 C 13.015 17.105 13.092 16.92 13.092 16.727 L 13.092 16 L 13.819 16 C 14.012 16 14.197 15.923 14.333 15.787 C 14.47 15.651 14.546 15.466 14.546 15.273 C 14.546 15.08 14.47 14.895 14.333 14.758 C 14.197 14.622 14.012 14.545 13.819 14.545 Z M 17.029 4.364 L 4.364 17.028 C 4.092 17.301 3.722 17.454 3.336 17.454 C 2.951 17.454 2.581 17.301 2.308 17.028 L 0.426 15.148 C 0.291 15.013 0.184 14.853 0.111 14.676 C 0.038 14.5 0 14.311 0 14.12 C 0 13.928 0.038 13.739 0.111 13.563 C 0.184 13.386 0.291 13.226 0.426 13.091 L 13.092 0.426 C 13.227 0.291 13.387 0.184 13.564 0.111 C 13.74 0.038 13.929 0 14.12 0 C 14.311 0 14.5 0.038 14.677 0.111 C 14.853 0.184 15.014 0.291 15.149 0.426 L 17.029 2.306 C 17.164 2.441 17.271 2.602 17.344 2.778 C 17.417 2.955 17.455 3.144 17.455 3.335 C 17.455 3.526 17.417 3.715 17.344 3.892 C 17.271 4.068 17.164 4.229 17.029 4.364 Z M 16.001 3.335 L 14.12 1.455 L 11.211 4.364 L 13.092 6.245 Z" fill="url(#M_4Rc17nH-1585294349-linear-gradient)" height="17.454510081898082px" id="M_4Rc17nH" transform="translate(3.029 3.621)" width="19.637069528753106px"/></svg>
