<svg width="24" height="24" viewBox="0 0 24 24" fill="none" xmlns="http://www.w3.org/2000/svg">
<path d="M13.9196 1.56152L13.91 6.18193L13.9004 10.8023L13.4594 9.72974V9.72698L12.8873 20.0129C13.4498 21.377 13.7502 22.1058 13.7534 22.1086C13.7566 22.1113 14.0762 22.1278 14.4629 22.1443C15.6327 22.1938 17.0836 22.3011 18.1862 22.4193C18.4419 22.4468 18.6592 22.4606 18.6752 22.4496C18.6912 22.4386 18.6944 17.7357 18.6912 11.9959L18.6816 1.56152H13.9196Z" fill="url(#paint0_linear_17163_25221)"/>
<path d="M5.3053 1.54865V11.9941C5.3053 17.7393 5.31169 22.445 5.32128 22.4533C5.33087 22.4615 5.74315 22.4258 6.24172 22.379C6.74029 22.3323 7.42742 22.2718 7.76939 22.247C8.29353 22.2085 9.86595 22.1232 10.0449 22.1205C10.0993 22.1205 10.1024 21.8867 10.1088 17.6953L10.1184 13.2702L10.4987 14.1943C10.5563 14.3373 10.5755 14.3813 10.633 14.5216L11.2051 4.23839C11.0836 3.94411 11.1475 4.09813 11.0101 3.7626C10.5435 2.62675 10.1472 1.66691 10.1312 1.62291L10.0993 1.5459H5.3053V1.54865Z" fill="url(#paint1_linear_17163_25221)"/>
<path d="M5.3053 1.54865L10.1153 13.2784V13.2729L10.4956 14.197C12.6081 19.3426 13.7427 22.1039 13.7491 22.1094C13.7523 22.1121 14.0719 22.1286 14.4586 22.1451C15.6283 22.1946 17.0793 22.3019 18.1819 22.4201C18.4344 22.4476 18.6549 22.4614 18.6677 22.4504L13.8993 10.8004V10.8032L13.4583 9.73058C13.0268 8.68274 12.7392 7.98144 11.0037 3.76258C10.5371 2.62674 10.1408 1.66691 10.1248 1.6229L10.0929 1.5459H7.69909L5.3053 1.54865Z" fill="#E30A17"/>
<defs>
<linearGradient id="paint0_linear_17163_25221" x1="20.839" y1="17.1824" x2="13.2173" y2="20.5295" gradientUnits="userSpaceOnUse">
<stop stop-color="#B20610"/>
<stop offset="0.255959" stop-color="#B20610"/>
<stop offset="1" stop-color="#590004"/>
</linearGradient>
<linearGradient id="paint1_linear_17163_25221" x1="2.99404" y1="6.12885" x2="11.2367" y2="2.55078" gradientUnits="userSpaceOnUse">
<stop stop-color="#B20610"/>
<stop offset="0.255959" stop-color="#B20610"/>
<stop offset="1" stop-color="#590004"/>
</linearGradient>
</defs>
</svg>
