<svg width="24" height="24" viewBox="0 0 24 24" fill="none" xmlns="http://www.w3.org/2000/svg">
<circle cx="12" cy="12" r="12" fill="#E31937"/>
<path d="M12.0004 18.8572L13.7667 8.9237C15.4502 8.9237 15.9813 9.10831 16.058 9.86184C16.058 9.86184 17.1874 9.44074 17.757 8.58549C15.5342 7.55549 13.3008 7.50904 13.3008 7.50904L11.9975 9.09636L12.0005 9.09616L10.6972 7.50879C10.6972 7.50879 8.46372 7.55529 6.24121 8.58529C6.81033 9.44054 7.94016 9.86164 7.94016 9.86164C8.01728 9.10806 8.54766 8.92345 10.2199 8.92225L12.0004 18.8572Z" fill="white"/>
<path d="M11.9997 7.05087C13.7965 7.03713 15.8531 7.32883 17.9586 8.24646C18.24 7.73998 18.3123 7.51613 18.3123 7.51613C16.0107 6.60557 13.8554 6.29395 11.9994 6.28613C10.1435 6.29395 7.98824 6.60562 5.68701 7.51613C5.68701 7.51613 5.78967 7.79185 6.0405 8.24646C8.14552 7.32883 10.2026 7.03713 11.9995 7.05087H11.9997Z" fill="white"/>
</svg>
