
<svg xmlns="http://www.w3.org/2000/svg" width="1550" height="407" fill="none"><path fill="url(#a)" stroke="#6670FF" stroke-width="15" d="m8 7.5-.451 14.986 603.09 36.367c.8.049 1.246.312 1.532.574.336.307.628.787.76 1.39.131.602.064 1.16-.114 1.58-.151.357-.446.782-1.154 1.159l-184.96 98.489-74.996 18.179a17.465 17.465 0 0 0-4.856 1.986L4.152 387.062l7.373 13.058L432.08 176.177l368.264-89.261a2.5 2.5 0 0 1 .721-.067l615.376 32.786c1.01.054 1.89.709 2.22 1.66l89.85 253.016c6.58 18.523 33.99 13.8 33.99-5.857V25c0-9.665-7.84-17.5-17.5-17.5H8Z"/><defs><linearGradient id="a" x1="771.5" x2="771.5" y1="604" y2="15" gradientUnits="userSpaceOnUse"><stop stop-color="#5947FF"/><stop offset=".928" stop-color="#fff"/><stop offset="1" stop-color="#5947FF"/></linearGradient></defs></svg>
