
<svg xmlns="http://www.w3.org/2000/svg" width="50" height="50" fill="none"><rect width="50" height="50" fill="#2BB673" rx="12"/><path fill="#2BB673" d="M25 45.652c11.406 0 20.652-9.246 20.652-20.652S36.406 4.348 25 4.348 4.348 13.594 4.348 25 13.594 45.652 25 45.652Z"/><path fill="#fff" d="m15.253 15.933 9.003 9.023-9.003 9.024-9.003-9.023 9.003-9.024Zm19.494 0 9.003 9.023-9.003 9.024-9.003-9.023 9.003-9.024ZM25 25.702l9.003 9.024L25 43.75l-9.003-9.024L25 25.702ZM25 6.25l9.002 9.024L25 24.298l-9.003-9.024L25 6.25Z"/></svg>
