
<svg display="block" role="presentation" viewBox="0 0 24 24" xmlns="http://www.w3.org/2000/svg"><defs ><linearGradient id="dF33j0DxO-162734386-linear-gradient" x1="0" x2="1" y1="0.5320949237872229" y2="0.46790507621277716"><stop offset="0" stop-color="rgba(255, 255, 255, 0.3)"/><stop offset="1" stop-color="rgb(255, 255, 255)"/></linearGradient><linearGradient id="BV2EpGxCo-162734386-linear-gradient" x1="0.3930674607969482" x2="0.6069325392030518" y1="0" y2="1"><stop offset="0" stop-color="rgba(255, 255, 255, 0.6)"/><stop offset="1" stop-color="rgb(255, 255, 255)"/></linearGradient></defs><path d="M 4.454 0.442 L 3.637 2.893 C 3.52 3.244 3.244 3.52 2.893 3.637 L 0.442 4.454 C 0.178 4.542 0 4.789 0 5.067 C 0 5.346 0.178 5.593 0.442 5.681 L 2.893 6.498 C 3.244 6.615 3.52 6.89 3.637 7.242 L 4.454 9.693 C 4.542 9.957 4.789 10.135 5.067 10.135 C 5.346 10.135 5.593 9.957 5.681 9.693 L 6.498 7.242 C 6.615 6.89 6.89 6.615 7.242 6.498 L 9.693 5.681 C 9.957 5.593 10.135 5.346 10.135 5.067 C 10.135 4.789 9.957 4.542 9.693 4.454 L 8.585 4.085 L 7.242 3.637 C 6.89 3.52 6.615 3.244 6.498 2.893 L 5.681 0.442 C 5.593 0.178 5.346 0 5.067 0 C 4.789 0 4.542 0.178 4.454 0.442 Z" fill="url(#dF33j0DxO-162734386-linear-gradient)" height="10.134576px" id="dF33j0DxO" transform="translate(2.225 1.228)" width="10.134576000000092px"/><path d="M 12.025 0 C 12.816 0 13.468 0 14 0.043 C 14.552 0.089 15.06 0.185 15.536 0.428 C 16.276 0.805 16.877 1.406 17.253 2.145 C 17.496 2.622 17.593 3.13 17.638 3.682 C 17.682 4.214 17.682 4.866 17.682 5.657 L 17.682 9.077 C 17.682 9.868 17.682 10.521 17.638 11.052 C 17.593 11.604 17.496 12.112 17.253 12.589 C 16.877 13.328 16.276 13.929 15.536 14.306 C 15.06 14.549 14.552 14.646 14 14.691 C 13.468 14.734 12.816 14.734 12.025 14.734 C 11.894 14.734 11.77 14.791 11.685 14.891 L 9.734 17.166 C 9.265 17.714 8.417 17.714 7.947 17.166 L 5.997 14.891 C 5.912 14.791 5.788 14.734 5.657 14.734 C 4.866 14.734 4.214 14.734 3.682 14.691 C 3.13 14.646 2.622 14.549 2.145 14.306 C 1.406 13.929 0.805 13.328 0.428 12.589 C 0.185 12.112 0.089 11.604 0.043 11.052 C 0 10.521 0 9.868 0 9.077 L 0 5.657 C 0 5.282 0.477 5.201 0.608 5.551 L 1.291 7.373 C 1.401 7.665 1.68 7.859 1.992 7.859 L 3.605 7.859 C 4.095 7.859 4.534 7.554 4.707 7.095 L 5.706 4.43 C 5.825 4.112 6.076 3.861 6.395 3.741 L 9.06 2.742 C 9.519 2.57 9.823 2.131 9.823 1.64 L 9.823 1.177 C 9.823 0.527 10.35 0 11 0 Z M 10.806 4.756 C 10.527 4.756 10.28 4.934 10.192 5.198 L 9.867 6.175 C 9.749 6.527 9.474 6.802 9.122 6.92 L 8.145 7.245 C 7.881 7.333 7.703 7.58 7.703 7.859 C 7.703 8.137 7.881 8.384 8.145 8.472 L 9.122 8.797 C 9.474 8.915 9.749 9.19 9.867 9.542 L 10.192 10.519 C 10.28 10.783 10.527 10.961 10.806 10.961 C 11.084 10.961 11.331 10.783 11.419 10.519 L 11.744 9.542 C 11.862 9.19 12.137 8.915 12.489 8.797 L 13.466 8.472 C 13.73 8.384 13.908 8.137 13.908 7.859 C 13.908 7.58 13.73 7.333 13.466 7.245 L 12.489 6.92 C 12.137 6.802 11.862 6.527 11.744 6.175 L 11.419 5.198 C 11.331 4.934 11.084 4.756 10.806 4.756 Z" fill="url(#BV2EpGxCo-162734386-linear-gradient)" height="17.577316226481127px" id="BV2EpGxCo" transform="translate(4.48 5.316)" width="17.681798316058675px"/></svg>
