
<svg display="block" role="presentation" viewBox="0 0 24 24" xmlns="http://www.w3.org/2000/svg"><defs ><linearGradient id="bVXnZsfky-3276424321-linear-gradient" x1="0.3552947702086243" x2="0.6447052297913757" y1="5.551115123125783e-17" y2="1"><stop offset="0" stop-color="rgba(255, 255, 255, 0.84)"/><stop offset="1" stop-color="rgb(255, 255, 255)"/></linearGradient><linearGradient id="LnB69SVpu-3276424321-linear-gradient" x1="0.3490956380552801" x2="0.6509043619447199" y1="5.551115123125783e-17" y2="1"><stop offset="0" stop-color="rgb(72, 54, 229)"/><stop offset="1" stop-color="rgb(148, 137, 250)"/></linearGradient><linearGradient id="OT3U90aQz-3276424321-linear-gradient" x1="0.49751243781094523" x2="0.5024875621890548" y1="0" y2="1"><stop offset="0" stop-color="rgb(255, 255, 255)"/><stop offset="1" stop-color="rgb(149, 138, 243)"/></linearGradient><linearGradient id="JFn35DRxj-3276424321-linear-gradient" x1="0.49748743718592964" x2="0.5025125628140703" y1="1" y2="0"><stop offset="0" stop-color="rgb(0, 0, 0)"/><stop offset="1" stop-color="rgba(0, 0, 0, 0)"/></linearGradient><linearGradient id="He3QeNxGl-3276424321-linear-gradient" x1="0.49748743718592964" x2="0.5025125628140703" y1="1" y2="0"><stop offset="0" stop-color="rgb(0, 0, 0)"/><stop offset="1" stop-color="rgba(0, 0, 0, 0)"/></linearGradient><linearGradient id="EknzcDohJ-3276424321-linear-gradient" x1="0.49748743718592964" x2="0.5025125628140703" y1="1" y2="0"><stop offset="0" stop-color="rgb(0, 0, 0)"/><stop offset="1" stop-color="rgba(0, 0, 0, 0)"/></linearGradient></defs><g d="M 2.396 0 C 1.073 0 0 1.073 0 2.396 L 0 15.971 C 0 17.294 1.073 18.367 2.396 18.367 L 18.367 18.367 C 19.69 18.367 20.763 17.294 20.763 15.971 L 20.763 2.396 C 20.763 1.073 19.69 0 18.367 0 Z" fill="transparent" height="18.36685333333333px" id="hD4i74CrA" transform="translate(1.824 4.508)" width="20.7625346666667px"><path d="M 2.396 0 C 1.073 0 0 1.073 0 2.396 L 0 15.971 C 0 17.294 1.073 18.367 2.396 18.367 L 18.367 18.367 C 19.69 18.367 20.763 17.294 20.763 15.971 L 20.763 2.396 C 20.763 1.073 19.69 0 18.367 0 Z" fill="url(#bVXnZsfky-3276424321-linear-gradient)" height="18.36685333333333px" id="bVXnZsfky" width="20.7625346666667px"/></g><g d="M 2.557 0.094 C 2.988 0.314 3.163 0.848 2.948 1.287 C 2.644 1.907 2.142 3.428 1.891 4.796 C 1.781 5.397 1.732 5.902 1.747 6.257 C 1.819 6.191 1.905 6.1 2.005 5.973 C 2.313 5.58 2.614 5.028 2.942 4.395 L 3.062 4.164 L 3.062 4.164 C 3.338 3.628 3.639 3.045 3.949 2.588 C 4.129 2.322 4.343 2.05 4.598 1.838 C 4.856 1.624 5.214 1.423 5.657 1.423 C 6.151 1.423 6.551 1.677 6.782 2.075 C 6.97 2.401 7.017 2.772 7.03 3.051 C 7.056 3.605 6.959 4.299 6.877 4.88 L 6.877 4.88 L 6.869 4.936 C 6.81 5.36 6.76 5.731 6.736 6.039 C 6.926 5.787 7.12 5.46 7.351 5.066 L 7.371 5.031 C 7.618 4.61 7.912 4.107 8.246 3.713 C 8.579 3.32 9.106 2.846 9.844 2.846 C 10.222 2.846 10.577 2.976 10.854 3.249 C 11.106 3.496 11.231 3.799 11.302 4.039 C 11.408 4.403 11.448 4.864 11.478 5.218 L 11.478 5.219 C 11.485 5.296 11.491 5.367 11.497 5.432 C 11.542 5.889 11.599 6.156 11.682 6.305 C 11.712 6.358 11.731 6.37 11.737 6.373 C 11.744 6.377 11.793 6.405 11.931 6.404 C 12.413 6.4 12.807 6.796 12.81 7.287 C 12.814 7.778 12.426 8.179 11.944 8.183 C 11.559 8.186 11.194 8.105 10.871 7.917 C 10.547 7.728 10.32 7.462 10.165 7.183 C 9.878 6.667 9.804 6.044 9.761 5.609 C 9.749 5.484 9.739 5.372 9.73 5.271 L 9.73 5.27 C 9.711 5.059 9.696 4.894 9.675 4.757 C 9.643 4.789 9.607 4.827 9.567 4.875 C 9.343 5.14 9.121 5.513 8.848 5.979 L 8.828 6.014 L 8.828 6.014 C 8.581 6.435 8.287 6.938 7.953 7.332 C 7.62 7.725 7.093 8.199 6.355 8.199 C 5.861 8.199 5.46 7.944 5.23 7.546 C 5.042 7.221 4.995 6.85 4.982 6.571 C 4.956 6.017 5.053 5.323 5.134 4.742 L 5.134 4.742 L 5.142 4.686 C 5.188 4.356 5.229 4.059 5.256 3.798 C 5.052 4.129 4.844 4.532 4.609 4.987 L 4.485 5.227 C 4.166 5.842 3.794 6.54 3.367 7.084 C 2.96 7.602 2.336 8.199 1.47 8.199 C 0.987 8.199 0.596 7.958 0.352 7.596 C 0.14 7.282 0.059 6.914 0.025 6.606 C -0.045 5.981 0.041 5.206 0.176 4.47 C 0.448 2.984 0.993 1.296 1.387 0.492 C 1.602 0.053 2.126 -0.126 2.557 0.094 Z" fill="transparent" height="8.198574022149419px" id="aeZTfa2RB" transform="translate(5.871 10.557)" width="12.810217443174892px"><path d="M 2.557 0.094 C 2.988 0.314 3.163 0.848 2.948 1.287 C 2.644 1.907 2.142 3.428 1.891 4.796 C 1.781 5.397 1.732 5.902 1.747 6.257 C 1.819 6.191 1.905 6.1 2.005 5.973 C 2.313 5.58 2.614 5.028 2.942 4.395 L 3.062 4.164 L 3.062 4.164 C 3.338 3.628 3.639 3.045 3.949 2.588 C 4.129 2.322 4.343 2.05 4.598 1.838 C 4.856 1.624 5.214 1.423 5.657 1.423 C 6.151 1.423 6.551 1.677 6.782 2.075 C 6.97 2.401 7.017 2.772 7.03 3.051 C 7.056 3.605 6.959 4.299 6.877 4.88 L 6.877 4.88 L 6.869 4.936 C 6.81 5.36 6.76 5.731 6.736 6.039 C 6.926 5.787 7.12 5.46 7.351 5.066 L 7.371 5.031 C 7.618 4.61 7.912 4.107 8.246 3.713 C 8.579 3.32 9.106 2.846 9.844 2.846 C 10.222 2.846 10.577 2.976 10.854 3.249 C 11.106 3.496 11.231 3.799 11.302 4.039 C 11.408 4.403 11.448 4.864 11.478 5.218 L 11.478 5.219 C 11.485 5.296 11.491 5.367 11.497 5.432 C 11.542 5.889 11.599 6.156 11.682 6.305 C 11.712 6.358 11.731 6.37 11.737 6.373 C 11.744 6.377 11.793 6.405 11.931 6.404 C 12.413 6.4 12.807 6.796 12.81 7.287 C 12.814 7.778 12.426 8.179 11.944 8.183 C 11.559 8.186 11.194 8.105 10.871 7.917 C 10.547 7.728 10.32 7.462 10.165 7.183 C 9.878 6.667 9.804 6.044 9.761 5.609 C 9.749 5.484 9.739 5.372 9.73 5.271 L 9.73 5.27 C 9.711 5.059 9.696 4.894 9.675 4.757 C 9.643 4.789 9.607 4.827 9.567 4.875 C 9.343 5.14 9.121 5.513 8.848 5.979 L 8.828 6.014 L 8.828 6.014 C 8.581 6.435 8.287 6.938 7.953 7.332 C 7.62 7.725 7.093 8.199 6.355 8.199 C 5.861 8.199 5.46 7.944 5.23 7.546 C 5.042 7.221 4.995 6.85 4.982 6.571 C 4.956 6.017 5.053 5.323 5.134 4.742 L 5.134 4.742 L 5.142 4.686 C 5.188 4.356 5.229 4.059 5.256 3.798 C 5.052 4.129 4.844 4.532 4.609 4.987 L 4.485 5.227 C 4.166 5.842 3.794 6.54 3.367 7.084 C 2.96 7.602 2.336 8.199 1.47 8.199 C 0.987 8.199 0.596 7.958 0.352 7.596 C 0.14 7.282 0.059 6.914 0.025 6.606 C -0.045 5.981 0.041 5.206 0.176 4.47 C 0.448 2.984 0.993 1.296 1.387 0.492 C 1.602 0.053 2.126 -0.126 2.557 0.094 Z" fill="url(#LnB69SVpu-3276424321-linear-gradient)" height="8.198574022149419px" id="LnB69SVpu" transform="translate(0 0)" width="12.810217482911302px"/></g><path d="M 0 1.198 L 0 5.191 C 0 5.852 0.536 6.388 1.198 6.388 C 1.859 6.388 2.396 5.852 2.396 5.191 L 2.396 1.198 C 2.396 0.536 1.859 0 1.198 0 C 0.536 0 0 0.536 0 1.198 Z M 5.59 1.198 L 5.59 5.191 C 5.59 5.852 6.126 6.388 6.788 6.388 C 7.449 6.388 7.986 5.852 7.986 5.191 L 7.986 1.198 C 7.986 0.536 7.449 0 6.788 0 C 6.126 0 5.59 0.536 5.59 1.198 Z M 13.575 1.198 C 13.575 0.536 13.039 0 12.378 0 C 11.716 0 11.18 0.536 11.18 1.198 L 11.18 5.191 C 11.18 5.852 11.716 6.388 12.378 6.388 C 13.039 6.388 13.575 5.852 13.575 5.191 Z" fill="url(#OT3U90aQz-3276424321-linear-gradient)" height="6.388458666666667px" id="OT3U90aQz" transform="translate(5.407 1.305)" width="13.57546660970047px"/><path d="M 2.396 1.996 C 2.396 2.658 1.859 3.194 1.198 3.194 C 0.536 3.194 0 2.658 0 1.996 L 0 0 L 2.396 0 Z" fill="url(#JFn35DRxj-3276424321-linear-gradient)" height="3.194226666666667px" id="JFn35DRxj" transform="translate(5.407 4.504)" width="2.3956666666666324px"/><path d="M 2.396 1.996 C 2.396 2.658 1.859 3.194 1.198 3.194 C 0.536 3.194 0 2.658 0 1.996 L 0 0 L 2.396 0 Z" fill="url(#He3QeNxGl-3276424321-linear-gradient)" height="3.194226666666667px" id="He3QeNxGl" transform="translate(10.997 4.504)" width="2.395679999999933px"/><path d="M 1.198 3.194 C 1.859 3.194 2.396 2.658 2.396 1.996 L 2.396 0 L 0 0 L 0 1.996 C 0 2.658 0.536 3.194 1.198 3.194 Z" fill="url(#EknzcDohJ-3276424321-linear-gradient)" height="3.194226666666667px" id="EknzcDohJ" transform="translate(16.587 4.504)" width="2.3957333333332826px"/></svg>
