
<svg display="block" role="presentation" viewBox="0 0 24 24" xmlns="http://www.w3.org/2000/svg"><defs ><linearGradient id="Vobuolvgb-818063314-linear-gradient" x1="0.49751243781094523" x2="0.5024875621890548" y1="0" y2="1"><stop offset="0" stop-color="rgba(255, 255, 255, 0)"/><stop offset="1" stop-color="rgb(255, 255, 255)"/></linearGradient><linearGradient id="fs0LsiMbH-818063314-linear-gradient" x1="0.36409337376538453" x2="0.6359066262346155" y1="0" y2="1"><stop offset="0" stop-color="rgba(255, 255, 255, 0.8)"/><stop offset="1" stop-color="rgb(255, 255, 255)"/></linearGradient><linearGradient id="twX6Gjj2u-818063314-linear-gradient" x1="0.629372910628037" x2="0.370627089371963" y1="0" y2="1"><stop offset="0" stop-color="rgb(47, 35, 136)"/><stop offset="1" stop-color="rgb(44, 25, 186)"/></linearGradient></defs><path d="M 0 19.071 L 0 0 L 23.675 0 L 23.675 19.071 Z" fill="transparent" height="19.071388235294123px" id="HpHF0gboh" transform="translate(0.31 2.188)" width="23.67487058823538px"/><path d="M 2.455 0 C 1.099 0 0 1.147 0 2.561 L 0 11.525 C 0 12.94 1.099 14.086 2.455 14.086 L 17.183 14.086 C 18.539 14.086 19.638 12.94 19.638 11.525 L 19.638 2.561 C 19.638 1.147 18.539 0 17.183 0 Z" fill="url(#Vobuolvgb-818063314-linear-gradient)" height="14.086489411764706px" id="Vobuolvgb" transform="translate(2.34 6.707)" width="19.638028235294236px"/><path d="M 2.706 0 C 1.211 0 0 1.211 0 2.706 L 0 12.176 C 0 13.67 1.211 14.881 2.706 14.881 L 20.744 14.881 C 22.238 14.881 23.449 13.67 23.449 12.176 L 23.449 2.706 C 23.449 1.211 22.238 0 20.744 0 Z" fill="url(#fs0LsiMbH-818063314-linear-gradient)" height="14.88132141176471px" id="fs0LsiMbH" transform="translate(0.426 2.425)" width="23.449329882353013px"/><path d="M 8.974 0 C 9.472 0 9.876 0.404 9.876 0.902 L 9.876 1.398 C 10.361 1.497 10.789 1.751 11.105 2.104 C 11.299 2.321 11.452 2.575 11.551 2.856 C 11.717 3.326 11.471 3.841 11.001 4.007 C 10.532 4.173 10.017 3.927 9.851 3.457 C 9.831 3.402 9.801 3.351 9.761 3.307 C 9.677 3.214 9.558 3.157 9.425 3.157 L 8.378 3.157 C 8.209 3.157 8.072 3.294 8.072 3.462 C 8.072 3.606 8.172 3.73 8.312 3.761 L 9.907 4.11 C 10.942 4.336 11.68 5.254 11.68 6.313 C 11.68 7.403 10.905 8.314 9.876 8.523 L 9.876 9.019 C 9.876 9.517 9.472 9.921 8.974 9.921 C 8.476 9.921 8.072 9.517 8.072 9.019 L 8.072 8.523 C 7.291 8.365 6.657 7.802 6.397 7.065 C 6.231 6.595 6.477 6.08 6.947 5.914 C 7.416 5.748 7.932 5.994 8.098 6.464 C 8.16 6.64 8.328 6.764 8.523 6.764 L 8.957 6.764 L 8.974 6.764 L 8.991 6.764 L 9.425 6.764 C 9.674 6.764 9.876 6.562 9.876 6.313 C 9.876 6.101 9.728 5.917 9.521 5.872 L 7.927 5.523 C 6.959 5.311 6.268 4.454 6.268 3.462 C 6.268 2.401 7.052 1.523 8.072 1.375 L 8.072 0.902 C 8.072 0.404 8.476 0 8.974 0 Z M 2.706 4.96 C 2.706 5.708 2.1 6.313 1.353 6.313 C 0.606 6.313 0 5.708 0 4.96 C 0 4.213 0.606 3.608 1.353 3.608 C 2.1 3.608 2.706 4.213 2.706 4.96 Z M 15.242 4.96 C 15.242 4.213 15.848 3.608 16.595 3.608 C 17.342 3.608 17.948 4.213 17.948 4.96 C 17.948 5.708 17.342 6.313 16.595 6.313 C 15.848 6.313 15.242 5.708 15.242 4.96 Z" fill="url(#twX6Gjj2u-818063314-linear-gradient)" height="9.920894142628418px" id="twX6Gjj2u" transform="translate(3.167 4.898)" width="17.948244704123095px"/></svg>
