<svg width="240" height="34" viewBox="0 0 240 34" fill="none" xmlns="http://www.w3.org/2000/svg">
<g opacity="0.8" clip-path="url(#clip0_14192_1059)">
<path d="M35.9582 25.9233L25.9233 33.4495H4.18118L5.85366 29.2683L10.0348 25.9233H24.2509L26.7596 29.2683L33.4495 9.19861L37.6307 5.85366H41.8118L35.9582 25.9233ZM35.9582 4.18118L31.777 7.52613H17.561L15.0523 4.18118L8.36237 24.2509L4.18118 27.5958H0L5.85366 7.52613L15.8885 0H37.6307L35.9582 4.18118ZM20.0697 10.8711H29.2683L24.2509 25.9233L21.7422 22.5784H12.5436L17.561 7.52613L20.0697 10.8711Z" fill="black"/>
<path d="M56.3046 23.0532H65.4108L64.2749 28.4357H55.1686C50.6423 28.4357 47.7359 24.821 48.677 20.362L51.0436 9.14844H56.5073L54.1407 20.362C53.827 21.8484 54.7958 23.0532 56.3046 23.0532Z" fill="black"/>
<path d="M109.552 9.14844L107.186 20.362C106.245 24.821 101.812 28.4357 97.2863 28.4357H88.1797L89.3161 23.0532H98.4219C99.9305 23.0532 101.408 21.8484 101.722 20.362L102.953 14.531H95.2777C94.99 14.531 94.7082 14.7606 94.6488 15.0439C94.597 15.2884 94.7283 15.499 94.9607 15.547L102.349 17.0656L96.7402 21.6397L92.7756 20.825C90.0947 20.2738 88.592 17.8542 89.1848 15.0439C89.8722 11.7879 93.1085 9.14844 96.4133 9.14844H109.552Z" fill="black"/>
<path fill-rule="evenodd" clip-rule="evenodd" d="M123.668 9.14844C128.195 9.14844 131.101 12.7632 130.16 17.2222L129.497 20.362C128.572 24.746 124.273 28.3137 119.826 28.4325L120.961 23.0533L114.377 28.4238C110.104 28.1969 107.415 24.6745 108.326 20.362L108.988 17.2222C109.914 12.8328 114.224 9.26158 118.676 9.15111L118.887 9.14844H123.668ZM117.681 14.5319C116.197 14.5687 114.76 15.7591 114.452 17.2222L113.79 20.362C113.475 21.8484 114.444 23.0533 115.953 23.0533H120.734C122.242 23.0533 123.72 21.8484 124.033 20.362L124.697 17.2222C125.01 15.7359 124.041 14.531 122.532 14.531H117.752L117.681 14.5319Z" fill="black"/>
<path d="M134.394 28.4357H128.93L133 9.14844H138.464L134.394 28.4357Z" fill="black"/>
<path d="M152.197 9.14844C156.055 9.14844 158.532 12.2294 157.73 16.0299C157.038 19.3101 154.091 22.1342 150.69 22.7775L147.22 23.4339L143.542 18.8597L150.733 17.4997C151.474 17.3595 152.115 16.7443 152.266 16.0299C152.441 15.202 151.901 14.531 151.061 14.531H144.387L141.452 28.4357H135.988L140.059 9.14844H152.197Z" fill="black"/>
<path d="M178.548 9.14844L177.413 14.5309H164.604C164.385 14.531 164.172 14.7054 164.126 14.9206C164.086 15.1063 164.186 15.2663 164.363 15.3027L172.635 17.0034L172.757 17.0301C175.306 17.6172 176.723 19.955 176.152 22.6636C175.479 25.8514 172.31 28.4357 169.074 28.4357H160.363L156.035 23.0532H170.209C170.428 23.0531 170.642 22.8788 170.688 22.6636C170.724 22.4894 170.639 22.3378 170.483 22.2895L170.45 22.2815L162.178 20.5808C159.553 20.0412 158.081 17.672 158.663 14.9206C159.335 11.7327 162.503 9.14844 165.74 9.14844H178.548Z" fill="black"/>
<path d="M182.785 20.362C182.472 21.8484 183.44 23.0532 184.95 23.0532H192.461L195.397 9.14844H200.86L196.79 28.4357H191.326L192.461 23.0532L185.862 28.4357H183.813C179.287 28.4357 176.381 24.821 177.321 20.362L179.688 9.14844H185.152L182.785 20.362Z" fill="black"/>
<path d="M207.691 9.14844L206.555 14.531L213.154 9.14844H214.065C218.591 9.14844 221.498 12.7632 220.557 17.2222L218.19 28.4357H212.726L215.093 17.2222C215.407 15.7359 214.438 14.531 212.929 14.531H206.555L203.62 28.4357H198.156L202.227 9.14844H207.691Z" fill="black"/>
<path d="M228.178 9.14844C232.705 9.14844 235.611 12.7632 234.67 17.2222L232.303 28.4357H226.839L229.206 17.2222C229.52 15.7359 228.551 14.531 227.043 14.531H220.668L227.268 9.14844H228.178Z" fill="black"/>
<path fill-rule="evenodd" clip-rule="evenodd" d="M81.5512 9.14844C86.0773 9.14844 88.984 12.7632 88.0433 17.2221L87.3801 20.362C86.4394 24.8209 82.0071 28.4358 77.4808 28.4358H72.7C68.1736 28.4358 65.2671 24.821 66.2082 20.362L66.8709 17.2221C67.7661 12.9809 71.8196 9.50375 76.1083 9.17419L80.4154 14.531L81.5512 9.14844ZM75.5639 14.5319C74.08 14.5687 72.6435 15.7591 72.3347 17.2221L71.6719 20.362C71.3583 21.8483 72.3271 23.0533 73.8358 23.0533H78.6166C80.1254 23.0533 81.6028 21.8483 81.9165 20.362L82.5792 17.2221C82.8929 15.7358 81.9241 14.531 80.4154 14.531H75.6346L75.5639 14.5319Z" fill="black"/>
<path d="M239.999 7.767C239.999 9.28654 238.776 10.5184 237.267 10.5184C235.759 10.5184 234.535 9.28654 234.535 7.767C234.535 6.24746 235.759 5.01562 237.267 5.01562C238.776 5.01562 239.999 6.24746 239.999 7.767Z" fill="black"/>
</g>
<defs>
<clipPath id="clip0_14192_1059">
<rect width="240" height="33.4495" fill="white"/>
</clipPath>
</defs>
</svg>
