<svg width="286" height="40" viewBox="0 0 286 40" fill="none" xmlns="http://www.w3.org/2000/svg">
<g clip-path="url(#clip0_14231_7117)">
<path d="M286 7.5C286 8.88071 284.881 10 283.5 10C282.119 10 281 8.88071 281 7.5C281 6.11929 282.119 5 283.5 5C284.881 5 286 6.11929 286 7.5Z" fill="black"/>
<path d="M213.976 23.4316C214.064 23.0165 213.869 22.6486 213.493 22.5194L199.502 17.7155C197.614 17.0672 196.636 15.2203 197.08 13.1377C197.646 10.4772 200.313 8.32031 203.037 8.32031H221.142L220.321 12.1775H202.216C201.673 12.1775 201.142 12.6074 201.029 13.1377C200.941 13.5527 201.135 13.9206 201.512 14.0499L215.503 18.8537C217.391 19.5021 218.368 21.3489 217.925 23.4316C217.359 26.0921 214.691 28.2489 211.967 28.2489H193.863L194.684 24.3918H212.788C213.331 24.3918 213.863 23.9618 213.976 23.4316Z" fill="black"/>
<path d="M170.531 8L166.255 28.0893H162.305L166.582 8H170.531Z" fill="black"/>
<path d="M275.181 8C278.453 8 280.553 10.5904 279.873 13.7857L276.863 27.9286H272.913L275.924 13.7857C276.151 12.7206 275.45 11.8571 274.36 11.8571H267.12L263.699 27.9286H259.75L263.171 11.8571H253.956L250.535 27.9286H246.586L250.007 11.8571H253.956L254.777 8H275.181Z" fill="black"/>
<path fill-rule="evenodd" clip-rule="evenodd" d="M105.628 8.32031C108.9 8.32031 111.001 10.9107 110.321 14.106L108.131 24.3918H104.182L103.361 28.2489H88.2223C85.0019 28.2489 82.916 25.7389 83.5004 22.6126L83.5303 22.4632L85.7198 12.1775H89.6689L90.4899 8.32031H105.628ZM87.4794 22.4632L87.4608 22.5624C87.2968 23.5814 87.9869 24.3918 89.0434 24.3918H104.182L106.371 14.106C106.598 13.0409 105.898 12.1775 104.807 12.1775H89.6689L87.4794 22.4632Z" fill="black"/>
<path fill-rule="evenodd" clip-rule="evenodd" d="M158.284 8.32031C161.556 8.32031 163.656 10.9107 162.976 14.106L160.788 24.3918H156.838L156.017 28.2489H140.879C137.659 28.2489 135.573 25.7389 136.157 22.6126L136.187 22.4632L138.377 12.1775H142.325L143.146 8.32031H158.284ZM140.135 22.4632L140.118 22.5624C139.954 23.5814 140.644 24.3918 141.7 24.3918H156.838L159.027 14.106C159.254 13.0409 158.554 12.1775 157.463 12.1775H142.325L140.135 22.4632Z" fill="black"/>
<path d="M177.865 12.1775C176.774 12.1775 175.706 13.0409 175.48 14.106L171.101 34.6775H167.152L171.531 14.106C172.211 10.9107 175.414 8.32031 178.686 8.32031H191.849L191.028 12.1775H194.977L192.788 22.4632C192.108 25.6585 188.904 28.2489 185.633 28.2489H176.418L177.239 24.3918H186.454C187.544 24.3918 188.612 23.5283 188.839 22.4632L191.028 12.1775H177.865Z" fill="black"/>
<path d="M115.272 20.2121C115.046 21.2772 115.746 22.1407 116.836 22.1407H126.051L125.23 25.9978H116.015C112.744 25.9978 110.643 23.4074 111.323 20.2121L112.965 12.4978H116.914L117.735 8.64062H130.899C134.171 8.64062 136.271 11.231 135.591 14.4264L132.444 29.2121C131.764 32.4074 128.56 34.9978 125.288 34.9978H112.618L113.44 31.1407H126.11C127.2 31.1407 128.268 30.2772 128.495 29.2121L131.642 14.4264C131.869 13.3613 131.169 12.4978 130.078 12.4978H116.914L115.272 20.2121Z" fill="black"/>
<path d="M65.077 22.4632L68.0876 8.32031H64.1385L61.1279 22.4632C60.4477 25.6585 62.5484 28.2489 65.8199 28.2489H79.9963L80.8174 24.3918H66.641C65.5505 24.3918 64.8503 23.5283 65.077 22.4632Z" fill="black"/>
<path d="M224.315 22.7835L224.297 22.8827C224.133 23.9017 224.823 24.7121 225.879 24.7121H241.018L244.439 8.64062H248.388L244.967 24.7121H241.018L240.197 28.5692H225.058C221.838 28.5692 219.752 26.0592 220.336 22.9329L220.366 22.7835L223.377 8.64062H227.326L224.315 22.7835Z" fill="black"/>
<path fill-rule="evenodd" clip-rule="evenodd" d="M17 0C17.5523 0 18 0.447715 18 1V8.39648C18 8.61918 18.2693 8.7307 18.4268 8.57324L26.4141 0.585938C26.7891 0.210936 27.2978 7.97938e-05 27.8281 0H36.5859C36.8511 4.04019e-05 37.1055 0.105468 37.293 0.292969L40.293 3.29297C40.6834 3.68347 40.6834 4.31653 40.293 4.70703L36.4268 8.57324C36.2693 8.73073 36.3808 8.99997 36.6035 9H44.5859C44.8511 9.00004 45.1055 9.10547 45.293 9.29297L48.293 12.293C48.6834 12.6835 48.6834 13.3165 48.293 13.707L44.3535 17.6465C44.1583 17.8417 44.1583 18.1583 44.3535 18.3535L47.5859 21.5859C48.4914 22.4914 49 23.7195 49 25C49 26.2805 48.4913 27.5086 47.5859 28.4141L36.5859 39.4141C36.2109 39.7891 35.7022 39.9999 35.1719 40H32C31.4477 40 31 39.5523 31 39V31.6035C31 31.3808 30.7307 31.2693 30.5732 31.4268L22.5859 39.4141C22.2109 39.7891 21.7022 39.9999 21.1719 40H12.4141C12.1489 40 11.8945 39.8945 11.707 39.707L8.70703 36.707C8.31661 36.3165 8.31661 35.6835 8.70703 35.293L12.5732 31.4268C12.7307 31.2693 12.6192 31 12.3965 31H4.41406C4.1489 31 3.89453 30.8945 3.70703 30.707L0.707031 27.707C0.316606 27.3165 0.316607 26.6835 0.707031 26.293L4.64648 22.3535C4.8417 22.1583 4.8417 21.8417 4.64648 21.6465L1.41406 18.4141C0.508652 17.5086 0 16.2805 0 15C0 13.7195 0.508651 12.4914 1.41406 11.5859L12.4141 0.585938C12.7891 0.210936 13.2978 8.00463e-05 13.8281 0H17ZM20.0713 9C18.7452 9 17.4728 9.52716 16.5352 10.4648L5.85352 21.1465C5.53861 21.4615 5.76165 21.9999 6.20703 22H20.793C21.2383 22.0001 21.4613 22.5386 21.1465 22.8535L13.8535 30.1465C13.5386 30.4615 13.7616 30.9999 14.207 31H28.9287C30.2548 31 31.5272 30.4728 32.4648 29.5352L43.1465 18.8535C43.4417 18.5583 43.2642 18.0663 42.874 18.0059L42.793 18H28.207C27.7616 18 27.5386 17.4615 27.8535 17.1465L35.1465 9.85352C35.4614 9.53855 35.2384 9.00006 34.793 9H20.0713Z" fill="black"/>
</g>
<defs>
<clipPath id="clip0_14231_7117">
<rect width="286" height="40" fill="white"/>
</clipPath>
</defs>
</svg>
