<svg width="123" height="32" viewBox="0 0 123 32" fill="none" xmlns="http://www.w3.org/2000/svg">
<path fill-rule="evenodd" clip-rule="evenodd" d="M62.4237 23.6014C62.4237 23.7703 62.2867 23.9073 62.1178 23.9073H60.3451C60.1762 23.9073 60.0392 23.7703 60.0392 23.6014V22.6474C59.7 23.0344 59.2933 23.3576 58.8165 23.6126C58.1431 23.9653 57.3681 24.1401 56.497 24.1401C55.4658 24.1401 54.5264 23.8863 53.6825 23.3767C52.8408 22.8526 52.1724 22.1439 51.6809 21.256C51.2043 20.3662 50.9663 19.3652 50.9663 18.2598C50.9663 17.1546 51.2029 16.1556 51.6794 15.2659C52.1706 14.3788 52.831 13.6694 53.657 13.1452C54.5015 12.6195 55.4499 12.3571 56.497 12.3571C57.3522 12.3571 58.1177 12.539 58.7902 12.9062C59.2734 13.1535 59.6897 13.4738 60.0392 13.8637V12.895C60.0392 12.7261 60.1762 12.5891 60.3451 12.5891H62.1178C62.2867 12.5891 62.4237 12.7261 62.4237 12.895V23.6014ZM56.8458 21.8949C57.8515 21.8949 58.6518 21.5589 59.2596 20.8917C59.8697 20.2067 60.1784 19.3329 60.1784 18.2598C60.1784 17.5173 60.0349 16.8804 59.7523 16.3448C59.4841 15.7937 59.0964 15.368 58.5929 15.0718C58.0893 14.7607 57.499 14.6016 56.8226 14.6016C56.147 14.6016 55.5509 14.7581 55.0314 15.0695C54.525 15.3822 54.1222 15.8152 53.8225 16.3696C53.54 16.9055 53.3972 17.5267 53.3972 18.2366C53.3972 18.9614 53.5402 19.5979 53.8225 20.1493L53.9393 20.3457C54.2252 20.7918 54.5965 21.151 55.0538 21.4254C55.5737 21.7373 56.1696 21.8948 56.8458 21.8949Z" fill="#737373"/>
<path fill-rule="evenodd" clip-rule="evenodd" d="M72.1351 23.6012C72.1351 23.7701 71.9981 23.9071 71.8292 23.9071H70.0797C69.9108 23.9071 69.7739 23.7701 69.7739 23.6012V8.39664C69.7739 8.22771 69.9108 8.09076 70.0797 8.09076L71.8292 8.0908C71.9981 8.0908 72.1351 8.22775 72.1351 8.39668V23.6012Z" fill="#737373"/>
<path fill-rule="evenodd" clip-rule="evenodd" d="M64.9113 23.601C64.9113 23.77 65.0483 23.9069 65.2172 23.9069H66.9667C67.1356 23.9069 67.2726 23.77 67.2726 23.601V12.8946C67.2726 12.7257 67.1356 12.5888 66.9667 12.5888H65.2172C65.0483 12.5888 64.9113 12.7257 64.9113 12.8946V23.601Z" fill="#737373"/>
<path fill-rule="evenodd" clip-rule="evenodd" d="M67.1434 10.2322C67.4166 9.94187 67.5518 9.58246 67.5518 9.16333C67.5518 8.75803 67.4152 8.41265 67.1403 8.13778C66.8655 7.84742 66.5124 7.7032 66.0924 7.70312C65.6722 7.70312 65.3186 7.84729 65.0436 8.13778C64.7688 8.41265 64.6322 8.75803 64.6322 9.16333C64.6322 9.58243 64.7704 9.94498 65.0436 10.2353C65.3195 10.5112 65.6734 10.646 66.0924 10.646C66.5113 10.6459 66.8675 10.5079 67.1434 10.2322Z" fill="#737373"/>
<path fill-rule="evenodd" clip-rule="evenodd" d="M81.9618 25.6294C81.3415 26.2055 80.4859 26.5011 79.3779 26.5011C78.541 26.5011 77.8226 26.3476 77.2247 26.0486C76.6243 25.7634 76.1055 25.3426 75.6678 24.7841C75.6177 24.7208 75.5234 24.7158 75.4667 24.7733L74.1179 26.1461C74.0729 26.1916 74.0665 26.2631 74.1032 26.3155C74.6443 27.0952 75.3609 27.7 76.2494 28.1284C77.1539 28.5569 78.1826 28.7695 79.3315 28.7695C80.4968 28.7695 81.5261 28.5401 82.4166 28.0789C83.3202 27.619 84.022 26.9837 84.5164 26.1708C85.0277 25.356 85.2813 24.4079 85.2813 23.3316V12.5883C85.2813 12.4193 85.1444 12.2824 84.9755 12.2824L83.226 12.2823C83.0571 12.2823 82.9201 12.4192 82.9201 12.5882V13.827C82.5805 13.4429 82.1726 13.127 81.695 12.8826C81.0066 12.5305 80.2176 12.3568 79.3315 12.3567C78.3004 12.3567 77.3682 12.6101 76.5394 13.1201C75.7282 13.6132 75.0843 14.2897 74.6082 15.1465L74.5216 15.3058C74.1017 16.1111 73.8928 17.0196 73.8928 18.0274C73.8929 19.1023 74.1314 20.0791 74.6082 20.9533C75.0844 21.8103 75.7296 22.4879 76.541 22.9812C77.3697 23.4752 78.3012 23.7214 79.3315 23.7214C80.2025 23.7214 80.9837 23.5467 81.6718 23.1947C82.1602 22.9448 82.5758 22.6241 82.9201 22.2356V23.3316C82.9201 24.307 82.596 25.069 81.9618 25.6294ZM81.4746 21.0523C80.9861 21.3335 80.4125 21.4761 79.7499 21.4761C79.0713 21.4761 78.4733 21.3327 77.9525 21.05C77.4484 20.7525 77.0478 20.3447 76.7498 19.8241C76.4672 19.3034 76.3245 18.7057 76.3244 18.0274C76.3244 17.3489 76.4664 16.7584 76.7483 16.254C77.0468 15.732 77.4514 15.3305 77.9563 15.0482C78.4603 14.7517 79.0492 14.6012 79.7267 14.6012C80.4043 14.6012 80.987 14.7534 81.4746 15.049C81.9633 15.3304 82.3429 15.734 82.6107 16.2548C82.8924 16.7588 83.0361 17.3559 83.0361 18.0506C83.0361 18.7456 82.9005 19.3515 82.6332 19.8721C82.3662 20.3763 81.9796 20.77 81.4746 21.0523Z" fill="#737373"/>
<path d="M90.1313 13.6C90.8097 12.7686 91.7711 12.3572 92.9984 12.3571C93.5715 12.3571 94.0933 12.4605 94.5615 12.6696C95.0342 12.8653 95.4701 13.1975 95.8685 13.6595C95.9136 13.7117 95.911 13.7901 95.8631 13.8397L94.4902 15.2588C94.4372 15.3136 94.3492 15.313 94.2969 15.2574C94.0761 15.0219 93.8366 14.8559 93.5784 14.7555C93.318 14.6542 93.0091 14.6016 92.6496 14.6016C91.9056 14.6016 91.3052 14.8385 90.8367 15.3069C90.3747 15.7689 90.1313 16.4811 90.1313 17.4694V23.6013C90.1313 23.7703 89.9944 23.9072 89.8255 23.9072H88.076C87.9071 23.9072 87.7701 23.7703 87.7701 23.6013V12.5907C87.7701 12.4218 87.907 12.2849 88.076 12.2849L89.8254 12.2847C89.9944 12.2847 90.1313 12.4216 90.1313 12.5906V13.6Z" fill="#737373"/>
<path fill-rule="evenodd" clip-rule="evenodd" d="M96.8149 23.6017C96.8149 23.7707 96.9518 23.9076 97.1208 23.9076H98.8703C99.0392 23.9076 99.1761 23.7707 99.1761 23.6017V12.8953C99.1761 12.7264 99.0392 12.5895 98.8703 12.5895H97.1208C96.9518 12.5895 96.8149 12.7264 96.8149 12.8953V23.6017Z" fill="#737373"/>
<path fill-rule="evenodd" clip-rule="evenodd" d="M99.0462 10.2327C99.3194 9.94236 99.4553 9.58294 99.4553 9.16382C99.4553 8.75852 99.3179 8.41315 99.0431 8.13828C98.7682 7.84798 98.4152 7.70362 97.9951 7.70362C97.5751 7.70364 97.222 7.84793 96.9471 8.13828C96.6723 8.41314 96.5357 8.75852 96.5357 9.16382C96.5357 9.58295 96.6739 9.94547 96.9471 10.2358C97.2231 10.5115 97.5762 10.6464 97.9951 10.6465C98.4142 10.6465 98.7702 10.5086 99.0462 10.2327Z" fill="#737373"/>
<path fill-rule="evenodd" clip-rule="evenodd" d="M110.052 23.6012C110.052 23.7702 110.189 23.9071 110.358 23.9071H112.13C112.299 23.9071 112.436 23.7702 112.436 23.6012V8.39747C112.436 8.22854 112.299 8.09159 112.13 8.09159L110.358 8.09157C110.189 8.09157 110.052 8.22851 110.052 8.39744V13.8891C109.698 13.4874 109.273 13.1587 108.78 12.9061C108.092 12.5392 107.327 12.357 106.486 12.357C105.439 12.357 104.499 12.6187 103.67 13.1451C102.844 13.6693 102.183 14.3786 101.692 15.2658C101.216 16.1555 100.979 17.1545 100.979 18.2597C100.979 19.365 101.217 20.366 101.694 21.2559C102.185 22.1432 102.845 22.8515 103.671 23.3758C104.501 23.886 105.44 24.1399 106.486 24.1399C107.343 24.1399 108.118 23.9643 108.806 23.6125C109.288 23.3544 109.703 23.027 110.052 22.6341V23.6012ZM108.579 21.4276C108.091 21.7376 107.512 21.8947 106.835 21.8947C106.159 21.8947 105.562 21.7372 105.042 21.4252C104.6 21.1513 104.236 20.7922 103.952 20.3463L103.835 20.1491C103.553 19.5977 103.41 18.9613 103.41 18.2364C103.41 17.5266 103.553 16.9054 103.835 16.3694C104.135 15.815 104.538 15.3828 105.045 15.0701C105.548 14.7591 106.136 14.6014 106.812 14.6014C107.489 14.6014 108.069 14.76 108.556 15.0701C109.063 15.383 109.459 15.8093 109.743 16.347C110.04 16.882 110.191 17.5182 110.191 18.2597C110.191 18.9695 110.048 19.5992 109.765 20.1514C109.481 20.6891 109.085 21.1146 108.579 21.4276Z" fill="#737373"/>
<path fill-rule="evenodd" clip-rule="evenodd" d="M120.214 14.9271C120.474 15.0674 120.706 15.2408 120.911 15.4471L120.939 15.4758C120.984 15.5238 121.057 15.5316 121.111 15.494L122.702 14.3797C122.751 14.345 122.763 14.2764 122.728 14.2272L122.703 14.1925C122.258 13.5854 121.688 13.1314 120.996 12.8327C120.31 12.5142 119.523 12.357 118.641 12.357C117.805 12.3571 117.079 12.4915 116.468 12.7646C115.873 13.0378 115.404 13.4331 115.064 13.9511C114.721 14.4571 114.552 15.0582 114.552 15.7477C114.552 16.4321 114.698 16.9991 114.997 17.4314C115.304 17.8516 115.692 18.1833 116.16 18.4252C116.256 18.475 116.354 18.523 116.452 18.5693C116.506 18.5944 116.559 18.619 116.613 18.6431C116.933 18.7857 117.265 18.9106 117.605 19.0169C117.726 19.0498 117.844 19.0832 117.962 19.117C118.022 19.1342 118.081 19.1515 118.14 19.169L118.15 19.172C118.461 19.2643 118.759 19.3598 119.043 19.4578C119.481 19.5936 119.835 19.7775 120.097 19.9961C120.353 20.1852 120.484 20.4533 120.484 20.819C120.484 21.1729 120.333 21.4495 120.013 21.6589C119.686 21.8579 119.21 21.9652 118.571 21.9652C118.015 21.9652 117.509 21.878 117.05 21.7061L116.857 21.6272C116.459 21.4393 116.096 21.1772 115.769 20.8395C115.707 20.7761 115.609 20.7645 115.537 20.815L113.977 21.904C113.923 21.9412 113.913 22.0159 113.954 22.0665L113.976 22.0943C114.322 22.5122 114.73 22.8783 115.196 23.1887C115.671 23.4898 116.191 23.7286 116.744 23.9026C117.315 24.0611 117.916 24.14 118.548 24.14C119.81 24.14 120.828 23.8313 121.587 23.2011C122.365 22.5687 122.753 21.7082 122.753 20.6333C122.753 19.9324 122.601 19.3517 122.286 18.904C121.995 18.4686 121.615 18.1214 121.148 17.8638C120.93 17.7437 120.707 17.6361 120.479 17.5409C120.423 17.5175 120.367 17.4948 120.31 17.4729C120.206 17.433 120.102 17.3955 119.996 17.3606C119.951 17.3457 119.906 17.3314 119.861 17.3175C119.809 17.3015 119.757 17.2861 119.704 17.2713C119.438 17.1882 119.176 17.1073 118.919 17.0286L118.733 16.972C118.574 16.9234 118.416 16.8757 118.26 16.8289C117.82 16.6923 117.47 16.5275 117.207 16.337C116.966 16.1628 116.844 15.9178 116.844 15.5845C116.844 15.2573 116.976 15.0126 117.248 14.8358C117.542 14.6393 117.979 14.5319 118.571 14.5319C119.128 14.5319 119.619 14.6372 120.048 14.8443L120.214 14.9271Z" fill="#737373"/>
<path fill-rule="evenodd" clip-rule="evenodd" d="M53.0986 9.96829C53.0986 10.1372 52.9617 10.2742 52.7928 10.2742H47.8291V23.6017C47.8291 23.7707 47.6921 23.9076 47.5232 23.9076H45.7697C45.6007 23.9076 45.4638 23.7707 45.4638 23.6017V10.2742H40.4778C40.3088 10.2742 40.1719 10.1372 40.1719 9.96829V8.39365C40.1719 8.22472 40.3088 8.08777 40.4778 8.08777H52.7928C52.9617 8.08777 53.0986 8.22472 53.0986 8.39365V9.96829Z" fill="#737373"/>
<path d="M0 2.4C0 1.07452 1.07452 0 2.4 0H29.6C30.9255 0 32 1.07452 32 2.4V29.6C32 30.9255 30.9255 32 29.6 32H2.4C1.07452 32 0 30.9255 0 29.6V2.4Z" fill="#737373"/>
<path d="M24.7836 11.0746C24.7836 11.3686 24.5453 11.6069 24.2512 11.6069L16.33 11.6069C16.1182 11.6069 15.9151 11.6911 15.7653 11.8408L11.8409 15.7651C11.6912 15.9149 11.607 16.118 11.607 16.3298L11.607 24.2508C11.607 24.5449 11.3687 24.7832 11.0746 24.7832L7.74723 24.7832C7.4532 24.7832 7.21484 24.5449 7.21484 24.2508L7.21484 14.5105C7.21484 14.2987 7.29898 14.0956 7.44875 13.9458L13.9461 7.44873C14.0959 7.29898 14.299 7.21484 14.5108 7.21484L24.2512 7.21484C24.5453 7.21484 24.7836 7.4532 24.7836 7.74722L24.7836 11.0746Z" fill="white"/>
<path d="M24.7836 15.999L24.7836 22.8927C24.7836 23.1177 24.6887 23.3323 24.5222 23.4836L23.9784 23.978L23.3289 24.5733C23.1816 24.7083 22.9891 24.7832 22.7893 24.7832L20.9238 24.7832C20.6298 24.7832 20.3914 24.5449 20.3914 24.2508L20.3914 20.3911L16.5316 20.3911C16.2376 20.3911 15.9992 20.1528 15.9992 19.8587L15.9992 17.8727C15.9992 17.6623 16.0823 17.4604 16.2303 17.3109L16.8045 16.731L17.3026 16.2329C17.4524 16.0832 17.6555 15.999 17.8673 15.999L24.7836 15.999Z" fill="white"/>
</svg>
