<svg width="140" height="37" viewBox="0 0 140 37" fill="none" xmlns="http://www.w3.org/2000/svg">
<g clip-path="url(#clip0_17145_5143)">
<g clip-path="url(#clip1_17145_5143)">
<g opacity="0.7">
<path d="M108.097 26.7798C107.85 26.7798 107.647 26.6958 107.489 26.5277C107.331 26.3596 107.252 26.157 107.252 25.9196C107.252 25.6823 107.331 25.4845 107.489 25.3264C107.647 25.1582 107.85 25.0742 108.097 25.0742C108.335 25.0742 108.532 25.1582 108.69 25.3264C108.848 25.4845 108.927 25.6823 108.927 25.9196C108.927 26.157 108.848 26.3596 108.69 26.5277C108.532 26.6958 108.335 26.7798 108.097 26.7798Z" fill="#737373"/>
<path d="M110.805 26.6307V19.6601H111.843V26.6307H110.805ZM111.843 22.567L111.413 22.3742C111.413 21.4942 111.625 20.7971 112.051 20.2829C112.485 19.7688 113.079 19.5117 113.83 19.5117C114.176 19.5117 114.493 19.5759 114.779 19.7045C115.066 19.8232 115.333 20.016 115.581 20.2829L114.898 21.0096C114.73 20.8218 114.542 20.6883 114.334 20.6092C114.136 20.5301 113.91 20.4906 113.652 20.4906C113.118 20.4906 112.683 20.6686 112.347 21.0245C112.011 21.3705 111.843 21.8847 111.843 22.567Z" fill="#737373"/>
<path d="M119.443 26.7792C118.879 26.7792 118.375 26.6506 117.93 26.3936C117.485 26.1266 117.134 25.7657 116.877 25.3109C116.629 24.856 116.506 24.3221 116.506 23.7091V19.6602H117.559V23.6646C117.559 24.0897 117.633 24.4605 117.782 24.777C117.94 25.0934 118.162 25.3405 118.449 25.5185C118.736 25.6965 119.067 25.7855 119.443 25.7855C120.026 25.7855 120.486 25.5927 120.822 25.207C121.168 24.8215 121.341 24.3073 121.341 23.6646V19.6602H122.379V23.7091C122.379 24.3123 122.256 24.8461 122.008 25.3109C121.761 25.7756 121.416 26.1365 120.971 26.3936C120.526 26.6506 120.016 26.7792 119.443 26.7792Z" fill="#737373"/>
<path d="M129.391 26.6307V22.5373C129.391 21.9242 129.208 21.4299 128.842 21.0541C128.486 20.6686 128.011 20.4757 127.418 20.4757C127.013 20.4757 126.657 20.5647 126.35 20.7427C126.043 20.9207 125.802 21.1629 125.624 21.4694C125.445 21.776 125.357 22.127 125.357 22.5224L124.881 22.2555C124.881 21.7315 125.006 21.2618 125.252 20.8465C125.5 20.4313 125.831 20.105 126.247 19.8676C126.672 19.6303 127.156 19.5117 127.699 19.5117C128.234 19.5117 128.708 19.6402 129.124 19.8973C129.539 20.1544 129.861 20.5004 130.087 20.9355C130.325 21.3705 130.444 21.8452 130.444 22.3593V26.6307H129.391ZM124.318 26.6307V19.6601H125.357V26.6307H124.318Z" fill="#737373"/>
</g>
<path d="M47.6263 26.7773C46.2439 26.7773 45.0522 26.5548 44.0512 26.1099C43.0659 25.6491 42.1603 24.9578 41.334 24.0363L43.7651 21.629C44.3053 22.2487 44.9012 22.7333 45.5527 23.0829C46.2201 23.4166 46.9907 23.5834 47.8646 23.5834C48.6591 23.5834 49.2709 23.4405 49.6999 23.1544C50.1448 22.8684 50.3672 22.4711 50.3672 21.9627C50.3672 21.5019 50.2243 21.1285 49.9382 20.8424C49.6522 20.5564 49.2709 20.3102 48.7942 20.1036C48.3334 19.897 47.817 19.6984 47.2449 19.5077C46.6888 19.317 46.1327 19.1026 45.5765 18.8642C45.0204 18.61 44.504 18.3001 44.0273 17.9347C43.5664 17.5533 43.1931 17.0846 42.9071 16.5284C42.621 15.9564 42.4781 15.2413 42.4781 14.3833C42.4781 13.3505 42.7243 12.4606 43.2169 11.7139C43.7254 10.9671 44.4245 10.4029 45.3144 10.0216C46.2042 9.62434 47.229 9.42578 48.389 9.42578C49.5648 9.42578 50.6374 9.63233 51.6066 10.0454C52.5918 10.4585 53.4022 11.0227 54.0377 11.7377L51.6066 14.145C51.0982 13.6206 50.5818 13.2313 50.0574 12.9771C49.5489 12.7228 48.969 12.5958 48.3175 12.5958C47.6661 12.5958 47.1496 12.7228 46.7682 12.9771C46.3869 13.2154 46.1962 13.565 46.1962 14.0258C46.1962 14.4548 46.3392 14.8044 46.6252 15.0745C46.9113 15.3288 47.2847 15.5512 47.7455 15.7419C48.2222 15.9326 48.7386 16.1232 49.2948 16.3139C49.8667 16.5045 50.4308 16.727 50.987 16.9813C51.5431 17.2355 52.0515 17.5612 52.5124 17.9585C52.9891 18.3398 53.3704 18.8324 53.6564 19.4363C53.9424 20.0241 54.0854 20.7551 54.0854 21.629C54.0854 23.2338 53.5134 24.4971 52.3693 25.4187C51.2253 26.3244 49.6442 26.7773 47.6263 26.7773Z" fill="#737373"/>
<path d="M57.5418 26.5149V12.1268L61.1884 10.1406V26.5149H57.5418ZM54.9199 18.0299V14.9314H63.8102V18.0299H54.9199Z" fill="#737373"/>
<path d="M69.7839 26.7555C68.7194 26.7555 67.7659 26.4933 66.9238 25.969C66.0975 25.4447 65.4382 24.7296 64.9455 23.8239C64.4688 22.9182 64.2305 21.8854 64.2305 20.7254C64.2305 19.5654 64.4688 18.5327 64.9455 17.6269C65.4382 16.7212 66.0975 16.0061 66.9238 15.4818C67.7659 14.9575 68.7194 14.6953 69.7839 14.6953C70.5625 14.6953 71.2617 14.8463 71.8814 15.1481C72.5169 15.45 73.0334 15.8711 73.4306 16.4113C73.8278 16.9358 74.0503 17.5395 74.098 18.2228V23.228C74.0503 23.9113 73.8278 24.5231 73.4306 25.0633C73.0493 25.5876 72.5408 26.0008 71.9052 26.3027C71.2696 26.6046 70.5625 26.7555 69.7839 26.7555ZM70.5228 23.4664C71.3014 23.4664 71.9291 23.2121 72.4057 22.7037C72.8824 22.1793 73.1208 21.5199 73.1208 20.7254C73.1208 20.1852 73.0095 19.7085 72.7871 19.2954C72.5805 18.8822 72.2787 18.5644 71.8814 18.3419C71.5001 18.1037 71.0552 17.9844 70.5466 17.9844C70.0382 17.9844 69.5853 18.1037 69.1881 18.3419C68.8067 18.5644 68.4969 18.8822 68.2586 19.2954C68.0361 19.7085 67.9249 20.1852 67.9249 20.7254C67.9249 21.2497 68.0361 21.7186 68.2586 22.1317C68.481 22.5448 68.7908 22.8705 69.1881 23.1089C69.5853 23.3472 70.0302 23.4664 70.5228 23.4664ZM72.9777 26.5172V23.3949L73.526 20.5824L72.9777 17.77V14.9337H76.5529V26.5172H72.9777Z" fill="#737373"/>
<path d="M80.5261 26.5149V12.1268L84.1728 10.1406V26.5149H80.5261ZM77.9043 18.0299V14.9314H86.7946V18.0299H77.9043Z" fill="#737373"/>
<path d="M88.1649 26.5167V14.9332H91.8119V26.5167H88.1649ZM90.0001 13.3362C89.4283 13.3362 88.9513 13.1455 88.5698 12.7642C88.2048 12.3669 88.0215 11.8902 88.0215 11.3341C88.0215 10.7621 88.2048 10.2854 88.5698 9.90404C88.9513 9.52273 89.4283 9.33203 90.0001 9.33203C90.5719 9.33203 91.0411 9.52273 91.4061 9.90404C91.7719 10.2854 91.9544 10.7621 91.9544 11.3341C91.9544 11.8902 91.7719 12.3669 91.4061 12.7642C91.0411 13.1455 90.5719 13.3362 90.0001 13.3362Z" fill="#737373"/>
<path d="M99.7404 26.7799C98.549 26.7799 97.468 26.5176 96.4991 25.9933C95.5294 25.4689 94.7673 24.746 94.2112 23.8243C93.655 22.9027 93.377 21.87 93.377 20.7259C93.377 19.5659 93.655 18.5331 94.2112 17.6274C94.7829 16.7058 95.5537 15.9828 96.5226 15.4585C97.4924 14.9341 98.5803 14.6719 99.7882 14.6719C100.694 14.6719 101.52 14.8308 102.267 15.1486C103.029 15.4505 103.705 15.9113 104.293 16.531L101.957 18.8668C101.687 18.5648 101.369 18.3424 101.004 18.1994C100.655 18.0564 100.249 17.9849 99.7882 17.9849C99.2642 17.9849 98.795 18.1041 98.3822 18.3424C97.9851 18.5648 97.667 18.8827 97.4289 19.2958C97.2065 19.693 97.0953 20.1618 97.0953 20.7021C97.0953 21.2423 97.2065 21.719 97.4289 22.1321C97.667 22.5452 97.9929 22.871 98.4057 23.1094C98.8193 23.3476 99.2798 23.4668 99.7882 23.4668C100.265 23.4668 100.686 23.3874 101.052 23.2285C101.433 23.0537 101.758 22.8154 102.028 22.5134L104.341 24.8492C103.737 25.4848 103.054 25.9695 102.291 26.3032C101.528 26.6209 100.678 26.7799 99.7404 26.7799Z" fill="#737373"/>
<path d="M9.49675 4.15234C7.70009 4.15234 6.04698 5.13388 5.18692 6.71131L0 16.2246H9.05497C9.51865 16.2246 9.96547 16.0508 10.3073 15.7377L20.5797 6.32489L16.4655 14.8967C16.1702 15.512 16.6187 16.2246 17.3012 16.2246H24.0776C27.4112 16.2246 30.1136 13.5221 30.1136 10.1885C30.1136 6.85482 27.4112 4.15234 24.0776 4.15234H9.49675Z" fill="#737373"/>
<path d="M22.5681 31.959C24.3647 31.959 26.0178 30.9775 26.8779 29.4001L32.0648 19.8867H23.0099C22.5462 19.8867 22.0994 20.0605 21.7575 20.3737L11.4852 29.7864L15.5993 21.2147C15.8946 20.5994 15.4462 19.8867 14.7637 19.8867H7.98731C4.65365 19.8867 1.95117 22.5892 1.95117 25.9228C1.95117 29.2565 4.65365 31.959 7.98731 31.959H22.5681Z" fill="#737373"/>
</g>
</g>
<defs>
<clipPath id="clip0_17145_5143">
<rect width="139.034" height="36.1129" fill="white"/>
</clipPath>
<clipPath id="clip1_17145_5143">
<rect width="133.821" height="34.7586" fill="white" transform="translate(0 0.675781)"/>
</clipPath>
</defs>
</svg>
