<svg width="125" height="29" viewBox="0 0 125 29" fill="none" xmlns="http://www.w3.org/2000/svg">
<path d="M35.3184 15.6341C35.3184 24.2685 27.4121 29 17.6592 29C7.9063 29 0 24.2685 0 15.6341C0 6.99962 7.9063 0 17.6592 0C27.4121 0 35.3184 6.99962 35.3184 15.6341Z" fill="#737373"/>
<path d="M25.62 3.23865C25.732 2.93607 26.1599 2.93607 26.2719 3.23865C26.7525 4.53737 27.7764 5.56132 29.0751 6.04189C29.3777 6.15385 29.3777 6.58181 29.0751 6.69378C27.7764 7.17434 26.7525 8.1983 26.2719 9.49701C26.1599 9.79959 25.732 9.79959 25.62 9.49701C25.1394 8.1983 24.1155 7.17434 22.8168 6.69378C22.5142 6.58181 22.5142 6.15385 22.8168 6.04189C24.1155 5.56132 25.1394 4.53737 25.62 3.23865Z" fill="white"/>
<path d="M17.7402 2.91016C19.7489 2.91019 21.6488 3.32295 23.3379 4.05762C23.0392 4.31982 22.6928 4.52977 22.3115 4.6709C20.7397 5.25277 20.7396 7.47682 22.3115 8.05859C23.211 8.39148 23.921 9.10054 24.2539 10C24.8358 11.5716 27.0588 11.5716 27.6406 10C27.8607 9.40533 28.2459 8.89411 28.7412 8.51953C29.8328 10.1819 30.4578 12.1141 30.458 14.1758C30.458 14.2782 30.4562 14.3805 30.4531 14.4814V21.7998C30.4528 22.1566 30.0528 22.368 29.7578 22.167L27.5625 20.6709C25.23 22.7272 21.6959 23.8086 17.7402 23.8086C10.7166 23.8084 5.02344 20.3982 5.02344 14.1758C5.02393 7.95373 10.7169 2.91045 17.7402 2.91016ZM13.0732 11.2168C12.2537 11.2168 11.5891 11.8816 11.5889 12.7012V14.8076C11.589 15.6272 12.2536 16.2919 13.0732 16.292C13.8927 16.2917 14.5575 15.6271 14.5576 14.8076V12.7012C14.5574 11.8818 13.8926 11.217 13.0732 11.2168ZM22.4092 11.2168C21.5896 11.2169 20.925 11.8816 20.9248 12.7012V14.8076C20.9249 15.6272 21.5896 16.2919 22.4092 16.292C23.2287 16.2918 23.8934 15.6271 23.8936 14.8076V12.7012C23.8934 11.8817 23.2287 11.2169 22.4092 11.2168Z" fill="white"/>
<path d="M50.2954 7.57403C50.4156 7.28932 50.5658 7.03458 50.7461 6.80981C50.9415 6.58504 51.227 6.47266 51.6026 6.47266C51.9782 6.47266 52.2562 6.58504 52.4365 6.80981C52.6168 7.03458 52.7671 7.28932 52.8873 7.57403L59.2881 22.3865H56.854L55.3214 18.6328H47.8613L46.3287 22.3865H43.8945L50.2954 7.57403ZM54.51 16.6098L51.6026 9.50707L48.6952 16.6098H54.51Z" fill="#3E3E3E"/>
<path d="M77.7473 15.8456C77.7473 15.3511 77.6721 14.9091 77.5219 14.5195C77.3716 14.1299 77.1688 13.8002 76.9134 13.5305C76.6729 13.2607 76.38 13.0585 76.0344 12.9236C75.7038 12.7737 75.3432 12.6988 74.9525 12.6988C74.5318 12.6988 74.1412 12.7812 73.7805 12.9461C73.4199 13.1109 73.1044 13.3357 72.8339 13.6204C72.5635 13.9051 72.3531 14.2423 72.2029 14.6319C72.0526 15.0065 71.9775 15.4111 71.9775 15.8456V22.3865H69.8364V11.1479H71.9775V12.4965C72.4132 11.9721 72.9091 11.56 73.465 11.2603C74.021 10.9456 74.652 10.7883 75.3582 10.7883C76.1696 10.7883 76.9209 10.9906 77.612 11.3951C78.3032 11.7997 78.8291 12.3392 79.1897 13.0135C80.3316 11.53 81.6764 10.7883 83.2241 10.7883C83.8401 10.7883 84.4261 10.9081 84.982 11.1479C85.538 11.3877 86.0263 11.7248 86.447 12.1594C86.8677 12.5789 87.1983 13.0884 87.4387 13.6878C87.6791 14.2872 87.7993 14.954 87.7993 15.6883V22.3865H85.6582V15.8456C85.6582 15.3511 85.5831 14.9091 85.4328 14.5195C85.2825 14.1299 85.0797 13.8002 84.8243 13.5305C84.5839 13.2607 84.2909 13.0585 83.9453 12.9236C83.6147 12.7737 83.2541 12.6988 82.8634 12.6988C82.4427 12.6988 82.0521 12.7812 81.6915 12.9461C81.3308 13.1109 81.0153 13.3357 80.7449 13.6204C80.4744 13.9051 80.264 14.2423 80.1138 14.6319C79.9635 15.0065 79.8884 15.4111 79.8884 15.8456V22.3865H77.7473V15.8456Z" fill="#3E3E3E"/>
<path d="M88.8072 16.8121C88.8072 15.973 88.965 15.1863 89.2805 14.452C89.6111 13.7178 90.0543 13.0734 90.6102 12.519C91.1812 11.9646 91.8423 11.53 92.5936 11.2153C93.3449 10.9007 94.1487 10.7433 95.0052 10.7433C95.8616 10.7433 96.6655 10.9007 97.4168 11.2153C98.1681 11.53 98.8217 11.9646 99.3776 12.519C99.9486 13.0734 100.392 13.7178 100.707 14.452C101.038 15.1863 101.203 15.973 101.203 16.8121C101.203 17.6513 101.038 18.438 100.707 19.1722C100.392 19.9065 99.9486 20.5508 99.3776 21.1053C98.8217 21.6597 98.1681 22.0943 97.4168 22.4089C96.6655 22.7236 95.8616 22.881 95.0052 22.881C94.1487 22.881 93.3449 22.7236 92.5936 22.4089C91.8423 22.0943 91.1812 21.6597 90.6102 21.1053C90.0543 20.5508 89.6111 19.9065 89.2805 19.1722C88.965 18.438 88.8072 17.6513 88.8072 16.8121ZM90.9483 16.7897C90.9483 17.3441 91.0535 17.8761 91.2639 18.3855C91.4742 18.895 91.7597 19.3446 92.1203 19.7342C92.4959 20.1088 92.9317 20.4085 93.4275 20.6332C93.9384 20.858 94.4793 20.9704 95.0503 20.9704C95.6062 20.9704 96.1246 20.858 96.6054 20.6332C97.1012 20.4085 97.5295 20.1088 97.8901 19.7342C98.2507 19.3446 98.5362 18.895 98.7465 18.3855C98.9569 17.8761 99.0621 17.3441 99.0621 16.7897C99.0621 16.2352 98.9569 15.7108 98.7465 15.2163C98.5362 14.7218 98.2507 14.2872 97.8901 13.9126C97.5295 13.523 97.1012 13.2158 96.6054 12.991C96.1246 12.7663 95.6062 12.6539 95.0503 12.6539C94.4793 12.6539 93.9384 12.7663 93.4275 12.991C92.9317 13.2158 92.4959 13.523 92.1203 13.9126C91.7597 14.2872 91.4742 14.7218 91.2639 15.2163C91.0535 15.7108 90.9483 16.2352 90.9483 16.7897Z" fill="#3E3E3E"/>
<path d="M101.989 21.4874C101.989 21.1128 102.116 20.7981 102.372 20.5433C102.642 20.2736 102.965 20.1388 103.341 20.1388C103.716 20.1388 104.032 20.2736 104.287 20.5433C104.558 20.7981 104.693 21.1128 104.693 21.4874C104.693 21.862 104.558 22.1767 104.287 22.4314C104.032 22.7011 103.716 22.836 103.341 22.836C102.965 22.836 102.642 22.7011 102.372 22.4314C102.116 22.1767 101.989 21.862 101.989 21.4874Z" fill="black" fill-opacity="0.4"/>
<path d="M111.892 7.57403C112.013 7.28932 112.163 7.03458 112.343 6.80981C112.539 6.58504 112.824 6.47266 113.2 6.47266C113.575 6.47266 113.853 6.58504 114.034 6.80981C114.214 7.03458 114.364 7.28932 114.484 7.57403L120.885 22.3865H118.451L116.918 18.6328H109.458L107.926 22.3865H105.492L111.892 7.57403ZM116.107 16.6098L113.2 9.50707L110.292 16.6098H116.107Z" fill="black" fill-opacity="0.4"/>
<path d="M124.484 6.65247V22.3865H122.23V6.65247H124.484Z" fill="black" fill-opacity="0.4"/>
<path fill-rule="evenodd" clip-rule="evenodd" d="M63.4096 19.591L62.3782 22.1391L57.3708 11.1483H59.6246L63.4096 19.591Z" fill="#3E3E3E"/>
<path fill-rule="evenodd" clip-rule="evenodd" d="M63.4096 19.591L63.4336 19.6446L65.3337 14.8372L63.4096 19.591Z" fill="#3E3E3E"/>
<path fill-rule="evenodd" clip-rule="evenodd" d="M63.4096 19.591L62.3782 22.1391L61.6155 23.9585L60.6011 26.2705H60.706H62.7601L68.9223 11.4448L69.0424 11.1483H66.8269H66.7918L65.3337 14.8372L63.4336 19.6446L63.4096 19.591Z" fill="#3E3E3E"/>
</svg>
