<svg width="138" height="33" viewBox="0 0 138 33" fill="none" xmlns="http://www.w3.org/2000/svg">
<g clip-path="url(#clip0_17145_5286)">
<path d="M27.8217 12.002V22.2392C27.8217 24.3193 26.7527 26.2519 24.9938 27.3578L16.7629 32.5343C16.5892 32.6449 16.3574 32.5185 16.3574 32.3131V28.6901C16.3574 28.095 16.6524 27.5421 17.1474 27.2104L22.3976 23.7084C23.1296 23.2187 23.572 22.3972 23.572 21.5177V14.4612C23.572 13.8977 23.8722 13.3764 24.3619 13.092L27.0318 11.5543C27.3846 11.3543 27.8217 11.607 27.8217 12.0125V12.002Z" fill="#737373"/>
<path d="M27.1834 8.93383L15.5559 15.6481C14.7397 16.1168 14.2395 16.9857 14.2395 17.9283V32.0729C14.2395 32.2783 14.0182 32.4047 13.8445 32.2994L3.07011 26.0328C1.16907 24.9269 0 22.8994 0 20.6983V12.1356C0 9.55526 1.37445 7.16974 3.61251 5.87955L13.4179 0.213275C13.9077 -0.0710917 14.508 -0.0710917 14.9978 0.213275L17.4517 1.62985C17.9783 1.93527 17.9783 2.69359 17.4517 2.99902L5.74527 9.7554C4.92903 10.2241 4.42875 11.093 4.42875 12.0356V20.1769C4.42875 21.1196 4.92903 21.9885 5.74527 22.4571L9.6264 24.6952C9.71066 24.7425 9.81069 24.6847 9.81069 24.5899V16.5012C9.81069 14.8582 10.6848 13.3468 12.1067 12.5253L23.355 6.03227C23.8815 5.72684 24.5346 5.75317 25.0348 6.09547L27.2308 7.59629C27.71 7.92279 27.6837 8.63897 27.1781 8.93383H27.1834Z" fill="#737373"/>
<path d="M40.4844 7.47266H44.2395V17.6719C44.2395 18.509 44.354 19.2553 44.5831 19.9108C44.8121 20.5583 45.1517 21.1073 45.6018 21.5573C46.0598 22.0075 46.6245 22.3511 47.2957 22.588C47.9671 22.817 48.7489 22.9315 49.6412 22.9315C50.5257 22.9315 51.3036 22.817 51.9749 22.588C52.654 22.3511 53.2187 22.0075 53.6689 21.5573C54.1268 21.1073 54.4704 20.5583 54.6994 19.9108C54.9284 19.2553 55.0429 18.509 55.0429 17.6719V7.47266H58.7981V18.1221C58.7981 19.3383 58.5927 20.4438 58.1821 21.4389C57.7714 22.4339 57.1752 23.2869 56.3934 23.9976C55.6116 24.7084 54.652 25.2572 53.5148 25.6442C52.3855 26.0311 51.0943 26.2247 49.6412 26.2247C48.1881 26.2247 46.893 26.0311 45.7558 25.6442C44.6265 25.2572 43.6709 24.7084 42.8891 23.9976C42.1073 23.2869 41.5111 22.4339 41.1004 21.4389C40.6897 20.4438 40.4844 19.3383 40.4844 18.1221V7.47266Z" fill="#737373"/>
<path d="M61.3945 7.47266H65.1733V25.9877H61.3945V7.47266Z" fill="#737373"/>
<path d="M66.9375 19.0584C66.9375 17.9449 67.1468 16.9419 67.5654 16.0496C67.9839 15.1492 68.5604 14.3832 69.2948 13.7515C70.0372 13.1118 70.9138 12.6221 71.9246 12.2826C72.9433 11.9351 74.045 11.7614 75.2296 11.7614C75.735 11.7614 76.2325 11.7929 76.7222 11.8561C77.2197 11.9192 77.6935 12.0062 78.1437 12.1167C78.6018 12.2273 79.0282 12.3615 79.4231 12.5195C79.8258 12.6695 80.1812 12.8354 80.4892 13.017V6.33594H83.9955V25.9882H80.4892V24.6733C80.1812 24.8865 79.8179 25.0879 79.3993 25.2775C78.9808 25.467 78.5306 25.6328 78.0489 25.775C77.5672 25.9171 77.0658 26.0276 76.5445 26.1067C76.0312 26.1935 75.5218 26.237 75.0164 26.237C73.8318 26.237 72.742 26.0632 71.7469 25.7157C70.7598 25.3682 69.9108 24.8786 69.2001 24.2468C68.4894 23.615 67.9326 22.8608 67.5298 21.9843C67.135 21.0998 66.9375 20.1245 66.9375 19.0584ZM70.6216 19.0584C70.6216 19.619 70.7322 20.1482 70.9533 20.6457C71.1822 21.1432 71.5061 21.5816 71.9246 21.9606C72.351 22.3317 72.8604 22.628 73.4527 22.849C74.0529 23.0623 74.7242 23.1689 75.4665 23.1689C75.9403 23.1689 76.4142 23.1254 76.8881 23.0386C77.3619 22.9438 77.8159 22.8135 78.2503 22.6477C78.6925 22.4818 79.1032 22.2805 79.4823 22.0436C79.8692 21.8066 80.2049 21.542 80.4892 21.2498V16.4049C80.1338 16.1206 79.7586 15.8798 79.3638 15.6823C78.969 15.4849 78.5662 15.323 78.1555 15.1966C77.7449 15.0703 77.3303 14.9794 76.9117 14.9241C76.4932 14.861 76.0865 14.8294 75.6916 14.8294C74.886 14.8294 74.1674 14.94 73.5356 15.161C72.9118 15.3743 72.3827 15.6704 71.9483 16.0496C71.5218 16.4286 71.1942 16.8748 70.9651 17.3881C70.7361 17.9014 70.6216 18.4582 70.6216 19.0584Z" fill="#737373"/>
<path d="M86.1152 18.9521C86.1152 18.0045 86.3081 17.1002 86.6955 16.2394C87.0821 15.3707 87.6392 14.6047 88.3652 13.9413C89.0921 13.2779 89.9809 12.7488 91.0309 12.354C92.0895 11.9591 93.2895 11.7617 94.6318 11.7617C95.9664 11.7617 97.1672 11.9631 98.2335 12.3658C99.3075 12.7607 100.215 13.3056 100.958 14.0006C101.708 14.6955 102.281 15.5128 102.675 16.4526C103.078 17.3924 103.28 18.3993 103.28 19.4733C103.28 19.6076 103.275 19.7537 103.268 19.9116C103.268 20.0617 103.26 20.1999 103.244 20.3262H90.0238C90.1738 20.7447 90.4147 21.1278 90.7464 21.4753C91.0867 21.8228 91.5084 22.1229 92.0141 22.3755C92.5198 22.6283 93.1044 22.8257 93.7669 22.9678C94.4304 23.1021 95.1649 23.1693 95.9707 23.1693C96.7764 23.1693 97.5778 23.0863 98.3758 22.9204C99.1729 22.7468 99.9349 22.5296 100.662 22.2689L101.846 24.9461C101.388 25.1594 100.922 25.3489 100.448 25.5147C99.9821 25.6726 99.4927 25.8069 98.9792 25.9174C98.4744 26.0201 97.9412 26.0991 97.3807 26.1544C96.8278 26.2096 96.2432 26.2373 95.6269 26.2373C94.0558 26.2373 92.6775 26.0478 91.4929 25.6687C90.3084 25.2897 89.3175 24.7724 88.5195 24.1169C87.7224 23.4615 87.1215 22.6915 86.7187 21.807C86.3167 20.9225 86.1152 19.9708 86.1152 18.9521ZM99.5604 17.5899C99.4335 17.2029 99.2364 16.8435 98.9681 16.5118C98.7067 16.1723 98.3792 15.8801 97.9841 15.6353C97.5898 15.3825 97.1312 15.1851 96.6101 15.0429C96.0889 14.9008 95.5164 14.8298 94.8924 14.8298C94.2289 14.8298 93.6255 14.9048 93.0804 15.0549C92.5352 15.2049 92.0578 15.4063 91.6472 15.659C91.2367 15.9117 90.8929 16.2039 90.6161 16.5356C90.3478 16.8673 90.1507 17.2186 90.0238 17.5899H99.5604Z" fill="#737373"/>
<path d="M104.701 19.035C104.701 18.0084 104.887 17.0529 105.258 16.1684C105.637 15.2759 106.187 14.5059 106.905 13.8584C107.632 13.2029 108.516 12.6896 109.559 12.3184C110.609 11.9473 111.805 11.7617 113.147 11.7617C113.732 11.7617 114.32 11.7972 114.912 11.8683C115.505 11.9394 116.074 12.042 116.619 12.1763C117.171 12.3027 117.689 12.4566 118.17 12.6383C118.652 12.8121 119.07 13.0055 119.426 13.2187L117.803 15.8603C117.037 15.5049 116.31 15.2444 115.624 15.0785C114.944 14.9127 114.253 14.8298 113.55 14.8298C112.745 14.8298 112.022 14.9364 111.383 15.1496C110.743 15.3549 110.198 15.6471 109.748 16.0262C109.306 16.3974 108.966 16.8396 108.729 17.3529C108.5 17.8583 108.386 18.4112 108.386 19.0113C108.386 19.6115 108.508 20.1683 108.753 20.6816C109.006 21.187 109.357 21.6253 109.807 21.9965C110.265 22.3598 110.814 22.648 111.454 22.8612C112.101 23.0666 112.82 23.1693 113.609 23.1693C114.479 23.1693 115.295 23.0469 116.062 22.802C116.836 22.5572 117.554 22.2295 118.217 21.8188L119.841 24.4605C119.422 24.7131 118.968 24.9501 118.478 25.1712C117.989 25.3844 117.463 25.57 116.903 25.7279C116.35 25.8859 115.765 26.0083 115.15 26.0952C114.541 26.1899 113.909 26.2373 113.255 26.2373C111.92 26.2373 110.723 26.0557 109.665 25.6924C108.607 25.3291 107.711 24.8277 106.976 24.188C106.241 23.5404 105.677 22.7783 105.282 21.9017C104.895 21.0251 104.701 20.0696 104.701 19.035Z" fill="#737373"/>
<path d="M122.115 6.33594H125.622V17.9449L132.161 12.0101H137.527L130.218 18.549L137.989 25.9882H132.729L127.529 20.9537L125.622 22.6595V25.9882H122.115V6.33594Z" fill="#737373"/>
</g>
<defs>
<clipPath id="clip0_17145_5286">
<rect width="138" height="32.5714" fill="white"/>
</clipPath>
</defs>
</svg>
