<svg width="140" height="26" viewBox="0 0 140 26" fill="none" xmlns="http://www.w3.org/2000/svg">
<g clip-path="url(#clip0_17145_5275)">
<path d="M25.5686 0V25.7143H9.86502V20.4884H20.7164V15.4009H9.86502V10.3826H20.7164V5.36435H4.92101V25.7143H0V0H25.5686Z" fill="#737373"/>
<path d="M47.0146 14.3823V11.6143H40.5048V6.82455H48.259V3.98438H37.4414V21.579H40.5048V14.3823H47.0146Z" fill="#737373"/>
<path d="M48.623 15.6134C48.623 19.3201 51.2795 21.8714 54.9413 21.8714C58.603 21.8714 61.2596 19.3201 61.2596 15.6134C61.2596 11.9068 58.603 9.35547 54.9413 9.35547C51.2795 9.35547 48.623 11.9068 48.623 15.6134ZM51.5428 15.6134C51.5428 13.4472 52.9309 11.979 54.9413 11.979C56.9517 11.979 58.3398 13.4472 58.3398 15.6134C58.3398 17.7797 56.9517 19.2478 54.9413 19.2478C52.9309 19.2478 51.5428 17.7797 51.5428 15.6134Z" fill="#737373"/>
<path d="M70.636 9.64118C70.1573 9.52078 69.7505 9.47266 69.3436 9.47266C67.764 9.47266 66.6392 10.267 66.1366 11.4463L65.9691 9.71336H63.2168V21.5795H66.1366V15.8029C66.1366 13.4923 67.4529 12.3609 69.559 12.3609H70.636V9.64118Z" fill="#737373"/>
<path d="M75.1718 21.5794V14.84C75.1718 12.9144 76.2966 11.9998 77.6847 11.9998C79.0728 11.9998 79.9583 12.8904 79.9583 14.5512V21.5794H82.8782V14.84C82.8782 12.8904 83.9552 11.9758 85.3672 11.9758C86.7553 11.9758 87.6647 12.8663 87.6647 14.5753V21.5794H90.5606V13.8051C90.5606 11.0612 88.9811 9.32812 86.1091 9.32812C84.3141 9.32812 82.926 10.2188 82.3277 11.5907C81.7055 10.2188 80.4609 9.32812 78.666 9.32812C76.9667 9.32812 75.7701 10.0984 75.1718 11.0852L74.9325 9.68923H72.252V21.5794H75.1718Z" fill="#737373"/>
<path d="M93.498 21.579H100.582C104.196 21.579 106.278 19.822 106.278 16.8133C106.278 14.7674 105.345 13.3714 103.502 12.7697C105.153 12.0716 106.015 10.6756 106.015 8.72602C106.015 5.78957 103.909 3.98438 100.463 3.98438H93.498V21.579ZM100.199 6.7042C101.922 6.7042 102.88 7.52255 102.88 9.03891C102.88 10.6034 101.947 11.4939 100.271 11.4939H96.5617V6.7042H100.199ZM100.463 14.0935C102.161 14.0935 103.143 14.9359 103.143 16.4282C103.143 18.0167 102.186 18.8592 100.463 18.8592H96.5617V14.0935H100.463Z" fill="#737373"/>
<path d="M107.604 15.6134C107.604 19.3201 110.261 21.8714 113.922 21.8714C117.583 21.8714 120.241 19.3201 120.241 15.6134C120.241 11.9068 117.583 9.35547 113.922 9.35547C110.261 9.35547 107.604 11.9068 107.604 15.6134ZM110.524 15.6134C110.524 13.4472 111.912 11.979 113.922 11.979C115.932 11.979 117.321 13.4472 117.321 15.6134C117.321 17.7797 115.932 19.2478 113.922 19.2478C111.912 19.2478 110.524 17.7797 110.524 15.6134Z" fill="#737373"/>
<path d="M125.141 21.5794V3.67188H122.244V21.5794H125.141Z" fill="#737373"/>
<path d="M132.702 21.8923C134.498 21.8923 136.029 21.098 136.747 19.726L136.939 21.5794H139.619V3.67188H136.723V11.2055C135.982 10.0262 134.521 9.3281 132.87 9.3281C129.304 9.3281 127.15 11.9758 127.15 15.6825C127.15 19.365 129.28 21.8923 132.702 21.8923ZM133.349 19.1965C131.314 19.1965 130.07 17.7043 130.07 15.5861C130.07 13.468 131.314 11.9517 133.349 11.9517C135.383 11.9517 136.699 13.4439 136.699 15.5861C136.699 17.7283 135.383 19.1965 133.349 19.1965Z" fill="#737373"/>
</g>
<defs>
<clipPath id="clip0_17145_5275">
<rect width="139.714" height="25.7143" fill="white"/>
</clipPath>
</defs>
</svg>
