<svg width="159" height="29" viewBox="0 0 159 29" fill="none" xmlns="http://www.w3.org/2000/svg">
<path d="M39.873 8.31064H45.5619V24.6067H48.9645V8.31064H54.6534V5.17372H39.873V8.31064Z" fill="#737373"/>
<path d="M58.451 24.9523C60.498 24.9523 62.279 24.0219 62.8373 22.6661L63.0765 24.6067H65.921V16.6315C65.921 12.9894 63.7411 11.0754 60.2055 11.0754C56.6434 11.0754 54.304 12.9363 54.304 15.7808H57.0687C57.0687 14.3984 58.132 13.6009 60.046 13.6009C61.6942 13.6009 62.7575 14.3187 62.7575 16.0998V16.3922L58.8232 16.6846C55.713 16.9239 53.9585 18.4392 53.9585 20.8583C53.9585 23.3307 55.6598 24.9523 58.451 24.9523ZM59.5144 22.5066C58.0523 22.5066 57.2548 21.9217 57.2548 20.7254C57.2548 19.6621 58.0257 18.9975 60.046 18.8114L62.7841 18.5987V19.2899C62.7841 21.3103 61.5081 22.5066 59.5144 22.5066Z" fill="#737373"/>
<path d="M70.7286 8.84232C71.7919 8.84232 72.6692 7.96505 72.6692 6.8751C72.6692 5.78515 71.7919 4.93446 70.7286 4.93446C69.6121 4.93446 68.7348 5.78515 68.7348 6.8751C68.7348 7.96505 69.6121 8.84232 70.7286 8.84232ZM69.107 24.6067H72.3502V11.4742H69.107V24.6067Z" fill="#737373"/>
<path d="M78.9707 24.6067V4.82812H75.7541V24.6067H78.9707Z" fill="#737373"/>
<path d="M84.526 24.6067L86.0944 20.114H93.3516L94.92 24.6067H98.5088L91.4908 5.17372H88.0084L80.9904 24.6067H84.526ZM89.311 10.9691C89.497 10.4374 89.6565 9.85252 89.7363 9.48034C89.7895 9.87911 89.9755 10.464 90.135 10.9691L92.368 17.2429H87.1045L89.311 10.9691Z" fill="#737373"/>
<path d="M105.266 24.9523C107.26 24.9523 108.961 24.075 109.759 22.5597L109.972 24.6067H112.949V4.82812H109.732V13.149C108.908 11.8463 107.287 11.0754 105.452 11.0754C101.492 11.0754 99.099 13.9996 99.099 18.0936C99.099 22.161 101.465 24.9523 105.266 24.9523ZM105.984 21.9749C103.725 21.9749 102.342 20.3267 102.342 17.9873C102.342 15.6479 103.725 13.9731 105.984 13.9731C108.244 13.9731 109.706 15.6213 109.706 17.9873C109.706 20.3532 108.244 21.9749 105.984 21.9749Z" fill="#737373"/>
<path d="M119.572 24.6067V17.1632C119.572 15.0364 120.821 14.0262 122.363 14.0262C123.905 14.0262 124.889 15.0098 124.889 16.8441V24.6067H128.132V17.1632C128.132 15.0098 129.328 13.9996 130.896 13.9996C132.438 13.9996 133.448 14.9833 133.448 16.8707V24.6067H136.665V16.02C136.665 12.9894 134.91 11.0754 131.72 11.0754C129.727 11.0754 128.185 12.059 127.52 13.5743C126.829 12.059 125.447 11.0754 123.453 11.0754C121.566 11.0754 120.236 11.9261 119.572 13.016L119.306 11.4742H116.329V24.6067H119.572Z" fill="#737373"/>
<path d="M141.47 8.84232C142.534 8.84232 143.411 7.96505 143.411 6.8751C143.411 5.78515 142.534 4.93446 141.47 4.93446C140.354 4.93446 139.477 5.78515 139.477 6.8751C139.477 7.96505 140.354 8.84232 141.47 8.84232ZM139.849 24.6067H143.092V11.4742H139.849V24.6067Z" fill="#737373"/>
<path d="M149.686 24.6067V17.5353C149.686 15.4086 150.909 14.0262 152.902 14.0262C154.577 14.0262 155.667 15.0896 155.667 17.2961V24.6067H158.91V16.5251C158.91 13.1224 157.209 11.0754 153.913 11.0754C152.131 11.0754 150.536 11.8463 149.712 13.1755L149.447 11.4742H146.443V24.6067H149.686Z" fill="#737373"/>
<path fill-rule="evenodd" clip-rule="evenodd" d="M21.3685 0C25.5833 2.5829e-05 29 3.4168 29 7.63171V21.3683C29 25.5832 25.5833 29 21.3685 29H7.63148C3.41674 28.9999 0 25.5832 0 21.3683V7.63171C0 3.41682 3.41674 6.41325e-05 7.63148 0H21.3685ZM9.15745 6.10653C8.31477 6.10672 7.63167 6.78984 7.63148 7.63254V21.37C7.63148 22.2128 8.31465 22.8966 9.15745 22.8968C10.0004 22.8968 10.6842 22.2129 10.6842 21.37V7.63254C10.6841 6.78972 10.0003 6.10653 9.15745 6.10653ZM14.8823 12.2097C14.0394 12.2097 13.3555 12.8936 13.3555 13.7366V21.3683C13.3557 22.2111 14.0394 22.8943 14.8823 22.8943C15.725 22.8941 16.4081 22.211 16.4083 21.3683V13.7366C16.4083 12.8937 15.7251 12.21 14.8823 12.2097ZM20.6047 8.39305C19.7617 8.39305 19.0779 9.07691 19.0779 9.91989V21.3675C19.0779 22.2104 19.7617 22.8935 20.6047 22.8935C21.4476 22.8934 22.1306 22.2104 22.1306 21.3675V9.91989C22.1306 9.07694 21.4476 8.3931 20.6047 8.39305Z" fill="#737373"/>
</svg>
