<svg width="105" height="30" viewBox="0 0 105 30" fill="none" xmlns="http://www.w3.org/2000/svg">
<g clip-path="url(#clip0_17145_5296)">
<path d="M90.8906 16.5318C90.8906 16.1165 91.252 15.7734 91.6673 15.7734C92.0826 15.7734 92.4257 16.1165 92.4257 16.5318C92.4257 16.9471 92.0644 17.2902 91.6673 17.2902C91.2695 17.2902 90.8906 16.9471 90.8906 16.5318Z" fill="#737373"/>
<path d="M93.4928 14.602H94.5216V14.9812C94.5216 15.7396 94.9368 16.2993 95.8038 16.2993C96.6708 16.2993 97.0679 15.7576 97.0679 14.9451V9.34766H98.1149V14.9812C98.1149 16.3896 97.1758 17.2563 95.7856 17.2563C94.3052 17.2563 93.4746 16.3174 93.4746 14.9632V14.584L93.4928 14.602Z" fill="#737373"/>
<path d="M102.105 9.23828C103.586 9.23828 104.543 10.0689 104.633 11.4231H103.568C103.513 10.6467 102.972 10.1953 102.088 10.1953C101.112 10.1953 100.48 10.6827 100.48 11.4592C100.48 12.0911 100.841 12.4523 101.564 12.6328L102.845 12.9398C104.109 13.2287 104.759 13.9148 104.759 15.0163C104.759 16.4247 103.676 17.3095 102.015 17.3095C100.354 17.3095 99.3788 16.4788 99.3066 15.1427H100.39C100.408 15.883 101.04 16.3525 102.015 16.3525C103.044 16.3525 103.712 15.8649 103.712 15.0885C103.712 14.4746 103.387 14.0954 102.629 13.9148L101.347 13.626C100.083 13.3371 99.4152 12.5968 99.4152 11.4773C99.4152 10.1411 100.499 9.23828 102.105 9.23828Z" fill="#737373"/>
<path d="M49.5251 1.45312V12.6661L42.104 1.45312H39.3594V17.2885H42.0859V6.05748L49.5251 17.2885H52.2516V1.45312H49.5251Z" fill="#737373"/>
<path d="M64.1336 1.45312V3.99906H57.0736V8.07977H63.3933V10.5174H57.0736V14.7245H64.1336V17.2885H54.293V1.45312H64.1336Z" fill="#737373"/>
<path d="M81.8661 1.45312L80.1328 3.99906H85.1519V17.2885H87.9329V3.99906H91.4723L93.1874 1.45312H81.8661Z" fill="#737373"/>
<path d="M70.0733 11.043L71.7706 13.5348L69.2066 17.2905H65.8301L70.0733 11.043Z" fill="#737373"/>
<path d="M80.0233 17.2885H76.6288L72.927 11.8355L71.2299 9.34373L65.8672 1.45312H69.2437L72.927 6.85196L76.5924 1.45312H79.9693L76.3942 6.7075L74.6063 9.34373L80.0233 17.2885Z" fill="#737373"/>
<path d="M39.3594 19.3945H44.0901V20.0084H42.0498V25.9851H41.3817V20.0084H39.3594V19.3945Z" fill="#737373"/>
<path d="M43.875 23.7457C43.875 22.3554 44.7417 21.3984 46.0237 21.3984C47.3057 21.3984 48.046 22.2471 48.046 23.5111V23.818H44.4889C44.5431 24.9014 45.1029 25.5334 46.0598 25.5334C46.7821 25.5334 47.2516 25.2264 47.4321 24.6305H48.046C47.8113 25.5694 47.1071 26.0751 46.0598 26.0751C44.7417 26.0751 43.875 25.1362 43.875 23.7457ZM44.507 23.3666H47.414C47.414 22.518 46.8543 21.9401 46.0237 21.9401C45.1931 21.9401 44.6334 22.4999 44.525 23.3666H44.507Z" fill="#737373"/>
<path d="M49.0566 25.9848V21.5248H49.6164L49.6886 22.1568C49.9053 21.6874 50.4108 21.3984 51.0428 21.3984C51.747 21.3984 52.2707 21.7596 52.4873 22.3554C52.6859 21.7777 53.2276 21.3984 53.9499 21.3984C54.9249 21.3984 55.5569 22.0305 55.5569 23.0597V25.9848H54.943V23.2041C54.943 22.4458 54.5096 21.9943 53.8415 21.9943C53.1012 21.9943 52.6498 22.5541 52.6498 23.2402V25.9848H52.0178V23.1861C52.0178 22.4277 51.5845 21.9943 50.9164 21.9943C50.1761 21.9943 49.7247 22.5541 49.7247 23.2221V25.9848H49.0566Z" fill="#737373"/>
<path d="M56.8223 21.5248H57.382L57.4542 22.4277C57.7612 21.7415 58.3932 21.3984 59.1515 21.3984C60.4516 21.3984 61.2099 22.3916 61.2099 23.7278C61.2099 25.0639 60.4696 26.0751 59.1515 26.0751C58.3932 26.0751 57.7973 25.75 57.4904 25.1V27.8988H56.8584V21.5068L56.8223 21.5248ZM59.0252 25.5153C60.0002 25.5153 60.5599 24.775 60.5599 23.7457C60.5599 22.7166 60.0002 21.9763 59.0252 21.9763C58.0501 21.9763 57.4723 22.7166 57.4723 23.7457C57.4723 24.775 58.0501 25.5153 59.0252 25.5153Z" fill="#737373"/>
<path d="M62.2383 25.9826V19.717L62.8702 19.2656V25.9645H62.2383V25.9826Z" fill="#737373"/>
<path d="M63.9883 24.7726C63.9883 23.96 64.6203 23.4364 65.6676 23.3642L67.1482 23.2378V23.0933C67.1482 22.2266 66.6245 21.9377 65.9745 21.9377C65.1981 21.9377 64.7467 22.2808 64.7467 22.8947H64.1689C64.1689 21.9919 64.9092 21.4141 66.0107 21.4141C67.0398 21.4141 67.7982 21.9377 67.7982 23.1113V25.9824H67.2565L67.1662 25.2059C66.8954 25.7657 66.2815 26.1087 65.5231 26.1087C64.5661 26.1087 64.0064 25.567 64.0064 24.7906L63.9883 24.7726ZM67.1301 23.96V23.7253L65.812 23.8336C64.9633 23.9059 64.6383 24.267 64.6383 24.7726C64.6383 25.3143 65.0356 25.5851 65.6495 25.5851C66.5884 25.5851 67.1301 24.935 67.1301 23.96Z" fill="#737373"/>
<path d="M69.352 25.9816V22.0634H68.4492V21.5217H69.352V20.5466L69.984 20.1133V21.5217H70.8868V22.0634H69.984V25.9816H69.352Z" fill="#737373"/>
<path d="M71.3379 23.7457C71.3379 22.3554 72.2046 21.3984 73.4869 21.3984C74.7684 21.3984 75.5087 22.2471 75.5087 23.5111V23.818H71.9518C72.006 24.9014 72.5657 25.5334 73.5226 25.5334C74.2446 25.5334 74.7145 25.2264 74.8952 24.6305H75.5087C75.2741 25.5694 74.5703 26.0751 73.5226 26.0751C72.2046 26.0751 71.3379 25.1362 71.3379 23.7457ZM71.9699 23.3666H74.877C74.877 22.518 74.3175 21.9401 73.4869 21.9401C72.6559 21.9401 72.0963 22.4999 71.9879 23.3666H71.9699Z" fill="#737373"/>
<path d="M76.756 24.7193C76.756 25.243 77.1356 25.5499 77.7673 25.5499C78.4536 25.5499 78.8689 25.261 78.8689 24.7735C78.8689 24.4123 78.6882 24.1956 78.1644 24.0692L77.4066 23.8706C76.63 23.672 76.2504 23.2748 76.2504 22.6609C76.2504 21.8845 76.901 21.3789 77.8576 21.3789C78.815 21.3789 79.4102 21.9025 79.4284 22.715H78.815C78.815 22.1914 78.4354 21.9025 77.8394 21.9025C77.2434 21.9025 76.8646 22.1733 76.8646 22.6428C76.8646 22.9859 77.0992 23.2206 77.5866 23.347L78.345 23.5456C79.1217 23.7443 79.4649 24.1054 79.4649 24.7373C79.4649 25.5318 78.7785 26.0555 77.7673 26.0555C76.756 26.0555 76.1426 25.5138 76.1426 24.7013H76.756V24.7193Z" fill="#737373"/>
<path d="M103.987 23.8491H82.6445L83.4569 22.9102H104.781L103.987 23.8491Z" fill="#737373"/>
<path d="M29.1609 14.5534C29.1609 16.5576 28.7636 18.4716 28.0414 20.187C25.8386 25.4593 20.6564 29.1429 14.5895 29.1429C6.53638 29.1429 0 22.6245 0 14.5714C0 6.51832 6.53638 0 14.5895 0C19.2661 0 23.4371 2.20286 26.1094 5.63356H14.3186L16.3771 8.72122H19.0132V18.291L16.0701 13.8311L10.6352 5.63356H7.5295V23.3143H10.6171V10.8338L19.0132 23.5093H22.0829V8.72122H27.9511C28.7276 10.5088 29.1609 12.4769 29.1609 14.5534Z" fill="#737373"/>
</g>
<defs>
<clipPath id="clip0_17145_5296">
<rect width="104.914" height="29.1429" fill="white"/>
</clipPath>
</defs>
</svg>
