<svg width="87" height="24" viewBox="0 0 87 24" fill="none" xmlns="http://www.w3.org/2000/svg">
<g clip-path="url(#clip0_17189_4031)">
<path d="M74.8511 13.6144C74.8511 13.2724 75.1487 12.9899 75.4907 12.9899C75.8327 12.9899 76.1153 13.2724 76.1153 13.6144C76.1153 13.9564 75.8177 14.2389 75.4907 14.2389C75.1631 14.2389 74.8511 13.9564 74.8511 13.6144Z" fill="#737373"/>
<path d="M76.994 12.0252H77.8412V12.3374C77.8412 12.962 78.1832 13.423 78.8972 13.423C79.6112 13.423 79.9382 12.9769 79.9382 12.3077V7.69806H80.8004V12.3374C80.8004 13.4973 80.027 14.2111 78.8822 14.2111C77.663 14.2111 76.979 13.4378 76.979 12.3226V12.0103L76.994 12.0252Z" fill="#737373"/>
<path d="M84.0863 7.60797C85.3061 7.60797 86.0939 8.29197 86.1683 9.40725H85.2911C85.2461 8.76783 84.8003 8.39607 84.0719 8.39607C83.2685 8.39607 82.7483 8.79753 82.7483 9.43695C82.7483 9.95739 83.0453 10.2548 83.6405 10.4035L84.6959 10.6563C85.7369 10.8942 86.2721 11.4593 86.2721 12.3663C86.2721 13.5262 85.3799 14.2548 84.0119 14.2548C82.6439 14.2548 81.8411 13.5708 81.7817 12.4704H82.6739C82.6889 13.0801 83.2091 13.4667 84.0119 13.4667C84.8597 13.4667 85.4099 13.0652 85.4099 12.4258C85.4099 11.9202 85.1423 11.608 84.5177 11.4593L83.4617 11.2214C82.4213 10.9835 81.8711 10.3738 81.8711 9.45183C81.8711 8.35149 82.7633 7.60797 84.0863 7.60797Z" fill="#737373"/>
<path d="M40.7853 1.19672V10.4309L34.6738 1.19672H32.4136V14.2376H34.659V4.98854L40.7853 14.2376H43.0307V1.19672H40.7853Z" fill="#737373"/>
<path d="M52.816 1.19672V3.29337H47.0019V6.65395H52.2063V8.66143H47.0019V12.1261H52.816V14.2376H44.7119V1.19672H52.816Z" fill="#737373"/>
<path d="M67.4191 1.19672L65.9917 3.29337H70.1251V14.2376H72.4153V3.29337H75.3301L76.7425 1.19672H67.4191Z" fill="#737373"/>
<path d="M57.7073 9.09424L59.1051 11.1463L56.9936 14.2392H54.2129L57.7073 9.09424Z" fill="#737373"/>
<path d="M65.9016 14.2376H63.1062L60.0576 9.74692L58.66 7.69486L54.2437 1.19672H57.0243L60.0576 5.64281L63.0762 1.19672H65.8572L62.913 5.52385L61.4406 7.69486L65.9016 14.2376Z" fill="#737373"/>
<path d="M32.4136 15.972H36.3095V16.4775H34.6292V21.3995H34.0791V16.4775H32.4136V15.972Z" fill="#737373"/>
<path d="M36.1323 19.5553C36.1323 18.4104 36.8461 17.6223 37.9018 17.6223C38.9576 17.6223 39.5673 18.3211 39.5673 19.3621V19.6149H36.6379C36.6825 20.5071 37.1435 21.0275 37.9316 21.0275C38.5264 21.0275 38.913 20.7747 39.0617 20.284H39.5673C39.3739 21.0572 38.794 21.4736 37.9316 21.4736C36.8461 21.4736 36.1323 20.7004 36.1323 19.5553ZM36.6528 19.2431H39.0468C39.0468 18.5442 38.5858 18.0684 37.9018 18.0684C37.2178 18.0684 36.7569 18.5293 36.6676 19.2431H36.6528Z" fill="#737373"/>
<path d="M40.3994 21.3993V17.7264H40.8604L40.9199 18.2468C41.0983 17.8602 41.5146 17.6223 42.0351 17.6223C42.615 17.6223 43.0463 17.9197 43.2247 18.4104C43.3883 17.9346 43.8344 17.6223 44.4291 17.6223C45.2321 17.6223 45.7526 18.1428 45.7526 18.9903V21.3993H45.247V19.1093C45.247 18.4848 44.8901 18.113 44.3399 18.113C43.7303 18.113 43.3585 18.574 43.3585 19.139V21.3993H42.8381V19.0944C42.8381 18.4699 42.4812 18.113 41.931 18.113C41.3213 18.113 40.9496 18.574 40.9496 19.1241V21.3993H40.3994Z" fill="#737373"/>
<path d="M46.7949 17.7264H47.2559L47.3154 18.4699C47.5681 17.9048 48.0886 17.6223 48.7131 17.6223C49.7838 17.6223 50.4083 18.4401 50.4083 19.5405C50.4083 20.6409 49.7986 21.4736 48.7131 21.4736C48.0886 21.4736 47.5979 21.2059 47.3451 20.6706V22.9755H46.8247V17.7115L46.7949 17.7264ZM48.6091 21.0126C49.4121 21.0126 49.873 20.403 49.873 19.5553C49.873 18.7078 49.4121 18.0981 48.6091 18.0981C47.8061 18.0981 47.3302 18.7078 47.3302 19.5553C47.3302 20.403 47.8061 21.0126 48.6091 21.0126Z" fill="#737373"/>
<path d="M51.2549 21.3974V16.2375L51.7753 15.8658V21.3825H51.2549V21.3974Z" fill="#737373"/>
<path d="M52.6963 20.401C52.6963 19.7318 53.2168 19.3006 54.0792 19.2411L55.2986 19.137V19.0181C55.2986 18.3043 54.8673 18.0664 54.332 18.0664C53.6926 18.0664 53.3208 18.3489 53.3208 18.8545H52.845C52.845 18.111 53.4547 17.6351 54.3618 17.6351C55.2093 17.6351 55.8339 18.0664 55.8339 19.0329V21.3973H55.3878L55.3134 20.7578C55.0903 21.2188 54.5848 21.5013 53.9602 21.5013C53.1721 21.5013 52.7112 21.0552 52.7112 20.4158L52.6963 20.401ZM55.2837 19.7318V19.5385L54.1982 19.6277C53.4993 19.6872 53.2316 19.9846 53.2316 20.401C53.2316 20.8471 53.5588 21.0701 54.0643 21.0701C54.8376 21.0701 55.2837 20.5348 55.2837 19.7318Z" fill="#737373"/>
<path d="M57.1136 21.3967V18.1699H56.3701V17.7238H57.1136V16.9208L57.634 16.5639V17.7238H58.3775V18.1699H57.634V21.3967H57.1136Z" fill="#737373"/>
<path d="M58.749 19.5553C58.749 18.4104 59.4628 17.6223 60.5188 17.6223C61.5742 17.6223 62.1838 18.3211 62.1838 19.3621V19.6149H59.2546C59.2992 20.5071 59.7601 21.0275 60.5482 21.0275C61.1428 21.0275 61.5298 20.7747 61.6786 20.284H62.1838C61.9906 21.0572 61.411 21.4736 60.5482 21.4736C59.4628 21.4736 58.749 20.7004 58.749 19.5553ZM59.2695 19.2431H61.6636C61.6636 18.5442 61.2028 18.0684 60.5188 18.0684C59.8345 18.0684 59.3736 18.5293 59.2843 19.2431H59.2695Z" fill="#737373"/>
<path d="M63.2108 20.357C63.2108 20.7883 63.5234 21.0411 64.0436 21.0411C64.6088 21.0411 64.9508 20.8031 64.9508 20.4017C64.9508 20.1042 64.802 19.9258 64.3706 19.8217L63.7466 19.6581C63.107 19.4946 62.7944 19.1675 62.7944 18.6619C62.7944 18.0225 63.3302 17.6061 64.118 17.6061C64.9064 17.6061 65.3966 18.0374 65.4116 18.7065H64.9064C64.9064 18.2753 64.5938 18.0374 64.103 18.0374C63.6122 18.0374 63.3002 18.2604 63.3002 18.647C63.3002 18.9296 63.4934 19.1228 63.8948 19.2269L64.5194 19.3905C65.159 19.5541 65.4416 19.8515 65.4416 20.3719C65.4416 21.0262 64.8764 21.4574 64.0436 21.4574C63.2108 21.4574 62.7056 21.0113 62.7056 20.3422H63.2108V20.357Z" fill="#737373"/>
<path d="M85.6359 19.6405H68.0601L68.7291 18.8672H86.2905L85.6359 19.6405Z" fill="#737373"/>
<path d="M24.0149 11.9851C24.0149 13.6357 23.6877 15.2119 23.0929 16.6246C21.2788 20.9665 17.0111 24 12.0149 24C5.3829 24 0 18.632 0 12C0 5.36803 5.3829 0 12.0149 0C15.8662 0 19.3011 1.81412 21.5018 4.6394H11.7918L13.487 7.18218H15.658V15.0632L13.2342 11.3903L8.75838 4.6394H6.20076V19.2H8.7435V8.92194L15.658 19.3606H18.1859V7.18218H23.0186C23.658 8.65428 24.0149 10.2751 24.0149 11.9851Z" fill="#737373"/>
</g>
<defs>
<clipPath id="clip0_17189_4031">
<rect width="86.4" height="24" fill="white"/>
</clipPath>
</defs>
</svg>
