<svg width="85" height="25" viewBox="0 0 85 25" fill="none" xmlns="http://www.w3.org/2000/svg">
<path fill-rule="evenodd" clip-rule="evenodd" d="M57.6346 7.85821C58.6396 7.85821 59.5247 8.09061 60.2897 8.55561C61.0697 9.02059 61.6771 9.65818 62.1121 10.4681C62.5621 11.2781 62.7871 12.2009 62.7871 13.2358C62.7871 13.4158 62.7721 13.6033 62.7421 13.7982C62.7271 13.9782 62.697 14.1808 62.652 14.4058H54.5956C54.663 14.687 54.7607 14.9497 54.8896 15.1933C55.1596 15.7032 55.5421 16.1007 56.0371 16.3857C56.5321 16.6557 57.1022 16.7908 57.7472 16.7908C58.3021 16.7908 58.8121 16.6932 59.277 16.4982C59.757 16.3032 60.1622 16.018 60.4922 15.6431L62.0672 17.2406C61.5422 17.8555 60.9047 18.3207 60.1547 18.6356C59.4047 18.9506 58.6096 19.1082 57.7696 19.1082C56.6897 19.1082 55.7147 18.8683 54.8447 18.3883C53.9897 17.8933 53.3071 17.2182 52.7971 16.3632C52.3022 15.5082 52.0548 14.5482 52.0548 13.4832C52.0548 12.4182 52.3022 11.4656 52.7971 10.6256C53.2921 9.77067 53.9598 9.0958 54.7998 8.60082C55.6548 8.10585 56.5997 7.85822 57.6346 7.85821ZM57.5897 10.1307C56.9597 10.1307 56.4122 10.2658 55.9473 10.5358C55.4823 10.8058 55.1222 11.1883 54.8672 11.6833C54.7539 11.8965 54.6662 12.129 54.6032 12.3807H60.351C60.2861 12.0627 60.1906 11.7778 60.0646 11.5257C59.8396 11.0758 59.5171 10.7306 59.0971 10.4906C58.6921 10.2506 58.1896 10.1307 57.5897 10.1307Z" fill="#737373"/>
<path d="M78.0724 14.2483C78.0724 14.7732 78.1547 15.2232 78.3197 15.5981C78.4997 15.9581 78.7548 16.2356 79.0848 16.4306C79.4297 16.6256 79.8346 16.7231 80.2996 16.7231C81.0196 16.7231 81.5673 16.5131 81.9423 16.0931C82.3322 15.6581 82.5271 15.0432 82.5271 14.2483V8.08338H85.0023V14.3608C85.0023 15.3058 84.7997 16.1382 84.3947 16.8582C84.0048 17.5631 83.4572 18.1181 82.7523 18.5231C82.0473 18.9131 81.2296 19.1082 80.2996 19.1082C79.3846 19.1081 78.5671 18.9056 77.8472 18.5006C77.1422 18.0956 76.5873 17.5407 76.1823 16.8357C75.7923 16.1158 75.5972 15.2908 75.5972 14.3608V8.08338H78.0724V14.2483Z" fill="#737373"/>
<path d="M35.9493 3.13335L41.9118 12.9477L47.8742 3.13335H49.6742V18.8833H47.0867V8.79712L42.8119 15.8233H41.012L36.7369 8.79712V18.8833H34.1494V3.13335H35.9493Z" fill="#737373"/>
<path d="M67.2462 13.1612L71.6111 8.08338H74.5585L70.0078 13.2612L74.7837 18.8833H71.6336L67.2462 13.5876V18.8833H64.771V2.68329H67.2462V13.1612Z" fill="#737373"/>
<path d="M0 5.02325H21.8854L21.8854 2.814C21.8854 1.25987 20.6255 0 19.0713 0H2.81407C1.2599 0 0 1.25987 0 2.814V5.02325Z" fill="#737373"/>
<path d="M0 19.0727C0 20.6268 1.2599 21.8867 2.81407 21.8867H13.6755C12.8918 20.8841 11.6625 20.2334 10.2683 20.2318L8.42511 20.2298L8.42511 14.7659L10.2683 14.7639C12.6623 14.7613 14.5704 12.8442 14.5704 10.5191V8.67392H20.0566V10.5191C20.0566 11.9467 20.7759 13.2205 21.8854 13.9918L21.8854 6.89916L0 6.89924V19.0727Z" fill="#737373"/>
<path d="M16.417 10.5211C16.417 13.8821 13.6663 16.6073 10.2717 16.611L10.2717 18.3887C13.6663 18.3924 16.417 21.1175 16.417 24.4786H18.2128C18.2128 21.1176 20.9635 18.3924 24.358 18.3887L24.358 16.611C20.9635 16.6073 18.2128 13.8821 18.2128 10.5211H16.417Z" fill="#737373"/>
</svg>
