<svg width="132" height="24" viewBox="0 0 132 24" fill="none" xmlns="http://www.w3.org/2000/svg">
<path d="M33.0007 6.87763H37.7087V20.364H40.5247V6.87763H45.2327V4.28155H33.0007V6.87763Z" fill="#737373"/>
<path d="M48.3756 20.65C50.0696 20.65 51.5436 19.88 52.0056 18.758L52.2036 20.364H54.5576V13.7638C54.5576 10.7497 52.7536 9.16569 49.8276 9.16569C46.8796 9.16569 44.9436 10.7057 44.9436 13.0598H47.2316C47.2316 11.9158 48.1116 11.2558 49.6956 11.2558C51.0596 11.2558 51.9396 11.8498 51.9396 13.3238V13.5658L48.6836 13.8078C46.1096 14.0058 44.6576 15.2599 44.6576 17.2619C44.6576 19.308 46.0656 20.65 48.3756 20.65ZM49.2556 18.626C48.0456 18.626 47.3856 18.142 47.3856 17.1519C47.3856 16.2719 48.0236 15.7219 49.6956 15.5679L51.9616 15.3919V15.9639C51.9616 17.6359 50.9056 18.626 49.2556 18.626Z" fill="#737373"/>
<path d="M58.5364 7.31764C59.4164 7.31764 60.1424 6.59162 60.1424 5.68959C60.1424 4.78757 59.4164 4.08355 58.5364 4.08355C57.6124 4.08355 56.8864 4.78757 56.8864 5.68959C56.8864 6.59162 57.6124 7.31764 58.5364 7.31764ZM57.1944 20.364H59.8784V9.4957H57.1944V20.364Z" fill="#737373"/>
<path d="M65.3574 20.364V3.99554H62.6954V20.364H65.3574Z" fill="#737373"/>
<path d="M69.9549 20.364L71.2529 16.6459H77.2589L78.5569 20.364H81.5269L75.7189 4.28155H72.8369L67.0289 20.364H69.9549ZM73.9149 9.07769C74.0689 8.63768 74.2009 8.15367 74.2669 7.84566C74.3109 8.17567 74.4649 8.65968 74.5969 9.07769L76.4449 14.2698H72.0889L73.9149 9.07769Z" fill="#737373"/>
<path d="M87.1193 20.65C88.7693 20.65 90.1773 19.924 90.8373 18.67L91.0133 20.364H93.4773V3.99554H90.8153V10.8817C90.1333 9.80371 88.7913 9.16569 87.2733 9.16569C83.9953 9.16569 82.0153 11.5858 82.0153 14.9739C82.0153 18.34 83.9733 20.65 87.1193 20.65ZM87.7133 18.186C85.8433 18.186 84.6993 16.8219 84.6993 14.8859C84.6993 12.9498 85.8433 11.5638 87.7133 11.5638C89.5833 11.5638 90.7933 12.9278 90.7933 14.8859C90.7933 16.8439 89.5833 18.186 87.7133 18.186Z" fill="#737373"/>
<path d="M98.9584 20.364V14.2038C98.9584 12.4438 99.9924 11.6078 101.268 11.6078C102.544 11.6078 103.358 12.4218 103.358 13.9398V20.364H106.042V14.2038C106.042 12.4218 107.032 11.5858 108.33 11.5858C109.606 11.5858 110.442 12.3998 110.442 13.9618V20.364H113.104V13.2578C113.104 10.7497 111.652 9.16569 109.012 9.16569C107.362 9.16569 106.086 9.97972 105.536 11.2338C104.964 9.97972 103.82 9.16569 102.17 9.16569C100.608 9.16569 99.5084 9.86972 98.9584 10.7717L98.7384 9.4957H96.2744V20.364H98.9584Z" fill="#737373"/>
<path d="M117.081 7.31764C117.961 7.31764 118.687 6.59162 118.687 5.68959C118.687 4.78757 117.961 4.08355 117.081 4.08355C116.157 4.08355 115.431 4.78757 115.431 5.68959C115.431 6.59162 116.157 7.31764 117.081 7.31764ZM115.739 20.364H118.423V9.4957H115.739V20.364Z" fill="#737373"/>
<path d="M123.88 20.364V14.5119C123.88 12.7518 124.892 11.6078 126.542 11.6078C127.928 11.6078 128.83 12.4878 128.83 14.3138V20.364H131.514V13.6758C131.514 10.8597 130.106 9.16569 127.378 9.16569C125.904 9.16569 124.584 9.80371 123.902 10.9037L123.682 9.4957H121.196V20.364H123.88Z" fill="#737373"/>
<path fill-rule="evenodd" clip-rule="evenodd" d="M17.6843 0C21.1724 2.13757e-05 24 2.8277 24 6.3159V17.6841C24 21.1723 21.1724 24 17.6843 24H6.31571C2.82764 23.9999 0 21.1723 0 17.6841V6.3159C0 2.82772 2.82764 5.30752e-05 6.31571 0H17.6843ZM7.57858 5.05368C6.88119 5.05384 6.31587 5.61918 6.31571 6.31659V17.6855C6.31571 18.383 6.88109 18.9489 7.57858 18.9491C8.2762 18.9491 8.84214 18.3831 8.84214 17.6855V6.31659C8.84198 5.61908 8.2761 5.05368 7.57858 5.05368ZM12.3164 10.1046C11.6188 10.1046 11.0528 10.6706 11.0528 11.3682V17.6841C11.053 18.3816 11.6189 18.947 12.3164 18.947C13.0138 18.9468 13.5791 18.3815 13.5793 17.6841V11.3682C13.5793 10.6707 13.0139 10.1048 12.3164 10.1046ZM17.0521 6.94597C16.3545 6.94597 15.7886 7.51192 15.7886 8.20957V17.6834C15.7886 18.381 16.3545 18.9463 17.0521 18.9463C17.7497 18.9463 18.315 18.381 18.315 17.6834V8.20957C18.315 7.51195 17.7497 6.94601 17.0521 6.94597Z" fill="#737373"/>
</svg>
