<svg width="102" height="24" viewBox="0 0 102 24" fill="none" xmlns="http://www.w3.org/2000/svg">
<g clip-path="url(#clip0_17189_4022)">
<path d="M20.5001 8.84357V16.3868C20.5001 17.9195 19.7124 19.3435 18.4164 20.1584L12.3515 23.9727C12.2235 24.0541 12.0527 23.961 12.0527 23.8097V21.1401C12.0527 20.7016 12.2701 20.2942 12.6348 20.0497L16.5034 17.4694C17.0428 17.1085 17.3687 16.5032 17.3687 15.8552V10.6556C17.3687 10.2404 17.5899 9.8563 17.9507 9.64675L19.918 8.51369C20.178 8.36628 20.5001 8.55254 20.5001 8.85127V8.84357Z" fill="#737373"/>
<path d="M20.0299 6.58282L11.4623 11.5302C10.8608 11.8755 10.4922 12.5157 10.4922 13.2104V23.6327C10.4922 23.784 10.3292 23.8772 10.2012 23.7995L2.26219 19.1821C0.861417 18.3672 0 16.8733 0 15.2514V8.94202C0 7.04072 1.01275 5.28297 2.66185 4.3323L9.88686 0.15715C10.2477 -0.0523834 10.6901 -0.0523834 11.051 0.15715L12.8591 1.20094C13.2472 1.42599 13.2472 1.98475 12.8591 2.20981L4.23336 7.18819C3.63192 7.53354 3.26329 8.17377 3.26329 8.86832V14.8672C3.26329 15.5618 3.63192 16.202 4.23336 16.5474L7.09313 18.1965C7.15522 18.2313 7.22892 18.1887 7.22892 18.1189V12.1588C7.22892 10.9482 7.87301 9.83451 8.92074 9.2292L17.2089 4.44483C17.5969 4.21978 18.0781 4.23918 18.4467 4.4914L20.0648 5.59727C20.4179 5.83784 20.3985 6.36556 20.026 6.58282H20.0299Z" fill="#737373"/>
<path d="M29.8306 5.50616H32.5975V13.0214C32.5975 13.6382 32.6819 14.1881 32.8507 14.6711C33.0194 15.1482 33.2696 15.5527 33.6013 15.8844C33.9388 16.2161 34.3549 16.4692 34.8495 16.6438C35.3441 16.8125 35.9202 16.8969 36.5777 16.8969C37.2295 16.8969 37.8026 16.8125 38.2973 16.6438C38.7977 16.4692 39.2137 16.2161 39.5455 15.8844C39.8829 15.5527 40.136 15.1482 40.3048 14.6711C40.4736 14.1881 40.5579 13.6382 40.5579 13.0214V5.50616H43.3249V13.3531C43.3249 14.2493 43.1736 15.0639 42.871 15.7971C42.5684 16.5303 42.1291 17.1588 41.553 17.6825C40.9769 18.2062 40.2699 18.6106 39.432 18.8957C38.5999 19.1808 37.6484 19.3234 36.5777 19.3234C35.507 19.3234 34.5527 19.1808 33.7148 18.8957C32.8827 18.6106 32.1785 18.2062 31.6025 17.6825C31.0264 17.1588 30.5871 16.5303 30.2845 15.7971C29.9819 15.0639 29.8306 14.2493 29.8306 13.3531V5.50616Z" fill="#737373"/>
<path d="M45.2383 5.50616H48.0227V19.1489H45.2383V5.50616Z" fill="#737373"/>
<path d="M49.3223 14.043C49.3223 13.2225 49.4765 12.4835 49.7849 11.826C50.0933 11.1626 50.5181 10.5981 51.0592 10.1327C51.6062 9.66131 52.2522 9.30049 52.997 9.05032C53.7476 8.79428 54.5594 8.66626 55.4322 8.66626C55.8047 8.66626 56.1712 8.6895 56.5321 8.73605C56.8986 8.7826 57.2478 8.84664 57.5795 8.92811C57.917 9.00959 58.2312 9.10849 58.5222 9.22489C58.8189 9.33542 59.0808 9.45763 59.3077 9.59146V4.66858H61.8913V19.1492H59.3077V18.1803C59.0808 18.3374 58.8131 18.4858 58.5047 18.6255C58.1963 18.7651 57.8646 18.8874 57.5096 18.9921C57.1547 19.0968 56.7852 19.1783 56.4011 19.2365C56.0229 19.3005 55.6475 19.3325 55.2752 19.3325C54.4023 19.3325 53.5993 19.2045 52.8661 18.9484C52.1387 18.6924 51.5132 18.3316 50.9894 17.8661C50.4657 17.4006 50.0555 16.8448 49.7587 16.199C49.4678 15.5472 49.3223 14.8286 49.3223 14.043ZM52.0369 14.043C52.0369 14.4561 52.1183 14.846 52.2813 15.2126C52.45 15.5792 52.6886 15.9022 52.997 16.1815C53.3112 16.455 53.6865 16.6732 54.123 16.8361C54.5652 16.9932 55.0598 17.0718 55.6068 17.0718C55.9559 17.0718 56.3051 17.0398 56.6543 16.9758C57.0034 16.906 57.338 16.81 57.658 16.6878C57.9839 16.5655 58.2865 16.4172 58.5658 16.2426C58.8509 16.068 59.0982 15.8731 59.3077 15.6578V12.0878C59.0459 11.8783 58.7694 11.7009 58.4785 11.5554C58.1876 11.4099 57.8908 11.2906 57.5882 11.1975C57.2856 11.1044 56.9801 11.0375 56.6717 10.9967C56.3633 10.9502 56.0636 10.9269 55.7726 10.9269C55.1791 10.9269 54.6496 11.0084 54.184 11.1713C53.7244 11.3284 53.3345 11.5466 53.0144 11.826C52.7002 12.1053 52.4588 12.4341 52.29 12.8123C52.1212 13.1905 52.0369 13.6008 52.0369 14.043Z" fill="#737373"/>
<path d="M63.4531 13.9647C63.4531 13.2664 63.5952 12.6001 63.8807 11.9659C64.1655 11.3258 64.5761 10.7613 65.111 10.2725C65.6466 9.7837 66.3015 9.39383 67.0752 9.10293C67.8552 8.81196 68.7394 8.6665 69.7285 8.6665C70.7119 8.6665 71.5967 8.81486 72.3824 9.11164C73.1738 9.40261 73.8426 9.8041 74.3895 10.3162C74.9428 10.8283 75.3647 11.4305 75.6552 12.1229C75.9521 12.8154 76.1005 13.5574 76.1005 14.3488C76.1005 14.4477 76.0973 14.5553 76.0916 14.6717C76.0916 14.7823 76.086 14.8841 76.0746 14.9772H66.3331C66.4436 15.2856 66.6211 15.5678 66.8655 15.8239C67.1163 16.0799 67.427 16.301 67.7996 16.4872C68.1723 16.6735 68.603 16.8189 69.0912 16.9236C69.5801 17.0226 70.1213 17.0721 70.715 17.0721C71.3087 17.0721 71.8992 17.0109 72.4872 16.8887C73.0746 16.7608 73.6361 16.6007 74.1716 16.4087L75.0445 18.3813C74.7066 18.5385 74.3637 18.6781 74.0144 18.8003C73.6708 18.9167 73.3102 19.0156 72.9319 19.097C72.5599 19.1727 72.167 19.2309 71.754 19.2717C71.3466 19.3123 70.9159 19.3327 70.4618 19.3327C69.3041 19.3327 68.2885 19.1931 67.4156 18.9137C66.5428 18.6345 65.8127 18.2533 65.2247 17.7703C64.6373 17.2874 64.1946 16.72 63.8978 16.0683C63.6015 15.4166 63.4531 14.7153 63.4531 13.9647ZM73.3601 12.9609C73.2666 12.6758 73.1213 12.411 72.9236 12.1666C72.731 11.9164 72.4898 11.7011 72.1986 11.5207C71.9081 11.3345 71.5702 11.189 71.1862 11.0843C70.8022 10.9795 70.3803 10.9272 69.9205 10.9272C69.4316 10.9272 68.987 10.9824 68.5853 11.093C68.1837 11.2036 67.8319 11.352 67.5293 11.5382C67.2268 11.7244 66.9735 11.9397 66.7695 12.1841C66.5719 12.4285 66.4266 12.6874 66.3331 12.9609H73.3601Z" fill="#737373"/>
<path d="M77.1484 14.0258C77.1484 13.2693 77.2855 12.5652 77.559 11.9135C77.8381 11.2559 78.243 10.6886 78.7722 10.2114C79.3078 9.72844 79.9596 9.35019 80.7276 9.07671C81.5013 8.80324 82.383 8.6665 83.372 8.6665C83.8028 8.6665 84.236 8.69265 84.6724 8.74501C85.1089 8.79743 85.5282 8.87303 85.9299 8.972C86.3366 9.06509 86.7181 9.17853 87.0731 9.31242C87.428 9.44044 87.7362 9.58299 87.9983 9.74006L86.8027 11.6865C86.2381 11.4247 85.7025 11.2327 85.1966 11.1105C84.6958 10.9883 84.1868 10.9272 83.6689 10.9272C83.0752 10.9272 82.5428 11.0057 82.0716 11.1628C81.6004 11.3141 81.1988 11.5295 80.8672 11.8087C80.5413 12.0823 80.2912 12.4081 80.1162 12.7864C79.9476 13.1587 79.8636 13.5661 79.8636 14.0083C79.8636 14.4506 79.9533 14.8608 80.1339 15.239C80.3202 15.6115 80.5792 15.9344 80.9108 16.2079C81.248 16.4756 81.6529 16.688 82.124 16.8451C82.6009 16.9964 83.1308 17.0721 83.7124 17.0721C84.3529 17.0721 84.9548 16.9819 85.5194 16.8014C86.0897 16.6211 86.619 16.3796 87.1078 16.077L88.304 18.0235C87.9952 18.2097 87.6611 18.3842 87.2998 18.5472C86.9392 18.7043 86.552 18.8411 86.139 18.9574C85.7316 19.0738 85.3009 19.164 84.8474 19.228C84.399 19.2978 83.9335 19.3327 83.451 19.3327C82.4676 19.3327 81.5859 19.1989 80.8059 18.9312C80.0265 18.6635 79.3659 18.294 78.8246 17.8227C78.2834 17.3455 77.8672 16.784 77.5766 16.1381C77.2912 15.4922 77.1484 14.7881 77.1484 14.0258Z" fill="#737373"/>
<path d="M89.9795 4.66858H92.5633V13.2225L97.3816 8.84954H101.335L95.9498 13.6677L101.676 19.1492H97.8003L93.9686 15.4396L92.5633 16.6965V19.1492H89.9795V4.66858Z" fill="#737373"/>
</g>
<defs>
<clipPath id="clip0_17189_4022">
<rect width="101.684" height="24" fill="white"/>
</clipPath>
</defs>
</svg>
