<svg width="112" height="29" viewBox="0 0 112 29" fill="none" xmlns="http://www.w3.org/2000/svg">
<g clip-path="url(#clip0_17189_4021)">
<g clip-path="url(#clip1_17189_4021)">
<g opacity="0.7">
<path d="M87.0781 21.5273C86.8786 21.5273 86.7155 21.4596 86.5881 21.3242C86.4607 21.1888 86.397 21.0255 86.397 20.8344C86.397 20.6432 86.4607 20.4839 86.5881 20.3565C86.7155 20.221 86.8786 20.1533 87.0781 20.1533C87.2692 20.1533 87.4281 20.221 87.5555 20.3565C87.6829 20.4839 87.7466 20.6432 87.7466 20.8344C87.7466 21.0255 87.6829 21.1888 87.5555 21.3242C87.4281 21.4596 87.2692 21.5273 87.0781 21.5273Z" fill="#737373"/>
<path d="M89.2585 21.4078V15.7925H90.095V21.4078H89.2585ZM90.095 18.1342L89.7485 17.9789C89.7485 17.27 89.9193 16.7085 90.2623 16.2943C90.6123 15.8801 91.0904 15.673 91.6959 15.673C91.9745 15.673 92.2293 15.7248 92.4603 15.8284C92.6913 15.9239 92.9062 16.0792 93.1057 16.2943L92.5562 16.8797C92.4204 16.7284 92.2692 16.6208 92.1019 16.5571C91.9423 16.4934 91.7596 16.4616 91.5524 16.4616C91.1219 16.4616 90.7719 16.6049 90.501 16.8917C90.2301 17.1704 90.095 17.5846 90.095 18.1342Z" fill="#737373"/>
<path d="M96.2178 21.5273C95.7635 21.5273 95.3575 21.4238 94.9991 21.2167C94.6407 21.0016 94.3579 20.7109 94.1507 20.3445C93.9512 19.9781 93.8518 19.548 93.8518 19.0542V15.7925H94.7002V19.0184C94.7002 19.3608 94.7597 19.6595 94.8794 19.9144C95.0068 20.1693 95.186 20.3684 95.417 20.5118C95.648 20.6552 95.9147 20.7268 96.2178 20.7268C96.6875 20.7268 97.0578 20.5715 97.3287 20.2609C97.6073 19.9503 97.7466 19.5361 97.7466 19.0184V15.7925H98.5831V19.0542C98.5831 19.5401 98.4837 19.9701 98.2842 20.3445C98.0854 20.7189 97.8068 21.0096 97.4484 21.2167C97.09 21.4238 96.6798 21.5273 96.2178 21.5273Z" fill="#737373"/>
<path d="M104.23 21.4078V18.1103C104.23 17.6164 104.083 17.2182 103.788 16.9155C103.501 16.6049 103.119 16.4496 102.641 16.4496C102.315 16.4496 102.028 16.5213 101.781 16.6647C101.534 16.808 101.339 17.0032 101.195 17.2501C101.052 17.497 100.981 17.7798 100.981 18.0983L100.598 17.8833C100.598 17.4612 100.698 17.0828 100.897 16.7483C101.096 16.4138 101.363 16.1509 101.697 15.9598C102.04 15.7686 102.43 15.673 102.868 15.673C103.298 15.673 103.68 15.7766 104.015 15.9836C104.35 16.1908 104.609 16.4695 104.791 16.82C104.982 17.1704 105.078 17.5527 105.078 17.9669V21.4078H104.23ZM100.144 21.4078V15.7925H100.981V21.4078H100.144Z" fill="#737373"/>
</g>
<path d="M38.3654 21.5271C37.2518 21.5271 36.2919 21.3479 35.4855 20.9895C34.6918 20.6183 33.9623 20.0614 33.2966 19.3191L35.255 17.3799C35.6902 17.8791 36.1702 18.2694 36.6951 18.5511C37.2327 18.8199 37.8534 18.9543 38.5574 18.9543C39.1974 18.9543 39.6902 18.8391 40.0358 18.6087C40.3942 18.3783 40.5734 18.0583 40.5734 17.6487C40.5734 17.2775 40.4583 16.9767 40.2278 16.7462C39.9975 16.5159 39.6902 16.3175 39.3063 16.1511C38.9351 15.9846 38.5191 15.8247 38.0582 15.671C37.6102 15.5175 37.1622 15.3447 36.7142 15.1527C36.2662 14.9479 35.8502 14.6982 35.4662 14.4039C35.095 14.0967 34.7942 13.7191 34.5638 13.2711C34.3334 12.8103 34.2183 12.2343 34.2183 11.5431C34.2183 10.711 34.4166 9.99425 34.8135 9.39267C35.223 8.79109 35.7863 8.33665 36.5031 8.02949C37.2199 7.70945 38.0454 7.5495 38.9799 7.5495C39.927 7.5495 40.791 7.71589 41.5718 8.04867C42.3654 8.38145 43.0182 8.83589 43.5302 9.41185L41.5718 11.3511C41.1623 10.9287 40.7462 10.6151 40.3239 10.4103C39.9142 10.2054 39.447 10.1031 38.9223 10.1031C38.3975 10.1031 37.9815 10.2054 37.6742 10.4103C37.3671 10.6023 37.2134 10.8839 37.2134 11.2551C37.2134 11.6007 37.3286 11.8823 37.559 12.0998C37.7894 12.3047 38.0902 12.4839 38.4614 12.6374C38.8455 12.7911 39.2615 12.9447 39.7095 13.0983C40.1702 13.2518 40.6247 13.431 41.0727 13.6359C41.5207 13.8407 41.9302 14.103 42.3014 14.4231C42.6855 14.7302 42.9926 15.1271 43.2231 15.6135C43.4534 16.0871 43.5686 16.6759 43.5686 17.3799C43.5686 18.6726 43.1078 19.6903 42.1862 20.4327C41.2647 21.1623 39.991 21.5271 38.3654 21.5271Z" fill="#737373"/>
<path d="M46.3528 21.3159V9.72548L49.2903 8.12549V21.3159H46.3528ZM44.2407 14.4807V11.9847H51.4024V14.4807H44.2407Z" fill="#737373"/>
<path d="M56.2148 21.5079C55.3573 21.5079 54.5892 21.2967 53.9109 20.8743C53.2452 20.4519 52.7141 19.8759 52.3172 19.1463C51.9332 18.4167 51.7412 17.5847 51.7412 16.6503C51.7412 15.7159 51.9332 14.8839 52.3172 14.1543C52.7141 13.4247 53.2452 12.8487 53.9109 12.4263C54.5892 12.0039 55.3573 11.7927 56.2148 11.7927C56.842 11.7927 57.4053 11.9143 57.9044 12.1575C58.4164 12.4007 58.8324 12.7399 59.1525 13.1751C59.4724 13.5975 59.6516 14.0839 59.6901 14.6343V18.6663C59.6516 19.2167 59.4724 19.7095 59.1525 20.1447C58.8452 20.5671 58.4357 20.8999 57.9236 21.1431C57.4116 21.3863 56.842 21.5079 56.2148 21.5079ZM56.81 18.8583C57.4372 18.8583 57.9429 18.6535 58.3268 18.2439C58.7108 17.8215 58.9028 17.2903 58.9028 16.6503C58.9028 16.2151 58.8132 15.8311 58.634 15.4983C58.4677 15.1655 58.2245 14.9095 57.9044 14.7303C57.5973 14.5383 57.2389 14.4423 56.8292 14.4423C56.4197 14.4423 56.0548 14.5383 55.7349 14.7303C55.4276 14.9095 55.1781 15.1655 54.9861 15.4983C54.8069 15.8311 54.7173 16.2151 54.7173 16.6503C54.7173 17.0727 54.8069 17.4503 54.9861 17.7831C55.1653 18.1159 55.4148 18.3783 55.7349 18.5703C56.0548 18.7623 56.4132 18.8583 56.81 18.8583ZM58.7876 21.3159V18.8007L59.2292 16.5351L58.7876 14.2695V11.9847H61.6676V21.3159H58.7876Z" fill="#737373"/>
<path d="M64.8689 21.3159V9.72548L67.8065 8.12549V21.3159H64.8689ZM62.7568 14.4807V11.9847H69.9185V14.4807H62.7568Z" fill="#737373"/>
<path d="M71.0208 21.3158V11.9847H73.9587V21.3158H71.0208ZM72.4992 10.6982C72.0386 10.6982 71.6543 10.5446 71.347 10.2375C71.053 9.91745 70.9053 9.53343 70.9053 9.08543C70.9053 8.62469 71.053 8.24067 71.347 7.93344C71.6543 7.62628 72.0386 7.47266 72.4992 7.47266C72.9598 7.47266 73.3378 7.62628 73.6318 7.93344C73.9265 8.24067 74.0735 8.62469 74.0735 9.08543C74.0735 9.53343 73.9265 9.91745 73.6318 10.2375C73.3378 10.5446 72.9598 10.6982 72.4992 10.6982Z" fill="#737373"/>
<path d="M80.3468 21.527C79.3871 21.527 78.5163 21.3158 77.7358 20.8934C76.9546 20.471 76.3407 19.8886 75.8927 19.1462C75.4447 18.4038 75.2207 17.5718 75.2207 16.6502C75.2207 15.7158 75.4447 14.8838 75.8927 14.1542C76.3533 13.4118 76.9742 12.8294 77.7547 12.407C78.5359 11.9846 79.4123 11.7734 80.3853 11.7734C81.1147 11.7734 81.7804 11.9014 82.3824 12.1574C82.9963 12.4006 83.5402 12.7718 84.0141 13.271L82.1325 15.1526C81.9148 14.9094 81.6586 14.7302 81.3646 14.615C81.0832 14.4998 80.7563 14.4422 80.3853 14.4422C79.9632 14.4422 79.5852 14.5382 79.2527 14.7302C78.9328 14.9094 78.6766 15.1654 78.4848 15.4982C78.3056 15.8182 78.216 16.1958 78.216 16.631C78.216 17.0662 78.3056 17.4502 78.4848 17.783C78.6766 18.1158 78.9391 18.3782 79.2716 18.5702C79.6048 18.7622 79.9758 18.8582 80.3853 18.8582C80.7696 18.8582 81.1084 18.7942 81.4031 18.6662C81.7104 18.5254 81.9722 18.3334 82.1899 18.0902L84.0526 19.9718C83.5661 20.4838 83.0159 20.8742 82.4013 21.143C81.7867 21.399 81.1021 21.527 80.3468 21.527Z" fill="#737373"/>
<path d="M7.65016 3.29999C6.20285 3.29999 4.87118 4.09067 4.17836 5.36138L0 13.0249H7.29428C7.6678 13.0249 8.02774 12.8849 8.30312 12.6326L16.5781 5.05009L13.2639 11.9551C13.026 12.4508 13.3873 13.0249 13.9371 13.0249H19.3958C22.0812 13.0249 24.2582 10.8479 24.2582 8.16247C24.2582 5.47698 22.0812 3.29999 19.3958 3.29999H7.65016Z" fill="#737373"/>
<path d="M18.1796 25.7C19.6269 25.7 20.9586 24.9093 21.6514 23.6386L25.8297 15.9751H18.5355C18.162 15.9751 17.8021 16.1151 17.5266 16.3674L9.25169 23.9498L12.5658 17.0448C12.8038 16.5492 12.4425 15.9751 11.8927 15.9751H6.43398C3.74853 15.9751 1.57153 18.1521 1.57153 20.8375C1.57153 23.523 3.74853 25.7 6.43398 25.7H18.1796Z" fill="#737373"/>
</g>
</g>
<defs>
<clipPath id="clip0_17189_4021">
<rect width="112" height="29" fill="white"/>
</clipPath>
<clipPath id="clip1_17189_4021">
<rect width="107.8" height="28" fill="white" transform="translate(0 0.5)"/>
</clipPath>
</defs>
</svg>
