<svg width="131" height="31" viewBox="0 0 131 31" fill="none" xmlns="http://www.w3.org/2000/svg">
<path d="M21.8587 0H9.74885L0 9.36584V21L9.74885 30.3659H21.8587L31.6076 21V9.36584L21.8587 0ZM11.4244 21.1463L5.17908 15.1463L11.4244 9.14634C13.7855 6.87805 17.6698 6.87805 20.0308 9.14634L26.2762 15.1463L20.0308 21.1463C17.6698 23.4146 13.8616 23.4146 11.4244 21.1463Z" fill="currentColor"/>
<path d="M50.4133 24.8123C49.0667 24.8123 47.8052 24.5794 46.629 24.1138C45.4528 23.6315 44.4215 22.958 43.5351 22.0932C42.6658 21.2284 41.9839 20.2139 41.4896 19.0498C40.9952 17.869 40.748 16.5884 40.748 15.2081C40.748 13.8111 40.9952 12.5306 41.4896 11.3665C41.9839 10.2023 42.6658 9.18785 43.5351 8.32306C44.4215 7.45827 45.4443 6.79305 46.6035 6.32739C47.7797 5.86173 49.0496 5.62891 50.4133 5.62891C51.777 5.62891 53.0385 5.87005 54.1976 6.35234C55.3738 6.81799 56.3966 7.48321 57.2659 8.348C58.1523 9.19616 58.8427 10.2023 59.3371 11.3665C59.8485 12.5306 60.1042 13.8111 60.1042 15.2081C60.1042 16.5884 59.8485 17.869 59.3371 19.0498C58.8427 20.2139 58.1523 21.2284 57.2659 22.0932C56.3966 22.958 55.3738 23.6315 54.1976 24.1138C53.0385 24.5794 51.777 24.8123 50.4133 24.8123ZM50.4133 22.5422C51.4702 22.5422 52.4333 22.3593 53.3027 21.9934C54.172 21.6109 54.9221 21.087 55.5528 20.4218C56.2005 19.7399 56.6949 18.9583 57.0358 18.0769C57.3938 17.1788 57.5728 16.2226 57.5728 15.2081C57.5728 14.1936 57.3938 13.2457 57.0358 12.3643C56.6949 11.4829 56.2005 10.7095 55.5528 10.0443C54.9221 9.36247 54.172 8.83861 53.3027 8.47273C52.4333 8.09023 51.4702 7.89898 50.4133 7.89898C49.3735 7.89898 48.4189 8.09023 47.5495 8.47273C46.6802 8.83861 45.9216 9.36247 45.2738 10.0443C44.6431 10.7095 44.1488 11.4829 43.7908 12.3643C43.4328 13.2457 43.2539 14.1936 43.2539 15.2081C43.2539 16.2226 43.4328 17.1788 43.7908 18.0769C44.1488 18.9583 44.6431 19.7399 45.2738 20.4218C45.9216 21.087 46.6802 21.6109 47.5495 21.9934C48.4189 22.3593 49.3735 22.5422 50.4133 22.5422Z" fill="currentColor"/>
<path d="M63.4775 24.5129V11.0671H65.8044V13.5367L65.5487 13.1875C65.8725 12.4225 66.3669 11.8571 67.0317 11.4912C67.6965 11.1087 68.5062 10.9174 69.4608 10.9174H70.3046V13.1127H69.1028C68.1312 13.1127 67.347 13.412 66.7504 14.0107C66.1538 14.5928 65.8555 15.4243 65.8555 16.5053V24.5129H63.4775Z" fill="currentColor"/>
<path d="M72.4169 24.5129V11.0671H74.7948V24.5129H72.4169ZM72.4169 8.92176V5.92826H74.7948V8.92176H72.4169Z" fill="currentColor"/>
<path d="M85.056 30.001C84.0843 30.001 83.1809 29.8513 82.3456 29.552C81.5274 29.2526 80.82 28.8369 80.2234 28.3047C79.6438 27.7891 79.2006 27.1821 78.8937 26.4836L81.1183 25.4858C81.3569 26.1178 81.8087 26.6499 82.4735 27.0823C83.1553 27.5314 84.0076 27.7559 85.0304 27.7559C85.8145 27.7559 86.522 27.6062 87.1527 27.3068C87.8004 27.0241 88.3118 26.5917 88.6869 26.0097C89.0619 25.4442 89.2494 24.7541 89.2494 23.9392V20.9207L89.6841 21.3697C89.2068 22.2844 88.5164 22.9829 87.6129 23.4652C86.7265 23.9475 85.7464 24.1886 84.6724 24.1886C83.3769 24.1886 82.2178 23.8976 81.195 23.3155C80.1722 22.7168 79.371 21.9102 78.7915 20.8958C78.2119 19.8647 77.9221 18.7255 77.9221 17.4782C77.9221 16.2143 78.2119 15.0751 78.7915 14.0606C79.371 13.0461 80.1637 12.2479 81.1694 11.6658C82.1922 11.0671 83.3514 10.7678 84.6469 10.7678C85.7208 10.7678 86.6924 11.0089 87.5618 11.4912C88.4482 11.9568 89.1556 12.6054 89.6841 13.437L89.3261 14.0606V11.0671H91.6529V23.9392C91.6529 25.1033 91.3716 26.1427 90.8091 27.0574C90.2466 27.9721 89.4625 28.6872 88.4567 29.2027C87.468 29.7349 86.3345 30.001 85.056 30.001ZM84.877 21.9435C85.6952 21.9435 86.4282 21.7439 87.076 21.3448C87.7408 20.9457 88.2692 20.4135 88.6613 19.7483C89.0533 19.0664 89.2494 18.3097 89.2494 17.4782C89.2494 16.6633 89.0533 15.9149 88.6613 15.2331C88.2692 14.5512 87.7408 14.0107 87.076 13.6116C86.4282 13.2124 85.6952 13.0129 84.877 13.0129C84.0417 13.0129 83.2832 13.2124 82.6013 13.6116C81.9195 14.0107 81.3825 14.5512 80.9904 15.2331C80.6154 15.8983 80.4279 16.6467 80.4279 17.4782C80.4279 18.3097 80.6154 19.0664 80.9904 19.7483C81.3825 20.4135 81.9109 20.9457 82.5757 21.3448C83.2576 21.7439 84.0247 21.9435 84.877 21.9435Z" fill="currentColor"/>
<path d="M95.3395 24.5129V11.0671H97.7175V24.5129H95.3395ZM95.3395 8.92176V5.92826H97.7175V8.92176H95.3395Z" fill="currentColor"/>
<path d="M101.407 24.5129V11.0671H103.734V13.6864L103.351 13.4619C103.691 12.6137 104.237 11.9568 104.987 11.4912C105.754 11.0089 106.649 10.7678 107.672 10.7678C108.66 10.7678 109.538 10.9839 110.305 11.4163C111.09 11.8487 111.703 12.4474 112.146 13.2124C112.607 13.9775 112.837 14.8422 112.837 15.8068V24.5129H110.433V16.5552C110.433 15.8068 110.297 15.1749 110.024 14.6593C109.751 14.1438 109.359 13.7446 108.848 13.4619C108.354 13.1626 107.783 13.0129 107.135 13.0129C106.487 13.0129 105.908 13.1626 105.396 13.4619C104.902 13.7446 104.51 14.1521 104.22 14.6842C103.93 15.1998 103.785 15.8234 103.785 16.5552V24.5129H101.407Z" fill="currentColor"/>
<path d="M114.68 24.5129L120.893 15.0834L114.833 5.92826H117.697L122.837 13.7363H121.763L126.902 5.92826H129.766L123.706 15.0834L129.919 24.5129H127.055L121.763 16.4305H122.837L117.518 24.5129H114.68Z" fill="currentColor"/>
</svg>
