<svg xmlns="http://www.w3.org/2000/svg" width="194" height="32" fill="none"><path fill="#AE851F" d="M76.35 2.938A2.923 2.923 0 0 1 79.273 0c1.58 0 2.922 1.35 2.922 2.938s-1.342 2.938-2.922 2.938c-1.658 0-2.921-1.35-2.921-2.938Zm46.113 19.533a2.923 2.923 0 0 1 2.921-2.938c1.58 0 2.922 1.35 2.922 2.938s-1.342 2.938-2.922 2.938c-1.658 0-2.921-1.27-2.921-2.938ZM28.421 21.2c-2.526 0-4.264-1.985-4.264-4.843 0-2.859 1.738-4.844 4.264-4.844 2.527 0 4.264 1.985 4.264 4.844 0 2.938-1.737 4.844-4.264 4.844Zm0-14.054c-5.29 0-9.159 3.89-9.159 9.131s3.869 9.132 9.16 9.132c5.369 0 9.238-3.89 9.238-9.131s-3.948-9.132-9.239-9.132Zm42.244 9.688a4.946 4.946 0 0 0-.71-.953l-.159-.159.158-.159c.237-.238.474-.556.711-.953l4.659-6.987h-5.685l-3.554 5.479c-.237.317-.631.476-1.184.476h-.79V3.176c0-2.064-1.263-2.382-2.684-2.382h-2.37V25.33h5.054v-7.385h.474c.553 0 .948.08 1.184.397l2.764 5.32c.79 1.43 1.58 1.668 3 1.668h3.87l-2.922-4.764-1.816-3.732Zm24.557-9.688c-2.606 0-4.185 1.112-5.133 2.144l-.316.318-.078-.397c-.237-1.032-1.185-1.588-2.527-1.588h-2.29V25.33h5.053v-8.258c0-.794.08-1.509.316-2.144.553-1.906 2.132-3.097 4.027-3.097 1.58 0 2.211.794 2.211 3.018v7.702c0 1.826.869 2.7 2.685 2.7h2.369V13.974c-.079-4.447-2.211-6.829-6.317-6.829Zm-15.871.397h-2.369v17.708h4.975V10.242c0-1.826-.869-2.7-2.606-2.7ZM48.083 21.2c-2.526 0-4.264-1.984-4.264-4.843 0-2.858 1.737-4.844 4.264-4.844s4.264 1.986 4.264 4.844c.08 2.938-1.658 4.844-4.264 4.844Zm0-14.054c-5.29 0-9.16 3.891-9.16 9.132 0 5.24 3.87 9.21 9.16 9.21 5.37 0 9.239-3.89 9.239-9.13 0-5.242-3.87-9.212-9.239-9.212ZM155.705 21.2c-2.526 0-4.264-1.984-4.264-4.843 0-2.858 1.738-4.843 4.264-4.843 2.527 0 4.264 1.985 4.264 4.843 0 2.938-1.737 4.844-4.264 4.844Zm0-14.054c-5.29 0-9.159 3.891-9.159 9.132 0 5.24 3.869 9.131 9.159 9.131 5.291.08 9.239-3.732 9.239-9.052 0-5.32-3.948-9.21-9.239-9.21Zm-43.664 13.34c-2.764 0-3.712-2.382-3.712-4.684 0-1.033.237-4.209 3.475-4.209 1.579 0 3.711.477 3.711 4.367 0 3.732-1.895 4.526-3.474 4.526Zm6.08-13.022c-.948 0-1.659.397-2.053 1.112l-.158.238-.237-.238c-.79-.715-2.29-1.509-4.659-1.509-4.659 0-7.817 3.573-7.817 8.814 0 5.24 3.237 8.973 7.975 8.973 1.579 0 2.843-.397 3.869-1.112l.395-.318v.477c0 2.382-1.5 3.652-4.264 3.652-1.342 0-2.527-.317-3.395-.635-1.027-.317-1.658-.08-2.132 1.032l-.395.953-.553 1.43.316.158c1.737.953 4.027 1.509 6.159 1.509 4.264 0 9.238-2.223 9.238-8.417V7.305l-2.289.16ZM9.708 21.042H5.602v-4.923c0-1.032.395-1.588 1.263-1.747H9.63c1.974 0 3.237 1.27 3.237 3.335.08 2.064-1.105 3.335-3.158 3.335ZM5.602 7.782V6.51c0-1.112.474-1.668 1.5-1.747h2.053c1.816 0 2.843 1.112 2.843 2.859 0 1.35-.71 3.017-2.764 3.017h-3.71l.078-2.859Zm9.317 4.922-.71-.397.632-.555c.71-.636 1.973-2.144 1.973-4.606 0-3.89-3-6.352-7.58-6.352H3.391C2.05.874.943 1.985.943 3.334v21.837h8.449c5.133 0 8.449-2.78 8.449-7.146-.079-2.303-1.106-4.368-2.922-5.32ZM187.29 7.226c-2.053 0-4.106.953-5.369 2.62l-.395.476-.316-.555c-.947-1.668-2.526-2.541-4.737-2.541-2.369 0-3.869 1.27-4.659 2.064l-.474.556-.158-.715c-.237-.952-1.105-1.508-2.448-1.508h-2.131V25.25h4.816v-7.78a9.2 9.2 0 0 1 .237-2.065c.474-1.905 1.737-3.89 3.79-3.732 1.342.16 1.974 1.112 1.974 3.097v10.48h4.817v-7.78c0-.873.079-1.509.237-2.144.394-1.826 1.737-3.653 3.711-3.653 1.5 0 2.053.874 2.053 3.097v7.861c0 1.747.789 2.541 2.527 2.541h2.289V13.896c.079-4.447-1.816-6.67-5.764-6.67Zm-43.586 11.911s-2.053 2.223-4.817 2.223c-2.448 0-4.974-1.509-4.974-4.923 0-2.938 1.974-5.003 4.737-5.003.869 0 1.895.318 2.053.874v.08c.395 1.27 1.501 1.27 1.737 1.27h2.606v-2.303c0-3.017-3.869-4.129-6.475-4.129-5.527 0-9.554 3.89-9.554 9.21s3.948 9.212 9.475 9.212c4.738 0 7.344-3.177 7.344-3.177l.158-.158-2.053-3.494-.237.318Z"/></svg>