<svg xmlns="http://www.w3.org/2000/svg" width="144" height="32" fill="none"><g clip-path="url(#a)"><mask id="b" width="144" height="30" x="0" y="3" maskUnits="userSpaceOnUse" style="mask-type:luminance"><path fill="#fff" d="M143.256 3.2H.17V32h143.086V3.2Z"/></mask><g mask="url(#b)"><path fill="#AE851F" d="M20.593 28.918H5.453A5.293 5.293 0 0 1 .17 23.623V8.483A5.29 5.29 0 0 1 5.454 3.2h15.14a5.283 5.283 0 0 1 5.283 5.284v15.14a5.278 5.278 0 0 1-5.284 5.294Z"/><path fill="#AE851F" d="M8.026 23.917v-2.495a.357.357 0 0 0-.361-.361H5.17a.357.357 0 0 0-.362.361v2.495c0 .203.158.361.362.361h2.495a.357.357 0 0 0 .36-.36Z"/><path fill="#fff" d="M21.249 21.772V9.477c0-.914-.734-1.648-1.648-1.648H7.306c-.248 0-.395.09-.553.248l-2.45 2.473c-.18.18-.056.451.214.451h11.12L8.74 17.9a.571.571 0 0 0-.18.452v1.818c0 .214.146.36.36.36h1.818c.215 0 .339-.056.452-.18l6.898-6.898v11.12c0 .271.27.396.451.215l2.473-2.461c.146-.158.237-.305.237-.553Z"/><path fill="#AE851F" d="m58.572 18.6 5.035-6.955c.147-.215.034-.43-.214-.43h-2.744c-.146 0-.338.057-.429.215l-3.319 4.844-3.398-4.844c-.09-.146-.271-.214-.43-.214H50.15a.25.25 0 0 0-.248.248c0 .057 0 .124.056.18l5.047 6.978-5.566 7.654c-.147.215-.034.43.18.43h2.766c.147 0 .339-.057.43-.215l3.85-5.543 3.905 5.543c.09.158.271.214.43.214h2.946a.25.25 0 0 0 .248-.248c0-.056-.034-.124-.056-.18l-5.566-7.678ZM47.327 5.402c.215 0 .362.146.362.36V7.83a.344.344 0 0 1-.362.361h-9.833v6.142h8.829c.214 0 .361.146.361.361v2.055a.344.344 0 0 1-.361.361h-8.829v6.729h9.833c.215 0 .362.146.362.361v2.134a.344.344 0 0 1-.362.36H35.823c-.88 0-1.546-.665-1.546-1.546v-18.2c0-.88.666-1.546 1.546-1.546h11.504Zm27.23 5.328c-2.98 0-4.56 1.31-5.475 2.53v-1.683a.343.343 0 0 0-.36-.361h-2.406a.35.35 0 0 0-.361.361v20.05c0 .215.147.362.361.362h2.438a.344.344 0 0 0 .362-.361v-6.91c.88 1.22 2.461 2.439 5.441 2.439 4.844 0 7.666-3.647 7.666-8.219 0-4.572-2.822-8.207-7.666-8.207Zm-.542 13.808c-2.98 0-5.023-2.01-5.023-5.566s2.043-5.634 5.023-5.634c2.981 0 4.991 2.066 4.991 5.634 0 3.556-2.01 5.566-4.99 5.566ZM91.82 10.73c-4.234 0-7.61 3.049-7.61 8.095 0 5.17 2.98 8.343 8.005 8.343 2.89 0 5.294-1.276 6.785-3.048.09-.09.124-.18.124-.271 0-.09-.034-.18-.124-.27L97.6 22.2a.374.374 0 0 0-.27-.124c-.091 0-.182.056-.272.146-1.152 1.254-2.653 2.315-4.81 2.315-3.15 0-4.662-1.942-4.9-4.742h11.685a.35.35 0 0 0 .362-.361v-.61c0-4.629-2.8-8.095-7.575-8.095Zm-4.358 6.695c.361-2.54 1.693-4.2 4.335-4.2 2.71 0 4.143 1.547 4.346 4.2h-8.681Zm55.443-6.209H140.5a.344.344 0 0 0-.361.36v1.706c-.915-1.22-2.495-2.53-5.543-2.53-4.775 0-7.609 3.647-7.609 8.22 0 4.572 2.834 8.218 7.609 8.218 3.048 0 4.628-1.31 5.543-2.528v1.67c0 .215.147.362.361.362h2.405a.344.344 0 0 0 .362-.361V11.576c.011-.215-.147-.361-.362-.361Zm-7.7 13.355c-2.98 0-4.99-2.066-4.99-5.633 0-3.556 2.01-5.566 4.99-5.566 2.981 0 5.024 2.01 5.024 5.566 0 3.567-2.043 5.633-5.024 5.633ZM117.291 5.402h-2.439a.344.344 0 0 0-.361.36v7.52c-.915-1.22-2.461-2.53-5.509-2.53-4.776 0-7.609 3.647-7.609 8.22 0 4.572 2.833 8.219 7.609 8.219 3.048 0 4.628-1.31 5.543-2.53v1.672c0 .214.147.36.361.36h2.405a.344.344 0 0 0 .361-.36V5.763a.344.344 0 0 0-.361-.361Zm-7.7 19.17c-2.98 0-4.99-2.066-4.99-5.634 0-3.556 2.01-5.566 4.99-5.566 2.981 0 5.024 2.01 5.024 5.566 0 3.568-2.043 5.634-5.024 5.634Zm14.327-19.17c.214 0 .361.146.361.36v2.496a.344.344 0 0 1-.361.361h-2.496a.343.343 0 0 1-.36-.361V5.763c0-.215.146-.361.36-.361h2.496Zm-.025 5.814c.215 0 .361.147.361.361v14.756a.343.343 0 0 1-.361.361h-2.439a.344.344 0 0 1-.361-.361V11.577c0-.214.147-.361.361-.361h2.439Z"/></g></g><defs><clipPath id="a"><path fill="#fff" d="M0 0h144v32H0z"/></clipPath></defs></svg>