<svg xmlns="http://www.w3.org/2000/svg" width="210" height="32" fill="none"><g clip-path="url(#a)"><path fill="#AE851F" d="M17.357 18.029a4.42 4.42 0 0 1-4.414 4.425 4.42 4.42 0 0 1-4.413-4.425 4.42 4.42 0 0 1 4.413-4.426 4.42 4.42 0 0 1 4.414 4.426Zm20.461-4.426a4.42 4.42 0 0 0-4.413 4.426 4.42 4.42 0 0 0 4.413 4.425 4.42 4.42 0 0 0 4.414-4.425 4.42 4.42 0 0 0-4.411-4.424l-.003-.001Zm12.444 4.426c0 6.886-5.573 12.469-12.443 12.469a12.372 12.372 0 0 1-8.45-3.319l-3.982 4.344-3.985-4.349a12.37 12.37 0 0 1-8.452 3.324c-6.865 0-12.436-5.583-12.436-12.47A12.45 12.45 0 0 1 4.57 8.814L.5 4.373h9.043a28.12 28.12 0 0 1 31.71 0h9.02l-4.07 4.44a12.448 12.448 0 0 1 4.059 9.216Zm-28.9 0c0-4.66-3.768-8.44-8.416-8.44-4.648 0-8.416 3.78-8.416 8.44s3.768 8.438 8.416 8.438c4.648 0 8.416-3.777 8.417-8.437v-.002Zm13.363-12.6a24.231 24.231 0 0 0-18.68 0c5.313 2.04 9.341 6.803 9.341 12.356 0-5.553 4.028-10.316 9.34-12.355Zm11.512 12.599c0-4.66-3.769-8.439-8.417-8.439s-8.416 3.778-8.416 8.439c0 4.66 3.768 8.438 8.416 8.438 4.649 0 8.417-3.778 8.417-8.438Zm26.28-5.029v-2.736h-4.185v16.292h4.185v-9.768c0-1.77 1.132-2.638 2.896-2.638h2.29v-3.886h-1.957c-1.531 0-2.863.802-3.229 2.738v-.002Zm9.108-9.182c-1.431 0-2.53 1.135-2.53 2.57 0 .673.267 1.319.74 1.795a2.525 2.525 0 0 0 3.578 0c.474-.476.74-1.122.74-1.794 0-1.435-1.098-2.571-2.529-2.571Zm-2.088 22.736h4.173v-16.29h-4.175l.002 16.29Zm24.067-8.147c0 4.65-3.758 8.421-8.392 8.421a8.06 8.06 0 0 1-4.928-1.653v6.162h-4.175V10.263h4.175v1.378a8.061 8.061 0 0 1 4.928-1.653c4.634 0 8.392 3.77 8.392 8.42v-.002Zm-4.202 0c0-.905-.267-1.79-.769-2.542a4.56 4.56 0 0 0-4.68-1.945 4.559 4.559 0 0 0-2.336 1.252 4.58 4.58 0 0 0-.989 4.986 4.57 4.57 0 0 0 1.68 2.053 4.55 4.55 0 0 0 5.757-.568 4.583 4.583 0 0 0 1.337-3.233v-.003Zm76.784-1.43-2.436-.67c-1.603-.418-2.228-.912-2.228-1.76 0-.85.877-1.408 2.133-1.408 1.257 0 2.134.786 2.134 1.79v.093h3.847v-.093c0-2.957-2.404-4.943-5.982-4.943-3.578 0-6.117 1.985-6.117 4.72 0 2.127 1.406 3.73 3.858 4.396l2.333.639c1.773.492 2.432 1.039 2.432 2.017 0 1.032-.953 1.726-2.37 1.726-1.418 0-2.472-.937-2.472-2.332v-.091h-4.085v.09c0 3.343 2.683 5.677 6.523 5.677 3.841 0 6.388-2.28 6.388-5.421.002-1.534-.685-3.55-3.957-4.426v-.003h-.001Zm-57.768-6.713h4.175v16.292h-4.175v-1.378a8.058 8.058 0 0 1-4.928 1.653c-4.637 0-8.395-3.77-8.395-8.421s3.758-8.42 8.395-8.42a8.059 8.059 0 0 1 4.927 1.654l.001-1.38Zm0 8.147c0-.905-.267-1.789-.768-2.541a4.563 4.563 0 0 0-2.047-1.685 4.546 4.546 0 0 0-4.97.992 4.585 4.585 0 0 0 .692 7.038 4.547 4.547 0 0 0 5.759-.57 4.584 4.584 0 0 0 1.335-3.236v.002h-.001Zm19.256-13.946h4.175v22.09h-4.175v-1.377a8.061 8.061 0 0 1-4.928 1.653c-4.636 0-8.395-3.77-8.395-8.421s3.759-8.42 8.395-8.42a8.061 8.061 0 0 1 4.928 1.652V4.464Zm0 13.945a4.571 4.571 0 0 0-2.815-4.226 4.547 4.547 0 0 0-4.97.99 4.578 4.578 0 0 0-.988 4.987c.345.836.929 1.55 1.679 2.052a4.55 4.55 0 0 0 5.758-.569 4.583 4.583 0 0 0 1.336-3.235Zm23.566 8.147h4.175V10.263h-4.175v16.293Zm2.085-22.74c-1.431 0-2.529 1.136-2.529 2.572 0 .672.266 1.318.741 1.794a2.522 2.522 0 0 0 3.577 0 2.543 2.543 0 0 0 .741-1.794c0-1.435-1.099-2.571-2.53-2.571Zm34.87 14.591c0 4.651-3.758 8.421-8.392 8.421-4.635 0-8.395-3.77-8.395-8.42 0-4.651 3.759-8.42 8.395-8.42 4.636 0 8.392 3.77 8.392 8.42Zm-3.835 0c0-.904-.268-1.789-.769-2.541a4.562 4.562 0 0 0-4.681-1.945 4.559 4.559 0 0 0-2.335 1.252 4.581 4.581 0 0 0 .691 7.038 4.552 4.552 0 0 0 5.758-.568 4.587 4.587 0 0 0 1.337-3.234l-.001-.002ZM70.379 4.464H54.36V8.2h5.929v18.354h4.16V8.2h5.93l-.001-3.737Zm81.012 17.63-3.715-11.831h-4.386l5.572 16.292h5.025l5.604-16.292h-4.386l-3.714 11.83ZM204.315 13v-2.737h-4.186v16.292h4.186v-9.769c0-1.77 1.132-2.638 2.895-2.638h2.29v-3.885h-1.956c-1.532 0-2.863.801-3.229 2.738Z"/></g><defs><clipPath id="a"><path fill="#fff" d="M.5 0h209v32H.5z"/></clipPath></defs></svg>