<svg width="8" height="8" viewBox="0 0 8 8" fill="none" xmlns="http://www.w3.org/2000/svg">
<path d="M5.94574 0.0611416C5.14642 0.277366 4.78441 0.828809 4.76269 1.86785L4.74966 2.47008L3.61584 2.47734L2.48203 2.48459L2.47479 3.62086L2.46755 4.75712L1.86661 4.77018C0.863117 4.79195 0.349063 5.10976 0.0913113 5.86872C-0.450256 7.46065 1.5437 8.71446 2.74267 7.53611C3.14378 7.14139 3.22053 6.91501 3.22922 6.0922L3.23501 5.53205L3.99523 5.52479L4.75545 5.51608V6.0327C4.7569 6.80907 4.84668 7.11382 5.18552 7.47226C6.46124 8.82329 8.6362 7.3344 7.8224 5.667C7.51107 5.02849 6.98544 4.76438 6.02249 4.76293H5.50843V4.01267V3.26097L6.09489 3.24791C6.89131 3.22759 7.1983 3.1173 7.55307 2.72258C8.6391 1.51231 7.50673 -0.362599 5.94574 0.0611416ZM6.70886 0.827359C7.36627 1.10308 7.25717 2.05261 6.74796 2.38156C6.63828 2.45241 6.50407 2.47008 6.3735 2.47008H6.03986H5.50843V2.03908C5.50843 1.49925 5.53739 1.33817 5.67061 1.14371C5.8994 0.809944 6.34395 0.674986 6.70886 0.827359ZM4.75545 4.00832V4.76438L3.99523 4.75567L3.23501 4.74841L3.22777 4.00106L3.21908 3.25371H3.98799H4.75545V4.00832ZM2.46755 6.05011V6.58269L2.37777 6.76264C1.97521 7.56949 0.779131 7.2778 0.776235 6.37372C0.774787 6.12993 0.842845 5.9674 1.02095 5.78745C1.2454 5.55962 1.37428 5.52624 2.01141 5.52044L2.46755 5.51753V6.05011ZM6.71031 5.60025C7.0144 5.73811 7.18961 5.98916 7.21133 6.31713C7.2736 7.28796 5.98918 7.59706 5.58518 6.70894C5.52436 6.57544 5.47368 5.67861 5.52002 5.55817C5.55043 5.47835 6.51772 5.51173 6.71031 5.60025Z" fill="white"/>
</svg>
