<svg width="14" height="14" viewBox="0 0 14 14" fill="none" xmlns="http://www.w3.org/2000/svg">
<g clip-path="url(#clip0_46_19706)">
<path d="M0.410156 7C0.410156 10.6395 3.36052 13.5898 7 13.5898C10.6395 13.5898 13.5898 10.6395 13.5898 7C13.5898 3.36052 10.6395 0.410156 7 0.410156C5.48229 0.410156 4.25195 1.64049 4.25195 3.1582V6.05664H2.61133V4.25195C1.39565 4.25195 0.410156 5.23745 0.410156 6.45312V7Z" fill="#11315D" fill-opacity="0.1" stroke="#11315D" stroke-miterlimit="10"/>
<path d="M7 11.9492C7.61161 11.9492 8.10742 11.4534 8.10742 10.8418C8.10742 10.2302 7.61161 9.73438 7 9.73438C6.38839 9.73438 5.89258 10.2302 5.89258 10.8418C5.89258 11.4534 6.38839 11.9492 7 11.9492Z" stroke="#11315D" stroke-miterlimit="10"/>
<path d="M7 4.26562C7.61161 4.26562 8.10742 3.76982 8.10742 3.1582C8.10742 2.54659 7.61161 2.05078 7 2.05078C6.38839 2.05078 5.89258 2.54659 5.89258 3.1582C5.89258 3.76982 6.38839 4.26562 7 4.26562Z" stroke="#11315D" stroke-miterlimit="10"/>
<path d="M4.78027 8.9209C4.78027 9.53252 4.28448 10.0283 3.67285 10.0283C3.06123 10.0283 2.56543 9.53252 2.56543 8.9209C2.56543 8.30927 3.06123 7.81348 3.67285 7.81348C4.28448 7.81348 4.78027 8.30927 4.78027 8.9209Z" stroke="#11315D" stroke-miterlimit="10"/>
<path d="M10.3271 6.18652C10.9388 6.18652 11.4346 5.69071 11.4346 5.0791C11.4346 4.46749 10.9388 3.97168 10.3271 3.97168C9.71554 3.97168 9.21973 4.46749 9.21973 5.0791C9.21973 5.69071 9.71554 6.18652 10.3271 6.18652Z" stroke="#11315D" stroke-miterlimit="10"/>
<path d="M11.4346 8.9209C11.4346 9.53252 10.9388 10.0283 10.3271 10.0283C9.71552 10.0283 9.21973 9.53252 9.21973 8.9209C9.21973 8.30927 9.71552 7.81348 10.3271 7.81348C10.9388 7.81348 11.4346 8.30927 11.4346 8.9209Z" stroke="#11315D" stroke-miterlimit="10"/>
</g>
<defs>
<clipPath id="clip0_46_19706">
<rect width="14" height="14" fill="white"/>
</clipPath>
</defs>
</svg>
