<svg width="63" height="11" viewBox="0 0 63 11" fill="none" xmlns="http://www.w3.org/2000/svg">
<path d="M5.838 2.492C5.782 1.96933 5.56267 1.596 5.18 1.372C4.79733 1.148 4.27467 1.036 3.612 1.036C2.87467 1.036 2.32867 1.18067 1.974 1.47C1.61933 1.75 1.442 2.156 1.442 2.688C1.442 2.98667 1.50267 3.234 1.624 3.43C1.75467 3.61667 1.918 3.77067 2.114 3.892C2.31933 4.01333 2.52933 4.11133 2.744 4.186C2.968 4.25133 3.17333 4.312 3.36 4.368L4.368 4.648C4.63867 4.72267 4.93733 4.82067 5.264 4.942C5.59067 5.054 5.90333 5.21267 6.202 5.418C6.50067 5.62333 6.74333 5.88467 6.93 6.202C7.11667 6.51 7.21 6.89733 7.21 7.364C7.21 7.924 7.07933 8.41867 6.818 8.848C6.55667 9.27733 6.15533 9.61333 5.614 9.856C5.082 10.0987 4.40533 10.22 3.584 10.22C2.45467 10.22 1.59133 9.98667 0.994 9.52C0.396667 9.044 0.0653333 8.39533 0 7.574H1.218C1.26467 7.98467 1.39067 8.30667 1.596 8.54C1.80133 8.77333 2.072 8.94133 2.408 9.044C2.75333 9.13733 3.14533 9.184 3.584 9.184C4.35867 9.184 4.956 9.03 5.376 8.722C5.80533 8.414 6.02 7.952 6.02 7.336C6.02 6.98133 5.92667 6.70133 5.74 6.496C5.56267 6.28133 5.32467 6.11333 5.026 5.992C4.72733 5.87067 4.40067 5.75867 4.046 5.656L2.786 5.306C1.99267 5.082 1.372 4.76933 0.924 4.368C0.485333 3.96667 0.266 3.42533 0.266 2.744C0.266 2.16533 0.406 1.67533 0.686 1.274C0.966 0.863333 1.36267 0.550667 1.876 0.336C2.38933 0.112 2.982 0 3.654 0C4.34467 0 4.93267 0.107333 5.418 0.322C5.91267 0.527333 6.29533 0.816666 6.566 1.19C6.846 1.56333 6.99533 1.99733 7.014 2.492H5.838Z" fill="black"/>
<path d="M11.0682 10.038H9.8642V0.14H11.0682V10.038ZM8.3522 1.162V0.14H12.5662V1.162H8.3522ZM8.3522 10.038V9.016H12.5662V10.038H8.3522Z" fill="black"/>
<path d="M18.2828 4.396L20.9568 0.14H22.3288L19.0668 5.222L18.2828 4.396ZM18.4648 5.74L15.7488 10.038H14.3768L17.6808 4.9L18.4648 5.74ZM17.5968 5.124L14.3628 0.14H15.7908L18.3808 4.242L19.1228 5.04L22.3708 10.038H20.9428L18.2408 5.754L17.5968 5.124Z" fill="black"/>
<path d="M28.8691 2.492C28.8131 1.96933 28.5938 1.596 28.2111 1.372C27.8284 1.148 27.3058 1.036 26.6431 1.036C25.9058 1.036 25.3598 1.18067 25.0051 1.47C24.6504 1.75 24.4731 2.156 24.4731 2.688C24.4731 2.98667 24.5338 3.234 24.6551 3.43C24.7858 3.61667 24.9491 3.77067 25.1451 3.892C25.3504 4.01333 25.5604 4.11133 25.7751 4.186C25.9991 4.25133 26.2044 4.312 26.3911 4.368L27.3991 4.648C27.6698 4.72267 27.9684 4.82067 28.2951 4.942C28.6218 5.054 28.9344 5.21267 29.2331 5.418C29.5318 5.62333 29.7744 5.88467 29.9611 6.202C30.1478 6.51 30.2411 6.89733 30.2411 7.364C30.2411 7.924 30.1104 8.41867 29.8491 8.848C29.5878 9.27733 29.1864 9.61333 28.6451 9.856C28.1131 10.0987 27.4364 10.22 26.6151 10.22C25.4858 10.22 24.6224 9.98667 24.0251 9.52C23.4278 9.044 23.0964 8.39533 23.0311 7.574H24.2491C24.2958 7.98467 24.4218 8.30667 24.6271 8.54C24.8324 8.77333 25.1031 8.94133 25.4391 9.044C25.7844 9.13733 26.1764 9.184 26.6151 9.184C27.3898 9.184 27.9871 9.03 28.4071 8.722C28.8364 8.414 29.0511 7.952 29.0511 7.336C29.0511 6.98133 28.9578 6.70133 28.7711 6.496C28.5938 6.28133 28.3558 6.11333 28.0571 5.992C27.7584 5.87067 27.4318 5.75867 27.0771 5.656L25.8171 5.306C25.0238 5.082 24.4031 4.76933 23.9551 4.368C23.5164 3.96667 23.2971 3.42533 23.2971 2.744C23.2971 2.16533 23.4371 1.67533 23.7171 1.274C23.9971 0.863333 24.3938 0.550667 24.9071 0.336C25.4204 0.112 26.0131 0 26.6851 0C27.3758 0 27.9638 0.107333 28.4491 0.322C28.9438 0.527333 29.3264 0.816666 29.5971 1.19C29.8771 1.56333 30.0264 1.99733 30.0451 2.492H28.8691Z" fill="black"/>
<path d="M31.5959 0.14H37.4759V1.162H32.7999V4.564H37.1539V5.572H32.7999V9.016H37.5459V10.038H31.5959V0.14Z" fill="black"/>
<path d="M46.8606 10.038H45.6566L40.5466 2.1H40.4626V10.038H39.2866V0.14H40.5046L45.6146 8.078H45.6986V0.14H46.8606V10.038Z" fill="black"/>
<path d="M54.1971 2.492C54.1411 1.96933 53.9217 1.596 53.5391 1.372C53.1564 1.148 52.6337 1.036 51.9711 1.036C51.2337 1.036 50.6877 1.18067 50.3331 1.47C49.9784 1.75 49.8011 2.156 49.8011 2.688C49.8011 2.98667 49.8617 3.234 49.9831 3.43C50.1137 3.61667 50.2771 3.77067 50.4731 3.892C50.6784 4.01333 50.8884 4.11133 51.1031 4.186C51.3271 4.25133 51.5324 4.312 51.7191 4.368L52.7271 4.648C52.9977 4.72267 53.2964 4.82067 53.6231 4.942C53.9497 5.054 54.2624 5.21267 54.5611 5.418C54.8597 5.62333 55.1024 5.88467 55.2891 6.202C55.4757 6.51 55.5691 6.89733 55.5691 7.364C55.5691 7.924 55.4384 8.41867 55.1771 8.848C54.9157 9.27733 54.5144 9.61333 53.9731 9.856C53.4411 10.0987 52.7644 10.22 51.9431 10.22C50.8137 10.22 49.9504 9.98667 49.3531 9.52C48.7557 9.044 48.4244 8.39533 48.3591 7.574H49.5771C49.6237 7.98467 49.7497 8.30667 49.9551 8.54C50.1604 8.77333 50.4311 8.94133 50.7671 9.044C51.1124 9.13733 51.5044 9.184 51.9431 9.184C52.7177 9.184 53.3151 9.03 53.7351 8.722C54.1644 8.414 54.3791 7.952 54.3791 7.336C54.3791 6.98133 54.2857 6.70133 54.0991 6.496C53.9217 6.28133 53.6837 6.11333 53.3851 5.992C53.0864 5.87067 52.7597 5.75867 52.4051 5.656L51.1451 5.306C50.3517 5.082 49.7311 4.76933 49.2831 4.368C48.8444 3.96667 48.6251 3.42533 48.6251 2.744C48.6251 2.16533 48.7651 1.67533 49.0451 1.274C49.3251 0.863333 49.7217 0.550667 50.2351 0.336C50.7484 0.112 51.3411 0 52.0131 0C52.7037 0 53.2917 0.107333 53.7771 0.322C54.2717 0.527333 54.6544 0.816666 54.9251 1.19C55.2051 1.56333 55.3544 1.99733 55.3731 2.492H54.1971Z" fill="black"/>
<path d="M56.9239 0.14H62.8039V1.162H58.1279V4.564H62.4819V5.572H58.1279V9.016H62.8739V10.038H56.9239V0.14Z" fill="black"/>
</svg>
