<svg width="155" height="28" viewBox="0 0 155 28" fill="none" xmlns="http://www.w3.org/2000/svg">
<rect x="0.5" y="1.92505" width="24.1499" height="24.1499" rx="5.5" stroke="white"/>
<path d="M39.5959 21L35.5618 6.45455H37.8701L40.7039 17.7188H40.8388L43.7863 6.45455H46.0732L49.0206 17.7259H49.1556L51.9823 6.45455H54.2976L50.2564 21H48.0476L44.9866 10.1051H44.8729L41.8118 21H39.5959ZM54.9446 21V10.0909H56.9972V11.8239H57.1108C57.3097 11.2367 57.6601 10.7751 58.162 10.4389C58.6686 10.098 59.2415 9.92756 59.8807 9.92756C60.0133 9.92756 60.1696 9.93229 60.3495 9.94176C60.5341 9.95123 60.6785 9.96307 60.7827 9.97727V12.0085C60.6975 11.9848 60.546 11.9588 60.3282 11.9304C60.1104 11.8973 59.8926 11.8807 59.6748 11.8807C59.1729 11.8807 58.7254 11.9872 58.3324 12.2003C57.9442 12.4086 57.6364 12.6998 57.4091 13.0739C57.1819 13.4432 57.0682 13.8646 57.0682 14.3381V21H54.9446ZM62.1204 21V10.0909H64.244V21H62.1204ZM63.1929 8.40767C62.8236 8.40767 62.5063 8.28456 62.2412 8.03835C61.9807 7.7874 61.8505 7.48911 61.8505 7.14347C61.8505 6.79309 61.9807 6.49479 62.2412 6.24858C62.5063 5.99763 62.8236 5.87216 63.1929 5.87216C63.5622 5.87216 63.8771 5.99763 64.1375 6.24858C64.4026 6.49479 64.5352 6.79309 64.5352 7.14347C64.5352 7.48911 64.4026 7.7874 64.1375 8.03835C63.8771 8.28456 63.5622 8.40767 63.1929 8.40767ZM71.6932 10.0909V11.7955H65.7344V10.0909H71.6932ZM67.3324 7.47727H69.456V17.7969C69.456 18.2088 69.5176 18.5189 69.6407 18.7273C69.7638 18.9309 69.9224 19.0705 70.1165 19.1463C70.3154 19.2173 70.5308 19.2528 70.7628 19.2528C70.9333 19.2528 71.0824 19.241 71.2103 19.2173C71.3381 19.1937 71.4375 19.1747 71.5086 19.1605L71.8921 20.9148C71.769 20.9621 71.5938 21.0095 71.3665 21.0568C71.1392 21.1089 70.8552 21.1373 70.5142 21.142C69.9555 21.1515 69.4347 21.0521 68.9517 20.8438C68.4688 20.6354 68.0782 20.3134 67.7799 19.8778C67.4816 19.4422 67.3324 18.8954 67.3324 18.2372V7.47727ZM78.1268 21.2202C77.052 21.2202 76.1263 20.9905 75.3498 20.5312C74.5781 20.0672 73.9815 19.4162 73.5601 18.5781C73.1434 17.7353 72.9351 16.7481 72.9351 15.6165C72.9351 14.4991 73.1434 13.5142 73.5601 12.6619C73.9815 11.8097 74.5686 11.1444 75.3214 10.6662C76.079 10.188 76.9644 9.94886 77.9777 9.94886C78.5932 9.94886 79.1898 10.0507 79.7674 10.2543C80.3451 10.4579 80.8636 10.7775 81.3228 11.2131C81.7821 11.6487 82.1443 12.2145 82.4095 12.9105C82.6746 13.6018 82.8072 14.4422 82.8072 15.4318V16.1847H74.1353V14.5938H80.7263C80.7263 14.035 80.6126 13.5402 80.3853 13.1094C80.1581 12.6738 79.8385 12.3305 79.4265 12.0795C79.0193 11.8286 78.5411 11.7031 77.9919 11.7031C77.3953 11.7031 76.8745 11.8499 76.4294 12.1435C75.989 12.4323 75.6481 12.8111 75.4066 13.2798C75.1699 13.7438 75.0515 14.2481 75.0515 14.7926V16.0355C75.0515 16.7647 75.1794 17.3849 75.4351 17.8963C75.6955 18.4077 76.0577 18.7983 76.5217 19.0682C76.9857 19.3333 77.5279 19.4659 78.1481 19.4659C78.5506 19.4659 78.9175 19.4091 79.249 19.2955C79.5804 19.1771 79.8669 19.0019 80.1084 18.7699C80.3498 18.5379 80.5345 18.2514 80.6623 17.9105L82.6723 18.2727C82.5113 18.8646 82.2225 19.383 81.8058 19.8281C81.3939 20.2685 80.8754 20.6117 80.2504 20.858C79.6301 21.0994 78.9223 21.2202 78.1268 21.2202ZM84.8339 6.45455H87.4972L92.1279 17.7614H92.2983L96.929 6.45455H99.5924V21H97.5043V10.4744H97.3694L93.0796 20.9787H91.3466L87.0569 10.4673H86.9219V21H84.8339V6.45455ZM105.287 21.2415C104.596 21.2415 103.971 21.1136 103.412 20.858C102.854 20.5975 102.411 20.2211 102.084 19.7287C101.762 19.2363 101.601 18.6326 101.601 17.9176C101.601 17.3021 101.72 16.7955 101.956 16.3977C102.193 16 102.513 15.6851 102.915 15.4531C103.318 15.2211 103.767 15.0459 104.265 14.9276C104.762 14.8092 105.268 14.7192 105.784 14.6577C106.438 14.5819 106.968 14.5204 107.375 14.473C107.783 14.4209 108.079 14.3381 108.263 14.2244C108.448 14.1108 108.54 13.9261 108.54 13.6705V13.6207C108.54 13.0005 108.365 12.5199 108.015 12.179C107.669 11.8381 107.153 11.6676 106.466 11.6676C105.751 11.6676 105.188 11.8262 104.776 12.1435C104.369 12.456 104.087 12.804 103.931 13.1875L101.935 12.733C102.172 12.0701 102.517 11.535 102.972 11.1278C103.431 10.7159 103.959 10.4176 104.556 10.233C105.152 10.0436 105.78 9.94886 106.438 9.94886C106.874 9.94886 107.335 10.0009 107.823 10.1051C108.315 10.2045 108.775 10.3892 109.201 10.6591C109.632 10.929 109.984 11.3149 110.259 11.8168C110.534 12.3139 110.671 12.9602 110.671 13.7557V21H108.597V19.5085H108.512C108.374 19.7831 108.168 20.053 107.894 20.3182C107.619 20.5833 107.266 20.8035 106.836 20.9787C106.405 21.1539 105.889 21.2415 105.287 21.2415ZM105.749 19.5369C106.336 19.5369 106.838 19.4209 107.255 19.1889C107.676 18.9569 107.996 18.6539 108.213 18.2798C108.436 17.901 108.547 17.4962 108.547 17.0653V15.6591C108.472 15.7348 108.325 15.8059 108.107 15.8722C107.894 15.9337 107.65 15.9882 107.375 16.0355C107.101 16.0781 106.833 16.1184 106.573 16.1562C106.312 16.1894 106.095 16.2178 105.919 16.2415C105.508 16.2936 105.131 16.3812 104.79 16.5043C104.454 16.6274 104.184 16.8049 103.981 17.0369C103.782 17.2642 103.682 17.5672 103.682 17.946C103.682 18.4716 103.876 18.8693 104.265 19.1392C104.653 19.4044 105.148 19.5369 105.749 19.5369ZM118.092 10.0909V11.7955H112.133V10.0909H118.092ZM113.731 7.47727H115.854V17.7969C115.854 18.2088 115.916 18.5189 116.039 18.7273C116.162 18.9309 116.321 19.0705 116.515 19.1463C116.714 19.2173 116.929 19.2528 117.161 19.2528C117.332 19.2528 117.481 19.241 117.609 19.2173C117.737 19.1937 117.836 19.1747 117.907 19.1605L118.291 20.9148C118.167 20.9621 117.992 21.0095 117.765 21.0568C117.538 21.1089 117.254 21.1373 116.913 21.142C116.354 21.1515 115.833 21.0521 115.35 20.8438C114.867 20.6354 114.477 20.3134 114.178 19.8778C113.88 19.4422 113.731 18.8954 113.731 18.2372V7.47727ZM124.525 21.2202C123.45 21.2202 122.525 20.9905 121.748 20.5312C120.976 20.0672 120.38 19.4162 119.958 18.5781C119.542 17.7353 119.333 16.7481 119.333 15.6165C119.333 14.4991 119.542 13.5142 119.958 12.6619C120.38 11.8097 120.967 11.1444 121.72 10.6662C122.477 10.188 123.363 9.94886 124.376 9.94886C124.992 9.94886 125.588 10.0507 126.166 10.2543C126.744 10.4579 127.262 10.7775 127.721 11.2131C128.181 11.6487 128.543 12.2145 128.808 12.9105C129.073 13.6018 129.206 14.4422 129.206 15.4318V16.1847H120.534V14.5938H127.125C127.125 14.035 127.011 13.5402 126.784 13.1094C126.557 12.6738 126.237 12.3305 125.825 12.0795C125.418 11.8286 124.94 11.7031 124.39 11.7031C123.794 11.7031 123.273 11.8499 122.828 12.1435C122.387 12.4323 122.047 12.8111 121.805 13.2798C121.568 13.7438 121.45 14.2481 121.45 14.7926V16.0355C121.45 16.7647 121.578 17.3849 121.833 17.8963C122.094 18.4077 122.456 18.7983 122.92 19.0682C123.384 19.3333 123.926 19.4659 124.547 19.4659C124.949 19.4659 125.316 19.4091 125.647 19.2955C125.979 19.1771 126.265 19.0019 126.507 18.7699C126.748 18.5379 126.933 18.2514 127.061 17.9105L129.071 18.2727C128.91 18.8646 128.621 19.383 128.204 19.8281C127.792 20.2685 127.274 20.6117 126.649 20.858C126.029 21.0994 125.321 21.2202 124.525 21.2202Z" fill="white"/>
<path d="M137.254 21H134.924L140.159 6.45455H142.694L147.929 21H145.599L141.487 9.09659H141.373L137.254 21ZM137.645 15.304H145.201V17.1506H137.645V15.304ZM151.724 6.45455V21H149.529V6.45455H151.724Z" fill="white" fill-opacity="0.6"/>
</svg>
