<svg width="155" height="32" viewBox="0 0 155 32" fill="none" xmlns="http://www.w3.org/2000/svg">
<path fill-rule="evenodd" clip-rule="evenodd" d="M10.7192 2.20696C10.6266 2.32081 9.22651 3.77084 7.60775 5.42913C-0.442533 13.6763 0.00446569 13.1091 0.00446569 15.0775C0.00446569 16.1881 0.0309546 16.3205 0.384262 16.9767C1.11038 18.3252 2.43862 19.287 3.96541 19.5696C4.32288 19.6358 5.60588 19.6899 6.81664 19.6899C8.0274 19.6899 9.01803 19.7179 9.01803 19.7522C9.01803 19.7864 8.37519 20.4803 7.58935 21.2942C6.66445 22.2521 6.02663 23.0242 5.78051 23.4838C5.42708 24.144 5.40034 24.2776 5.40034 25.3876C5.40034 26.5062 5.42512 26.6277 5.79388 27.3166C6.23793 28.1462 7.21875 29.0879 8.01183 29.446C9.12657 29.9493 9.67523 30 14.0078 30H18.0875L18.734 29.3136C19.4729 28.529 23.3981 24.4696 26.143 21.651L28 19.7442L18.6317 19.7164C13.4791 19.7011 9.2633 19.6631 9.2633 19.6321C9.2633 19.601 10.1082 18.71 11.1411 17.6522C12.1738 16.5943 14.2295 14.4826 15.7092 12.9596C17.1889 11.4368 19.3928 9.17104 20.6069 7.92493C21.821 6.67882 23.2223 5.23877 23.7209 4.72501C24.2196 4.21113 24.8947 3.51753 25.2211 3.1836C25.5476 2.84977 25.9301 2.44681 26.071 2.28825L26.3272 2H18.6074C11.153 2 10.8817 2.00716 10.7192 2.20696Z" fill="black"/>
<path d="M52.0709 7.65534V23H49.9431L42.1434 11.7463H42.001V23H39.6858V7.65534H41.8287L49.6359 18.9241H49.7782V7.65534H52.0709ZM59.9647 23.2323C58.8308 23.2323 57.8543 22.99 57.0351 22.5055C56.2209 22.016 55.5915 21.3292 55.147 20.4451C54.7074 19.5559 54.4876 18.5145 54.4876 17.3207C54.4876 16.1419 54.7074 15.1029 55.147 14.2038C55.5915 13.3047 56.2109 12.6029 57.0051 12.0984C57.8043 11.5939 58.7384 11.3417 59.8073 11.3417C60.4567 11.3417 61.086 11.4491 61.6954 11.6638C62.3048 11.8786 62.8518 12.2158 63.3363 12.6753C63.8208 13.1349 64.2029 13.7318 64.4826 14.466C64.7624 15.1953 64.9022 16.0819 64.9022 17.1259V17.9201H55.7539V16.2418H62.7069C62.7069 15.6523 62.587 15.1304 62.3473 14.6758C62.1075 14.2163 61.7704 13.8541 61.3358 13.5894C60.9062 13.3247 60.4017 13.1923 59.8223 13.1923C59.1929 13.1923 58.6435 13.3472 58.174 13.6568C57.7094 13.9615 57.3498 14.3611 57.095 14.8556C56.8453 15.3452 56.7204 15.8771 56.7204 16.4515V17.7627C56.7204 18.532 56.8553 19.1863 57.125 19.7258C57.3997 20.2652 57.7818 20.6773 58.2714 20.962C58.7609 21.2418 59.3328 21.3816 59.9871 21.3816C60.4117 21.3816 60.7988 21.3217 61.1485 21.2018C61.4981 21.0769 61.8003 20.8921 62.0551 20.6474C62.3098 20.4026 62.5046 20.1004 62.6395 19.7408L64.7599 20.1229C64.59 20.7473 64.2853 21.2942 63.8458 21.7637C63.4112 22.2283 62.8643 22.5904 62.2049 22.8501C61.5506 23.1049 60.8038 23.2323 59.9647 23.2323ZM68.6245 11.4915L71.1645 15.972L73.7269 11.4915H76.1769L72.588 17.2458L76.2069 23H73.7569L71.1645 18.6993L68.5795 23H66.122L69.7034 17.2458L66.167 11.4915H68.6245ZM87.8862 11.6114C87.8862 10.7872 87.614 10.1628 87.0696 9.73826C86.5251 9.30869 85.7883 9.09391 84.8593 9.09391C84.1799 9.09391 83.5681 9.2038 83.0236 9.42358C82.4791 9.64336 82.0346 9.94555 81.6899 10.3302C81.3453 10.7148 81.133 11.1518 81.0531 11.6414C80.9881 12.0509 81.0306 12.4031 81.1804 12.6978C81.3303 12.9875 81.5426 13.2298 81.8173 13.4246C82.097 13.6144 82.3967 13.7717 82.7164 13.8966C83.0361 14.0165 83.3308 14.1139 83.6005 14.1888L85.099 14.6084C85.4737 14.7133 85.8907 14.8581 86.3503 15.043C86.8098 15.2278 87.2394 15.48 87.639 15.7997C88.0386 16.1144 88.3433 16.519 88.5531 17.0135C88.7679 17.508 88.8153 18.1149 88.6954 18.8342C88.5556 19.6633 88.2134 20.4126 87.669 21.0819C87.1295 21.7512 86.4152 22.2832 85.5261 22.6778C84.642 23.0724 83.6105 23.2697 82.4317 23.2697C81.3328 23.2697 80.4087 23.0924 79.6595 22.7378C78.9152 22.3831 78.3658 21.8886 78.0111 21.2542C77.6615 20.6199 77.5266 19.8831 77.6065 19.044H79.5246C79.4747 19.6234 79.5895 20.1029 79.8693 20.4825C80.149 20.8571 80.5386 21.1369 81.0381 21.3217C81.5376 21.5015 82.092 21.5914 82.7014 21.5914C83.4107 21.5914 84.0651 21.4765 84.6645 21.2468C85.2689 21.012 85.7684 20.6873 86.163 20.2727C86.5626 19.8531 86.8073 19.3636 86.8972 18.8042C86.9871 18.2947 86.9172 17.8801 86.6874 17.5604C86.4577 17.2408 86.1255 16.981 85.6909 16.7812C85.2564 16.5814 84.7793 16.4066 84.2599 16.2567L82.4617 15.7173C81.3228 15.3726 80.4562 14.8806 79.8618 14.2413C79.2724 13.6019 79.0601 12.7652 79.2249 11.7313C79.3748 10.8721 79.7369 10.1229 80.3113 9.48352C80.8857 8.83916 81.5975 8.33966 82.4467 7.98501C83.2958 7.62537 84.2099 7.44555 85.1889 7.44555C86.178 7.44555 87.0246 7.62537 87.7289 7.98501C88.4332 8.33966 88.9577 8.83167 89.3023 9.46104C89.647 10.0854 89.7744 10.8022 89.6844 11.6114H87.8862ZM92.236 9.3037L92.5057 7.65534H104.014L103.745 9.3037H98.9193L96.6416 23H94.7835L97.0612 9.3037H92.236ZM116.688 7.65534H118.546L116.868 17.8152C116.693 18.8641 116.291 19.8007 115.662 20.6249C115.032 21.4441 114.231 22.0909 113.257 22.5654C112.283 23.035 111.194 23.2697 109.99 23.2697C108.786 23.2697 107.777 23.035 106.963 22.5654C106.149 22.0909 105.564 21.4441 105.21 20.6249C104.855 19.8007 104.765 18.8641 104.94 17.8152L106.618 7.65534H108.476L106.813 17.6653C106.693 18.4146 106.751 19.0814 106.985 19.6658C107.22 20.2453 107.615 20.7023 108.169 21.037C108.729 21.3666 109.435 21.5315 110.29 21.5315C111.144 21.5315 111.905 21.3666 112.575 21.037C113.244 20.7023 113.789 20.2453 114.208 19.6658C114.633 19.0814 114.905 18.4146 115.025 17.6653L116.688 7.65534ZM124.241 23H119.446L121.993 7.65534H126.878C128.367 7.65534 129.593 7.96753 130.557 8.59191C131.526 9.21628 132.201 10.1079 132.58 11.2667C132.965 12.4256 133.022 13.8092 132.753 15.4176C132.493 16.996 131.988 18.3521 131.239 19.486C130.495 20.6149 129.531 21.484 128.347 22.0934C127.168 22.6978 125.799 23 124.241 23ZM121.581 21.3516H124.301C125.57 21.3516 126.664 21.1019 127.583 20.6024C128.507 20.1029 129.251 19.3911 129.815 18.467C130.385 17.543 130.774 16.4466 130.984 15.1778C131.194 13.959 131.174 12.9126 130.924 12.0385C130.68 11.1593 130.198 10.485 129.478 10.0155C128.764 9.54096 127.807 9.3037 126.609 9.3037H123.574L121.581 21.3516ZM138.753 7.65534L136.205 23H134.347L136.894 7.65534H138.753ZM153.873 15.4476C153.603 17.046 153.086 18.4271 152.322 19.5909C151.558 20.7498 150.624 21.6439 149.52 22.2732C148.416 22.8976 147.219 23.2098 145.931 23.2098C144.602 23.2098 143.471 22.8851 142.537 22.2358C141.608 21.5814 140.943 20.6573 140.544 19.4635C140.149 18.2647 140.087 16.8462 140.356 15.2078C140.626 13.6094 141.143 12.2308 141.907 11.0719C142.671 9.90809 143.608 9.01398 144.717 8.38961C145.826 7.76024 147.03 7.44555 148.328 7.44555C149.647 7.44555 150.768 7.77273 151.692 8.42707C152.622 9.07642 153.283 10.0005 153.678 11.1993C154.078 12.3931 154.142 13.8092 153.873 15.4476ZM152.105 15.2078C152.324 13.8991 152.292 12.7977 152.007 11.9036C151.722 11.0095 151.25 10.3327 150.591 9.87313C149.932 9.41359 149.147 9.18382 148.238 9.18382C147.289 9.18382 146.39 9.42607 145.541 9.91059C144.692 10.3901 143.965 11.0969 143.361 12.031C142.756 12.96 142.344 14.0989 142.125 15.4476C141.905 16.7562 141.937 17.8576 142.222 18.7517C142.507 19.6459 142.979 20.3227 143.638 20.7822C144.297 21.2418 145.082 21.4715 145.991 21.4715C146.94 21.4715 147.839 21.2318 148.688 20.7522C149.537 20.2677 150.264 19.5609 150.868 18.6319C151.473 17.6978 151.885 16.5564 152.105 15.2078Z" fill="black"/>
</svg>
