<svg xmlns="http://www.w3.org/2000/svg" width="1400" height="1750" viewBox="0 0 1400 1750">
  <defs><filter id="g11"><feTurbulence type="fractalNoise" baseFrequency="0.9" numOctaves="2" seed="11" stitchTiles="stitch"/><feColorMatrix type="saturate" values="0"/><feComponentTransfer><feFuncA type="linear" slope="0.10"/></feComponentTransfer><feComposite operator="over" in2="SourceGraphic"/></filter><linearGradient id="sky1" x1="0" y1="0" x2="0" y2="1"><stop offset="0" stop-color="#cfc7ba"/><stop offset="1" stop-color="#9c958a"/></linearGradient></defs>
  <rect width="1400" height="1750" fill="url(#sky1)"/>
  <g><rect x="129.61324198171496" y="1033.8077198714018" width="143.15699904225767" height="716.1922801285982" fill="rgb(155,147,139)"/><rect x="129.61324198171496" y="1033.8077198714018" width="71.57849952112883" height="716.1922801285982" fill="rgba(0,0,0,0.18)"/><rect x="298.6082482524216" y="1273.3800432644784" width="211.59524301998317" height="476.61995673552155" fill="rgb(200,192,184)"/><rect x="298.6082482524216" y="1273.3800432644784" width="105.79762150999159" height="476.61995673552155" fill="rgba(0,0,0,0.18)"/><rect x="424.1457827948034" y="641.0631375387311" width="135.6477170344442" height="1108.936862461269" fill="rgb(168,160,152)"/><rect x="424.1457827948034" y="641.0631375387311" width="67.8238585172221" height="1108.936862461269" fill="rgba(0,0,0,0.18)"/><rect x="584.372103009373" y="883.4915575571358" width="152.6131862681359" height="866.5084424428642" fill="rgb(194,186,178)"/><rect x="584.372103009373" y="883.4915575571358" width="76.30659313406795" height="866.5084424428642" fill="rgba(0,0,0,0.18)"/><rect x="735.6971686892211" y="748.3996354043484" width="167.46543421410024" height="1001.6003645956516" fill="rgb(177,169,161)"/><rect x="735.6971686892211" y="748.3996354043484" width="83.73271710705012" height="1001.6003645956516" fill="rgba(0,0,0,0.18)"/><rect x="875.0724740512669" y="654.4151815585792" width="197.9387118946761" height="1095.5848184414208" fill="rgb(152,144,136)"/><rect x="875.0724740512669" y="654.4151815585792" width="98.96935594733804" height="1095.5848184414208" fill="rgba(0,0,0,0.18)"/><rect x="1032.1516922675073" y="831.4586548134685" width="125.04287458024919" height="918.5413451865315" fill="rgb(153,145,137)"/><rect x="1032.1516922675073" y="831.4586548134685" width="62.521437290124595" height="918.5413451865315" fill="rgba(0,0,0,0.18)"/></g>
  <rect width="1400" height="1750" fill="rgba(196,98,45,0.06)"/>
  <rect width="1400" height="1750" filter="url(#g11)" opacity="0.5"/></svg>