<svg xmlns="http://www.w3.org/2000/svg" width="1400" height="1750" viewBox="0 0 1400 1750">
  <defs><filter id="g22"><feTurbulence type="fractalNoise" baseFrequency="0.9" numOctaves="2" seed="22" stitchTiles="stitch"/><feColorMatrix type="saturate" values="0"/><feComponentTransfer><feFuncA type="linear" slope="0.10"/></feComponentTransfer><feComposite operator="over" in2="SourceGraphic"/></filter><linearGradient id="sky2" x1="0" y1="0" x2="0" y2="1"><stop offset="0" stop-color="#e8e0cf"/><stop offset="1" stop-color="#cdc3ad"/></linearGradient></defs>
  <rect width="1400" height="1750" fill="url(#sky2)"/>
  <circle cx="1050" cy="420" r="140" fill="#efe7d4"/>
  <path d="M0 600 L0 590.2162349503487 L70 606.7692227137874 L140 598.5539183462629 L210 627.7105366661231 L280 654.0689434878012 L350 656.991836671555 L420 625.369232239792 L490 619.976531276821 L560 612.5473493354302 L630 591.8162166407243 L700 577.3196102133261 L770 558.3979250290887 L840 569.2577257692421 L910 525.7298810641649 L980 546.5080061484739 L1050 510.59436608720625 L1120 537.1451013761214 L1190 518.6078372399196 L1260 515.5192831405927 L1330 560.8046915032406 L1400 554.0843228889638 L1400 1750 L0 1750 Z" fill="#b9b09c"/><path d="M0 830 L0 843.5306667576008 L70 881.9962258100502 L140 856.9832779514811 L210 862.9713156840677 L280 839.098614491598 L350 859.1581686468817 L420 830.5836425926603 L490 821.7003733752807 L560 786.0890977644962 L630 787.394633245084 L700 767.1981475100097 L770 752.4815694515391 L840 741.6792172156021 L910 741.7153039515307 L980 739.9616344764316 L1050 769.5004992792286 L1120 791.8691117190886 L1190 789.3730676117431 L1260 805.4620806203365 L1330 840.6806157925606 L1400 843.1317284434215 L1400 1750 L0 1750 Z" fill="#a59a82"/><path d="M0 1060 L0 1078.3084693814617 L70 1102.3335502867926 L140 1076.180579387811 L210 1068.561869401913 L280 1023.338457509594 L350 1008.761771932539 L420 989.3960209554269 L490 998.596772154509 L560 988.1293101027434 L630 996.9831113459412 L700 1002.0527405335749 L770 984.254903003426 L840 1002.959124687349 L910 1011.1691563737102 L980 1028.9164596924745 L1050 1036.8275843777658 L1120 1059.2001705103175 L1190 1076.5658701835732 L1260 1098.0561477992876 L1330 1113.6721333039152 L1400 1113.836828311095 L1400 1750 L0 1750 Z" fill="#8c8169"/><path d="M0 1290 L0 1263.5413597816842 L70 1256.0981962350654 L140 1233.1868539783711 L210 1237.862181472722 L280 1203.8455595844105 L350 1221.7273184066644 L420 1194.6046474150023 L490 1209.4782055436508 L560 1235.3200511229713 L630 1254.1305602457812 L700 1235.7530000792826 L770 1278.9514569383834 L840 1293.6479027332907 L910 1317.2746712447135 L980 1333.4018634509057 L1050 1343.533487774845 L1120 1344.527847618177 L1190 1322.5897359331595 L1260 1331.7935429341599 L1330 1322.5387786252975 L1400 1304.3135107521489 L1400 1750 L0 1750 Z" fill="#6f654f"/><path d="M0 1520 L0 1450.335030040535 L70 1451.8756921210124 L140 1423.7156222443775 L210 1428.7958262149534 L280 1446.282157993638 L350 1458.9079771144218 L420 1453.9127368074971 L490 1474.4233509189526 L560 1488.2840136979848 L630 1538.8366882992418 L700 1519.72091177582 L770 1535.1631816791432 L840 1562.6598316411992 L910 1577.2310361893499 L980 1567.2926414751564 L1050 1530.726498612138 L1120 1525.0863045501276 L1190 1533.3545945374894 L1260 1496.4209479475392 L1330 1493.7308562718033 L1400 1452.852438274723 L1400 1750 L0 1750 Z" fill="#534b39"/>
  <rect width="1400" height="1750" filter="url(#g22)" opacity="0.45"/></svg>