<svg xmlns="http://www.w3.org/2000/svg" width="1400" height="1750" viewBox="0 0 1400 1750">
  <defs><filter id="g44"><feTurbulence type="fractalNoise" baseFrequency="0.9" numOctaves="2" seed="44" stitchTiles="stitch"/><feColorMatrix type="saturate" values="0"/><feComponentTransfer><feFuncA type="linear" slope="0.10"/></feComponentTransfer><feComposite operator="over" in2="SourceGraphic"/></filter><radialGradient id="cg" cx="0.5" cy="0.4" r="0.8"><stop offset="0" stop-color="#23211b"/><stop offset="1" stop-color="#0e0e0c"/></radialGradient></defs>
  <rect width="1400" height="1750" fill="url(#cg)"/>
  <line x1="125.1872167782858" y1="136.1719545442611" x2="386.80186457466334" y2="137.79521986842155" stroke="#3a3630" stroke-width="2"/><line x1="125.1872167782858" y1="136.1719545442611" x2="145.74340532068163" y2="365.9054859634489" stroke="#3a3630" stroke-width="2"/><line x1="386.80186457466334" y1="137.79521986842155" x2="592.515562758781" y2="151.26513834111392" stroke="#3a3630" stroke-width="2"/><line x1="386.80186457466334" y1="137.79521986842155" x2="333.18738812115043" y2="321.37643629685044" stroke="#3a3630" stroke-width="2"/><line x1="592.515562758781" y1="151.26513834111392" x2="788.5613210266456" y2="177.04595563933253" stroke="#3a3630" stroke-width="2"/><line x1="592.515562758781" y1="151.26513834111392" x2="576.7910933541134" y2="378.8293339777738" stroke="#3a3630" stroke-width="2"/><line x1="788.5613210266456" y1="177.04595563933253" x2="1043.4746383549646" y2="126.57187574543059" stroke="#3a3630" stroke-width="2"/><line x1="788.5613210266456" y1="177.04595563933253" x2="801.3034322811291" y2="359.7818247228861" stroke="#3a3630" stroke-width="2"/><line x1="1043.4746383549646" y1="126.57187574543059" x2="1255.6392412213609" y2="172.15806405991316" stroke="#3a3630" stroke-width="2"/><line x1="1043.4746383549646" y1="126.57187574543059" x2="1045.960940332152" y2="338.37045359425247" stroke="#3a3630" stroke-width="2"/><line x1="1255.6392412213609" y1="172.15806405991316" x2="1263.43305145856" y2="344.1431378386915" stroke="#3a3630" stroke-width="2"/><line x1="145.74340532068163" y1="365.9054859634489" x2="333.18738812115043" y2="321.37643629685044" stroke="#3a3630" stroke-width="2"/><line x1="145.74340532068163" y1="365.9054859634489" x2="120.67502629477531" y2="562.3073892388493" stroke="#3a3630" stroke-width="2"/><line x1="333.18738812115043" y1="321.37643629685044" x2="576.7910933541134" y2="378.8293339777738" stroke="#3a3630" stroke-width="2"/><line x1="333.18738812115043" y1="321.37643629685044" x2="351.23687397222966" y2="541.8127039447427" stroke="#3a3630" stroke-width="2"/><line x1="576.7910933541134" y1="378.8293339777738" x2="801.3034322811291" y2="359.7818247228861" stroke="#3a3630" stroke-width="2"/><line x1="576.7910933541134" y1="378.8293339777738" x2="555.1977011794224" y2="537.7197565045208" stroke="#3a3630" stroke-width="2"/><line x1="801.3034322811291" y1="359.7818247228861" x2="1045.960940332152" y2="338.37045359425247" stroke="#3a3630" stroke-width="2"/><line x1="801.3034322811291" y1="359.7818247228861" x2="781.8597658118233" y2="570.8520035631955" stroke="#3a3630" stroke-width="2"/><line x1="1045.960940332152" y1="338.37045359425247" x2="1263.43305145856" y2="344.1431378386915" stroke="#3a3630" stroke-width="2"/><line x1="1045.960940332152" y1="338.37045359425247" x2="1035.3951063053682" y2="523.4870214480907" stroke="#3a3630" stroke-width="2"/><line x1="1263.43305145856" y1="344.1431378386915" x2="1238.5399614972994" y2="533.5753706097603" stroke="#3a3630" stroke-width="2"/><line x1="120.67502629477531" y1="562.3073892388493" x2="351.23687397222966" y2="541.8127039447427" stroke="#3a3630" stroke-width="2"/><line x1="120.67502629477531" y1="562.3073892388493" x2="127.92828960809857" y2="740.4239986371249" stroke="#3a3630" stroke-width="2"/><line x1="351.23687397222966" y1="541.8127039447427" x2="555.1977011794224" y2="537.7197565045208" stroke="#3a3630" stroke-width="2"/><line x1="351.23687397222966" y1="541.8127039447427" x2="360.4955386882648" y2="720.6991623155773" stroke="#3a3630" stroke-width="2"/><line x1="555.1977011794224" y1="537.7197565045208" x2="781.8597658118233" y2="570.8520035631955" stroke="#3a3630" stroke-width="2"/><line x1="555.1977011794224" y1="537.7197565045208" x2="577.3174146236852" y2="733.7405679468066" stroke="#3a3630" stroke-width="2"/><line x1="781.8597658118233" y1="570.8520035631955" x2="1035.3951063053682" y2="523.4870214480907" stroke="#3a3630" stroke-width="2"/><line x1="781.8597658118233" y1="570.8520035631955" x2="783.0257365433499" y2="738.2838978990912" stroke="#3a3630" stroke-width="2"/><line x1="1035.3951063053682" y1="523.4870214480907" x2="1238.5399614972994" y2="533.5753706097603" stroke="#3a3630" stroke-width="2"/><line x1="1035.3951063053682" y1="523.4870214480907" x2="1029.3145632231608" y2="727.5131101068109" stroke="#3a3630" stroke-width="2"/><line x1="1238.5399614972994" y1="533.5753706097603" x2="1243.7646178295836" y2="724.6568659879267" stroke="#3a3630" stroke-width="2"/><line x1="127.92828960809857" y1="740.4239986371249" x2="360.4955386882648" y2="720.6991623155773" stroke="#3a3630" stroke-width="2"/><line x1="127.92828960809857" y1="740.4239986371249" x2="134.02263209689409" y2="925.8551609981805" stroke="#3a3630" stroke-width="2"/><line x1="360.4955386882648" y1="720.6991623155773" x2="577.3174146236852" y2="733.7405679468066" stroke="#3a3630" stroke-width="2"/><line x1="360.4955386882648" y1="720.6991623155773" x2="366.024574781768" y2="979.5027007907629" stroke="#3a3630" stroke-width="2"/><line x1="577.3174146236852" y1="733.7405679468066" x2="783.0257365433499" y2="738.2838978990912" stroke="#3a3630" stroke-width="2"/><line x1="577.3174146236852" y1="733.7405679468066" x2="557.1978229889646" y2="970.4747847002" stroke="#3a3630" stroke-width="2"/><line x1="783.0257365433499" y1="738.2838978990912" x2="1029.3145632231608" y2="727.5131101068109" stroke="#3a3630" stroke-width="2"/><line x1="783.0257365433499" y1="738.2838978990912" x2="825.1671787118539" y2="962.3094270192087" stroke="#3a3630" stroke-width="2"/><line x1="1029.3145632231608" y1="727.5131101068109" x2="1243.7646178295836" y2="724.6568659879267" stroke="#3a3630" stroke-width="2"/><line x1="1029.3145632231608" y1="727.5131101068109" x2="1043.173226681538" y2="939.3061652872711" stroke="#3a3630" stroke-width="2"/><line x1="1243.7646178295836" y1="724.6568659879267" x2="1238.9388733683154" y2="972.3574735596776" stroke="#3a3630" stroke-width="2"/><line x1="134.02263209689409" y1="925.8551609981805" x2="366.024574781768" y2="979.5027007907629" stroke="#3a3630" stroke-width="2"/><line x1="134.02263209689409" y1="925.8551609981805" x2="147.84100072924048" y2="1145.902917375788" stroke="#3a3630" stroke-width="2"/><line x1="366.024574781768" y1="979.5027007907629" x2="557.1978229889646" y2="970.4747847002" stroke="#3a3630" stroke-width="2"/><line x1="366.024574781768" y1="979.5027007907629" x2="337.709012045525" y2="1137.439155895263" stroke="#3a3630" stroke-width="2"/><line x1="557.1978229889646" y1="970.4747847002" x2="825.1671787118539" y2="962.3094270192087" stroke="#3a3630" stroke-width="2"/><line x1="557.1978229889646" y1="970.4747847002" x2="595.1306409435347" y2="1134.280615421012" stroke="#3a3630" stroke-width="2"/><line x1="825.1671787118539" y1="962.3094270192087" x2="1043.173226681538" y2="939.3061652872711" stroke="#3a3630" stroke-width="2"/><line x1="825.1671787118539" y1="962.3094270192087" x2="785.5477384431288" y2="1173.4961272776127" stroke="#3a3630" stroke-width="2"/><line x1="1043.173226681538" y1="939.3061652872711" x2="1238.9388733683154" y2="972.3574735596776" stroke="#3a3630" stroke-width="2"/><line x1="1043.173226681538" y1="939.3061652872711" x2="1005.4208466270939" y2="1158.8960417639464" stroke="#3a3630" stroke-width="2"/><line x1="1238.9388733683154" y1="972.3574735596776" x2="1238.081211275421" y2="1152.3622986488044" stroke="#3a3630" stroke-width="2"/><line x1="147.84100072924048" y1="1145.902917375788" x2="337.709012045525" y2="1137.439155895263" stroke="#3a3630" stroke-width="2"/><line x1="147.84100072924048" y1="1145.902917375788" x2="159.3224795581773" y2="1354.4506534282118" stroke="#3a3630" stroke-width="2"/><line x1="337.709012045525" y1="1137.439155895263" x2="595.1306409435347" y2="1134.280615421012" stroke="#3a3630" stroke-width="2"/><line x1="337.709012045525" y1="1137.439155895263" x2="338.06167263071984" y2="1369.7997273132205" stroke="#3a3630" stroke-width="2"/><line x1="595.1306409435347" y1="1134.280615421012" x2="785.5477384431288" y2="1173.4961272776127" stroke="#3a3630" stroke-width="2"/><line x1="595.1306409435347" y1="1134.280615421012" x2="575.2701167250052" y2="1375.205767666921" stroke="#3a3630" stroke-width="2"/><line x1="785.5477384431288" y1="1173.4961272776127" x2="1005.4208466270939" y2="1158.8960417639464" stroke="#3a3630" stroke-width="2"/><line x1="785.5477384431288" y1="1173.4961272776127" x2="784.5898600807413" y2="1341.014974359423" stroke="#3a3630" stroke-width="2"/><line x1="1005.4208466270939" y1="1158.8960417639464" x2="1238.081211275421" y2="1152.3622986488044" stroke="#3a3630" stroke-width="2"/><line x1="1005.4208466270939" y1="1158.8960417639464" x2="1014.3596968101338" y2="1378.496966259554" stroke="#3a3630" stroke-width="2"/><line x1="1238.081211275421" y1="1152.3622986488044" x2="1266.9272625399753" y2="1325.8434308320284" stroke="#3a3630" stroke-width="2"/><line x1="159.3224795581773" y1="1354.4506534282118" x2="338.06167263071984" y2="1369.7997273132205" stroke="#3a3630" stroke-width="2"/><line x1="159.3224795581773" y1="1354.4506534282118" x2="120.86976042483002" y2="1522.135218558833" stroke="#3a3630" stroke-width="2"/><line x1="338.06167263071984" y1="1369.7997273132205" x2="575.2701167250052" y2="1375.205767666921" stroke="#3a3630" stroke-width="2"/><line x1="338.06167263071984" y1="1369.7997273132205" x2="368.83571987506" y2="1520.7891126535833" stroke="#3a3630" stroke-width="2"/><line x1="575.2701167250052" y1="1375.205767666921" x2="784.5898600807413" y2="1341.014974359423" stroke="#3a3630" stroke-width="2"/><line x1="575.2701167250052" y1="1375.205767666921" x2="601.903784093447" y2="1540.3822232875973" stroke="#3a3630" stroke-width="2"/><line x1="784.5898600807413" y1="1341.014974359423" x2="1014.3596968101338" y2="1378.496966259554" stroke="#3a3630" stroke-width="2"/><line x1="784.5898600807413" y1="1341.014974359423" x2="804.381866264157" y2="1570.1074242964387" stroke="#3a3630" stroke-width="2"/><line x1="1014.3596968101338" y1="1378.496966259554" x2="1266.9272625399753" y2="1325.8434308320284" stroke="#3a3630" stroke-width="2"/><line x1="1014.3596968101338" y1="1378.496966259554" x2="1024.5911079877988" y2="1558.1874690856785" stroke="#3a3630" stroke-width="2"/><line x1="1266.9272625399753" y1="1325.8434308320284" x2="1221.1439173063263" y2="1563.1183912046254" stroke="#3a3630" stroke-width="2"/><line x1="120.86976042483002" y1="1522.135218558833" x2="368.83571987506" y2="1520.7891126535833" stroke="#3a3630" stroke-width="2"/><line x1="368.83571987506" y1="1520.7891126535833" x2="601.903784093447" y2="1540.3822232875973" stroke="#3a3630" stroke-width="2"/><line x1="601.903784093447" y1="1540.3822232875973" x2="804.381866264157" y2="1570.1074242964387" stroke="#3a3630" stroke-width="2"/><line x1="804.381866264157" y1="1570.1074242964387" x2="1024.5911079877988" y2="1558.1874690856785" stroke="#3a3630" stroke-width="2"/><line x1="1024.5911079877988" y1="1558.1874690856785" x2="1221.1439173063263" y2="1563.1183912046254" stroke="#3a3630" stroke-width="2"/><circle cx="125.1872167782858" cy="136.1719545442611" r="6" fill="#16140f"/><circle cx="386.80186457466334" cy="137.79521986842155" r="12" fill="#c4622d"/><circle cx="592.515562758781" cy="151.26513834111392" r="12" fill="#c4622d"/><circle cx="788.5613210266456" cy="177.04595563933253" r="6" fill="#16140f"/><circle cx="1043.4746383549646" cy="126.57187574543059" r="6" fill="#16140f"/><circle cx="1255.6392412213609" cy="172.15806405991316" r="6" fill="#16140f"/><circle cx="145.74340532068163" cy="365.9054859634489" r="6" fill="#16140f"/><circle cx="333.18738812115043" cy="321.37643629685044" r="6" fill="#16140f"/><circle cx="576.7910933541134" cy="378.8293339777738" r="12" fill="#c4622d"/><circle cx="801.3034322811291" cy="359.7818247228861" r="6" fill="#16140f"/><circle cx="1045.960940332152" cy="338.37045359425247" r="6" fill="#16140f"/><circle cx="1263.43305145856" cy="344.1431378386915" r="6" fill="#16140f"/><circle cx="120.67502629477531" cy="562.3073892388493" r="12" fill="#c4622d"/><circle cx="351.23687397222966" cy="541.8127039447427" r="12" fill="#c4622d"/><circle cx="555.1977011794224" cy="537.7197565045208" r="6" fill="#16140f"/><circle cx="781.8597658118233" cy="570.8520035631955" r="6" fill="#16140f"/><circle cx="1035.3951063053682" cy="523.4870214480907" r="6" fill="#16140f"/><circle cx="1238.5399614972994" cy="533.5753706097603" r="12" fill="#c4622d"/><circle cx="127.92828960809857" cy="740.4239986371249" r="6" fill="#16140f"/><circle cx="360.4955386882648" cy="720.6991623155773" r="6" fill="#16140f"/><circle cx="577.3174146236852" cy="733.7405679468066" r="6" fill="#16140f"/><circle cx="783.0257365433499" cy="738.2838978990912" r="6" fill="#16140f"/><circle cx="1029.3145632231608" cy="727.5131101068109" r="12" fill="#c4622d"/><circle cx="1243.7646178295836" cy="724.6568659879267" r="12" fill="#c4622d"/><circle cx="134.02263209689409" cy="925.8551609981805" r="6" fill="#16140f"/><circle cx="366.024574781768" cy="979.5027007907629" r="6" fill="#16140f"/><circle cx="557.1978229889646" cy="970.4747847002" r="12" fill="#c4622d"/><circle cx="825.1671787118539" cy="962.3094270192087" r="12" fill="#c4622d"/><circle cx="1043.173226681538" cy="939.3061652872711" r="6" fill="#16140f"/><circle cx="1238.9388733683154" cy="972.3574735596776" r="6" fill="#16140f"/><circle cx="147.84100072924048" cy="1145.902917375788" r="6" fill="#16140f"/><circle cx="337.709012045525" cy="1137.439155895263" r="6" fill="#16140f"/><circle cx="595.1306409435347" cy="1134.280615421012" r="6" fill="#16140f"/><circle cx="785.5477384431288" cy="1173.4961272776127" r="6" fill="#16140f"/><circle cx="1005.4208466270939" cy="1158.8960417639464" r="12" fill="#c4622d"/><circle cx="1238.081211275421" cy="1152.3622986488044" r="6" fill="#16140f"/><circle cx="159.3224795581773" cy="1354.4506534282118" r="12" fill="#c4622d"/><circle cx="338.06167263071984" cy="1369.7997273132205" r="6" fill="#16140f"/><circle cx="575.2701167250052" cy="1375.205767666921" r="12" fill="#c4622d"/><circle cx="784.5898600807413" cy="1341.014974359423" r="6" fill="#16140f"/><circle cx="1014.3596968101338" cy="1378.496966259554" r="6" fill="#16140f"/><circle cx="1266.9272625399753" cy="1325.8434308320284" r="6" fill="#16140f"/><circle cx="120.86976042483002" cy="1522.135218558833" r="6" fill="#16140f"/><circle cx="368.83571987506" cy="1520.7891126535833" r="6" fill="#16140f"/><circle cx="601.903784093447" cy="1540.3822232875973" r="6" fill="#16140f"/><circle cx="804.381866264157" cy="1570.1074242964387" r="12" fill="#c4622d"/><circle cx="1024.5911079877988" cy="1558.1874690856785" r="6" fill="#16140f"/><circle cx="1221.1439173063263" cy="1563.1183912046254" r="12" fill="#c4622d"/>
  <rect width="1400" height="1750" filter="url(#g44)" opacity="0.4"/></svg>