<?xml version="1.0" encoding="UTF-8"?>
<svg width="1200pt" height="1200pt" version="1.1" viewBox="0 0 1200 1200" xmlns="http://www.w3.org/2000/svg">
 <path d="m1158 297.52-216-124.74c-11.156-6.4219-24.844-6.4219-36 0l-198 114.38-198-114.38c-11.156-6.4219-24.844-6.4219-36 0l-432 249.42c-11.156 6.4219-18 18.328-18 31.219v417.84c0 12.844 6.8438 24.75 18 31.219l216 124.69c11.156 6.4219 24.844 6.4219 36 0l198-114.33 198 114.38c11.156 6.4219 24.844 6.4219 36 0l432-249.42c11.156-6.4219 18-18.328 18-31.219v-417.89c0-12.844-6.8438-24.75-18-31.172zm-918 636.1-144-83.109v-334.78l144 83.156zm216-83.156-144 83.156v-334.82l144-83.156zm216 83.156-144-83.109v-334.78l144 83.156zm36-397.08-198-114.28c-11.156-6.4219-24.844-6.4219-36 0l-198 114.33-144-83.156 360-207.84 198 114.33c11.156 6.4219 24.844 6.4219 36 0l198-114.33 144 83.156zm396 189.24-360 207.84v-334.82l360-207.84z"/>
</svg>
