<svg width="53" height="52" viewBox="0 0 53 52" fill="none" xmlns="http://www.w3.org/2000/svg">
<path d="M0.5 26C0.5 11.6406 12.1406 0 26.5 0C40.8594 0 52.5 11.6406 52.5 26C52.5 40.3594 40.8594 52 26.5 52C12.1406 52 0.5 40.3594 0.5 26Z" fill="#101828"/>
<path fill-rule="evenodd" clip-rule="evenodd" d="M22.8389 24.5631C22.7302 24.4206 22.5549 24.3455 22.3769 24.3648C22.1988 24.3842 22.0438 24.4953 21.9681 24.6577L17.5557 33.4861C17.4739 33.6497 17.4827 33.844 17.5788 33.9996C17.6748 34.1551 17.8446 34.2498 18.0273 34.2499H24.1714C24.3725 34.2545 24.5574 34.1402 24.6431 33.9581C25.9685 31.2175 25.1653 27.0503 22.8389 24.5631Z" fill="url(#paint0_linear_2001_2421)"/>
<path fill-rule="evenodd" clip-rule="evenodd" d="M26.0749 16.5332C23.8382 19.9773 23.58 24.3458 25.3955 28.0296L28.3577 33.9581C28.447 34.1369 28.6296 34.2498 28.8293 34.2499H34.9724C35.1551 34.2498 35.3248 34.1551 35.4209 33.9995C35.517 33.844 35.5257 33.6497 35.444 33.4861C35.444 33.4861 27.1796 16.9437 26.9719 16.5299C26.8881 16.358 26.7135 16.2493 26.5224 16.25C26.3313 16.2507 26.1574 16.3607 26.0749 16.5332Z" fill="#2684FF"/>
<defs>
<linearGradient id="paint0_linear_2001_2421" x1="25.2571" y1="25.9255" x2="19.0681" y2="32.5692" gradientUnits="userSpaceOnUse">
<stop stop-color="#0052CC"/>
<stop offset="0.923" stop-color="#2684FF"/>
</linearGradient>
</defs>
</svg>
