<svg width="53" height="52" viewBox="0 0 53 52" fill="none" xmlns="http://www.w3.org/2000/svg">
<path d="M0.5 26C0.5 11.6408 12.1409 0.000488281 26.5 0.000488281C40.8591 0.000488281 52.5 11.6408 52.5 26C52.5 40.3591 40.8591 51.9995 26.5 51.9995C12.1409 51.9995 0.5 40.3591 0.5 26Z" fill="#101828"/>
<path d="M29.4551 28.9619C27.5555 29.6767 25.4268 29.678 23.5271 28.9623C22.8114 27.0647 22.8112 24.9365 23.526 23.0386C25.4252 22.3225 27.556 22.3224 29.4552 23.0385C30.1707 24.9358 30.1704 27.0646 29.4551 28.9619ZM40.3054 23.6667H32.128L37.9099 17.8881C37.0025 16.6143 35.8822 15.4953 34.6076 14.5884L28.8253 20.367V12.1949C27.282 11.9355 25.6993 11.9359 24.1561 12.1949V20.367L18.3737 14.5884C17.0994 15.4946 15.9788 16.6152 15.0713 17.8881L20.8541 23.6667H12.6768C12.475 25.2552 12.4094 26.7481 12.6768 28.3333H20.8542L15.0714 34.1119C15.9811 35.3877 17.0971 36.503 18.3737 37.4121L24.1561 31.633V39.8055C25.6995 40.064 27.2817 40.0642 28.8251 39.8055V31.633L34.608 37.4121C35.8832 36.5043 37.0015 35.3862 37.9099 34.1119L32.1271 28.3333H40.3054C40.5649 26.7924 40.5649 25.2076 40.3054 23.6667Z" fill="#FF4A00"/>
</svg>
