<svg width="53" height="52" viewBox="0 0 53 52" fill="none" xmlns="http://www.w3.org/2000/svg">
<path d="M0.5 26C0.5 11.6406 12.1406 0 26.5 0C40.8594 0 52.5 11.6406 52.5 26C52.5 40.3594 40.8594 52 26.5 52C12.1406 52 0.5 40.3594 0.5 26Z" fill="#101828"/>
<path d="M16.5 37L14.5 12H38.5L36.5 37L26.5 40L16.5 37Z" fill="#E44D26"/>
<path d="M36.5 15.6875H26.5V38.6562L34.5 36.3125L36.5 15.6875Z" fill="#F16529"/>
<path d="M20 27.4062L19 18.5H34.5L34 21.3125H22L22.5 24.5938H33.5L32.5 33.5L26.5 35.375L20.5 33.5L20 28.8125H23L23.5 31.1562L26.5 32.0938L29.5 31.1562L30 27.4062H20Z" fill="white"/>
</svg>
