<svg width="52" height="52" viewBox="0 0 52 52" fill="none" xmlns="http://www.w3.org/2000/svg">
<rect width="52" height="52" rx="26" fill="#101828"/>
<path d="M26.0004 10.4C17.396 10.4 10.4004 17.3956 10.4004 26C10.4004 34.6044 17.396 41.6 26.0004 41.6C34.6048 41.6 41.6004 34.6044 41.6004 26C41.6004 17.3956 34.6048 10.4 26.0004 10.4Z" fill="url(#paint0_radial_2001_986)"/>
<path d="M30.4066 25.7705C28.5326 25.7705 27.0138 27.2768 27.0138 29.1351C27.0138 30.9935 28.5326 32.5 30.4066 32.5C32.2803 32.5 33.7992 30.9935 33.7992 29.1351C33.7992 27.2768 32.2803 25.7705 30.4066 25.7705ZM21.5919 25.7707C19.7182 25.7707 18.1992 27.2768 18.1992 29.1353C18.1992 30.9935 19.7182 32.5 21.5919 32.5C23.4657 32.5 24.9848 30.9935 24.9848 29.1353C24.9848 27.2768 23.4657 25.7707 21.5919 25.7707ZM29.3918 21.5646C29.3918 23.4228 27.873 24.9295 25.9993 24.9295C24.1254 24.9295 22.6065 23.4228 22.6065 21.5646C22.6065 19.7064 24.1254 18.2 25.9993 18.2C27.873 18.2 29.3918 19.7064 29.3918 21.5646Z" fill="white"/>
<defs>
<radialGradient id="paint0_radial_2001_986" cx="0" cy="0" r="1" gradientUnits="userSpaceOnUse" gradientTransform="translate(26.0004 27.4515) scale(20.6742)">
<stop stop-color="#FFB900"/>
<stop offset="0.6" stop-color="#F95D8F"/>
<stop offset="0.9991" stop-color="#F95353"/>
</radialGradient>
</defs>
</svg>
