<svg width="52" height="52" viewBox="0 0 52 52" fill="none" xmlns="http://www.w3.org/2000/svg">
<rect width="52" height="52" rx="26" fill="#101828"/>
<path d="M31.7868 31.555C32.8939 31.4423 33.7338 30.504 33.6956 29.378C33.6575 28.252 32.703 27.3512 31.5577 27.3512H31.4814C30.2978 27.3887 29.3817 28.3646 29.4199 29.5281C29.4581 30.0911 29.6871 30.579 30.0307 30.9168C28.7327 33.4316 26.7475 35.2707 23.7698 36.8096C21.7464 37.8605 19.6468 38.2359 17.5471 37.9732C15.8292 37.748 14.493 36.9974 13.653 35.7587C12.4314 33.9196 12.317 31.9302 13.3477 29.941C14.0731 28.5147 15.2183 27.4637 15.9437 26.9383C15.791 26.4504 15.5619 25.6246 15.4474 25.0242C9.9118 28.9652 10.4845 34.2949 12.1643 36.8096C13.424 38.6864 15.9819 39.8499 18.8069 39.8499C19.5704 39.8499 20.3339 39.7748 21.0975 39.5872C25.9841 38.6488 29.6872 35.7962 31.7868 31.555ZM38.5059 26.9008C35.6045 23.5603 31.3287 21.7212 26.4421 21.7212H25.8314C25.4878 21.0456 24.7624 20.5951 23.9607 20.5951H23.8843C22.7009 20.6327 21.7848 21.6085 21.8229 22.7722C21.8611 23.8981 22.8154 24.7989 23.9607 24.7989H24.037C24.8769 24.7614 25.6023 24.2359 25.9077 23.5227H26.5948C29.4963 23.5227 32.2449 24.3485 34.7265 25.9624C36.6352 27.2011 38.0096 28.815 38.7731 30.7667C39.4221 32.3431 39.3839 33.882 38.6967 35.1957C37.6278 37.185 35.8336 38.2735 33.4666 38.2735C31.9395 38.2735 30.4889 37.823 29.7253 37.4852C29.3054 37.8605 28.5418 38.461 28.0073 38.8365C29.649 39.5871 31.3287 40 32.9321 40C36.597 40 39.3076 38.0107 40.3384 36.0214C41.4454 33.8444 41.369 30.0911 38.5059 26.9008ZM19.1123 32.1929C19.1505 33.319 20.1049 34.2197 21.2502 34.2197H21.3266C22.51 34.1822 23.4262 33.2063 23.388 32.0428C23.3499 30.9167 22.3954 30.016 21.2502 30.016H21.1739C21.0975 30.016 20.9829 30.016 20.9067 30.0534C19.3414 27.5012 18.6924 24.7238 18.9215 21.7211C19.0741 19.4691 19.8377 17.5173 21.1739 15.9033C22.2809 14.5146 24.4188 13.839 25.8696 13.8015C29.9162 13.7264 31.634 18.6808 31.7486 20.6701C32.2449 20.7827 33.0848 21.0455 33.6575 21.2332C33.1993 15.1528 29.3817 12 25.7169 12C22.2809 12 19.1123 14.4397 17.8524 18.0429C16.0964 22.8472 17.2416 27.4637 19.3795 31.1045C19.1887 31.3672 19.0741 31.7801 19.1123 32.193V32.1929Z" fill="#925FFF"/>
</svg>
