<svg width="52" height="52" viewBox="0 0 52 52" fill="none" xmlns="http://www.w3.org/2000/svg">
<path d="M0 26C0 11.6406 11.6406 0 26 0C40.3594 0 52 11.6406 52 26C52 40.3594 40.3594 52 26 52C11.6406 52 0 40.3594 0 26Z" fill="#101828"/>
<path d="M26 12C18.2781 12 12 18.2781 12 26C12 33.7219 18.2781 40 26 40C33.7219 40 40 33.7219 40 26C40 18.2781 33.7219 12 26 12Z" fill="#FDDD4C"/>
<path d="M21.7096 28.9865C21.4764 28.6073 22.063 28.0334 21.8244 27.5515C21.6868 27.2736 21.462 27.1005 21.192 27.0641C20.9329 27.0292 20.6659 27.1311 20.4958 27.3301C20.2272 27.6441 20.1854 28.0714 20.2373 28.2226C20.2564 28.278 20.2863 28.2931 20.3076 28.2964C20.454 28.3171 20.5363 27.9138 20.5868 27.8298C20.7265 27.5983 21.0436 27.5283 21.2627 27.6804C21.678 27.9689 21.3178 28.4351 21.3489 28.8288C21.3791 29.2122 21.6016 29.3663 21.8013 29.3825C21.9956 29.3904 22.1314 29.2745 22.1657 29.1899C22.2479 28.9879 21.9015 29.2985 21.7096 28.9865Z" fill="black"/>
<path d="M30.3868 25.5057C30.2779 25.4895 30.1588 25.4899 30.035 25.5057C29.9409 25.3782 29.8567 25.1719 29.8091 24.9311C29.7246 24.5027 29.7334 24.1924 29.9694 24.1521C30.2055 24.1118 30.3196 24.371 30.4041 24.7994C30.4609 25.0874 30.45 25.352 30.3868 25.5057Z" fill="black"/>
<path d="M27.8016 25.7606C27.8109 25.8576 27.8142 25.9557 27.8116 26.0461C28.04 26.0605 28.2017 26.177 28.2448 26.2509C28.2669 26.2891 28.2581 26.3139 28.2509 26.3254C28.2273 26.3649 28.1766 26.3588 28.0705 26.346C27.9778 26.3349 27.878 26.325 27.7742 26.3302C27.7177 26.5161 27.5503 26.5335 27.4327 26.396C27.3505 26.4229 27.1891 26.5336 27.1411 26.4133C27.1406 26.3536 27.1987 26.2668 27.304 26.1902C27.2322 26.0431 27.184 25.8855 27.1556 25.7224C27.0064 25.7512 26.8721 25.7961 26.7669 25.8313C26.7175 25.8478 26.5221 25.9426 26.4992 25.8358C26.4839 25.762 26.5909 25.6403 26.704 25.5525C26.8303 25.4561 26.9705 25.3876 27.1159 25.3481C27.1127 25.1158 27.168 24.9537 27.3252 24.9268C27.5201 24.8935 27.6409 25.0547 27.7245 25.3531C27.9601 25.4234 28.1953 25.5976 28.2992 25.7778C28.3396 25.8477 28.3474 25.9017 28.3212 25.9301C28.256 26.0028 27.8943 25.7921 27.8016 25.7606Z" fill="black"/>
<path d="M29.3506 26.8049C29.5001 26.8827 29.6644 26.8521 29.7181 26.7365C29.7718 26.621 29.694 26.4644 29.5446 26.3866C29.3951 26.3088 29.2308 26.3394 29.1771 26.455C29.1234 26.5706 29.2012 26.7272 29.3506 26.8049Z" fill="black"/>
<path d="M30.0862 26.2311C30.0889 26.0543 30.1898 25.9132 30.311 25.9154C30.4323 25.9179 30.5284 26.0626 30.5257 26.239C30.523 26.4154 30.4221 26.5565 30.3009 26.5544C30.1796 26.5522 30.0835 26.4075 30.0862 26.2311Z" fill="black"/>
<path fill-rule="evenodd" clip-rule="evenodd" d="M33.3741 28.3958C33.3731 28.3921 33.3765 28.4048 33.3741 28.3958C33.6176 28.3958 34 28.6924 34 29.4092C34 30.1223 33.7208 30.9301 33.6549 31.1094C32.6493 33.664 30.2493 35.086 27.3904 34.996C24.725 34.9121 22.452 33.4213 21.4572 30.991C20.8558 30.9917 20.2356 30.7113 19.7642 30.2685C19.2674 29.8019 18.961 29.1982 18.9013 28.5686C18.8547 28.0782 18.9115 27.6221 19.0565 27.2243L18.4978 26.7225C15.9412 24.4343 23.9375 15.0132 26.4948 17.3776C26.5077 17.3895 27.3649 18.2809 27.3669 18.283C28.6 17.7281 31.9039 16.6714 31.9076 19.1312C31.909 19.948 31.4179 20.9006 30.631 21.7649C31.5404 22.6589 31.3006 23.9288 31.4454 25.0938L31.7612 25.1867C32.3634 25.3656 32.7916 25.6043 33.0012 25.8376C33.2107 26.0705 33.3147 26.2962 33.3524 26.5608C33.3877 26.7743 33.3829 27.1512 33.1173 27.5728C33.213 27.8447 33.3003 28.1159 33.3741 28.3958ZM21.4121 30.3282C21.5014 30.3304 21.59 30.3243 21.677 30.3084C22.6113 30.1396 22.8558 29.0639 22.7019 28.0077C22.528 26.815 21.767 26.3945 21.2504 26.3646C21.1067 26.3567 20.9733 26.3704 20.8632 26.3938C19.9412 26.5907 19.4205 27.4223 19.5231 28.5023C19.6158 29.4797 20.5484 30.3037 21.4121 30.3282ZM19.3238 26.6868C19.6331 26.2106 20.1388 25.866 20.7128 25.7476C21.4433 23.669 22.6632 21.7538 24.2778 20.4358C25.4759 19.3764 26.7682 18.6164 26.7682 18.6164C26.7682 18.6164 26.0723 17.761 25.8621 17.698C24.5692 17.328 21.7768 19.3692 19.9938 22.0663C19.2725 23.1574 18.2397 25.0899 18.7335 26.0838C18.7943 26.207 19.139 26.5234 19.3238 26.6868ZM29.8061 29.8509C29.8081 29.8732 29.7952 29.8962 29.7765 29.9045C29.7765 29.9045 28.7376 30.4168 27.0874 29.8757C27.1468 30.4069 27.7466 30.6082 28.1657 30.681C30.2105 31.054 32.1223 29.8145 32.5525 29.5024C32.6264 29.4488 32.5516 29.5866 32.5383 29.6068C32.0115 30.3271 30.5953 31.1613 28.7529 31.1609C27.9494 31.1605 27.1462 30.8607 26.8514 30.3995C26.3939 29.6842 26.8286 28.6398 27.5911 28.7486C28.8798 28.9028 30.2011 28.7869 31.3941 28.1999C32.4344 27.688 32.8273 27.125 32.7682 26.6688C32.6766 25.962 31.7006 25.8514 31.2073 25.6796C30.9927 25.6043 30.8867 25.5442 30.8626 25.1162C30.8521 24.9293 30.8215 24.2774 30.8103 24.0077C30.7906 23.5358 30.737 22.8903 30.3593 22.6239C30.2608 22.5544 30.1515 22.5209 30.0363 22.5145C29.9445 22.5098 29.8901 22.5233 29.8608 22.5306C29.8543 22.5322 29.8489 22.5335 29.8448 22.5343C29.6409 22.571 29.5159 22.6818 29.3685 22.8125C29.36 22.82 29.3515 22.8276 29.3428 22.8352C28.8718 23.2514 28.4741 23.3194 28.0316 23.2993C27.8937 23.2931 27.7517 23.2783 27.6019 23.2627C27.464 23.2483 27.3196 23.2333 27.1659 23.2237L26.9781 23.2121C26.237 23.1718 25.4423 23.8501 25.3102 24.8134C25.1626 25.8887 25.7223 26.5473 26.0863 26.9757C26.1762 27.0815 26.2542 27.1733 26.3066 27.2538C26.3403 27.3024 26.3793 27.3708 26.3793 27.436C26.3793 27.5138 26.3318 27.5753 26.2852 27.6279C25.5293 28.4519 25.2874 29.7612 25.5724 30.8524C25.608 30.9885 25.6532 31.1188 25.7065 31.2433C26.3749 32.899 28.4486 33.6701 30.4741 32.9688C31.8937 32.4773 33.1479 31.2896 33.4033 29.6511C33.4641 29.2241 33.3748 29.0592 33.2532 28.9797C33.1245 28.8958 32.9703 28.925 32.9703 28.925C32.9703 28.925 32.9 28.4148 32.701 27.9512C32.1104 28.4451 31.3503 28.7921 30.7716 28.9682C29.8444 29.2501 28.8428 29.3599 27.8847 29.2269C27.4961 29.173 27.235 29.1368 27.1231 29.5222C28.4011 30.0183 29.7538 29.8059 29.7538 29.8059C29.7799 29.803 29.8033 29.8232 29.8061 29.8509ZM26.1188 20.2241C25.4199 20.6032 24.6395 21.2782 24.0057 22.0547C23.9833 22.0825 24.0166 22.1206 24.0441 22.0994C24.5916 21.6771 25.3421 21.2847 26.3253 21.0305C27.4267 20.7458 28.487 20.8653 29.1346 21.0226C29.1672 21.0305 29.1876 20.9711 29.1587 20.9539C28.7308 20.6993 28.074 20.5265 27.6081 20.5229C27.5853 20.5226 27.5724 20.4945 27.586 20.4751C27.6665 20.3602 27.7768 20.2468 27.8777 20.1647C27.9001 20.146 27.8865 20.1075 27.858 20.1093C27.2784 20.147 25.9545 20.7953 25.9592 20.7717C25.9932 20.5989 26.1002 20.3707 26.1555 20.2641C26.1688 20.2389 26.1429 20.2112 26.1188 20.2241Z" fill="black"/>
</svg>
