<svg width="44" height="39" viewBox="0 0 44 39" fill="none" xmlns="http://www.w3.org/2000/svg">
<g clip-path="url(#clip0_19146_13336)">
<path d="M3.29897 33.3907L5.22337 36.7124C5.62324 37.4117 6.19806 37.9612 6.87285 38.3608L13.7457 26.4727H0C0 27.2469 0.199938 28.0211 0.599813 28.7204L3.29897 33.3907Z" fill="#0066DA"/>
<path d="M21.8182 12.4858L14.9453 0.597656C14.2705 0.997257 13.6957 1.54671 13.2958 2.24601L0.599813 24.224C0.207292 24.9083 0.000522618 25.6831 0 26.4718H13.7457L21.8182 12.4858Z" fill="#00AC47"/>
<path d="M36.7645 38.3608C37.4393 37.9612 38.0141 37.4117 38.414 36.7124L39.2137 35.3388L43.0375 28.7204C43.4374 28.0211 43.6373 27.2469 43.6373 26.4727H29.8906L32.8157 32.2169L36.7645 38.3608Z" fill="#EA4335"/>
<path d="M21.8182 12.4875L28.691 0.599401C28.0162 0.1998 27.2415 0 26.4417 0H17.1946C16.3949 0 15.6201 0.224775 14.9453 0.599401L21.8182 12.4875Z" fill="#00832D"/>
<path d="M29.8889 26.4727H13.7439L6.87109 38.3608C7.54588 38.7604 8.32064 38.9602 9.12039 38.9602H34.5125C35.3122 38.9602 36.087 38.7354 36.7618 38.3608L29.8889 26.4727Z" fill="#2684FC"/>
<path d="M36.6868 13.235L30.3387 2.24601C29.9389 1.54671 29.364 0.997257 28.6893 0.597656L21.8164 12.4858L29.8889 26.4718H43.6096C43.6096 25.6976 43.4097 24.9233 43.0098 24.224L36.6868 13.235Z" fill="#FFBA00"/>
</g>
<defs>
<clipPath id="clip0_19146_13336">
<rect width="43.6364" height="38.961" fill="white"/>
</clipPath>
</defs>
</svg>
