<svg width="44" height="43" viewBox="0 0 44 43" fill="none" xmlns="http://www.w3.org/2000/svg">
<g clip-path="url(#clip0_19146_13330)">
<path fill-rule="evenodd" clip-rule="evenodd" d="M21.7532 0C9.72423 0 0 9.79592 0 21.9148C0 31.6021 6.23065 39.8022 14.8742 42.7044C15.9549 42.9226 16.3507 42.2329 16.3507 41.6527C16.3507 41.1446 16.3151 39.4032 16.3151 37.5887C10.2639 38.8951 9.00379 34.9763 9.00379 34.9763C8.03132 32.4365 6.59043 31.7837 6.59043 31.7837C4.60987 30.4413 6.73469 30.4413 6.73469 30.4413C8.93165 30.5864 10.0845 32.6908 10.0845 32.6908C12.0289 36.0285 15.1623 35.0854 16.4229 34.5048C16.6027 33.0897 17.1794 32.1101 17.7916 31.566C12.9653 31.058 7.8875 29.1714 7.8875 20.7535C7.8875 18.3589 8.75132 16.3997 10.1201 14.876C9.90412 14.3319 9.14761 12.0819 10.3365 9.07058C10.3365 9.07058 12.1732 8.48994 16.3147 11.3201C18.0878 10.8404 19.9163 10.5963 21.7532 10.5943C23.5899 10.5943 25.4623 10.8485 27.1912 11.3201C31.3331 8.48994 33.1699 9.07058 33.1699 9.07058C34.3587 12.0819 33.6018 14.3319 33.3858 14.876C34.7906 16.3997 35.6189 18.3589 35.6189 20.7535C35.6189 29.1714 30.541 31.0214 25.6787 31.566C26.4712 32.2553 27.1552 33.5613 27.1552 35.6295C27.1552 38.5683 27.1196 40.9269 27.1196 41.6522C27.1196 42.2329 27.5158 42.9226 28.5961 42.7049C37.2396 39.8017 43.4703 31.6021 43.4703 21.9148C43.5059 9.79592 33.7461 0 21.7532 0Z" fill="#24292F"/>
</g>
<defs>
<clipPath id="clip0_19146_13330">
<rect width="43.6364" height="42.7458" fill="white"/>
</clipPath>
</defs>
</svg>
