<svg width="44" height="46" viewBox="0 0 44 46" fill="none" xmlns="http://www.w3.org/2000/svg">
<g clip-path="url(#clip0_19146_13347)">
<path d="M2.76825 1.96117L27.9739 0.0732808C31.0335 -0.217164 31.8349 0.000669722 33.8018 1.38028L41.888 7.04395C43.1993 7.98789 43.6364 8.27834 43.6364 9.3675V40.3724C43.6364 42.3329 42.9079 43.4947 40.431 43.6399L11.1458 45.3826C9.25178 45.4552 8.3776 45.2374 7.43057 44.003L1.52982 36.3788C0.437092 34.9266 0 33.9101 0 32.6757V5.08345C0 3.486 0.728487 2.10639 2.76825 1.96117Z" fill="white"/>
<path fill-rule="evenodd" clip-rule="evenodd" d="M27.9739 0.0733916L2.76825 1.96128C0.728487 2.1065 0 3.48611 0 5.08356V32.6758C0 33.9102 0.437092 34.9993 1.52982 36.3789L7.43057 44.0757C8.3776 45.3101 9.32463 45.6005 11.1458 45.4553L40.431 43.7127C42.9079 43.5674 43.6364 42.4057 43.6364 40.4452V9.36761C43.6364 8.35106 43.2721 8.06061 42.0337 7.18928C41.9608 7.11667 41.888 7.11667 41.8151 7.04406L33.8018 1.453C31.9077 0.000780576 31.1064 -0.144442 27.9739 0.0733916ZM11.8015 8.85933C9.39748 9.00456 8.88754 9.07717 7.50341 7.91539L4.07953 5.22878C3.71528 4.86572 3.86098 4.43006 4.80801 4.35745L29.0666 2.61478C31.1064 2.46956 32.1263 3.12306 32.9276 3.77656L37.08 6.75361C37.2985 6.82622 37.7356 7.3345 37.1528 7.3345L12.0929 8.85933H11.8015ZM9.03324 40.1547V13.7969C9.03324 12.6351 9.39748 12.1268 10.4174 12.0542L39.1926 10.3842C40.1396 10.3116 40.5767 10.8924 40.5767 12.0542V38.1942C40.5767 39.356 40.3582 40.2999 38.8283 40.3726L11.2915 41.97C9.76172 42.1152 9.03324 41.5343 9.03324 40.1547ZM36.2058 15.2491C36.3515 16.0478 36.2058 16.8466 35.4045 16.9192L34.0932 17.2096V36.6694C32.9276 37.3229 31.9077 37.6133 31.0335 37.6133C29.6494 37.6133 29.2852 37.1777 28.1924 35.8707L19.4506 22.2198V35.3624L22.2188 36.0159C22.2188 36.0159 22.2188 37.6133 20.0334 37.6133L13.9141 37.9764C13.7684 37.6133 13.9141 36.742 14.4969 36.5968L16.0996 36.1611V18.7344L13.9141 18.5166C13.7684 17.7179 14.2055 16.5561 15.4439 16.4835L22.0003 16.0478L31.0335 29.8439V17.6453L28.7024 17.3548C28.5567 16.4109 29.2123 15.6848 30.0865 15.6122L36.2058 15.2491Z" fill="black"/>
</g>
<defs>
<clipPath id="clip0_19146_13347">
<rect width="43.6364" height="45.4546" fill="white"/>
</clipPath>
</defs>
</svg>
