<svg width="41" height="44" viewBox="0 0 41 44" fill="none" xmlns="http://www.w3.org/2000/svg">
<path d="M9.44032 26.9409C9.44032 29.1593 7.62807 30.9716 5.40961 30.9716C3.19116 30.9716 1.37891 29.1593 1.37891 26.9409C1.37891 24.7224 3.19116 22.9102 5.40961 22.9102H9.44032V26.9409Z" fill="#E01E5A"/>
<path d="M11.4727 26.9409C11.4727 24.7224 13.2849 22.9102 15.5034 22.9102C17.7218 22.9102 19.5341 24.7224 19.5341 26.9409V37.0333C19.5341 39.2517 17.7218 41.064 15.5034 41.064C13.2849 41.064 11.4727 39.2517 11.4727 37.0333V26.9409Z" fill="#E01E5A"/>
<path d="M15.5034 10.7567C13.2849 10.7567 11.4727 8.94447 11.4727 6.72602C11.4727 4.50757 13.2849 2.69531 15.5034 2.69531C17.7218 2.69531 19.5341 4.50757 19.5341 6.72602V10.7567H15.5034Z" fill="#36C5F0"/>
<path d="M15.502 12.7891C17.7205 12.7891 19.5327 14.6013 19.5327 16.8198C19.5327 19.0382 17.7205 20.8505 15.502 20.8505H5.40961C3.19116 20.8505 1.37891 19.0382 1.37891 16.8198C1.37891 14.6013 3.19116 12.7891 5.40961 12.7891H15.502Z" fill="#36C5F0"/>
<path d="M31.6875 16.8198C31.6875 14.6013 33.4998 12.7891 35.7182 12.7891C37.9367 12.7891 39.7489 14.6013 39.7489 16.8198C39.7489 19.0382 37.9367 20.8505 35.7182 20.8505H31.6875V16.8198Z" fill="#2EB67D"/>
<path d="M29.6552 16.8184C29.6552 19.0369 27.8429 20.8491 25.6245 20.8491C23.406 20.8491 21.5938 19.0369 21.5938 16.8184V6.72602C21.5938 4.50757 23.406 2.69531 25.6245 2.69531C27.8429 2.69531 29.6552 4.50757 29.6552 6.72602V16.8184Z" fill="#2EB67D"/>
<path d="M25.6245 33.0039C27.8429 33.0039 29.6552 34.8162 29.6552 37.0346C29.6552 39.2531 27.8429 41.0653 25.6245 41.0653C23.406 41.0653 21.5938 39.2531 21.5938 37.0346V33.0039H25.6245Z" fill="#ECB22E"/>
<path d="M25.6245 30.9716C23.406 30.9716 21.5938 29.1593 21.5938 26.9409C21.5938 24.7224 23.406 22.9102 25.6245 22.9102H35.7168C37.9353 22.9102 39.7476 24.7224 39.7476 26.9409C39.7476 29.1593 37.9353 30.9716 35.7168 30.9716H25.6245Z" fill="#ECB22E"/>
</svg>
