<svg width="36" height="36" viewBox="0 0 36 36" fill="none" xmlns="http://www.w3.org/2000/svg">
<g clip-path="url(#clip0_19146_13359)">
<path fill-rule="evenodd" clip-rule="evenodd" d="M77.8095 9.52924L77.4697 7.91599H72.7493V27.0455H78.2032V14.063C79.4936 12.3755 81.6705 12.704 82.3635 12.9189V7.91824C81.6367 7.65724 79.0864 7.17799 77.8095 9.52699V9.52924ZM66.8632 3.17749L61.5353 4.30924L61.5128 21.8165C61.5128 25.0452 63.9405 27.4336 67.1805 27.4336C68.9636 27.4336 70.281 27.0939 71.0111 26.7102V22.2665C70.3114 22.5455 66.8677 23.5467 66.8677 20.3315V12.569H71.0111V7.91487H66.8677L66.8632 3.17749ZM52.0875 13.4667C52.0875 12.614 52.7963 12.2855 53.9415 12.2855C55.8373 12.3265 57.6976 12.808 59.3753 13.6917V8.55049C57.6453 7.87031 55.8002 7.53108 53.9415 7.55149C49.527 7.55149 46.5649 9.86449 46.5649 13.7255C46.5649 19.7667 54.8617 18.7857 54.8617 21.3901C54.8617 22.4094 53.9842 22.7244 52.7659 22.7244C50.9591 22.7244 48.6259 21.9774 46.7955 20.9806V26.1894C48.6798 27.009 50.7111 27.4365 52.7659 27.446C57.303 27.446 60.4305 25.205 60.4305 21.2754C60.4305 14.7549 52.0864 15.9204 52.0864 13.4645L52.0875 13.4667ZM15.615 10.7049C15.615 9.16362 16.8975 8.56737 18.9697 8.56737C22.3994 8.64146 25.7648 9.51228 28.8 11.111V1.80724C25.6703 0.577295 22.3323 -0.0358355 18.9697 0.00161792C10.9822 0.00161792 5.625 4.18549 5.625 11.1717C5.625 22.1022 20.6347 20.327 20.6347 25.0385C20.6347 26.8812 19.0598 27.4527 16.8435 27.4527C13.5754 27.4527 9.35438 26.1005 6.0435 24.3005V33.7257C9.45226 35.2089 13.1272 35.9829 16.8446 36.0005C25.0537 36.0005 30.7125 31.9449 30.7125 24.8371C30.7125 13.0404 15.615 15.1475 15.615 10.7071V10.7049Z" fill="#6772E5"/>
</g>
<defs>
<clipPath id="clip0_19146_13359">
<rect width="36" height="36" fill="white"/>
</clipPath>
</defs>
</svg>
