<svg width="42" height="43" viewBox="0 0 42 43" fill="none" xmlns="http://www.w3.org/2000/svg">
<g clip-path="url(#clip0_19146_13367)">
<path d="M41.4804 17.7492H29.1593L37.8172 8.88513C37.1511 7.86254 36.485 7.18058 35.8189 6.15732C34.8606 5.44819 33.9688 4.64924 33.1552 3.77082L24.4986 12.6355V0.362395C23.4113 0.0806072 22.2891 -0.0341934 21.1688 0.0217544C20.0477 -0.0522431 18.9223 0.0628364 17.8377 0.362395V12.9768L8.84705 3.77216C7.81328 4.37882 6.90761 5.18981 6.18268 6.15799C5.51659 7.18058 4.51777 7.86254 3.85168 8.8858L12.5089 17.7492H0.521868L0.189149 21.1583C0.117017 22.3056 0.229419 23.4573 0.521868 24.5674H12.8436L3.85299 33.772C5.16854 35.8002 6.8667 37.5388 8.84771 38.8857L17.5056 30.0216V42.6368C18.5929 42.9186 19.7151 43.0334 20.8354 42.9774C21.9561 43.0513 23.081 42.9362 24.1652 42.6368V30.023L32.8225 38.8877C33.8561 38.2808 34.7615 37.4696 35.4862 36.5012C36.3442 35.6682 37.1246 34.7552 37.8172 33.7741L29.1593 24.9087H41.4804C41.7559 23.7955 41.8682 22.6466 41.8138 21.4996C41.8843 20.2395 41.7715 18.9756 41.4804 17.7492ZM26.1622 21.1583C26.1291 22.6591 25.9052 24.1491 25.4961 25.5906C24.1201 26.143 22.6414 26.376 21.1668 26.2726C19.7009 26.2387 18.2456 26.0095 16.8376 25.5906C16.298 24.1818 16.0705 22.668 16.1715 21.1583C16.2046 19.6575 16.4285 18.1675 16.8376 16.7259C18.2136 16.1735 19.6922 15.9406 21.1668 16.044C22.6327 16.0778 24.0881 16.3071 25.4961 16.7259C25.8802 18.173 26.1036 19.6599 26.1622 21.1583Z" fill="#FF4A00"/>
</g>
<defs>
<clipPath id="clip0_19146_13367">
<rect width="42" height="43" fill="white"/>
</clipPath>
</defs>
</svg>
