<svg width="148" height="44" viewBox="0 0 148 44" fill="none" xmlns="http://www.w3.org/2000/svg">
<rect width="148" height="44" rx="8" fill="white"/>
<path d="M34.8562 21.2586C34.8681 20.3258 35.1131 19.4112 35.5685 18.5999C36.024 17.7886 36.675 17.1069 37.461 16.6183C36.9617 15.8973 36.3029 15.3039 35.5371 14.8854C34.7713 14.4668 33.9195 14.2345 33.0494 14.207C31.1932 14.01 29.3938 15.3299 28.4479 15.3299C27.4838 15.3299 26.0275 14.2265 24.4593 14.2591C23.4449 14.2923 22.4564 14.5905 21.5899 15.1248C20.7234 15.659 20.0086 16.4111 19.5151 17.3077C17.3774 21.0499 18.972 26.5495 21.0197 29.5744C22.0443 31.0555 23.2417 32.7101 24.8085 32.6514C26.3416 32.5871 26.9143 31.6629 28.7649 31.6629C30.5984 31.6629 31.1357 32.6514 32.7342 32.6141C34.3794 32.5871 35.416 31.1263 36.4046 29.6311C37.1407 28.5757 37.7071 27.4093 38.0829 26.175C37.1271 25.7663 36.3115 25.0821 35.7377 24.2078C35.1639 23.3336 34.8573 22.3078 34.8562 21.2586Z" fill="#222530"/>
<path d="M31.8368 12.2176C32.7338 11.1289 33.1757 9.72945 33.0687 8.31658C31.6983 8.46211 30.4323 9.12434 29.5232 10.1713C29.0787 10.6828 28.7383 11.2778 28.5213 11.9224C28.3044 12.567 28.2153 13.2485 28.259 13.9279C28.9445 13.9351 29.6226 13.7848 30.2423 13.4886C30.8621 13.1923 31.4072 12.7578 31.8368 12.2176Z" fill="#222530"/>
<path d="M54.2366 28.9017H49.0046L47.7481 32.6527H45.532L50.4878 18.7747H52.7902L57.7459 32.6527H55.492L54.2366 28.9017ZM49.5465 27.1707H53.6937L51.6493 21.083H51.5921L49.5465 27.1707Z" fill="#222530"/>
<path d="M68.4486 27.5942C68.4486 30.7385 66.7841 32.7586 64.2722 32.7586C63.6359 32.7923 63.0031 32.6441 62.4462 32.331C61.8894 32.0179 61.4309 31.5526 61.1235 30.9884H61.0759V36H59.0218V22.5345H61.0101V24.2174H61.0479C61.3695 23.6559 61.8357 23.193 62.3968 22.878C62.9579 22.563 63.593 22.4077 64.2344 22.4286C66.7743 22.4287 68.4486 24.4586 68.4486 27.5942ZM66.3372 27.5942C66.3372 25.5457 65.2901 24.1989 63.6925 24.1989C62.123 24.1989 61.0673 25.574 61.0673 27.5942C61.0673 29.6329 62.123 30.9982 63.6925 30.9982C65.2901 30.9982 66.3372 29.6613 66.3372 27.5942Z" fill="#222530"/>
<path d="M79.4632 27.5942C79.4632 30.7385 77.7987 32.7586 75.2868 32.7586C74.6505 32.7923 74.0177 32.6441 73.4608 32.331C72.904 32.0179 72.4456 31.5526 72.1381 30.9884H72.0906V36H70.0364V22.5345H72.0247V24.2174H72.0625C72.3841 23.6559 72.8502 23.193 73.4114 22.878C73.9725 22.563 74.6075 22.4077 75.249 22.4287C77.7889 22.4287 79.4632 24.4586 79.4632 27.5942ZM77.3518 27.5942C77.3518 25.5457 76.3047 24.1989 74.7071 24.1989C73.1376 24.1989 72.0819 25.574 72.0819 27.5942C72.0819 29.6329 73.1376 30.9982 74.7071 30.9982C76.3047 30.9982 77.3518 29.6613 77.3518 27.5942Z" fill="#222530"/>
<path d="M86.7429 28.786C86.8951 30.1622 88.2174 31.0658 90.0244 31.0658C91.7558 31.0658 93.0015 30.1622 93.0015 28.9212C93.0015 27.844 92.2502 27.1991 90.4713 26.757L88.6924 26.3237C86.1719 25.7082 85.0018 24.5164 85.0018 22.5825C85.0018 20.188 87.0657 18.5433 89.9963 18.5433C92.8968 18.5433 94.8851 20.188 94.9521 22.5825H92.8784C92.7543 21.1975 91.622 20.3615 89.9672 20.3615C88.3124 20.3615 87.1801 21.2073 87.1801 22.4384C87.1801 23.4196 87.9033 23.9969 89.6725 24.4389L91.1848 24.8143C94.001 25.4877 95.1712 26.6315 95.1712 28.6615C95.1712 31.2579 93.1256 32.884 89.8722 32.884C86.8281 32.884 84.7729 31.2961 84.6401 28.7859L86.7429 28.786Z" fill="#222530"/>
<path d="M99.6044 20.14V22.5345H101.507V24.1792H99.6044V29.7573C99.6044 30.6238 99.9855 31.0277 100.822 31.0277C101.048 31.0237 101.274 31.0076 101.498 30.9796V32.6145C101.122 32.6856 100.739 32.7177 100.357 32.7105C98.3307 32.7105 97.5406 31.9411 97.5406 29.9788V24.1792H96.0855V22.5345H97.5405V20.14H99.6044Z" fill="#222530"/>
<path d="M102.61 27.5942C102.61 24.4106 104.464 22.4101 107.356 22.4101C110.257 22.4101 112.103 24.4106 112.103 27.5942C112.103 30.7865 110.267 32.7782 107.356 32.7782C104.446 32.7782 102.61 30.7865 102.61 27.5942ZM110.01 27.5942C110.01 25.4103 109.02 24.1214 107.356 24.1214C105.691 24.1214 104.703 25.4201 104.703 27.5942C104.703 29.7868 105.691 31.0659 107.356 31.0659C109.02 31.0659 110.01 29.7868 110.01 27.5942Z" fill="#222530"/>
<path d="M113.797 22.5345H115.756V24.2567H115.804C115.936 23.7188 116.248 23.2435 116.686 22.9106C117.125 22.5777 117.663 22.4075 118.211 22.4286C118.448 22.4278 118.684 22.4538 118.915 22.5061V24.4488C118.616 24.3565 118.304 24.3141 117.992 24.3233C117.693 24.311 117.396 24.3642 117.12 24.4792C116.843 24.5942 116.595 24.7683 116.392 24.9894C116.188 25.2106 116.035 25.4736 115.941 25.7605C115.848 26.0473 115.817 26.3512 115.851 26.6512V32.6527H113.797L113.797 22.5345Z" fill="#222530"/>
<path d="M128.386 29.6809C128.109 31.5177 126.34 32.7782 124.076 32.7782C121.165 32.7782 119.358 30.8061 119.358 27.6422C119.358 24.4684 121.175 22.4101 123.99 22.4101C126.759 22.4101 128.5 24.3331 128.5 27.401V28.1126H121.432V28.2381C121.399 28.6105 121.445 28.9856 121.567 29.3386C121.689 29.6915 121.884 30.0143 122.138 30.2853C122.393 30.5564 122.702 30.7696 123.044 30.9108C123.386 31.0519 123.754 31.1178 124.124 31.1041C124.609 31.15 125.097 31.0364 125.513 30.78C125.929 30.5235 126.253 30.1381 126.435 29.6809L128.386 29.6809ZM121.442 26.661H126.445C126.463 26.3262 126.413 25.9912 126.297 25.6769C126.182 25.3626 126.003 25.0759 125.772 24.8348C125.542 24.5936 125.265 24.4033 124.958 24.2756C124.651 24.148 124.322 24.0858 123.99 24.093C123.656 24.091 123.324 24.156 123.014 24.2842C122.705 24.4124 122.424 24.6014 122.187 24.8401C121.95 25.0789 121.762 25.3627 121.634 25.6753C121.506 25.9878 121.441 26.3228 121.442 26.661Z" fill="#222530"/>
<path d="M49.289 8.32857C49.7197 8.29732 50.1518 8.3631 50.5543 8.52116C50.9568 8.67923 51.3195 8.92563 51.6164 9.2426C51.9133 9.55957 52.1369 9.93921 52.2711 10.3541C52.4053 10.7691 52.4467 11.2089 52.3924 11.642C52.3924 13.7724 51.2536 14.997 49.289 14.997H46.9067V8.32857H49.289ZM47.9311 14.0539H49.1746C49.4823 14.0725 49.7903 14.0215 50.0761 13.9046C50.3619 13.7877 50.6183 13.6078 50.8266 13.3781C51.035 13.1483 51.19 12.8745 51.2805 12.5765C51.371 12.2786 51.3946 11.964 51.3497 11.6556C51.3914 11.3484 51.3653 11.0358 51.2734 10.74C51.1816 10.4442 51.0261 10.1726 50.8183 9.94473C50.6104 9.71683 50.3552 9.53823 50.0711 9.42174C49.7869 9.30524 49.4808 9.25374 49.1746 9.27092H47.9311V14.0539Z" fill="#222530"/>
<path d="M53.5496 12.4785C53.5183 12.1478 53.5557 11.8141 53.6594 11.4989C53.7632 11.1837 53.9309 10.8938 54.1519 10.648C54.3729 10.4021 54.6423 10.2057 54.9428 10.0713C55.2433 9.93686 55.5682 9.86743 55.8968 9.86743C56.2254 9.86743 56.5504 9.93686 56.8509 10.0713C57.1513 10.2057 57.4207 10.4021 57.6417 10.648C57.8627 10.8938 58.0305 11.1837 58.1342 11.4989C58.2379 11.8141 58.2754 12.1478 58.2441 12.4785C58.276 12.8096 58.239 13.1437 58.1355 13.4594C58.0321 13.7752 57.8644 14.0655 57.6434 14.3119C57.4223 14.5582 57.1527 14.7551 56.8519 14.8898C56.5511 15.0245 56.2258 15.0941 55.8968 15.0941C55.5678 15.0941 55.2425 15.0245 54.9417 14.8898C54.6409 14.7551 54.3713 14.5582 54.1503 14.3119C53.9292 14.0655 53.7616 13.7752 53.6581 13.4594C53.5547 13.1437 53.5177 12.8096 53.5496 12.4785ZM57.2337 12.4785C57.2337 11.3877 56.749 10.7498 55.8984 10.7498C55.0446 10.7498 54.5643 11.3877 54.5643 12.4785C54.5643 13.5781 55.0446 14.2111 55.8984 14.2111C56.7491 14.2111 57.2337 13.5737 57.2337 12.4785Z" fill="#222530"/>
<path d="M64.4843 14.9969H63.4653L62.4366 11.2905H62.3589L61.3345 14.9969H60.3252L58.9533 9.9645H59.9496L60.8412 13.8045H60.9146L61.9379 9.9645H62.8803L63.9036 13.8045H63.9813L64.8686 9.9645H65.8509L64.4843 14.9969Z" fill="#222530"/>
<path d="M67.0048 9.9645H67.9504V10.7639H68.0238C68.1483 10.4768 68.3583 10.2361 68.6246 10.0754C68.8908 9.91468 69.2 9.84196 69.5091 9.86736C69.7513 9.84895 69.9945 9.88587 70.2206 9.97538C70.4468 10.0649 70.6501 10.2047 70.8156 10.3845C70.981 10.5642 71.1043 10.7793 71.1764 11.0138C71.2485 11.2483 71.2674 11.4962 71.2319 11.7391V14.9968H70.2496V11.9885C70.2496 11.1798 69.902 10.7776 69.1756 10.7776C69.0111 10.7698 68.847 10.7981 68.6944 10.8605C68.5418 10.9229 68.4043 11.0179 68.2915 11.1391C68.1786 11.2602 68.0929 11.4046 68.0404 11.5623C67.9879 11.72 67.9697 11.8874 67.9871 12.0529V14.9969H67.0048L67.0048 9.9645Z" fill="#222530"/>
<path d="M72.7971 8H73.7794V14.9969H72.7971V8Z" fill="#222530"/>
<path d="M75.1449 12.4785C75.1136 12.1478 75.151 11.8141 75.2548 11.4988C75.3585 11.1836 75.5263 10.8937 75.7473 10.6479C75.9684 10.402 76.2378 10.2056 76.5383 10.0712C76.8388 9.93677 77.1638 9.86733 77.4924 9.86733C77.821 9.86733 78.146 9.93677 78.4465 10.0712C78.747 10.2056 79.0164 10.402 79.2374 10.6479C79.4585 10.8937 79.6262 11.1836 79.73 11.4988C79.8337 11.8141 79.8712 12.1478 79.8399 12.4785C79.8717 12.8096 79.8347 13.1437 79.7312 13.4595C79.6278 13.7752 79.4601 14.0656 79.239 14.3119C79.0179 14.5582 78.7483 14.755 78.4475 14.8897C78.1467 15.0244 77.8214 15.094 77.4924 15.094C77.1634 15.094 76.838 15.0244 76.5372 14.8897C76.2364 14.755 75.9668 14.5582 75.7458 14.3119C75.5247 14.0656 75.357 13.7752 75.2535 13.4595C75.15 13.1437 75.113 12.8096 75.1449 12.4785ZM78.829 12.4785C78.829 11.3877 78.3443 10.7498 77.4937 10.7498C76.6399 10.7498 76.1596 11.3877 76.1596 12.4785C76.1596 13.5781 76.6399 14.2111 77.4937 14.2111C78.3443 14.2111 78.829 13.5737 78.829 12.4785Z" fill="#222530"/>
<path d="M80.874 13.5737C80.874 12.6679 81.5411 12.1456 82.7252 12.0714L84.0735 11.9928V11.5585C84.0735 11.027 83.7259 10.7268 83.0545 10.7268C82.5061 10.7268 82.1262 10.9304 82.0171 11.2862H81.0661C81.1665 10.4218 81.9707 9.86738 83.0998 9.86738C84.3476 9.86738 85.0514 10.4955 85.0514 11.5585V14.9969H84.1059V14.2897H84.0281C83.8704 14.5433 83.6489 14.7502 83.3862 14.889C83.1236 15.0278 82.8292 15.0936 82.5331 15.0798C82.3242 15.1018 82.113 15.0792 81.9132 15.0136C81.7134 14.948 81.5294 14.8408 81.3731 14.6989C81.2167 14.557 81.0916 14.3836 81.0056 14.1898C80.9197 13.996 80.8748 13.7861 80.874 13.5737ZM84.0735 13.1437V12.723L82.858 12.8016C82.1726 12.8479 81.8617 13.0837 81.8617 13.5273C81.8617 13.9802 82.2503 14.2438 82.7846 14.2438C82.9412 14.2598 83.0994 14.2439 83.2497 14.1968C83.4 14.1498 83.5395 14.0726 83.6597 13.97C83.78 13.8674 83.8786 13.7413 83.9496 13.5994C84.0207 13.4574 84.0628 13.3024 84.0735 13.1437Z" fill="#222530"/>
<path d="M86.3424 12.4785C86.3424 10.8884 87.1509 9.88102 88.4085 9.88102C88.7196 9.86652 89.0283 9.94185 89.2986 10.0982C89.5688 10.2545 89.7895 10.4854 89.9348 10.7639H90.0082V8H90.9905V14.9969H90.0492V14.2018H89.9715C89.815 14.4784 89.5866 14.7064 89.3111 14.8612C89.0356 15.0159 88.7235 15.0915 88.4085 15.0798C87.1423 15.0799 86.3424 14.0725 86.3424 12.4785ZM87.3572 12.4785C87.3572 13.5459 87.8548 14.1882 88.687 14.1882C89.5149 14.1882 90.0266 13.5366 90.0266 12.4829C90.0266 11.4341 89.5096 10.7732 88.687 10.7732C87.8601 10.7732 87.3572 11.4199 87.3572 12.4785Z" fill="#222530"/>
<path d="M95.0546 12.4785C95.0233 12.1478 95.0607 11.8141 95.1645 11.4989C95.2682 11.1837 95.4359 10.8938 95.6569 10.648C95.8779 10.4021 96.1473 10.2057 96.4478 10.0713C96.7483 9.93686 97.0733 9.86743 97.4019 9.86743C97.7304 9.86743 98.0554 9.93686 98.3559 10.0713C98.6564 10.2057 98.9258 10.4021 99.1468 10.648C99.3678 10.8938 99.5355 11.1837 99.6392 11.4989C99.743 11.8141 99.7804 12.1478 99.7491 12.4785C99.781 12.8096 99.744 13.1437 99.6406 13.4594C99.5371 13.7752 99.3695 14.0655 99.1484 14.3119C98.9273 14.5582 98.6578 14.7551 98.357 14.8898C98.0562 15.0245 97.7308 15.0941 97.4019 15.0941C97.0729 15.0941 96.7475 15.0245 96.4467 14.8898C96.146 14.7551 95.8764 14.5582 95.6553 14.3119C95.4342 14.0655 95.2666 13.7752 95.1631 13.4594C95.0597 13.1437 95.0227 12.8096 95.0546 12.4785ZM98.7387 12.4785C98.7387 11.3877 98.2541 10.7498 97.4035 10.7498C96.5496 10.7498 96.0693 11.3877 96.0693 12.4785C96.0693 13.5781 96.5497 14.2111 97.4035 14.2111C98.2541 14.2111 98.7387 13.5737 98.7387 12.4785Z" fill="#222530"/>
<path d="M101.067 9.9645H102.013V10.7639H102.086C102.211 10.4768 102.421 10.2361 102.687 10.0754C102.953 9.91468 103.262 9.84196 103.571 9.86736C103.814 9.84895 104.057 9.88587 104.283 9.97538C104.509 10.0649 104.712 10.2047 104.878 10.3845C105.043 10.5642 105.167 10.7793 105.239 11.0138C105.311 11.2483 105.33 11.4962 105.294 11.7391V14.9968H104.312V11.9885C104.312 11.1798 103.964 10.7776 103.238 10.7776C103.073 10.7698 102.909 10.7981 102.757 10.8605C102.604 10.9229 102.467 11.0179 102.354 11.1391C102.241 11.2602 102.155 11.4046 102.103 11.5623C102.05 11.72 102.032 11.8874 102.049 12.0529V14.9969H101.067V9.9645Z" fill="#222530"/>
<path d="M110.845 8.7116V9.98742H111.923V10.824H110.845V13.4116C110.845 13.9388 111.059 14.1696 111.548 14.1696C111.674 14.1692 111.799 14.1615 111.923 14.1467V14.9739C111.747 15.0059 111.568 15.0228 111.389 15.0247C110.296 15.0247 109.861 14.6362 109.861 13.6659V10.8239H109.071V9.98738H109.861V8.7116H110.845Z" fill="#222530"/>
<path d="M113.265 8H114.238V10.7732H114.316C114.447 10.4834 114.663 10.2413 114.934 10.08C115.206 9.9187 115.52 9.84597 115.834 9.87173C116.075 9.85847 116.316 9.89914 116.539 9.99083C116.763 10.0825 116.964 10.223 117.127 10.4022C117.291 10.5813 117.414 10.7949 117.486 11.0275C117.559 11.2601 117.58 11.506 117.548 11.7478V14.9969H116.565V11.9928C116.565 11.189 116.194 10.7819 115.5 10.7819C115.332 10.7679 115.162 10.7914 115.003 10.8507C114.844 10.91 114.7 11.0037 114.58 11.1252C114.461 11.2467 114.369 11.3931 114.312 11.5542C114.254 11.7153 114.232 11.8872 114.247 12.0578V14.9968H113.265L113.265 8Z" fill="#222530"/>
<path d="M123.276 13.6381C123.142 14.098 122.853 14.4959 122.459 14.762C122.064 15.0282 121.59 15.1457 121.119 15.094C120.791 15.1028 120.465 15.0392 120.164 14.9079C119.863 14.7766 119.593 14.5805 119.374 14.3334C119.156 14.0862 118.993 13.7939 118.897 13.4767C118.801 13.1595 118.775 12.8251 118.82 12.4965C118.776 12.167 118.803 11.8318 118.898 11.5136C118.994 11.1955 119.156 10.9018 119.374 10.6525C119.591 10.4032 119.859 10.2041 120.16 10.0686C120.46 9.93317 120.786 9.86454 121.114 9.86737C122.499 9.86737 123.335 10.824 123.335 12.4043V12.7508H119.82V12.8065C119.805 12.9911 119.828 13.177 119.888 13.3522C119.947 13.5274 120.043 13.688 120.168 13.8237C120.292 13.9595 120.444 14.0673 120.612 14.1404C120.781 14.2135 120.962 14.2502 121.146 14.2481C121.381 14.2767 121.619 14.2339 121.83 14.1253C122.04 14.0166 122.215 13.847 122.33 13.6381L123.276 13.6381ZM119.82 12.0163H122.334C122.347 11.8474 122.324 11.6778 122.268 11.5183C122.211 11.3588 122.123 11.2129 122.007 11.0902C121.892 10.9674 121.752 10.8704 121.598 10.8054C121.443 10.7403 121.277 10.7088 121.109 10.7126C120.939 10.7105 120.771 10.7427 120.613 10.8075C120.456 10.8723 120.313 10.9682 120.193 11.0897C120.073 11.2112 119.978 11.3558 119.914 11.5149C119.85 11.6741 119.818 11.8445 119.82 12.0163Z" fill="#222530"/>
</svg>
