<svg width="148" height="44" viewBox="0 0 148 44" fill="none" xmlns="http://www.w3.org/2000/svg">
<rect width="148" height="44" rx="8" fill="white"/>
<path d="M54.1598 12.262C54.1598 13.0295 53.9674 13.7011 53.4863 14.1808C52.9089 14.7565 52.2354 15.0443 51.3694 15.0443C50.5034 15.0443 49.8299 14.7565 49.2526 14.1808C48.6753 13.6051 48.3866 12.9336 48.3866 12.0701C48.3866 11.2066 48.6753 10.5351 49.2526 9.9594C49.8299 9.38377 50.5034 9.09593 51.3694 9.09593C51.7543 9.09593 52.1392 9.19186 52.524 9.38377C52.9089 9.57563 53.1976 9.76754 53.39 10.0553L52.9089 10.535C52.524 10.0553 52.0429 9.86347 51.3694 9.86347C50.7921 9.86347 50.2148 10.0553 49.8299 10.535C49.3488 10.9188 49.1564 11.4945 49.1564 12.166C49.1564 12.8377 49.3488 13.4133 49.8299 13.7971C50.311 14.1808 50.7921 14.4686 51.3694 14.4686C52.0429 14.4686 52.524 14.2768 53.0052 13.7971C53.2938 13.5092 53.4863 13.1254 53.4863 12.6457H51.3694V11.9742H54.1598C54.1598 11.9742 54.1598 12.0701 54.1598 12.262Z" fill="#222530" stroke="#222530" stroke-width="0.2" stroke-miterlimit="10"/>
<path d="M58.5864 9.86347H55.9885V11.6863H58.3939V12.358H55.9885V14.1808H58.5864V14.8524H55.2187V9.09593H58.5864V9.86347Z" fill="#222530" stroke="#222530" stroke-width="0.2" stroke-miterlimit="10"/>
<path d="M61.7618 14.8524H60.9918V9.76755H59.356V9.09593H63.3971V9.76755H61.7618V14.8524Z" fill="#222530" stroke="#222530" stroke-width="0.2" stroke-miterlimit="10"/>
<path d="M66.1877 14.8524V9.09593H66.9571V14.8524H66.1877Z" fill="#222530" stroke="#222530" stroke-width="0.2" stroke-miterlimit="10"/>
<path d="M70.2288 14.8524H69.4595V9.76755H67.8236V9.09593H71.7686V9.76755H70.1327V14.8524H70.2288Z" fill="#222530" stroke="#222530" stroke-width="0.2" stroke-miterlimit="10"/>
<path d="M79.3697 14.1808C78.7926 14.7565 78.1188 15.0443 77.2528 15.0443C76.3868 15.0443 75.7136 14.7565 75.1359 14.1808C74.5587 13.6051 74.2699 12.9336 74.2699 12.0701C74.2699 11.2066 74.5587 10.5351 75.1359 9.9594C75.7136 9.38377 76.3868 9.09593 77.2528 9.09593C78.1188 9.09593 78.7926 9.38377 79.3697 9.9594C79.9468 10.5351 80.2357 11.2066 80.2357 12.0701C80.2357 12.8377 79.9468 13.6051 79.3697 14.1808ZM75.7136 13.7011C76.0985 14.0849 76.6757 14.3727 77.2528 14.3727C77.8305 14.3727 78.4076 14.1808 78.7926 13.7011C79.1775 13.3174 79.4658 12.7417 79.4658 12.0701C79.4658 11.3985 79.2736 10.8229 78.7926 10.4391C78.4076 10.0553 77.8305 9.76755 77.2528 9.76755C76.6757 9.76755 76.0985 9.9594 75.7136 10.4391C75.3286 10.8229 75.0398 11.3985 75.0398 12.0701C75.0398 12.6457 75.2325 13.2214 75.7136 13.7011Z" fill="#222530" stroke="#222530" stroke-width="0.2" stroke-miterlimit="10"/>
<path d="M81.2944 14.8524V9.09593H82.1603L84.9505 13.6051V12.4539V9.09593H85.7204V14.8524H84.9505L81.9676 10.1513V11.3026V14.8524H81.2944Z" fill="#222530" stroke="#222530" stroke-width="0.2" stroke-miterlimit="10"/>
<path d="M74.0771 23.2952C71.768 23.2952 69.94 25.0221 69.94 27.4207C69.94 29.7232 71.768 31.5461 74.0771 31.5461C76.3862 31.5461 78.2148 29.8192 78.2148 27.4207C78.2148 25.0221 76.3862 23.2952 74.0771 23.2952ZM74.0771 29.8192C72.8262 29.8192 71.768 28.7639 71.768 27.3248C71.768 25.8856 72.8262 24.8303 74.0771 24.8303C75.3281 24.8303 76.3862 25.7897 76.3862 27.3248C76.3862 28.8598 75.3281 29.8192 74.0771 29.8192ZM65.1285 23.2952C62.8194 23.2952 60.9912 25.0221 60.9912 27.4207C60.9912 29.7232 62.8194 31.5461 65.1285 31.5461C67.4381 31.5461 69.2662 29.8192 69.2662 27.4207C69.2662 25.0221 67.4381 23.2952 65.1285 23.2952ZM65.1285 29.8192C63.8781 29.8192 62.8194 28.7639 62.8194 27.3248C62.8194 25.8856 63.8781 24.8303 65.1285 24.8303C66.3794 24.8303 67.4381 25.7897 67.4381 27.3248C67.4381 28.8598 66.3794 29.8192 65.1285 29.8192ZM54.4483 24.5424V26.2694H58.5857C58.4895 27.2288 58.1046 27.9963 57.6235 28.476C57.0462 29.0516 56.084 29.7233 54.4483 29.7233C51.8503 29.7233 49.9259 27.7085 49.9259 25.1181C49.9259 22.5277 51.9465 20.5129 54.4483 20.5129C55.7953 20.5129 56.8537 21.0885 57.6235 21.7602L58.8744 20.5129C57.8159 19.5535 56.4689 18.786 54.5445 18.786C51.0806 18.786 48.0977 21.6642 48.0977 25.1181C48.0977 28.5719 51.0806 31.4502 54.5445 31.4502C56.4689 31.4502 57.8159 30.8746 58.9706 29.6273C60.1253 28.476 60.5101 26.845 60.5101 25.5978C60.5101 25.214 60.5101 24.8303 60.4139 24.5424H54.4483ZM98.1324 25.8856C97.7475 24.9262 96.7849 23.2952 94.6685 23.2952C92.5516 23.2952 90.8196 24.9262 90.8196 27.4207C90.8196 29.7232 92.5516 31.5461 94.8607 31.5461C96.6888 31.5461 97.8436 30.3949 98.2285 29.7233L96.8815 28.7638C96.4005 29.4354 95.8228 29.9151 94.8607 29.9151C93.8986 29.9151 93.3209 29.5314 92.8399 28.6679L98.3246 26.3653L98.1324 25.8856ZM92.5516 27.2288C92.5516 25.6937 93.8025 24.8303 94.6685 24.8303C95.3417 24.8303 96.0155 25.214 96.2077 25.6937L92.5516 27.2288ZM88.0289 31.1623H89.857V19.1697H88.0289V31.1623ZM85.1427 24.1587C84.6611 23.679 83.8918 23.1993 82.9291 23.1993C80.9089 23.1993 78.9842 25.0221 78.9842 27.3248C78.9842 29.6273 80.8128 31.3543 82.9291 31.3543C83.8918 31.3543 84.6611 30.8746 85.0461 30.3949H85.1427V30.9705C85.1427 32.5055 84.2767 33.369 82.9291 33.369C81.871 33.369 81.1011 32.6015 80.9089 31.9299L79.3691 32.6015C79.8502 33.6568 81.005 35 83.0258 35C85.1427 35 86.8747 33.7528 86.8747 30.7786V23.4871H85.1427V24.1587ZM83.0258 29.8192C81.7749 29.8192 80.7161 28.7639 80.7161 27.3248C80.7161 25.8856 81.7749 24.8303 83.0258 24.8303C84.2767 24.8303 85.2388 25.8856 85.2388 27.3248C85.2388 28.7639 84.2767 29.8192 83.0258 29.8192ZM106.503 19.1697H102.173V31.1623H104.002V26.6531H106.503C108.524 26.6531 110.448 25.214 110.448 22.9115C110.448 20.6088 108.524 19.1697 106.503 19.1697ZM106.6 25.0221H104.002V20.8967H106.6C107.947 20.8967 108.716 22.048 108.716 22.9115C108.62 23.8709 107.85 25.0221 106.6 25.0221ZM117.665 23.2952C116.318 23.2952 114.97 23.8709 114.489 25.1181L116.125 25.7897C116.51 25.1181 117.087 24.9262 117.761 24.9262C118.723 24.9262 119.589 25.5019 119.685 26.4613V26.5572C119.397 26.3653 118.627 26.0775 117.857 26.0775C116.125 26.0775 114.393 27.0369 114.393 28.7638C114.393 30.3949 115.836 31.4502 117.376 31.4502C118.627 31.4502 119.204 30.8746 119.685 30.2989H119.781V31.2583H121.513V26.6531C121.321 24.4465 119.685 23.2952 117.665 23.2952ZM117.472 29.8192C116.895 29.8192 116.029 29.5314 116.029 28.7638C116.029 27.8045 117.087 27.5166 117.953 27.5166C118.723 27.5166 119.108 27.7085 119.589 27.9004C119.397 29.0517 118.434 29.8192 117.472 29.8192ZM127.575 23.4871L125.555 28.6679H125.459L123.342 23.4871H121.417L124.593 30.7786L122.764 34.8081H124.593L129.5 23.4871H127.575ZM111.41 31.1623H113.239V19.1697H111.41V31.1623Z" fill="#222530"/>
<path d="M18.0773 33.5609C17.6924 33.369 17.5 32.8893 17.5 32.4096C17.5 32.3137 17.5 32.1218 17.5 32.0259C17.5 24.9262 17.5 17.8266 17.5 10.8229C17.5 10.4391 17.5962 10.1513 17.6924 9.76754C17.7887 9.57563 17.9811 9.38377 18.1736 9.19191C22.311 13.3174 26.3522 17.4428 30.3935 21.5683C26.256 25.4059 22.2148 29.4355 18.0773 33.5609Z" fill="#222530"/>
<path d="M34.4345 17.3469C33.2799 18.4982 32.029 19.6494 30.8744 20.8967C27.0256 16.9631 23.0806 13.0295 19.2317 9.09593C19.2317 9.09593 19.2317 9 19.3279 9C24.3314 11.7823 29.3348 14.5646 34.4345 17.3469Z" fill="#222530"/>
<path d="M19.2317 33.5609C23.0806 29.7232 27.0256 25.8856 30.8744 22.048C31.9328 23.1033 33.0875 24.1587 34.3383 25.31C29.3348 28.0923 24.3314 30.8746 19.3279 33.5609H19.2317Z" fill="#222530"/>
<path d="M35.0122 24.9262C33.7614 23.7749 32.6068 22.6236 31.3559 21.4724C32.6068 20.2251 33.8576 18.9779 35.1084 17.7306C35.4933 17.9225 35.8782 18.1144 36.2631 18.4022C37.2253 18.9779 38.2837 19.4576 39.2459 20.0332C39.5346 20.1291 39.727 20.321 39.9194 20.6088C40.3043 21.0885 40.3043 21.5683 39.9194 22.048C39.727 22.2398 39.5346 22.4318 39.2459 22.5277C37.8989 23.3912 36.4556 24.1587 35.0122 24.9262Z" fill="#222530"/>
</svg>
