<svg width="289" height="105" viewBox="0 0 289 105" fill="none" xmlns="http://www.w3.org/2000/svg">
<path fill-rule="evenodd" clip-rule="evenodd" d="M67.1607 2.20796L98.6916 70.4971C102.318 65.9234 104.209 59.615 104.209 51.7294C104.209 28.3881 88.6017 8.67413 67.1607 2.20796ZM65.4265 9.6204L34.0533 54.2528C45.2468 67.9737 62.9041 78.3826 80.0884 78.3826C84.6604 78.3826 88.6017 77.5941 91.9124 76.017L65.4265 9.6204ZM82.6108 89.4224C62.9041 89.4224 42.0937 77.9095 29.3237 61.1921L12.1394 85.6374C21.7563 96.8349 36.1029 104.09 52.1836 104.09C66.6878 104.09 79.7731 98.2543 89.2323 88.6339C86.8675 89.107 84.6603 89.4224 82.6108 89.4224ZM52.1836 0C29.3237 0 22.3869 13.5632 22.3869 25.2338C22.3869 33.4348 25.6977 42.109 31.0579 49.9946L64.9536 1.57712C60.8546 0.473135 56.5979 0 52.1836 0ZM16.869 26.3378C16.869 16.5597 22.3869 8.83185 25.3824 7.25473C10.0899 16.402 3.96704e-05 32.9617 3.96704e-05 52.0448C3.96704e-05 62.9269 3.31077 73.0204 8.98633 81.2214L26.3283 56.6184C20.4951 47.6289 16.869 37.2199 16.869 26.3378Z" fill="#020202"/>
<path fill-rule="evenodd" clip-rule="evenodd" d="M91.6318 98.8851H95.4155V99.6737H93.9966V103.932H93.2084V99.6737H91.6318V98.8851Z" fill="#020202"/>
<path fill-rule="evenodd" clip-rule="evenodd" d="M100.618 98.8851H101.406L101.879 103.932H101.091L100.776 100.305L99.1993 103.459H98.5687L97.1498 100.305L96.6768 103.932H95.8885L96.5192 98.8851H97.1498L98.884 102.512L100.618 98.8851Z" fill="#020202"/>
<path fill-rule="evenodd" clip-rule="evenodd" d="M285.374 61.3155H286.005C286.162 61.3155 286.478 61.3155 286.635 61.1578C286.635 61.0001 286.635 60.8423 286.635 60.6846C286.635 60.5269 286.635 60.3692 286.478 60.2115C286.32 60.0538 286.162 60.0538 285.847 60.0538H285.216V61.3155H285.374ZM285.374 61.9463V63.5234H284.743V59.5807H286.005C286.478 59.5807 286.793 59.7384 287.108 59.8961C287.423 60.0538 287.423 60.3692 287.423 60.8423C287.423 61.1578 287.266 61.4732 286.95 61.6309C287.108 61.7886 287.266 61.7886 287.266 62.104C287.266 62.2618 287.423 62.4195 287.423 62.7349C287.423 63.0503 287.423 63.208 287.423 63.208C287.423 63.3657 287.423 63.3657 287.423 63.5234H286.793C286.793 63.3657 286.793 63.0503 286.793 62.5772C286.793 62.4195 286.793 62.104 286.635 62.104C286.478 61.9463 286.32 61.9463 286.162 61.9463H285.374ZM283.324 61.4732C283.324 61.9463 283.482 62.4195 283.64 62.8926C283.797 63.3657 284.113 63.6812 284.586 63.9966C285.059 64.312 285.532 64.312 286.005 64.312C286.478 64.312 286.95 64.1543 287.423 63.9966C287.896 63.6812 288.212 63.3657 288.369 62.8926C288.527 62.4195 288.685 61.9463 288.685 61.4732C288.685 61.0001 288.527 60.5269 288.369 60.0538C288.212 59.5807 287.896 59.2652 287.423 58.9498C286.95 58.6344 286.478 58.6344 286.005 58.6344C285.532 58.6344 285.059 58.7921 284.586 58.9498C284.113 59.2652 283.797 59.5807 283.64 60.0538C283.324 60.5269 283.324 61.0001 283.324 61.4732ZM282.694 61.4732C282.694 60.8423 282.851 60.2115 283.167 59.7384C283.482 59.2652 283.797 58.7921 284.27 58.4767C284.743 58.1613 285.374 58.0035 285.847 58.0035C286.478 58.0035 286.95 58.1613 287.423 58.4767C287.896 58.7921 288.369 59.2652 288.527 59.7384C288.842 60.2115 289 60.8423 289 61.4732C289 62.104 288.842 62.7349 288.527 63.208C288.212 63.6812 287.896 64.1543 287.266 64.4697C286.635 64.7851 286.162 64.9428 285.689 64.9428C285.059 64.9428 284.586 64.7851 284.113 64.4697C283.64 64.1543 283.167 63.6812 283.009 63.208C282.851 62.7349 282.694 62.104 282.694 61.4732Z" fill="#020202"/>
<path fill-rule="evenodd" clip-rule="evenodd" d="M132.449 82.2911H144.273L138.282 65.7314L132.449 82.2911ZM146.323 87.811H130.4L126.616 97.7468H120.152L134.972 58.1613L141.593 58.1613L156.57 97.7468H150.106L146.323 87.811Z" fill="#020202"/>
<path fill-rule="evenodd" clip-rule="evenodd" d="M163.192 58.1613V97.7468H169.34V58.1613H163.192Z" fill="#020202"/>
<path fill-rule="evenodd" clip-rule="evenodd" d="M213.168 90.9652C209.7 95.3812 204.182 98.22 197.718 98.22C186.683 98.22 177.854 89.2304 177.854 78.0329C177.854 66.8354 186.683 57.6881 197.876 57.6881C204.182 57.6881 209.7 60.3692 213.168 64.7851L208.439 68.4125C205.916 65.416 202.133 63.5234 197.876 63.5234C189.993 63.5234 184.002 69.9896 184.002 78.0329C184.002 86.0762 189.993 92.3846 197.876 92.3846C202.29 92.3846 206.074 90.3344 208.596 87.1802L213.168 90.9652Z" fill="#020202"/>
<path fill-rule="evenodd" clip-rule="evenodd" d="M227.357 63.8389V77.7175H236.816C241.231 77.7175 243.122 74.2478 243.122 70.7782C243.122 67.4662 241.231 63.8389 236.974 63.8389L227.357 63.8389ZM221.208 58.1613L237.132 58.1613C245.645 58.1613 249.113 64.4697 249.113 70.7782C249.113 77.0866 245.645 83.2374 237.132 83.2374H227.357V97.7468H221.208V58.1613Z" fill="#020202"/>
<path fill-rule="evenodd" clip-rule="evenodd" d="M261.883 82.2911H273.707L267.717 65.7314L261.883 82.2911ZM275.757 87.811H259.834L256.05 97.7468H249.586L264.563 58.1613L271.185 58.1613L286.162 97.7468H279.698L275.757 87.811Z" fill="#020202"/>
</svg>
