<svg width="289" height="63" viewBox="0 0 289 63" fill="none" xmlns="http://www.w3.org/2000/svg">
<g clip-path="url(#clip0_3754_190)">
<path d="M40.0173 0.795048C38.9572 0.530032 38.0296 0.265016 36.9696 0H36.7046L32.8618 28.3567L36.8371 25.9716V25.8391L40.2823 0.927556L40.0173 0.795048Z" fill="#020202"/>
<path d="M43.0651 1.98767L42.8001 1.85516L39.7524 24.3815L43.7277 21.9964V21.8639L46.2453 3.44526L46.1128 3.31275C45.0528 2.78272 43.9927 2.3852 43.0651 1.98767Z" fill="#020202"/>
<path d="M51.8108 7.42048C50.8832 6.62544 49.9556 5.83039 48.8956 5.16785L48.4981 4.90283L46.3779 20.2738L50.4857 17.8886V17.7561L51.8108 7.42048Z" fill="#020202"/>
<path d="M13.5158 5.03528L13.2507 5.16779C12.4557 5.83033 11.6606 6.49287 10.8656 7.15541L10.6006 7.28791L30.2118 27.9592L30.8743 23.3214L30.7418 23.1889L13.5158 5.03528Z" fill="#020202"/>
<path d="M19.0813 1.98761L18.9487 2.12012C17.8887 2.51764 16.9611 3.04767 16.0336 3.57771L15.7686 3.71021L31.4045 20.1412L32.067 15.5034L31.802 15.3709L19.0813 1.98761Z" fill="#020202"/>
<path d="M32.9944 7.42045L25.9715 0H25.839C24.6464 0.265016 23.4539 0.530032 22.2613 0.795048L21.8638 0.927556L32.4644 12.1907L32.9944 7.42045Z" fill="#020202"/>
<path d="M61.7486 25.4415C61.6161 24.3815 61.3511 23.3214 60.9536 22.2614V21.8638L41.6074 33.5245L45.9802 35.1146L46.1127 34.9821L61.8812 25.4415H61.7486Z" fill="#020202"/>
<path d="M60.0261 19.0812C59.6286 18.1536 59.231 17.0936 58.701 16.166L58.5685 15.901L34.187 30.4769L38.5598 32.1995L38.6923 32.067L60.1586 19.2137L60.0261 19.0812Z" fill="#020202"/>
<path d="M62.1463 28.8868V28.4893L48.8955 36.4397L53.2683 38.1623H53.4008L62.1463 32.862V32.7295C62.1463 32.1995 62.1463 31.6695 62.1463 31.1394C62.2788 30.2119 62.2788 29.5493 62.1463 28.8868Z" fill="#020202"/>
<path d="M19.3462 51.1481L22.5264 60.9537H22.6589C23.8515 61.3512 25.044 61.6162 26.2366 61.7487L26.6341 61.8812L21.8638 47.1729L19.3462 51.1481Z" fill="#020202"/>
<path d="M30.7418 33.9221L28.2241 37.8973V38.0298L35.9096 62.0138H36.1746C37.2347 61.8813 38.2947 61.6162 39.2223 61.3512L39.4873 61.2187L30.7418 33.9221Z" fill="#020202"/>
<path d="M23.7188 44.5227L29.4166 62.2788H29.5491C30.0791 62.2788 30.4767 62.2788 31.0067 62.2788C31.6692 62.2788 32.1993 62.2788 32.8618 62.2788H33.2593L26.3689 40.68L23.7188 44.5227Z" fill="#020202"/>
<path d="M8.08261 34.3196L2.38477 42.9326V43.0651C2.9148 44.2577 3.44483 45.3177 3.97486 46.3778L4.23988 46.7753L12.7204 33.9221L8.08261 34.3196Z" fill="#020202"/>
<path d="M23.9841 32.8621L10.0708 53.9308L10.2033 54.0633C10.9984 54.7259 11.7934 55.3884 12.5885 56.051L12.8535 56.1835L28.6219 32.332L23.9841 32.8621Z" fill="#020202"/>
<path d="M16.0332 33.5245L5.83008 49.1605L5.96259 49.293C6.62513 50.2206 7.28767 51.0156 7.95021 51.8106L8.21522 52.0757L20.671 33.127L16.0332 33.5245Z" fill="#020202"/>
<path d="M25.1765 26.5016L0.132508 28.7543V29.0193C0.132508 29.6818 0 30.3444 0 31.0069C0 31.4044 0 31.802 0 32.1995V32.4645L28.3567 29.9469L25.1765 26.5016Z" fill="#020202"/>
<path d="M14.1783 14.8409L3.97523 15.7685L3.84272 15.901C3.31269 16.9611 2.78266 18.1536 2.25263 19.2137L2.12012 19.6112L17.491 18.2862L14.1783 14.8409Z" fill="#020202"/>
<path d="M19.6109 20.6713L1.19233 22.2614V22.3939C0.927309 23.4539 0.662293 24.514 0.529785 25.5741V25.9716L23.0561 23.984L19.6109 20.6713Z" fill="#020202"/>
<path d="M33.127 33.127L34.5845 37.6323H34.7171L58.171 46.5103L58.3035 46.2453C58.8335 45.3178 59.231 44.3902 59.7611 43.4626L59.8936 43.1976L33.127 33.127Z" fill="#020202"/>
<path d="M37.1024 45.1853L54.461 51.8107L54.5935 51.6782C55.256 50.8831 55.9186 49.9556 56.5811 49.1605L56.8461 48.8955L35.7773 40.945L37.1024 45.1853Z" fill="#020202"/>
<path d="M39.4879 52.8708L49.1609 56.581L49.2935 56.4485C50.3535 55.7859 51.2811 54.9909 52.2086 54.0633L52.4736 53.7983L38.0303 48.3655L39.4879 52.8708Z" fill="#020202"/>
<path d="M97.1282 43.8602C95.273 44.2577 93.2854 44.6552 91.2978 44.6552C83.0823 44.6552 77.252 40.5475 77.252 31.9345C77.252 23.1889 82.5523 18.2861 91.2978 18.2861C93.0204 18.2861 95.273 18.5511 97.1282 19.3462L96.7306 23.5865C94.743 22.5264 93.0204 22.2614 91.1653 22.2614C85.865 22.2614 82.5523 26.2366 82.5523 31.5369C82.5523 36.7047 85.7325 40.68 91.1653 40.68C93.1529 40.68 95.5381 40.2825 96.7306 39.6199L97.1282 43.8602Z" fill="#020202"/>
<path d="M100.706 18.6836H114.884V22.6588H105.741V29.0192H114.487V32.9945H105.741V44.2576H100.706V18.6836Z" fill="#020202"/>
<path d="M126.015 23.8514L122.305 34.452H129.725L126.015 23.8514ZM123.233 18.6836H129.063L139.133 44.2576H133.436L131.183 38.4273H120.847L118.595 44.2576H113.294L123.233 18.6836Z" fill="#020202"/>
<path d="M154.637 18.6836H149.469V44.2576H154.637V18.6836Z" fill="#020202"/>
<path d="M160.069 25.4415H164.707V27.9592H164.84C166.43 25.8391 168.417 24.9115 171.068 24.9115C175.573 24.9115 177.428 28.0917 177.428 32.3319V44.2577H172.525V34.1871C172.525 31.9344 172.525 28.7542 169.345 28.7542C165.767 28.7542 164.972 32.597 164.972 34.9821V44.2577H160.069V25.4415Z" fill="#020202"/>
<path d="M193.859 29.4168C192.401 28.8867 191.209 28.6217 189.486 28.6217C188.161 28.6217 186.571 29.1518 186.571 30.7419C186.571 33.7895 195.051 31.8019 195.051 38.6923C195.051 43.0651 191.076 44.7877 187.101 44.7877C185.246 44.7877 183.391 44.5227 181.536 43.9927L181.801 40.0174C183.391 40.8125 184.981 41.21 186.571 41.21C187.763 41.21 189.751 40.68 189.751 38.9573C189.751 35.2471 181.271 37.7648 181.271 31.0069C181.271 26.8991 184.848 25.1765 188.691 25.1765C190.944 25.1765 192.534 25.574 193.991 25.8391L193.859 29.4168Z" fill="#020202"/>
<path d="M199.955 29.0193H196.377V25.4416H199.955V21.7313L204.857 20.1412V25.4416H209.23V29.0193H204.857V37.7648C204.857 39.3549 205.255 40.8125 207.11 40.8125C208.038 40.8125 208.833 40.68 209.363 40.2825L209.495 44.1252C208.435 44.3902 207.375 44.5227 205.918 44.5227C202.075 44.5227 199.955 42.1376 199.955 38.4273V29.0193Z" fill="#020202"/>
<path d="M213.205 17.2261H218.108V21.8639H213.205V17.2261ZM213.205 25.4416H218.108V44.2577H213.205V25.4416Z" fill="#020202"/>
<path d="M224.336 29.0193H220.758V25.4416H224.336V21.7313L229.239 20.1412V25.4416H233.612V29.0193H229.239V37.7648C229.239 39.3549 229.636 40.8125 231.491 40.8125C232.419 40.8125 233.214 40.68 233.744 40.2825L233.877 44.1252C232.817 44.3902 231.756 44.5227 230.299 44.5227C226.456 44.5227 224.336 42.1376 224.336 38.4273V29.0193Z" fill="#020202"/>
<path d="M254.283 44.2577H249.645V41.7401H249.513C248.055 43.5952 245.935 44.7878 243.285 44.7878C238.779 44.7878 236.924 41.6076 236.924 37.3673V25.4416H241.827V35.5122C241.827 37.7648 241.827 40.945 245.007 40.945C248.585 40.945 249.38 37.1023 249.38 34.7172V25.4416H254.283V44.2577Z" fill="#020202"/>
<path d="M260.246 29.0193H256.668V25.4416H260.246V21.7313L265.149 20.1412V25.4416H269.522V29.0193H265.149V37.7648C265.149 39.3549 265.547 40.945 267.402 40.945C268.329 40.945 269.124 40.8125 269.654 40.415L269.787 44.2577C268.727 44.5227 267.667 44.6552 266.209 44.6552C262.366 44.6552 260.246 42.2701 260.246 38.5599V29.0193Z" fill="#020202"/>
<path d="M284.362 32.9945C284.229 30.6093 283.169 28.6217 280.387 28.6217C277.604 28.6217 276.279 30.4768 276.014 32.9945H284.362ZM287.674 43.1976C285.819 44.1252 283.832 44.6552 281.182 44.6552C274.954 44.6552 271.376 41.0775 271.376 34.8496C271.376 29.4168 274.291 24.9115 280.121 24.9115C287.144 24.9115 289.132 29.6818 289.132 36.3072H276.146C276.411 39.3549 278.531 41.0775 281.579 41.0775C283.964 41.0775 285.952 40.1499 287.807 39.2224V43.1976H287.674Z" fill="#020202"/>
</g>
<defs>
<clipPath id="clip0_3754_190">
<rect width="289" height="62.2788" fill="white"/>
</clipPath>
</defs>
</svg>
