<svg width="289" height="77" viewBox="0 0 289 77" fill="none" xmlns="http://www.w3.org/2000/svg">
<g clip-path="url(#clip0_3754_225)">
<path d="M49.9018 66.5957C53.2226 66.9547 59.5949 67.3137 66.416 66.1469C67.7623 65.8777 68.4803 67.7624 67.3136 68.4805C61.39 72.1603 51.7865 76.1991 43.1704 76.1093C42.1831 76.1093 41.4651 74.8528 42.0934 74.1348C43.7089 72.1603 45.6834 69.8267 46.7604 67.6727C46.8502 67.5829 47.3887 66.3264 49.9018 66.5957Z" fill="#020202"/>
<path d="M41.3755 65.5186C36.0801 64.3519 22.5277 60.9413 13.014 55.4665C11.8472 54.7484 10.501 56.0947 11.1292 57.2615C13.8218 61.8388 19.9249 69.0189 33.2978 73.2373C33.2978 73.2373 35.5416 73.7758 36.7982 72.8783C38.1444 71.9807 40.2087 70.455 42.0037 67.7624C42.632 66.8649 42.3628 65.7879 41.3755 65.5186Z" fill="#020202"/>
<path d="M85.1743 34.8236C85.8026 32.5798 87.9566 24.6817 87.9566 23.3354C87.9566 22.0789 86.7899 21.2711 85.6231 21.4506C82.6613 21.8994 75.1222 22.7071 64.8905 22.6174C63.8135 22.6174 62.9159 23.3354 62.8262 24.4124C62.7364 25.7587 61.0312 34.3748 60.7619 35.8109C60.5824 36.9776 61.5697 37.9649 62.7364 38.0547C68.9293 38.6829 76.3787 37.9649 82.9305 36.8879C82.9305 36.7981 84.7256 36.4391 85.1743 34.8236Z" fill="#020202"/>
<path d="M30.9645 7.53916C33.2981 9.51369 38.3242 12.8345 49.8124 15.8861C60.5825 18.6683 66.8651 18.6683 70.0962 18.4888C72.1605 18.3991 73.1478 15.886 71.622 14.3603C68.5704 11.219 62.2878 6.28263 53.5819 3.76959C44.4273 1.1668 36.0804 2.33357 31.9518 3.41058C29.9773 3.85934 29.4388 6.28263 30.9645 7.53916Z" fill="#020202"/>
<path d="M0.628261 18.2196C0.269255 17.6811 0 16.9631 0 16.245C0 15.9758 0 15.7065 0.0897516 15.4373C1.52578 9.78293 5.11584 4.48759 7.71863 0.897526C8.43665 -0.089741 9.96242 -0.269244 10.8599 0.53852C27.2845 15.2578 50.1711 20.4634 56.9025 21.8096C57.9795 21.9891 58.7873 23.0662 58.6078 24.1432C57.8 31.5926 55.646 38.9522 54.6587 42.273C54.3894 43.2603 53.3124 43.9783 52.2354 43.7988C21.9891 38.5932 6.82112 25.2202 0.628261 18.2196Z" fill="#020202"/>
<path d="M3.32111 44.6963C2.51334 44.068 1.88508 43.0808 1.70558 42.0038C0.718311 37.3367 0.897814 32.3106 1.16707 29.1693C1.34657 27.6435 3.05185 26.9255 4.21862 27.823C31.3236 48.4659 60.7621 49.6326 69.7373 49.4531C71.0835 49.4531 72.0708 50.7994 71.5323 52.0559C69.9168 55.7357 67.314 59.4156 65.6984 61.3901C64.8907 62.4671 63.5444 63.0954 62.1981 63.0954C31.3236 63.8134 8.5267 48.5556 3.32111 44.6963Z" fill="#020202"/>
<path d="M107.253 20.4633H102.317V18.6683H114.344V20.4633H109.407V34.1056H107.253V20.4633Z" fill="#020202"/>
<path d="M125.652 27.3742V34.1056H123.587V27.3742C123.587 25.7587 122.69 24.6817 120.985 24.6817C118.741 24.6817 117.664 26.746 117.664 28.3615V34.1056H115.6V17.5913H117.664V24.9509H117.754C118.382 23.7842 119.549 22.8866 121.433 22.8866C124.036 22.9764 125.652 24.6817 125.652 27.3742Z" fill="#020202"/>
<path d="M129.422 29.1693C129.601 31.2336 131.037 32.4901 133.191 32.4901C134.896 32.4901 135.794 31.6823 136.332 31.054L137.589 32.2208C136.602 33.5671 134.896 34.2851 133.012 34.2851C129.511 34.2851 127.268 32.0413 127.268 28.6308C127.268 25.3099 129.422 22.9764 132.742 22.9764C135.973 22.9764 137.769 25.2202 137.769 28.0922C137.769 28.7205 137.679 29.1693 137.679 29.1693H129.422ZM129.422 27.6435H135.614C135.614 25.8485 134.448 24.6817 132.742 24.6817C130.947 24.6817 129.781 25.9382 129.422 27.6435Z" fill="#020202"/>
<path d="M145.577 18.6683H147.731V34.1056H145.577V18.6683Z" fill="#020202"/>
<path d="M160.386 27.3742V34.1056H158.322V27.3742C158.322 25.7587 157.424 24.6817 155.719 24.6817C153.475 24.6817 152.398 26.746 152.398 28.3615V34.1056H150.334V23.0662L151.77 22.9764C151.95 23.7842 152.039 25.0407 152.039 25.5792H152.129C152.668 24.2329 153.924 22.9764 156.078 22.9764C158.771 22.9764 160.386 24.6817 160.386 27.3742Z" fill="#020202"/>
<path d="M169.271 26.4767C169.271 25.31 168.284 24.6817 166.848 24.6817C165.502 24.6817 164.694 25.31 164.694 26.2075C164.694 28.8103 171.336 26.9255 171.425 31.1438C171.425 33.1183 169.541 34.2851 166.848 34.2851C164.156 34.2851 162.72 33.1183 162.091 32.6696L163.348 31.2336C163.797 31.6823 165.233 32.5798 166.848 32.5798C168.464 32.5798 169.271 32.0413 169.271 31.1438C169.271 28.9 162.54 30.336 162.54 26.2075C162.54 24.4124 164.245 22.9764 166.848 22.9764C169.451 22.9764 171.156 24.3227 171.156 26.1177C171.156 26.5665 171.066 26.9255 171.066 26.9255L169.182 27.105C169.182 26.8357 169.271 26.6562 169.271 26.4767Z" fill="#020202"/>
<path d="M180.939 33.4773C180.939 33.4773 179.862 34.1954 178.067 34.1954C175.195 34.1954 174.118 32.6696 174.118 29.8873V24.7714H172.323V23.1559H174.028V19.9249L176.092 19.8351V23.2457H180.4V24.8612H176.092V29.977C176.092 31.7721 176.721 32.6696 178.246 32.6696C179.503 32.6696 180.311 32.0413 180.311 32.0413L180.939 33.4773Z" fill="#020202"/>
<path d="M183.632 20.9121C182.824 20.9121 182.196 20.3736 182.196 19.5658C182.196 18.7581 182.824 18.1298 183.632 18.1298C184.44 18.1298 185.068 18.7581 185.068 19.5658C185.068 20.2839 184.44 20.9121 183.632 20.9121ZM182.555 23.0662L184.619 22.9764V34.1056H182.555V23.0662Z" fill="#020202"/>
<path d="M194.94 33.4773C194.94 33.4773 193.863 34.1954 192.068 34.1954C189.196 34.1954 188.119 32.6696 188.119 29.8873V24.7714H186.414V23.1559H188.119V19.9249L190.184 19.8351V23.2457H194.492V24.8612H190.184V29.977C190.184 31.7721 190.812 32.6696 192.338 32.6696C193.594 32.6696 194.402 32.0413 194.402 32.0413L194.94 33.4773Z" fill="#020202"/>
<path d="M205.98 23.0662V34.1056L204.454 34.1954C204.274 33.3876 204.185 32.1311 204.185 31.8618C203.556 33.2081 202.39 34.2851 200.505 34.2851C197.902 34.2851 196.197 32.4901 196.197 29.8873V23.1559H198.261V29.8873C198.261 31.5028 199.159 32.5798 200.864 32.5798C202.928 32.5798 203.915 30.5155 203.915 28.9V23.1559H205.98V23.0662Z" fill="#020202"/>
<path d="M216.122 33.4773C216.122 33.4773 215.045 34.1954 213.25 34.1954C210.378 34.1954 209.3 32.6696 209.3 29.8873V24.7714H207.595V23.1559H209.3V19.9249L211.365 19.8351V23.2457H215.673V24.8612H211.365V29.977C211.365 31.7721 211.993 32.6696 213.519 32.6696C214.775 32.6696 215.583 32.0413 215.583 32.0413L216.122 33.4773Z" fill="#020202"/>
<path d="M218.814 29.1693C218.994 31.2336 220.43 32.4901 222.584 32.4901C224.289 32.4901 225.187 31.6823 225.725 31.054L226.982 32.2208C225.994 33.5671 224.289 34.2851 222.404 34.2851C218.904 34.2851 216.66 32.0413 216.66 28.6308C216.66 25.3099 218.814 22.9764 222.135 22.9764C225.366 22.9764 227.161 25.2202 227.161 28.0922C227.161 28.7205 227.071 29.1693 227.071 29.1693H218.814ZM218.814 27.6435H225.007C225.007 25.8485 223.84 24.6817 222.135 24.6817C220.34 24.6817 219.173 25.9382 218.814 27.6435Z" fill="#020202"/>
<path d="M245.201 28.6308C245.201 31.9516 242.957 34.1954 239.547 34.1954C236.136 34.1954 233.893 31.9516 233.893 28.6308C233.893 25.3099 236.136 22.9764 239.547 22.9764C242.868 22.9764 245.201 25.3099 245.201 28.6308ZM243.047 28.6308C243.047 26.387 241.611 24.6817 239.457 24.6817C237.303 24.6817 235.867 26.387 235.867 28.6308C235.867 30.8745 237.303 32.4901 239.457 32.4901C241.611 32.4901 243.047 30.8745 243.047 28.6308Z" fill="#020202"/>
<path d="M249.779 21.7199V23.1559H253.548V24.7714H249.779V34.1056H247.715V24.7714H246.099V23.1559H247.715V21.8096C247.715 19.2966 249.33 17.5913 251.843 17.5913C253.1 17.5913 254.087 18.0401 254.356 18.1298L253.638 19.7453C253.369 19.5658 252.92 19.2966 252.112 19.2966C250.587 19.2068 249.779 20.1941 249.779 21.7199Z" fill="#020202"/>
<path d="M103.932 42.0037H107.522V58.877H103.932V42.0037Z" fill="#020202"/>
<path d="M121.883 51.4276V58.877H118.383V52.0559C118.383 50.6199 117.665 49.6326 116.229 49.6326C114.434 49.6326 113.626 51.1584 113.626 52.5944V58.877H110.125V46.7606L112.908 46.6708C113.177 47.4786 113.357 48.7351 113.357 49.1838H113.446C114.075 47.7478 115.241 46.5811 117.395 46.5811C120.357 46.5811 121.883 48.7351 121.883 51.4276Z" fill="#020202"/>
<path d="M133.55 58.159C133.55 58.159 132.293 59.0565 129.96 59.0565C126.819 59.0565 125.113 57.3512 125.113 53.9407V49.5429H123.229V46.8503H125.203V43.4398L128.614 43.35V46.8503H132.832V49.5429H128.614V53.8509C128.614 55.4665 129.242 56.1845 130.588 56.1845C131.845 56.1845 132.563 55.5562 132.563 55.5562L133.55 58.159Z" fill="#020202"/>
<path d="M144.051 55.0177L145.756 56.9025C144.949 57.9795 143.154 59.0565 140.551 59.0565C136.512 59.0565 133.999 56.4537 133.999 52.8637C133.999 49.2736 136.422 46.6708 140.192 46.6708C143.692 46.6708 145.756 49.0941 145.756 52.4149C145.756 53.2227 145.667 53.6714 145.667 53.6714H137.499C137.769 55.287 138.935 56.4537 140.91 56.4537C142.615 56.364 143.513 55.5562 144.051 55.0177ZM137.499 51.7866H142.525C142.525 50.3506 141.628 49.2736 140.192 49.2736C138.756 49.2736 137.679 50.1711 137.499 51.7866Z" fill="#020202"/>
<path d="M155.898 46.94L155.001 50.3506C154.552 50.0813 154.193 49.9018 153.654 49.9018C152.308 49.9018 151.141 50.9789 151.141 53.0431V58.877H147.641V46.7605L150.423 46.6708C150.693 47.4785 150.872 48.8248 150.872 49.3633H150.962C151.411 47.8376 152.398 46.6708 154.193 46.6708C154.821 46.581 155.36 46.7605 155.898 46.94Z" fill="#020202"/>
<path d="M168.823 51.4276V58.877H165.323V52.0559C165.323 50.6199 164.605 49.6326 163.169 49.6326C161.374 49.6326 160.566 51.1584 160.566 52.5944V58.877H157.065V46.7606L159.848 46.6708C160.117 47.4786 160.296 48.7351 160.296 49.1838H160.386C161.014 47.7478 162.181 46.5811 164.335 46.5811C167.387 46.5811 168.823 48.7351 168.823 51.4276Z" fill="#020202"/>
<path d="M183.093 58.7873C183.093 58.7873 182.375 59.0565 181.388 59.0565C179.683 59.0565 178.785 58.4283 178.606 57.1717C178.247 57.8898 177.259 59.0565 174.746 59.0565C172.143 59.0565 170.618 57.7102 170.618 55.7357C170.618 52.7739 173.759 51.9661 178.247 51.8764H178.426V51.3379C178.426 50.0814 177.708 49.2736 176.182 49.2736C174.836 49.2736 174.118 49.8121 174.118 50.7096C174.118 50.8891 174.118 51.0686 174.208 51.1584L171.156 51.6969C171.156 51.6969 170.977 51.1584 170.977 50.5301C170.977 48.1966 173.041 46.6708 176.362 46.6708C179.952 46.6708 181.837 48.4658 181.837 51.5174V55.4665C181.837 56.005 182.016 56.2742 182.465 56.2742C182.644 56.2742 182.734 56.2742 182.914 56.1845L183.093 58.7873ZM178.336 54.5689V53.5817H178.157C175.285 53.6714 173.938 54.0304 173.938 55.1972C173.938 56.005 174.567 56.364 175.644 56.364C177.349 56.4537 178.336 55.5562 178.336 54.5689Z" fill="#020202"/>
<path d="M184.708 40.7472H188.209V58.877H184.708V40.7472Z" fill="#020202"/>
<path d="M205.352 55.287H199.248L198.082 58.877H194.402L200.415 42.0037H204.364L210.378 58.877H206.698L205.352 55.287ZM204.454 52.5047L202.838 47.4786C202.659 46.9401 202.479 46.222 202.3 45.5938H202.21C202.12 46.222 201.851 46.9401 201.672 47.5683L200.056 52.5944H204.454V52.5047Z" fill="#020202"/>
<path d="M222.584 46.7606V58.877L219.712 58.9668C219.532 58.159 219.353 56.9025 219.353 56.5435H219.263C218.635 57.9795 217.558 58.9668 215.493 58.9668C212.532 58.9668 210.916 56.9025 210.916 54.1202V46.6708H214.416V53.4919C214.416 54.9279 215.134 55.9152 216.57 55.9152C218.186 55.9152 218.994 54.3894 218.994 52.9534V46.6708H222.584V46.7606Z" fill="#020202"/>
<path d="M236.944 40.7472V58.877L234.072 58.9668C233.892 58.2487 233.713 56.9025 233.713 56.5435H233.623C232.995 57.9795 231.649 58.9668 229.584 58.9668C226.264 58.9668 224.199 56.364 224.199 52.7739C224.199 48.7351 226.623 46.4913 229.764 46.4913C231.469 46.4913 232.636 47.1196 233.354 48.1068V40.6574H236.944V40.7472ZM233.444 53.2227V52.4149C233.444 51.0686 232.456 49.5428 230.572 49.5428C228.956 49.5428 227.879 50.7994 227.879 52.8637C227.879 54.7484 228.956 56.0947 230.661 56.0947C232.367 56.0947 233.444 54.6587 233.444 53.2227Z" fill="#020202"/>
<path d="M241.252 45.0553C239.996 45.0553 239.008 44.1577 239.008 42.9012C239.008 41.6447 239.996 40.7472 241.252 40.7472C242.509 40.7472 243.496 41.6447 243.496 42.9012C243.496 44.1577 242.509 45.0553 241.252 45.0553ZM239.457 46.7605L242.957 46.6708V58.877H239.457V46.7605Z" fill="#020202"/>
<path d="M254.984 58.159C254.984 58.159 253.728 59.0565 251.394 59.0565C248.253 59.0565 246.547 57.3512 246.547 53.9407V49.5429H244.663V46.8503H246.637V43.4398L250.048 43.35V46.8503H254.266V49.5429H250.048V53.8509C250.048 55.4665 250.676 56.1845 252.022 56.1845C253.279 56.1845 253.997 55.5562 253.997 55.5562L254.984 58.159Z" fill="#020202"/>
<path d="M268.088 52.8637C268.088 56.5435 265.575 59.0565 261.716 59.0565C257.856 59.0565 255.343 56.4538 255.343 52.8637C255.343 49.2736 257.856 46.6708 261.716 46.6708C265.485 46.5811 268.088 49.1839 268.088 52.8637ZM264.498 52.8637C264.498 50.8892 263.421 49.5429 261.716 49.5429C260.01 49.5429 258.933 50.8892 258.933 52.8637C258.933 54.8382 260.01 56.1845 261.716 56.1845C263.421 56.1845 264.498 54.8382 264.498 52.8637Z" fill="#020202"/>
<path d="M278.051 46.94L277.153 50.3506C276.704 50.0813 276.345 49.9018 275.807 49.9018C274.461 49.9018 273.294 50.9789 273.294 53.0431V58.877H269.793V46.7605L272.576 46.6708C272.845 47.4785 273.025 48.8248 273.025 49.3633H273.114C273.563 47.8376 274.55 46.6708 276.345 46.6708C276.974 46.581 277.512 46.7605 278.051 46.94Z" fill="#020202"/>
<path d="M285.679 50.5302C285.679 49.5429 284.961 48.9146 283.705 48.9146C282.538 48.9146 281.91 49.4531 281.91 50.1711C281.91 52.5944 289 50.7097 289 55.3767C289 57.5308 287.025 58.9668 283.705 58.9668C280.025 58.9668 278.409 57.441 278.05 57.1718L279.666 55.0177C279.935 55.287 281.73 56.4538 283.525 56.4538C284.782 56.4538 285.32 56.0947 285.32 55.4665C285.32 53.492 278.589 54.6587 278.589 50.2609C278.589 47.9274 280.653 46.4016 283.794 46.4016C286.756 46.4016 288.731 47.8376 288.731 49.8121C288.731 50.2609 288.641 50.6199 288.641 50.6199L285.5 50.7994C285.589 50.8892 285.679 50.7097 285.679 50.5302Z" fill="#020202"/>
</g>
<defs>
<clipPath id="clip0_3754_225">
<rect width="289" height="76.1093" fill="white"/>
</clipPath>
</defs>
</svg>
