<svg width="289" height="71" viewBox="0 0 289 71" fill="none" xmlns="http://www.w3.org/2000/svg">
<path fill-rule="evenodd" clip-rule="evenodd" d="M117.651 64.9758H118.353V5H117.651V64.9758Z" fill="#020202"/>
<path fill-rule="evenodd" clip-rule="evenodd" d="M135.28 17.4294C136.3 17.3947 136.563 17.2907 136.563 16.9325V10.75H136.025C134.925 10.75 134.707 11.3151 134.249 12.6911L133.86 12.668L133.94 10.2637H140.307L140.387 12.6806L139.998 12.7027C139.62 11.4086 139.356 10.75 138.223 10.75H137.673V16.9325C137.673 17.2907 137.937 17.3947 138.956 17.4294V17.8684H135.28V17.4294Z" fill="#020202"/>
<path fill-rule="evenodd" clip-rule="evenodd" d="M141.167 17.4406C141.831 17.4291 142.014 17.3146 142.014 17.0362V10.8537C142.014 10.506 141.797 10.298 141.133 10.2865V9.85896L143.022 9.81274V13.3263C143.64 12.8998 144.305 12.507 145.06 12.507C145.839 12.507 146.366 13.0731 146.366 14.112V17.0362C146.366 17.3146 146.538 17.4291 147.203 17.4406V17.8681H144.626V17.4406C145.198 17.4291 145.359 17.3146 145.359 17.0362V14.529C145.359 13.5342 144.98 13.258 144.305 13.258C143.79 13.258 143.342 13.488 143.022 13.7191V17.0362C143.022 17.3146 143.171 17.4291 143.744 17.4406V17.8681H141.167V17.4406Z" fill="#020202"/>
<path fill-rule="evenodd" clip-rule="evenodd" d="M148.725 14.7017L151.153 14.6555C151.233 13.6734 150.844 12.8761 150.031 12.8761C149.355 12.8761 148.817 13.373 148.725 14.7017ZM147.637 15.2679C147.637 13.6839 148.622 12.4707 150.111 12.4707C151.668 12.4707 152.321 13.8015 152.229 15.0946L148.713 15.083V15.1177V15.1534C148.713 16.3886 149.321 17.314 150.443 17.314C151.084 17.314 151.6 16.9212 152.058 16.354L152.309 16.5976C151.886 17.314 151.268 17.9621 150.111 17.9621C148.507 17.9621 147.637 16.793 147.637 15.2679Z" fill="#020202"/>
<path fill-rule="evenodd" clip-rule="evenodd" d="M159.374 14.5519L158.367 11.593H158.309L157.175 14.5519H159.374ZM159.558 15.0592H156.992L156.568 16.1474C156.19 17.1169 156.19 17.3028 157.187 17.4635V17.869H154.679V17.4635C155.457 17.3028 155.676 16.8753 156.053 15.9279L158.343 10.1592H158.962L161.241 16.5287C161.459 17.1295 161.676 17.349 162.523 17.4635V17.869H159.133V17.4635C160.131 17.4068 160.291 17.1757 160.085 16.5865L159.558 15.0592Z" fill="#020202"/>
<path fill-rule="evenodd" clip-rule="evenodd" d="M163.147 16.1932H163.526C164.052 17.0471 164.568 17.545 165.231 17.545C165.827 17.545 166.136 17.1522 166.136 16.7247C166.136 16.2047 165.805 15.961 164.785 15.6617C163.628 15.3266 163.204 14.8876 163.204 14.1586C163.204 13.1523 163.926 12.4717 165.061 12.4717C165.427 12.4717 165.885 12.6103 166.125 12.7836L166.331 12.4717H166.64V14.0431H166.262C165.885 13.3372 165.483 12.8876 164.922 12.8876C164.373 12.8876 164.029 13.2227 164.029 13.6964C164.029 14.1691 164.418 14.4128 165.311 14.668C166.423 14.9789 166.892 15.3949 166.892 16.1806C166.892 17.1522 166.297 17.961 165.106 17.961C164.659 17.961 164.098 17.7772 163.789 17.5786L163.457 17.961H163.147V16.1932Z" fill="#020202"/>
<path fill-rule="evenodd" clip-rule="evenodd" d="M167.875 16.1932H168.254C168.78 17.0471 169.296 17.545 169.959 17.545C170.555 17.545 170.864 17.1522 170.864 16.7247C170.864 16.2047 170.533 15.961 169.513 15.6617C168.356 15.3266 167.932 14.8876 167.932 14.1586C167.932 13.1523 168.654 12.4717 169.789 12.4717C170.155 12.4717 170.613 12.6103 170.853 12.7836L171.059 12.4717H171.368V14.0431H170.99C170.613 13.3372 170.211 12.8876 169.65 12.8876C169.101 12.8876 168.757 13.2227 168.757 13.6964C168.757 14.1691 169.146 14.4128 170.039 14.668C171.151 14.9789 171.62 15.3949 171.62 16.1806C171.62 17.1522 171.025 17.961 169.834 17.961C169.387 17.961 168.826 17.7772 168.517 17.5786L168.185 17.961H167.875V16.1932Z" fill="#020202"/>
<path fill-rule="evenodd" clip-rule="evenodd" d="M176.531 15.2106C176.531 13.6266 175.924 12.8987 175.007 12.8987C174.103 12.8987 173.589 13.6266 173.589 15.2106C173.589 16.7935 174.196 17.533 175.111 17.533C176.005 17.533 176.531 16.7935 176.531 15.2106ZM172.477 15.2337C172.477 13.6266 173.496 12.4712 175.066 12.4712C176.68 12.4712 177.643 13.5804 177.643 15.1875C177.643 16.8051 176.623 17.9605 175.066 17.9605C173.427 17.9605 172.477 16.8513 172.477 15.2337Z" fill="#020202"/>
<path fill-rule="evenodd" clip-rule="evenodd" d="M178.499 15.2679C178.499 13.6618 179.622 12.4707 181.053 12.4707C182.244 12.4707 182.908 13.1293 182.908 13.7427C182.908 14.1482 182.656 14.4706 182.29 14.4706C181.9 14.4706 181.66 14.2164 181.66 13.8688C181.66 13.5578 181.866 13.3383 182.026 13.2448C181.878 13.0831 181.511 12.8982 181.075 12.8982C180.217 12.8982 179.564 13.5463 179.564 15.0147C179.564 16.3886 180.205 17.2919 181.317 17.2919C181.912 17.2919 182.416 16.9443 182.805 16.4937L183.068 16.7352C182.587 17.4411 182.003 17.96 180.939 17.96C179.439 17.96 178.499 16.8046 178.499 15.2679Z" fill="#020202"/>
<path fill-rule="evenodd" clip-rule="evenodd" d="M184.25 10.5648C184.25 10.1489 184.525 9.84741 184.926 9.84741C185.327 9.84741 185.602 10.1258 185.602 10.5417C185.602 10.9587 185.327 11.257 184.926 11.257C184.525 11.257 184.25 10.9808 184.25 10.5648ZM183.621 17.4417C184.284 17.4301 184.445 17.3146 184.445 17.0373V13.5815C184.445 13.2349 184.284 13.0269 183.621 13.0154V12.5879L185.452 12.5416V17.0373C185.452 17.3146 185.602 17.4301 186.278 17.4417V17.8692H183.621V17.4417Z" fill="#020202"/>
<path fill-rule="evenodd" clip-rule="evenodd" d="M190.084 16.5738V15.1295C188.457 15.4887 188.102 15.7303 188.102 16.4593C188.102 16.9088 188.342 17.2786 188.938 17.2786C189.397 17.2786 189.832 16.933 190.084 16.5738ZM186.98 16.725C186.98 16.2618 187.198 15.7881 187.678 15.5223C188.549 15.037 189.912 14.8522 190.084 14.7135V14.3774C190.084 13.2797 189.786 12.9216 189.041 12.9216C188.674 12.9216 188.457 13.0256 188.274 13.1989C188.365 13.3963 188.4 13.5802 188.4 13.743C188.4 14.0906 188.182 14.3774 187.793 14.3774C187.415 14.3774 187.186 14.078 187.186 13.743C187.186 13.0382 188.102 12.5056 189.201 12.5056C190.393 12.5056 191.091 13.0497 191.091 14.1579V16.7355C191.091 17.3017 191.183 17.4519 191.938 17.3594L191.984 17.6945C191.572 17.8447 191.309 17.914 190.965 17.914C190.359 17.914 190.221 17.6598 190.151 17.0254H190.084C189.625 17.5453 189.064 17.9382 188.388 17.9382C187.426 17.9382 186.98 17.372 186.98 16.725Z" fill="#020202"/>
<path fill-rule="evenodd" clip-rule="evenodd" d="M192.912 16.5163V13.1298H191.961V12.7727L192.934 12.5637V11.0732L193.92 10.6572V12.5868H195.557V13.1067H193.92V16.3892C193.92 17.0246 194.137 17.3135 194.618 17.3135C194.94 17.3135 195.179 17.0709 195.431 16.6896L195.729 16.8975C195.305 17.6727 194.916 17.9605 194.183 17.9605C193.37 17.9605 192.912 17.4532 192.912 16.5163Z" fill="#020202"/>
<path fill-rule="evenodd" clip-rule="evenodd" d="M196.961 10.5648C196.961 10.1489 197.236 9.84741 197.636 9.84741C198.037 9.84741 198.313 10.1258 198.313 10.5417C198.313 10.9587 198.037 11.257 197.636 11.257C197.236 11.257 196.961 10.9808 196.961 10.5648ZM196.331 17.4417C196.995 17.4301 197.155 17.3146 197.155 17.0373V13.5815C197.155 13.2349 196.995 13.0269 196.331 13.0154V12.5879L198.163 12.5416V17.0373C198.163 17.3146 198.313 17.4301 198.988 17.4417V17.8692H196.331V17.4417Z" fill="#020202"/>
<path fill-rule="evenodd" clip-rule="evenodd" d="M203.489 15.2106C203.489 13.6266 202.881 12.8987 201.965 12.8987C201.061 12.8987 200.546 13.6266 200.546 15.2106C200.546 16.7935 201.152 17.533 202.068 17.533C202.961 17.533 203.489 16.7935 203.489 15.2106ZM199.435 15.2337C199.435 13.6266 200.454 12.4712 202.024 12.4712C203.637 12.4712 204.6 13.5804 204.6 15.1875C204.6 16.8051 203.581 17.9605 202.024 17.9605C200.385 17.9605 199.435 16.8513 199.435 15.2337Z" fill="#020202"/>
<path fill-rule="evenodd" clip-rule="evenodd" d="M205.184 17.4405C205.848 17.4289 206.019 17.3144 206.019 17.0361V13.5803C206.019 13.2337 205.848 13.0268 205.184 13.0142V12.5877L207.004 12.5415V13.3387C207.611 12.9112 208.298 12.5068 209.054 12.5068C209.844 12.5068 210.371 13.073 210.371 14.1118V17.0361C210.371 17.3144 210.531 17.4289 211.207 17.4405V17.868H208.631V17.4405C209.214 17.4289 209.364 17.3144 209.364 17.0361V14.5288C209.364 13.5341 208.986 13.2579 208.309 13.2579C207.794 13.2579 207.347 13.4879 207.028 13.719V17.0361C207.028 17.3144 207.176 17.4289 207.748 17.4405V17.868H205.184V17.4405Z" fill="#020202"/>
<path fill-rule="evenodd" clip-rule="evenodd" d="M137.937 28.4183L136.928 25.4594H136.871L135.738 28.4183H137.937ZM138.12 28.9257H135.555L135.131 30.0139C134.753 30.9834 134.753 31.1693 135.749 31.33V31.7344H133.242V31.33C134.02 31.1693 134.238 30.7418 134.616 29.7933L136.906 24.0256H137.525L139.803 30.3951C140.021 30.996 140.238 31.2155 141.086 31.33V31.7344H137.695V31.33C138.692 31.2733 138.853 31.0422 138.647 30.4529L138.12 28.9257Z" fill="#020202"/>
<path fill-rule="evenodd" clip-rule="evenodd" d="M141.264 29.1341C141.264 27.528 142.387 26.3369 143.818 26.3369C145.009 26.3369 145.673 26.9955 145.673 27.6089C145.673 28.0144 145.421 28.3368 145.054 28.3368C144.665 28.3368 144.425 28.0826 144.425 27.735C144.425 27.4241 144.631 27.2035 144.791 27.111C144.642 26.9493 144.276 26.7644 143.84 26.7644C142.982 26.7644 142.328 27.4125 142.328 28.8799C142.328 30.2548 142.97 31.1571 144.081 31.1571C144.677 31.1571 145.18 30.8105 145.57 30.3599L145.833 30.6015C145.352 31.3073 144.768 31.8273 143.703 31.8273C142.204 31.8273 141.264 30.6708 141.264 29.1341Z" fill="#020202"/>
<path fill-rule="evenodd" clip-rule="evenodd" d="M146.446 29.1341C146.446 27.528 147.569 26.3369 149 26.3369C150.191 26.3369 150.855 26.9955 150.855 27.6089C150.855 28.0144 150.603 28.3368 150.236 28.3368C149.847 28.3368 149.607 28.0826 149.607 27.735C149.607 27.4241 149.813 27.2035 149.973 27.111C149.824 26.9493 149.458 26.7644 149.022 26.7644C148.164 26.7644 147.511 27.4125 147.511 28.8799C147.511 30.2548 148.152 31.1571 149.263 31.1571C149.859 31.1571 150.362 30.8105 150.752 30.3599L151.015 30.6015C150.534 31.3073 149.95 31.8273 148.885 31.8273C147.386 31.8273 146.446 30.6708 146.446 29.1341Z" fill="#020202"/>
<path fill-rule="evenodd" clip-rule="evenodd" d="M155.682 29.0768C155.682 27.4928 155.075 26.7649 154.159 26.7649C153.254 26.7649 152.739 27.4928 152.739 29.0768C152.739 30.6597 153.346 31.3992 154.262 31.3992C155.155 31.3992 155.682 30.6597 155.682 29.0768ZM151.628 29.0989C151.628 27.4928 152.647 26.3374 154.217 26.3374C155.831 26.3374 156.793 27.4466 156.793 29.0537C156.793 30.6713 155.774 31.8277 154.217 31.8277C152.579 31.8277 151.628 30.7175 151.628 29.0989Z" fill="#020202"/>
<path fill-rule="evenodd" clip-rule="evenodd" d="M158.056 30.2205V27.3435C158.056 26.9843 157.873 26.9045 157.208 26.8803V26.4528L159.064 26.395V29.8046C159.064 30.7993 159.441 31.0755 160.186 31.0755C160.701 31.0755 161.034 30.9022 161.377 30.6942V27.3435C161.377 26.9843 161.159 26.9045 160.53 26.8803V26.4528L162.385 26.395V30.9022C162.385 31.1921 162.556 31.295 163.22 31.3182V31.7341H161.4V31.065C160.827 31.4799 160.198 31.8276 159.441 31.8276C158.617 31.8276 158.056 31.2604 158.056 30.2205Z" fill="#020202"/>
<path fill-rule="evenodd" clip-rule="evenodd" d="M163.948 31.3067C164.612 31.2951 164.784 31.1796 164.784 30.9012V27.4465C164.784 27.0999 164.612 26.893 163.948 26.8804V26.4529L165.77 26.4067V27.2049C166.376 26.7774 167.063 26.373 167.819 26.373C168.609 26.373 169.136 26.9392 169.136 27.978V30.9012C169.136 31.1796 169.296 31.2951 169.971 31.3067V31.7342H167.395V31.3067C167.979 31.2951 168.128 31.1796 168.128 30.9012V28.395C168.128 27.4003 167.75 27.1241 167.075 27.1241C166.56 27.1241 166.113 27.3541 165.792 27.5852V30.9012C165.792 31.1796 165.941 31.2951 166.514 31.3067V31.7342H163.948V31.3067Z" fill="#020202"/>
<path fill-rule="evenodd" clip-rule="evenodd" d="M171.059 30.3825V26.996H170.109V26.6389L171.082 26.4299V24.9394L172.068 24.5234V26.453H173.705V26.9729H172.068V30.2554C172.068 30.8908 172.285 31.1797 172.766 31.1797C173.087 31.1797 173.327 30.9371 173.579 30.5558L173.877 30.7638C173.453 31.5389 173.064 31.8267 172.331 31.8267C171.518 31.8267 171.059 31.3194 171.059 30.3825Z" fill="#020202"/>
<path fill-rule="evenodd" clip-rule="evenodd" d="M177.691 30.44V28.9957C176.064 29.3549 175.709 29.5965 175.709 30.3255C175.709 30.775 175.949 31.1448 176.545 31.1448C177.004 31.1448 177.439 30.7992 177.691 30.44ZM174.587 30.5912C174.587 30.128 174.804 29.6543 175.285 29.3885C176.155 28.9032 177.519 28.7184 177.691 28.5797V28.2436C177.691 27.146 177.393 26.7878 176.648 26.7878C176.281 26.7878 176.064 26.8918 175.881 27.0651C175.972 27.2625 176.007 27.4464 176.007 27.6092C176.007 27.9569 175.789 28.2436 175.4 28.2436C175.022 28.2436 174.793 27.9432 174.793 27.6092C174.793 26.9044 175.709 26.3718 176.808 26.3718C178 26.3718 178.698 26.9159 178.698 28.0241V30.6017C178.698 31.1679 178.79 31.3181 179.545 31.2256L179.591 31.5607C179.179 31.7109 178.916 31.7802 178.572 31.7802C177.965 31.7802 177.828 31.526 177.758 30.8916H177.691C177.232 31.4116 176.671 31.8044 175.995 31.8044C175.033 31.8044 174.587 31.2382 174.587 30.5912Z" fill="#020202"/>
<path fill-rule="evenodd" clip-rule="evenodd" d="M180.224 31.3067C180.888 31.2951 181.06 31.1796 181.06 30.9012V27.4465C181.06 27.0999 180.888 26.893 180.224 26.8804V26.4529L182.045 26.4067V27.2049C182.651 26.7774 183.338 26.373 184.095 26.373C184.885 26.373 185.412 26.9392 185.412 27.978V30.9012C185.412 31.1796 185.572 31.2951 186.247 31.3067V31.7342H183.671V31.3067C184.254 31.2951 184.404 31.1796 184.404 30.9012V28.395C184.404 27.4003 184.026 27.1241 183.35 27.1241C182.836 27.1241 182.388 27.3541 182.067 27.5852V30.9012C182.067 31.1796 182.216 31.2951 182.789 31.3067V31.7342H180.224V31.3067Z" fill="#020202"/>
<path fill-rule="evenodd" clip-rule="evenodd" d="M187.336 30.3825V26.996H186.385V26.6389L187.358 26.4299V24.9394L188.343 24.5234V26.453H189.98V26.9729H188.343V30.2554C188.343 30.8908 188.561 31.1797 189.041 31.1797C189.363 31.1797 189.602 30.9371 189.854 30.5558L190.152 30.7638C189.729 31.5389 189.339 31.8267 188.606 31.8267C187.793 31.8267 187.336 31.3194 187.336 30.3825Z" fill="#020202"/>
<path fill-rule="evenodd" clip-rule="evenodd" d="M190.903 30.0594H191.281C191.808 30.9133 192.324 31.4102 192.988 31.4102C193.583 31.4102 193.893 31.0173 193.893 30.5909C193.893 30.0709 193.559 29.8273 192.541 29.5268C191.385 29.1928 190.961 28.7538 190.961 28.0248C190.961 27.0185 191.682 26.3379 192.816 26.3379C193.183 26.3379 193.641 26.4765 193.881 26.6499L194.086 26.3379H194.396V27.9082H194.018C193.641 27.2034 193.24 26.7538 192.679 26.7538C192.128 26.7538 191.785 27.0889 191.785 27.5626C191.785 28.0353 192.174 28.279 193.068 28.5342C194.179 28.8451 194.648 29.2611 194.648 30.0468C194.648 31.0173 194.053 31.8282 192.862 31.8282C192.415 31.8282 191.854 31.6423 191.544 31.4448L191.212 31.8282H190.903V30.0594Z" fill="#020202"/>
<path fill-rule="evenodd" clip-rule="evenodd" d="M200.842 30.44V28.9957C199.216 29.3549 198.861 29.5965 198.861 30.3255C198.861 30.775 199.101 31.1448 199.696 31.1448C200.155 31.1448 200.591 30.7992 200.842 30.44ZM197.739 30.5912C197.739 30.128 197.956 29.6543 198.437 29.3885C199.307 28.9032 200.671 28.7184 200.843 28.5797V28.2436C200.843 27.146 200.545 26.7878 199.801 26.7878C199.433 26.7878 199.216 26.8918 199.033 27.0651C199.124 27.2625 199.159 27.4464 199.159 27.6092C199.159 27.9569 198.942 28.2436 198.553 28.2436C198.174 28.2436 197.946 27.9432 197.946 27.6092C197.946 26.9044 198.861 26.3718 199.961 26.3718C201.152 26.3718 201.85 26.9159 201.85 28.0241V30.6017C201.85 31.1679 201.942 31.3181 202.697 31.2256L202.743 31.5607C202.331 31.7109 202.068 31.7802 201.724 31.7802C201.117 31.7802 200.98 31.526 200.911 30.8916H200.843C200.384 31.4116 199.823 31.8044 199.147 31.8044C198.185 31.8044 197.739 31.2382 197.739 30.5912Z" fill="#020202"/>
<path fill-rule="evenodd" clip-rule="evenodd" d="M203.375 31.3067C204.039 31.2951 204.211 31.1796 204.211 30.9012V27.4465C204.211 27.0999 204.039 26.893 203.375 26.8804V26.4529L205.195 26.4067V27.2049C205.802 26.7774 206.489 26.373 207.246 26.373C208.036 26.373 208.562 26.9392 208.562 27.978V30.9012C208.562 31.1796 208.723 31.2951 209.399 31.3067V31.7342H206.822V31.3067C207.406 31.2951 207.555 31.1796 207.555 30.9012V28.395C207.555 27.4003 207.177 27.1241 206.502 27.1241C205.986 27.1241 205.539 27.3541 205.219 27.5852V30.9012C205.219 31.1796 205.367 31.2951 205.941 31.3067V31.7342H203.375V31.3067Z" fill="#020202"/>
<path fill-rule="evenodd" clip-rule="evenodd" d="M213.614 30.6944V27.4005C213.338 26.973 213.007 26.765 212.457 26.765C211.644 26.765 210.945 27.5738 210.945 29.1115C210.945 30.3132 211.518 31.2028 212.548 31.2028C212.962 31.2028 213.305 30.9833 213.614 30.6944ZM209.835 29.1693C209.835 27.5633 210.865 26.3385 212.401 26.3385C212.983 26.3385 213.305 26.4646 213.614 26.6494V24.7209C213.614 24.3722 213.397 24.1642 212.732 24.1527V23.7252L214.622 23.679V30.9024C214.622 31.1913 214.793 31.2963 215.459 31.3184V31.7343L213.636 31.7805V31.1335C213.247 31.5379 212.777 31.8278 212.103 31.8278C210.694 31.8278 209.835 30.6598 209.835 29.1693Z" fill="#020202"/>
<path fill-rule="evenodd" clip-rule="evenodd" d="M133.837 45.1618C134.799 45.1271 135.041 45.0221 135.041 44.665V38.932C135.041 38.5749 134.799 38.4698 133.837 38.4352V37.9961H139.953L140.032 40.2618L139.643 40.2733C139.254 38.9677 138.91 38.4929 137.628 38.4929H136.15V41.5096H136.861C137.708 41.5096 137.891 41.3941 138.201 40.2502H138.544V43.3016H138.201C137.914 42.0989 137.708 42.018 136.861 42.018H136.15V44.665C136.15 45.0462 136.402 45.1271 137.422 45.1618V45.6009H133.837V45.1618Z" fill="#020202"/>
<path fill-rule="evenodd" clip-rule="evenodd" d="M141.612 38.2964C141.612 37.8805 141.887 37.5801 142.289 37.5801C142.688 37.5801 142.964 37.8574 142.964 38.2744C142.964 38.6903 142.688 38.9897 142.289 38.9897C141.887 38.9897 141.612 38.7124 141.612 38.2964ZM140.982 45.1743C141.646 45.1617 141.808 45.0472 141.808 44.7689V41.3131C141.808 40.9675 141.646 40.7596 140.982 40.747V40.3205L142.815 40.2743V44.7689C142.815 45.0472 142.964 45.1617 143.64 45.1743V45.6008H140.982V45.1743Z" fill="#020202"/>
<path fill-rule="evenodd" clip-rule="evenodd" d="M144.385 45.1742C145.05 45.1616 145.222 45.0471 145.222 44.7677V41.313C145.222 40.9674 145.05 40.7594 144.385 40.7479V40.3204L146.206 40.2742V41.0714C146.813 40.6439 147.5 40.2395 148.256 40.2395C149.046 40.2395 149.573 40.8057 149.573 41.8455V44.7677C149.573 45.0471 149.733 45.1616 150.409 45.1742V45.6007H147.832V45.1742C148.416 45.1616 148.565 45.0471 148.565 44.7677V42.2615C148.565 41.2668 148.187 40.9905 147.511 40.9905C146.996 40.9905 146.55 41.2206 146.229 41.4527V44.7677C146.229 45.0471 146.378 45.1616 146.95 45.1742V45.6007H144.385V45.1742Z" fill="#020202"/>
<path fill-rule="evenodd" clip-rule="evenodd" d="M154.204 44.3074V42.861C152.578 43.2213 152.222 43.4618 152.222 44.1908C152.222 44.6414 152.463 45.0122 153.059 45.0122C153.517 45.0122 153.952 44.6656 154.204 44.3074ZM151.1 44.4576C151.1 43.9933 151.318 43.5217 151.8 43.2539C152.67 42.7686 154.032 42.5837 154.204 42.4461V42.11C154.204 41.0123 153.906 40.6542 153.161 40.6542C152.796 40.6542 152.578 40.7581 152.394 40.9315C152.485 41.1289 152.52 41.3127 152.52 41.4756C152.52 41.8232 152.302 42.11 151.913 42.11C151.535 42.11 151.306 41.8096 151.306 41.4756C151.306 40.7708 152.222 40.2393 153.322 40.2393C154.513 40.2393 155.212 40.7823 155.212 41.8905V44.4681C155.212 45.0342 155.303 45.1855 156.059 45.092L156.104 45.4271C155.692 45.5783 155.429 45.6466 155.085 45.6466C154.479 45.6466 154.341 45.3924 154.273 44.758H154.204C153.746 45.2779 153.185 45.6708 152.508 45.6708C151.548 45.6708 151.1 45.1046 151.1 44.4576Z" fill="#020202"/>
<path fill-rule="evenodd" clip-rule="evenodd" d="M156.737 45.1742C157.401 45.1616 157.573 45.0471 157.573 44.7677V41.313C157.573 40.9674 157.401 40.7594 156.737 40.7479V40.3204L158.558 40.2742V41.0714C159.165 40.6439 159.852 40.2395 160.608 40.2395C161.398 40.2395 161.924 40.8057 161.924 41.8455V44.7677C161.924 45.0471 162.085 45.1616 162.76 45.1742V45.6007H160.184V45.1742C160.768 45.1616 160.917 45.0471 160.917 44.7677V42.2615C160.917 41.2668 160.539 40.9905 159.863 40.9905C159.348 40.9905 158.902 41.2206 158.58 41.4527V44.7677C158.58 45.0471 158.73 45.1616 159.302 45.1742V45.6007H156.737V45.1742Z" fill="#020202"/>
<path fill-rule="evenodd" clip-rule="evenodd" d="M163.195 43.0005C163.195 41.3944 164.318 40.2043 165.749 40.2043C166.94 40.2043 167.605 40.8629 167.605 41.4764C167.605 41.8797 167.352 42.2022 166.986 42.2022C166.597 42.2022 166.356 41.948 166.356 41.6024C166.356 41.2894 166.562 41.0699 166.723 40.9774C166.574 40.8167 166.207 40.6308 165.772 40.6308C164.914 40.6308 164.261 41.2778 164.261 42.7473C164.261 44.1212 164.902 45.0235 166.013 45.0235C166.608 45.0235 167.112 44.6769 167.501 44.2252L167.765 44.4678C167.284 45.1737 166.7 45.6926 165.635 45.6926C164.135 45.6926 163.195 44.5382 163.195 43.0005Z" fill="#020202"/>
<path fill-rule="evenodd" clip-rule="evenodd" d="M168.948 38.2964C168.948 37.8805 169.222 37.5801 169.623 37.5801C170.024 37.5801 170.3 37.8574 170.3 38.2744C170.3 38.6903 170.024 38.9897 169.623 38.9897C169.222 38.9897 168.948 38.7124 168.948 38.2964ZM168.318 45.1743C168.981 45.1617 169.142 45.0472 169.142 44.7689V41.3131C169.142 40.9675 168.981 40.7596 168.318 40.747V40.3205L170.15 40.2743V44.7689C170.15 45.0472 170.3 45.1617 170.975 45.1743V45.6008H168.318V45.1743Z" fill="#020202"/>
<path fill-rule="evenodd" clip-rule="evenodd" d="M174.781 44.3074V42.861C173.154 43.2213 172.799 43.4618 172.799 44.1908C172.799 44.6414 173.039 45.0122 173.635 45.0122C174.094 45.0122 174.529 44.6656 174.781 44.3074ZM171.677 44.4576C171.677 43.9933 171.894 43.5217 172.375 43.2539C173.245 42.7686 174.609 42.5837 174.78 42.4461V42.11C174.78 41.0123 174.483 40.6542 173.738 40.6542C173.371 40.6542 173.154 40.7581 172.97 40.9315C173.062 41.1289 173.096 41.3127 173.096 41.4756C173.096 41.8232 172.879 42.11 172.49 42.11C172.112 42.11 171.883 41.8096 171.883 41.4756C171.883 40.7708 172.799 40.2393 173.898 40.2393C175.09 40.2393 175.788 40.7823 175.788 41.8905V44.4681C175.788 45.0342 175.88 45.1855 176.635 45.092L176.681 45.4271C176.269 45.5783 176.006 45.6466 175.662 45.6466C175.055 45.6466 174.918 45.3924 174.849 44.758H174.78C174.321 45.2779 173.76 45.6708 173.085 45.6708C172.123 45.6708 171.677 45.1046 171.677 44.4576Z" fill="#020202"/>
<path fill-rule="evenodd" clip-rule="evenodd" d="M177.274 45.1741C177.938 45.1615 178.11 45.047 178.11 44.7676V38.5861C178.11 38.2384 177.893 38.0304 177.229 38.0189V37.5914L179.118 37.5452V44.7676C179.118 45.047 179.279 45.1615 179.954 45.1741V45.6005H177.274V45.1741Z" fill="#020202"/>
<path fill-rule="evenodd" clip-rule="evenodd" d="M185.885 41.868C187.386 41.868 187.706 41.1286 187.706 40.1107C187.706 39.2442 187.35 38.4932 185.919 38.4932H185.083V41.868H185.885ZM182.771 45.1631C183.733 45.1274 183.973 45.0223 183.973 44.6642V38.9322C183.973 38.574 183.733 38.4711 182.771 38.4354V37.9963H185.885C188.199 37.9963 188.92 38.9564 188.92 40.0887C188.92 41.1401 188.165 42.3533 185.805 42.3533H185.084V44.6642C185.084 45.0465 185.336 45.1274 186.355 45.1631V45.6011H182.771V45.1631Z" fill="#020202"/>
<path fill-rule="evenodd" clip-rule="evenodd" d="M189.751 45.1742C190.415 45.1616 190.587 45.0471 190.587 44.7677V41.313C190.587 40.9674 190.415 40.7594 189.751 40.7479V40.3204L191.572 40.2742V41.1743C191.973 40.667 192.477 40.2395 193.072 40.2395C193.656 40.2395 193.931 40.6439 193.931 41.0714C193.931 41.4401 193.679 41.7405 193.324 41.7405C192.981 41.7405 192.683 41.5451 192.683 41.1281C192.683 41.0714 192.694 41.001 192.706 40.9328C192.191 40.9086 191.824 41.2668 191.594 41.5913V44.7677C191.594 45.0471 191.8 45.1616 192.557 45.1742V45.6007H189.751V45.1742Z" fill="#020202"/>
<path fill-rule="evenodd" clip-rule="evenodd" d="M198.489 42.943C198.489 41.359 197.881 40.6311 196.965 40.6311C196.06 40.6311 195.545 41.359 195.545 42.943C195.545 44.527 196.152 45.2664 197.068 45.2664C197.961 45.2664 198.489 44.527 198.489 42.943ZM194.435 42.9651C194.435 41.359 195.454 40.2036 197.023 40.2036C198.637 40.2036 199.599 41.3128 199.599 42.9199C199.599 44.5375 198.58 45.6929 197.023 45.6929C195.385 45.6929 194.435 44.5837 194.435 42.9651Z" fill="#020202"/>
<path fill-rule="evenodd" clip-rule="evenodd" d="M200.166 45.174C200.831 45.1614 201.014 45.0469 201.014 44.7675V40.8632H200.04V40.504L201.014 40.296V40.0765C201.014 39.0818 201.288 38.4474 201.701 38.0304C202.067 37.6617 202.514 37.4768 202.961 37.4768C203.819 37.4768 204.231 37.9159 204.231 38.4011C204.231 38.7593 204.014 39.0135 203.682 39.0135C203.384 39.0135 203.052 38.816 203.052 38.2845C203.052 38.1932 203.064 38.0892 203.087 37.9736C202.983 37.9274 202.892 37.9043 202.8 37.9043C202.617 37.9043 202.456 37.9621 202.319 38.1007C202.112 38.3087 202.021 38.6553 202.021 39.5566V40.3202H203.453V40.8401H202.021V44.7675C202.021 45.0469 202.262 45.1393 203.167 45.174V45.6005H200.166V45.174Z" fill="#020202"/>
<path fill-rule="evenodd" clip-rule="evenodd" d="M204.881 42.4344L207.308 42.3882C207.388 41.4061 206.999 40.6088 206.186 40.6088C205.51 40.6088 204.972 41.1046 204.881 42.4344ZM203.792 43.0005C203.792 41.4166 204.777 40.2034 206.266 40.2034C207.823 40.2034 208.476 41.5332 208.384 42.8272L204.868 42.8157V42.8503V42.886C204.868 44.1213 205.476 45.0467 206.598 45.0467C207.239 45.0467 207.754 44.6538 208.212 44.0866L208.465 44.3303C208.041 45.0467 207.423 45.6937 206.266 45.6937C204.662 45.6937 203.792 44.5257 203.792 43.0005Z" fill="#020202"/>
<path fill-rule="evenodd" clip-rule="evenodd" d="M209.374 43.9257H209.751C210.279 44.7807 210.794 45.2765 211.458 45.2765C212.053 45.2765 212.362 44.8836 212.362 44.4572C212.362 43.9362 212.03 43.6935 211.011 43.3931C209.855 43.0591 209.43 42.6201 209.43 41.8911C209.43 40.8848 210.153 40.2031 211.286 40.2031C211.652 40.2031 212.11 40.3439 212.352 40.5161L212.557 40.2031H212.867V41.7745H212.488C212.11 41.0697 211.71 40.6201 211.149 40.6201C210.599 40.6201 210.256 40.9562 210.256 41.4279C210.256 41.9016 210.645 42.1453 211.538 42.4005C212.648 42.7114 213.118 43.1274 213.118 43.9141C213.118 44.8836 212.524 45.6935 211.332 45.6935C210.885 45.6935 210.324 45.5097 210.014 45.3122L209.683 45.6935H209.374V43.9257Z" fill="#020202"/>
<path fill-rule="evenodd" clip-rule="evenodd" d="M214.101 43.9257H214.479C215.005 44.7807 215.521 45.2765 216.184 45.2765C216.78 45.2765 217.089 44.8836 217.089 44.4572C217.089 43.9362 216.758 43.6935 215.738 43.3931C214.581 43.0591 214.158 42.6201 214.158 41.8911C214.158 40.8848 214.879 40.2031 216.013 40.2031C216.38 40.2031 216.838 40.3439 217.078 40.5161L217.284 40.2031H217.594V41.7745H217.215C216.838 41.0697 216.436 40.6201 215.875 40.6201C215.326 40.6201 214.982 40.9562 214.982 41.4279C214.982 41.9016 215.372 42.1453 216.264 42.4005C217.376 42.7114 217.845 43.1274 217.845 43.9141C217.845 44.8836 217.25 45.6935 216.058 45.6935C215.612 45.6935 215.051 45.5097 214.742 45.3122L214.41 45.6935H214.101V43.9257Z" fill="#020202"/>
<path fill-rule="evenodd" clip-rule="evenodd" d="M219.222 38.2964C219.222 37.8805 219.496 37.5801 219.898 37.5801C220.298 37.5801 220.573 37.8574 220.573 38.2744C220.573 38.6903 220.298 38.9897 219.898 38.9897C219.496 38.9897 219.222 38.7124 219.222 38.2964ZM218.591 45.1743C219.256 45.1617 219.416 45.0472 219.416 44.7689V41.3131C219.416 40.9675 219.256 40.7596 218.591 40.747V40.3205L220.425 40.2743V44.7689C220.425 45.0472 220.573 45.1617 221.25 45.1743V45.6008H218.591V45.1743Z" fill="#020202"/>
<path fill-rule="evenodd" clip-rule="evenodd" d="M225.75 42.943C225.75 41.359 225.143 40.6311 224.226 40.6311C223.322 40.6311 222.806 41.359 222.806 42.943C222.806 44.527 223.413 45.2664 224.329 45.2664C225.222 45.2664 225.75 44.527 225.75 42.943ZM221.696 42.9651C221.696 41.359 222.715 40.2036 224.284 40.2036C225.899 40.2036 226.86 41.3128 226.86 42.9199C226.86 44.5375 225.841 45.6929 224.284 45.6929C222.646 45.6929 221.696 44.5837 221.696 42.9651Z" fill="#020202"/>
<path fill-rule="evenodd" clip-rule="evenodd" d="M227.444 45.1742C228.109 45.1616 228.281 45.0471 228.281 44.7677V41.313C228.281 40.9674 228.109 40.7594 227.444 40.7479V40.3204L229.266 40.2742V41.0714C229.873 40.6439 230.559 40.2395 231.315 40.2395C232.105 40.2395 232.633 40.8057 232.633 41.8455V44.7677C232.633 45.0471 232.792 45.1616 233.468 45.1742V45.6007H230.892V45.1742C231.475 45.1616 231.624 45.0471 231.624 44.7677V42.2615C231.624 41.2668 231.247 40.9905 230.571 40.9905C230.056 40.9905 229.609 41.2206 229.289 41.4527V44.7677C229.289 45.0471 229.437 45.1616 230.01 45.1742V45.6007H227.444V45.1742Z" fill="#020202"/>
<path fill-rule="evenodd" clip-rule="evenodd" d="M237.263 44.3074V42.861C235.636 43.2213 235.281 43.4618 235.281 44.1908C235.281 44.6414 235.523 45.0122 236.118 45.0122C236.576 45.0122 237.011 44.6656 237.263 44.3074ZM234.159 44.4576C234.159 43.9933 234.377 43.5217 234.858 43.2539C235.729 42.7686 237.091 42.5837 237.263 42.4461V42.11C237.263 41.0123 236.965 40.6542 236.221 40.6542C235.854 40.6542 235.636 40.7581 235.453 40.9315C235.545 41.1289 235.58 41.3127 235.58 41.4756C235.58 41.8232 235.362 42.11 234.973 42.11C234.594 42.11 234.366 41.8096 234.366 41.4756C234.366 40.7708 235.281 40.2393 236.381 40.2393C237.572 40.2393 238.271 40.7823 238.271 41.8905V44.4681C238.271 45.0342 238.363 45.1855 239.118 45.092L239.163 45.4271C238.752 45.5783 238.489 45.6466 238.146 45.6466C237.539 45.6466 237.4 45.3924 237.333 44.758H237.263C236.805 45.2779 236.244 45.6708 235.568 45.6708C234.607 45.6708 234.159 45.1046 234.159 44.4576Z" fill="#020202"/>
<path fill-rule="evenodd" clip-rule="evenodd" d="M239.758 45.1741C240.423 45.1615 240.595 45.047 240.595 44.7676V38.5861C240.595 38.2384 240.377 38.0304 239.712 38.0189V37.5914L241.602 37.5452V44.7676C241.602 45.047 241.762 45.1615 242.438 45.1741V45.6005H239.758V45.1741Z" fill="#020202"/>
<mask id="mask0_3754_113" style="mask-type:alpha" maskUnits="userSpaceOnUse" x="243" y="40" width="4" height="6">
<path fill-rule="evenodd" clip-rule="evenodd" d="M243.256 40.2031H247V45.6935H243.256V40.2031Z" fill="white"/>
</mask>
<g mask="url(#mask0_3754_113)">
<path fill-rule="evenodd" clip-rule="evenodd" d="M243.256 43.9257H243.634C244.161 44.7807 244.676 45.2765 245.34 45.2765C245.935 45.2765 246.245 44.8836 246.245 44.4572C246.245 43.9362 245.913 43.6935 244.894 43.3931C243.737 43.0591 243.314 42.6201 243.314 41.8911C243.314 40.8848 244.035 40.2031 245.168 40.2031C245.535 40.2031 245.993 40.3439 246.234 40.5161L246.439 40.2031H246.749V41.7745H246.371C245.993 41.0697 245.592 40.6201 245.031 40.6201C244.481 40.6201 244.138 40.9562 244.138 41.4279C244.138 41.9016 244.527 42.1453 245.42 42.4005C246.531 42.7114 247 43.1274 247 43.9141C247 44.8836 246.406 45.6935 245.214 45.6935C244.768 45.6935 244.207 45.5097 243.896 45.3122L243.565 45.6935H243.256V43.9257Z" fill="#020202"/>
</g>
<path fill-rule="evenodd" clip-rule="evenodd" d="M134.467 52.1635C134.467 51.7475 134.742 51.446 135.143 51.446C135.543 51.446 135.819 51.7244 135.819 52.1403C135.819 52.5573 135.543 52.8567 135.143 52.8567C134.742 52.8567 134.467 52.5794 134.467 52.1635ZM133.837 59.0403C134.5 59.0287 134.662 58.9132 134.662 58.6359V55.1801C134.662 54.8335 134.5 54.6255 133.837 54.614V54.1865L135.669 54.1403V58.6359C135.669 58.9132 135.819 59.0287 136.495 59.0403V59.4678H133.837V59.0403Z" fill="#020202"/>
<path fill-rule="evenodd" clip-rule="evenodd" d="M137.238 59.0404C137.903 59.0288 138.075 58.9133 138.075 58.635V55.1803C138.075 54.8336 137.903 54.6257 137.238 54.6141V54.1866L139.06 54.1404V54.9376C139.667 54.5101 140.353 54.1057 141.109 54.1057C141.899 54.1057 142.427 54.6719 142.427 55.7117V58.635C142.427 58.9133 142.586 59.0288 143.263 59.0404V59.4679H140.685V59.0404C141.269 59.0288 141.418 58.9133 141.418 58.635V56.1277C141.418 55.134 141.04 54.8567 140.365 54.8567C139.85 54.8567 139.403 55.0878 139.083 55.3189V58.635C139.083 58.9133 139.231 59.0288 139.804 59.0404V59.4679H137.238V59.0404Z" fill="#020202"/>
<path fill-rule="evenodd" clip-rule="evenodd" d="M149.284 58.9705C151.037 58.9705 151.3 58.2541 151.3 57.2951C151.3 56.3939 150.67 55.7101 149.158 55.7101H148.334V58.9705H149.284ZM149.158 55.2259C150.545 55.2259 150.957 54.7049 150.957 53.7816C150.957 52.9024 150.613 52.3594 149.181 52.3594H148.334V55.2259H149.158ZM146.02 59.0282C146.983 58.9925 147.223 58.8896 147.223 58.5314V52.7984C147.223 52.4403 146.983 52.3363 146.02 52.3027V51.8625H149.135C151.426 51.8625 152.124 52.7302 152.124 53.6997C152.124 54.312 151.77 55.1334 150.338 55.3992V55.4685C151.838 55.5725 152.491 56.4748 152.491 57.272C152.491 58.4968 151.644 59.4673 149.238 59.4673H146.02V59.0282Z" fill="#020202"/>
<path fill-rule="evenodd" clip-rule="evenodd" d="M153.898 57.954V55.0759C153.898 54.7178 153.715 54.6369 153.051 54.6127V54.1863L154.907 54.1274V57.537C154.907 58.5317 155.283 58.8079 156.029 58.8079C156.544 58.8079 156.876 58.6346 157.219 58.4277V55.0759C157.219 54.7178 157.002 54.6369 156.372 54.6127V54.1863L158.227 54.1274V58.6346C158.227 58.9245 158.399 59.0275 159.063 59.0516V59.4665H157.242V58.7974C156.67 59.2134 156.04 59.559 155.283 59.559C154.459 59.559 153.898 58.9939 153.898 57.954Z" fill="#020202"/>
<path fill-rule="evenodd" clip-rule="evenodd" d="M159.858 57.7918H160.237C160.762 58.6468 161.279 59.1436 161.942 59.1436C162.537 59.1436 162.846 58.7508 162.846 58.3233C162.846 57.8034 162.515 57.5597 161.495 57.2603C160.339 56.9252 159.915 56.4862 159.915 55.7572C159.915 54.751 160.636 54.0703 161.771 54.0703C162.137 54.0703 162.595 54.21 162.836 54.3823L163.042 54.0703H163.351V55.6417H162.972C162.595 54.9369 162.194 54.4863 161.633 54.4863C161.083 54.4863 160.739 54.8224 160.739 55.2951C160.739 55.7688 161.129 56.0114 162.022 56.2667C163.133 56.5776 163.603 56.9946 163.603 57.7813C163.603 58.7508 163.007 59.5596 161.817 59.5596C161.369 59.5596 160.808 59.3758 160.499 59.1783L160.167 59.5596H159.858V57.7918Z" fill="#020202"/>
<path fill-rule="evenodd" clip-rule="evenodd" d="M164.978 52.1635C164.978 51.7475 165.253 51.446 165.655 51.446C166.055 51.446 166.33 51.7244 166.33 52.1403C166.33 52.5573 166.055 52.8567 165.655 52.8567C165.253 52.8567 164.978 52.5794 164.978 52.1635ZM164.349 59.0403C165.013 59.0287 165.174 58.9132 165.174 58.6359V55.1801C165.174 54.8335 165.013 54.6255 164.349 54.614V54.1865L166.182 54.1403V58.6359C166.182 58.9132 166.33 59.0287 167.006 59.0403V59.4678H164.349V59.0403Z" fill="#020202"/>
<path fill-rule="evenodd" clip-rule="evenodd" d="M167.75 59.0404C168.415 59.0288 168.586 58.9133 168.586 58.635V55.1803C168.586 54.8336 168.415 54.6257 167.75 54.6141V54.1866L169.571 54.1404V54.9376C170.179 54.5101 170.865 54.1057 171.621 54.1057C172.411 54.1057 172.938 54.6719 172.938 55.7117V58.635C172.938 58.9133 173.098 59.0288 173.775 59.0404V59.4679H171.198V59.0404C171.782 59.0288 171.93 58.9133 171.93 58.635V56.1277C171.93 55.134 171.553 54.8567 170.877 54.8567C170.362 54.8567 169.914 55.0878 169.595 55.3189V58.635C169.595 58.9133 169.743 59.0288 170.316 59.0404V59.4679H167.75V59.0404Z" fill="#020202"/>
<path fill-rule="evenodd" clip-rule="evenodd" d="M175.297 56.3016L177.725 56.2553C177.806 55.2722 177.416 54.4749 176.603 54.4749C175.928 54.4749 175.39 54.9707 175.297 56.3016ZM174.209 56.8677C174.209 55.2827 175.194 54.0706 176.684 54.0706C178.241 54.0706 178.893 55.3993 178.802 56.6944L175.286 56.6818V56.7175V56.7522C175.286 57.9874 175.894 58.9128 177.016 58.9128C177.657 58.9128 178.172 58.52 178.63 57.9528L178.882 58.1965C178.458 58.9128 177.84 59.5599 176.684 59.5599C175.08 59.5599 174.209 58.3918 174.209 56.8677Z" fill="#020202"/>
<path fill-rule="evenodd" clip-rule="evenodd" d="M179.79 57.7918H180.169C180.695 58.6468 181.211 59.1436 181.874 59.1436C182.469 59.1436 182.778 58.7508 182.778 58.3233C182.778 57.8034 182.447 57.5597 181.427 57.2603C180.271 56.9252 179.847 56.4862 179.847 55.7572C179.847 54.751 180.569 54.0703 181.703 54.0703C182.069 54.0703 182.527 54.21 182.768 54.3823L182.974 54.0703H183.283V55.6417H182.904C182.527 54.9369 182.126 54.4863 181.565 54.4863C181.015 54.4863 180.672 54.8224 180.672 55.2951C180.672 55.7688 181.061 56.0114 181.954 56.2667C183.066 56.5776 183.535 56.9946 183.535 57.7813C183.535 58.7508 182.94 59.5596 181.749 59.5596C181.301 59.5596 180.74 59.3758 180.431 59.1783L180.099 59.5596H179.79V57.7918Z" fill="#020202"/>
<path fill-rule="evenodd" clip-rule="evenodd" d="M184.518 57.7918H184.896C185.423 58.6468 185.939 59.1436 186.602 59.1436C187.197 59.1436 187.506 58.7508 187.506 58.3233C187.506 57.8034 187.174 57.5597 186.155 57.2603C184.999 56.9252 184.574 56.4862 184.574 55.7572C184.574 54.751 185.297 54.0703 186.43 54.0703C186.797 54.0703 187.254 54.21 187.496 54.3823L187.702 54.0703H188.011V55.6417H187.632C187.254 54.9369 186.854 54.4863 186.293 54.4863C185.743 54.4863 185.4 54.8224 185.4 55.2951C185.4 55.7688 185.789 56.0114 186.682 56.2667C187.794 56.5776 188.263 56.9946 188.263 57.7813C188.263 58.7508 187.668 59.5596 186.476 59.5596C186.029 59.5596 185.468 59.3758 185.159 59.1783L184.827 59.5596H184.518V57.7918Z" fill="#020202"/>
<path fill-rule="evenodd" clip-rule="evenodd" d="M217.114 15.2423C217.114 13.6983 216.513 12.9703 215.638 12.9703C214.776 12.9703 214.263 13.6983 214.263 15.2423C214.263 16.7864 214.863 17.5259 215.737 17.5259C216.59 17.5259 217.114 16.7864 217.114 15.2423ZM213.246 15.2644C213.246 13.7319 214.197 12.6279 215.694 12.6279C217.235 12.6279 218.131 13.6867 218.131 15.2203C218.131 16.7643 217.18 17.8672 215.694 17.8672C214.13 17.8672 213.246 16.8084 213.246 15.2644Z" fill="#020202"/>
<path fill-rule="evenodd" clip-rule="evenodd" d="M218.929 17.4374C219.563 17.4269 219.737 17.3156 219.737 17.0509V13.2244H218.809V12.9156L219.737 12.717V12.507C219.737 11.5585 219.978 10.9513 220.371 10.5543C220.721 10.2014 221.148 10.0249 221.573 10.0249C222.394 10.0249 222.777 10.4335 222.777 10.8526C222.777 11.194 222.568 11.4261 222.251 11.4261C221.967 11.4261 221.661 11.2381 221.661 10.7308C221.661 10.6425 221.672 10.5438 221.694 10.4335C221.595 10.3894 221.508 10.3673 221.42 10.3673C221.246 10.3673 221.104 10.4114 220.961 10.5543C220.765 10.7528 220.655 11.1173 220.655 11.9776V12.7391H222.044V13.2023H220.655V17.0509C220.655 17.3156 220.885 17.4049 221.748 17.4374V17.7799H218.929V17.4374Z" fill="#020202"/>
<mask id="mask1_3754_113" style="mask-type:alpha" maskUnits="userSpaceOnUse" x="0" y="5" width="247" height="61">
<path fill-rule="evenodd" clip-rule="evenodd" d="M0 65.4916H247V5.03906H0V65.4916Z" fill="white"/>
</mask>
<g mask="url(#mask1_3754_113)">
<path fill-rule="evenodd" clip-rule="evenodd" d="M0 65.4916H95.2604V5.03906H0V65.4916Z" fill="#020202"/>
<path fill-rule="evenodd" clip-rule="evenodd" d="M15.0832 22.8362C15.0832 21.2669 16.0886 20.1125 17.5978 20.1125C19.107 20.1125 20.1135 21.1745 20.1135 22.7438C20.1135 24.3141 19.107 25.4212 17.5978 25.4212C16.0886 25.4212 15.0832 24.4055 15.0832 22.8362ZM12.6133 50.5284C15.2663 50.4822 15.9522 50.2511 15.9522 48.6819V32.8978C15.9522 31.5134 15.2663 30.5912 12.6133 30.5449V29.9903L19.7939 29.8055V48.6819C19.7939 50.2511 20.3872 50.4822 23.2692 50.5284V51.082H12.6133V50.5284Z" fill="white"/>
<path fill-rule="evenodd" clip-rule="evenodd" d="M38.3513 50.5284C40.6838 50.4822 41.2792 50.2501 41.2792 48.6819V37.281C41.2792 33.5889 40.2269 31.651 37.4375 31.651C35.1955 31.651 33.4595 33.4513 32.1772 36.2201V48.6819C32.1772 50.2501 32.4977 50.4822 34.7844 50.5284V51.082H24.9976V50.5284C27.6496 50.4822 28.3365 50.2501 28.3365 48.6819V32.8978C28.3365 31.5123 27.6496 30.5912 24.9976 30.5439V29.9893L32.0856 29.8055V35.0206C34.1454 31.4672 36.66 29.6658 39.771 29.6658C42.651 29.6658 44.6171 31.2813 45.0293 34.4671C47.0412 31.3737 49.8306 29.6658 52.7126 29.6658C56.0047 29.6658 58.0624 31.7434 58.0624 35.8966V48.6819C58.0624 50.2501 58.7026 50.4822 61.4004 50.5284V51.082H51.5687V50.5284C53.9012 50.4822 54.2208 50.2501 54.2208 48.6819V37.281C54.2208 33.5889 53.1685 31.651 50.3801 31.651C48.5504 31.651 46.5384 32.9892 45.1198 35.5731V48.6819C45.1198 50.2501 45.761 50.4822 48.4577 50.5284V51.082H38.3513V50.5284Z" fill="white"/>
<path fill-rule="evenodd" clip-rule="evenodd" d="M75.1021 46.6049V39.7281C68.3784 41.2512 67.0066 42.6356 67.0066 45.6806C67.0066 47.8959 68.013 49.5586 70.6203 49.5586C72.4501 49.5586 74.0956 48.0356 75.1021 46.6049ZM62.8452 46.5125C62.8452 44.6649 63.5769 43.0042 65.4983 41.9434C68.9736 40.0044 74.416 39.4046 75.102 38.85V35.9425C75.102 32.3439 74.0497 30.4984 71.1687 30.4984C69.4763 30.4984 67.9213 31.0499 67.098 32.0194C67.7839 32.7588 68.2866 33.5876 68.2866 34.4195C68.2866 35.8049 67.4176 36.8669 65.8636 36.8669C64.4002 36.8669 63.5769 35.7587 63.5769 34.4195C63.5769 31.7442 67.098 29.6665 71.4893 29.6665C76.2458 29.6665 78.9436 31.6045 78.9436 36.035V47.1585C78.9436 49.42 79.7201 50.5733 82.4647 49.4662L82.6479 49.9273C81.0919 50.8044 80.0396 51.2655 78.5773 51.2655C76.2458 51.2655 75.4225 50.2508 75.2851 47.7131H75.102C73.2722 49.7876 71.1229 51.3579 68.424 51.3579C64.5834 51.3579 62.8452 49.004 62.8452 46.5125Z" fill="#FEFEFE"/>
<path fill-rule="evenodd" clip-rule="evenodd" d="M83.7032 32.7397H84.2871C84.7804 32.7397 85.2321 32.7145 85.2321 32.1421C85.2321 31.6599 84.822 31.5854 84.4432 31.5854H83.7032V32.7397ZM83.1431 31.1295H84.5336C85.3892 31.1295 85.792 31.4698 85.792 32.1662C85.792 32.8227 85.3809 33.0968 84.8459 33.1546L85.8742 34.7564H85.2737L84.2953 33.1956H83.7031V34.7564H83.1431V31.1295ZM84.3444 35.5946C85.7672 35.5946 86.8694 34.4487 86.8694 32.9309C86.8694 31.4446 85.7672 30.2997 84.3444 30.2997C82.9049 30.2997 81.8037 31.4446 81.8037 32.9309C81.8037 34.4487 82.9049 35.5946 84.3444 35.5946ZM84.3442 29.8428C86.022 29.8428 87.4282 31.1789 87.4282 32.9309C87.4282 34.7144 86.022 36.0495 84.3442 36.0495C82.6581 36.0495 81.2446 34.7144 81.2446 32.9309C81.2446 31.1789 82.6581 29.8428 84.3442 29.8428Z" fill="#FEFEFE"/>
</g>
</svg>
