<svg width="289" height="87" viewBox="0 0 289 87" fill="none" xmlns="http://www.w3.org/2000/svg">
<g clip-path="url(#clip0_3754_278)">
<mask id="mask0_3754_278" style="mask-type:luminance" maskUnits="userSpaceOnUse" x="0" y="0" width="289" height="87">
<path d="M289 0H0V86.4299H289V0Z" fill="white"/>
</mask>
<g mask="url(#mask0_3754_278)">
<path d="M30.8052 65.6138C30.8052 59.9432 35.403 55.3454 41.0737 55.3454V45.077H0V55.3454C5.67059 55.3454 10.2684 59.9432 10.2684 65.6138C10.2684 71.2841 5.67059 75.8822 0 75.8822V86.1506H41.0737V75.8822C35.403 75.8822 30.8052 71.2841 30.8052 65.6138Z" fill="#020202"/>
<path d="M65.0876 21.0577C65.0876 9.71654 55.892 0.525635 44.5508 0.525635V41.5992C55.892 41.5992 65.0854 32.4061 65.0876 21.0672C65.0876 32.4085 74.2835 41.5992 85.6244 41.5992V0.525635C74.2835 0.525635 65.09 9.71654 65.0876 21.0577Z" fill="#020202"/>
<path d="M26.9567 21.0626H7.7019V8.22763H26.9567C30.5008 8.22763 33.3741 11.101 33.3741 14.6451C33.3741 18.1892 30.5008 21.0626 26.9567 21.0626ZM28.2388 0.585192C27.8153 0.547133 27.3872 0.523346 26.9543 0.523346H0V41.5971H7.7019V28.7596H26.9567C27.3896 28.7596 27.8177 28.7383 28.2412 28.7002C35.4363 28.0509 41.0761 22.0069 41.0761 14.6404C41.0761 7.27382 35.4341 1.23455 28.2388 0.585192Z" fill="#020202"/>
<path d="M44.5508 86.1528V74.5287L56.1751 86.1528H44.5508Z" fill="#020202"/>
<path d="M67.98 86.1528L44.5508 62.7238V50.9186L79.785 86.1528H67.98Z" fill="#020202"/>
<path d="M85.6251 45.0721V56.5678L74.1294 45.0721H85.6251Z" fill="#020202"/>
<path d="M85.6267 80.185L50.521 45.0791H62.326L85.6291 68.3801L85.6267 80.185Z" fill="#020202"/>
<path d="M91.0964 82.2424H91.9501L93.3392 85.3989L94.7094 82.2424H95.5751V86.1528H94.959V83.0988L93.6272 86.1528H93.0492L91.7243 83.0988V86.1528H91.1083L91.0964 82.2424ZM88.927 82.792H87.7686V82.2402H90.6918V82.792H89.5431V86.1506H88.927V82.792Z" fill="#020202"/>
<path d="M219.519 84.1857C219.519 85.2871 218.653 86.153 217.528 86.153C216.402 86.153 215.525 85.2871 215.525 84.1857C215.525 83.0845 216.414 82.2423 217.528 82.2423C218.641 82.2423 219.519 83.1083 219.519 84.1857ZM216.022 84.1857C216.022 85.0516 216.662 85.739 217.54 85.739C218.417 85.739 219.021 85.0516 219.021 84.1975C219.021 83.3438 218.393 82.6351 217.528 82.6351C216.662 82.6351 216.022 83.3319 216.022 84.1857ZM217.218 85.2039H216.769V83.2606C216.947 83.2249 217.195 83.2012 217.516 83.2012C217.882 83.2012 218.048 83.2606 218.191 83.3438C218.298 83.427 218.381 83.5817 218.381 83.7694C218.381 83.9836 218.215 84.1478 217.98 84.2192V84.2429C218.17 84.3142 218.277 84.4568 218.334 84.7161C218.393 85.0135 218.429 85.1302 218.477 85.2015H217.991C217.932 85.1302 217.896 84.9516 217.837 84.728C217.801 84.5141 217.682 84.4188 217.435 84.4188H217.221V85.2015L217.218 85.2039ZM217.23 84.1025H217.444C217.694 84.1025 217.894 84.0193 217.894 83.817C217.894 83.6387 217.763 83.5199 217.48 83.5199C217.361 83.5199 217.278 83.5318 217.23 83.5437V84.1025Z" fill="#020202"/>
<path d="M118.461 13.2226C119.564 12.6708 120.43 11.8764 121.032 10.8655C121.634 9.8498 121.94 8.65096 121.94 7.29755C121.94 5.94411 121.634 4.7453 121.032 3.72964C120.43 2.71636 119.567 1.92429 118.461 1.37245C117.348 0.815859 116.042 0.532806 114.579 0.532806H106.151V22.0354H109.286V14.0599H114.579C116.042 14.0599 117.348 13.7768 118.461 13.2226ZM109.286 11.3982V3.19683H114.296C115.649 3.19683 116.738 3.56553 117.533 4.29576C118.335 5.03074 118.741 6.03926 118.741 7.29755C118.741 8.55583 118.33 9.53819 117.519 10.2827C116.712 11.0224 115.618 11.3982 114.265 11.3982H109.286Z" fill="#020202"/>
<path d="M131.504 9.13146H132.773V6.43649H132.257C131.071 6.43649 130.119 6.64106 129.427 7.0478C128.732 7.45453 128.157 8.02302 127.719 8.74136L127.381 9.29557L126.937 6.43887H124.363V22.0377H127.279V14.2074C127.279 12.7612 127.61 11.5481 128.264 10.6038C128.937 9.62859 130.026 9.13621 131.506 9.13621L131.504 9.13146Z" fill="#020202"/>
<path d="M134.583 18.4389C135.237 19.6378 136.179 20.5773 137.378 21.2338C138.582 21.8927 139.985 22.2257 141.55 22.2257C143.115 22.2257 144.516 21.8927 145.722 21.2338C146.921 20.5797 147.861 19.6378 148.517 18.4389C149.176 17.2354 149.509 15.8201 149.509 14.236C149.509 12.6518 149.176 11.2675 148.517 10.0639C147.863 8.86507 146.921 7.91839 145.722 7.2524C144.519 6.584 143.115 6.24625 141.553 6.24625C139.99 6.24625 138.586 6.584 137.383 7.2524C136.184 7.91839 135.242 8.8627 134.588 10.0639C133.929 11.2675 133.596 12.6709 133.596 14.236C133.596 15.8011 133.929 17.2354 134.588 18.4389H134.583ZM137.947 10.2351C138.848 9.19094 140.061 8.66053 141.55 8.66053C143.039 8.66053 144.255 9.18856 145.168 10.2328C146.072 11.2675 146.531 12.6138 146.531 14.236C146.531 15.8582 146.072 17.2045 145.168 18.2392C144.257 19.2834 143.039 19.8114 141.55 19.8114C140.061 19.8114 138.848 19.281 137.947 18.2368C137.054 17.2021 136.6 15.8558 136.6 14.236C136.6 12.6161 137.052 11.2675 137.947 10.2351Z" fill="#020202"/>
<path d="M155.19 24.0643V6.43649H152.274V23.8122C152.274 24.4806 152.114 24.9848 151.798 25.3107C151.482 25.6413 150.989 25.8078 150.34 25.8078H148.756V28.315H151.03C153.827 28.315 155.188 26.9234 155.188 24.0619L155.19 24.0643Z" fill="#020202"/>
<path d="M153.731 3.60596C154.257 3.60596 154.68 3.43945 155.022 3.09457C155.367 2.74966 155.534 2.32865 155.534 1.80298C155.534 1.27731 155.367 0.853917 155.022 0.5114C154.677 0.166502 154.257 0 153.731 0C153.205 0 152.777 0.16888 152.42 0.513777C152.068 0.856296 151.895 1.27969 151.895 1.80298C151.895 2.32627 152.061 2.74966 152.406 3.09457C152.751 3.43945 153.186 3.60596 153.731 3.60596Z" fill="#020202"/>
<path d="M161.774 21.2338C162.977 21.8926 164.414 22.2256 166.039 22.2256C167.899 22.2256 169.471 21.7142 170.708 20.7081C171.868 19.7638 172.618 18.5555 172.939 17.1116H170.018C169.759 17.9798 169.269 18.6672 168.56 19.1572C167.811 19.6758 166.878 19.9374 165.787 19.9374C164.407 19.9374 163.284 19.5021 162.445 18.6411C161.612 17.7871 161.146 16.6145 161.058 15.1612V14.7211H173.205C173.248 14.3644 173.27 14.0123 173.27 13.6722C173.251 12.176 172.906 10.8535 172.251 9.74274C171.598 8.6343 170.689 7.76611 169.549 7.16194C168.408 6.55539 167.066 6.24857 165.563 6.24857C164.06 6.24857 162.756 6.58156 161.614 7.23805C160.478 7.89217 159.578 8.83171 158.943 10.0305C158.306 11.2341 157.982 12.6613 157.982 14.2668C157.982 15.8724 158.315 17.2591 158.974 18.4532C159.628 19.6425 160.57 20.5773 161.769 21.2314L161.774 21.2338ZM161.189 12.452C161.322 11.265 161.819 10.2993 162.668 9.58098C163.515 8.86739 164.533 8.50347 165.694 8.50347C166.94 8.50347 167.989 8.85551 168.815 9.54768C169.642 10.2446 170.142 11.2199 170.294 12.4472L170.327 12.7136H161.158L161.186 12.4496L161.189 12.452Z" fill="#020202"/>
<path d="M179.089 21.2338C180.262 21.8902 181.639 22.2232 183.18 22.2232C185.145 22.2232 186.774 21.7071 188.023 20.6914C189.203 19.7305 189.971 18.3984 190.304 16.7334H187.324C187.086 17.6397 186.62 18.3771 185.935 18.9265C185.204 19.514 184.277 19.8113 183.18 19.8113C181.753 19.8113 180.587 19.2809 179.717 18.2343C178.858 17.1996 178.421 15.8462 178.421 14.205C178.421 12.5638 178.856 11.2436 179.717 10.2208C180.587 9.18613 181.753 8.66047 183.18 8.66047C184.234 8.66047 185.14 8.95304 185.87 9.52866C186.555 10.0686 187.031 10.7893 187.286 11.6765H190.302C189.969 10.0519 189.212 8.74134 188.051 7.78037C186.824 6.76471 185.216 6.24857 183.273 6.24857C181.71 6.24857 180.316 6.58156 179.134 7.23805C177.957 7.89217 177.032 8.82696 176.387 10.0163C175.74 11.2103 175.412 12.6185 175.412 14.205C175.412 15.7915 175.735 17.2115 176.373 18.427C177.008 19.6353 177.921 20.5796 179.089 21.2338Z" fill="#020202"/>
<path d="M194.125 17.9109C194.125 19.3261 194.456 20.3775 195.107 21.0411C195.759 21.7023 196.827 22.0377 198.283 22.0377H201.311V19.5307H198.975C198.295 19.5307 197.817 19.3784 197.517 19.0645C197.219 18.7529 197.074 18.2629 197.074 17.5659V8.94591H200.937V6.43885H197.074V1.94568H194.127V6.43647H191.333V8.94351H194.127L194.125 17.9109Z" fill="#020202"/>
<path d="M118.879 54.087L125.87 36.942V54.087H128.879V32.5843H124.695L117.628 50.2835L110.433 32.5843H106.151V54.087H109.16V36.942L116.153 54.087H118.879Z" fill="#020202"/>
<path d="M138.254 44.8914C136.077 44.8914 134.405 45.3241 133.28 46.1782C132.16 47.0273 131.615 48.2141 131.615 49.8031C131.615 51.2041 132.12 52.272 133.154 53.0691C134.196 53.8707 135.604 54.275 137.343 54.275C139.602 54.275 141.272 53.4067 142.45 51.6181L142.885 50.9545V51.7464C142.885 52.5124 143.092 53.0974 143.501 53.4899C143.913 53.8847 144.619 54.0846 145.597 54.0846H147.148V51.6084H146.726C145.884 51.6084 145.421 51.1233 145.421 50.2409V43.8994C145.421 42.0965 144.857 40.7001 143.746 39.7464C142.623 38.7854 140.996 38.2979 138.908 38.2979C136.939 38.2979 135.326 38.733 134.115 39.5895C132.992 40.3838 132.319 41.5018 132.112 42.91H134.978C135.147 42.2248 135.552 41.6635 136.184 41.2403C136.86 40.786 137.723 40.5551 138.751 40.5551C139.912 40.5551 140.839 40.8311 141.508 41.3781C142.19 41.9347 142.538 42.7102 142.538 43.6806V44.8914H138.249H138.254ZM142.54 47.7315C142.519 49.0514 142.086 50.1218 141.258 50.9164C140.43 51.7108 139.272 52.1127 137.811 52.1127C136.841 52.1127 136.056 51.8844 135.483 51.435C134.89 50.971 134.591 50.3479 134.591 49.5843C134.591 48.7114 134.91 48.0407 135.538 47.5864C136.142 47.151 137 46.9298 138.095 46.9298H142.54V47.7315Z" fill="#020202"/>
<path d="M160.689 54.087H163.636V45.4716C163.636 42.9551 163.053 41.1117 161.902 39.9914C160.75 38.8686 159.238 38.3003 157.406 38.3003C155.275 38.3003 153.603 39.0423 152.442 40.5029L152.114 40.9143L151.679 38.488H149.165V54.087H152.081V46.2232C152.081 44.5416 152.485 43.1977 153.279 42.2272C154.088 41.2425 155.211 40.743 156.619 40.743C157.944 40.743 158.967 41.1736 159.661 42.0228C160.344 42.8576 160.689 44.0825 160.689 45.6571V54.087Z" fill="#020202"/>
<path d="M177.361 51.7513C177.361 52.5173 177.568 53.1023 177.977 53.4948C178.391 53.8896 179.095 54.0895 180.072 54.0895H181.623V51.6133H181.202C180.36 51.6133 179.897 51.1282 179.897 50.2455V43.9043C179.897 42.1014 179.333 40.705 178.222 39.7513C177.099 38.7903 175.472 38.3026 173.384 38.3026C171.414 38.3026 169.802 38.7379 168.591 39.5941C167.468 40.3888 166.795 41.5067 166.588 42.9147H169.454C169.623 42.2297 170.028 41.6685 170.66 41.245C171.336 40.7907 172.199 40.56 173.227 40.56C174.388 40.56 175.315 40.8358 175.984 41.383C176.666 41.9396 177.014 42.7151 177.014 43.6855V44.8961H172.725C170.549 44.8961 168.876 45.329 167.751 46.1831C166.631 47.0322 166.086 48.219 166.086 49.808C166.086 51.209 166.591 52.2769 167.625 53.0737C168.667 53.8753 170.075 54.2797 171.814 54.2797C174.074 54.2797 175.743 53.4116 176.921 51.6228L177.356 50.9591V51.7513H177.361ZM177.016 47.7315C176.995 49.0515 176.562 50.1218 175.734 50.9165C174.906 51.7108 173.748 52.1127 172.287 52.1127C171.317 52.1127 170.532 51.8845 169.959 51.435C169.366 50.971 169.067 50.3479 169.067 49.5844C169.067 48.7114 169.385 48.0408 170.013 47.5865C170.618 47.1511 171.479 46.9299 172.57 46.9299H177.016V47.7315Z" fill="#020202"/>
<path d="M190.872 58.2686C189.638 58.2686 188.613 58.0069 187.823 57.4932C187.071 57.0032 186.57 56.3134 186.325 55.4429H183.318C183.508 57.0175 184.224 58.2613 185.454 59.1391C186.767 60.0788 188.506 60.5544 190.623 60.5544C193.353 60.5544 195.39 59.9478 196.679 58.7491C197.961 57.555 198.613 55.8448 198.613 53.6635V38.4859H196.103L195.663 41.4161L195.32 40.8905C194.8 40.0913 194.112 39.4515 193.27 38.9923C192.43 38.5334 191.412 38.3003 190.244 38.3003C188.851 38.3003 187.581 38.6333 186.472 39.2872C185.364 39.9414 184.481 40.8762 183.846 42.0679C183.209 43.2619 182.885 44.6605 182.885 46.2257C182.885 47.7909 183.204 49.2775 183.832 50.4621C184.457 51.6394 185.335 52.5599 186.441 53.1927C187.55 53.8277 188.832 54.1513 190.247 54.1513C192.507 54.1513 194.157 53.3235 195.292 51.6205L195.727 50.9664V53.5422C195.727 56.6796 194.093 58.271 190.875 58.271L190.872 58.2686ZM194.379 50.2266C193.477 51.2494 192.276 51.768 190.808 51.768C189.341 51.768 188.139 51.2446 187.238 50.2098C186.346 49.187 185.892 47.8454 185.892 46.2232C185.892 44.6011 186.344 43.2595 187.238 42.2369C188.139 41.2044 189.341 40.6788 190.808 40.6788C192.276 40.6788 193.477 41.2092 194.379 42.2534C195.27 43.2881 195.725 44.644 195.725 46.2875C195.725 47.9313 195.27 49.2132 194.379 50.2266Z" fill="#020202"/>
<path d="M212.692 39.2135C211.55 38.6072 210.209 38.3003 208.705 38.3003C207.202 38.3003 205.898 38.6333 204.757 39.2897C203.62 39.9438 202.721 40.8835 202.086 42.0822C201.448 43.2881 201.125 44.7129 201.125 46.3186C201.125 47.924 201.458 49.3107 202.117 50.5048C202.771 51.6943 203.713 52.6288 204.911 53.2829C206.115 53.942 207.552 54.275 209.176 54.275C211.036 54.275 212.609 53.7634 213.845 52.7573C215.006 51.8131 215.755 50.6047 216.077 49.1608H213.156C212.896 50.0291 212.406 50.7165 211.698 51.2065C210.948 51.725 210.016 51.9868 208.924 51.9868C207.544 51.9868 206.419 51.5514 205.582 50.6903C204.75 49.8366 204.284 48.6662 204.195 47.2104V46.7705H216.343C216.386 46.4137 216.407 46.0617 216.407 45.7214C216.388 44.2254 216.043 42.9027 215.389 41.7921C214.735 40.6836 213.826 39.8153 212.687 39.2113L212.692 39.2135ZM204.295 44.7677L204.324 44.5036C204.457 43.3168 204.954 42.3509 205.803 41.6327C206.65 40.9191 207.668 40.5551 208.829 40.5551C210.075 40.5551 211.124 40.9073 211.95 41.5992C212.777 42.2964 213.277 43.2714 213.429 44.499L213.462 44.7653H204.293L204.295 44.7677Z" fill="#020202"/>
<path d="M237.308 38.2979C236.057 38.2979 234.977 38.5475 234.094 39.0377C233.214 39.5277 232.494 40.2221 231.951 41.1047L231.721 41.4804L231.533 41.081C231.095 40.1483 230.465 39.4445 229.654 38.9902C228.835 38.531 227.872 38.2979 226.787 38.2979C224.887 38.3168 223.367 39.0566 222.265 40.4957L221.937 40.9238L221.5 38.4835H218.985V54.0822H221.902V45.7168C221.902 44.223 222.263 43.0121 222.974 42.1154C223.697 41.2022 224.685 40.7382 225.907 40.7382C227.13 40.7382 228 41.1331 228.621 41.911C229.228 42.6721 229.537 43.8043 229.537 45.2766V54.0822H232.484V45.6239C232.484 44.1303 232.845 42.9338 233.559 42.0655C234.285 41.1855 235.281 40.7382 236.52 40.7382C237.76 40.7382 238.611 41.1404 239.22 41.9299C239.815 42.7031 240.117 43.8281 240.117 45.2766V54.0822H243.033V45.2458C243.033 42.8101 242.495 41.0213 241.437 39.932C240.379 38.8449 238.989 38.2931 237.305 38.2931L237.308 38.2979Z" fill="#020202"/>
<path d="M256.929 39.2135C255.787 38.6072 254.446 38.3003 252.943 38.3003C251.439 38.3003 250.136 38.6333 248.994 39.2897C247.857 39.9438 246.958 40.8835 246.323 42.0822C245.685 43.2881 245.362 44.7129 245.362 46.3186C245.362 47.924 245.695 49.3107 246.354 50.5048C247.008 51.6943 247.95 52.6288 249.149 53.2829C250.352 53.942 251.789 54.275 253.414 54.275C255.273 54.275 256.846 53.7634 258.083 52.7573C259.244 51.8131 259.993 50.6047 260.314 49.1608H257.393C257.134 50.0291 256.644 50.7165 255.935 51.2065C255.186 51.725 254.253 51.9868 253.161 51.9868C251.782 51.9868 250.657 51.5514 249.819 50.6903C248.987 49.8366 248.521 48.6662 248.433 47.2104V46.7705H260.58C260.623 46.4137 260.645 46.0617 260.645 45.7214C260.625 44.2254 260.28 42.9027 259.626 41.7921C258.972 40.6836 258.064 39.8153 256.924 39.2113L256.929 39.2135ZM248.533 44.7677L248.561 44.5036C248.694 43.3168 249.191 42.3509 250.041 41.6327C250.887 40.9191 251.905 40.5551 253.066 40.5551C254.313 40.5551 255.361 40.9073 256.187 41.5992C257.015 42.2964 257.514 43.2714 257.666 44.499L257.7 44.7653H248.53L248.533 44.7677Z" fill="#020202"/>
<path d="M271.468 38.2979C269.336 38.2979 267.666 39.0399 266.503 40.5005L266.175 40.9119L265.739 38.4859H263.225V54.0846H266.141V46.2211C266.141 44.5392 266.546 43.1955 267.34 42.2248C268.149 41.2403 269.271 40.7406 270.679 40.7406C272.005 40.7406 273.026 41.1712 273.723 42.0203C274.404 42.8552 274.749 44.0803 274.749 45.655V54.0822H277.696V45.467C277.696 42.9503 277.113 41.1069 275.962 39.9865C274.812 38.864 273.299 38.2979 271.468 38.2979Z" fill="#020202"/>
<path d="M285.203 51.1139C284.906 50.8046 284.763 50.3123 284.763 49.6154V40.9951H288.625V38.4881H284.763V33.9975H281.816V38.4881H279.021V40.9951H281.816V49.9625C281.816 51.3778 282.145 52.4292 282.796 53.0929C283.45 53.7541 284.517 54.0895 285.973 54.0895H289V51.5825H286.664C285.994 51.5825 285.503 51.4253 285.206 51.1163L285.203 51.1139Z" fill="#020202"/>
<path d="M109.286 64.6361H106.151V86.1388H109.286V64.6361Z" fill="#020202"/>
<path d="M120.546 70.3496C118.414 70.3496 116.745 71.0916 115.581 72.5519L115.253 72.9636L114.818 70.5373H112.304V86.1363H115.22V78.2725C115.22 76.5909 115.624 75.2469 116.419 74.2765C117.228 73.2917 118.35 72.7923 119.758 72.7923C121.083 72.7923 122.106 73.2229 122.8 74.072C123.481 74.9069 123.828 76.1318 123.828 77.7064V86.1339H126.775V77.5187C126.775 75.002 126.192 73.1586 125.041 72.0382C123.89 70.9155 122.377 70.3496 120.546 70.3496Z" fill="#020202"/>
<path d="M139.906 77.6376C138.983 77.3402 137.827 77.1166 136.469 76.9716C135.442 76.8454 134.685 76.7336 134.217 76.6385C133.722 76.5362 133.301 76.353 132.97 76.0892C132.609 75.8012 132.426 75.3756 132.426 74.8189C132.426 74.0864 132.771 73.4987 133.449 73.0779C134.091 72.6781 134.935 72.4761 135.96 72.4761C136.986 72.4761 137.861 72.7281 138.548 73.2275C139.188 73.6915 139.578 74.2839 139.711 74.9877H142.544C142.394 73.5416 141.759 72.438 140.608 71.6197C139.388 70.754 137.77 70.3138 135.801 70.3138C134.605 70.3138 133.522 70.5185 132.583 70.9228C131.653 71.3223 130.915 71.8933 130.39 72.6187C129.869 73.3372 129.602 74.172 129.602 75.0995C129.602 76.0819 129.862 76.867 130.373 77.4377C130.896 78.0206 131.6 78.4511 132.464 78.7199C133.356 78.9956 134.509 79.2217 135.891 79.3859C136.921 79.5121 137.697 79.6355 138.194 79.7522C138.724 79.8759 139.157 80.0898 139.478 80.3896C139.821 80.7083 139.994 81.1769 139.994 81.7881C139.994 82.5233 139.633 83.1132 138.922 83.5459C138.248 83.9551 137.366 84.162 136.303 84.162C135.104 84.162 134.112 83.8768 133.351 83.3152C132.637 82.7872 132.219 82.1117 132.102 81.3055H129.298C129.393 82.8396 130.033 84.0218 131.246 84.9112C132.528 85.8484 134.238 86.3243 136.334 86.3243C137.573 86.3243 138.708 86.1245 139.699 85.7296C140.68 85.3396 141.46 84.7735 142.016 84.048C142.568 83.3296 142.846 82.4852 142.846 81.5386C142.846 80.4728 142.58 79.6214 142.057 79.0075C141.524 78.3844 140.798 77.9231 139.904 77.6352L139.906 77.6376Z" fill="#020202"/>
<path d="M150.201 83.1653C149.904 82.8563 149.759 82.3639 149.759 81.6668V73.0468H153.622V70.5398H149.759V66.049H146.812V70.5398H144.017V73.0468H146.812V82.0142C146.812 83.4295 147.143 84.4807 147.794 85.1443C148.446 85.8057 149.514 86.1409 150.97 86.1409H153.998V83.6339H151.662C150.991 83.6339 150.499 83.477 150.204 83.1677L150.201 83.1653Z" fill="#020202"/>
<path d="M158.738 70.5374H155.822V86.1363H158.738V70.5374Z" fill="#020202"/>
<path d="M157.277 64.101C156.752 64.101 156.321 64.2698 155.967 64.6148C155.615 64.9597 155.441 65.3807 155.441 65.9039C155.441 66.4274 155.612 66.8506 155.967 67.1931C156.321 67.538 156.749 67.7068 157.277 67.7068C157.805 67.7068 158.233 67.538 158.588 67.1931C158.942 66.8482 159.114 66.4274 159.114 65.9039C159.114 65.3807 158.942 64.9572 158.588 64.6148C158.233 64.2698 157.805 64.101 157.277 64.101Z" fill="#020202"/>
<path d="M166.967 83.1653C166.669 82.8563 166.524 82.3639 166.524 81.6668V73.0468H170.387V70.5398H166.524V66.049H163.577V70.5398H160.782V73.0468H163.577V82.0142C163.577 83.4295 163.908 84.4807 164.559 85.1443C165.211 85.8057 166.279 86.1409 167.735 86.1409H170.763V83.6339H168.427C167.756 83.6339 167.264 83.477 166.969 83.1677L166.967 83.1653Z" fill="#020202"/>
<path d="M179.383 83.8505C178.077 83.8505 177.073 83.4081 176.4 82.5327C175.743 81.6787 175.408 80.4252 175.408 78.8079V70.5374H172.492V79.1528C172.492 81.6717 173.06 83.5151 174.181 84.6354C175.301 85.7558 176.788 86.3243 178.595 86.3243C180.603 86.3243 182.211 85.6034 183.371 84.1836L183.697 83.7862L184.13 86.1363H186.678V70.5374H183.761V78.275C183.761 79.9733 183.376 81.3387 182.613 82.328C181.835 83.3365 180.748 83.8505 179.378 83.8505H179.383Z" fill="#020202"/>
<path d="M194.845 83.1653C194.548 82.8563 194.403 82.3639 194.403 81.6668V73.0468H198.265V70.5398H194.403V66.049H191.456V70.5398H188.661V73.0468H191.456V82.0142C191.456 83.4295 191.786 84.4807 192.438 85.1443C193.09 85.8057 194.158 86.1409 195.613 86.1409H198.641V83.6339H196.305C195.635 83.6339 195.142 83.477 194.847 83.1677L194.845 83.1653Z" fill="#020202"/>
<path d="M211.09 71.2628C209.949 70.6564 208.607 70.3496 207.104 70.3496C205.601 70.3496 204.297 70.6824 203.155 71.339C202.019 71.9931 201.119 72.9325 200.484 74.1315C199.847 75.3374 199.523 76.7622 199.523 78.3679C199.523 79.9733 199.856 81.36 200.515 82.5541C201.169 83.7433 202.111 84.6781 203.31 85.3322C204.514 85.9913 205.95 86.3243 207.575 86.3243C209.435 86.3243 211.007 85.8127 212.244 84.8066C213.405 83.8624 214.154 82.654 214.475 81.2101H211.554C211.295 82.0784 210.805 82.7658 210.096 83.2558C209.347 83.7743 208.415 84.0361 207.323 84.0361C205.943 84.0361 204.818 83.6007 203.981 82.7396C203.148 81.8856 202.682 80.7155 202.594 79.2597V78.8197H214.742C214.785 78.4629 214.806 78.1107 214.806 77.7707C214.787 76.2747 214.442 74.952 213.788 73.8414C213.134 72.7329 212.225 71.8646 211.086 71.2604L211.09 71.2628ZM202.694 76.817L202.723 76.5528C202.856 75.3661 203.353 74.4002 204.202 73.682C205.049 72.9684 206.067 72.6044 207.228 72.6044C208.474 72.6044 209.523 72.9565 210.348 73.6485C211.176 74.3456 211.675 75.3207 211.828 76.5483L211.861 76.8146H202.692L202.694 76.817Z" fill="#020202"/>
</g>
</g>
<defs>
<clipPath id="clip0_3754_278">
<rect width="289" height="86.4299" fill="white"/>
</clipPath>
</defs>
</svg>
