<svg xmlns="http://www.w3.org/2000/svg" width="800" height="1000" viewBox="0 0 800 1000"><rect width="800" height="1000" fill="undefined"/><defs><filter id="g23"><feGaussianBlur stdDeviation="2"/></filter>
   <radialGradient id="rg23" cx="50%" cy="35%" r="75%"><stop offset="0%" stop-color="#9f8d8b" stop-opacity=".55"/><stop offset="100%" stop-color="undefined" stop-opacity="0"/></radialGradient></defs><rect width="800" height="1000" fill="url(#rg23)"/><rect x="-100" y="-50" width="34" height="1100" fill="#d7c5b2" opacity="0.06" transform="rotate(18 -100 500)"/><rect x="-30" y="-50" width="34" height="1100" fill="#d7c5b2" opacity="0.13" transform="rotate(18 -30 500)"/><rect x="40" y="-50" width="34" height="1100" fill="#d7c5b2" opacity="0.2" transform="rotate(18 40 500)"/><rect x="110" y="-50" width="34" height="1100" fill="#d7c5b2" opacity="0.27" transform="rotate(18 110 500)"/><rect x="180" y="-50" width="34" height="1100" fill="#d7c5b2" opacity="0.34" transform="rotate(18 180 500)"/><rect x="250" y="-50" width="34" height="1100" fill="#d7c5b2" opacity="0.06" transform="rotate(18 250 500)"/><rect x="320" y="-50" width="34" height="1100" fill="#d7c5b2" opacity="0.13" transform="rotate(18 320 500)"/><rect x="390" y="-50" width="34" height="1100" fill="#d7c5b2" opacity="0.2" transform="rotate(18 390 500)"/><rect x="460" y="-50" width="34" height="1100" fill="#d7c5b2" opacity="0.27" transform="rotate(18 460 500)"/><rect x="530" y="-50" width="34" height="1100" fill="#d7c5b2" opacity="0.34" transform="rotate(18 530 500)"/><rect x="600" y="-50" width="34" height="1100" fill="#d7c5b2" opacity="0.06" transform="rotate(18 600 500)"/><rect x="670" y="-50" width="34" height="1100" fill="#d7c5b2" opacity="0.13" transform="rotate(18 670 500)"/><rect x="740" y="-50" width="34" height="1100" fill="#d7c5b2" opacity="0.2" transform="rotate(18 740 500)"/><rect x="810" y="-50" width="34" height="1100" fill="#d7c5b2" opacity="0.27" transform="rotate(18 810 500)"/></svg>