<svg xmlns="http://www.w3.org/2000/svg" width="800" height="1000" viewBox="0 0 800 1000"><rect width="800" height="1000" fill="#b7c6c2"/><defs><filter id="g31"><feGaussianBlur stdDeviation="2"/></filter>
   <radialGradient id="rg31" cx="50%" cy="35%" r="75%"><stop offset="0%" stop-color="#d5f4f9" stop-opacity=".55"/><stop offset="100%" stop-color="#b7c6c2" stop-opacity="0"/></radialGradient></defs><rect width="800" height="1000" fill="url(#rg31)"/><circle cx="60" cy="60" r="2.2990665534573864" fill="#171e19" opacity="0.5"/><circle cx="124" cy="60" r="6.610973574753318" fill="#171e19" opacity="0.5"/><circle cx="188" cy="60" r="10.775361286975281" fill="#171e19" opacity="0.5"/><circle cx="252" cy="60" r="9.25642894306533" fill="#171e19" opacity="0.5"/><circle cx="316" cy="60" r="4.073322546040728" fill="#171e19" opacity="0.5"/><circle cx="380" cy="60" r="2.11604520020424" fill="#171e19" opacity="0.5"/><circle cx="444" cy="60" r="5.986443357431983" fill="#171e19" opacity="0.5"/><circle cx="508" cy="60" r="10.539522245188467" fill="#171e19" opacity="0.5"/><circle cx="572" cy="60" r="9.722786454777058" fill="#171e19" opacity="0.5"/><circle cx="636" cy="60" r="4.62193859391582" fill="#171e19" opacity="0.5"/><circle cx="700" cy="60" r="2.0176339113731707" fill="#171e19" opacity="0.5"/><circle cx="764" cy="60" r="5.371824752478114" fill="#171e19" opacity="0.5"/><circle cx="60" cy="124" r="6.610973574753318" fill="#171e19" opacity="0.5"/><circle cx="124" cy="124" r="10.277418348009546" fill="#171e19" opacity="0.5"/><circle cx="188" cy="124" r="2.4408133419296383" fill="#171e19" opacity="0.5"/><circle cx="252" cy="124" r="6.965303107363363" fill="#171e19" opacity="0.5"/><circle cx="316" cy="124" r="10.072845022871775" fill="#171e19" opacity="0.5"/><circle cx="380" cy="124" r="2.300306850453552" fill="#171e19" opacity="0.5"/><circle cx="444" cy="124" r="7.31673587904064" fill="#171e19" opacity="0.5"/><circle cx="508" cy="124" r="9.84602882482534" fill="#171e19" opacity="0.5"/><circle cx="572" cy="124" r="2.185945697043565" fill="#171e19" opacity="0.5"/><circle cx="636" cy="124" r="7.663084032649919" fill="#171e19" opacity="0.5"/><circle cx="700" cy="124" r="9.598381806123964" fill="#171e19" opacity="0.5"/><circle cx="764" cy="124" r="2.0984418411002954" fill="#171e19" opacity="0.5"/><circle cx="60" cy="188" r="10.775361286975281" fill="#171e19" opacity="0.5"/><circle cx="124" cy="188" r="2.4408133419296383" fill="#171e19" opacity="0.5"/><circle cx="188" cy="188" r="10.275538714591292" fill="#171e19" opacity="0.5"/><circle cx="252" cy="188" r="3.0708676415540217" fill="#171e19" opacity="0.5"/><circle cx="316" cy="188" r="9.525725685284492" fill="#171e19" opacity="0.5"/><circle cx="380" cy="188" r="3.927975728714395" fill="#171e19" opacity="0.5"/><circle cx="444" cy="188" r="8.575569710568576" fill="#171e19" opacity="0.5"/><circle cx="508" cy="188" r="4.955385743997059" fill="#171e19" opacity="0.5"/><circle cx="572" cy="188" r="7.4879836471834835" fill="#171e19" opacity="0.5"/><circle cx="636" cy="188" r="6.085069594305005" fill="#171e19" opacity="0.5"/><circle cx="700" cy="188" r="6.33498003624759" fill="#171e19" opacity="0.5"/><circle cx="764" cy="188" r="7.242227309815281" fill="#171e19" opacity="0.5"/><circle cx="60" cy="252" r="9.25642894306533" fill="#171e19" opacity="0.5"/><circle cx="124" cy="252" r="6.965303107363363" fill="#171e19" opacity="0.5"/><circle cx="188" cy="252" r="3.0708676415540217" fill="#171e19" opacity="0.5"/><circle cx="252" cy="252" r="10.9923019737424" fill="#171e19" opacity="0.5"/><circle cx="316" cy="252" r="3.4344693466689646" fill="#171e19" opacity="0.5"/><circle cx="380" cy="252" r="6.439632625051194" fill="#171e19" opacity="0.5"/><circle cx="444" cy="252" r="9.652805676134426" fill="#171e19" opacity="0.5"/><circle cx="508" cy="252" r="2.0022565160181456" fill="#171e19" opacity="0.5"/><circle cx="572" cy="252" r="9.84972429905844" fill="#171e19" opacity="0.5"/><circle cx="636" cy="252" r="6.154941145246414" fill="#171e19" opacity="0.5"/><circle cx="700" cy="252" r="3.6491381981541657" fill="#171e19" opacity="0.5"/><circle cx="764" cy="252" r="10.966639907042353" fill="#171e19" opacity="0.5"/><circle cx="60" cy="316" r="4.073322546040728" fill="#171e19" opacity="0.5"/><circle cx="124" cy="316" r="10.072845022871775" fill="#171e19" opacity="0.5"/><circle cx="188" cy="316" r="9.525725685284492" fill="#171e19" opacity="0.5"/><circle cx="252" cy="316" r="3.4344693466689646" fill="#171e19" opacity="0.5"/><circle cx="316" cy="316" r="2.960285965320171" fill="#171e19" opacity="0.5"/><circle cx="380" cy="316" r="8.972037395633663" fill="#171e19" opacity="0.5"/><circle cx="444" cy="316" r="10.454193145904714" fill="#171e19" opacity="0.5"/><circle cx="508" cy="316" r="4.6909503340912" fill="#171e19" opacity="0.5"/><circle cx="572" cy="316" r="2.242488911166127" fill="#171e19" opacity="0.5"/><circle cx="636" cy="316" r="7.5952055245350305" fill="#171e19" opacity="0.5"/><circle cx="700" cy="316" r="10.941140921141287" fill="#171e19" opacity="0.5"/><circle cx="764" cy="316" r="6.149427281210721" fill="#171e19" opacity="0.5"/><circle cx="60" cy="380" r="2.11604520020424" fill="#171e19" opacity="0.5"/><circle cx="124" cy="380" r="2.300306850453552" fill="#171e19" opacity="0.5"/><circle cx="188" cy="380" r="3.927975728714395" fill="#171e19" opacity="0.5"/><circle cx="252" cy="380" r="6.439632625051194" fill="#171e19" opacity="0.5"/><circle cx="316" cy="380" r="8.972037395633663" fill="#171e19" opacity="0.5"/><circle cx="380" cy="380" r="10.654818987161304" fill="#171e19" opacity="0.5"/><circle cx="444" cy="380" r="10.909616308505818" fill="#171e19" opacity="0.5"/><circle cx="508" cy="380" r="9.648857177078963" fill="#171e19" opacity="0.5"/><circle cx="572" cy="380" r="7.305856308571243" fill="#171e19" opacity="0.5"/><circle cx="636" cy="380" r="4.685887866693063" fill="#171e19" opacity="0.5"/><circle cx="700" cy="380" r="2.6894179692076903" fill="#171e19" opacity="0.5"/><circle cx="764" cy="380" r="2.002620338318862" fill="#171e19" opacity="0.5"/><circle cx="60" cy="444" r="5.986443357431983" fill="#171e19" opacity="0.5"/><circle cx="124" cy="444" r="7.31673587904064" fill="#171e19" opacity="0.5"/><circle cx="188" cy="444" r="8.575569710568576" fill="#171e19" opacity="0.5"/><circle cx="252" cy="444" r="9.652805676134426" fill="#171e19" opacity="0.5"/><circle cx="316" cy="444" r="10.454193145904714" fill="#171e19" opacity="0.5"/><circle cx="380" cy="444" r="10.909616308505818" fill="#171e19" opacity="0.5"/><circle cx="444" cy="444" r="10.979228815237928" fill="#171e19" opacity="0.5"/><circle cx="508" cy="444" r="10.656940057531047" fill="#171e19" opacity="0.5"/><circle cx="572" cy="444" r="9.97094805269345" fill="#171e19" opacity="0.5"/><circle cx="636" cy="444" r="8.981272314168233" fill="#171e19" opacity="0.5"/><circle cx="700" cy="444" r="7.774502562934417" fill="#171e19" opacity="0.5"/><circle cx="764" cy="444" r="6.456222731160497" fill="#171e19" opacity="0.5"/><circle cx="60" cy="508" r="10.539522245188467" fill="#171e19" opacity="0.5"/><circle cx="124" cy="508" r="9.84602882482534" fill="#171e19" opacity="0.5"/><circle cx="188" cy="508" r="4.955385743997059" fill="#171e19" opacity="0.5"/><circle cx="252" cy="508" r="2.0022565160181456" fill="#171e19" opacity="0.5"/><circle cx="316" cy="508" r="4.6909503340912" fill="#171e19" opacity="0.5"/><circle cx="380" cy="508" r="9.648857177078963" fill="#171e19" opacity="0.5"/><circle cx="444" cy="508" r="10.656940057531047" fill="#171e19" opacity="0.5"/><circle cx="508" cy="508" r="6.4506926185331315" fill="#171e19" opacity="0.5"/><circle cx="572" cy="508" r="2.306294754125446" fill="#171e19" opacity="0.5"/><circle cx="636" cy="508" r="3.4223442648930473" fill="#171e19" opacity="0.5"/><circle cx="700" cy="508" r="8.398904966656456" fill="#171e19" opacity="0.5"/><circle cx="764" cy="508" r="10.993541078611896" fill="#171e19" opacity="0.5"/><circle cx="60" cy="572" r="9.722786454777058" fill="#171e19" opacity="0.5"/><circle cx="124" cy="572" r="2.185945697043565" fill="#171e19" opacity="0.5"/><circle cx="188" cy="572" r="7.4879836471834835" fill="#171e19" opacity="0.5"/><circle cx="252" cy="572" r="9.84972429905844" fill="#171e19" opacity="0.5"/><circle cx="316" cy="572" r="2.242488911166127" fill="#171e19" opacity="0.5"/><circle cx="380" cy="572" r="7.305856308571243" fill="#171e19" opacity="0.5"/><circle cx="444" cy="572" r="9.97094805269345" fill="#171e19" opacity="0.5"/><circle cx="508" cy="572" r="2.306294754125446" fill="#171e19" opacity="0.5"/><circle cx="572" cy="572" r="7.122354308767804" fill="#171e19" opacity="0.5"/><circle cx="636" cy="572" r="10.086250927464633" fill="#171e19" opacity="0.5"/><circle cx="700" cy="572" r="2.3772543834205027" fill="#171e19" opacity="0.5"/><circle cx="764" cy="572" r="6.937790672657324" fill="#171e19" opacity="0.5"/><circle cx="60" cy="636" r="4.62193859391582" fill="#171e19" opacity="0.5"/><circle cx="124" cy="636" r="7.663084032649919" fill="#171e19" opacity="0.5"/><circle cx="188" cy="636" r="6.085069594305005" fill="#171e19" opacity="0.5"/><circle cx="252" cy="636" r="6.154941145246414" fill="#171e19" opacity="0.5"/><circle cx="316" cy="636" r="7.5952055245350305" fill="#171e19" opacity="0.5"/><circle cx="380" cy="636" r="4.685887866693063" fill="#171e19" opacity="0.5"/><circle cx="444" cy="636" r="8.981272314168233" fill="#171e19" opacity="0.5"/><circle cx="508" cy="636" r="3.4223442648930473" fill="#171e19" opacity="0.5"/><circle cx="572" cy="636" r="10.086250927464633" fill="#171e19" opacity="0.5"/><circle cx="636" cy="636" r="2.507449472429265" fill="#171e19" opacity="0.5"/><circle cx="700" cy="636" r="10.784965090329232" fill="#171e19" opacity="0.5"/><circle cx="764" cy="636" r="2.0448463290195678" fill="#171e19" opacity="0.5"/><circle cx="60" cy="700" r="2.0176339113731707" fill="#171e19" opacity="0.5"/><circle cx="124" cy="700" r="9.598381806123964" fill="#171e19" opacity="0.5"/><circle cx="188" cy="700" r="6.33498003624759" fill="#171e19" opacity="0.5"/><circle cx="252" cy="700" r="3.6491381981541657" fill="#171e19" opacity="0.5"/><circle cx="316" cy="700" r="10.941140921141287" fill="#171e19" opacity="0.5"/><circle cx="380" cy="700" r="2.6894179692076903" fill="#171e19" opacity="0.5"/><circle cx="444" cy="700" r="7.774502562934417" fill="#171e19" opacity="0.5"/><circle cx="508" cy="700" r="8.398904966656456" fill="#171e19" opacity="0.5"/><circle cx="572" cy="700" r="2.3772543834205027" fill="#171e19" opacity="0.5"/><circle cx="636" cy="700" r="10.784965090329232" fill="#171e19" opacity="0.5"/><circle cx="700" cy="700" r="4.195556121608881" fill="#171e19" opacity="0.5"/><circle cx="764" cy="700" r="5.671561899907402" fill="#171e19" opacity="0.5"/><circle cx="60" cy="764" r="5.371824752478114" fill="#171e19" opacity="0.5"/><circle cx="124" cy="764" r="2.0984418411002954" fill="#171e19" opacity="0.5"/><circle cx="188" cy="764" r="7.242227309815281" fill="#171e19" opacity="0.5"/><circle cx="252" cy="764" r="10.966639907042353" fill="#171e19" opacity="0.5"/><circle cx="316" cy="764" r="6.149427281210721" fill="#171e19" opacity="0.5"/><circle cx="380" cy="764" r="2.002620338318862" fill="#171e19" opacity="0.5"/><circle cx="444" cy="764" r="6.456222731160497" fill="#171e19" opacity="0.5"/><circle cx="508" cy="764" r="10.993541078611896" fill="#171e19" opacity="0.5"/><circle cx="572" cy="764" r="6.937790672657324" fill="#171e19" opacity="0.5"/><circle cx="636" cy="764" r="2.0448463290195678" fill="#171e19" opacity="0.5"/><circle cx="700" cy="764" r="5.671561899907402" fill="#171e19" opacity="0.5"/><circle cx="764" cy="764" r="10.882512582369156" fill="#171e19" opacity="0.5"/><circle cx="60" cy="828" r="10.22572066660366" fill="#171e19" opacity="0.5"/><circle cx="124" cy="828" r="8.002191365525379" fill="#171e19" opacity="0.5"/><circle cx="188" cy="828" r="5.192902923292081" fill="#171e19" opacity="0.5"/><circle cx="252" cy="828" r="2.8932992513416207" fill="#171e19" opacity="0.5"/><circle cx="316" cy="828" r="2.0000796003766625" fill="#171e19" opacity="0.5"/><circle cx="380" cy="828" r="2.8615428540278094" fill="#171e19" opacity="0.5"/><circle cx="444" cy="828" r="5.141773104924084" fill="#171e19" opacity="0.5"/><circle cx="508" cy="828" r="7.951625505043047" fill="#171e19" opacity="0.5"/><circle cx="572" cy="828" r="10.195436235221145" fill="#171e19" opacity="0.5"/><circle cx="636" cy="828" r="10.998261745397528" fill="#171e19" opacity="0.5"/><circle cx="700" cy="828" r="10.047051120668431" fill="#171e19" opacity="0.5"/><circle cx="764" cy="828" r="7.712716038058422" fill="#171e19" opacity="0.5"/><circle cx="60" cy="892" r="10.126944381408668" fill="#171e19" opacity="0.5"/><circle cx="124" cy="892" r="9.331445702031264" fill="#171e19" opacity="0.5"/><circle cx="188" cy="892" r="8.350239788487109" fill="#171e19" opacity="0.5"/><circle cx="252" cy="892" r="7.247681410575119" fill="#171e19" opacity="0.5"/><circle cx="316" cy="892" r="6.096084533815636" fill="#171e19" opacity="0.5"/><circle cx="380" cy="892" r="4.970979432621004" fill="#171e19" opacity="0.5"/><circle cx="444" cy="892" r="3.9461588540461476" fill="#171e19" opacity="0.5"/><circle cx="508" cy="892" r="3.088838141485355" fill="#171e19" opacity="0.5"/><circle cx="572" cy="892" r="2.455246753341911" fill="#171e19" opacity="0.5"/><circle cx="636" cy="892" r="2.0869403176116412" fill="#171e19" opacity="0.5"/><circle cx="700" cy="892" r="2.008075105225757" fill="#171e19" opacity="0.5"/><circle cx="764" cy="892" r="2.2238236824297104" fill="#171e19" opacity="0.5"/><circle cx="60" cy="956" r="5.2068011141689565" fill="#171e19" opacity="0.5"/><circle cx="124" cy="956" r="2.0383400409701893" fill="#171e19" opacity="0.5"/><circle cx="188" cy="956" r="4.137372875576787" fill="#171e19" opacity="0.5"/><circle cx="252" cy="956" r="9.025754091412594" fill="#171e19" opacity="0.5"/><circle cx="316" cy="956" r="10.932197102342405" fill="#171e19" opacity="0.5"/><circle cx="380" cy="956" r="7.605930438136431" fill="#171e19" opacity="0.5"/><circle cx="444" cy="956" r="2.9739878822592054" fill="#171e19" opacity="0.5"/><circle cx="508" cy="956" r="2.5049011960808194" fill="#171e19" opacity="0.5"/><circle cx="572" cy="956" r="6.75248023610467" fill="#171e19" opacity="0.5"/><circle cx="636" cy="956" r="10.70197781816555" fill="#171e19" opacity="0.5"/><circle cx="700" cy="956" r="9.69056561302397" fill="#171e19" opacity="0.5"/><circle cx="764" cy="956" r="4.912330054380662" fill="#171e19" opacity="0.5"/></svg>