<svg xmlns="http://www.w3.org/2000/svg" width="800" height="1000" viewBox="0 0 800 1000"><rect width="800" height="1000" fill="#171e19"/><defs><filter id="g67"><feGaussianBlur stdDeviation="2"/></filter>
   <radialGradient id="rg67" cx="50%" cy="35%" r="75%"><stop offset="0%" stop-color="#b7c6c2" stop-opacity=".55"/><stop offset="100%" stop-color="#171e19" stop-opacity="0"/></radialGradient></defs><rect width="800" height="1000" fill="url(#rg67)"/><circle cx="120.29364537461367" cy="813.0318055921383" r="13.762244915478975" fill="#bbe2f5" opacity="0.2113205909967984"/><circle cx="509.42674770458916" cy="670.2654839820533" r="3.3437643001525497" fill="#bbe2f5" opacity="0.16710848543192655"/><circle cx="407.20114698968877" cy="624.4240280354508" r="15.282062220052845" fill="#bbe2f5" opacity="0.22416144713953207"/><circle cx="497.81978613595464" cy="316.3314053399169" r="12.802450055630155" fill="#bbe2f5" opacity="0.16818433162206053"/><circle cx="661.5248905781307" cy="515.778476146878" r="15.15466921271508" fill="#bbe2f5" opacity="0.16611738447384788"/><circle cx="664.0737616569147" cy="13.771728153234221" r="10.151571570966194" fill="#bbe2f5" opacity="0.14106412641753635"/><circle cx="508.18173188165844" cy="304.22809827338347" r="3.5562489766423817" fill="#bbe2f5" opacity="0.2262626853241877"/><circle cx="608.2958690488226" cy="979.7698277885886" r="21.812904141756196" fill="#bbe2f5" opacity="0.09210835860674658"/><circle cx="447.2363222796639" cy="180.12241841299573" r="6.984697878819285" fill="#bbe2f5" opacity="0.25850476712850146"/><circle cx="336.5990671406496" cy="679.5025587452121" r="8.789106277185075" fill="#bbe2f5" opacity="0.1659843689510526"/><circle cx="428.8989877276583" cy="830.8691763462821" r="9.201430743188332" fill="#bbe2f5" opacity="0.16547136990608247"/><circle cx="484.9769247532715" cy="869.9541575601111" r="7.029574481318506" fill="#bbe2f5" opacity="0.12956797061933575"/><circle cx="272.0779529922074" cy="239.56417862305614" r="7.813302589493479" fill="#bbe2f5" opacity="0.08144508595645665"/><circle cx="641.296751630165" cy="418.758300328049" r="1.5565794974363312" fill="#bbe2f5" opacity="0.10807683701071741"/><circle cx="454.1322106188779" cy="142.97119907241836" r="20.17274182297883" fill="#bbe2f5" opacity="0.090405790223929"/><circle cx="462.584024454739" cy="803.0339478529216" r="13.014354409190991" fill="#bbe2f5" opacity="0.14753727041535886"/><circle cx="178.81204291191514" cy="96.43789385279543" r="18.297003646519503" fill="#bbe2f5" opacity="0.0942387122540915"/><circle cx="400.11465849360206" cy="941.188039230736" r="12.04225772155554" fill="#bbe2f5" opacity="0.21275430514139793"/><circle cx="436.10914680925623" cy="225.76861280285223" r="10.847658305823643" fill="#bbe2f5" opacity="0.10121664891076118"/><circle cx="145.56786761878425" cy="355.62690876220677" r="0.4720224609933898" fill="#bbe2f5" opacity="0.18866683385738492"/><circle cx="379.7051055448619" cy="399.48016516840096" r="1.3889916769177613" fill="#bbe2f5" opacity="0.10277093237394977"/><circle cx="216.63238347351196" cy="179.4089987778147" r="7.194934092087175" fill="#bbe2f5" opacity="0.18846870125665735"/><circle cx="659.659619768923" cy="534.3383148006807" r="13.729250810914323" fill="#bbe2f5" opacity="0.17424128303036152"/><circle cx="410.09210622408057" cy="389.3380502189221" r="13.301420647325655" fill="#bbe2f5" opacity="0.20253761492787747"/><circle cx="461.27051104850625" cy="381.2128432938889" r="0.9736592885915466" fill="#bbe2f5" opacity="0.22965906383919488"/><circle cx="679.6451633049385" cy="350.46368946808565" r="5.351035582530795" fill="#bbe2f5" opacity="0.2506321094141491"/><circle cx="287.57354010249185" cy="300.8723260373214" r="16.746041603733804" fill="#bbe2f5" opacity="0.11862827780592641"/><circle cx="572.5580397493011" cy="398.167975897979" r="0.20176018131978818" fill="#bbe2f5" opacity="0.10440936997738172"/><circle cx="207.98598621412464" cy="679.411251414293" r="19.027855440521545" fill="#bbe2f5" opacity="0.15499772691866276"/><circle cx="514.4774461139353" cy="254.35149448660738" r="19.482492401023624" fill="#bbe2f5" opacity="0.21295277821503245"/><circle cx="173.95743126699583" cy="397.40590071184835" r="4.421411808776395" fill="#bbe2f5" opacity="0.21637675540353019"/><circle cx="568.3984310777851" cy="557.9127220240947" r="18.460619297093068" fill="#bbe2f5" opacity="0.09332430562624909"/><circle cx="187.2144989237257" cy="275.1489483169974" r="9.424236003041377" fill="#bbe2f5" opacity="0.2038277527707758"/><circle cx="160.57143511277226" cy="650.1963220770454" r="18.69087327583268" fill="#bbe2f5" opacity="0.25596756570784723"/><circle cx="390.2835388995165" cy="884.7112217381183" r="7.5130825561997865" fill="#bbe2f5" opacity="0.19764245313482473"/><circle cx="420.8750484422199" cy="12.39137212391541" r="5.759408306218408" fill="#bbe2f5" opacity="0.24670783955916198"/><circle cx="613.6072425980155" cy="387.36847293906305" r="11.042343110331494" fill="#bbe2f5" opacity="0.23267808915706262"/><circle cx="619.7827730047436" cy="730.4748048682113" r="1.980999240642879" fill="#bbe2f5" opacity="0.1508073976034333"/><circle cx="368.6758428107369" cy="383.73235724108866" r="8.574019321507784" fill="#bbe2f5" opacity="0.10898602657438536"/><circle cx="394.24019993945967" cy="634.0006830329079" r="14.288554149814207" fill="#bbe2f5" opacity="0.22506033031505546"/><circle cx="459.0227715387115" cy="920.9308055792613" r="1.849086154182016" fill="#bbe2f5" opacity="0.19119903639480426"/><circle cx="624.6368054787799" cy="412.1244318839742" r="12.657186826997059" fill="#bbe2f5" opacity="0.17277364732361103"/><circle cx="389.70398911726846" cy="490.9733820198911" r="17.37189538281965" fill="#bbe2f5" opacity="0.14091935586227075"/><circle cx="218.35459568461152" cy="867.3029844031217" r="16.74769499187716" fill="#bbe2f5" opacity="0.16598868755902568"/><circle cx="654.7122808055543" cy="52.32767670058072" r="10.367770746521545" fill="#bbe2f5" opacity="0.17100584644405442"/><circle cx="354.14590958233265" cy="304.11133975913344" r="4.384321298629195" fill="#bbe2f5" opacity="0.15599326777085348"/><circle cx="489.7599880629033" cy="421.641737884675" r="11.719149810131244" fill="#bbe2f5" opacity="0.24159793625660142"/><circle cx="544.712290179316" cy="677.6090067241382" r="12.64067227702619" fill="#bbe2f5" opacity="0.24182785437527476"/><circle cx="246.77306520136682" cy="776.6193560215735" r="14.113366400875787" fill="#bbe2f5" opacity="0.25467445061294103"/><circle cx="535.3067386221637" cy="393.4928976900377" r="9.572892482193602" fill="#bbe2f5" opacity="0.12585048550080996"/><circle cx="210.5638599072415" cy="47.84546608470635" r="3.0524666845111486" fill="#bbe2f5" opacity="0.2502437265544402"/><circle cx="139.63795703818926" cy="384.1856086553007" r="0.1655427320699872" fill="#bbe2f5" opacity="0.1640820737295235"/><circle cx="640.8409798708004" cy="739.9083723965606" r="14.080327117853018" fill="#bbe2f5" opacity="0.21138257072837213"/><circle cx="390.2504987783034" cy="893.0945838303745" r="5.294749616316869" fill="#bbe2f5" opacity="0.2506465572168336"/><circle cx="483.02666811413445" cy="337.87677545932905" r="15.289233188745209" fill="#bbe2f5" opacity="0.1302543901513584"/><circle cx="323.88751873927544" cy="174.15616250324817" r="0.9377102260187782" fill="#bbe2f5" opacity="0.14623810752585442"/><circle cx="567.6054707763742" cy="759.1916759308389" r="16.158942131399616" fill="#bbe2f5" opacity="0.20551238354552182"/><circle cx="327.2941098209909" cy="414.4710024886164" r="0.31105417586446465" fill="#bbe2f5" opacity="0.19362527616956515"/><circle cx="368.9404769655971" cy="326.06492998360886" r="3.8121211593095774" fill="#bbe2f5" opacity="0.13171174604059743"/><circle cx="366.75996899919585" cy="883.5695883648328" r="3.3895762504029907" fill="#bbe2f5" opacity="0.16679305882509476"/><rect x="398" y="0" width="4" height="1000" fill="#b7c6c2" opacity="0.6"/></svg>