<svg xmlns="http://www.w3.org/2000/svg" width="800" height="1000" viewBox="0 0 800 1000"><rect width="800" height="1000" fill="#9f8d8b"/><defs><filter id="g59"><feGaussianBlur stdDeviation="2"/></filter>
   <radialGradient id="rg59" cx="50%" cy="35%" r="75%"><stop offset="0%" stop-color="#d7c5b2" stop-opacity=".55"/><stop offset="100%" stop-color="#9f8d8b" stop-opacity="0"/></radialGradient></defs><rect width="800" height="1000" fill="url(#rg59)"/><polygon points="0.36940462904488885,760.7295004468083 133.28364615015855,800.6037729031424 -26.213443675177846,893.643741967922" fill="#fff" opacity="0.06207155669670159"/><polygon points="346.61360585438723,918.5919933573306 510.71478291913627,967.8223464767553 313.79337044143745,1082.6931704220797" fill="#fff" opacity="0.060603659046163626"/><polygon points="62.79035548809466,146.88086050882976 203.04996699236798,188.95874396011175 34.73843318723999,287.1404720131031" fill="#fff" opacity="0.17911319040186385"/><polygon points="21.56433650365301,39.75452112022533 86.24217132397098,59.15787156632072 8.628769539589415,104.43235594054329" fill="#fff" opacity="0.10046228135491828"/><polygon points="478.250928445836,454.1929864576985 617.6946715720438,496.02610939556087 450.3621798205944,593.6367295839063" fill="#fff" opacity="0.23873840271902197"/><polygon points="505.33799440848543,519.590029269266 665.2775029769527,567.5718818398062 473.35009269479195,679.5295378377333" fill="#fff" opacity="0.22915063778830258"/><polygon points="739.0772320046449,88.79787758402428 847.2258007560044,121.24244820943215 717.447518254373,196.94644633538388" fill="#fff" opacity="0.16624375512648548"/><polygon points="435.16964336632265,370.24507223174214 588.5982831886961,416.27366417845417 404.483915401848,523.6737120541156" fill="#fff" opacity="0.24393686828852484"/><polygon points="387.78130094883096,800.4063087517425 496.3942914346207,832.9902058974794 366.058702851673,909.0192992375322" fill="#fff" opacity="0.12316386833468633"/><polygon points="260.54040429207515,628.2186711338436 375.93332373347755,662.8365469662643 237.46182040379466,743.6115905752459" fill="#fff" opacity="0.16099631456238978"/><polygon points="460.2354003396981,970.4668866332931 602.149583661067,1013.0411416297038 431.85256367542434,1112.381069954662" fill="#fff" opacity="0.1395988528102631"/><polygon points="351.67672836765496,288.4670939708441 434.3084672439417,313.2566156337301 335.1503805923976,371.09883284713084" fill="#fff" opacity="0.08954411718973151"/><polygon points="71.91043126951458,748.272933414333 147.6211344206804,770.9861443596827 56.76829063928141,823.9836365654988" fill="#fff" opacity="0.08723482705523951"/><polygon points="22.953269641358997,219.5035779008193 94.41467429251162,240.94199929616508 8.660988711128471,290.9649825519719" fill="#fff" opacity="0.214784964902692"/><polygon points="563.6204781772665,961.720906645861 706.5449576948513,1004.5982505011365 535.0355822737495,1104.645386163446" fill="#fff" opacity="0.16465906506155575"/><polygon points="299.6259582692878,766.850789900334 413.4220950554228,800.9896309361745 276.8667309120608,880.646926686469" fill="#fff" opacity="0.2145887057132035"/><polygon points="169.50768724526637,144.62441398977506 321.9118354292176,190.34565844496043 139.02685760847612,297.0285621737263" fill="#fff" opacity="0.12064815958526366"/><polygon points="734.4725981049578,351.19543753154363 861.147572929574,389.19792997892847 709.1376031400346,477.8704123561598" fill="#fff" opacity="0.18287734665576244"/><polygon points="278.26097359799826,915.2290769457952 359.07637007491496,939.4736958888702 262.0978943026149,996.0444734227119" fill="#fff" opacity="0.1304607344234645"/><polygon points="414.2538206718181,954.9550390592567 602.9484557001612,1011.5634295677596 376.51489366614953,1143.6496740875998" fill="#fff" opacity="0.13841365170125552"/><polygon points="672.9765720073956,396.557160372174 862.7676720278187,453.49449037830095 635.018352003311,586.3482603925971" fill="#fff" opacity="0.1737725540640636"/><polygon points="181.26461886859715,143.06165564016516 291.2240339495354,176.0494801644466 159.2727358524095,253.02107072110337" fill="#fff" opacity="0.2098615816607427"/></svg>