<svg xmlns="http://www.w3.org/2000/svg" width="900" height="1300" viewBox="0 0 900 1300">
<defs>
      <linearGradient id="g11" x1="0" y1="0" x2="1" y2="1">
        <stop offset="0" stop-color="#d9d9d6"/><stop offset="0.5" stop-color="#9a9a98"/><stop offset="1" stop-color="#4a4a48"/>
      </linearGradient>
      <filter id="n11"><feTurbulence type="fractalNoise" baseFrequency="0.9" numOctaves="3" seed="11"/>
        <feColorMatrix type="saturate" values="0"/><feComponentTransfer><feFuncA type="linear" slope="0.08"/></feComponentTransfer>
        <feComposite operator="over" in2="SourceGraphic"/></filter>
    </defs>
<rect width="900" height="1300" fill="url(#g11)"/>
<rect x="0" y="0" width="19" height="1300" fill="rgb(79,79,79)" opacity="0.09"/>
<rect x="50" y="0" width="20" height="1300" fill="rgb(44,44,44)" opacity="0.09"/>
<rect x="100" y="0" width="18" height="1300" fill="rgb(80,80,80)" opacity="0.06"/>
<rect x="150" y="0" width="7" height="1300" fill="rgb(32,32,32)" opacity="0.12"/>
<rect x="200" y="0" width="6" height="1300" fill="rgb(31,31,31)" opacity="0.09"/>
<rect x="250" y="0" width="24" height="1300" fill="rgb(25,25,25)" opacity="0.1"/>
<rect x="300" y="0" width="14" height="1300" fill="rgb(77,77,77)" opacity="0.11"/>
<rect x="350" y="0" width="21" height="1300" fill="rgb(40,40,40)" opacity="0.12"/>
<rect x="400" y="0" width="18" height="1300" fill="rgb(28,28,28)" opacity="0.11"/>
<rect x="450" y="0" width="8" height="1300" fill="rgb(50,50,50)" opacity="0.05"/>
<rect x="500" y="0" width="16" height="1300" fill="rgb(61,61,61)" opacity="0.11"/>
<rect x="550" y="0" width="8" height="1300" fill="rgb(86,86,86)" opacity="0.09"/>
<rect x="600" y="0" width="11" height="1300" fill="rgb(83,83,83)" opacity="0.07"/>
<rect x="650" y="0" width="4" height="1300" fill="rgb(78,78,78)" opacity="0.04"/>
<rect x="700" y="0" width="15" height="1300" fill="rgb(90,90,90)" opacity="0.12"/>
<rect x="750" y="0" width="4" height="1300" fill="rgb(52,52,52)" opacity="0.16"/>
<rect x="800" y="0" width="9" height="1300" fill="rgb(85,85,85)" opacity="0.08"/>
<rect x="850" y="0" width="4" height="1300" fill="rgb(33,33,33)" opacity="0.07"/>
<rect x="0" y="520" width="900" height="4" fill="#1c1c1c" opacity="0.18"/>
<rect x="0" y="86" width="900" height="1" fill="#1c1c1c" opacity="0.05"/>
<rect x="0" y="277" width="900" height="1" fill="#1c1c1c" opacity="0.19"/>
<rect x="0" y="610" width="900" height="4" fill="#1c1c1c" opacity="0.2"/>
<rect x="0" y="545" width="900" height="2" fill="#1c1c1c" opacity="0.13"/>
<rect x="0" y="1012" width="900" height="1" fill="#1c1c1c" opacity="0.09"/>
<rect x="0" y="404" width="900" height="4" fill="#1c1c1c" opacity="0.05"/>
<rect x="0" y="985" width="900" height="2" fill="#1c1c1c" opacity="0.07"/>
<rect x="723" y="206" width="21" height="27" fill="rgb(89,89,89)" opacity="0.19"/>
<rect x="181" y="1145" width="44" height="77" fill="rgb(95,95,95)" opacity="0.09"/>
<rect x="749" y="268" width="73" height="102" fill="rgb(79,79,79)" opacity="0.08"/>
<rect x="430" y="435" width="20" height="54" fill="rgb(105,105,105)" opacity="0.11"/>
<rect x="20" y="431" width="43" height="70" fill="rgb(107,107,107)" opacity="0.16"/>
<rect x="102" y="86" width="38" height="47" fill="rgb(86,86,86)" opacity="0.1"/>
<rect x="791" y="1249" width="62" height="126" fill="rgb(67,67,67)" opacity="0.12"/>
<rect x="76" y="184" width="46" height="94" fill="rgb(111,111,111)" opacity="0.1"/>
<rect x="615" y="755" width="67" height="99" fill="rgb(88,88,88)" opacity="0.08"/>
<rect x="601" y="990" width="93" height="37" fill="rgb(79,79,79)" opacity="0.09"/>
<rect x="157" y="636" width="49" height="124" fill="rgb(108,108,108)" opacity="0.1"/>
<rect x="194" y="324" width="114" height="100" fill="rgb(100,100,100)" opacity="0.09"/>
<rect x="397" y="988" width="97" height="30" fill="rgb(83,83,83)" opacity="0.07"/>
<rect x="111" y="79" width="85" height="52" fill="rgb(60,60,60)" opacity="0.18"/>
<rect width="900" height="1300" fill="url(#vg)" opacity="0.35"/>
<defs><radialGradient id="vg" cx="0.5" cy="0.4" r="0.8"><stop offset="0.5" stop-color="#000" stop-opacity="0"/><stop offset="1" stop-color="#000" stop-opacity="0.5"/></radialGradient></defs>
<rect width="900" height="1300" filter="url(#n11)" opacity="0.5"/>
</svg>