<svg xmlns="http://www.w3.org/2000/svg" width="840" height="520" viewBox="0 0 840 520">
<defs>
      <linearGradient id="g41" x1="0" y1="0" x2="1" y2="1">
        <stop offset="0" stop-color="#d9d9d6"/><stop offset="0.5" stop-color="#9a9a98"/><stop offset="1" stop-color="#4a4a48"/>
      </linearGradient>
      <filter id="n41"><feTurbulence type="fractalNoise" baseFrequency="0.9" numOctaves="3" seed="41"/>
        <feColorMatrix type="saturate" values="0"/><feComponentTransfer><feFuncA type="linear" slope="0.08"/></feComponentTransfer>
        <feComposite operator="over" in2="SourceGraphic"/></filter>
    </defs>
<rect width="840" height="520" fill="url(#g41)"/>
<rect x="0" y="0" width="16" height="520" fill="rgb(41,41,41)" opacity="0.09"/>
<rect x="84" y="0" width="26" height="520" fill="rgb(56,56,56)" opacity="0.15"/>
<rect x="168" y="0" width="26" height="520" fill="rgb(21,21,21)" opacity="0.11"/>
<rect x="252" y="0" width="3" height="520" fill="rgb(76,76,76)" opacity="0.13"/>
<rect x="336" y="0" width="11" height="520" fill="rgb(60,60,60)" opacity="0.15"/>
<rect x="420" y="0" width="41" height="520" fill="rgb(27,27,27)" opacity="0.06"/>
<rect x="504" y="0" width="39" height="520" fill="rgb(24,24,24)" opacity="0.05"/>
<rect x="588" y="0" width="20" height="520" fill="rgb(47,47,47)" opacity="0.09"/>
<rect x="672" y="0" width="25" height="520" fill="rgb(80,80,80)" opacity="0.05"/>
<rect x="756" y="0" width="3" height="520" fill="rgb(35,35,35)" opacity="0.06"/>
<rect x="0" y="51" width="840" height="2" fill="#1c1c1c" opacity="0.07"/>
<rect x="0" y="27" width="840" height="1" fill="#1c1c1c" opacity="0.1"/>
<rect x="0" y="316" width="840" height="1" fill="#1c1c1c" opacity="0.08"/>
<rect x="0" y="156" width="840" height="1" fill="#1c1c1c" opacity="0.07"/>
<rect x="0" y="211" width="840" height="4" fill="#1c1c1c" opacity="0.15"/>
<rect x="0" y="446" width="840" height="1" fill="#1c1c1c" opacity="0.08"/>
<rect x="0" y="70" width="840" height="4" fill="#1c1c1c" opacity="0.12"/>
<rect x="0" y="221" width="840" height="1" fill="#1c1c1c" opacity="0.16"/>
<rect x="14" y="335" width="79" height="61" fill="rgb(52,52,52)" opacity="0.08"/>
<rect x="67" y="366" width="25" height="112" fill="rgb(117,117,117)" opacity="0.2"/>
<rect x="769" y="429" width="33" height="104" fill="rgb(120,120,120)" opacity="0.08"/>
<rect x="423" y="335" width="110" height="115" fill="rgb(40,40,40)" opacity="0.16"/>
<rect x="428" y="307" width="32" height="140" fill="rgb(60,60,60)" opacity="0.1"/>
<rect x="371" y="375" width="78" height="107" fill="rgb(82,82,82)" opacity="0.19"/>
<rect x="84" y="342" width="55" height="89" fill="rgb(57,57,57)" opacity="0.21"/>
<rect x="254" y="141" width="68" height="134" fill="rgb(120,120,120)" opacity="0.11"/>
<rect x="637" y="194" width="120" height="133" fill="rgb(67,67,67)" opacity="0.18"/>
<rect x="749" y="41" width="47" height="90" fill="rgb(51,51,51)" opacity="0.09"/>
<rect x="230" y="92" width="80" height="105" fill="rgb(60,60,60)" opacity="0.07"/>
<rect x="242" y="280" width="92" height="99" fill="rgb(49,49,49)" opacity="0.14"/>
<rect x="124" y="116" width="69" height="106" fill="rgb(45,45,45)" opacity="0.19"/>
<rect x="457" y="306" width="114" height="111" fill="rgb(54,54,54)" opacity="0.15"/>
<rect width="840" height="520" fill="url(#vg)" opacity="0.35"/>
<defs><radialGradient id="vg" cx="0.5" cy="0.4" r="0.8"><stop offset="0.5" stop-color="#000" stop-opacity="0"/><stop offset="1" stop-color="#000" stop-opacity="0.5"/></radialGradient></defs>
<rect width="840" height="520" filter="url(#n41)" opacity="0.5"/>
</svg>