<svg xmlns="http://www.w3.org/2000/svg" width="840" height="520" viewBox="0 0 840 520">
<defs>
      <linearGradient id="g31" x1="0" y1="0" x2="1" y2="1">
        <stop offset="0" stop-color="#d9d9d6"/><stop offset="0.5" stop-color="#9a9a98"/><stop offset="1" stop-color="#4a4a48"/>
      </linearGradient>
      <filter id="n31"><feTurbulence type="fractalNoise" baseFrequency="0.9" numOctaves="3" seed="31"/>
        <feColorMatrix type="saturate" values="0"/><feComponentTransfer><feFuncA type="linear" slope="0.08"/></feComponentTransfer>
        <feComposite operator="over" in2="SourceGraphic"/></filter>
    </defs>
<rect width="840" height="520" fill="url(#g31)"/>
<rect x="0" y="0" width="5" height="520" fill="rgb(70,70,70)" opacity="0.04"/>
<rect x="38" y="0" width="3" height="520" fill="rgb(37,37,37)" opacity="0.06"/>
<rect x="76" y="0" width="19" height="520" fill="rgb(49,49,49)" opacity="0.15"/>
<rect x="114" y="0" width="6" height="520" fill="rgb(38,38,38)" opacity="0.13"/>
<rect x="152" y="0" width="3" height="520" fill="rgb(27,27,27)" opacity="0.16"/>
<rect x="190" y="0" width="19" height="520" fill="rgb(77,77,77)" opacity="0.06"/>
<rect x="229" y="0" width="8" height="520" fill="rgb(31,31,31)" opacity="0.1"/>
<rect x="267" y="0" width="14" height="520" fill="rgb(63,63,63)" opacity="0.05"/>
<rect x="305" y="0" width="12" height="520" fill="rgb(70,70,70)" opacity="0.06"/>
<rect x="343" y="0" width="9" height="520" fill="rgb(46,46,46)" opacity="0.08"/>
<rect x="381" y="0" width="15" height="520" fill="rgb(90,90,90)" opacity="0.13"/>
<rect x="420" y="0" width="3" height="520" fill="rgb(43,43,43)" opacity="0.05"/>
<rect x="458" y="0" width="8" height="520" fill="rgb(38,38,38)" opacity="0.08"/>
<rect x="496" y="0" width="14" height="520" fill="rgb(23,23,23)" opacity="0.14"/>
<rect x="534" y="0" width="18" height="520" fill="rgb(76,76,76)" opacity="0.05"/>
<rect x="572" y="0" width="8" height="520" fill="rgb(46,46,46)" opacity="0.12"/>
<rect x="610" y="0" width="13" height="520" fill="rgb(44,44,44)" opacity="0.14"/>
<rect x="649" y="0" width="9" height="520" fill="rgb(81,81,81)" opacity="0.08"/>
<rect x="687" y="0" width="12" height="520" fill="rgb(57,57,57)" opacity="0.04"/>
<rect x="725" y="0" width="14" height="520" fill="rgb(81,81,81)" opacity="0.08"/>
<rect x="763" y="0" width="12" height="520" fill="rgb(47,47,47)" opacity="0.12"/>
<rect x="801" y="0" width="5" height="520" fill="rgb(59,59,59)" opacity="0.16"/>
<rect x="0" y="466" width="840" height="3" fill="#1c1c1c" opacity="0.13"/>
<rect x="0" y="48" width="840" height="3" fill="#1c1c1c" opacity="0.08"/>
<rect x="0" y="361" width="840" height="4" fill="#1c1c1c" opacity="0.06"/>
<rect x="0" y="148" width="840" height="2" fill="#1c1c1c" opacity="0.1"/>
<rect x="0" y="59" width="840" height="3" fill="#1c1c1c" opacity="0.08"/>
<rect x="0" y="231" width="840" height="1" fill="#1c1c1c" opacity="0.17"/>
<rect x="0" y="139" width="840" height="1" fill="#1c1c1c" opacity="0.18"/>
<rect x="0" y="499" width="840" height="2" fill="#1c1c1c" opacity="0.08"/>
<rect x="730" y="437" width="39" height="80" fill="rgb(37,37,37)" opacity="0.14"/>
<rect x="524" y="142" width="67" height="98" fill="rgb(92,92,92)" opacity="0.16"/>
<rect x="38" y="437" width="34" height="82" fill="rgb(47,47,47)" opacity="0.19"/>
<rect x="620" y="354" width="83" height="126" fill="rgb(33,33,33)" opacity="0.1"/>
<rect x="783" y="400" width="80" height="64" fill="rgb(60,60,60)" opacity="0.06"/>
<rect x="384" y="298" width="56" height="77" fill="rgb(52,52,52)" opacity="0.22"/>
<rect x="135" y="63" width="92" height="130" fill="rgb(108,108,108)" opacity="0.07"/>
<rect x="628" y="454" width="46" height="120" fill="rgb(54,54,54)" opacity="0.21"/>
<rect x="305" y="352" width="43" height="90" fill="rgb(88,88,88)" opacity="0.15"/>
<rect x="525" y="268" width="110" height="130" fill="rgb(94,94,94)" opacity="0.12"/>
<rect x="536" y="99" width="111" height="98" fill="rgb(89,89,89)" opacity="0.11"/>
<rect x="478" y="166" width="37" height="67" fill="rgb(45,45,45)" opacity="0.14"/>
<rect x="355" y="381" width="44" height="140" fill="rgb(67,67,67)" opacity="0.17"/>
<rect x="593" y="395" width="41" height="25" fill="rgb(115,115,115)" opacity="0.08"/>
<rect width="840" height="520" fill="url(#vg)" opacity="0.35"/>
<defs><radialGradient id="vg" cx="0.5" cy="0.4" r="0.8"><stop offset="0.5" stop-color="#000" stop-opacity="0"/><stop offset="1" stop-color="#000" stop-opacity="0.5"/></radialGradient></defs>
<rect width="840" height="520" filter="url(#n31)" opacity="0.5"/>
</svg>