<svg xmlns="http://www.w3.org/2000/svg" width="840" height="520" viewBox="0 0 840 520">
<defs>
      <linearGradient id="g51" x1="0" y1="0" x2="1" y2="1">
        <stop offset="0" stop-color="#d9d9d6"/><stop offset="0.5" stop-color="#9a9a98"/><stop offset="1" stop-color="#4a4a48"/>
      </linearGradient>
      <filter id="n51"><feTurbulence type="fractalNoise" baseFrequency="0.9" numOctaves="3" seed="51"/>
        <feColorMatrix type="saturate" values="0"/><feComponentTransfer><feFuncA type="linear" slope="0.08"/></feComponentTransfer>
        <feComposite operator="over" in2="SourceGraphic"/></filter>
    </defs>
<rect width="840" height="520" fill="url(#g51)"/>
<rect x="0" y="0" width="10" height="520" fill="rgb(90,90,90)" opacity="0.07"/>
<rect x="30" y="0" width="15" height="520" fill="rgb(49,49,49)" opacity="0.06"/>
<rect x="60" y="0" width="6" height="520" fill="rgb(70,70,70)" opacity="0.14"/>
<rect x="90" y="0" width="9" height="520" fill="rgb(90,90,90)" opacity="0.11"/>
<rect x="120" y="0" width="7" height="520" fill="rgb(66,66,66)" opacity="0.1"/>
<rect x="150" y="0" width="6" height="520" fill="rgb(71,71,71)" opacity="0.09"/>
<rect x="180" y="0" width="2" height="520" fill="rgb(34,34,34)" opacity="0.12"/>
<rect x="210" y="0" width="6" height="520" fill="rgb(24,24,24)" opacity="0.04"/>
<rect x="240" y="0" width="15" height="520" fill="rgb(42,42,42)" opacity="0.1"/>
<rect x="270" y="0" width="6" height="520" fill="rgb(67,67,67)" opacity="0.08"/>
<rect x="300" y="0" width="14" height="520" fill="rgb(44,44,44)" opacity="0.09"/>
<rect x="330" y="0" width="2" height="520" fill="rgb(76,76,76)" opacity="0.13"/>
<rect x="360" y="0" width="4" height="520" fill="rgb(80,80,80)" opacity="0.15"/>
<rect x="390" y="0" width="2" height="520" fill="rgb(33,33,33)" opacity="0.04"/>
<rect x="420" y="0" width="15" height="520" fill="rgb(33,33,33)" opacity="0.14"/>
<rect x="450" y="0" width="9" height="520" fill="rgb(22,22,22)" opacity="0.06"/>
<rect x="480" y="0" width="8" height="520" fill="rgb(45,45,45)" opacity="0.12"/>
<rect x="510" y="0" width="7" height="520" fill="rgb(34,34,34)" opacity="0.16"/>
<rect x="540" y="0" width="10" height="520" fill="rgb(42,42,42)" opacity="0.1"/>
<rect x="570" y="0" width="9" height="520" fill="rgb(83,83,83)" opacity="0.11"/>
<rect x="600" y="0" width="14" height="520" fill="rgb(76,76,76)" opacity="0.05"/>
<rect x="630" y="0" width="8" height="520" fill="rgb(89,89,89)" opacity="0.12"/>
<rect x="660" y="0" width="9" height="520" fill="rgb(85,85,85)" opacity="0.13"/>
<rect x="690" y="0" width="10" height="520" fill="rgb(32,32,32)" opacity="0.12"/>
<rect x="720" y="0" width="15" height="520" fill="rgb(59,59,59)" opacity="0.1"/>
<rect x="750" y="0" width="15" height="520" fill="rgb(78,78,78)" opacity="0.15"/>
<rect x="780" y="0" width="2" height="520" fill="rgb(61,61,61)" opacity="0.14"/>
<rect x="810" y="0" width="3" height="520" fill="rgb(72,72,72)" opacity="0.09"/>
<rect x="0" y="291" width="840" height="2" fill="#1c1c1c" opacity="0.18"/>
<rect x="0" y="471" width="840" height="4" fill="#1c1c1c" opacity="0.12"/>
<rect x="0" y="110" width="840" height="1" fill="#1c1c1c" opacity="0.2"/>
<rect x="0" y="167" width="840" height="4" fill="#1c1c1c" opacity="0.1"/>
<rect x="0" y="510" width="840" height="3" fill="#1c1c1c" opacity="0.13"/>
<rect x="0" y="131" width="840" height="4" fill="#1c1c1c" opacity="0.17"/>
<rect x="0" y="460" width="840" height="3" fill="#1c1c1c" opacity="0.08"/>
<rect x="0" y="241" width="840" height="1" fill="#1c1c1c" opacity="0.19"/>
<rect x="685" y="338" width="40" height="106" fill="rgb(83,83,83)" opacity="0.18"/>
<rect x="570" y="259" width="84" height="116" fill="rgb(66,66,66)" opacity="0.15"/>
<rect x="607" y="342" width="76" height="113" fill="rgb(87,87,87)" opacity="0.14"/>
<rect x="17" y="327" width="119" height="108" fill="rgb(65,65,65)" opacity="0.08"/>
<rect x="702" y="397" width="71" height="71" fill="rgb(111,111,111)" opacity="0.12"/>
<rect x="327" y="205" width="93" height="103" fill="rgb(117,117,117)" opacity="0.11"/>
<rect x="468" y="209" width="85" height="115" fill="rgb(105,105,105)" opacity="0.11"/>
<rect x="620" y="63" width="20" height="140" fill="rgb(46,46,46)" opacity="0.12"/>
<rect x="220" y="413" width="72" height="53" fill="rgb(36,36,36)" opacity="0.12"/>
<rect x="574" y="168" width="26" height="87" fill="rgb(65,65,65)" opacity="0.07"/>
<rect x="331" y="386" width="20" height="57" fill="rgb(87,87,87)" opacity="0.07"/>
<rect x="495" y="372" width="88" height="132" fill="rgb(100,100,100)" opacity="0.08"/>
<rect x="280" y="40" width="114" height="82" fill="rgb(94,94,94)" opacity="0.15"/>
<rect x="1" y="123" width="105" height="118" fill="rgb(85,85,85)" opacity="0.09"/>
<rect width="840" height="520" fill="url(#vg)" opacity="0.35"/>
<defs><radialGradient id="vg" cx="0.5" cy="0.4" r="0.8"><stop offset="0.5" stop-color="#000" stop-opacity="0"/><stop offset="1" stop-color="#000" stop-opacity="0.5"/></radialGradient></defs>
<rect width="840" height="520" filter="url(#n51)" opacity="0.5"/>
</svg>