<svg xmlns="http://www.w3.org/2000/svg" width="840" height="520" viewBox="0 0 840 520">
<defs>
      <linearGradient id="g21" x1="0" y1="0" x2="1" y2="1">
        <stop offset="0" stop-color="#d9d9d6"/><stop offset="0.5" stop-color="#9a9a98"/><stop offset="1" stop-color="#4a4a48"/>
      </linearGradient>
      <filter id="n21"><feTurbulence type="fractalNoise" baseFrequency="0.9" numOctaves="3" seed="21"/>
        <feColorMatrix type="saturate" values="0"/><feComponentTransfer><feFuncA type="linear" slope="0.08"/></feComponentTransfer>
        <feComposite operator="over" in2="SourceGraphic"/></filter>
    </defs>
<rect width="840" height="520" fill="url(#g21)"/>
<rect x="0" y="0" width="24" height="520" fill="rgb(73,73,73)" opacity="0.06"/>
<rect x="60" y="0" width="17" height="520" fill="rgb(47,47,47)" opacity="0.12"/>
<rect x="120" y="0" width="17" height="520" fill="rgb(85,85,85)" opacity="0.16"/>
<rect x="180" y="0" width="18" height="520" fill="rgb(50,50,50)" opacity="0.06"/>
<rect x="240" y="0" width="2" height="520" fill="rgb(67,67,67)" opacity="0.13"/>
<rect x="300" y="0" width="15" height="520" fill="rgb(28,28,28)" opacity="0.15"/>
<rect x="360" y="0" width="26" height="520" fill="rgb(49,49,49)" opacity="0.06"/>
<rect x="420" y="0" width="24" height="520" fill="rgb(25,25,25)" opacity="0.15"/>
<rect x="480" y="0" width="25" height="520" fill="rgb(72,72,72)" opacity="0.09"/>
<rect x="540" y="0" width="3" height="520" fill="rgb(62,62,62)" opacity="0.11"/>
<rect x="600" y="0" width="24" height="520" fill="rgb(34,34,34)" opacity="0.1"/>
<rect x="660" y="0" width="13" height="520" fill="rgb(22,22,22)" opacity="0.12"/>
<rect x="720" y="0" width="28" height="520" fill="rgb(31,31,31)" opacity="0.06"/>
<rect x="780" y="0" width="2" height="520" fill="rgb(78,78,78)" opacity="0.05"/>
<rect x="0" y="83" width="840" height="4" fill="#1c1c1c" opacity="0.16"/>
<rect x="0" y="252" width="840" height="1" fill="#1c1c1c" opacity="0.08"/>
<rect x="0" y="244" width="840" height="1" fill="#1c1c1c" opacity="0.17"/>
<rect x="0" y="405" width="840" height="1" fill="#1c1c1c" opacity="0.08"/>
<rect x="0" y="63" width="840" height="4" fill="#1c1c1c" opacity="0.12"/>
<rect x="0" y="104" width="840" height="4" fill="#1c1c1c" opacity="0.19"/>
<rect x="0" y="151" width="840" height="4" fill="#1c1c1c" opacity="0.19"/>
<rect x="0" y="165" width="840" height="3" fill="#1c1c1c" opacity="0.12"/>
<rect x="27" y="427" width="31" height="40" fill="rgb(93,93,93)" opacity="0.06"/>
<rect x="71" y="281" width="96" height="115" fill="rgb(96,96,96)" opacity="0.1"/>
<rect x="623" y="163" width="91" height="99" fill="rgb(44,44,44)" opacity="0.09"/>
<rect x="174" y="320" width="64" height="126" fill="rgb(72,72,72)" opacity="0.12"/>
<rect x="611" y="476" width="59" height="51" fill="rgb(43,43,43)" opacity="0.09"/>
<rect x="178" y="397" width="74" height="67" fill="rgb(50,50,50)" opacity="0.17"/>
<rect x="692" y="266" width="104" height="50" fill="rgb(82,82,82)" opacity="0.21"/>
<rect x="167" y="379" width="95" height="21" fill="rgb(74,74,74)" opacity="0.14"/>
<rect x="384" y="341" width="51" height="139" fill="rgb(61,61,61)" opacity="0.09"/>
<rect x="70" y="224" width="72" height="119" fill="rgb(91,91,91)" opacity="0.07"/>
<rect x="294" y="26" width="53" height="104" fill="rgb(67,67,67)" opacity="0.07"/>
<rect x="254" y="87" width="70" height="28" fill="rgb(73,73,73)" opacity="0.16"/>
<rect x="149" y="77" width="115" height="113" fill="rgb(91,91,91)" opacity="0.07"/>
<rect x="142" y="332" width="87" height="136" fill="rgb(91,91,91)" opacity="0.06"/>
<rect width="840" height="520" fill="url(#vg)" opacity="0.35"/>
<defs><radialGradient id="vg" cx="0.5" cy="0.4" r="0.8"><stop offset="0.5" stop-color="#000" stop-opacity="0"/><stop offset="1" stop-color="#000" stop-opacity="0.5"/></radialGradient></defs>
<rect width="840" height="520" filter="url(#n21)" opacity="0.5"/>
</svg>