<svg width="123" height="29" viewBox="0 0 123 29" fill="none" xmlns="http://www.w3.org/2000/svg">
<g clip-path="url(#clip0_116_2284)">
<path d="M24.7294 10.6651V19.7648C24.7294 21.6138 23.7792 23.3317 22.2157 24.3147L14.8994 28.916C14.745 29.0143 14.5389 28.9019 14.5389 28.7194V25.499C14.5389 24.97 14.8011 24.4785 15.2411 24.1836L19.908 21.0708C20.5587 20.6354 20.9519 19.9052 20.9519 19.1235V12.851C20.9519 12.3502 21.2187 11.8868 21.654 11.634L24.0272 10.2671C24.3408 10.0893 24.7294 10.314 24.7294 10.6744V10.6651Z" fill="white"/>
<path d="M24.163 7.94118L13.8275 13.9094C13.1019 14.326 12.6573 15.0984 12.6573 15.9363V28.5093C12.6573 28.6918 12.4606 28.8042 12.3062 28.7106L2.72899 23.1403C1.03917 22.1573 0 20.355 0 18.3985V10.7872C0 8.49356 1.22173 6.37311 3.21112 5.22627L11.927 0.189578C12.3624 -0.0631927 12.896 -0.0631927 13.3314 0.189578L15.5126 1.44875C15.9807 1.72024 15.9807 2.3943 15.5126 2.6658L5.10691 8.67147C4.38136 9.08808 3.93667 9.86042 3.93667 10.6983V17.935C3.93667 18.773 4.38136 19.5453 5.10691 19.9619L8.5568 21.9513C8.63169 21.9934 8.72061 21.9419 8.72061 21.8577V14.6677C8.72061 13.2073 9.4976 11.8638 10.7615 11.1336L20.76 5.36202C21.228 5.09052 21.8085 5.11393 22.2532 5.41819L24.2052 6.75226C24.6311 7.04248 24.6077 7.67909 24.1583 7.94118H24.163Z" fill="white"/>
<path d="M35.9866 6.64148H39.3245V15.7075C39.3245 16.4516 39.4263 17.1149 39.6298 17.6976C39.8334 18.2732 40.1353 18.7611 40.5354 19.1612C40.9425 19.5613 41.4445 19.8667 42.0411 20.0773C42.6378 20.2809 43.3328 20.3827 44.126 20.3827C44.9122 20.3827 45.6036 20.2809 46.2004 20.0773C46.804 19.8667 47.306 19.5613 47.7061 19.1612C48.1132 18.7611 48.4186 18.2732 48.6222 17.6976C48.8257 17.1149 48.9275 16.4516 48.9275 15.7075V6.64148H52.2654V16.1076C52.2654 17.1887 52.0829 18.1714 51.7178 19.0559C51.3528 19.9404 50.8228 20.6986 50.1279 21.3303C49.433 21.9621 48.58 22.45 47.5692 22.794C46.5654 23.1379 45.4177 23.3099 44.126 23.3099C42.8343 23.3099 41.6831 23.1379 40.6723 22.794C39.6685 22.45 38.819 21.9621 38.1241 21.3303C37.4292 20.6986 36.8992 19.9404 36.5342 19.0559C36.1691 18.1714 35.9866 17.1887 35.9866 16.1076V6.64148Z" fill="white"/>
<path d="M54.5714 6.64148H57.9303V23.0993H54.5714V6.64148Z" fill="white"/>
<path d="M59.4993 16.9395C59.4993 15.9497 59.6853 15.0582 60.0574 14.2649C60.4294 13.4646 60.9419 12.7837 61.5947 12.2222C62.2545 11.6536 63.0337 11.2183 63.9323 10.9165C64.8378 10.6077 65.8171 10.4532 66.87 10.4532C67.3193 10.4532 67.7615 10.4813 68.1968 10.5374C68.639 10.5936 69.0602 10.6708 69.4603 10.7691C69.8675 10.8674 70.2465 10.9867 70.5976 11.1271C70.9556 11.2605 71.2715 11.4079 71.5452 11.5693V5.63062H74.6619V23.0993H71.5452V21.9305C71.2715 22.12 70.9485 22.299 70.5765 22.4675C70.2044 22.636 69.8043 22.7834 69.3761 22.9097C68.9479 23.0361 68.5022 23.1344 68.0389 23.2046C67.5825 23.2818 67.1297 23.3204 66.6805 23.3204C65.6276 23.3204 64.6588 23.166 63.7743 22.8571C62.8968 22.5482 62.1422 22.113 61.5105 21.5514C60.8787 20.9898 60.3838 20.3194 60.0257 19.5403C59.6748 18.7541 59.4993 17.8871 59.4993 16.9395ZM62.774 16.9395C62.774 17.4378 62.8723 17.9081 63.0689 18.3504C63.2724 18.7926 63.5602 19.1823 63.9323 19.5192C64.3113 19.8491 64.7641 20.1124 65.2906 20.3089C65.8241 20.4985 66.4208 20.5933 67.0806 20.5933C67.5018 20.5933 67.923 20.5546 68.3442 20.4774C68.7654 20.3932 69.169 20.2774 69.5551 20.1299C69.9482 19.9825 70.3132 19.8035 70.6502 19.5929C70.9941 19.3824 71.2925 19.1472 71.5452 18.8874V14.5808C71.2293 14.3281 70.8958 14.114 70.5449 13.9385C70.1939 13.763 69.8359 13.6191 69.4708 13.5068C69.1058 13.3945 68.7373 13.3137 68.3653 13.2646C67.9932 13.2084 67.6317 13.1804 67.2807 13.1804C66.5646 13.1804 65.9259 13.2787 65.3643 13.4752C64.8097 13.6647 64.3394 13.928 63.9533 14.2649C63.5742 14.6019 63.283 14.9985 63.0794 15.4547C62.8758 15.911 62.774 16.406 62.774 16.9395Z" fill="white"/>
<path d="M76.547 16.8447C76.547 16.0024 76.7184 15.1985 77.0628 14.4334C77.4064 13.6612 77.9017 12.9803 78.547 12.3907C79.1931 11.801 79.9832 11.3307 80.9165 10.9797C81.8575 10.6287 82.9241 10.4532 84.1173 10.4532C85.3036 10.4532 86.371 10.6322 87.3188 10.9902C88.2735 11.3412 89.0803 11.8256 89.7401 12.4433C90.4076 13.0611 90.9165 13.7876 91.267 14.6229C91.6251 15.4583 91.8041 16.3534 91.8041 17.308C91.8041 17.4273 91.8003 17.5572 91.7935 17.6976C91.7935 17.831 91.7866 17.9538 91.7729 18.0661H80.0213C80.1546 18.4382 80.3687 18.7787 80.6636 19.0875C80.966 19.3964 81.3409 19.6632 81.7904 19.8878C82.2399 20.1124 82.7596 20.2879 83.3485 20.4142C83.9382 20.5336 84.5912 20.5933 85.3074 20.5933C86.0236 20.5933 86.736 20.5195 87.4453 20.3721C88.1539 20.2177 88.8312 20.0247 89.4773 19.793L90.5302 22.1727C90.1226 22.3623 89.7089 22.5307 89.2876 22.6782C88.8731 22.8185 88.438 22.9379 87.9817 23.0361C87.5329 23.1274 87.059 23.1976 86.5607 23.2468C86.0693 23.2958 85.5497 23.3204 85.0019 23.3204C83.6053 23.3204 82.3801 23.152 81.3272 22.815C80.2742 22.4781 79.3935 22.0183 78.6841 21.4356C77.9756 20.853 77.4415 20.1686 77.0834 19.3824C76.726 18.5962 76.547 17.7502 76.547 16.8447ZM88.4982 15.6338C88.3855 15.2898 88.2102 14.9704 87.9718 14.6756C87.7394 14.3738 87.4483 14.114 87.0971 13.8964C86.7466 13.6718 86.339 13.4963 85.8758 13.3699C85.4125 13.2436 84.9036 13.1804 84.3489 13.1804C83.7592 13.1804 83.2228 13.2471 82.7382 13.3805C82.2537 13.5138 81.8293 13.6929 81.4643 13.9175C81.0994 14.1421 80.7939 14.4018 80.5478 14.6967C80.3093 14.9915 80.134 15.3038 80.0213 15.6338H88.4982Z" fill="white"/>
<path d="M93.0674 16.9184C93.0674 16.0059 93.2327 15.1565 93.5626 14.3703C93.8994 13.577 94.3878 12.8926 95.0262 12.3169C95.6723 11.7343 96.4586 11.278 97.3851 10.9481C98.3184 10.6182 99.3821 10.4532 100.575 10.4532C101.095 10.4532 101.617 10.4848 102.144 10.548C102.67 10.6112 103.176 10.7024 103.661 10.8218C104.152 10.9341 104.612 11.0709 105.04 11.2324C105.468 11.3869 105.84 11.5588 106.156 11.7483L104.714 14.0964C104.033 13.7806 103.387 13.5489 102.776 13.4015C102.172 13.2541 101.558 13.1804 100.933 13.1804C100.217 13.1804 99.5748 13.2752 99.0064 13.4647C98.438 13.6472 97.9535 13.907 97.5535 14.2439C97.1603 14.5739 96.8586 14.9669 96.6476 15.4232C96.4441 15.8724 96.3428 16.3639 96.3428 16.8974C96.3428 17.4308 96.451 17.9258 96.6689 18.382C96.8937 18.8313 97.206 19.2209 97.6061 19.5508C98.0129 19.8737 98.5013 20.13 99.0697 20.3195C99.6449 20.502 100.284 20.5933 100.986 20.5933C101.758 20.5933 102.485 20.4845 103.166 20.2668C103.854 20.0492 104.492 19.7579 105.082 19.3929L106.525 21.741C106.152 21.9656 105.749 22.1762 105.313 22.3728C104.878 22.5623 104.411 22.7273 103.913 22.8676C103.422 23.0081 102.902 23.1169 102.355 23.1941C101.814 23.2783 101.253 23.3204 100.67 23.3204C99.4841 23.3204 98.4205 23.159 97.4796 22.8361C96.5394 22.5131 95.7424 22.0674 95.0895 21.4988C94.4365 20.9232 93.9344 20.2458 93.584 19.4666C93.2396 18.6874 93.0674 17.838 93.0674 16.9184Z" fill="white"/>
<path d="M108.546 5.63062H111.663V15.9497L117.476 10.6743H122.245L115.749 16.4867L122.656 23.0993H117.981L113.358 18.6242L111.663 20.1404V23.0993H108.546V5.63062Z" fill="white"/>
</g>
<defs>
<clipPath id="clip0_116_2284">
<rect width="122.667" height="28.9524" fill="white"/>
</clipPath>
</defs>
</svg>
