<svg width="117" height="22" viewBox="0 0 117 22" fill="none" xmlns="http://www.w3.org/2000/svg">
<g clip-path="url(#clip0_116_2293)">
<path d="M21.3333 0V21.3333H8.23093V16.9978H17.2849V12.7771H8.23093V8.61371H17.2849V4.45042H4.10587V21.3333H0V0H21.3333Z" fill="white"/>
<path d="M39.2256 11.9336V9.63718H33.7941V5.66342H40.2639V3.30713H31.2382V17.9042H33.7941V11.9336H39.2256Z" fill="white"/>
<path d="M40.5693 12.9519C40.5693 16.0271 42.7858 18.1438 45.841 18.1438C48.8962 18.1438 51.1127 16.0271 51.1127 12.9519C51.1127 9.87678 48.8962 7.76013 45.841 7.76013C42.7858 7.76013 40.5693 9.87678 40.5693 12.9519ZM43.0054 12.9519C43.0054 11.1547 44.1636 9.93667 45.841 9.93667C47.5184 9.93667 48.6765 11.1547 48.6765 12.9519C48.6765 14.7491 47.5184 15.9671 45.841 15.9671C44.1636 15.9671 43.0054 14.7491 43.0054 12.9519Z" fill="white"/>
<path d="M58.9345 7.99979C58.5351 7.89991 58.1957 7.85999 57.8562 7.85999C56.5382 7.85999 55.5997 8.51896 55.1804 9.49739L55.0406 8.05968H52.7443V17.9042H55.1804V13.1117C55.1804 11.1948 56.2787 10.2562 58.0359 10.2562H58.9345V7.99979Z" fill="white"/>
<path d="M62.72 17.9043V12.313C62.72 10.7155 63.6585 9.95677 64.8167 9.95677C65.9749 9.95677 66.7137 10.6956 66.7137 12.0734V17.9043H69.1499V12.313C69.1499 10.6956 70.0485 9.93681 71.2266 9.93681C72.3848 9.93681 73.1435 10.6756 73.1435 12.0935V17.9043H75.5598V11.4544C75.5598 9.17802 74.2418 7.74023 71.8456 7.74023C70.348 7.74023 69.1898 8.47913 68.6906 9.61734C68.1714 8.47913 67.133 7.74023 65.6354 7.74023C64.2176 7.74023 63.2192 8.37924 62.72 9.19799L62.5203 8.03982H60.2838V17.9043H62.72Z" fill="white"/>
<path d="M78.0115 17.9042H83.9223C86.9372 17.9042 88.6743 16.4465 88.6743 13.9504C88.6743 12.253 87.8957 11.0949 86.3581 10.5957C87.7357 10.0165 88.4549 8.85836 88.4549 7.24093C88.4549 4.80477 86.6979 3.30713 83.8225 3.30713H78.0115V17.9042ZM83.6023 5.56358C85.04 5.56358 85.8393 6.2425 85.8393 7.50052C85.8393 8.79847 85.0606 9.53729 83.6625 9.53729H80.5677V5.56358H83.6023ZM83.8225 11.6939C85.2397 11.6939 86.0587 12.3928 86.0587 13.6309C86.0587 14.9488 85.2602 15.6477 83.8225 15.6477H80.5677V11.6939H83.8225Z" fill="white"/>
<path d="M89.7799 12.9519C89.7799 16.0271 91.997 18.1438 95.0515 18.1438C98.1068 18.1438 100.324 16.0271 100.324 12.9519C100.324 9.87678 98.1068 7.76013 95.0515 7.76013C91.997 7.76013 89.7799 9.87678 89.7799 12.9519ZM92.2165 12.9519C92.2165 11.1547 93.3746 9.93667 95.0515 9.93667C96.7292 9.93667 97.8873 11.1547 97.8873 12.9519C97.8873 14.7491 96.7292 15.9671 95.0515 15.9671C93.3746 15.9671 92.2165 14.7491 92.2165 12.9519Z" fill="white"/>
<path d="M104.412 17.9042V3.04761H101.995V17.9042H104.412Z" fill="white"/>
<path d="M110.721 18.1638C112.219 18.1638 113.496 17.5048 114.095 16.3666L114.255 17.9042H116.491V3.04761H114.075V9.29774C113.457 8.3193 112.238 7.74018 110.86 7.74018C107.885 7.74018 106.088 9.93675 106.088 13.0119C106.088 16.0671 107.865 18.1638 110.721 18.1638ZM111.26 15.9273C109.563 15.9273 108.524 14.6893 108.524 12.932C108.524 11.1748 109.563 9.91679 111.26 9.91679C112.957 9.91679 114.056 11.1548 114.056 12.932C114.056 14.7092 112.957 15.9273 111.26 15.9273Z" fill="white"/>
</g>
<defs>
<clipPath id="clip0_116_2293">
<rect width="116.571" height="21.3333" fill="white"/>
</clipPath>
</defs>
</svg>
