<svg width="24" height="24" viewBox="0 0 24 24" fill="none" xmlns="http://www.w3.org/2000/svg">
<g clip-path="url(#clip0_53174_81251)">
<path d="M6 0.450195H12.3096C13.1449 0.450287 13.9455 0.782403 14.5361 1.37305L20.2275 7.06348C20.8182 7.65418 21.1503 8.45564 21.1504 9.29102V20.4004C21.1502 22.1399 19.7396 23.5498 18 23.5498H6C4.26061 23.5496 2.8508 22.1398 2.85059 20.4004V3.59961C2.8508 1.86022 4.26061 0.450408 6 0.450195Z" fill="white" stroke="#D1D1D1" stroke-width="0.9"/>
<path d="M13.7998 0.599976V5.39997C13.7998 6.72546 14.8743 7.79998 16.1998 7.79998H20.9998" stroke="#D1D1D1" stroke-width="0.9"/>
<path d="M0 12.4C0 11.0745 1.07452 10 2.4 10H15.2C16.5255 10 17.6 11.0745 17.6 12.4V18C17.6 19.3255 16.5255 20.4 15.2 20.4H2.4C1.07452 20.4 0 19.3255 0 18V12.4Z" fill="#335CFF"/>
<path d="M4.16699 12.4H5.02949V15.775C5.02793 16.0843 4.96231 16.3507 4.83262 16.5742C4.70293 16.796 4.52168 16.9671 4.28887 17.0875C4.05762 17.2062 3.78809 17.2656 3.48027 17.2656C3.19902 17.2656 2.9459 17.2156 2.7209 17.1156C2.49746 17.014 2.32012 16.864 2.18887 16.6656C2.05762 16.4671 1.99199 16.2203 1.99199 15.925H2.85684C2.8584 16.0546 2.88652 16.1664 2.94121 16.2601C2.99746 16.3539 3.0748 16.4257 3.17324 16.4757C3.27168 16.5257 3.38496 16.5507 3.51309 16.5507C3.65215 16.5507 3.77012 16.5218 3.86699 16.464C3.96387 16.4046 4.0373 16.3171 4.0873 16.2015C4.13887 16.0859 4.16543 15.9437 4.16699 15.775V12.4ZM6.10485 17.2V12.4H7.90485C8.2736 12.4 8.58298 12.4687 8.83298 12.6062C9.08454 12.7437 9.27438 12.9328 9.40251 13.1734C9.5322 13.4125 9.59704 13.6843 9.59704 13.989C9.59704 14.2968 9.5322 14.5703 9.40251 14.8093C9.27282 15.0484 9.08141 15.2367 8.82829 15.3742C8.57516 15.5101 8.26345 15.5781 7.89313 15.5781H6.70016V14.8632H7.77595C7.99157 14.8632 8.16813 14.8257 8.30563 14.7507C8.44313 14.6757 8.5447 14.5726 8.61032 14.4414C8.67751 14.3101 8.7111 14.1593 8.7111 13.989C8.7111 13.8187 8.67751 13.6687 8.61032 13.539C8.5447 13.4093 8.44235 13.3085 8.30329 13.2367C8.16579 13.1632 7.98845 13.1265 7.77126 13.1265H6.97438V17.2H6.10485ZM13.6999 13.9328C13.6609 13.8062 13.607 13.6929 13.5382 13.5929C13.471 13.4914 13.3898 13.4046 13.2945 13.3328C13.2007 13.2609 13.0929 13.207 12.971 13.171C12.8492 13.1335 12.7163 13.1148 12.5726 13.1148C12.3148 13.1148 12.0851 13.1796 11.8835 13.3093C11.682 13.439 11.5234 13.6296 11.4078 13.8812C11.2937 14.1312 11.2367 14.4359 11.2367 14.7953C11.2367 15.1578 11.2937 15.4648 11.4078 15.7164C11.5218 15.9679 11.6804 16.1593 11.8835 16.2906C12.0867 16.4203 12.3226 16.4851 12.5913 16.4851C12.8351 16.4851 13.046 16.4382 13.2242 16.3445C13.4038 16.2507 13.5421 16.1179 13.639 15.946C13.7359 15.7726 13.7843 15.5695 13.7843 15.3367L13.9812 15.3671H12.6781V14.6875H14.6257V15.264C14.6257 15.675 14.5382 16.0304 14.3632 16.3304C14.1882 16.6304 13.9476 16.8617 13.6413 17.0242C13.3351 17.1851 12.9835 17.2656 12.5867 17.2656C12.1445 17.2656 11.7562 17.1664 11.4218 16.9679C11.089 16.7679 10.8288 16.4843 10.6413 16.1171C10.4554 15.7484 10.3624 15.3109 10.3624 14.8046C10.3624 14.4171 10.4171 14.071 10.5265 13.7664C10.6374 13.4617 10.7921 13.2031 10.9906 12.9906C11.189 12.7765 11.4218 12.614 11.689 12.5031C11.9562 12.3906 12.2468 12.3343 12.5609 12.3343C12.8265 12.3343 13.0742 12.3734 13.3038 12.4515C13.5335 12.5281 13.7374 12.6375 13.9156 12.7796C14.0953 12.9218 14.2429 13.0906 14.3585 13.2859C14.4742 13.4812 14.5499 13.6968 14.5859 13.9328H13.6999Z" fill="white"/>
</g>
<defs>
<clipPath id="clip0_53174_81251">
<rect width="24" height="24" fill="white"/>
</clipPath>
</defs>
</svg>
