<svg width="24" height="24" viewBox="0 0 24 24" fill="none" xmlns="http://www.w3.org/2000/svg">
<path d="M6 0.450195H12.3096C13.1449 0.450287 13.9455 0.782403 14.5361 1.37305L20.2275 7.06348C20.8182 7.65418 21.1503 8.45564 21.1504 9.29102V20.4004C21.1502 22.1399 19.7396 23.5498 18 23.5498H6C4.26061 23.5496 2.8508 22.1398 2.85059 20.4004V3.59961C2.8508 1.86022 4.26061 0.450408 6 0.450195Z" fill="white" stroke="#D1D1D1" stroke-width="0.9"/>
<path d="M13.7998 0.599976V5.39997C13.7998 6.72546 14.8743 7.79998 16.1998 7.79998H20.9998" stroke="#D1D1D1" stroke-width="0.9"/>
<path d="M0 12.4C0 11.0745 1.07452 10 2.4 10H15.2C16.5255 10 17.6 11.0745 17.6 12.4V18C17.6 19.3255 16.5255 20.4 15.2 20.4H2.4C1.07452 20.4 0 19.3255 0 18V12.4Z" fill="#FB3748"/>
<path d="M2.27324 17.2V12.4H4.07324C4.44199 12.4 4.75137 12.4687 5.00137 12.6062C5.25293 12.7437 5.44277 12.9328 5.5709 13.1734C5.70059 13.4125 5.76543 13.6843 5.76543 13.989C5.76543 14.2968 5.70059 14.5703 5.5709 14.8093C5.44121 15.0484 5.24981 15.2367 4.99668 15.3742C4.74355 15.5101 4.43184 15.5781 4.06152 15.5781H2.86855V14.8632H3.94434C4.15996 14.8632 4.33652 14.8257 4.47402 14.7507C4.61152 14.6757 4.71309 14.5726 4.77871 14.4414C4.8459 14.3101 4.87949 14.1593 4.87949 13.989C4.87949 13.8187 4.8459 13.6687 4.77871 13.539C4.71309 13.4093 4.61074 13.3085 4.47168 13.2367C4.33418 13.1632 4.15684 13.1265 3.93965 13.1265H3.14277V17.2H2.27324ZM8.27927 17.2H6.6527V12.4H8.31208C8.78864 12.4 9.19802 12.496 9.5402 12.6882C9.88395 12.8789 10.148 13.1531 10.3324 13.5109C10.5168 13.8687 10.609 14.2968 10.609 14.7953C10.609 15.2953 10.516 15.725 10.33 16.0843C10.1457 16.4437 9.87927 16.7195 9.53083 16.9117C9.18395 17.1039 8.76677 17.2 8.27927 17.2ZM7.52223 16.4476H8.23708C8.57145 16.4476 8.85036 16.3867 9.0738 16.2648C9.29723 16.1414 9.4652 15.9578 9.5777 15.714C9.6902 15.4687 9.74645 15.1625 9.74645 14.7953C9.74645 14.4281 9.6902 14.1234 9.5777 13.8812C9.4652 13.6375 9.2988 13.4554 9.07849 13.3351C8.85973 13.2132 8.58786 13.1523 8.26286 13.1523H7.52223V16.4476ZM11.5671 17.2V12.4H14.6421V13.1289H12.4367V14.432H14.4312V15.1609H12.4367V17.2H11.5671Z" fill="white"/>
</svg>
