<svg width="20" height="20" viewBox="0 0 20 20" fill="none" xmlns="http://www.w3.org/2000/svg">
<g clip-path="url(#clip0_53067_84516)">
<path d="M5 0.375H10.2578C10.9537 0.37512 11.6211 0.651542 12.1133 1.14355L16.8564 5.88672C17.3485 6.37887 17.6249 7.04628 17.625 7.74219V17C17.625 18.4497 16.4497 19.625 15 19.625H5C3.55025 19.625 2.375 18.4497 2.375 17V3C2.375 1.55025 3.55025 0.375 5 0.375Z" fill="white" stroke="#D1D1D1" stroke-width="0.75"/>
<path d="M11.5 0.5V4.5C11.5 5.60457 12.3954 6.5 13.5 6.5H17.5" stroke="#D1D1D1" stroke-width="0.75"/>
<path d="M0 11C0 9.89543 0.895431 9 2 9H13C14.1046 9 15 9.89543 15 11V15C15 16.1046 14.1046 17 13 17H2C0.89543 17 0 16.1046 0 15V11Z" fill="#7B7B7B"/>
<path d="M1.71875 11.6074V11H4.91016V11.6074H3.67383V15H2.95508V11.6074H1.71875ZM6.24086 11L7.12172 12.4648H7.15297L8.03773 11H8.86391L7.63148 13L8.88344 15H8.04359L7.15297 13.5449H7.12172L6.23109 15H5.39516L6.65883 13L5.41078 11H6.24086ZM9.36697 11.6074V11H12.5584V11.6074H11.3221V15H10.6033V11.6074H9.36697Z" fill="white"/>
</g>
<defs>
<clipPath id="clip0_53067_84516">
<rect width="20" height="20" fill="white"/>
</clipPath>
</defs>
</svg>
