<svg width="24" height="24" viewBox="0 0 24 24" fill="none" xmlns="http://www.w3.org/2000/svg">
<g clip-path="url(#clip0_53067_84503)">
<path d="M6 0.450195H12.3096C13.1449 0.450287 13.9455 0.782403 14.5361 1.37305L20.2275 7.06348C20.8182 7.65418 21.1503 8.45564 21.1504 9.29102V20.4004C21.1502 22.1399 19.7396 23.5498 18 23.5498H6C4.26061 23.5496 2.8508 22.1398 2.85059 20.4004V3.59961C2.8508 1.86022 4.26061 0.450408 6 0.450195Z" fill="white" stroke="#D1D1D1" stroke-width="0.9"/>
<path d="M13.7998 0.599976V5.39997C13.7998 6.72546 14.8743 7.79998 16.1998 7.79998H20.9998" stroke="#D1D1D1" stroke-width="0.9"/>
<path d="M0 12.4C0 11.0745 1.07452 10 2.4 10H14.2C15.5255 10 16.6 11.0745 16.6 12.4V18C16.6 19.3255 15.5255 20.4 14.2 20.4H2.4C1.07452 20.4 0 19.3255 0 18V12.4Z" fill="#1FC16B"/>
<path d="M2.9998 12.4L4.05684 14.1578H4.09434L5.15606 12.4H6.14746L4.66855 14.8L6.1709 17.2H5.16309L4.09434 15.4539H4.05684L2.98809 17.2H1.98496L3.50137 14.8L2.00371 12.4H2.9998ZM6.96208 17.2V12.4H7.83161V16.471H9.94567V17.2H6.96208ZM13.441 13.7195C13.4191 13.5148 13.3269 13.3554 13.1644 13.2414C13.0035 13.1273 12.7941 13.0703 12.5363 13.0703C12.355 13.0703 12.1995 13.0976 12.0699 13.1523C11.9402 13.207 11.841 13.2812 11.7722 13.375C11.7035 13.4687 11.6683 13.5757 11.6667 13.696C11.6667 13.796 11.6894 13.8828 11.7347 13.9562C11.7816 14.0296 11.8449 14.0921 11.9245 14.1437C12.0042 14.1937 12.0925 14.2359 12.1894 14.2703C12.2863 14.3046 12.3839 14.3335 12.4824 14.357L12.9324 14.4695C13.1136 14.5117 13.2878 14.5687 13.455 14.6406C13.6238 14.7125 13.7745 14.8031 13.9074 14.9125C14.0417 15.0218 14.148 15.1539 14.2261 15.3085C14.3042 15.4632 14.3433 15.6445 14.3433 15.8523C14.3433 16.1335 14.2714 16.3812 14.1277 16.5953C13.9839 16.8078 13.7761 16.9742 13.5042 17.0945C13.2339 17.2132 12.9066 17.2726 12.5222 17.2726C12.1488 17.2726 11.8245 17.2148 11.5495 17.0992C11.2761 16.9835 11.062 16.8148 10.9074 16.5929C10.7542 16.371 10.6714 16.1007 10.6589 15.782H11.5144C11.5269 15.9492 11.5785 16.0882 11.6691 16.1992C11.7597 16.3101 11.8777 16.3929 12.023 16.4476C12.1699 16.5023 12.3339 16.5296 12.5152 16.5296C12.7042 16.5296 12.8699 16.5015 13.012 16.4453C13.1558 16.3875 13.2683 16.3078 13.3495 16.2062C13.4308 16.1031 13.4722 15.9828 13.4738 15.8453C13.4722 15.7203 13.4355 15.6171 13.3636 15.5359C13.2917 15.4531 13.191 15.3843 13.0613 15.3296C12.9331 15.2734 12.7831 15.2234 12.6113 15.1796L12.0652 15.039C11.6699 14.9375 11.3574 14.7835 11.1277 14.5773C10.8995 14.3695 10.7855 14.0937 10.7855 13.75C10.7855 13.4671 10.862 13.2195 11.0152 13.007C11.1699 12.7945 11.38 12.6296 11.6456 12.5125C11.9113 12.3937 12.212 12.3343 12.548 12.3343C12.8886 12.3343 13.187 12.3937 13.4433 12.5125C13.7011 12.6296 13.9035 12.7929 14.0503 13.0023C14.1972 13.2101 14.273 13.4492 14.2777 13.7195H13.441Z" fill="white"/>
</g>
<defs>
<clipPath id="clip0_53067_84503">
<rect width="24" height="24" fill="white"/>
</clipPath>
</defs>
</svg>
