<svg width="136" height="26" viewBox="0 0 136 26" fill="none" xmlns="http://www.w3.org/2000/svg">
<path d="M42 22.1206V4.66602H52.8239V6.93306H44.6335V12.2512H52.0483V14.5098H44.6335V22.1206H42Z" fill="#030712"/>
<path d="M62.9303 16.6916V9.02965H65.4871V22.1206H62.9814V19.8535H62.845C62.5439 20.5524 62.0609 21.1348 61.3962 21.6007C60.7371 22.0609 59.9161 22.291 58.9331 22.291C58.0922 22.291 57.3479 22.1064 56.7001 21.737C56.0581 21.362 55.5524 20.8081 55.1831 20.0751C54.8195 19.3422 54.6376 18.4359 54.6376 17.3564V9.02965H57.1859V17.0495C57.1859 17.9416 57.4331 18.6518 57.9274 19.1802C58.4217 19.7086 59.0638 19.9728 59.8536 19.9728C60.3308 19.9728 60.8053 19.8535 61.2768 19.6149C61.7541 19.3762 62.149 19.0154 62.4615 18.5325C62.7797 18.0495 62.9359 17.4359 62.9303 16.6916Z" fill="#030712"/>
<path d="M71.0594 14.3478V22.1206H68.5111V9.02965H70.9571V11.1603H71.119C71.4202 10.4672 71.8918 9.91033 72.5338 9.48988C73.1815 9.06943 73.9969 8.8592 74.9798 8.8592C75.8719 8.8592 76.6531 9.0467 77.3236 9.4217C77.994 9.79102 78.5139 10.3422 78.8832 11.0751C79.2526 11.8081 79.4372 12.7143 79.4372 13.7939V22.1206H76.8889V14.1007C76.8889 13.1518 76.6418 12.4103 76.1474 11.8762C75.6531 11.3365 74.9741 11.0666 74.1105 11.0666C73.5196 11.0666 72.994 11.1944 72.5338 11.4501C72.0793 11.7058 71.7185 12.0808 71.4514 12.5751C71.1901 13.0637 71.0594 13.6547 71.0594 14.3478Z" fill="#030712"/>
<path d="M87.3554 22.3762C86.2986 22.3762 85.3554 22.1064 84.5259 21.5666C83.702 21.0211 83.0543 20.2456 82.5827 19.2399C82.1168 18.2285 81.8838 17.0154 81.8838 15.6007C81.8838 14.1859 82.1196 12.9757 82.5912 11.97C83.0685 10.9643 83.7219 10.1944 84.5514 9.66033C85.381 9.12624 86.3213 8.8592 87.3724 8.8592C88.1849 8.8592 88.8383 8.99556 89.3327 9.26829C89.8327 9.53533 90.219 9.84783 90.4918 10.2058C90.7702 10.5637 90.9861 10.8791 91.1395 11.1518H91.2929V4.66602H93.8412V22.1206H91.3526V20.0836H91.1395C90.9861 20.362 90.7645 20.6802 90.4747 21.0382C90.1906 21.3961 89.7986 21.7086 89.2986 21.9757C88.7986 22.2427 88.1509 22.3762 87.3554 22.3762ZM87.9179 20.2029C88.6509 20.2029 89.2702 20.0098 89.7759 19.6234C90.2872 19.2314 90.6736 18.6887 90.9349 17.9956C91.202 17.3024 91.3355 16.4956 91.3355 15.5751C91.3355 14.666 91.2048 13.8706 90.9435 13.1887C90.6821 12.5069 90.2986 11.9757 89.7929 11.595C89.2872 11.2143 88.6622 11.024 87.9179 11.024C87.1509 11.024 86.5116 11.2228 86.0003 11.6206C85.4889 12.0183 85.1026 12.5609 84.8412 13.2484C84.5855 13.9359 84.4577 14.7115 84.4577 15.5751C84.4577 16.4501 84.5884 17.237 84.8497 17.9359C85.1111 18.6348 85.4974 19.1887 86.0088 19.5978C86.5258 20.0012 87.1622 20.2029 87.9179 20.2029Z" fill="#030712"/>
<path d="M102.72 22.3848C101.431 22.3848 100.32 22.1092 99.3879 21.5581C98.4618 21.0012 97.7459 20.22 97.2402 19.2143C96.7402 18.2029 96.4902 17.0183 96.4902 15.6603C96.4902 14.3194 96.7402 13.1376 97.2402 12.1149C97.7459 11.0922 98.4504 10.2939 99.3538 9.71999C100.263 9.14613 101.325 8.8592 102.541 8.8592C103.28 8.8592 103.996 8.98136 104.689 9.22568C105.382 9.46999 106.004 9.85352 106.556 10.3762C107.107 10.899 107.541 11.5779 107.86 12.4132C108.178 13.2427 108.337 14.2512 108.337 15.4387V16.3422H97.9305V14.4331H105.84C105.84 13.7626 105.703 13.1689 105.431 12.6518C105.158 12.1291 104.774 11.7172 104.28 11.416C103.791 11.1149 103.217 10.9643 102.558 10.9643C101.842 10.9643 101.217 11.1404 100.683 11.4927C100.155 11.8393 99.7459 12.2939 99.4561 12.8564C99.172 13.4132 99.03 14.0183 99.03 14.6717V16.1632C99.03 17.0382 99.1834 17.7825 99.4902 18.3961C99.8027 19.0098 100.237 19.4785 100.794 19.8024C101.351 20.1206 102.002 20.2797 102.746 20.2797C103.229 20.2797 103.669 20.2115 104.067 20.0751C104.465 19.9331 104.808 19.7228 105.098 19.4444C105.388 19.166 105.61 18.8223 105.763 18.4132L108.175 18.8478C107.982 19.5581 107.635 20.1802 107.135 20.7143C106.641 21.2427 106.019 21.6547 105.269 21.9501C104.524 22.2399 103.675 22.3848 102.72 22.3848Z" fill="#030712"/>
<path d="M112.471 9.02965L115.36 14.1262L118.275 9.02965H121.062L116.979 15.5751L121.096 22.1206H118.309L115.36 17.2285L112.42 22.1206H109.624L113.698 15.5751L109.675 9.02965H112.471Z" fill="#030712"/>
<path fill-rule="evenodd" clip-rule="evenodd" d="M20.2299 1.73055C15.3737 2.43034 11.4931 6.24197 10.6542 11.1361C10.0259 14.8012 11.3472 18.7195 14.0809 21.2983C15.7259 22.8501 17.9888 23.9526 20.1797 24.2697C21.8818 24.516 24.0624 24.3119 25.63 23.7594C26.7229 23.3742 27.0867 23.1926 28.1617 22.496C30.3523 21.0763 32.0702 18.7474 32.8108 16.1935C33.3258 14.4176 33.3383 13.4542 32.8498 13.1927C32.6548 13.0883 25.8118 13.0436 25.5487 13.1451C25.4508 13.1828 25.2902 13.4893 25.1661 13.8751C24.8999 14.7026 24.6784 15.0675 24.1557 15.5397C23.3018 16.3112 22.142 16.6165 21.0893 16.3468C19.0445 15.8229 17.9292 13.7055 18.6757 11.764C18.9953 10.9327 19.8107 10.1473 20.6715 9.84169C20.9226 9.75259 21.2455 9.63666 21.3893 9.58398C21.8516 9.41477 21.8762 9.21902 21.8762 5.70082C21.8762 2.12863 21.8555 1.97838 21.3302 1.73913C21.1863 1.67358 21.0146 1.62539 20.9486 1.63207C20.8825 1.63876 20.5592 1.68306 20.2299 1.73055ZM23.5039 1.72037C23.2249 1.83281 23.0734 2.11885 23.0734 2.5336C23.0734 2.83331 23.4614 3.25025 27.5301 7.32259C30.1708 9.96571 32.0878 11.8087 32.2346 11.8456C32.5721 11.9303 33.0007 11.7357 33.1373 11.4358C33.2154 11.2644 33.25 9.88579 33.25 6.94306C33.25 2.16216 33.252 2.17672 32.5418 1.81445C32.1809 1.63028 31.9345 1.6202 27.9412 1.62619C25.6205 1.62968 23.6238 1.67208 23.5039 1.72037Z" fill="#7C3AED"/>
</svg>
