<svg width="120" height="26" viewBox="0 0 120 26" fill="none" xmlns="http://www.w3.org/2000/svg">
<path d="M34 22.1206V4.66602H44.8239V6.93306H36.6335V12.2512H44.0483V14.5098H36.6335V22.1206H34Z" fill="white"/>
<path d="M54.9303 16.6916V9.02965H57.4871V22.1206H54.9814V19.8535H54.845C54.5439 20.5524 54.0609 21.1348 53.3962 21.6007C52.7371 22.0609 51.9161 22.291 50.9331 22.291C50.0922 22.291 49.3479 22.1064 48.7001 21.737C48.0581 21.362 47.5524 20.8081 47.1831 20.0751C46.8195 19.3422 46.6376 18.4359 46.6376 17.3564V9.02965H49.1859V17.0495C49.1859 17.9416 49.4331 18.6518 49.9274 19.1802C50.4217 19.7086 51.0638 19.9728 51.8536 19.9728C52.3308 19.9728 52.8053 19.8535 53.2768 19.6149C53.7541 19.3762 54.149 19.0154 54.4615 18.5325C54.7797 18.0495 54.9359 17.4359 54.9303 16.6916Z" fill="white"/>
<path d="M63.0594 14.3478V22.1206H60.5111V9.02965H62.9571V11.1603H63.119C63.4202 10.4672 63.8918 9.91033 64.5338 9.48988C65.1815 9.06943 65.9969 8.8592 66.9798 8.8592C67.8719 8.8592 68.6531 9.0467 69.3236 9.4217C69.994 9.79102 70.5139 10.3422 70.8832 11.0751C71.2526 11.8081 71.4372 12.7143 71.4372 13.7939V22.1206H68.8889V14.1007C68.8889 13.1518 68.6418 12.4103 68.1474 11.8762C67.6531 11.3365 66.9741 11.0666 66.1105 11.0666C65.5196 11.0666 64.994 11.1944 64.5338 11.4501C64.0793 11.7058 63.7185 12.0808 63.4514 12.5751C63.1901 13.0637 63.0594 13.6547 63.0594 14.3478Z" fill="white"/>
<path d="M79.3554 22.3762C78.2986 22.3762 77.3554 22.1064 76.5259 21.5666C75.702 21.0211 75.0543 20.2456 74.5827 19.2399C74.1168 18.2285 73.8838 17.0154 73.8838 15.6007C73.8838 14.1859 74.1196 12.9757 74.5912 11.97C75.0685 10.9643 75.7219 10.1944 76.5514 9.66033C77.381 9.12624 78.3213 8.8592 79.3724 8.8592C80.1849 8.8592 80.8383 8.99556 81.3327 9.26829C81.8327 9.53533 82.219 9.84783 82.4918 10.2058C82.7702 10.5637 82.9861 10.8791 83.1395 11.1518H83.2929V4.66602H85.8412V22.1206H83.3526V20.0836H83.1395C82.9861 20.362 82.7645 20.6802 82.4747 21.0382C82.1906 21.3961 81.7986 21.7086 81.2986 21.9757C80.7986 22.2427 80.1509 22.3762 79.3554 22.3762ZM79.9179 20.2029C80.6509 20.2029 81.2702 20.0098 81.7759 19.6234C82.2872 19.2314 82.6736 18.6887 82.9349 17.9956C83.202 17.3024 83.3355 16.4956 83.3355 15.5751C83.3355 14.666 83.2048 13.8706 82.9435 13.1887C82.6821 12.5069 82.2986 11.9757 81.7929 11.595C81.2872 11.2143 80.6622 11.024 79.9179 11.024C79.1509 11.024 78.5116 11.2228 78.0003 11.6206C77.4889 12.0183 77.1026 12.5609 76.8412 13.2484C76.5855 13.9359 76.4577 14.7115 76.4577 15.5751C76.4577 16.4501 76.5884 17.237 76.8497 17.9359C77.1111 18.6348 77.4974 19.1887 78.0088 19.5978C78.5258 20.0012 79.1622 20.2029 79.9179 20.2029Z" fill="white"/>
<path d="M94.7203 22.3848C93.4305 22.3848 92.3197 22.1092 91.3879 21.5581C90.4618 21.0012 89.7459 20.22 89.2402 19.2143C88.7402 18.2029 88.4902 17.0183 88.4902 15.6603C88.4902 14.3194 88.7402 13.1376 89.2402 12.1149C89.7459 11.0922 90.4504 10.2939 91.3538 9.71999C92.2629 9.14613 93.3254 8.8592 94.5413 8.8592C95.28 8.8592 95.9959 8.98136 96.6891 9.22568C97.3822 9.46999 98.0044 9.85352 98.5555 10.3762C99.1067 10.899 99.5413 11.5779 99.8595 12.4132C100.178 13.2427 100.337 14.2512 100.337 15.4387V16.3422H89.9305V14.4331H97.8396C97.8396 13.7626 97.7033 13.1689 97.4305 12.6518C97.1578 12.1291 96.7743 11.7172 96.28 11.416C95.7913 11.1149 95.2175 10.9643 94.5584 10.9643C93.8425 10.9643 93.2175 11.1404 92.6834 11.4927C92.155 11.8393 91.7459 12.2939 91.4561 12.8564C91.172 13.4132 91.03 14.0183 91.03 14.6717V16.1632C91.03 17.0382 91.1834 17.7825 91.4902 18.3961C91.8027 19.0098 92.2374 19.4785 92.7942 19.8024C93.351 20.1206 94.0016 20.2797 94.7459 20.2797C95.2288 20.2797 95.6692 20.2115 96.0669 20.0751C96.4646 19.9331 96.8084 19.7228 97.0982 19.4444C97.3879 19.166 97.6095 18.8223 97.7629 18.4132L100.175 18.8478C99.9817 19.5581 99.6351 20.1802 99.1351 20.7143C98.6408 21.2427 98.0186 21.6547 97.2686 21.9501C96.5243 22.2399 95.6749 22.3848 94.7203 22.3848Z" fill="white"/>
<path d="M104.471 9.02965L107.36 14.1262L110.275 9.02965H113.062L108.979 15.5751L113.096 22.1206H110.309L107.36 17.2285L104.42 22.1206H101.624L105.698 15.5751L101.675 9.02965H104.471Z" fill="white"/>
<path fill-rule="evenodd" clip-rule="evenodd" d="M12.2299 1.73055C7.37372 2.43034 3.49314 6.24197 2.65417 11.1361C2.02592 14.8012 3.34718 18.7195 6.08089 21.2983C7.72591 22.8501 9.9888 23.9526 12.1797 24.2697C13.8818 24.516 16.0624 24.3119 17.63 23.7594C18.7229 23.3742 19.0867 23.1926 20.1617 22.496C22.3523 21.0763 24.0702 18.7474 24.8108 16.1935C25.3258 14.4176 25.3383 13.4542 24.8498 13.1927C24.6548 13.0883 17.8118 13.0436 17.5487 13.1451C17.4508 13.1828 17.2902 13.4893 17.1661 13.8751C16.8999 14.7026 16.6784 15.0675 16.1557 15.5397C15.3018 16.3112 14.142 16.6165 13.0893 16.3468C11.0445 15.8229 9.92924 13.7055 10.6757 11.764C10.9953 10.9327 11.8107 10.1473 12.6715 9.84169C12.9226 9.7526 13.2455 9.63666 13.3893 9.58398C13.8516 9.41477 13.8762 9.21902 13.8762 5.70082C13.8762 2.12863 13.8555 1.97838 13.3302 1.73913C13.1863 1.67358 13.0146 1.62539 12.9486 1.63207C12.8825 1.63876 12.5592 1.68306 12.2299 1.73055ZM15.5039 1.72037C15.2249 1.83281 15.0734 2.11885 15.0734 2.5336C15.0734 2.83331 15.4614 3.25025 19.5301 7.32259C22.1708 9.96571 24.0878 11.8087 24.2346 11.8456C24.5721 11.9303 25.0007 11.7357 25.1373 11.4358C25.2154 11.2644 25.25 9.88579 25.25 6.94306C25.25 2.16216 25.252 2.17672 24.5418 1.81445C24.1809 1.63028 23.9345 1.6202 19.9412 1.62619C17.6205 1.62968 15.6238 1.67208 15.5039 1.72037Z" fill="#7C3AED"/>
</svg>
