<svg width="24" height="24" viewBox="0 0 24 24" fill="none" xmlns="http://www.w3.org/2000/svg">
<path d="M16.6003 1.58937C16.3751 1.79527 16.2979 2.12342 16.4009 2.39366C16.5038 2.65747 16.8255 2.83119 17.2245 2.83119C17.9966 2.83119 19.0196 3.16578 19.721 3.64835C20.4738 4.1631 20.9499 4.70358 21.3488 5.48856C21.6448 6.06122 21.7928 6.60814 21.87 7.43173C21.9215 7.94004 21.9472 8.02369 22.0952 8.15237C22.4169 8.42905 22.7515 8.42261 23.0797 8.14594C23.2534 7.99151 23.2598 7.97221 23.2534 7.38669C23.2341 4.94808 21.4711 2.57382 19.084 1.7631C18.492 1.5572 17.707 1.41564 17.2051 1.41564C16.8513 1.41564 16.7676 1.44138 16.6003 1.58937Z" fill="white"/>
<path d="M6.8203 1.58936C5.72003 1.69231 4.77419 2.23923 4.2337 3.08855C3.84764 3.69338 3.79617 4.02796 3.79617 5.8167V7.43815L3.30073 7.51536C2.59295 7.62475 2.07177 7.88855 1.5699 8.39043C1.11306 8.84727 0.81708 9.38775 0.707697 9.96684C0.617617 10.4365 0.617617 19.5475 0.707697 20.0172C0.926464 21.1754 1.93665 22.2113 3.08839 22.4558C3.34577 22.5073 4.84496 22.5202 8.58974 22.5073C13.5249 22.488 13.7501 22.4816 14.0911 22.3593C14.9018 22.0698 15.6417 21.3556 15.9699 20.5449L16.1179 20.1717L16.1372 15.1272C16.1501 10.6424 16.1436 10.0441 16.0471 9.72233C15.7254 8.5899 14.7023 7.69553 13.5313 7.51536L13.0745 7.44459L13.0487 5.76523C13.023 4.23386 13.0101 4.0537 12.875 3.69981C12.4503 2.54164 11.453 1.77595 10.1597 1.60866C9.67713 1.55075 7.38008 1.53145 6.8203 1.58936ZM10.5072 3.11429C10.6809 3.17863 10.9511 3.36523 11.1313 3.53896C11.601 3.99579 11.646 4.21456 11.646 5.99687V7.46389H8.42888H5.21172V5.86818C5.21172 4.4655 5.23102 4.24673 5.33397 4.02153C5.55274 3.53252 6.06748 3.14646 6.64657 3.02421C6.79456 2.99204 7.65676 2.97917 8.55756 2.98561C9.94738 2.99847 10.2434 3.01778 10.5072 3.11429ZM13.808 9.05317C14.1619 9.23976 14.4707 9.55504 14.6123 9.87676C14.7216 10.1213 14.7345 10.4237 14.7345 14.9985V19.8564L14.5672 20.191C14.4771 20.3776 14.297 20.6092 14.1683 20.7186C13.6857 21.1175 13.8466 21.1046 8.37097 21.1046C3.48732 21.1046 3.3715 21.0982 3.08839 20.9695C2.73451 20.8087 2.41279 20.5127 2.23263 20.1717L2.09108 19.9143V14.992C2.09108 10.0698 2.09108 10.0698 2.23263 9.81242C2.4514 9.40062 2.89536 9.0403 3.30073 8.94378C3.41011 8.91161 5.76507 8.89874 8.52539 8.89874L13.5442 8.91161L13.808 9.05317Z" fill="white"/>
<path d="M7.74062 11.2216C7.07145 11.4403 6.55027 11.9036 6.24786 12.5406C6.1063 12.8495 6.08057 12.9846 6.08057 13.5122C6.087 14.0462 6.1063 14.1685 6.26073 14.4902C6.4988 14.9728 6.9299 15.4103 7.36743 15.6098L7.72132 15.7706V17.0575C7.72132 18.3958 7.74705 18.531 8.00443 18.7369C8.17815 18.8784 8.60925 18.8848 8.80872 18.7497C9.09183 18.5503 9.13687 18.3058 9.13687 16.9932V15.7706L9.43285 15.6226C9.92829 15.3781 10.2693 15.0307 10.5267 14.5095C10.7519 14.0527 10.7583 14.0205 10.739 13.4414C10.7197 12.9395 10.6811 12.7722 10.5395 12.4827C10.3143 12.0259 9.87038 11.5819 9.41354 11.3567C8.96957 11.1444 8.17815 11.08 7.74062 11.2216ZM8.77011 12.605C8.86019 12.6436 9.00818 12.7465 9.09826 12.8495C9.58727 13.3771 9.34276 14.2071 8.63499 14.4194C8.40979 14.4838 8.32614 14.4773 8.0752 14.3873C7.70201 14.2393 7.50898 13.9755 7.48325 13.5508C7.46394 13.2999 7.48968 13.1712 7.5862 13.0103C7.83713 12.6178 8.33901 12.4441 8.77011 12.605Z" fill="white"/>
<path d="M16.8062 4.18871C16.3623 4.3174 16.2014 4.92222 16.5231 5.28254C16.6711 5.44984 16.7741 5.49488 17.2438 5.57209C18.3312 5.75868 18.9682 6.39568 19.1162 7.43161C19.1869 7.92705 19.2384 8.0493 19.4701 8.22946C19.7596 8.45466 20.1843 8.37745 20.4416 8.04287C20.551 7.90775 20.5446 7.1871 20.4288 6.76244C20.1843 5.82946 19.573 5.06378 18.6786 4.55547C18.1639 4.26592 17.1987 4.07289 16.8062 4.18871Z" fill="white"/>
<path d="M16.7482 6.91694C16.1434 7.18074 16.1563 8.08155 16.7675 8.33892C17.3466 8.58342 17.99 8.04938 17.8421 7.45742C17.7777 7.20005 17.6169 7.00058 17.3916 6.9105C17.1343 6.80112 17.012 6.80112 16.7482 6.91694Z" fill="white"/>
</svg>
