<svg width="24" height="24" viewBox="0 0 24 24" fill="none" xmlns="http://www.w3.org/2000/svg">
<g clip-path="url(#clip0_248_3709)">
<path d="M4.78594 0.407813C4.66406 0.45 4.48125 0.576563 4.35 0.707813L4.125 0.932813L3.31875 0.984375C1.63594 1.09219 0.684375 1.17656 0.567187 1.23281C0.39375 1.31719 0.234375 1.57969 0.234375 1.78125C0.234375 2.01563 0.403125 2.25938 0.609375 2.325C0.735937 2.3625 1.17187 2.34844 2.41406 2.26875L4.05469 2.16094L4.125 2.26406C4.30312 2.52188 4.47187 2.66719 4.69687 2.76563C4.90781 2.85469 5.00156 2.86875 5.32031 2.85L5.69531 2.82656L5.85469 3.05156C5.93906 3.17813 6.0375 3.28125 6.06562 3.28125C6.09844 3.28125 6.17344 3.225 6.23906 3.15938C6.3 3.09375 6.49219 2.92969 6.66562 2.80313C6.86719 2.65313 6.97031 2.54531 6.94687 2.5125C6.92812 2.47969 6.82031 2.325 6.70781 2.16563C6.52031 1.89844 6.50156 1.85156 6.49219 1.55625C6.46875 0.665625 5.63906 0.107813 4.78594 0.407813ZM5.55937 0.885938C5.6625 0.932813 5.79375 1.03125 5.85 1.10156C6.37031 1.7625 5.625 2.68125 4.875 2.29688C4.41094 2.05781 4.3125 1.47188 4.67344 1.07344C4.92187 0.796875 5.22187 0.735938 5.55937 0.885938Z" fill="white"/>
<path d="M10.6404 2.17482C7.467 2.7467 5.12794 5.06701 4.56544 8.20295C4.45294 8.80764 4.45294 10.0873 4.56075 10.6639C4.84669 12.2389 5.54513 13.5654 6.65606 14.6717C7.66388 15.6748 8.90606 16.3404 10.3358 16.6404C10.9451 16.767 12.0608 16.8139 12.6842 16.7342C14.3764 16.5233 15.8764 15.7873 17.0623 14.5779C17.8545 13.7764 18.4404 12.8061 18.7967 11.7279C19.0686 10.8842 19.1483 10.3779 19.1436 9.44514C19.1436 8.5592 19.0733 8.04826 18.8436 7.31232C18.6373 6.63732 18.6467 6.63732 17.8686 7.27014C17.517 7.56076 17.2311 7.81857 17.2358 7.8467C17.2404 7.87482 17.2873 8.09982 17.3389 8.34357C17.4608 8.90139 17.4701 9.88576 17.367 10.4483C17.1467 11.5873 16.6264 12.5764 15.7967 13.4061C14.9764 14.2311 14.0529 14.7326 12.8904 14.9811C12.3654 15.0936 11.2404 15.0936 10.7342 14.9811C8.97169 14.5873 7.59356 13.5467 6.80138 11.9998C6.36075 11.1373 6.18263 10.4061 6.18263 9.43576C6.18731 5.62482 9.88575 2.91545 13.5186 4.06389C13.9733 4.2092 14.5873 4.5092 15.0092 4.79514L15.3186 5.00607L15.9795 4.4717C16.3404 4.17639 16.6404 3.91857 16.6404 3.89982C16.6404 3.88107 16.4342 3.71701 16.1858 3.52951C15.3795 2.92951 14.367 2.47014 13.3498 2.24514C12.7873 2.11857 11.1842 2.07639 10.6404 2.17482Z" fill="white"/>
<path d="M17.7138 2.76069C17.6106 2.86851 17.5778 2.94351 17.5778 3.08882C17.5778 3.39819 17.7138 3.50601 18.2013 3.59976C18.4263 3.64194 18.6044 3.68882 18.5997 3.70757C18.5903 3.72632 17.2028 4.86069 15.5153 6.22944C13.0872 8.20288 12.4263 8.71851 12.3513 8.69507C12.0513 8.60132 11.8591 8.57788 11.6434 8.60601L11.4044 8.63413L10.2841 7.08726C9.31844 5.75601 9.15438 5.54976 9.07938 5.58726C8.94344 5.65757 8.34813 6.18257 8.30125 6.27632C8.25907 6.34663 8.45125 6.63726 9.41219 7.95913L10.57 9.56226L10.5559 9.81538C10.4856 10.9169 11.7278 11.5357 12.6231 10.856C12.8341 10.6919 13.0263 10.331 13.0684 10.0123L13.1013 9.75444L16.195 7.24663C17.8966 5.86382 19.2934 4.75757 19.3028 4.78101C19.3122 4.80444 19.2934 4.94507 19.27 5.09038C19.2419 5.24038 19.2184 5.47476 19.2184 5.61538C19.2184 5.83101 19.2372 5.88726 19.3544 6.00444C19.5934 6.24351 19.9684 6.15444 20.1044 5.82632C20.1747 5.64351 20.5778 3.66538 20.5778 3.48257C20.5778 3.27163 20.4888 3.09819 20.3388 3.02319C20.1934 2.94351 18.3372 2.62476 18.0466 2.62476C17.8919 2.62476 17.8216 2.65288 17.7138 2.76069ZM12.295 9.24819C12.6231 9.49663 12.6888 9.95132 12.4497 10.3123C12.1872 10.7107 11.5544 10.7669 11.2403 10.4201C11.1278 10.2982 11.0153 10.0123 11.0153 9.85288C11.0153 9.63726 11.2122 9.31851 11.4184 9.19663C11.6716 9.04663 12.0606 9.07007 12.295 9.24819Z" fill="white"/>
<path d="M18.6707 14.9295C18.4129 15.0374 18.277 15.4827 18.4223 15.7452C18.4504 15.8014 19.3317 16.9592 20.377 18.3186C21.4223 19.6733 22.327 20.878 22.3879 20.9905C22.6504 21.4827 22.5848 21.8717 22.1911 22.1952C21.8957 22.4342 21.7786 22.4764 21.5114 22.4389C21.0661 22.378 20.9582 22.2655 18.8676 19.5374C17.7895 18.1358 16.8754 16.9639 16.8379 16.9311C16.6036 16.7483 16.1864 16.7764 15.9848 16.992C15.8582 17.128 15.802 17.5077 15.8911 17.667C16.027 17.9249 19.7676 22.7389 20.0114 22.9733C20.3254 23.278 20.8223 23.5452 21.2207 23.6295C21.5723 23.6999 22.0879 23.6577 22.3739 23.5358C22.6223 23.428 23.0489 23.1139 23.2832 22.8655C23.8504 22.2702 23.9114 21.1967 23.4239 20.3295C23.3442 20.1795 22.3973 18.9186 21.3286 17.5311C19.9504 15.7405 19.3411 14.9811 19.2332 14.9295C19.0551 14.8452 18.8676 14.8405 18.6707 14.9295Z" fill="white"/>
</g>
<defs>
<clipPath id="clip0_248_3709">
<rect width="24" height="24" fill="white"/>
</clipPath>
</defs>
</svg>
