<svg width="24" height="24" viewBox="0 0 24 24" fill="none" xmlns="http://www.w3.org/2000/svg">
<path d="M10.8138 1.26353L10.3567 1.63179L10.509 1.84131C10.6805 2.07623 10.6678 2.15877 10.4456 2.15877C9.92492 2.15877 8.57254 2.59687 7.58841 3.08575C6.54714 3.60004 5.75984 4.16512 4.94714 4.97782C2.29952 7.64449 1.36619 11.5175 2.5154 15.0413C3.51222 18.0953 5.83603 20.4445 8.85825 21.454C9.17571 21.5556 9.55032 21.6699 9.69635 21.7016C10.0075 21.7715 9.97571 21.8159 10.1281 21.0921C10.2487 20.4953 10.2487 20.4445 10.1027 20.4445C9.86778 20.4445 8.66143 20.0127 8.09 19.727C6.52174 18.9397 5.16301 17.5873 4.31857 15.9873C3.25825 13.9746 3.06143 11.4921 3.78524 9.27623C4.61063 6.7556 6.69952 4.64766 9.20111 3.80956C9.79159 3.61274 10.6678 3.40956 10.7186 3.45401C10.7313 3.47306 10.6868 3.58099 10.617 3.69528L10.4836 3.91115L11.0106 4.24131C11.3027 4.42544 11.5567 4.57147 11.5757 4.57147C11.6138 4.57147 12.763 2.7048 12.763 2.64131C12.763 2.55242 11.4106 0.888929 11.3408 0.888929C11.3027 0.895279 11.0678 1.06036 10.8138 1.26353Z" fill="white"/>
<path d="M14.0075 2.34283C13.9504 2.52061 13.7789 3.3714 13.7789 3.46664C13.7789 3.51744 13.8361 3.55553 13.9123 3.55553C14.1472 3.55553 15.3281 3.98093 15.9123 4.27299C16.6742 4.66029 17.4488 5.21902 18.1027 5.87299C19.7599 7.51743 20.6424 9.65077 20.6424 12C20.6424 14.3111 19.817 16.3492 18.2107 18.0063C17.2202 19.0285 16.0647 19.7714 14.8202 20.1841C14.2107 20.3873 13.3345 20.5968 13.2837 20.546C13.271 20.527 13.3154 20.419 13.3853 20.3047L13.5186 20.0889L12.9789 19.7587C12.6869 19.5746 12.4329 19.4285 12.4202 19.4285C12.3821 19.4285 11.2393 21.3016 11.2393 21.3587C11.2393 21.4412 12.5853 23.1111 12.6551 23.1111C12.6869 23.1111 12.9218 22.946 13.1694 22.7492C13.417 22.5524 13.6329 22.3809 13.6456 22.3746C13.6583 22.3619 13.5948 22.2666 13.4996 22.1587C13.3154 21.9365 13.3281 21.8412 13.5567 21.8412C13.6393 21.8412 13.9504 21.7841 14.2361 21.7206C18.8964 20.6285 22.1535 16.3682 21.9504 11.6254C21.8869 10.1206 21.5631 8.87616 20.8901 7.52378C20.1853 6.11426 19.0932 4.82537 17.8361 3.91743C16.871 3.22537 15.3599 2.53331 14.2805 2.29204C14.0774 2.24759 14.0329 2.25394 14.0075 2.34283Z" fill="white"/>
<path d="M10.0327 6.69209C10.0327 7.25717 10.0264 7.29526 9.89306 7.33971C9.81052 7.3651 9.5629 7.49844 9.33433 7.63812C9.10576 7.7778 8.89624 7.89209 8.85814 7.89209C8.8264 7.89209 8.58513 7.77145 8.33116 7.61907C8.07084 7.47304 7.84227 7.37145 7.81687 7.4032C7.74068 7.48574 5.90576 10.6794 5.90576 10.7238C5.90576 10.7429 6.12798 10.8826 6.401 11.0349L6.88989 11.308V11.9937V12.6857L6.401 12.9588C6.12798 13.1111 5.90576 13.2572 5.90576 13.2762C5.90576 13.3143 7.77243 16.5524 7.82957 16.6159C7.84862 16.6349 8.07719 16.527 8.33116 16.381C8.58513 16.2286 8.8264 16.108 8.85814 16.108C8.89624 16.108 9.10576 16.2222 9.33433 16.3619C9.5629 16.5016 9.81052 16.6349 9.89306 16.6603C10.0264 16.7048 10.0327 16.7429 10.0327 17.308V17.9048H12.001H13.9693V17.308C13.9693 16.7429 13.9756 16.7048 14.1153 16.6603C14.1915 16.6349 14.4391 16.5016 14.6677 16.3619C14.8962 16.2222 15.1121 16.108 15.1439 16.108C15.182 16.108 15.4169 16.2286 15.6708 16.381C15.9248 16.527 16.1534 16.6349 16.1724 16.6159C16.2296 16.5524 18.0962 13.3143 18.0962 13.2762C18.0962 13.2572 17.874 13.1111 17.601 12.9588L17.1058 12.6794V12V11.3207L17.601 11.0413C17.874 10.8889 18.0962 10.7429 18.0962 10.7238C18.0962 10.6794 16.2613 7.48574 16.1851 7.4032C16.1597 7.37145 15.9312 7.47304 15.6708 7.61907C15.4169 7.77145 15.182 7.89209 15.1439 7.89209C15.1121 7.89209 14.8962 7.7778 14.6677 7.63812C14.4391 7.49844 14.1915 7.3651 14.1153 7.33971C13.9756 7.29526 13.9693 7.25717 13.9693 6.69209V6.09526H12.001H10.0327V6.69209ZM12.6486 7.78415L12.6677 8.2032L13.0169 8.31113C13.582 8.48891 14.0772 8.76193 14.547 9.15558L14.9851 9.52383L15.3026 9.33336C15.4804 9.22542 15.6454 9.14288 15.6708 9.14288C15.7089 9.14288 16.2423 10.0508 16.3058 10.2222C16.3185 10.2476 16.1661 10.3619 15.9693 10.4762C15.6835 10.6413 15.6264 10.6984 15.6518 10.8127C15.7851 11.3968 15.8105 11.581 15.8105 12C15.8105 12.4191 15.7851 12.6032 15.6518 13.1873C15.6264 13.3016 15.6835 13.3588 15.9693 13.5238C16.1597 13.6318 16.3185 13.7397 16.3185 13.7524C16.3185 13.8095 15.7343 14.7937 15.6835 14.8254C15.6518 14.8445 15.4804 14.7746 15.3026 14.6667L14.9851 14.4762L14.547 14.8445C14.0772 15.2381 13.582 15.5111 13.0169 15.6889L12.6677 15.7968L12.6486 16.2159L12.6296 16.6349H12.001H11.3724L11.3534 16.2095L11.3343 15.7842L10.9851 15.6826C10.4327 15.5175 9.93116 15.2381 9.45497 14.8445L9.01687 14.4762L8.69941 14.6667C8.52163 14.7746 8.35021 14.8445 8.31846 14.8254C8.26767 14.7937 7.68354 13.8095 7.68354 13.7524C7.68354 13.7397 7.84227 13.6381 8.03275 13.5302C8.32481 13.3651 8.3756 13.308 8.35021 13.1873C8.21687 12.6032 8.19148 12.4191 8.19148 12C8.19148 11.581 8.21687 11.3968 8.35021 10.8127C8.3756 10.6921 8.32481 10.6349 8.03275 10.4699C7.83592 10.3619 7.68354 10.2476 7.69624 10.2222C7.75973 10.0508 8.29306 9.14288 8.33116 9.14288C8.35656 9.14288 8.52163 9.22542 8.69941 9.33336L9.01687 9.52383L9.45497 9.15558C9.92481 8.76193 10.42 8.48891 10.9851 8.31113L11.3343 8.2032L11.3534 7.78415L11.3724 7.3651H12.001H12.6296L12.6486 7.78415Z" fill="white"/>
<path d="M11.5757 9.46665C9.97568 9.73331 8.9979 11.5047 9.63283 12.9841C10.4074 14.8 12.9154 15.1111 14.0519 13.5365C15.2011 11.9428 14.2995 9.77776 12.3693 9.4603C12.1471 9.42855 11.9566 9.40315 11.9376 9.40315C11.9185 9.4095 11.7598 9.4349 11.5757 9.46665ZM12.6995 10.946C13.0741 11.1936 13.2392 11.5111 13.2392 12C13.2392 12.4952 13.0741 12.8063 12.6804 13.0666C12.3249 13.3016 11.709 13.3143 11.3471 13.0857C10.8646 12.7873 10.6423 12.1968 10.7884 11.6317C10.8773 11.3079 11.2646 10.8889 11.5693 10.8C11.9058 10.6984 12.4265 10.7619 12.6995 10.946Z" fill="white"/>
</svg>
