<svg width="24" height="24" viewBox="0 0 24 24" fill="none" xmlns="http://www.w3.org/2000/svg">
<g clip-path="url(#clip0_248_3694)">
<path d="M10.7109 0.117189C9.15469 0.370314 7.74844 0.99844 6.53438 1.97813L6.15 2.2875L5.38594 1.51875L4.61719 0.750002H2.68594H0.75V1.45313V2.15625H2.32969H3.91406L4.52813 2.77031L5.14688 3.38906L4.875 3.79219C4.34063 4.58906 3.90938 5.59688 3.70781 6.52031C3.38438 8.03438 3.52969 9.80156 4.15313 11.7234C4.8375 13.8563 6.29063 16.5516 8.025 18.8953C8.22656 19.1719 8.39062 19.4156 8.39062 19.4344C8.39062 19.4578 8.01563 19.8516 7.55625 20.3109L6.72656 21.1406H5.45625H4.18125L4.05 20.8688C3.87188 20.5031 3.47344 20.1141 3.07031 19.9172C2.75156 19.7625 2.72813 19.7578 2.15625 19.7578C1.58438 19.7578 1.56094 19.7625 1.24219 19.9172C0.810938 20.1281 0.440625 20.4984 0.229688 20.9297C0.075 21.2484 0.0703125 21.2719 0.0703125 21.8438C0.0703125 22.4156 0.075 22.4391 0.229688 22.7578C0.440625 23.1891 0.810938 23.5594 1.24219 23.7703C1.56094 23.925 1.58438 23.9297 2.15625 23.9297C2.72813 23.9297 2.75156 23.925 3.07031 23.7703C3.47344 23.5734 3.87188 23.1844 4.05 22.8188L4.18125 22.5469H5.80781H7.42969L8.39062 21.5859L9.35156 20.6297L9.68438 21.0375C10.1531 21.6141 10.9688 22.5328 11.5266 23.1094L12 23.6016L12.4734 23.1094C13.0313 22.5328 13.8469 21.6141 14.3156 21.0375L14.6484 20.6297L15.6094 21.5859L16.5703 22.5469H18.1922H19.8188L19.95 22.8141C20.1281 23.1844 20.5266 23.5734 20.9297 23.7703C21.2484 23.925 21.2719 23.9297 21.8438 23.9297C22.4156 23.9297 22.4391 23.925 22.7578 23.7703C23.1891 23.5594 23.5594 23.1891 23.7703 22.7578C23.925 22.4391 23.9297 22.4156 23.9297 21.8438C23.9297 21.2719 23.925 21.2484 23.7703 20.9297C23.5594 20.4984 23.1891 20.1281 22.7578 19.9172C22.4391 19.7625 22.4156 19.7578 21.8438 19.7578C21.2719 19.7578 21.2484 19.7625 20.9297 19.9172C20.5266 20.1141 20.1281 20.5031 19.95 20.8688L19.8188 21.1406H18.5438H17.2734L16.4438 20.3109C15.9844 19.8516 15.6094 19.4578 15.6094 19.4344C15.6094 19.4156 15.7734 19.1719 15.975 18.8953C17.6391 16.6406 19.0453 14.0813 19.7531 12.0141C20.5922 9.55781 20.6813 7.48125 20.0297 5.61094C19.8797 5.17969 19.5094 4.39219 19.2563 3.975L19.1484 3.79688L19.9688 2.97656L20.7891 2.15625H22.3688H23.9531V1.45313V0.750002H22.0219H20.0859L19.1391 1.69688L18.1922 2.63906L17.8266 2.29219C16.7344 1.26563 15.2391 0.510939 13.6547 0.182814C13.0406 0.0515633 11.3391 0.0187511 10.7109 0.117189ZM12.9609 1.55156C15.1922 1.8375 17.2828 3.3 18.2906 5.27344C18.7875 6.25313 18.9938 7.09219 18.9938 8.15625C18.9984 10.9547 17.4094 14.55 14.3953 18.5531C13.4297 19.8328 12.1031 21.4219 12 21.4219C11.9438 21.4219 11.3156 20.7047 10.6219 19.8563C8.25 16.95 6.47813 14.0016 5.64375 11.5547C5.19844 10.2563 5.00625 9.23906 5.00625 8.17969C5.00156 7.0875 5.19844 6.27656 5.70938 5.27344C6.7875 3.15469 9.075 1.65938 11.4844 1.50938C12.0516 1.47188 12.4313 1.48125 12.9609 1.55156ZM2.50313 21.2766C2.70469 21.4125 2.8125 21.6047 2.8125 21.8438C2.8125 22.5094 1.95938 22.7484 1.58906 22.1906C1.40156 21.9047 1.50469 21.4781 1.80938 21.2766C1.9875 21.1594 2.325 21.1594 2.50313 21.2766ZM22.1906 21.2766C22.3922 21.4125 22.5 21.6047 22.5 21.8438C22.5 22.5094 21.6469 22.7484 21.2766 22.1906C21.0891 21.9047 21.1922 21.4781 21.4969 21.2766C21.675 21.1594 22.0125 21.1594 22.1906 21.2766Z" fill="white"/>
<path d="M11.0205 3.63262C9.1502 4.05449 7.78145 5.3248 7.23301 7.14824C7.11582 7.54668 7.10645 7.62637 7.10645 8.48418C7.10645 9.34668 7.11113 9.42168 7.23301 9.82012C7.75332 11.5264 8.9627 12.7357 10.6643 13.2514C11.0627 13.3686 11.1377 13.3779 12.0002 13.3779C12.858 13.3779 12.9424 13.3686 13.3361 13.2514C15.0236 12.7451 16.2471 11.5217 16.7674 9.82012C16.8893 9.42168 16.8939 9.34668 16.8939 8.48418C16.8939 7.62168 16.8893 7.54668 16.7674 7.14824C16.3408 5.75605 15.4643 4.69199 14.2268 4.07793C13.4533 3.69355 13.0596 3.5998 12.1174 3.58105C11.5455 3.56699 11.2361 3.58574 11.0205 3.63262ZM12.858 6.59512C13.2799 6.79668 13.6877 7.1998 13.8893 7.62637C14.0299 7.92637 14.0393 7.97324 14.0393 8.48418C14.0393 8.99512 14.0299 9.04199 13.8893 9.34199C13.6877 9.76855 13.2846 10.1717 12.858 10.3732C12.558 10.5139 12.5111 10.5232 12.0002 10.5232C11.4893 10.5232 11.4424 10.5139 11.1424 10.3732C10.7158 10.1717 10.3127 9.76855 10.1111 9.34199C9.97051 9.04199 9.96113 8.99512 9.96113 8.48418C9.96113 7.97324 9.97051 7.92637 10.1111 7.62637C10.2846 7.26074 10.6971 6.82012 11.0158 6.65605C11.3955 6.45918 11.5783 6.42168 12.0705 6.43574C12.4877 6.44512 12.5768 6.46387 12.858 6.59512Z" fill="white"/>
<path d="M11.6063 7.87041C11.3906 8.01572 11.2969 8.19385 11.2969 8.48447C11.2969 8.7751 11.3906 8.95322 11.6063 9.09854C11.7891 9.22041 12.2109 9.22041 12.3938 9.09854C12.6094 8.95322 12.7031 8.7751 12.7031 8.48447C12.7031 8.19385 12.6094 8.01572 12.3938 7.87041C12.3 7.80947 12.1734 7.78135 12 7.78135C11.8266 7.78135 11.7 7.80947 11.6063 7.87041Z" fill="white"/>
</g>
<defs>
<clipPath id="clip0_248_3694">
<rect width="24" height="24" fill="white"/>
</clipPath>
</defs>
</svg>
