<svg width="24" height="24" viewBox="0 0 24 24" fill="none" xmlns="http://www.w3.org/2000/svg">
<path d="M9.20156 0.79215C8.5875 1.01715 8.15625 1.50934 8.02031 2.14684C7.94531 2.50309 7.95469 3.25778 8.03906 3.58121C8.19844 4.19528 8.6625 4.67809 9.29531 4.88902C9.36563 4.91715 9.375 5.00153 9.375 5.75621V6.59528L8.84531 6.76871C5.38125 7.90777 3.05156 11.1281 3.04688 14.789C3.04688 15.8343 3.15938 16.5656 3.47344 17.5078C3.89063 18.764 4.49531 19.7625 5.40938 20.7093C6.79219 22.139 8.47969 22.9875 10.4859 23.25C11.1234 23.339 12.5438 23.2875 13.1719 23.1562C17.8359 22.1953 20.7656 17.7843 19.8469 13.1015C19.7344 12.525 19.4344 11.6531 19.1625 11.1093L18.9141 10.6172L19.7438 9.76871C20.4844 9.01402 20.5922 8.88278 20.7516 8.54996C20.925 8.18902 20.9297 8.16559 20.9297 7.64059C20.9297 7.11559 20.925 7.09215 20.7563 6.7359C20.2313 5.63902 18.9703 5.1984 17.8594 5.72809C17.6063 5.84996 17.4094 6.01871 16.725 6.69371L15.8953 7.50934L15.3188 7.2234C15 7.06871 14.5031 6.86246 14.2172 6.76871L13.6875 6.59059V5.76559V4.9359L14.0344 4.76246C14.7563 4.40621 15.0938 3.78746 15.0938 2.81246C15.0938 1.8609 14.7656 1.25153 14.0578 0.881214L13.7578 0.726526L11.6016 0.717152C9.59063 0.703089 9.42656 0.712463 9.20156 0.79215ZM13.4859 2.26871C13.6031 2.36715 13.6172 2.41871 13.6313 2.73277C13.6547 3.1359 13.5703 3.37496 13.3781 3.46403C13.1906 3.5484 9.82969 3.53434 9.66094 3.44996C9.48281 3.35621 9.42188 3.19215 9.42188 2.78903C9.42188 2.48903 9.43594 2.42809 9.54375 2.30153L9.66563 2.15621H11.5078H13.3547L13.4859 2.26871ZM12.2344 5.65778V6.35153H11.5312H10.8281V5.65778V4.96871H11.5312H12.2344V5.65778ZM19.1719 7.0734C19.4531 7.27496 19.575 7.64059 19.4438 7.88903C19.4156 7.94528 19.0969 8.30153 18.7359 8.68121L18.0797 9.37028L17.6016 8.89215L17.1281 8.41403L17.8078 7.72027C18.2344 7.28903 18.5438 7.01246 18.6328 6.98903C18.8109 6.93278 19.0219 6.97028 19.1719 7.0734ZM10.7813 8.16559C10.7813 8.61559 10.8422 8.80778 11.0391 8.99996C11.1703 9.12652 11.2453 9.15934 11.4516 9.17809C11.7328 9.20152 11.9016 9.1359 12.0938 8.92965C12.2016 8.81715 12.2109 8.7609 12.225 8.31559C12.2391 7.8984 12.2531 7.82809 12.3188 7.82809C12.3656 7.82809 12.6422 7.87965 12.9375 7.94059C13.8797 8.13278 14.6766 8.47496 15.5297 9.0609L15.9422 9.34215L15.6609 9.62809C15.2156 10.0968 15.1641 10.4906 15.5109 10.8328C15.8531 11.175 16.2469 11.1281 16.7109 10.6828L16.9969 10.4062L17.2125 10.7015C17.8266 11.55 18.2484 12.525 18.4406 13.5421C18.5578 14.1515 18.5859 14.1093 18.075 14.1093C17.7 14.1093 17.6156 14.1234 17.4797 14.2171C17.1609 14.4281 17.0578 14.8875 17.2641 15.1875C17.4609 15.4828 17.5875 15.539 18.075 15.5531C18.4266 15.5671 18.5156 15.5859 18.5156 15.6421C18.5156 15.8109 18.3094 16.6968 18.1875 17.0718C18.1125 17.2968 17.9531 17.6765 17.8313 17.9156C17.6109 18.3562 17.1563 19.0734 17.0344 19.1765C16.9781 19.2234 16.9078 19.1765 16.6453 18.9187C16.3125 18.6 16.2563 18.5765 15.8906 18.6093C15.6141 18.6328 15.3516 18.8718 15.3 19.1531C15.2438 19.4625 15.3141 19.6359 15.6422 19.9734L15.9469 20.2921L15.6516 20.5078C14.7469 21.1734 13.5047 21.6796 12.5156 21.7828L12.2344 21.8109V21.3703C12.2344 21.0093 12.2156 20.9015 12.1406 20.775C12.0094 20.564 11.6813 20.4187 11.4234 20.4562C10.9922 20.5265 10.7859 20.8406 10.7813 21.4312V21.7968H10.6547C10.4531 21.7968 9.70313 21.6281 9.29531 21.4921C8.63906 21.2765 7.90781 20.8828 7.21875 20.3812L7.10625 20.3015L7.39219 20.0062C7.8 19.5796 7.87031 19.275 7.64062 18.9046C7.52344 18.7078 7.30313 18.6 7.03125 18.6C6.75938 18.6 6.65625 18.6515 6.32344 18.9703L6.06094 19.2187L5.96719 19.1109C5.78438 18.9187 5.33906 18.1875 5.16094 17.7984C4.93594 17.3156 4.71563 16.6406 4.62188 16.1296C4.50469 15.5296 4.47656 15.5718 4.9875 15.5531C5.34375 15.5437 5.45625 15.5203 5.55938 15.4406C6.00469 15.1078 6.01406 14.5125 5.57812 14.2125C5.44688 14.1234 5.3625 14.1093 4.9875 14.1093C4.47188 14.1093 4.49531 14.1468 4.62188 13.5C4.80938 12.5156 5.26406 11.4797 5.87813 10.65L6.06094 10.4015L6.35156 10.6828C6.81094 11.1281 7.20938 11.1797 7.55156 10.8375C7.88906 10.4953 7.8375 10.0921 7.40625 9.64215C7.25156 9.48746 7.13906 9.34215 7.15313 9.3234C7.16719 9.29996 7.38281 9.14528 7.63594 8.97653C8.40469 8.46559 9.27656 8.10465 10.1766 7.92184C10.8328 7.79528 10.7813 7.77184 10.7813 8.16559Z" fill="white"/>
<path d="M11.283 10.6125C10.9877 10.7203 10.8705 10.8703 10.8049 11.2172C10.7767 11.3672 10.7392 11.4094 10.4955 11.5359C9.73142 11.9438 9.27205 12.8813 9.41736 13.7391C9.48767 14.1703 9.65174 14.5172 9.94236 14.8313C10.3549 15.2859 10.7533 15.4734 11.4564 15.5578C11.7799 15.5953 11.8408 15.6188 11.9814 15.7547C12.3611 16.125 12.2299 16.7156 11.733 16.8797C11.447 16.9734 11.2595 16.8984 10.9455 16.5703C10.7299 16.3453 10.6174 16.2656 10.4861 16.2422C9.9283 16.1344 9.4783 16.5984 9.61424 17.1375C9.69861 17.4703 10.2283 18.0188 10.6314 18.1828C10.7486 18.2344 10.7767 18.2766 10.8049 18.45C10.8564 18.8063 11.1658 19.0781 11.5174 19.0781C11.8924 19.0781 12.2299 18.7688 12.2392 18.4266C12.2392 18.2672 12.2533 18.2484 12.5205 18.1219C13.3033 17.7516 13.7955 16.7906 13.6455 15.9094C13.5424 15.3047 13.1861 14.7469 12.7033 14.4375C12.4174 14.2547 11.972 14.1094 11.6814 14.1094C11.0814 14.1047 10.7017 13.6313 10.9174 13.1531C11.0345 12.8859 11.2408 12.75 11.5314 12.75C11.7752 12.75 11.9486 12.8484 12.1174 13.0781C12.2955 13.3219 12.4595 13.4063 12.7408 13.4063C13.0361 13.4063 13.233 13.3078 13.3642 13.0922C13.4814 12.9 13.4908 12.5391 13.383 12.3234C13.2564 12.0844 12.8064 11.6625 12.5064 11.5078C12.258 11.3813 12.2345 11.3531 12.2345 11.2125C12.2345 10.7719 11.7236 10.4531 11.283 10.6125Z" fill="white"/>
</svg>
