<svg width="24" height="24" viewBox="0 0 24 24" fill="none" xmlns="http://www.w3.org/2000/svg">
<path d="M11.0156 0.660936C9.35621 0.848436 7.73433 1.52344 6.42652 2.57812C2.98121 5.35312 2.12339 10.2984 4.43433 14.1C5.24996 15.4406 6.54371 16.65 7.91246 17.3391L8.20308 17.4844V17.8781V18.2672L8.02027 18.3234C7.80464 18.3844 7.60777 18.5953 7.57027 18.8109C7.55152 18.8953 7.54683 19.6453 7.55621 20.4844C7.57027 21.8812 7.57964 22.0266 7.66402 22.2281C7.89371 22.7625 8.28746 23.1328 8.80777 23.2969C9.08902 23.3859 9.22964 23.3906 12 23.3906C14.7562 23.3906 14.9109 23.3859 15.1921 23.2969C15.7593 23.1234 16.2375 22.6219 16.3828 22.0547C16.4812 21.6703 16.4859 18.9187 16.3875 18.6844C16.3125 18.5016 16.125 18.3469 15.9375 18.3047L15.7968 18.2719V17.8781V17.4844L16.1625 17.3016C17.4421 16.6547 18.7546 15.4266 19.5421 14.1422C21.9046 10.275 21.0234 5.30625 17.475 2.49844C15.6937 1.0875 13.289 0.403124 11.0156 0.660936ZM13.4671 2.0625C15.7828 2.55469 17.6859 4.01719 18.7406 6.11719C20.1703 8.96719 19.6453 12.3937 17.4328 14.6906C16.8375 15.3141 16.2046 15.7828 15.3703 16.2187C14.9625 16.4344 14.6625 16.6219 14.6062 16.7016C14.5171 16.8187 14.5078 16.9125 14.4937 17.5594L14.475 18.2812H12H9.52496L9.50621 17.5594C9.49214 16.9172 9.48277 16.8187 9.39371 16.7016C9.33746 16.6219 9.05152 16.4437 8.66714 16.2422C7.76246 15.7687 7.36871 15.4828 6.67496 14.7891C5.57808 13.6922 4.91246 12.4734 4.58433 10.9406C4.49058 10.4953 4.47652 10.3031 4.47652 9.46875C4.48121 8.41406 4.54683 7.95937 4.83277 7.10156C5.68121 4.53281 7.93121 2.55937 10.5796 2.06719C11.3062 1.93125 11.3296 1.92656 12.2109 1.94531C12.7828 1.95937 13.1343 1.99219 13.4671 2.0625ZM15.1312 20.7L15.1171 21.8062L14.9625 21.9422L14.8125 22.0781H12H9.18746L9.03746 21.9422L8.88277 21.8062L8.86871 20.7L8.85464 19.5937H12H15.1453L15.1312 20.7Z" fill="white"/>
<path d="M11.0156 3.21094C9.525 3.45 8.04375 4.28906 7.12969 5.40937C6.60469 6.05625 6.24844 6.69375 6 7.425C5.74688 8.175 5.69531 8.52187 5.69531 9.46875C5.69531 10.3922 5.74688 10.7578 5.98125 11.475C6.58594 13.3266 8.11875 14.8641 9.98906 15.4875C10.6828 15.7172 11.0672 15.7734 12 15.7734C13.1391 15.7734 13.7766 15.6422 14.7141 15.2062C15.9422 14.6391 17.175 13.4109 17.7234 12.2062C18.1688 11.2359 18.3047 10.5891 18.3047 9.46875C18.3047 8.52187 18.2531 8.175 18 7.425C17.2453 5.20312 15.2812 3.5625 12.9375 3.21094C12.3938 3.12656 11.55 3.12656 11.0156 3.21094ZM12.8484 4.52344C14.9297 4.88437 16.5844 6.53906 16.9453 8.62031C17.2266 10.2188 16.6922 11.8781 15.5203 13.0312C14.8828 13.6641 14.1516 14.0906 13.3031 14.325C12.6609 14.5031 11.6906 14.5312 11.025 14.3953C9.1125 13.9969 7.61719 12.5766 7.12969 10.6875C6.99375 10.1766 6.94688 9.23906 7.03125 8.73281C7.15781 7.92656 7.51406 7.09687 8.00625 6.44062C9.12188 4.95937 11.0344 4.20469 12.8484 4.52344Z" fill="white"/>
<path d="M11.6434 5.76091C11.3434 5.94372 11.3388 5.9906 11.3528 7.96872L11.3669 9.74997L11.545 9.92341L11.7184 10.1015L13.2091 10.1156C14.6997 10.1297 14.6997 10.1297 14.8591 10.0218C15.2997 9.72654 15.2716 9.13122 14.8075 8.89685C14.6716 8.82185 14.5075 8.81247 13.6544 8.81247H12.6559V7.49529C12.6559 6.0281 12.6419 5.94372 12.3513 5.7656C12.1591 5.64372 11.8356 5.64372 11.6434 5.76091Z" fill="white"/>
</svg>
