<svg width="24" height="24" viewBox="0 0 24 24" fill="none" xmlns="http://www.w3.org/2000/svg">
<path d="M3.0375 1.58906C2.35781 1.80937 1.77656 2.40469 1.575 3.08906C1.50938 3.31875 1.5 4.13906 1.5 10.8797C1.5 18.1406 1.50469 18.4219 1.58906 18.6984C1.875 19.6125 2.73281 20.25 3.675 20.25C4.22344 20.25 4.5 20.0016 4.5 19.5C4.5 19.05 4.25156 18.7875 3.77344 18.7266C3.47344 18.6891 3.25313 18.5531 3.12188 18.3281C3.02344 18.1641 3.02344 18.1219 3.00938 12.0281C3 6.17812 3 5.89687 3.07969 5.93437C3.12656 5.95781 7.04531 5.98594 11.7891 6C20.3063 6.02344 20.4141 6.02344 20.5734 6.11719C20.8922 6.30469 20.9953 6.5625 21 7.15781V7.5H18.1734C15.0938 7.5 15.0938 7.5 14.625 7.77187C13.9031 8.18906 13.5 8.89687 13.5 9.75C13.5 10.6031 13.9031 11.3109 14.625 11.7281C15.0938 12 15.0938 12 18.1734 12H21V14.9625C21 16.5937 20.9766 18.0141 20.9531 18.1125C20.9016 18.3422 20.7797 18.5109 20.5734 18.6328C20.4188 18.7219 20.3063 18.7266 17.9297 18.75C15.6328 18.7734 15.4313 18.7781 15.3141 18.8578C15.1031 18.9937 15 19.2094 15 19.5C15 19.8047 15.1125 20.0156 15.3375 20.1562C15.4875 20.2453 15.5813 20.25 18.0797 20.25C20.4844 20.25 20.6813 20.2453 20.9484 20.1609C21.6375 19.9453 22.2234 19.3547 22.425 18.6609C22.4906 18.4312 22.5 17.7422 22.5 12.375C22.5 7.00781 22.4906 6.31875 22.425 6.08906C22.2234 5.39531 21.6375 4.80469 20.9484 4.58906C20.7094 4.51406 20.5125 4.5 19.7063 4.5H18.75V3.91875C18.75 3.47812 18.7266 3.26719 18.6609 3.05156C18.4453 2.3625 17.8547 1.77656 17.1609 1.575C16.9313 1.50937 16.1766 1.5 10.1063 1.50469C3.64219 1.50469 3.29063 1.50937 3.0375 1.58906ZM16.6125 3.04688C17.0531 3.14531 17.2078 3.39844 17.2406 4.03594L17.2641 4.5L10.425 4.49062C3.62344 4.47656 3.58594 4.47656 3.42188 4.37812C2.83125 4.03594 2.95781 3.20156 3.62344 3.04688C3.83906 2.99531 16.3922 2.99531 16.6125 3.04688ZM21 9.75V10.5047L18.2953 10.4906C15.6609 10.4766 15.5813 10.4719 15.4219 10.3781C14.8313 10.0359 14.9578 9.20156 15.6234 9.04688C15.7031 9.02344 16.95 9.00937 18.3891 9.00469L21 9V9.75Z" fill="white"/>
<path d="M9.03737 12.0891C8.34831 12.3094 7.77175 12.9094 7.57018 13.6125C7.50925 13.8187 7.49518 14.0062 7.50925 14.3625C7.53737 14.9156 7.6405 15.225 7.92643 15.6047C8.02956 15.7406 8.10925 15.8578 8.09987 15.8625C8.0905 15.8719 7.96862 15.9234 7.82331 15.9797C7.46706 16.1203 6.8905 16.4953 6.57643 16.7953C5.90143 17.4281 5.45612 18.2484 5.29675 19.1531C5.20768 19.6641 5.25456 20.6766 5.38581 21.0094C5.61081 21.5906 6.14987 22.1297 6.7405 22.3687L7.00768 22.4766H9.74987H12.4921L12.7592 22.3687C13.3452 22.1297 13.8796 21.5953 14.1186 21.0094C14.2171 20.7656 14.2264 20.6672 14.2264 19.9453C14.2264 19.0641 14.1842 18.8297 13.9077 18.1875C13.4952 17.2406 12.5999 16.3453 11.6952 15.9844C11.5405 15.9234 11.4092 15.8719 11.3999 15.8625C11.3905 15.8578 11.4702 15.7406 11.5733 15.6047C11.8592 15.225 11.9624 14.9156 11.9905 14.3625C12.0046 14.0062 11.9905 13.8187 11.9296 13.6125C11.728 12.9 11.1467 12.3047 10.4483 12.0891C10.0686 11.9719 9.40768 11.9719 9.03737 12.0891ZM10.1155 13.6406C10.7249 14.0109 10.4624 14.9531 9.74987 14.9531C9.35143 14.9531 9.04675 14.6484 9.04675 14.25C9.04675 13.7062 9.65143 13.3594 10.1155 13.6406ZM10.6405 17.2266C11.5967 17.5172 12.3983 18.3234 12.6233 19.2422C12.8108 19.9922 12.7639 20.4234 12.4686 20.7187C12.3374 20.85 12.2249 20.9109 12.0514 20.9484C11.7186 21.0187 7.78112 21.0187 7.44831 20.9484C7.27487 20.9109 7.16237 20.85 7.03112 20.7187C6.73581 20.4234 6.68893 19.9922 6.87643 19.2422C7.13893 18.1875 8.12331 17.3156 9.25768 17.1375C9.52956 17.0953 10.3874 17.1516 10.6405 17.2266Z" fill="white"/>
</svg>
