<svg width="24" height="24" viewBox="0 0 24 24" fill="none" xmlns="http://www.w3.org/2000/svg">
<path d="M11.4531 1.60835C11.1957 1.74239 11.1249 1.82537 10.8289 2.39345L10.4943 3.03175L9.81874 3.13388C8.86003 3.28707 8.55762 3.53601 8.55762 4.18069C8.55762 4.57005 8.61553 4.66579 9.17531 5.23388L9.64502 5.7126L9.5485 6.19133C9.37478 7.11047 9.46486 7.5126 9.92169 7.78707C10.282 8.00409 10.6295 7.95941 11.3115 7.61473L11.9035 7.30835L12.5019 7.61473C13.1775 7.95941 13.5249 8.00409 13.8852 7.78707C14.3421 7.5126 14.4321 7.11047 14.2584 6.19133L14.1619 5.7126L14.6316 5.23388C15.1914 4.66579 15.2493 4.57005 15.2493 4.18069C15.2493 3.53601 14.9469 3.28707 13.9882 3.13388L13.3126 3.03175L12.978 2.39345C12.682 1.82537 12.6112 1.74239 12.3539 1.60835C12.1994 1.53175 11.9935 1.46792 11.9035 1.46792C11.8134 1.46792 11.6075 1.53175 11.4531 1.60835ZM12.1608 3.55515C12.4246 4.06579 12.682 4.23813 13.2611 4.30196C13.467 4.3275 13.6407 4.36579 13.6407 4.38494C13.6407 4.40409 13.4863 4.5892 13.2933 4.78707C12.8879 5.20835 12.8236 5.4126 12.9265 5.96792C12.9651 6.17218 12.9973 6.36367 12.9973 6.3892C12.9973 6.42111 12.7914 6.34452 12.534 6.22324C12.2767 6.10196 11.9935 5.99984 11.9035 5.99984C11.8134 5.99984 11.5303 6.10196 11.2729 6.22324C11.0155 6.34452 10.8096 6.42111 10.8096 6.3892C10.8096 6.36367 10.8418 6.17218 10.8804 5.96792C10.9834 5.4126 10.919 5.20835 10.5136 4.78707C10.3206 4.5892 10.1662 4.40409 10.1662 4.38494C10.1662 4.36579 10.3399 4.3275 10.5458 4.30196C11.1249 4.23813 11.3823 4.06579 11.6461 3.55515C11.7683 3.31898 11.8842 3.1275 11.9035 3.1275C11.9228 3.1275 12.0386 3.31898 12.1608 3.55515Z" fill="white"/>
<path d="M4.27872 5.22112C4.01491 5.38708 3.9377 5.48921 3.60312 6.12112L3.31357 6.66368L2.67014 6.7658C1.91732 6.8807 1.65352 7.01474 1.47979 7.37219C1.22885 7.88283 1.3318 8.16368 2.01384 8.85304L2.46424 9.31261L2.35486 9.97006C2.23904 10.6977 2.27121 10.9467 2.52215 11.2211C2.93395 11.6552 3.32644 11.6615 4.13073 11.2403L4.72912 10.9275L5.34038 11.2403C6.18328 11.6679 6.5629 11.6488 6.96826 11.1764C7.20633 10.8956 7.23207 10.6722 7.10982 9.95091L7.00043 9.30623L7.48301 8.81474C8.14574 8.15091 8.25513 7.819 7.95915 7.31474C7.77255 6.98283 7.48944 6.85517 6.75593 6.75304L6.14467 6.67006L5.84226 6.09559C5.66853 5.77644 5.51411 5.48283 5.4948 5.43814C5.42403 5.29772 4.97362 5.10623 4.71625 5.10623C4.58113 5.10623 4.3881 5.15729 4.27872 5.22112ZM4.94789 7.1424C5.231 7.69134 5.4755 7.85091 6.19615 7.94666L6.51143 7.98495L6.1511 8.35517C5.95808 8.55942 5.77791 8.80836 5.75218 8.9041C5.70714 9.07644 5.76505 9.81048 5.83582 9.99559C5.86156 10.0658 5.74574 10.0275 5.41759 9.86793C4.85137 9.58708 4.61974 9.5807 4.11786 9.82963C3.90553 9.93176 3.71893 10.0211 3.69963 10.0211C3.68033 10.0211 3.68033 9.81048 3.70606 9.54878C3.7318 9.28708 3.7318 8.99985 3.70606 8.9041C3.68033 8.80836 3.50017 8.55942 3.30714 8.35517L2.94682 7.98495L3.2621 7.94666C4.03421 7.83814 4.22081 7.71687 4.52966 7.09772C4.62617 6.919 4.70982 6.7658 4.72912 6.7658C4.74842 6.7658 4.84494 6.93814 4.94789 7.1424Z" fill="white"/>
<path d="M18.5691 5.25304C18.3632 5.36793 18.2603 5.50836 17.99 6.03176L17.6619 6.67006L17.0506 6.75304C16.3107 6.85517 16.034 6.98283 15.8474 7.31474C15.5514 7.819 15.6608 8.15091 16.3236 8.81474L16.8061 9.30623L16.6967 9.95091C16.5745 10.6722 16.6002 10.8956 16.8383 11.1764C17.2437 11.6488 17.6104 11.6679 18.4597 11.2403L19.0774 10.9275L19.6823 11.2403C20.493 11.6615 20.8726 11.6552 21.2844 11.2211C21.5353 10.9467 21.5675 10.6977 21.4517 9.97006L21.3423 9.31261L21.7927 8.85304C22.4812 8.16368 22.5777 7.88283 22.3268 7.3658C22.153 7.01474 21.812 6.84878 21.0721 6.74665L20.493 6.67006L20.2034 6.11474C20.0426 5.81474 19.856 5.50197 19.7852 5.42538C19.4699 5.0807 18.9874 5.01048 18.5691 5.25304ZM19.2962 7.12963C19.5858 7.7041 19.8045 7.84453 20.5445 7.94666L20.8597 7.98495L20.4994 8.35517C20.3064 8.55942 20.1262 8.80836 20.1005 8.9041C20.0748 8.99985 20.0748 9.28708 20.1005 9.54878C20.1262 9.81048 20.1262 10.0211 20.1069 10.0211C20.0876 10.0211 19.901 9.93176 19.6887 9.82963C19.1868 9.5807 18.9552 9.58708 18.389 9.86793C18.0608 10.0275 17.945 10.0658 17.9707 9.99559C18.0415 9.81048 18.0994 9.07644 18.0544 8.9041C18.0286 8.80836 17.8485 8.55942 17.6555 8.35517L17.2951 7.98495L17.6104 7.94666C18.3504 7.84453 18.5691 7.7041 18.8587 7.12963C18.9616 6.93176 19.0581 6.7658 19.0774 6.7658C19.0967 6.7658 19.1933 6.93176 19.2962 7.12963Z" fill="white"/>
<path d="M11.1315 10.1233C9.28485 10.5127 7.97225 12.3382 8.22962 14.151C8.33901 14.9297 8.60925 15.5169 9.15617 16.168C9.29772 16.3339 9.40067 16.4807 9.3878 16.4871C9.37493 16.4999 9.22051 16.5765 9.04035 16.6659C8.86662 16.7488 8.49343 17.0488 8.20389 17.3297C7.3996 18.1212 7.04571 18.8999 6.9685 20.0616C6.92346 20.8148 7.01354 21.2169 7.30308 21.5616C7.6055 21.9063 7.8307 21.9956 8.75724 22.1424C10.8934 22.4807 12.9074 22.4807 15.0307 22.1488C15.9315 22.002 16.0538 21.9701 16.3369 21.7339C16.7358 21.3956 16.8259 21.1276 16.8194 20.2659C16.813 19.3914 16.7165 18.9893 16.3562 18.2871C16.0731 17.7446 15.243 16.8956 14.7669 16.6659C14.5867 16.5765 14.4323 16.4999 14.4194 16.4871C14.4066 16.4807 14.5095 16.3339 14.6511 16.168C15.983 14.5786 15.9251 12.5552 14.516 11.1382C13.6087 10.2318 12.3669 9.85521 11.1315 10.1233ZM12.8816 11.502C14.458 12.2169 14.8248 14.2148 13.6087 15.4148C12.3154 16.7041 10.1406 16.168 9.58727 14.4318C9.17547 13.1424 9.88324 11.8276 11.228 11.3807C11.6462 11.2467 12.4441 11.3041 12.8816 11.502ZM13.5765 17.5276C14.7991 17.885 15.6227 19.0659 15.5583 20.3744L15.539 20.7765L15.1529 20.8531C13.4157 21.2041 10.3916 21.2041 8.65429 20.8531L8.26823 20.7765L8.27466 20.1382C8.2811 19.5701 8.30684 19.4488 8.48056 19.0722C8.80871 18.3573 9.48432 17.751 10.205 17.5339C10.6747 17.3871 13.094 17.3871 13.5765 17.5276Z" fill="white"/>
</svg>
