<svg width="24" height="24" viewBox="0 0 24 24" fill="none" xmlns="http://www.w3.org/2000/svg">
<g clip-path="url(#clip0_248_3798)">
<path d="M10.7655 0.834085C9.80565 1.10923 9.21056 1.87709 9.20416 2.86251C9.20416 3.28484 9.23616 3.40641 9.41532 3.77115C9.78646 4.52621 10.4391 4.93573 11.2902 4.94213C11.6997 4.94213 11.8405 4.91014 12.1668 4.75657L12.5635 4.571L14.5152 5.86996C16.0061 6.86178 16.4604 7.19452 16.4348 7.27131C16.3453 7.48886 16.2109 8.21833 16.2109 8.48068C16.2109 8.63426 16.2557 8.97339 16.3133 9.23575C16.3644 9.5045 16.4028 9.73485 16.39 9.74125C16.3772 9.75405 15.9805 10.01 15.507 10.3043L14.6432 10.8482L14.1121 10.2788C12.9667 9.06298 11.6421 8.31431 9.99122 7.94318C9.33214 7.78961 7.66205 7.79601 6.96457 7.94318C4.21948 8.53827 2.03748 10.4579 1.15444 13.0366C0.853693 13.9197 0.770508 14.4636 0.770508 15.5322C0.770508 16.6008 0.853693 17.1447 1.15444 18.0277C1.78792 19.8834 3.18287 21.5023 4.92335 22.3917C6.12633 23.006 7.06055 23.23 8.4683 23.23C9.87604 23.23 10.8103 23.006 12.0132 22.3917C15.5646 20.5681 17.1515 16.2489 15.603 12.5823C15.4814 12.288 15.3982 12.032 15.4302 12.0128C15.4558 11.9872 15.8589 11.7313 16.3261 11.4433L17.1835 10.9122L17.3499 11.0658C17.657 11.3474 18.1177 11.6289 18.5592 11.8017C18.9368 11.9488 19.0904 11.968 19.7302 11.968C20.3573 11.968 20.5301 11.9488 20.882 11.8145C21.9378 11.4113 22.7377 10.5859 23.096 9.51729C23.256 9.03098 23.256 7.95598 23.096 7.46967C22.7377 6.40106 21.9378 5.56922 20.882 5.17249C20.5365 5.04451 20.3445 5.01892 19.7622 5.01252C18.8088 5.00612 18.2265 5.21088 17.5098 5.78678L17.2411 6.00434L15.3022 4.71177L13.3634 3.41921V2.90091C13.357 2.03067 12.9603 1.37159 12.2244 1.00685C11.7573 0.776495 11.2006 0.712507 10.7655 0.834085ZM11.7893 2.3762C11.9237 2.51058 11.9557 2.60656 11.9557 2.86251C11.9557 3.12486 11.9237 3.20805 11.7765 3.35522C11.6293 3.5024 11.5461 3.53439 11.2838 3.53439C11.0214 3.53439 10.9382 3.5024 10.7911 3.35522C10.6439 3.21445 10.6119 3.12486 10.6119 2.86891C10.6119 2.54257 10.7399 2.33141 10.9958 2.21623C11.2198 2.12025 11.6101 2.19703 11.7893 2.3762ZM20.6005 6.58023C20.9972 6.7722 21.4515 7.22011 21.6499 7.62964C21.7779 7.89199 21.8035 8.05196 21.8035 8.49348C21.8035 9.14616 21.6499 9.51729 21.202 9.96521C20.754 10.4131 20.3829 10.5667 19.7302 10.5667C19.0776 10.5667 18.7064 10.4131 18.2585 9.96521C17.8106 9.51729 17.657 9.14616 17.657 8.49348C17.657 8.05196 17.6826 7.89199 17.8106 7.62964C18.0857 7.06654 18.6552 6.59303 19.2503 6.43946C19.5767 6.34987 20.2613 6.42666 20.6005 6.58023ZM9.5177 9.29333C11.5205 9.64527 13.2418 10.9314 14.1441 12.7487C15.6862 15.8585 14.3936 19.6466 11.2518 21.208C8.14836 22.7501 4.34105 21.4511 2.79254 18.3157C1.58316 15.8777 2.08227 12.9599 4.03391 11.0466C5.52484 9.58128 7.52127 8.9478 9.5177 9.29333Z" fill="white"/>
<path d="M8.1354 10.7075C7.86665 10.8482 7.76427 11.1106 7.76427 11.6545V12.128L7.41873 12.32C7.0348 12.5375 6.74686 12.8575 6.5357 13.2926C6.32453 13.7277 6.33733 14.4828 6.55489 14.9563C6.89403 15.6857 7.40594 16.0569 8.29537 16.2104C8.96725 16.3256 9.14002 16.4792 9.14002 16.9399C9.14002 17.2023 9.10802 17.2854 8.96085 17.4326C8.78808 17.6118 8.76889 17.6118 7.80906 17.6438C6.75966 17.6758 6.61248 17.7206 6.45251 18.0277C6.33093 18.2645 6.33093 18.4308 6.45251 18.6676C6.59329 18.9363 6.85564 19.0515 7.34835 19.0515H7.76427V19.4674C7.76427 19.9602 7.87945 20.2225 8.1482 20.3633C8.38496 20.4849 8.55133 20.4849 8.78808 20.3633C9.06963 20.2161 9.17201 19.9602 9.17201 19.4099V18.9363L9.51755 18.7444C9.90148 18.5268 10.1894 18.2069 10.4006 17.7718C10.6117 17.3366 10.599 16.5816 10.3814 16.1081C10.0423 15.3786 9.53035 15.0075 8.64091 14.8539C7.96903 14.7387 7.79627 14.5851 7.79627 14.1244C7.79627 13.8621 7.82826 13.7789 7.97543 13.6317C8.1482 13.4526 8.1674 13.4526 9.12722 13.4206C10.1766 13.3886 10.3238 13.3438 10.4838 13.0366C10.6054 12.7999 10.6054 12.6335 10.4838 12.3967C10.343 12.128 10.0806 12.0128 9.58794 12.0128H9.17201V11.5969C9.17201 11.1042 9.05683 10.8418 8.78808 10.7011C8.55773 10.5795 8.35936 10.5795 8.1354 10.7075Z" fill="white"/>
</g>
<defs>
<clipPath id="clip0_248_3798">
<rect width="24" height="24" fill="white"/>
</clipPath>
</defs>
</svg>
