<svg width="24" height="24" viewBox="0 0 24 24" fill="none" xmlns="http://www.w3.org/2000/svg">
<g clip-path="url(#clip0_248_4077)">
<path d="M11.043 0.802164C9.14083 0.98678 7.14934 1.89713 5.73232 3.23399C4.37913 4.51994 3.52381 5.9523 3.04509 7.75389C2.85998 8.46689 2.84721 8.54964 2.84721 9.83559C2.84083 11.1024 2.84721 11.2107 3.01955 11.86C3.21743 12.6239 3.54934 13.477 3.84296 14.0053C4.46211 15.0939 5.06211 15.8006 6.67062 17.3157C7.0536 17.6722 7.23232 17.9014 7.38551 18.2197C7.68551 18.8372 7.73658 19.1173 7.78126 20.4987C7.81955 21.721 7.82594 21.7465 8.01104 22.0839C8.22168 22.4658 8.55998 22.7778 8.99402 22.9942C9.28764 23.1406 9.30041 23.1406 11.9366 23.1406C14.5727 23.1406 14.5855 23.1406 14.8791 22.9942C15.3132 22.7778 15.6515 22.4658 15.8621 22.0839C16.0472 21.7465 16.0536 21.721 16.0919 20.4987C16.1174 19.8175 16.1685 19.1173 16.2068 18.939C16.36 18.3088 16.6536 17.825 17.1961 17.3157C17.477 17.0547 18.0068 16.5454 18.3642 16.1889C19.6281 14.9221 20.4068 13.5725 20.8536 11.8473C21.0196 11.2107 21.0323 11.0961 21.0259 9.83559C21.0259 8.54964 21.0132 8.47325 20.8281 7.75389C20.1132 5.06105 18.3515 2.89023 15.9196 1.69341C14.7259 1.10773 13.6217 0.840361 12.2557 0.802164C11.7451 0.789433 11.2025 0.789433 11.043 0.802164ZM13.2451 2.18996C14.343 2.38731 15.5366 2.87749 16.3983 3.48227C16.6281 3.64779 17.0685 4.01702 17.3685 4.31622C18.9068 5.80588 19.7238 7.71569 19.7238 9.83559C19.7238 12.2738 18.7217 14.3555 16.794 15.9088C16.4493 16.1889 16.0536 16.5518 15.9132 16.7236C15.4408 17.2775 15.0834 17.9969 14.9302 18.678L14.8536 19.0345H11.9366H9.01955L8.94296 18.678C8.78977 17.9969 8.43232 17.2775 7.95998 16.7236C7.81955 16.5518 7.42381 16.1889 7.07913 15.9088C5.15147 14.3555 4.14934 12.2738 4.14934 9.83559C4.14934 7.71569 4.96636 5.80588 6.50466 4.31622C7.69189 3.16397 8.94934 2.50826 10.5642 2.20269C11.1706 2.08174 12.6132 2.08174 13.2451 2.18996ZM14.8089 20.817C14.8089 21.3136 14.7132 21.5682 14.4642 21.7337C14.3238 21.8229 14.0302 21.8356 11.9366 21.8356C9.84296 21.8356 9.54934 21.8229 9.40892 21.7337C9.15998 21.5682 9.06424 21.3136 9.06424 20.817V20.3714H11.9366H14.8089V20.817Z" fill="white"/>
<path d="M10.6151 3.62863C10.3789 3.72412 10.2385 4.04242 10.1172 4.74269C10.0215 5.30927 9.9832 5.41749 9.8683 5.44932C9.79171 5.47478 9.57469 5.59574 9.3832 5.71669L9.03213 5.93951L8.32362 5.6976C7.57681 5.44932 7.40447 5.43659 7.16192 5.64667C6.95766 5.82492 5.87256 7.76656 5.87256 7.95118C5.87256 8.19309 6.03852 8.40953 6.59384 8.88062L7.08532 9.30715V9.86099V10.4148L6.53639 10.8859C6.23639 11.1406 5.9683 11.4016 5.93001 11.4652C5.80235 11.7008 5.87894 11.9491 6.32575 12.7321C7.30235 14.4318 7.2449 14.3936 8.26618 14.0371C8.63639 13.9098 8.9683 13.8143 9.01298 13.827C9.05767 13.8398 9.30022 13.9607 9.54915 14.1008L10.0087 14.3554L10.1172 14.992C10.2385 15.6859 10.3406 15.9406 10.5258 16.0424C10.6917 16.1252 13.1811 16.1252 13.347 16.0424C13.5321 15.9406 13.6343 15.6859 13.7555 14.992L13.864 14.3554L14.3236 14.1008C14.5726 13.9607 14.8151 13.8334 14.8662 13.827C14.9109 13.8143 15.2492 13.9098 15.613 14.0371C16.6215 14.4 16.5768 14.4318 17.547 12.7321C17.9938 11.9491 18.0704 11.7071 17.9428 11.4652C17.9045 11.4016 17.6364 11.1406 17.3364 10.8859L16.7875 10.4148V9.86099V9.30078L17.3236 8.84879C17.8598 8.39043 18.0002 8.19945 18.0002 7.93208C18.0002 7.7602 16.9023 5.81219 16.7109 5.64667C16.4683 5.43659 16.296 5.44932 15.5492 5.6976L14.8406 5.93951L14.4896 5.71669C14.2981 5.59574 14.0811 5.47478 14.0045 5.44932C13.8896 5.41749 13.8513 5.30927 13.7555 4.74269C13.6343 4.02333 13.4938 3.72412 13.2385 3.62863C13.0343 3.55224 10.8066 3.55224 10.6151 3.62863ZM12.4662 4.9846C12.4853 5.02916 12.53 5.29017 12.5747 5.55754C12.6768 6.18778 12.7981 6.37876 13.1875 6.51882C13.3598 6.58248 13.73 6.79256 14.0172 6.97717C14.3172 7.18089 14.5981 7.32094 14.7002 7.32094C14.796 7.32094 15.1215 7.23818 15.4215 7.12996C15.7279 7.0281 15.9896 6.95171 16.0151 6.96444C16.0343 6.98354 16.1555 7.18089 16.2768 7.41006L16.4938 7.82386L16.1811 8.0976C16.0023 8.24402 15.7726 8.45409 15.664 8.56232L15.4726 8.7533L15.4789 9.83553C15.4853 10.4276 15.5109 10.9623 15.5492 11.0196C15.5811 11.0769 15.7981 11.2934 16.0406 11.4971C16.2768 11.7008 16.4683 11.8918 16.4683 11.9172C16.4683 11.9491 16.3662 12.1528 16.2385 12.3756L16.0023 12.7766L15.364 12.5729C14.63 12.331 14.5406 12.3437 14.0683 12.7002C13.896 12.8339 13.5704 13.0249 13.3406 13.1331C12.7853 13.3814 12.7215 13.4514 12.6385 13.8716C12.6002 14.0689 12.5364 14.3618 12.5045 14.5273L12.4343 14.8329H11.9364H11.4385L11.3683 14.5273C11.3364 14.3618 11.2726 14.0689 11.2343 13.8716C11.1513 13.4514 11.0875 13.3814 10.5321 13.1331C10.3023 13.0249 9.97681 12.8339 9.80447 12.7002C9.32575 12.3374 9.22362 12.3247 8.49596 12.5729L7.87043 12.783L7.63426 12.3756C7.5066 12.1528 7.40447 11.9491 7.40447 11.9172C7.40447 11.8918 7.59596 11.7008 7.83852 11.4971C8.07469 11.2934 8.29171 11.0769 8.32362 11.0196C8.36192 10.9623 8.38745 10.4276 8.39384 9.83553L8.40022 8.7533L8.20873 8.56232C8.10022 8.45409 7.87043 8.24402 7.69171 8.0976L7.37894 7.82386L7.59596 7.41006C7.71724 7.18089 7.83852 6.98354 7.85767 6.96444C7.8832 6.95171 8.1449 7.0281 8.45128 7.12996C8.75128 7.23818 9.0832 7.32094 9.17894 7.32094C9.29384 7.32094 9.50447 7.21908 9.72788 7.05993C9.92575 6.91988 10.3023 6.70343 10.564 6.58248C11.113 6.32784 11.1832 6.23234 11.2917 5.57028C11.413 4.85091 11.3683 4.90184 11.9364 4.90184C12.2875 4.90184 12.4406 4.9273 12.4662 4.9846Z" fill="white"/>
<path d="M11.1895 7.93838C10.7874 8.07844 10.2895 8.55589 10.0789 9.00788C9.60657 9.99462 10.0406 11.2105 11.0364 11.6944C11.5215 11.9363 12.3066 11.949 12.8108 11.7198C13.8002 11.2806 14.2661 9.99462 13.7938 9.00788C13.5768 8.54316 13.0853 8.07844 12.6576 7.93202C12.2874 7.8047 11.5534 7.8047 11.1895 7.93838ZM12.4598 9.35165C12.7534 9.68268 12.7725 10.001 12.5108 10.332C12.313 10.5803 11.9619 10.6694 11.6619 10.5485C11.413 10.4402 11.1704 10.1156 11.1704 9.88003C11.1704 9.65085 11.3491 9.36438 11.5725 9.22433C11.8598 9.03971 12.23 9.09701 12.4598 9.35165Z" fill="white"/>
<path d="M0.91937 3.33583C0.498093 3.75599 0.651285 4.11885 1.46831 4.58358C1.9598 4.86368 2.08107 4.90824 2.26618 4.87641C2.54703 4.81912 2.80873 4.51355 2.80873 4.23981C2.80873 3.94061 2.61724 3.73689 2.05554 3.40586C1.43639 3.04936 1.21937 3.03663 0.91937 3.33583Z" fill="white"/>
<path d="M21.8172 3.40586C21.2555 3.73689 21.064 3.94061 21.064 4.23981C21.064 4.51355 21.3257 4.81912 21.6065 4.87641C21.7916 4.90824 21.9129 4.86368 22.4044 4.58358C23.2214 4.11885 23.3746 3.75599 22.9533 3.33583C22.6533 3.03663 22.4363 3.04936 21.8172 3.40586Z" fill="white"/>
<path d="M1.50033 15.1193C0.842886 15.4758 0.734375 15.5967 0.734375 15.9468C0.734375 16.2779 0.93863 16.5325 1.2514 16.5898C1.42374 16.6216 1.55778 16.5771 2.00459 16.3352C2.30459 16.1697 2.60459 15.9659 2.6748 15.8705C2.91097 15.5776 2.82161 15.1002 2.49608 14.9283C2.20884 14.7819 2.05565 14.8073 1.50033 15.1193Z" fill="white"/>
<path d="M21.364 14.9347C21.1661 15.0429 21.064 15.253 21.064 15.5458C21.064 15.8004 21.3384 16.0551 21.9512 16.3861C22.481 16.6662 22.7235 16.6662 22.9852 16.3861C23.1831 16.176 23.1959 15.7368 23.0108 15.5331C22.8384 15.3421 21.881 14.8328 21.6959 14.8328C21.6129 14.8392 21.4597 14.8837 21.364 14.9347Z" fill="white"/>
<path d="M23.8727 23.9045C23.8089 23.9809 23.8089 24 23.8983 24C23.9557 24 24.0004 23.9554 24.0004 23.9045C24.0004 23.8536 23.9876 23.809 23.9748 23.809C23.9621 23.809 23.9174 23.8536 23.8727 23.9045Z" fill="white"/>
</g>
<defs>
<clipPath id="clip0_248_4077">
<rect width="24" height="24" fill="white"/>
</clipPath>
</defs>
</svg>
