<svg width="24" height="24" viewBox="0 0 24 24" fill="none" xmlns="http://www.w3.org/2000/svg">
<g clip-path="url(#clip0_167_2637)">
<path d="M10.4763 0.0749989C7.70603 0.449999 5.31541 1.64531 3.39822 3.61406C1.53259 5.53125 0.421656 7.82812 0.0700934 10.5141C-0.0142816 11.1609 -0.0236566 12.6703 0.0513434 13.35C0.252906 15.2062 0.956031 17.1281 2.00134 18.6797C2.48416 19.3922 2.61541 19.5 2.99509 19.5C3.47322 19.5 3.74978 19.2234 3.74978 18.7453C3.74978 18.4922 3.73572 18.4594 3.34666 17.8828C1.52322 15.1547 1.04041 11.8828 2.02009 8.82656C2.94822 5.925 5.14197 3.52031 7.92166 2.35312C9.25291 1.79531 10.5654 1.53281 12.0232 1.53281C13.2982 1.53281 14.5498 1.7625 15.6795 2.20312C16.4576 2.50781 16.8232 2.50312 17.0857 2.19375C17.3482 1.88437 17.3295 1.42969 17.0482 1.14844C16.692 0.792187 14.9295 0.262499 13.4857 0.0703125C12.7967 -0.0187511 11.142 -0.0187511 10.4763 0.0749989Z" fill="white"/>
<path d="M20.6484 0.0515623C20.5031 0.131249 17.3906 3.24375 17.3156 3.38437C17.2641 3.48281 17.25 3.74062 17.25 4.57969V5.64844L14.3156 8.57812C12.7031 10.1906 11.3531 11.5641 11.3156 11.6344C11.2781 11.7047 11.25 11.8734 11.25 12.0094C11.25 12.4641 11.5359 12.75 11.9906 12.75C12.1266 12.75 12.2953 12.7219 12.3656 12.6844C12.4359 12.6469 13.8094 11.2969 15.4219 9.68437L18.3516 6.75H19.4203C20.2594 6.75 20.5172 6.73594 20.6156 6.68437C20.7703 6.6 23.8734 3.4875 23.9484 3.34219C24.0328 3.17344 24.0094 2.76094 23.9063 2.5875C23.7188 2.27812 23.6109 2.25 22.6313 2.25H21.75V1.36875C21.75 0.389062 21.7219 0.281249 21.4125 0.093749C21.2391 -0.00937557 20.8078 -0.0328131 20.6484 0.0515623ZM20.3578 3.43594C20.5031 3.66094 20.7047 3.75 21.0703 3.75H21.3984L20.6484 4.5L19.8984 5.25H19.3266H18.75V4.67812V4.10156L19.4906 3.36094L20.2266 2.625L20.25 2.96719C20.2641 3.18281 20.3063 3.35625 20.3578 3.43594Z" fill="white"/>
<path d="M10.72 3.82031C9.45439 4.02656 8.21221 4.5375 7.16221 5.27812C6.63721 5.64844 5.62939 6.67031 5.24033 7.21875C4.63096 8.07656 4.12002 9.25312 3.88096 10.3594C3.78721 10.7953 3.77783 10.9781 3.77783 12C3.77783 13.2797 3.82939 13.65 4.14814 14.6062C5.13252 17.5687 7.71064 19.7297 10.7856 20.1844C11.531 20.2922 12.9513 20.2594 13.6169 20.1141C15.2247 19.7672 16.5231 19.0969 17.6763 18.0141C18.9185 16.8422 19.7435 15.3609 20.1138 13.6172C20.2122 13.1578 20.2263 12.9797 20.2263 12C20.2263 11.1281 20.2075 10.8141 20.1419 10.4906C20.0153 9.87187 19.8466 9.31406 19.6075 8.75156C19.3497 8.1375 19.2138 8.00625 18.806 7.97812C18.4872 7.95937 18.2669 8.0625 18.1075 8.29687C17.9341 8.54531 17.9622 8.83125 18.2106 9.44531C18.3231 9.72656 18.4778 10.1906 18.5481 10.4766C18.6653 10.9547 18.6747 11.0625 18.6794 11.9531C18.6794 13.0125 18.6325 13.3547 18.3653 14.1328C17.6856 16.125 16.1153 17.6953 14.1419 18.3516C13.3122 18.6281 12.9653 18.6797 11.9997 18.6797C10.8044 18.6797 10.0966 18.5203 9.07002 18.0234C7.19033 17.1187 5.87314 15.4031 5.40908 13.2656C5.28721 12.7031 5.28252 11.3016 5.40439 10.7344C6.00908 7.9125 8.12314 5.85468 10.931 5.36719C11.4794 5.26875 12.5481 5.26875 13.0778 5.3625C13.6122 5.45625 14.1888 5.62969 14.6622 5.83125C15.3091 6.10781 15.7169 6.04218 15.9466 5.625C16.0778 5.38594 16.045 4.9875 15.8763 4.76719C15.6794 4.50937 14.6669 4.10625 13.645 3.88593C13.0497 3.75469 11.3528 3.71719 10.72 3.82031Z" fill="white"/>
<path d="M22.1391 6.75001C21.525 6.89532 21.4219 7.36876 21.7969 8.32032C22.2375 9.4547 22.4672 10.6969 22.4625 12C22.4625 14.2781 21.7594 16.4156 20.4 18.2531C19.9359 18.8813 18.8109 19.9969 18.1875 20.4469C15.5531 22.3406 12.4125 22.9359 9.32812 22.1203C7.89843 21.7406 6.48749 21.0188 5.33437 20.0672C4.84218 19.6641 4.7953 19.6406 4.49062 19.6406C3.92343 19.6406 3.60468 20.1422 3.80155 20.7188C3.87187 20.9156 4.55624 21.4828 5.38593 22.0359C6.94218 23.0719 8.79843 23.7422 10.7109 23.9531C11.2547 24.0141 12.7453 24.0141 13.2891 23.9531C17.55 23.4797 21.2344 20.8031 22.9687 16.9219C23.6719 15.3469 24 13.7859 24 12C24 10.7156 23.8547 9.68439 23.5219 8.5547C23.3391 7.93595 23.0344 7.16251 22.9172 7.01251C22.7437 6.7922 22.4156 6.6797 22.1391 6.75001Z" fill="white"/>
<path d="M11.0623 8.34844C9.72168 8.69531 8.68574 9.74063 8.34355 11.0813C8.2123 11.5922 8.2123 12.4078 8.34355 12.9188C8.61543 13.9875 9.32324 14.8734 10.2889 15.3516C10.8795 15.6469 11.3248 15.75 11.9998 15.75C12.6842 15.75 13.1248 15.6469 13.7342 15.3422C14.1139 15.1547 14.2451 15.0516 14.6482 14.6484C15.0514 14.2453 15.1545 14.1141 15.342 13.7344C15.6232 13.1719 15.7498 12.6703 15.7498 12.1453C15.7498 11.8266 15.7311 11.7094 15.6561 11.5875C15.5154 11.3625 15.3045 11.25 14.9998 11.25C14.5264 11.25 14.2779 11.5031 14.2264 12.0422C14.1607 12.6984 13.9873 13.1016 13.5748 13.5375C13.1529 13.9875 12.6373 14.2031 12.0045 14.2031C11.3857 14.2031 10.9311 14.0203 10.4904 13.6031C10.017 13.1531 9.79668 12.6422 9.79668 12C9.79668 11.3859 9.97949 10.9266 10.3967 10.4906C10.8186 10.0453 11.2686 9.83906 11.9576 9.77344C12.4967 9.72188 12.7498 9.47344 12.7498 9C12.7498 8.69531 12.6373 8.48438 12.4123 8.34375C12.2014 8.21719 11.5545 8.21719 11.0623 8.34844Z" fill="white"/>
</g>
<defs>
<clipPath id="clip0_167_2637">
<rect width="24" height="24" fill="white"/>
</clipPath>
</defs>
</svg>
