<svg width="32" height="32" viewBox="0 0 32 32" fill="none" xmlns="http://www.w3.org/2000/svg">
<path d="M5.99967 21.9999C3.99967 23.6799 3.33301 28.6666 3.33301 28.6666C3.33301 28.6666 8.31967 27.9999 9.99967 25.9999C10.9463 24.8799 10.933 23.1599 9.87967 22.1199C9.36142 21.6253 8.67873 21.3395 7.96264 21.3173C7.24655 21.2952 6.54751 21.5383 5.99967 21.9999Z" stroke="white" stroke-width="2.66667" stroke-linecap="round" stroke-linejoin="round"/>
<path d="M16 20.0002L12 16.0002C12.7095 14.1594 13.6029 12.3949 14.6667 10.7335C16.2202 8.24948 18.3835 6.20423 20.9507 4.79229C23.5178 3.38035 26.4036 2.64866 29.3333 2.66683C29.3333 6.2935 28.2933 12.6668 21.3333 17.3335C19.6492 18.3985 17.8625 19.2918 16 20.0002Z" stroke="white" stroke-width="2.66667" stroke-linecap="round" stroke-linejoin="round"/>
<path d="M11.9997 16.0002H5.33301C5.33301 16.0002 6.06634 11.9602 7.99967 10.6669C10.1597 9.22686 14.6663 10.6669 14.6663 10.6669" stroke="white" stroke-width="2.66667" stroke-linecap="round" stroke-linejoin="round"/>
<path d="M16 20.0002V26.6668C16 26.6668 20.04 25.9335 21.3333 24.0002C22.7733 21.8402 21.3333 17.3335 21.3333 17.3335" stroke="white" stroke-width="2.66667" stroke-linecap="round" stroke-linejoin="round"/>
</svg>
