<svg width="24" height="24" viewBox="0 0 24 24" fill="none" xmlns="http://www.w3.org/2000/svg">
<path d="M11.6791 0.869801C11.1337 1.08567 4.93473 3.63171 3.97858 4.02536C2.90051 4.4698 2.708 4.57139 2.58607 4.75551L2.43848 4.97139V7.84123C2.43848 10.8508 2.47698 11.4285 2.75292 12.6984C3.59997 16.5142 6.02564 19.9174 9.36254 21.9682C9.99142 22.3555 11.1272 22.9206 11.6021 23.0857C11.9294 23.2 11.9422 23.2 12.2759 23.0857C12.7508 22.9206 13.8802 22.3555 14.554 21.9428C17.8331 19.9301 20.278 16.4888 21.1187 12.6984C21.3946 11.4285 21.4331 10.8508 21.4331 7.84123V4.97139L21.2855 4.75551C21.1315 4.52694 21.1636 4.53964 16.7486 2.73012C15.7091 2.30472 14.2652 1.71424 13.5401 1.41583C12.2823 0.895197 11.8909 0.780912 11.6791 0.869801ZM13.6877 3.35869C14.6117 3.73964 16.2224 4.39996 17.262 4.82536C18.3016 5.25075 19.2834 5.6571 19.4374 5.72059L19.7133 5.84123L19.6813 8.42536C19.6492 11.1809 19.6171 11.5047 19.277 12.8C18.8534 14.4317 18.0192 16.1079 16.9476 17.492C16.7871 17.7015 16.3636 18.1714 16.0107 18.5333C14.9647 19.6 13.9059 20.3746 12.6032 21.0285L11.9358 21.365L11.2492 21.0222C7.97003 19.3777 5.52511 16.3492 4.58179 12.7746C4.24169 11.4603 4.2096 11.0793 4.20318 8.35551V5.82218L5.00532 5.48567C5.4481 5.3079 6.90479 4.71107 8.24596 4.15869C9.58714 3.61266 10.9476 3.04758 11.262 2.91425C11.5829 2.78091 11.878 2.67298 11.923 2.66663C11.9679 2.66663 12.7636 2.97774 13.6877 3.35869Z" fill="white"/>
<path d="M14.9838 8.60952C14.8812 8.66031 13.925 9.5619 12.8662 10.6032L10.941 12.5079L9.94639 11.5238C8.85548 10.4444 8.68222 10.3365 8.25869 10.4698C8.13035 10.5143 7.93783 10.6476 7.82874 10.7683C7.67473 10.946 7.63623 11.0476 7.63623 11.2889C7.63623 11.4603 7.68115 11.6571 7.7389 11.746C7.89291 11.9809 10.1261 14.2032 10.4213 14.419C10.7036 14.6286 11.0566 14.6603 11.3453 14.5143C11.5571 14.4 16.0619 9.93016 16.1646 9.73333C16.2031 9.65714 16.2352 9.48571 16.2352 9.35238C16.2352 8.73016 15.5485 8.32381 14.9838 8.60952Z" fill="white"/>
</svg>
