<svg width="24" height="24" viewBox="0 0 24 24" fill="none" xmlns="http://www.w3.org/2000/svg">
<path d="M10.6483 1.09227C9.11477 1.36768 7.8003 2.06248 6.67361 3.18291C5.69088 4.17189 5.05243 5.28606 4.69564 6.63183C4.48282 7.42052 4.42649 8.94155 4.57671 9.79283C4.9335 11.8334 6.11652 13.6361 7.85663 14.7941L8.49509 15.2197V16.6218V18.0239H12.0004H15.5056V16.6218V15.2197L16.1441 14.7941C17.8654 13.6486 19.0672 11.8271 19.4177 9.83038C19.5554 9.05422 19.5367 7.75852 19.3802 6.98862C18.7668 3.97159 16.3569 1.61806 13.3524 1.09227C12.6826 0.979601 11.2805 0.973341 10.6483 1.09227ZM13.0519 2.13133C15.4743 2.51315 17.5086 4.34089 18.2347 6.78832C18.3724 7.25777 18.4037 7.51441 18.4287 8.29057C18.46 9.35467 18.3662 9.95557 18.0156 10.8632C17.4836 12.234 16.2317 13.6173 14.9047 14.2871C14.7294 14.3747 14.5667 14.4936 14.5417 14.55C14.5229 14.6063 14.5041 14.9631 14.5041 15.3386V16.0209H12.0004H9.49659V15.3386C9.49659 14.9631 9.47782 14.6063 9.45904 14.55C9.434 14.4936 9.27126 14.3747 9.09599 14.2871C7.769 13.6173 6.51712 12.234 5.98507 10.8632C5.63455 9.95557 5.54066 9.35467 5.57195 8.29057C5.59699 7.51441 5.62829 7.25777 5.766 6.78832C6.72368 3.57099 9.77827 1.6118 13.0519 2.13133Z" fill="white"/>
<path d="M10.7168 7.00766L9.70899 8.00916H8.72626C7.82491 8.00916 7.73102 8.02168 7.61835 8.13435C7.53698 8.21572 7.49316 8.34091 7.49316 8.50992C7.49316 8.67892 7.53698 8.80411 7.61835 8.88548C7.73728 9.00441 7.82491 9.01067 9.00168 9.01067H10.2661L10.8795 8.40351L11.4992 7.79634V9.27982C11.4992 10.6819 11.5054 10.7696 11.6244 10.8885C11.712 10.9761 11.8309 11.0137 12.0124 11.0137C12.2628 11.0137 12.3004 10.9824 13.2831 10.0122L14.2909 9.01067H15.2736C16.1749 9.01067 16.2688 8.99815 16.3815 8.88548C16.4629 8.80411 16.5067 8.67892 16.5067 8.50992C16.5067 8.34091 16.4629 8.21572 16.3815 8.13435C16.2626 8.01542 16.1749 8.00916 14.9982 8.00916H13.7338L13.1204 8.61632L12.5007 9.22349V7.74001C12.5007 6.33791 12.4944 6.25027 12.3755 6.13135C12.2879 6.04371 12.1689 6.00616 11.9874 6.00616C11.737 6.00616 11.6995 6.03746 10.7168 7.00766Z" fill="white"/>
<path d="M8.49414 19.8891C8.49414 20.9594 8.50666 20.9845 9.09504 21.0283L9.51442 21.0596L9.58953 21.3225C9.77106 21.9359 10.2843 22.5118 10.9353 22.831C11.2483 22.9875 11.3422 23 11.9994 23C12.6566 23 12.7505 22.9875 13.0635 22.831C13.7145 22.5118 14.2277 21.9359 14.4093 21.3225L14.4844 21.0596L14.9038 21.0283C15.4921 20.9845 15.5047 20.9594 15.5047 19.8891V19.0253H11.9994H8.49414V19.8891ZM13.2888 21.1973C13.051 21.6542 12.5314 21.9672 11.9994 21.9672C11.4674 21.9672 10.9478 21.6542 10.71 21.1973L10.6161 21.0283H11.9994H13.3827L13.2888 21.1973Z" fill="white"/>
</svg>
