<svg width="24" height="24" viewBox="0 0 24 24" fill="none" xmlns="http://www.w3.org/2000/svg">
<g clip-path="url(#clip0_248_4060)">
<path d="M8.33939 0.829842C6.80979 1.02133 5.24819 1.69155 4.00019 2.68091C3.16819 3.34474 2.16339 4.56388 1.70259 5.48303C1.44019 6.00006 1.08179 7.01495 0.94739 7.65325C0.76179 8.48942 0.74899 10.1809 0.92179 10.9788C1.28659 12.683 2.00339 14.049 3.16179 15.2426C4.05139 16.1618 5.04339 16.8384 6.11219 17.2724L6.56659 17.4511L6.74579 17.9043C7.64179 20.132 9.68339 22.0469 11.9554 22.7809C12.973 23.1128 13.5042 23.1958 14.6562 23.1958C15.7826 23.1958 16.3138 23.1192 17.3058 22.8064C18.4642 22.4426 19.6162 21.7596 20.5378 20.8979C21.8434 19.6724 22.6754 18.2235 23.0914 16.4426C23.2322 15.8298 23.2578 15.5873 23.2578 14.649C23.2578 13.4681 23.181 12.9575 22.8418 11.9235C22.2146 10.0086 20.7426 8.22772 18.9122 7.20006C18.6306 7.04048 18.1954 6.82984 17.9522 6.72771L17.4978 6.54899L17.3186 6.0958C16.4354 3.90005 14.4066 1.98516 12.1858 1.23835C11.3218 0.951118 10.6434 0.829842 9.69619 0.80431C9.20339 0.785162 8.58899 0.797928 8.33939 0.829842ZM10.6626 2.1958C12.6082 2.54048 14.381 3.72771 15.4818 5.42559C15.6994 5.7575 15.8722 6.0575 15.8722 6.0958C15.8722 6.14686 15.7442 6.15325 15.4434 6.11495C14.4834 5.98729 12.909 6.18516 11.8082 6.57452C9.71539 7.30857 7.82739 9.0192 6.91219 11.0043C6.27859 12.383 5.96499 14.1447 6.13139 15.3958C6.16979 15.7022 6.16339 15.8298 6.11219 15.8298C6.07379 15.8298 5.77299 15.6575 5.44019 15.4405C3.73779 14.3426 2.54739 12.5745 2.20179 10.6341C2.06739 9.87452 2.08659 8.66814 2.24019 7.92772C2.75219 5.43835 4.48019 3.4341 6.89299 2.52772C7.95539 2.12559 9.49139 1.99154 10.6626 2.1958ZM15.8978 7.50006C16.173 7.54474 16.4098 7.60218 16.429 7.61495C16.5186 7.70431 16.6402 8.81495 16.6274 9.37665L16.6082 10.0277L15.341 8.76389C14.6498 8.06814 14.061 7.48091 14.0354 7.44899C13.965 7.3724 15.3666 7.40431 15.8978 7.50006ZM14.3746 9.67665C16.5314 11.8277 16.3714 11.5596 15.9682 12.4277L15.7378 12.9192L13.4402 10.6277C12.173 9.36388 11.1618 8.31069 11.1938 8.27878C11.277 8.1958 12.2498 7.78729 12.365 7.78729C12.429 7.78729 13.3314 8.63623 14.3746 9.67665ZM18.6306 8.55963C20.1602 9.56176 21.2866 11.1064 21.741 12.8107C21.9778 13.7171 22.0162 15.1469 21.8306 16.0532C21.5362 17.483 20.9346 18.6192 19.9042 19.6788C18.8482 20.7767 17.6002 21.466 16.0962 21.7724C15.1874 21.9575 13.7538 21.9192 12.845 21.683C11.1298 21.2298 9.56819 20.0873 8.58259 18.5745C8.36499 18.2426 8.19219 17.9426 8.19219 17.9043C8.19219 17.8596 8.37139 17.8532 8.78739 17.8979C9.19699 17.9426 9.61299 17.9362 10.1442 17.8788C12.3394 17.6618 14.0802 16.8192 15.6034 15.2235C16.9858 13.7873 17.7282 12.1469 17.933 10.0915C17.9842 9.58091 17.9842 9.16601 17.9458 8.7575C17.901 8.31708 17.901 8.17027 17.9586 8.17027C18.0034 8.17027 18.3042 8.34899 18.6306 8.55963ZM14.5154 14.4703L14.0482 14.9362L11.5714 12.466L9.08819 9.98942L9.54899 9.52984L10.0162 9.06389L12.493 11.5341L14.9762 14.0107L14.5154 14.4703ZM12.8258 15.7469C12.6786 15.8554 11.8082 16.2128 11.693 16.2128C11.6418 16.2128 10.7458 15.3575 9.70259 14.3107C7.54579 12.1596 7.69939 12.4277 8.09619 11.5724L8.32659 11.0809L10.6242 13.3724C12.6338 15.3767 12.9154 15.683 12.8258 15.7469ZM8.85779 15.3639L10.0674 16.5639L9.41459 16.583C8.83859 16.5958 7.73139 16.4745 7.63539 16.3852C7.55219 16.3022 7.43059 15.2681 7.42419 14.6554C7.42419 13.9915 7.43059 13.966 7.53939 14.0618C7.60339 14.1192 8.19219 14.7064 8.85779 15.3639Z" fill="white"/>
</g>
<defs>
<clipPath id="clip0_248_4060">
<rect width="24" height="24" fill="white"/>
</clipPath>
</defs>
</svg>
