<svg width="24" height="24" viewBox="0 0 24 24" fill="none" xmlns="http://www.w3.org/2000/svg">
<g clip-path="url(#clip0_169_2687)">
<path d="M11.0157 2.77025C9.20161 2.9765 7.23286 3.81557 5.51724 5.11869C3.61411 6.56713 1.57505 8.94369 0.234427 11.2734C5.18863e-05 11.6859 -0.00463562 11.6999 0.00942688 12.0281C0.0234894 12.3234 0.0469269 12.3984 0.253177 12.7546C0.609427 13.3734 1.23286 14.3109 1.73443 14.9765C5.0813 19.4296 9.00474 21.6281 12.8954 21.2296C14.7563 21.0421 16.7297 20.2124 18.4688 18.8906C18.8907 18.5671 19.0313 18.3421 19.0313 17.9671C19.0313 17.489 18.661 17.0718 18.1969 17.0249C17.8782 16.9968 17.6626 17.0765 17.2688 17.3718C15.9985 18.3187 14.686 18.9421 13.3594 19.2234C12.6516 19.3734 11.3438 19.3781 10.6501 19.2281C8.88286 18.8437 7.27036 17.9484 5.60161 16.4109C4.48599 15.3843 3.22505 13.8515 2.29693 12.3843L2.04849 11.9999L2.29693 11.6109C4.39224 8.31557 7.12974 5.87338 9.66568 5.04369C10.5938 4.739 11.0251 4.66869 12.0001 4.66869C12.9751 4.66869 13.4438 4.74369 14.3344 5.039C16.5657 5.78432 18.8391 7.64057 20.85 10.364C21.2063 10.8515 21.9375 11.9484 21.9375 12.0046C21.9375 12.0421 21.0375 13.3874 20.6625 13.9078C20.4422 14.2171 20.4188 14.2781 20.4 14.5453C20.3766 14.8734 20.4704 15.1171 20.6813 15.314C21.0047 15.6187 21.5766 15.6421 21.9329 15.3656C22.1672 15.1874 23.2594 13.6078 23.761 12.7265C23.9813 12.3421 24 12.2859 24 11.9999C24 11.714 23.9813 11.6578 23.761 11.2734C23.4047 10.6499 22.7813 9.71244 22.2657 9.02338C19.4485 5.27807 16.2422 3.13119 12.9282 2.77025C12.4079 2.70932 11.5313 2.714 11.0157 2.77025Z" fill="white"/>
<path d="M11.6577 6.02337C11.2827 6.15462 11.0624 6.48744 11.0624 6.92806V7.19994L10.7249 7.28431C10.3218 7.37806 9.6468 7.68744 9.22961 7.97337C8.84055 8.23119 8.34836 8.70931 8.05774 9.09837C7.76242 9.49681 7.38274 10.289 7.27961 10.7202L7.19992 11.0624H6.92805C6.24367 11.0624 5.81711 11.6296 5.99992 12.2906C6.11242 12.6843 6.47336 12.9374 6.92805 12.9374H7.19992L7.27961 13.2749C7.38742 13.7249 7.75774 14.4843 8.0718 14.9156C8.70461 15.764 9.74055 16.4671 10.7249 16.7156L11.0624 16.7999V17.0765C11.0624 17.7562 11.6296 18.1827 12.2905 17.9999C12.6843 17.8874 12.9374 17.5265 12.9374 17.0718V16.7952L13.2093 16.739C13.9359 16.5796 14.8405 16.0593 15.4499 15.4499C16.0593 14.8406 16.5796 13.9359 16.739 13.2046L16.7952 12.9374H17.0718C17.5265 12.9374 17.8874 12.6843 17.9999 12.2906C18.1827 11.6296 17.7562 11.0624 17.0718 11.0624H16.7952L16.739 10.7906C16.5374 9.87181 15.8109 8.76087 14.9952 8.13275C14.4796 7.73431 13.7671 7.38744 13.2093 7.26087L12.9374 7.20462V6.92806C12.9374 6.22494 12.3187 5.78431 11.6577 6.02337ZM12.6984 9.11712C13.1812 9.23431 13.7062 9.53431 14.0952 9.92337C14.3671 10.1952 14.4796 10.3546 14.6437 10.6968C14.8874 11.2031 14.953 11.489 14.953 11.9999C14.953 12.5109 14.8874 12.7968 14.6437 13.3031C14.1562 14.3156 13.1437 14.9484 12.014 14.9531C11.489 14.9531 11.2077 14.8874 10.6968 14.6437C10.3546 14.4796 10.1952 14.3671 9.92336 14.0952C9.33742 13.5093 9.0468 12.8156 9.0468 11.9999C9.0468 11.4796 9.14524 11.0906 9.3843 10.6265C9.7593 9.90462 10.528 9.30462 11.3062 9.11712C11.6484 9.03275 12.3374 9.03275 12.6984 9.11712Z" fill="white"/>
<path d="M11.5407 11.1609C11.2313 11.3156 11.0907 11.564 11.0719 11.9718C11.0579 12.2672 11.0719 12.3234 11.1797 12.4922C11.3719 12.7828 11.5829 12.9047 11.9344 12.9281C12.5157 12.9656 12.8907 12.6422 12.9282 12.0656C12.9516 11.6859 12.825 11.3953 12.5485 11.2125C12.286 11.039 11.8266 11.0156 11.5407 11.1609Z" fill="white"/>
</g>
<defs>
<clipPath id="clip0_169_2687">
<rect width="24" height="24" fill="white"/>
</clipPath>
</defs>
</svg>
