<svg width="47" height="47" viewBox="0 0 47 47" fill="none" xmlns="http://www.w3.org/2000/svg">
<foreignObject x="-4.02601" y="-4.02601" width="54.8411" height="54.8411"><div xmlns="http://www.w3.org/1999/xhtml" style="backdrop-filter:blur(2.01px);clip-path:url(#bgblur_0_19163_15184_clip_path);height:100%;width:100%"></div></foreignObject><g data-figma-bg-blur-radius="4.02601">
<path d="M0 23.394C0 10.4739 10.4739 0 23.394 0C36.3142 0 46.788 10.4739 46.788 23.394C46.788 36.3142 36.3142 46.788 23.394 46.788C10.4739 46.788 0 36.3142 0 23.394Z" fill="#EBEBFC"/>
<g filter="url(#filter1_d_19163_15184)">
<path d="M21.0599 12.6016C21.0599 12.1183 20.6681 11.7266 20.1849 11.7266C19.7016 11.7266 19.3099 12.1183 19.3099 12.6016L19.3099 16.0816H15.2266C14.7433 16.0816 14.3516 16.4734 14.3516 16.9566C14.3516 17.4399 14.7433 17.8316 15.2266 17.8316H15.8099L15.8099 23.665C15.8099 27.5572 18.7422 30.7645 22.5182 31.1984V34.1849C22.5182 34.6681 22.91 35.0599 23.3932 35.0599C23.8765 35.0599 24.2682 34.6681 24.2682 34.1849V31.1984C28.0442 30.7645 30.9766 27.5572 30.9766 23.665L30.9766 17.8316H31.5599C32.0431 17.8316 32.4349 17.4399 32.4349 16.9566C32.4349 16.4734 32.0431 16.0816 31.5599 16.0816H27.4766V12.6016C27.4766 12.1183 27.0848 11.7266 26.6016 11.7266C26.1183 11.7266 25.7266 12.1183 25.7266 12.6016V16.0816H21.0599L21.0599 12.6016Z" fill="#C0BDF6" shape-rendering="crispEdges"/>
<path d="M26.6016 11.4463C27.2397 11.4463 27.7568 11.9634 27.7568 12.6016V15.8008H31.5596C32.1977 15.8008 32.7158 16.3189 32.7158 16.957C32.7156 17.595 32.1976 18.1123 31.5596 18.1123H31.2568V23.665C31.2568 27.6154 28.344 30.8832 24.5488 31.4424V34.1846C24.5488 34.8226 24.0315 35.3406 23.3936 35.3408C22.7554 35.3408 22.2373 34.8227 22.2373 34.1846V31.4424C18.4423 30.883 15.5293 27.6153 15.5293 23.665V18.1123H15.2266C14.5886 18.1123 14.0715 17.595 14.0713 16.957C14.0713 16.3189 14.5884 15.8008 15.2266 15.8008H19.0293V12.6016C19.0293 11.9635 19.5466 11.4465 20.1846 11.4463C20.8227 11.4463 21.3408 11.9634 21.3408 12.6016V15.8008H25.4463V12.6016C25.4463 11.9634 25.9634 11.4463 26.6016 11.4463Z" stroke="url(#paint0_linear_19163_15184)" stroke-width="0.560904" shape-rendering="crispEdges"/>
</g>
</g>
<defs>
<clipPath id="bgblur_0_19163_15184_clip_path" transform="translate(4.02601 4.02601)"><path d="M0 23.394C0 10.4739 10.4739 0 23.394 0C36.3142 0 46.788 10.4739 46.788 23.394C46.788 36.3142 36.3142 46.788 23.394 46.788C10.4739 46.788 0 36.3142 0 23.394Z"/>
</clipPath><filter id="filter1_d_19163_15184" x="9.30183" y="11.1641" width="28.1815" height="33.4315" filterUnits="userSpaceOnUse" color-interpolation-filters="sRGB">
<feFlood flood-opacity="0" result="BackgroundImageFix"/>
<feColorMatrix in="SourceAlpha" type="matrix" values="0 0 0 0 0 0 0 0 0 0 0 0 0 0 0 0 0 0 127 0" result="hardAlpha"/>
<feOffset dy="4.48724"/>
<feGaussianBlur stdDeviation="2.24362"/>
<feComposite in2="hardAlpha" operator="out"/>
<feColorMatrix type="matrix" values="0 0 0 0 0.731 0 0 0 0 0.737592 0 0 0 0 0.829872 0 0 0 0.5 0"/>
<feBlend mode="normal" in2="BackgroundImageFix" result="effect1_dropShadow_19163_15184"/>
<feBlend mode="normal" in="SourceGraphic" in2="effect1_dropShadow_19163_15184" result="shape"/>
</filter>
<linearGradient id="paint0_linear_19163_15184" x1="23.3932" y1="11.7266" x2="23.3932" y2="35.0599" gradientUnits="userSpaceOnUse">
<stop stop-color="#C8C5EB" stop-opacity="0.6"/>
<stop offset="1" stop-color="#989DFE" stop-opacity="0.2"/>
</linearGradient>
</defs>
</svg>
