<svg width="210" height="56" viewBox="0 0 210 56" fill="none" xmlns="http://www.w3.org/2000/svg">
<path fill-rule="evenodd" clip-rule="evenodd" d="M47.872 6.63085L35.9975 18.4921C35.717 18.7723 35.3991 18.9777 35.0251 19.0898C34.7446 19.2019 34.4454 19.2579 34.1462 19.2579H22.0286C21.7294 19.2579 21.4302 19.2019 21.1497 19.0898C20.7757 18.9777 20.4578 18.7723 20.1773 18.4921L8.30279 6.63085L13.0526 1.86768L26.1987 15.0178C26.4418 15.2606 26.741 15.4661 27.0776 15.5781C27.3768 15.7089 27.7321 15.7836 28.0874 15.7836C28.424 15.7836 28.7606 15.7089 29.0598 15.5781C29.3964 15.4661 29.6956 15.2606 29.9387 15.0178L43.1035 1.88635L47.8533 6.63085H47.872Z" fill="#111827"/>
<path fill-rule="evenodd" clip-rule="evenodd" d="M41.5327 30.316L54.23 42.9991L49.4241 47.781L33.4917 31.8663C32.1079 30.5775 30.2753 29.7743 28.237 29.7182H27.863C25.8247 29.7743 23.9921 30.5775 22.6083 31.8663L6.67589 47.781L1.87 42.9991L14.5673 30.316C15.3714 29.5315 16.3251 28.8964 17.4097 28.5041C18.2699 28.1866 19.1675 27.9998 20.1399 27.9998C19.1675 27.9998 18.2699 27.813 17.4097 27.4954C16.3251 27.1032 15.3714 26.4681 14.5673 25.6836L1.87 13.0004L6.67589 8.21858L22.6083 24.1332C23.9921 25.422 25.8247 26.2252 27.863 26.2813H28.237C30.2753 26.2252 32.1079 25.422 33.4917 24.1332L49.4241 8.21858L54.23 13.0004L41.5327 25.6836C40.7286 26.4681 39.7749 27.1032 38.6903 27.4954C37.8301 27.813 36.9325 27.9998 35.9601 27.9998C36.9325 27.9998 37.8301 28.1866 38.6903 28.5041C39.7749 28.8964 40.7286 29.5315 41.5327 30.316Z" fill="#111827"/>
<path fill-rule="evenodd" clip-rule="evenodd" d="M8.24669 49.3313L22.4774 35.1165C22.7579 34.8363 23.0758 34.6309 23.4498 34.5188C23.7303 34.4067 24.0295 34.3507 24.3287 34.3507H31.7713C32.0705 34.3507 32.3697 34.4067 32.6502 34.5188C33.0242 34.6309 33.3421 34.8363 33.6226 35.1165L47.8533 49.3313L43.0661 54.1319L29.9013 40.9818C29.4338 40.5148 28.7606 40.2159 28.05 40.2159C27.3394 40.2159 26.6662 40.5148 26.1987 40.9818L13.0339 54.1319L8.24669 49.3313Z" fill="#111827"/>
<path d="M85.788 44.0453C83.5291 44.0453 81.4945 43.6717 79.6844 42.9245C77.8892 42.1624 76.4006 41.0865 75.2188 39.6968C74.0519 38.307 73.289 36.6558 72.9299 34.7431L76.2959 34.1827C76.8345 36.2748 77.9714 37.9185 79.7068 39.114C81.4422 40.2945 83.5141 40.8848 85.9227 40.8848C87.5084 40.8848 88.9296 40.6382 90.1863 40.1451C91.4429 39.637 92.4303 38.9197 93.1484 37.9932C93.8664 37.0667 94.2255 35.9684 94.2255 34.6982C94.2255 33.8614 94.0759 33.1516 93.7767 32.5688C93.4775 31.9711 93.081 31.478 92.5874 31.0894C92.0937 30.7009 91.5551 30.3796 90.9717 30.1256C90.3882 29.8566 89.8198 29.6399 89.2662 29.4756L81.0756 27.0323C80.0883 26.7484 79.1757 26.3898 78.338 25.9564C77.5002 25.5081 76.7672 24.9776 76.1388 24.3649C75.5255 23.7373 75.0468 23.0051 74.7027 22.1683C74.3586 21.3315 74.1866 20.3751 74.1866 19.2992C74.1866 17.4761 74.6653 15.8996 75.6227 14.5696C76.5802 13.2397 77.8892 12.216 79.5497 11.4988C81.2103 10.7815 83.1027 10.4303 85.227 10.4453C87.3813 10.4453 89.3036 10.8263 90.9941 11.5884C92.6996 12.3505 94.1058 13.4414 95.2128 14.861C96.3199 16.2657 97.0529 17.9319 97.412 19.8595L93.9562 20.4872C93.7318 19.0825 93.2157 17.8646 92.4078 16.8335C91.6 15.8024 90.5678 15.0104 89.3111 14.4575C88.0694 13.8897 86.7006 13.5983 85.2046 13.5834C83.7535 13.5834 82.4594 13.8299 81.3225 14.3231C80.2005 14.8012 79.3104 15.4587 78.6521 16.2956C77.9939 17.1324 77.6648 18.0888 77.6648 19.1647C77.6648 20.2555 77.964 21.1297 78.5624 21.7872C79.1757 22.4447 79.9237 22.9603 80.8064 23.3339C81.704 23.7074 82.5716 24.0138 83.4094 24.2529L89.7375 26.1133C90.3957 26.2926 91.1662 26.5541 92.0488 26.8978C92.9464 27.2266 93.8141 27.7048 94.6518 28.3324C95.5046 28.9451 96.2077 29.752 96.7612 30.7532C97.3147 31.7544 97.5915 33.0246 97.5915 34.5637C97.5915 36.0581 97.2923 37.3955 96.6939 38.576C96.1104 39.7565 95.2802 40.7503 94.203 41.5572C93.1409 42.3641 91.8917 42.9768 90.4556 43.3952C89.0344 43.8286 87.4785 44.0453 85.788 44.0453Z" fill="#111827"/>
<path d="M108.784 44.0453C106.958 44.0453 105.425 43.7165 104.183 43.059C102.957 42.4015 102.037 41.5273 101.423 40.4365C100.81 39.3456 100.503 38.1576 100.503 36.8725C100.503 35.5575 100.765 34.4367 101.289 33.5102C101.827 32.5688 102.553 31.7992 103.465 31.2015C104.393 30.6038 105.462 30.148 106.674 29.8342C107.901 29.5353 109.255 29.2738 110.736 29.0497C112.232 28.8106 113.69 28.6088 115.112 28.4445C116.548 28.2651 117.804 28.0933 118.882 27.9289L117.715 28.6462C117.76 26.2553 117.296 24.4845 116.323 23.3339C115.351 22.1832 113.66 21.6079 111.252 21.6079C109.591 21.6079 108.185 21.9815 107.033 22.7287C105.896 23.4758 105.096 24.6563 104.632 26.2702L101.423 25.3288C101.977 23.162 103.091 21.4809 104.767 20.2854C106.442 19.09 108.619 18.4922 111.297 18.4922C113.511 18.4922 115.388 18.9106 116.929 19.7475C118.485 20.5693 119.585 21.7648 120.228 23.3339C120.527 24.0362 120.722 24.8207 120.811 25.6874C120.901 26.5541 120.946 27.4358 120.946 28.3324V43.3728H118.006V37.2984L118.859 37.657C118.036 39.7341 116.757 41.3181 115.022 42.409C113.286 43.4998 111.207 44.0453 108.784 44.0453ZM109.165 41.1986C110.706 41.1986 112.052 40.9221 113.204 40.3692C114.356 39.8163 115.284 39.0617 115.987 38.1053C116.69 37.134 117.146 36.0431 117.356 34.8327C117.535 34.0557 117.632 33.2039 117.647 32.2774C117.662 31.336 117.67 30.6337 117.67 30.1704L118.926 30.8204C117.804 30.9699 116.585 31.1193 115.269 31.2687C113.967 31.4182 112.681 31.59 111.409 31.7843C110.152 31.9786 109.015 32.2102 107.998 32.4792C107.31 32.6734 106.644 32.9499 106.001 33.3085C105.358 33.6522 104.827 34.1154 104.408 34.6982C104.004 35.281 103.802 36.0058 103.802 36.8725C103.802 37.5748 103.974 38.2547 104.318 38.9122C104.677 39.5697 105.245 40.1152 106.023 40.5485C106.816 40.9819 107.863 41.1986 109.165 41.1986Z" fill="#111827"/>
<path d="M133.348 44.0453C131.523 44.0453 129.989 43.7165 128.748 43.059C127.521 42.4015 126.601 41.5273 125.987 40.4365C125.374 39.3456 125.067 38.1576 125.067 36.8725C125.067 35.5575 125.329 34.4367 125.853 33.5102C126.391 32.5688 127.117 31.7992 128.029 31.2015C128.957 30.6038 130.027 30.148 131.238 29.8342C132.465 29.5353 133.819 29.2738 135.3 29.0497C136.796 28.8106 138.255 28.6088 139.676 28.4445C141.112 28.2651 142.369 28.0933 143.446 27.9289L142.279 28.6462C142.324 26.2553 141.86 24.4845 140.888 23.3339C139.915 22.1832 138.225 21.6079 135.816 21.6079C134.156 21.6079 132.749 21.9815 131.597 22.7287C130.46 23.4758 129.66 24.6563 129.196 26.2702L125.987 25.3288C126.541 23.162 127.655 21.4809 129.331 20.2854C131.006 19.09 133.183 18.4922 135.861 18.4922C138.075 18.4922 139.953 18.9106 141.493 19.7475C143.049 20.5693 144.149 21.7648 144.792 23.3339C145.091 24.0362 145.286 24.8207 145.376 25.6874C145.465 26.5541 145.51 27.4358 145.51 28.3324V43.3728H142.571V37.2984L143.423 37.657C142.6 39.7341 141.321 41.3181 139.586 42.409C137.851 43.4998 135.771 44.0453 133.348 44.0453ZM133.729 41.1986C135.27 41.1986 136.616 40.9221 137.768 40.3692C138.92 39.8163 139.848 39.0617 140.551 38.1053C141.254 37.134 141.71 36.0431 141.92 34.8327C142.099 34.0557 142.197 33.2039 142.212 32.2774C142.226 31.336 142.234 30.6337 142.234 30.1704L143.491 30.8204C142.369 30.9699 141.149 31.1193 139.833 31.2687C138.531 31.4182 137.245 31.59 135.973 31.7843C134.717 31.9786 133.58 32.2102 132.562 32.4792C131.874 32.6734 131.208 32.9499 130.565 33.3085C129.922 33.6522 129.391 34.1154 128.972 34.6982C128.568 35.281 128.366 36.0058 128.366 36.8725C128.366 37.5748 128.538 38.2547 128.882 38.9122C129.241 39.5697 129.81 40.1152 130.588 40.5485C131.38 40.9819 132.428 41.1986 133.729 41.1986Z" fill="#111827"/>
<path d="M162.198 44.0453C159.939 44.0453 157.904 43.6717 156.094 42.9245C154.299 42.1624 152.811 41.0865 151.629 39.6968C150.462 38.307 149.699 36.6558 149.34 34.7431L152.706 34.1827C153.244 36.2748 154.381 37.9185 156.117 39.114C157.852 40.2945 159.924 40.8848 162.333 40.8848C163.918 40.8848 165.34 40.6382 166.596 40.1451C167.853 39.637 168.84 38.9197 169.558 37.9932C170.276 37.0667 170.635 35.9684 170.635 34.6982C170.635 33.8614 170.486 33.1516 170.187 32.5688C169.887 31.9711 169.491 31.478 168.997 31.0894C168.504 30.7009 167.965 30.3796 167.382 30.1256C166.798 29.8566 166.23 29.6399 165.676 29.4756L157.486 27.0323C156.498 26.7484 155.586 26.3898 154.748 25.9564C153.91 25.5081 153.177 24.9776 152.549 24.3649C151.935 23.7373 151.457 23.0051 151.113 22.1683C150.769 21.3315 150.596 20.3751 150.596 19.2992C150.596 17.4761 151.075 15.8996 152.033 14.5696C152.99 13.2397 154.299 12.216 155.96 11.4988C157.62 10.7815 159.513 10.4303 161.637 10.4453C163.791 10.4453 165.714 10.8263 167.404 11.5884C169.109 12.3505 170.516 13.4414 171.623 14.861C172.73 16.2657 173.463 17.9319 173.822 19.8595L170.366 20.4872C170.142 19.0825 169.626 17.8646 168.818 16.8335C168.01 15.8024 166.978 15.0104 165.721 14.4575C164.479 13.8897 163.11 13.5983 161.615 13.5834C160.163 13.5834 158.869 13.8299 157.732 14.3231C156.61 14.8012 155.72 15.4587 155.062 16.2956C154.404 17.1324 154.075 18.0888 154.075 19.1647C154.075 20.2555 154.374 21.1297 154.972 21.7872C155.586 22.4447 156.334 22.9603 157.216 23.3339C158.114 23.7074 158.982 24.0138 159.819 24.2529L166.147 26.1133C166.806 26.2926 167.576 26.5541 168.459 26.8978C169.356 27.2266 170.224 27.7048 171.062 28.3324C171.914 28.9451 172.618 29.752 173.171 30.7532C173.725 31.7544 174.001 33.0246 174.001 34.5637C174.001 36.0581 173.702 37.3955 173.104 38.576C172.52 39.7565 171.69 40.7503 170.613 41.5572C169.551 42.3641 168.302 42.9768 166.865 43.3952C165.444 43.8286 163.888 44.0453 162.198 44.0453Z" fill="#111827"/>
<path d="M178.708 43.3728V10.4229H182.007V43.3728H178.708Z" fill="#111827"/>
<path d="M191.816 54.132L196.506 41.4227L196.573 45.1884L185.959 19.1647H189.46L198.167 40.9296H196.73L204.764 19.1647H208.13L195.115 54.132H191.816Z" fill="#111827"/>
</svg>
