<svg width="113" height="30" viewBox="0 0 113 30" fill="none" xmlns="http://www.w3.org/2000/svg">
<path fill-rule="evenodd" clip-rule="evenodd" d="M25.6 3.55L19.25 9.9C19.1 10.05 18.93 10.16 18.73 10.22C18.58 10.28 18.42 10.31 18.26 10.31H11.78C11.62 10.31 11.46 10.28 11.31 10.22C11.11 10.16 10.94 10.05 10.79 9.9L4.44 3.55L6.98 1L14.01 8.04C14.14 8.17 14.3 8.28 14.48 8.34C14.64 8.41 14.83 8.45 15.02 8.45C15.2 8.45 15.38 8.41 15.54 8.34C15.72 8.28 15.88 8.17 16.01 8.04L23.05 1.01L25.59 3.55H25.6Z" fill="black"/>
<path fill-rule="evenodd" clip-rule="evenodd" d="M22.21 16.23L29 23.02L26.43 25.58L17.91 17.06C17.17 16.37 16.19 15.94 15.1 15.91H14.9C13.81 15.94 12.83 16.37 12.09 17.06L3.57 25.58L1 23.02L7.79 16.23C8.22 15.81 8.73 15.47 9.31 15.26C9.77 15.09 10.25 14.99 10.77 14.99C10.25 14.99 9.77 14.89 9.31 14.72C8.73 14.51 8.22 14.17 7.79 13.75L1 6.96L3.57 4.4L12.09 12.92C12.83 13.61 13.81 14.04 14.9 14.07H15.1C16.19 14.04 17.17 13.61 17.91 12.92L26.43 4.4L29 6.96L22.21 13.75C21.78 14.17 21.27 14.51 20.69 14.72C20.23 14.89 19.75 14.99 19.23 14.99C19.75 14.99 20.23 15.09 20.69 15.26C21.27 15.47 21.78 15.81 22.21 16.23Z" fill="black"/>
<path fill-rule="evenodd" clip-rule="evenodd" d="M4.41 26.41L12.02 18.8C12.17 18.65 12.34 18.54 12.54 18.48C12.69 18.42 12.85 18.39 13.01 18.39H16.99C17.15 18.39 17.31 18.42 17.46 18.48C17.66 18.54 17.83 18.65 17.98 18.8L25.59 26.41L23.03 28.98L15.99 21.94C15.74 21.69 15.38 21.53 15 21.53C14.62 21.53 14.26 21.69 14.01 21.94L6.97 28.98L4.41 26.41Z" fill="black"/>
<path d="M45.876 23.58C44.668 23.58 43.58 23.38 42.612 22.98C41.652 22.572 40.856 21.996 40.224 21.252C39.6 20.508 39.192 19.624 39 18.6L40.8 18.3C41.088 19.42 41.696 20.3 42.624 20.94C43.552 21.572 44.66 21.888 45.948 21.888C46.796 21.888 47.556 21.756 48.228 21.492C48.9 21.22 49.428 20.836 49.812 20.34C50.196 19.844 50.388 19.256 50.388 18.576C50.388 18.128 50.308 17.748 50.148 17.436C49.988 17.116 49.776 16.852 49.512 16.644C49.248 16.436 48.96 16.264 48.648 16.128C48.336 15.984 48.032 15.868 47.736 15.78L43.356 14.472C42.828 14.32 42.34 14.128 41.892 13.896C41.444 13.656 41.052 13.372 40.716 13.044C40.388 12.708 40.132 12.316 39.948 11.868C39.764 11.42 39.672 10.908 39.672 10.332C39.672 9.356 39.928 8.512 40.44 7.8C40.952 7.088 41.652 6.54 42.54 6.156C43.428 5.772 44.44 5.584 45.576 5.592C46.728 5.592 47.756 5.796 48.66 6.204C49.572 6.612 50.324 7.196 50.916 7.956C51.508 8.708 51.9 9.6 52.092 10.632L50.244 10.968C50.124 10.216 49.848 9.564 49.416 9.012C48.984 8.46 48.432 8.036 47.76 7.74C47.096 7.436 46.364 7.28 45.564 7.272C44.788 7.272 44.096 7.404 43.488 7.668C42.888 7.924 42.412 8.276 42.06 8.724C41.708 9.172 41.532 9.684 41.532 10.26C41.532 10.844 41.692 11.312 42.012 11.664C42.34 12.016 42.74 12.292 43.212 12.492C43.692 12.692 44.156 12.856 44.604 12.984L47.988 13.98C48.34 14.076 48.752 14.216 49.224 14.4C49.704 14.576 50.168 14.832 50.616 15.168C51.072 15.496 51.448 15.928 51.744 16.464C52.04 17 52.188 17.68 52.188 18.504C52.188 19.304 52.028 20.02 51.708 20.652C51.396 21.284 50.952 21.816 50.376 22.248C49.808 22.68 49.14 23.008 48.372 23.232C47.612 23.464 46.78 23.58 45.876 23.58Z" fill="black"/>
<path d="M58.1731 23.58C57.1971 23.58 56.3771 23.404 55.7131 23.052C55.0571 22.7 54.5651 22.232 54.2371 21.648C53.9091 21.064 53.7451 20.428 53.7451 19.74C53.7451 19.036 53.8851 18.436 54.1651 17.94C54.4531 17.436 54.8411 17.024 55.3291 16.704C55.8251 16.384 56.3971 16.14 57.0451 15.972C57.7011 15.812 58.4251 15.672 59.2171 15.552C60.0171 15.424 60.7971 15.316 61.5571 15.228C62.3251 15.132 62.9971 15.04 63.5731 14.952L62.9491 15.336C62.9731 14.056 62.7251 13.108 62.2051 12.492C61.6851 11.876 60.7811 11.568 59.4931 11.568C58.6051 11.568 57.8531 11.768 57.2371 12.168C56.6291 12.568 56.2011 13.2 55.9531 14.064L54.2371 13.56C54.5331 12.4 55.1291 11.5 56.0251 10.86C56.9211 10.22 58.0851 9.9 59.5171 9.9C60.7011 9.9 61.7051 10.124 62.5291 10.572C63.3611 11.012 63.9491 11.652 64.2931 12.492C64.4531 12.868 64.5571 13.288 64.6051 13.752C64.6531 14.216 64.6771 14.688 64.6771 15.168V23.22H63.1051V19.968L63.5611 20.16C63.1211 21.272 62.4371 22.12 61.5091 22.704C60.5811 23.288 59.4691 23.58 58.1731 23.58ZM58.3771 22.056C59.2011 22.056 59.9211 21.908 60.5371 21.612C61.1531 21.316 61.6491 20.912 62.0251 20.4C62.4011 19.88 62.6451 19.296 62.7571 18.648C62.8531 18.232 62.9051 17.776 62.9131 17.28C62.9211 16.776 62.9251 16.4 62.9251 16.152L63.5971 16.5C62.9971 16.58 62.3451 16.66 61.6411 16.74C60.9451 16.82 60.2571 16.912 59.5771 17.016C58.9051 17.12 58.2971 17.244 57.7531 17.388C57.3851 17.492 57.0291 17.64 56.6851 17.832C56.3411 18.016 56.0571 18.264 55.8331 18.576C55.6171 18.888 55.5091 19.276 55.5091 19.74C55.5091 20.116 55.6011 20.48 55.7851 20.832C55.9771 21.184 56.2811 21.476 56.6971 21.708C57.1211 21.94 57.6811 22.056 58.3771 22.056Z" fill="black"/>
<path d="M71.309 23.58C70.333 23.58 69.513 23.404 68.849 23.052C68.193 22.7 67.701 22.232 67.373 21.648C67.045 21.064 66.881 20.428 66.881 19.74C66.881 19.036 67.021 18.436 67.301 17.94C67.589 17.436 67.977 17.024 68.465 16.704C68.961 16.384 69.533 16.14 70.181 15.972C70.837 15.812 71.561 15.672 72.353 15.552C73.153 15.424 73.933 15.316 74.693 15.228C75.461 15.132 76.133 15.04 76.709 14.952L76.085 15.336C76.109 14.056 75.861 13.108 75.341 12.492C74.821 11.876 73.917 11.568 72.629 11.568C71.741 11.568 70.989 11.768 70.373 12.168C69.765 12.568 69.337 13.2 69.089 14.064L67.373 13.56C67.669 12.4 68.265 11.5 69.161 10.86C70.057 10.22 71.221 9.9 72.653 9.9C73.837 9.9 74.841 10.124 75.665 10.572C76.497 11.012 77.085 11.652 77.429 12.492C77.589 12.868 77.693 13.288 77.741 13.752C77.789 14.216 77.813 14.688 77.813 15.168V23.22H76.241V19.968L76.697 20.16C76.257 21.272 75.573 22.12 74.645 22.704C73.717 23.288 72.605 23.58 71.309 23.58ZM71.513 22.056C72.337 22.056 73.057 21.908 73.673 21.612C74.289 21.316 74.785 20.912 75.161 20.4C75.537 19.88 75.781 19.296 75.893 18.648C75.989 18.232 76.041 17.776 76.049 17.28C76.057 16.776 76.061 16.4 76.061 16.152L76.733 16.5C76.133 16.58 75.481 16.66 74.777 16.74C74.081 16.82 73.393 16.912 72.713 17.016C72.041 17.12 71.433 17.244 70.889 17.388C70.521 17.492 70.165 17.64 69.821 17.832C69.477 18.016 69.193 18.264 68.969 18.576C68.753 18.888 68.645 19.276 68.645 19.74C68.645 20.116 68.737 20.48 68.921 20.832C69.113 21.184 69.417 21.476 69.833 21.708C70.257 21.94 70.817 22.056 71.513 22.056Z" fill="black"/>
<path d="M86.7369 23.58C85.5289 23.58 84.4409 23.38 83.4729 22.98C82.5129 22.572 81.7169 21.996 81.0849 21.252C80.4609 20.508 80.0529 19.624 79.8609 18.6L81.6609 18.3C81.9489 19.42 82.5569 20.3 83.4849 20.94C84.4129 21.572 85.5209 21.888 86.8089 21.888C87.6569 21.888 88.4169 21.756 89.0889 21.492C89.7609 21.22 90.2889 20.836 90.6729 20.34C91.0569 19.844 91.2489 19.256 91.2489 18.576C91.2489 18.128 91.1689 17.748 91.0089 17.436C90.8489 17.116 90.6369 16.852 90.3729 16.644C90.1089 16.436 89.8209 16.264 89.5089 16.128C89.1969 15.984 88.8929 15.868 88.5969 15.78L84.2169 14.472C83.6889 14.32 83.2009 14.128 82.7529 13.896C82.3049 13.656 81.9129 13.372 81.5769 13.044C81.2489 12.708 80.9929 12.316 80.8089 11.868C80.6249 11.42 80.5329 10.908 80.5329 10.332C80.5329 9.356 80.7889 8.512 81.3009 7.8C81.8129 7.088 82.5129 6.54 83.4009 6.156C84.2889 5.772 85.3009 5.584 86.4369 5.592C87.5889 5.592 88.6169 5.796 89.5209 6.204C90.4329 6.612 91.1849 7.196 91.7769 7.956C92.3689 8.708 92.7609 9.6 92.9529 10.632L91.1049 10.968C90.9849 10.216 90.7089 9.564 90.2769 9.012C89.8449 8.46 89.2929 8.036 88.6209 7.74C87.9569 7.436 87.2249 7.28 86.4249 7.272C85.6489 7.272 84.9569 7.404 84.3489 7.668C83.7489 7.924 83.2729 8.276 82.9209 8.724C82.5689 9.172 82.3929 9.684 82.3929 10.26C82.3929 10.844 82.5529 11.312 82.8729 11.664C83.2009 12.016 83.6009 12.292 84.0729 12.492C84.5529 12.692 85.0169 12.856 85.4649 12.984L88.8489 13.98C89.2009 14.076 89.6129 14.216 90.0849 14.4C90.5649 14.576 91.0289 14.832 91.4769 15.168C91.9329 15.496 92.3089 15.928 92.6049 16.464C92.9009 17 93.0489 17.68 93.0489 18.504C93.0489 19.304 92.8889 20.02 92.5689 20.652C92.2569 21.284 91.8129 21.816 91.2369 22.248C90.6689 22.68 90.0009 23.008 89.2329 23.232C88.4729 23.464 87.6409 23.58 86.7369 23.58Z" fill="black"/>
<path d="M95.566 23.22V5.58H97.33V23.22H95.566Z" fill="black"/>
<path d="M102.576 28.98L105.084 22.176L105.12 24.192L99.4436 10.26H101.316L105.972 21.912H105.204L109.5 10.26H111.3L104.34 28.98H102.576Z" fill="black"/>
</svg>
