<svg width="114" height="33" viewBox="0 0 114 33" fill="none" xmlns="http://www.w3.org/2000/svg">
<path d="M19.9268 8.37534L14.3927 8.70778C14.2493 8.01683 13.8647 7.42365 13.2389 6.92825C12.6131 6.41981 11.7723 6.16559 10.7163 6.16559C9.77764 6.16559 8.98891 6.36115 8.3501 6.75225C7.72433 7.14336 7.41145 7.66483 7.41145 8.31667C7.41145 8.83815 7.61352 9.28792 8.01766 9.66599C8.43484 10.031 9.14535 10.3178 10.1492 10.5264L14.1189 11.3086C16.2439 11.7388 17.8279 12.4363 18.8708 13.401C19.9138 14.3658 20.4353 15.6369 20.4353 17.2143C20.4353 18.6614 20.0181 19.926 19.1837 21.008C18.3494 22.0771 17.2021 22.9179 15.742 23.5307C14.2819 24.1304 12.6066 24.4302 10.7163 24.4302C7.82211 24.4302 5.51459 23.824 3.79372 22.6116C2.0859 21.3991 1.08858 19.7565 0.801766 17.6836L6.72701 17.3708C6.92257 18.2573 7.36582 18.9287 8.05677 19.385C8.74772 19.8412 9.63423 20.0694 10.7163 20.0694C11.7723 20.0694 12.6262 19.8608 13.278 19.4436C13.9429 19.0264 14.2753 18.4985 14.2753 17.8596C14.2753 16.7776 13.3367 16.0475 11.4594 15.6695L7.68522 14.8872C5.56022 14.457 3.97624 13.7204 2.93329 12.6775C1.89034 11.6346 1.36887 10.2983 1.36887 8.66867C1.36887 7.26069 1.75346 6.04826 2.52263 5.03139C3.2918 4.01451 4.36734 3.2323 5.74925 2.68475C7.14419 2.13721 8.7738 1.86343 10.6381 1.86343C13.4019 1.86343 15.5725 2.45009 17.15 3.62341C18.7405 4.78369 19.6661 6.36766 19.9268 8.37534ZM25.892 32.1741C25.1228 32.1871 24.3992 32.135 23.7213 32.0177C23.0564 31.9003 22.5089 31.7504 22.0787 31.5679L23.4476 27.0506L23.6431 27.0897C24.66 27.3896 25.5269 27.4548 26.244 27.2853C26.974 27.1288 27.5281 26.5552 27.9062 25.5644L28.2581 24.6258L20.436 2.13721H26.7915L31.3088 18.1921H31.5434L36.1194 2.13721H42.5139L34.027 26.3662C33.6228 27.5395 33.0687 28.5629 32.3648 29.4364C31.6738 30.3098 30.8003 30.9812 29.7444 31.4506C28.6884 31.9329 27.4042 32.1741 25.892 32.1741ZM49.5937 11.3673V24H43.5512V2.13721H49.496V6.02871H49.7111C50.2065 4.73806 50.9952 3.72118 52.0772 2.97808C53.1593 2.23498 54.5151 1.86343 56.1447 1.86343C57.657 1.86343 58.9737 2.19587 60.0949 2.86075C61.2291 3.52563 62.1091 4.4708 62.7349 5.69627C63.3606 6.92173 63.6735 8.38838 63.6735 10.0962V24H57.6309V11.1717C57.6309 9.84198 57.2855 8.79904 56.5945 8.0429C55.9036 7.27373 54.9519 6.88914 53.7394 6.88914C52.9312 6.88914 52.2141 7.07165 51.5884 7.43669C50.9626 7.78868 50.4737 8.29712 50.1217 8.962C49.7697 9.62688 49.5937 10.4286 49.5937 11.3673ZM76.4048 24.4302C74.1625 24.4302 72.2265 23.9739 70.5969 23.0613C68.9673 22.1488 67.7157 20.8516 66.8423 19.1698C65.9818 17.4751 65.5516 15.4739 65.5516 13.1664C65.5516 10.924 65.9818 8.95548 66.8423 7.26069C67.7157 5.5659 68.9412 4.24266 70.5187 3.29097C72.1092 2.33928 73.9734 1.86343 76.1115 1.86343C77.5586 1.86343 78.9079 2.0981 80.1594 2.56742C81.4109 3.02371 82.506 3.71467 83.4447 4.64028C84.3833 5.55286 85.1134 6.70662 85.6349 8.10156C86.1564 9.48347 86.4171 11.1066 86.4171 12.9708V14.6135H67.9569V10.8784H83.4838L80.6678 11.8562C80.6678 10.748 80.4984 9.78332 80.1594 8.962C79.8204 8.14068 79.312 7.50839 78.6341 7.06514C77.9692 6.60885 77.1414 6.3807 76.1506 6.3807C75.1598 6.3807 74.3189 6.60885 73.6279 7.06514C72.95 7.52143 72.4286 8.14068 72.0635 8.92289C71.6985 9.7051 71.516 10.6046 71.516 11.6215V14.2615C71.516 15.4478 71.7246 16.4647 72.1417 17.3121C72.5589 18.1465 73.1391 18.7918 73.8822 19.2481C74.6383 19.6913 75.5053 19.9129 76.483 19.9129C77.1609 19.9129 77.7737 19.8152 78.3212 19.6196C78.8688 19.4241 79.3381 19.1373 79.7292 18.7592C80.1333 18.3811 80.4332 17.9248 80.6287 17.3903L86.2215 17.7619C85.9478 19.1047 85.3741 20.278 84.5007 21.2818C83.6402 22.2726 82.5256 23.0483 81.1567 23.6089C79.7879 24.1564 78.2039 24.4302 76.4048 24.4302ZM92.4996 2.13721L96.4693 9.80287L100.595 2.13721H106.834L100.498 13.0882L106.99 24H100.791L96.4693 16.4517L92.2649 24H85.9877L92.4996 13.0882L86.2223 2.13721H92.4996Z" fill="black"/>
</svg>
