<svg xmlns="http://www.w3.org/2000/svg" width="97" height="36" fill="none"><path fill="#FC2919" d="M6.265 0c3.184 0 5.765 2.59 5.765 5.786v24.428A3.979 3.979 0 0 0 16 34.2h.257a3.979 3.979 0 0 0 3.971-3.986v-21.6a1.54 1.54 0 0 0-1.537-1.543 1.54 1.54 0 0 0-1.537 1.543v21.729H15.36V8.614l.001-.086a3.336 3.336 0 0 1 3.33-3.257c1.81 0 3.284 1.45 3.33 3.257v21.815c-.068 3.086-2.543 5.577-5.615 5.655l-.149.002h-.256c-3.184 0-5.765-2.59-5.765-5.786V5.786A3.978 3.978 0 0 0 6.265 1.8a3.979 3.979 0 0 0-3.972 3.986V27.77a1.54 1.54 0 0 0 1.538 1.543 1.54 1.54 0 0 0 1.537-1.543V6.043h1.793v21.815a3.336 3.336 0 0 1-3.33 3.256A3.336 3.336 0 0 1 .5 27.858V5.786C.5 2.59 3.081 0 6.265 0Z"/><path fill="#2F2F2F" d="M42.234 20.648c0 1.474.65 2.279 2.159 2.279.942 0 2.004-.668 2.535-1.525v-5.517h2.005v8.155c0 3.273-2.21 4.54-5.277 4.54-.925 0-2.279-.24-3.187-.582v-1.953c.96.428 2.159.634 3.204.634 1.867 0 3.324-.48 3.324-2.639v-.908h-.069c-.72.943-2.141 1.594-3.306 1.594-2.262 0-3.427-1.508-3.427-3.907v-4.934h2.039v4.763Zm13.375-4.986c2.313 0 4.026 1.885 4.043 4.54 0 2.656-1.713 4.54-4.026 4.54-1.25 0-2.364-.496-3.066-1.216h-.07v4.832h-2.038V15.902h2.039v.977h.069c.702-.754 1.833-1.217 3.049-1.217Zm9.111 0c2.69 0 4.523 1.85 4.523 4.54 0 .138-.017.43-.034.703h-6.905c.257 1.148 1.354 1.919 3.05 1.919 1.148 0 2.45-.343 3.067-.72v2.005c-.686.343-1.953.634-3.084.634-3.238 0-5.226-1.885-5.226-4.54 0-2.656 1.954-4.54 4.61-4.54Zm13.49 1.218h.068c.703-.72 1.816-1.217 3.067-1.217 2.313 0 4.026 1.885 4.026 4.54-.017 2.656-1.73 4.54-4.043 4.54-1.216 0-2.347-.462-3.05-1.216h-.068v.977h-2.04V12.047h2.039v4.832Zm14.814-.977h3.118v1.73h-3.118v3.513c0 1.233.548 1.747 1.645 1.747a5.23 5.23 0 0 0 1.473-.222v1.85c-.445.103-1.01.223-1.696.223-2.124 0-3.46-1.08-3.46-3.22v-3.89H88.98v-1.73h2.004v-2.828h2.039v2.828Zm-62.582 1.68h6.066V12.51h2.158v11.993h-2.158v-4.848H30.44v4.848h-2.158V12.51h2.158v5.072Zm45.116-.018c-1.302.017-2.792.771-3.272 2.159v4.78h-2.038v-8.6h2.038v1.644h.069c.702-1.148 1.884-1.867 3.22-1.885l-.017 1.902Zm12.926 6.94h-2.039v-8.619h2.04v8.618ZM55.01 17.581c-.942 0-1.936.445-2.518 1.113v2.964c.53.737 1.525 1.182 2.518 1.182 1.474 0 2.587-1.097 2.57-2.638 0-1.542-1.096-2.621-2.57-2.621Zm25.718-.018c-.993 0-1.987.446-2.518 1.182v2.965c.582.668 1.576 1.113 2.518 1.113 1.474 0 2.57-1.08 2.57-2.621.017-1.542-1.096-2.639-2.57-2.639Zm-15.99 0c-1.336 0-2.313.857-2.501 2.073h4.968c-.034-1.25-1.13-2.073-2.467-2.073Zm22.718-5.825c.771 0 1.32.583 1.32 1.32 0 .719-.549 1.302-1.32 1.302a1.295 1.295 0 0 1-1.319-1.303c0-.736.565-1.319 1.32-1.319Z"/></svg>