<svg width="195" height="38" viewBox="0 0 195 38" fill="none" xmlns="http://www.w3.org/2000/svg">
<path d="M48.3061 8.21679H58.3575C59.9742 8.21679 61.2931 8.45079 62.3142 8.91879C63.3353 9.38679 64.1224 9.9718 64.6755 10.6738C65.2286 11.3758 65.6009 12.1416 65.7923 12.9713C66.0051 13.8009 66.1114 14.5667 66.1114 15.2687C66.1114 15.9707 66.0051 16.7366 65.7923 17.5662C65.6009 18.3746 65.2286 19.1298 64.6755 19.8318C64.1224 20.5338 63.3353 21.1188 62.3142 21.5868C61.2931 22.0335 59.9742 22.2569 58.3575 22.2569H52.2947V31H48.3061V8.21679ZM52.2947 19.0021H58.1341C58.5808 19.0021 59.0382 18.9383 59.5062 18.8107C59.9742 18.683 60.3997 18.4809 60.7826 18.2044C61.1868 17.9066 61.5058 17.5237 61.7398 17.0557C61.9951 16.5664 62.1228 15.9601 62.1228 15.2368C62.1228 14.4923 62.0164 13.8754 61.8037 13.3861C61.5909 12.8968 61.3038 12.5139 60.9421 12.2374C60.5805 11.9395 60.1657 11.7374 59.6977 11.6311C59.2297 11.5247 58.7297 11.4715 58.1979 11.4715H52.2947V19.0021ZM79.4492 21.2996C79.4067 20.7252 79.2791 20.1721 79.0663 19.6403C78.8749 19.1085 78.5983 18.6511 78.2367 18.2682C77.8963 17.864 77.4709 17.5449 76.9603 17.3109C76.471 17.0557 75.9179 16.928 75.301 16.928C74.6629 16.928 74.0778 17.045 73.546 17.279C73.0355 17.4917 72.5888 17.8002 72.2058 18.2044C71.8442 18.5873 71.5464 19.0447 71.3124 19.5765C71.0997 20.1083 70.9827 20.6827 70.9614 21.2996H79.4492ZM70.9614 23.6928C70.9614 24.331 71.0465 24.9479 71.2167 25.5435C71.4081 26.1392 71.6847 26.6603 72.0463 27.1071C72.4079 27.5538 72.8653 27.9154 73.4184 28.192C73.9715 28.4473 74.6309 28.5749 75.3968 28.5749C76.4604 28.5749 77.3113 28.3515 77.9495 27.9048C78.609 27.4368 79.0982 26.7454 79.4173 25.8307H82.8635C82.6721 26.7242 82.3423 27.5219 81.8743 28.2239C81.4063 28.9259 80.8426 29.5215 80.1832 30.0108C79.5237 30.4788 78.7791 30.8298 77.9495 31.0638C77.1411 31.3191 76.2902 31.4467 75.3968 31.4467C74.0991 31.4467 72.9504 31.234 71.9506 30.8085C70.9507 30.3831 70.0998 29.7874 69.3978 29.0216C68.7171 28.2558 68.1959 27.3411 67.8343 26.2774C67.4939 25.2138 67.3237 24.0438 67.3237 22.7674C67.3237 21.5974 67.5045 20.4912 67.8662 19.4488C68.2491 18.3852 68.7809 17.4598 69.4616 16.6727C70.1636 15.8644 71.0039 15.2262 71.9825 14.7582C72.961 14.2902 74.0672 14.0562 75.301 14.0562C76.5987 14.0562 77.7581 14.3327 78.7791 14.8858C79.8215 15.4176 80.6831 16.1303 81.3638 17.0237C82.0445 17.9172 82.5338 18.9489 82.8316 20.1189C83.1507 21.2677 83.2358 22.459 83.0869 23.6928H70.9614ZM84.9907 8.21679H88.6284V31H84.9907V8.21679ZM91.6346 14.5029H95.0808V16.8004H95.1765C95.4531 16.3962 95.7509 16.0239 96.07 15.6836C96.3891 15.3432 96.7401 15.056 97.123 14.822C97.5272 14.588 97.9845 14.4072 98.4951 14.2795C99.0056 14.1306 99.5906 14.0562 100.25 14.0562C101.25 14.0562 102.175 14.2795 103.026 14.7263C103.898 15.173 104.515 15.8644 104.877 16.8004C105.494 15.9495 106.206 15.2794 107.015 14.7901C107.823 14.3008 108.834 14.0562 110.046 14.0562C111.791 14.0562 113.141 14.4816 114.099 15.3326C115.077 16.1835 115.567 17.6087 115.567 19.6084V31H111.929V21.3634C111.929 20.7039 111.908 20.1083 111.865 19.5765C111.823 19.0234 111.695 18.5554 111.482 18.1725C111.291 17.7683 110.993 17.4598 110.589 17.2471C110.185 17.0344 109.631 16.928 108.929 16.928C107.696 16.928 106.802 17.3109 106.249 18.0767C105.696 18.8426 105.419 19.9275 105.419 21.3315V31H101.782V20.4061C101.782 19.2574 101.569 18.3958 101.144 17.8215C100.739 17.2258 99.9842 16.928 98.878 16.928C98.41 16.928 97.9526 17.0237 97.5059 17.2152C97.0804 17.4067 96.6975 17.6832 96.3572 18.0448C96.0381 18.4065 95.7722 18.8532 95.5594 19.385C95.368 19.9168 95.2722 20.5231 95.2722 21.2039V31H91.6346V14.5029ZM132.259 27.3304C132.259 27.7772 132.312 28.0963 132.418 28.2877C132.546 28.4792 132.78 28.5749 133.12 28.5749C133.227 28.5749 133.354 28.5749 133.503 28.5749C133.652 28.5749 133.822 28.5536 134.014 28.5111V31.0319C133.886 31.0745 133.716 31.117 133.503 31.1595C133.312 31.2234 133.11 31.2765 132.897 31.3191C132.684 31.3616 132.472 31.3935 132.259 31.4148C132.046 31.4361 131.865 31.4467 131.716 31.4467C130.972 31.4467 130.355 31.2978 129.866 31C129.376 30.7022 129.057 30.181 128.908 29.4364C128.185 30.1384 127.292 30.649 126.228 30.9681C125.186 31.2872 124.175 31.4467 123.197 31.4467C122.452 31.4467 121.739 31.3404 121.059 31.1276C120.378 30.9362 119.772 30.649 119.24 30.2661C118.729 29.8619 118.314 29.362 117.995 28.7664C117.698 28.1494 117.549 27.4368 117.549 26.6284C117.549 25.6073 117.729 24.7777 118.091 24.1395C118.474 23.5013 118.963 23.0014 119.559 22.6398C120.176 22.2781 120.857 22.0229 121.601 21.874C122.367 21.7038 123.133 21.5761 123.899 21.491C124.558 21.3634 125.186 21.2783 125.781 21.2358C126.377 21.1719 126.898 21.0762 127.345 20.9486C127.813 20.8209 128.174 20.6295 128.43 20.3742C128.706 20.0977 128.845 19.6935 128.845 19.1617C128.845 18.6937 128.728 18.3108 128.494 18.0129C128.281 17.7151 128.004 17.4917 127.664 17.3428C127.345 17.1727 126.983 17.0663 126.579 17.0237C126.175 16.9599 125.792 16.928 125.43 16.928C124.409 16.928 123.569 17.1407 122.909 17.5662C122.25 17.9917 121.878 18.6511 121.793 19.5446H118.155C118.219 18.4809 118.474 17.5981 118.921 16.8961C119.367 16.1941 119.931 15.6304 120.612 15.2049C121.314 14.7795 122.101 14.4816 122.973 14.3115C123.845 14.1413 124.739 14.0562 125.654 14.0562C126.462 14.0562 127.26 14.1413 128.047 14.3115C128.834 14.4816 129.536 14.7582 130.153 15.1411C130.791 15.524 131.302 16.0239 131.684 16.6408C132.067 17.2365 132.259 17.9704 132.259 18.8426V27.3304ZM128.621 22.7355C128.068 23.0971 127.387 23.3205 126.579 23.4056C125.771 23.4694 124.962 23.5758 124.154 23.7247C123.771 23.7885 123.399 23.8842 123.037 24.0119C122.675 24.1182 122.356 24.2778 122.08 24.4905C121.803 24.682 121.58 24.9479 121.41 25.2882C121.261 25.6073 121.186 26.0009 121.186 26.4689C121.186 26.8731 121.303 27.2134 121.537 27.49C121.771 27.7665 122.048 27.9899 122.367 28.1601C122.707 28.309 123.069 28.4153 123.452 28.4792C123.856 28.543 124.218 28.5749 124.537 28.5749C124.941 28.5749 125.377 28.5217 125.845 28.4153C126.313 28.309 126.749 28.1282 127.153 27.8729C127.579 27.6176 127.93 27.2985 128.206 26.9156C128.483 26.5114 128.621 26.0222 128.621 25.4478V22.7355ZM133.556 14.5029H136.301V9.55698H139.938V14.5029H143.225V17.2152H139.938V26.0222C139.938 26.4051 139.949 26.7348 139.97 27.0113C140.013 27.2879 140.087 27.5219 140.194 27.7133C140.321 27.9048 140.502 28.0537 140.736 28.1601C140.97 28.2452 141.289 28.2877 141.693 28.2877C141.949 28.2877 142.204 28.2877 142.459 28.2877C142.714 28.2664 142.97 28.2239 143.225 28.1601V30.9681C142.821 31.0106 142.427 31.0532 142.044 31.0957C141.661 31.1383 141.268 31.1595 140.864 31.1595C139.906 31.1595 139.13 31.0745 138.534 30.9043C137.96 30.7128 137.502 30.4469 137.162 30.1065C136.843 29.7449 136.62 29.2982 136.492 28.7664C136.386 28.2345 136.322 27.6283 136.301 26.9475V17.2152H133.556V14.5029ZM156.212 21.2996C156.17 20.7252 156.042 20.1721 155.829 19.6403C155.638 19.1085 155.361 18.6511 155 18.2682C154.659 17.864 154.234 17.5449 153.723 17.3109C153.234 17.0557 152.681 16.928 152.064 16.928C151.426 16.928 150.841 17.045 150.309 17.279C149.798 17.4917 149.352 17.8002 148.969 18.2044C148.607 18.5873 148.309 19.0447 148.075 19.5765C147.863 20.1083 147.746 20.6827 147.724 21.2996H156.212ZM147.724 23.6928C147.724 24.331 147.809 24.9479 147.98 25.5435C148.171 26.1392 148.448 26.6603 148.809 27.1071C149.171 27.5538 149.628 27.9154 150.181 28.192C150.734 28.4473 151.394 28.5749 152.16 28.5749C153.223 28.5749 154.074 28.3515 154.712 27.9048C155.372 27.4368 155.861 26.7454 156.18 25.8307H159.626C159.435 26.7242 159.105 27.5219 158.637 28.2239C158.169 28.9259 157.606 29.5215 156.946 30.0108C156.287 30.4788 155.542 30.8298 154.712 31.0638C153.904 31.3191 153.053 31.4467 152.16 31.4467C150.862 31.4467 149.713 31.234 148.714 30.8085C147.714 30.3831 146.863 29.7874 146.161 29.0216C145.48 28.2558 144.959 27.3411 144.597 26.2774C144.257 25.2138 144.087 24.0438 144.087 22.7674C144.087 21.5974 144.268 20.4912 144.629 19.4488C145.012 18.3852 145.544 17.4598 146.225 16.6727C146.927 15.8644 147.767 15.2262 148.745 14.7582C149.724 14.2902 150.83 14.0562 152.064 14.0562C153.362 14.0562 154.521 14.3327 155.542 14.8858C156.584 15.4176 157.446 16.1303 158.127 17.0237C158.807 17.9172 159.297 18.9489 159.595 20.1189C159.914 21.2677 159.999 22.459 159.85 23.6928H147.724ZM172.794 20.0232C172.645 19.0021 172.231 18.2363 171.55 17.7257C170.89 17.1939 170.05 16.928 169.029 16.928C168.561 16.928 168.061 17.0131 167.529 17.1833C166.997 17.3322 166.508 17.63 166.061 18.0767C165.615 18.5022 165.242 19.1085 164.945 19.8956C164.647 20.6614 164.498 21.6719 164.498 22.927C164.498 23.6077 164.572 24.2884 164.721 24.9691C164.891 25.6499 165.147 26.2562 165.487 26.788C165.849 27.3198 166.306 27.7559 166.859 28.0963C167.412 28.4153 168.082 28.5749 168.869 28.5749C169.933 28.5749 170.805 28.2452 171.486 27.5857C172.188 26.9263 172.624 26.0009 172.794 24.8096H176.432C176.092 26.9582 175.273 28.6068 173.975 29.7555C172.699 30.883 170.997 31.4467 168.869 31.4467C167.572 31.4467 166.423 31.234 165.423 30.8085C164.445 30.3618 163.615 29.7662 162.934 29.0216C162.254 28.2558 161.732 27.3517 161.371 26.3093C161.03 25.267 160.86 24.1395 160.86 22.927C160.86 21.6931 161.03 20.5338 161.371 19.4488C161.711 18.3639 162.222 17.4279 162.902 16.6408C163.583 15.8325 164.423 15.2049 165.423 14.7582C166.444 14.2902 167.636 14.0562 168.997 14.0562C169.954 14.0562 170.858 14.1838 171.709 14.4391C172.582 14.6731 173.347 15.0347 174.007 15.524C174.688 16.0133 175.241 16.6302 175.666 17.3747C176.092 18.1193 176.347 19.0021 176.432 20.0232H172.794ZM178.432 8.21679H182.069V16.6727H182.133C182.58 15.9282 183.239 15.3113 184.111 14.822C185.005 14.3115 185.994 14.0562 187.079 14.0562C188.887 14.0562 190.312 14.5242 191.355 15.4602C192.397 16.3962 192.918 17.8002 192.918 19.6722V31H189.281V20.6295C189.238 19.3318 188.962 18.3958 188.451 17.8215C187.94 17.2258 187.143 16.928 186.058 16.928C185.441 16.928 184.888 17.045 184.399 17.279C183.909 17.4917 183.494 17.8002 183.154 18.2044C182.814 18.5873 182.548 19.0447 182.356 19.5765C182.165 20.1083 182.069 20.672 182.069 21.2677V31H178.432V8.21679Z" fill="white"/>
<path d="M31.6627 3.75964H36.6391C36.7398 3.75964 36.8214 3.84126 36.8214 3.94193V13.481C36.8214 14.4678 36.4214 15.4124 35.7127 16.0991L31.4107 20.2679C30.7306 20.9269 29.8207 21.2954 28.8737 21.2954H24.3896C24.2889 21.2954 24.2073 21.2138 24.2073 21.1131V16.1368C24.2073 16.0361 24.2889 15.9545 24.3896 15.9545H30.4232C31.0071 15.9545 31.4804 15.4811 31.4804 14.8972V3.94193C31.4804 3.84126 31.5621 3.75964 31.6627 3.75964Z" fill="white"/>
<path d="M5.15865 34.0735L0.182284 34.0735C0.0816115 34.0735 -7.13471e-09 33.9919 -1.59358e-08 33.8912L-8.49869e-07 24.3521C-9.36137e-07 23.3653 0.400019 22.4207 1.10868 21.734L5.41068 17.5653C6.09079 16.9062 7.00066 16.5377 7.94769 16.5377L12.4318 16.5377C12.5325 16.5377 12.6141 16.6193 12.6141 16.72L12.6141 21.6964C12.6141 21.797 12.5325 21.8787 12.4318 21.8787L6.39818 21.8787C5.81428 21.8787 5.34093 22.352 5.34093 22.9359L5.34093 33.8912C5.34093 33.9919 5.25932 34.0735 5.15865 34.0735Z" fill="white"/>
<path d="M20.9634 21.2954L16.0053 21.2954C15.9046 21.2954 15.823 21.2138 15.823 21.1131L15.823 11.574C15.823 10.5873 16.223 9.64261 16.9317 8.95591L21.2337 4.7872C21.9138 4.12817 22.8236 3.75965 23.7707 3.75965L28.2548 3.75965C28.3554 3.75965 28.4371 3.84126 28.4371 3.94193L28.4371 8.9183C28.4371 9.01897 28.3554 9.10058 28.2548 9.10058L22.2029 9.10058C21.619 9.10058 21.1457 9.57393 21.1457 10.1578L21.1457 21.1131C21.1457 21.2138 21.0641 21.2954 20.9634 21.2954Z" fill="white"/>
<path d="M16.0053 16.5377H20.9634C21.0641 16.5377 21.1457 16.6193 21.1457 16.72V26.2591C21.1457 27.2459 20.7457 28.1905 20.0371 28.8772L15.735 33.0459C15.0549 33.705 14.1451 34.0735 13.198 34.0735H8.71393C8.61326 34.0735 8.53165 33.9919 8.53165 33.8912V28.9148C8.53165 28.8142 8.61326 28.7325 8.71393 28.7325H14.7658C15.3497 28.7325 15.823 28.2592 15.823 27.6753L15.823 16.72C15.823 16.6193 15.9046 16.5377 16.0053 16.5377Z" fill="white"/>
</svg>
