<svg width="64" height="64" viewBox="0 0 64 64" fill="none" xmlns="http://www.w3.org/2000/svg">
<path d="M47.0847 7.41131C46.7534 8.30068 46.3697 9.99224 46.4569 10.2189C46.579 10.5154 47.1544 10.5328 47.3811 10.2364C47.6253 9.92248 48.1833 7.37643 48.0438 7.16717C47.8346 6.8184 47.2591 6.9579 47.0847 7.41131Z" fill="white"/>
<path d="M49.9966 8.40532C49.857 8.63202 49.4036 9.15518 49.02 9.59115C48.2178 10.4631 48.2004 10.5154 48.5666 10.8119C48.9677 11.1432 49.5606 10.8119 50.3802 9.76554C51.1301 8.80641 51.2696 8.30069 50.8162 8.1263C50.3802 7.95191 50.2756 8.00423 49.9966 8.40532Z" fill="white"/>
<path d="M15.2765 10.6724C11.1959 10.7596 9.24272 10.8816 8.92883 11.0386C8.47542 11.2478 7.72556 12.1721 6.85362 13.6021L6.36534 14.3868L6.31302 29.7329C6.27814 44.0849 6.29558 45.1138 6.5746 45.6893C6.74899 46.0206 7.13264 46.4566 7.44654 46.6658C8.14408 47.1367 9.39967 47.189 26.943 47.4506C34.2324 47.5726 40.301 47.7121 40.4231 47.7819C40.5975 47.8691 40.3534 48.0958 39.7081 48.5318C39.1675 48.898 38.6618 49.177 38.5746 49.177C38.1735 49.177 38.2607 49.7699 38.8885 51.2871C39.2896 52.2636 39.6732 52.9438 39.8302 52.9786C39.9871 53.0135 40.6149 52.874 41.2427 52.6647C42.4111 52.2811 42.4634 52.2811 43.3528 52.9438L43.9108 53.3448L43.5795 54.5307C43.4051 55.1759 43.2482 55.856 43.2482 56.013C43.2482 56.3792 44.7828 56.9721 46.1256 57.129C46.9801 57.2337 47.1196 57.1988 47.6078 56.7803C47.9043 56.5361 48.2182 56.3269 48.288 56.3269C48.3577 56.3269 48.5321 55.9258 48.6542 55.4549L48.8983 54.5656L49.5959 54.6179C50.2411 54.6702 50.3283 54.7399 50.8689 55.6642C51.3397 56.4664 51.549 56.6756 51.8978 56.6756C52.3686 56.6756 54.4961 55.7514 54.9321 55.3677C55.3157 55.0364 55.3506 53.8854 55.0193 53.2402C54.6531 52.5427 54.688 52.316 55.2983 51.6882L55.8215 51.1476L56.8504 51.3917C57.4258 51.5487 58.0013 51.6184 58.1408 51.5661C58.4373 51.444 58.9604 50.5023 59.3615 49.2991C59.6231 48.5492 59.6231 48.4097 59.379 47.9389C59.2046 47.6075 58.7512 47.2587 58.1583 46.9623C57.2166 46.4914 57.1991 46.474 57.1991 45.7416C57.1991 45.1835 57.2863 44.9568 57.513 44.8696C58.1583 44.6255 59.6405 43.5269 59.6405 43.3002C59.6405 43.1606 59.2046 42.3759 58.6814 41.5737C57.6177 39.9345 57.4258 39.8647 55.961 40.3705C55.2111 40.632 55.2111 40.632 54.7228 40.1438L54.2345 39.6555L54.4438 38.3301C54.6008 37.2489 54.6008 36.935 54.4089 36.7083C54.1474 36.377 52.1419 35.7666 51.1828 35.6969C50.4852 35.662 50.4852 35.662 49.8749 36.8304C49.5435 37.4931 49.1948 38.0162 49.0901 38.0162C48.9681 38.0162 48.8983 34.6331 48.8809 28.2854C48.8286 17.0026 48.6542 12.3116 48.3054 11.7361C47.7474 10.8642 47.4509 10.8293 40.1964 10.6375C32.5234 10.4457 23.9784 10.4457 15.2765 10.6724ZM47.1021 12.1547C47.3637 12.4337 47.416 12.9568 47.5381 16.1656L47.6602 19.88H28.0765H8.49286L8.59749 18.8685C8.66725 18.3279 8.75444 16.6364 8.82419 15.1367C8.91139 12.9917 8.99858 12.329 9.20784 12.1721C9.60893 11.8233 16.0264 11.7187 32.4187 11.7884C46.0732 11.8233 46.8057 11.8408 47.1021 12.1547ZM47.7474 29.5062C47.7822 37.528 47.7648 38.0162 47.4858 38.0162C47.2939 38.0162 46.9452 37.6151 46.579 36.9699C46.2476 36.3944 45.864 35.9236 45.7245 35.9236C45.3408 35.9236 42.7076 37.371 42.5506 37.6675C42.4634 37.8244 42.5681 38.3301 42.8471 39.0102L43.2831 40.0914L42.725 40.8762C42.4286 41.3296 42.0798 41.6784 41.9577 41.6784C41.8356 41.6784 41.2427 41.4865 40.6324 41.2424C40.022 40.9983 39.4291 40.8064 39.307 40.8064C39.0454 40.8064 37.6504 44.3814 37.7899 44.7301C37.8422 44.8871 38.1735 45.1312 38.5223 45.3056C39.1501 45.5846 39.1326 45.5846 36.1855 45.6893C32.8896 45.8113 21.9555 45.6369 14.2999 45.3405C9.76588 45.1487 9.31248 45.1138 9.0509 44.7999C8.82419 44.5383 8.71956 43.8756 8.61493 41.5563C8.44054 37.8942 8.44054 21.4146 8.61493 21.1356C8.71956 20.9786 13.2362 20.9438 28.216 20.9612L47.695 21.0135L47.7474 29.5062ZM51.8978 36.9525C52.1768 37.0397 52.6302 37.1617 52.9092 37.2315C53.3975 37.3361 53.3975 37.3536 53.2929 38.2429C53.2231 38.7487 53.1359 39.3067 53.0836 39.4985C52.979 39.8996 54.252 41.6086 54.7577 41.7656C54.9147 41.8179 55.3855 41.7307 55.804 41.5912C56.955 41.1901 57.1468 41.2424 57.7223 42.1492C58.0187 42.6026 58.2454 43.0211 58.2454 43.0909C58.2454 43.1606 57.792 43.4397 57.2514 43.7187L56.24 44.2244L56.1005 45.3579C56.0307 45.9683 55.961 46.6658 55.9261 46.8925C55.8912 47.2239 56.0656 47.3983 56.9201 47.8517C58.2803 48.5666 58.4024 48.7759 57.9839 49.7002C57.6874 50.3454 57.6177 50.4151 57.2166 50.2931C56.2574 50.0315 55.4727 49.9269 55.3332 50.0315C55.2634 50.1012 54.7403 50.6244 54.1822 51.1999L53.1708 52.2636L53.5196 53.3623C53.7288 53.9726 53.8858 54.5307 53.8858 54.6179C53.8858 54.7574 52.4558 55.4549 52.1768 55.4549C52.107 55.4549 51.7931 55.0364 51.4967 54.5132C50.9561 53.6239 50.9038 53.589 50.0144 53.4844C48.6018 53.31 47.8345 53.3448 47.6602 53.5715C47.5032 53.7634 47.3114 54.2168 46.7359 55.7339C46.5964 56.1002 46.5441 56.1002 45.6024 55.8909C45.0618 55.7514 44.5735 55.6293 44.5561 55.5944C44.5212 55.5596 44.6433 54.9666 44.8177 54.2691C45.0095 53.5715 45.1141 52.9089 45.0618 52.7868C44.9223 52.5078 42.7773 51.0953 42.4634 51.0953C42.3239 51.0953 41.8008 51.2522 41.3125 51.444C40.8242 51.6533 40.3882 51.7754 40.3534 51.7579C40.2487 51.6533 39.586 49.9966 39.6209 49.9617C39.6558 49.9443 40.022 49.7002 40.458 49.4037C41.888 48.4446 41.9228 48.3399 41.6961 46.7879C41.5915 46.038 41.3997 45.3405 41.2776 45.2359C41.1555 45.1312 40.6149 44.8696 40.0743 44.6429C39.5163 44.4337 39.0629 44.2418 39.0629 44.2244C39.0629 44.05 39.6558 42.4282 39.7779 42.3062C39.8476 42.219 40.4754 42.3759 41.173 42.6549L42.4286 43.1432L42.882 42.6026C43.1261 42.3062 43.5969 41.626 43.9108 41.1029L44.4863 40.1612L44.1201 39.2195C43.9283 38.6963 43.7713 38.2255 43.7713 38.1732C43.7713 38.086 45.2013 37.3187 45.3931 37.3187C45.4454 37.3187 45.7245 37.7198 46.0035 38.2255L46.5266 39.1149L48.3054 39.1672L50.0841 39.2021L50.3283 38.6091C51.1828 36.5339 51.0433 36.6909 51.8978 36.9525Z" fill="white"/>
<path d="M18.6947 14.8751C18.0495 15.5552 18.2064 16.5841 19.0261 17.0026C19.7236 17.3688 20.0201 17.3339 20.5955 16.7584C21.2059 16.1306 21.2408 15.5552 20.6653 14.9274C20.1073 14.3345 19.2179 14.2996 18.6947 14.8751Z" fill="white"/>
<path d="M25.4611 14.7009C24.1358 15.3636 24.5718 17.2644 26.0541 17.2644C27.1876 17.2644 27.8154 15.7821 27.0306 14.9974C26.8388 14.8055 26.6121 14.6486 26.5249 14.6486C26.4377 14.6486 26.2633 14.6137 26.1238 14.5614C26.0017 14.5091 25.7053 14.5788 25.4611 14.7009Z" fill="white"/>
<path d="M11.7714 15.0844C11.1611 15.6773 11.1785 16.5841 11.7888 17.0724C12.5736 17.6828 13.463 17.4909 13.9164 16.619C14.2303 16.0261 14.1605 15.7122 13.6199 15.1541C12.9921 14.5264 12.3469 14.5089 11.7714 15.0844Z" fill="white"/>
<path d="M14.7705 24.3615C14.7008 24.4138 14.6484 26.6111 14.6484 29.2269C14.6484 33.3947 14.6833 33.9876 14.9275 34.0748C15.0844 34.1271 17.8572 34.1794 21.1008 34.1794C26.1057 34.1794 27.0125 34.1446 27.2043 33.9179C27.3787 33.7086 27.3787 32.6274 27.274 29.0002L27.1171 24.3266L20.9961 24.2743C17.6305 24.2568 14.8403 24.2917 14.7705 24.3615ZM26.0708 25.495C26.1057 25.617 26.158 27.3435 26.1929 29.3315L26.2452 32.9587H20.9787H15.6948V29.1222V25.2857H20.8392C24.8152 25.2857 26.0185 25.338 26.0708 25.495Z" fill="white"/>
<path d="M31.2332 26.7508C31.1286 26.8729 31.0763 27.117 31.146 27.274C31.2507 27.5181 31.9308 27.553 38.1041 27.553C44.2774 27.553 44.9575 27.5181 45.0621 27.274C45.3411 26.5241 45.1144 26.5067 38.1041 26.5067C32.6632 26.5067 31.3902 26.559 31.2332 26.7508Z" fill="white"/>
<path d="M32.0178 32.8717C31.9654 33.0112 31.9654 33.2554 32.0178 33.3949C32.1747 33.796 38.5049 33.7785 38.6445 33.3949C38.7142 33.2554 38.6619 33.0112 38.5398 32.8717C38.2259 32.4881 32.1747 32.4881 32.0178 32.8717Z" fill="white"/>
<path d="M16.2877 39.4985C16.2179 39.638 16.2179 39.8822 16.2877 40.0217C16.4272 40.4228 29.0354 40.4228 29.1923 40.0217C29.2446 39.8822 29.2446 39.638 29.1923 39.4985C29.0354 39.0974 16.4272 39.0974 16.2877 39.4985Z" fill="white"/>
<path d="M47.5207 41.0331C46.3349 41.4341 45.7594 41.8004 44.9398 42.7246C43.6319 44.172 43.2657 46.0031 43.876 48.0957C44.2597 49.4036 45.5502 50.7115 46.8929 51.1475C49.7006 52.0369 52.4036 50.9731 53.7463 48.4271C54.0777 47.8167 54.1474 47.4156 54.1474 46.1252C54.1474 44.3987 53.8859 43.6837 52.8047 42.463C51.6363 41.1202 49.2297 40.475 47.5207 41.0331ZM51.2352 42.6025C52.4733 43.4047 53.2929 45.0963 53.1534 46.4739C53.0314 47.4331 52.3687 48.741 51.706 49.3164C50.3981 50.4151 48.8635 50.6592 47.2068 50.0489C45.7594 49.5083 45.1142 48.6886 44.8003 46.9971C44.5562 45.6194 44.9398 44.329 45.9164 43.3001C46.8581 42.3235 47.6951 42.0096 49.282 42.0794C50.2935 42.1143 50.6423 42.2014 51.2352 42.6025Z" fill="white"/>
<path d="M50.9215 11.492C49.8752 11.8582 49.5962 12.0326 49.5613 12.3465C49.5264 12.5732 49.6136 12.7824 49.788 12.8348C50.3635 13.0615 53.0142 12.0674 53.0142 11.6315C53.0142 11.3525 52.6479 10.9863 52.4212 11.0037C52.3166 11.0211 51.6365 11.2478 50.9215 11.492Z" fill="white"/>
</svg>
