<svg width="64" height="64" viewBox="0 0 64 64" fill="none" xmlns="http://www.w3.org/2000/svg">
<path d="M30.9 6.65C30.525 6.925 24.7125 12.0375 24.1625 12.5875C23.8875 12.85 23.875 12.975 23.875 14.4625C23.875 15.4125 23.975 16.7625 24.125 17.8C24.275 18.75 24.375 19.5375 24.35 19.55C24.325 19.5625 24.0375 19.7 23.6875 19.8625C23.1 20.1375 21.0875 21.425 20.3625 21.9875L20.0375 22.25L19.9375 21.0875C19.8875 20.4625 19.8125 19.7 19.75 19.4C19.6625 18.875 19.675 18.8375 20.2 18.3C21.775 16.6625 22.425 13.9125 21.75 11.7125C21.4125 10.625 20.5625 9.675 19.5125 9.2L18.7625 8.8625L18.1625 9.15C15.8 10.2625 15.0625 13.55 16.5 16.575C16.7375 17.0625 17.1625 17.6625 17.575 18.075L18.25 18.75L18.1125 19.9C17.9625 21.125 18.0375 23.225 18.2375 23.6125C18.3375 23.8 18.25 23.9625 17.7875 24.5125C15.825 26.8125 14.4125 29.8625 13.925 32.85C13.65 34.4875 13.7375 36.8875 14.125 38.4875L14.4 39.6625L14.05 39.925C13.85 40.075 12.5125 41.175 11.0625 42.375C9.6125 43.575 7.7375 45.0875 6.875 45.725C5.3375 46.875 4.75 47.475 4.75 47.8875C4.75 48 4.875 48.25 5.0125 48.4375C5.25 48.725 5.35 48.7625 5.825 48.7125C6.125 48.6875 6.475 48.575 6.6 48.4625C7.025 48.0875 15.1 43.7625 15.425 43.7375C15.525 43.7375 16.25 45.4125 16.25 45.6625C16.25 45.725 15.9625 46.2375 15.6 46.825C15.0875 47.6625 14.95 48.025 14.9 48.55C14.825 49.475 15.0375 49.8375 16.5 51.4C18.35 53.3625 18.925 53.5 21.0125 52.4875L22.05 51.9875L23 52.4875C24.075 53.0625 25.9625 53.8125 26.65 53.9375C27.0875 54.025 27.1125 54.05 27.375 54.9125C27.8375 56.4375 28.3625 57.1875 29.1625 57.4875C29.3625 57.5625 30.4125 57.625 31.525 57.625C34.4375 57.625 34.6875 57.475 35.5 55.2125L35.9375 53.9875L37.2375 53.55C37.95 53.3125 39.075 52.8375 39.7375 52.5C40.4125 52.15 41.0125 51.875 41.075 51.875C41.1375 51.875 41.625 52.0875 42.15 52.3625C44.0875 53.3375 44.5125 53.25 46.2875 51.5125C47.9625 49.8875 48.175 49.55 48.1625 48.65C48.15 48.125 48.025 47.725 47.575 46.825L47 45.675L47.3625 44.9875C47.925 43.9625 48.4625 42.65 48.7875 41.5L49.0875 40.4625L50.25 40.0625C52.25 39.3625 52.575 38.9375 52.5375 37.125C52.5 34.9375 52.3875 34.1625 52.0375 33.7375C51.65 33.2875 51.2 33.0875 49.9125 32.8125C48.825 32.575 48.5 32.4375 48.5 32.225C48.5 32.15 48.375 31.75 48.225 31.35C48.05 30.85 47.9125 30.6375 47.7875 30.675C47.7 30.7125 47.625 30.6875 47.625 30.625C47.625 30.5625 48.725 29.825 50.0625 28.9875C51.4125 28.15 52.575 27.3625 52.6625 27.25C52.75 27.1375 52.9375 26.975 53.0875 26.9C53.3375 26.7625 53.375 26.8 53.75 27.7875C54.3375 29.3625 54.3625 29.4 54.6 29.35C54.7125 29.325 55.1125 28.8625 55.475 28.3125C56.175 27.2625 58.8625 22.9 59.125 22.4C59.325 22 59.1875 21.5125 58.825 21.375C58.4875 21.25 52.9875 20.65 51.175 20.5375C49.65 20.45 49.375 20.55 49.375 21.2125C49.375 21.4625 49.55 22.05 49.775 22.525C49.9875 22.9875 50.1375 23.4 50.1125 23.425C50.0875 23.45 49.075 23.975 47.875 24.6L45.6875 25.7375L45.1625 24.8625C44.875 24.3875 44.7 23.975 44.75 23.9375C45.0875 23.7375 45.1375 22.8375 44.9375 20.9C44.825 19.825 44.725 18.925 44.725 18.8875C44.7125 18.8375 44.9625 18.55 45.275 18.225C46.8125 16.6125 47.425 13.8875 46.7375 11.675C46.5125 10.9625 46.35 10.7125 45.7125 10.0625C45.175 9.525 44.75 9.225 44.3375 9.0875C43.7625 8.8875 43.7 8.9 43.2 9.125C42.025 9.6875 41.1875 10.8 40.8875 12.225C40.475 14.225 41.175 16.675 42.5875 18.075L43.225 18.725L43.0875 20.4125L42.95 22.0875L42.0875 21.425C41.6 21.0625 40.7125 20.5 40.1 20.1625L38.9875 19.5625L39.0625 19.0625C39.45 16.3 39.5125 15.5375 39.475 14.2125L39.4375 12.7125L38.5875 11.925C38.1125 11.4875 36.425 10.0625 34.8375 8.7625C31.725 6.2 31.6125 6.1375 30.9 6.65ZM34.7875 11.3625C36.275 12.625 37.5 13.725 37.5 13.8C37.5 13.875 37.5875 14.95 37.6875 16.1875C37.7875 17.425 37.875 18.5875 37.875 18.7625V19.1L36.775 18.75C36.1625 18.55 35.375 18.35 35.0125 18.3C34.425 18.225 34.3625 18.1875 34.425 17.95C34.6125 17.3375 34.6625 14.55 34.5 14.075C34.3 13.45 33.5625 12.6375 32.9375 12.3625C32.35 12.0875 31.0625 12.05 30.5375 12.275C29.9 12.55 29.275 13.125 29 13.6875C28.775 14.15 28.7375 14.45 28.7375 15.55C28.75 16.2625 28.8125 17.1375 28.8875 17.5C28.9625 17.85 29 18.1625 28.975 18.175C28.9625 18.1875 28.475 18.3 27.9 18.425C27.325 18.5375 26.4625 18.7625 25.9875 18.925C25.325 19.1375 25.125 19.1625 25.175 19.0375C25.2125 18.9375 25.2875 17.7 25.325 16.275L25.4125 13.675L27.7875 11.75C29.1 10.6875 30.475 9.55 30.8625 9.2375C31.525 8.6875 31.575 8.6625 31.8125 8.8625C31.95 8.975 33.2875 10.1 34.7875 11.3625ZM19.4875 10.3375C20.3 11.5625 20.5875 13.3625 20.1875 14.7125C19.9625 15.4625 19.2625 16.5625 19.0125 16.5625C18.725 16.5625 18.025 15.15 17.8625 14.2125C17.65 13.025 17.8375 11.85 18.45 10.6625C18.7 10.1625 18.95 9.75 19 9.75C19.0625 9.75 19.275 10.0125 19.4875 10.3375ZM44.4875 10.3375C45.475 11.8375 45.65 13.8875 44.9 15.4125C44.6875 15.85 44.3875 16.3125 44.25 16.4375C44 16.6625 43.9875 16.6625 43.8125 16.425C42.9875 15.375 42.6125 13.7875 42.8625 12.375C43.0125 11.525 43.7875 9.75 44.0125 9.75C44.0625 9.75 44.275 10.0125 44.4875 10.3375ZM32.2 14.2875C32.5125 14.55 32.55 14.6875 32.6375 15.7625C32.6875 16.4125 32.7625 17.175 32.8125 17.4625L32.9125 18H31.55H30.1875L30.2875 16.5375C30.3375 15.7 30.4625 14.9125 30.575 14.6875C30.9 13.9875 31.6375 13.8125 32.2 14.2875ZM34.6 20.325C37 20.675 39.3875 21.625 41.5 23.0375C42.4125 23.65 45 26.05 44.875 26.1625C44.8375 26.1875 43.4375 26.9375 41.75 27.8125C40.0625 28.6875 36.9 30.3625 34.7125 31.525L30.725 33.65L30.4625 33.4C30.3125 33.275 29.4125 32.5 28.4625 31.7C27.1375 30.575 26.6625 30.25 26.3875 30.25C25.95 30.25 25.9625 30.2375 19.925 35.1625C15.8125 38.5125 15.1875 38.975 15.075 38.7875C15.0125 38.6625 14.9625 37.6875 14.9625 36.625C14.9625 34.5 15.2125 32.925 15.825 31.225C17.75 25.875 22.675 21.7375 28.575 20.5125C29.2625 20.375 30.0125 20.2375 30.25 20.2125C31.3875 20.0875 33.4125 20.15 34.6 20.325ZM56.35 22.5875L57.375 22.6625L56.9875 23.35C56.775 23.725 56.1375 24.95 55.55 26.0625L54.5125 28.1L54 27.425C53.725 27.0625 53.5 26.7 53.5 26.625C53.5 26.5625 53.475 26.5 53.4375 26.5C53.1875 26.5 44.2875 31.3375 36.2875 35.825C33.175 37.575 30.6125 39 30.575 39C30.55 39 29.7125 38.375 28.725 37.6125C27.75 36.85 26.8125 36.175 26.65 36.1125C26.4875 36.05 26.25 36.05 26.05 36.125C25.875 36.2 23.9 37.2125 21.65 38.3875C19.4 39.5625 16.9125 40.8625 16.125 41.275C15.3375 41.6875 14.8 41.9125 14.9375 41.775C15.2125 41.5125 25.975 32.85 26.2125 32.7C26.3125 32.65 26.975 33.125 28.025 34.025C30.175 35.875 30.175 35.8625 30.6625 35.75C31.4375 35.575 32.975 34.8625 35.2 33.65C39.1875 31.4625 40.5875 30.7125 46.3125 27.675C49.4 26.0375 52.025 24.6 52.15 24.475C52.45 24.175 52.4375 23.4875 52.1125 22.85L51.85 22.3375L53.575 22.425C54.5375 22.4625 55.775 22.5375 56.35 22.5875ZM47.625 31.8625C47.775 32.475 47.9875 33.0625 48.1 33.1625C48.225 33.2625 48.8125 33.5 49.4375 33.6875C51.2125 34.225 51.125 34.1125 51.125 36.0625C51.125 37.4625 51.0875 37.7625 50.9125 37.9875C50.775 38.1625 50.15 38.425 49.25 38.725L47.8125 39.1875L47.1875 41.0625C46.5375 42.975 46.3375 43.425 45.5625 44.7C45.325 45.1125 45.125 45.5375 45.125 45.6625C45.125 45.775 45.4375 46.5 45.825 47.275L46.525 48.6625L45.2625 49.925L44.0125 51.175L42.6375 50.4625C41.875 50.075 41.1125 49.75 40.925 49.75C40.75 49.75 40.2625 49.95 39.8625 50.1875C38.7125 50.8875 37.1625 51.575 35.9375 51.9375C35.3125 52.1125 34.6875 52.35 34.525 52.475C34.325 52.625 34.1 53.0875 33.8125 53.975C33.5875 54.675 33.325 55.3375 33.25 55.4375C33.125 55.5875 32.7375 55.625 31.4375 55.625H29.7875L29.3375 54.2125C29.05 53.3375 28.775 52.7 28.6 52.5375C28.4375 52.3875 27.8625 52.15 27.325 52C25.825 51.5875 24.8875 51.2 23.675 50.5C22.2625 49.7 22.0375 49.7 20.525 50.5125C19.7375 50.925 19.25 51.125 19.0625 51.075C18.8 51.0125 16.6625 49.1375 16.4625 48.8125C16.4125 48.7125 16.625 48.125 17 47.3625C17.3375 46.6625 17.625 45.9375 17.625 45.75C17.625 45.575 17.425 45.0875 17.175 44.675C16.925 44.275 16.625 43.775 16.5125 43.5875C16.275 43.1875 16.1625 43.2875 17.9 42.3625L18.975 41.775L19.3625 42.8625C21.0875 47.675 25.25 50.5 30.6125 50.5C36.7375 50.5 42.725 46.7875 44.7375 41.75C45.7375 39.2125 45.7625 36.1625 44.7875 33.475C44.575 32.875 44.525 32.55 44.6 32.475C44.775 32.3 47.1625 30.7625 47.2625 30.7625C47.3125 30.75 47.475 31.25 47.625 31.8625ZM44.1375 34.6875C44.475 37.9125 43.5375 41.125 41.525 43.6375C39.8625 45.7125 37.25 47.375 34.5625 48.075C32.7375 48.55 30.5125 48.6125 28.775 48.2625C25.225 47.525 22.5 45.6625 20.4125 42.525C20 41.9125 19.7625 41.4375 19.825 41.375C20.125 41.075 26.2875 37.875 26.4125 37.9625C26.5 38.0125 27.375 38.65 28.35 39.4C29.6375 40.3625 30.25 40.75 30.5 40.75C30.7125 40.75 31.6375 40.2875 32.8875 39.55C35.6125 37.95 41 34.7 42.5625 33.7125C44.025 32.7875 43.925 32.725 44.1375 34.6875Z" fill="white"/>
</svg>
