<svg width="64" height="64" viewBox="0 0 64 64" fill="none" xmlns="http://www.w3.org/2000/svg">
<path d="M31.6251 4.575C31.3876 4.6 30.7126 4.6875 30.1251 4.7625C23.3251 5.5875 17.5126 8.6625 14.1501 13.225C13.4126 14.2125 13.2001 14.625 13.5126 14.425C13.6126 14.375 13.6126 14.425 13.5126 14.6125C13.2376 15.125 13.6251 14.875 14.8376 13.775C16.4251 12.35 17.2126 11.75 19.1251 10.5625C23.5001 7.8125 27.7376 6.6125 33.1876 6.5875C37.3126 6.5625 40.8501 7.4 44.6251 9.325C47.0626 10.5625 48.3126 11.325 50.0001 12.625L51.0501 13.4375L50.0626 13.5125C49.5001 13.55 48.8876 13.6625 48.6751 13.7875C48.2876 13.9875 48.0501 14.4375 48.2501 14.5625C48.7501 14.875 52.0876 15.625 52.9501 15.625C53.5126 15.625 54.0001 15.2 54.0001 14.7125C54.0001 13.85 53.4626 11.425 53.1126 10.725C52.6876 9.8875 52.4001 9.675 52.0251 9.9375C51.6751 10.1875 51.3251 11.15 51.4126 11.6125C51.4751 11.925 51.3376 11.825 50.3376 10.8125C47.3501 7.825 42.3876 5.5 37.5126 4.825C36.1126 4.625 32.4626 4.475 31.6251 4.575Z" fill="white"/>
<path d="M32.5 12.1375C31.925 12.375 31.6375 12.775 31.25 13.9375L30.8625 15.1L30.2125 15.3625L29.55 15.6375L28.5875 15.125C26.8875 14.25 26.3 14.4125 24.65 16.175C23.4125 17.5 23.3625 17.85 24.1875 19.4625L24.75 20.5625L24.525 21.3125C24.3 22.0375 24.275 22.0625 23.675 22.2875C21.525 23.0625 21.2875 23.4125 21.6125 25.4L21.7125 26H21.1875C20.9 26 20.325 26.0375 19.9125 26.075L19.15 26.1625L18.95 25.425C18.6875 24.5 18.225 23.35 17.6125 22.1125C16.875 20.625 15.975 20 14.5875 20C13.575 20 12.4375 20.75 12.925 21.1C13 21.15 13.4625 21.3 13.9375 21.425C15.4125 21.8 15.4375 21.825 16.425 24.625C17 26.2375 18.025 28.95 19.625 33.0625C20.025 34.0875 20.5375 35.55 20.75 36.3125C20.975 37.0625 21.3 37.9625 21.475 38.2875C21.8875 39.05 22.9375 40.025 23.6625 40.325L24.2125 40.55L23.7375 41.55C23.3875 42.275 23.25 42.7125 23.25 43.125C23.25 43.85 23.5125 44.7375 23.8625 45.2375L24.1375 45.625L23.8 46.2C23.3125 47.0375 23.25 48.2375 23.65 48.9875C24.0875 49.8125 24.9625 50.2625 26.225 50.325C27.0625 50.3625 27.275 50.325 27.85 50.05C28.8375 49.575 29.1875 48.975 29.1875 47.7875V46.875L31.75 46.8625C33.1625 46.8625 35 46.8125 35.85 46.775L37.3875 46.6875L37.2875 47.0625C36.7875 48.975 38.125 50.675 40.1375 50.6875C40.8375 50.6875 41.05 50.6375 41.5625 50.3125C42.425 49.775 42.9 49.0625 42.975 48.1875C43.05 47.3 42.7625 46.525 42.1625 45.9875C41.725 45.6125 41.6625 45.6 40.9125 45.6625C40.475 45.6875 40.125 45.675 40.125 45.6125C40.125 45.5625 39.6625 45.35 39.1 45.1625L38.0625 44.8125H32.0625C25.3875 44.8125 25.6625 44.85 25.125 43.9625C24.8375 43.5 24.8125 43.05 25.025 41.7L25.175 40.725L34.3 40.7625L43.4375 40.8125L44.25 40.425C45.1625 39.9875 45.95 39.2875 46.4125 38.475C46.5875 38.1875 47.1875 36.6125 47.7375 35C48.275 33.3875 49.1625 30.85 49.675 29.375C50.2 27.9 50.625 26.5375 50.625 26.3375C50.625 26.1375 50.5 25.8625 50.3125 25.6875C50.025 25.3875 49.925 25.375 48.625 25.375H47.25V24.5125C47.25 23.325 47 23.0375 45.5 22.4875C44.5 22.1125 44.3625 22.025 44.2625 21.6875C44.2 21.4875 44.075 21.1375 44 20.9375C43.85 20.5875 43.8875 20.475 44.35 19.5625C44.625 19.0125 44.8625 18.4125 44.875 18.25C44.95 17.35 44.9 17.2375 43.725 16.05C42.1375 14.425 41.8125 14.35 40.0875 15.2125C39.1625 15.675 38.8625 15.675 38.175 15.2625C37.875 15.075 37.75 14.8625 37.5625 14.2375C37.2625 13.1125 36.925 12.525 36.4625 12.25C36.1125 12.0375 35.8375 12 34.4375 12.0125C33.55 12.0125 32.675 12.075 32.5 12.1375ZM35.6 14.65C35.7375 15.0125 35.925 15.55 36.0125 15.85C36.1625 16.3875 36.625 16.875 36.9625 16.875C37.05 16.875 37.5 17.0375 37.9625 17.25C38.4125 17.45 38.9125 17.625 39.0875 17.625C39.25 17.625 39.8875 17.3625 40.525 17.05L41.6625 16.475L42.45 17.2625L43.2375 18.0375L42.675 19.1375C42.15 20.1875 41.9875 20.9 42.2375 21.05C42.3 21.0875 42.525 21.575 42.75 22.1375C43.2125 23.275 43.175 23.25 44.7875 23.575C45.3875 23.6875 45.9625 23.85 46.0875 23.9375C46.2 24.025 46.325 24.35 46.375 24.7375L46.45 25.375H44.5125C43.4375 25.375 42.0125 25.4125 41.3375 25.4625L40.1125 25.5375L40.2125 25.175C40.6375 23.6625 39.55 21.2625 37.9875 20.2375C36.9 19.525 36.325 19.35 34.8625 19.275C33.8125 19.2375 33.3875 19.2625 32.8625 19.4375C31.1 20.0125 29.8375 21.05 29.1375 22.5375C28.6625 23.525 28.5625 24.2625 28.7875 25.075L28.9625 25.725L26.5125 25.8C25.1625 25.85 23.6625 25.9125 23.175 25.95L22.2875 26.0125L22.45 25.3625C22.55 24.9875 22.625 24.6 22.625 24.475C22.625 24.1875 22.775 24.1125 23.75 23.925C25.675 23.5625 25.55 23.65 26.25 22.1625C26.5875 21.4375 26.875 20.6875 26.8625 20.5125C26.8625 20.3375 26.625 19.7125 26.325 19.1375L25.8 18.1L26.4625 17.4625L27.1375 16.825L28.2 17.35C29.4 17.95 29.675 17.975 30.4 17.6125C30.6875 17.4625 31.2625 17.2125 31.675 17.0625C32.55 16.7375 32.6125 16.65 33.075 15.0875L33.3875 14H34.375H35.3625L35.6 14.65ZM36.1875 21.65C36.5375 21.8375 37.05 22.225 37.325 22.525C37.925 23.175 38.6875 24.5125 38.8 25.0875L38.875 25.5H36.075C34.55 25.5 32.5125 25.5375 31.5625 25.5875L29.8375 25.6625L29.925 25.15C29.9625 24.8625 30.1375 24.3125 30.3125 23.925C31.125 22.075 32.5625 21.2 34.625 21.2875C35.325 21.325 35.725 21.4125 36.1875 21.65ZM23.25 26.8875C28.075 27.2125 37.8625 27.5 44.6125 27.5H48.1125L46.55 32.15C45.6875 34.7125 44.8375 37.075 44.6625 37.4125C44.275 38.1 43.6875 38.6 42.95 38.8125C42.575 38.925 40.1625 38.975 33.625 39.0125L24.8125 39.0625L24.1875 38.725C23.025 38.1125 22.725 37.575 22.0875 35.05C21.85 34.0875 21.4125 32.675 21.125 31.925C20.2625 29.7 19.4125 27.3375 19.325 26.95L19.2375 26.5875L20.4 26.675C21.0375 26.725 22.325 26.8125 23.25 26.8875ZM41.0625 47.05C41.45 47.8125 41.15 48.4875 40.3625 48.675C39.9875 48.7625 39.4375 48.4125 39.3125 48C39.1875 47.6 39.475 46.7875 39.85 46.525C40.1625 46.2875 40.2 46.2875 40.5375 46.475C40.725 46.5875 40.975 46.85 41.0625 47.05ZM27.1875 47.075C27.7125 47.65 27.5 48.7375 26.725 49.4625L26.425 49.75L26.1625 49.4C25.425 48.4 25.3 47.575 25.8125 47.0625C26.225 46.6375 26.7875 46.65 27.1875 47.075Z" fill="white"/>
<path d="M7.25 23.8375C5.875 24.775 3.875 26.925 3.875 27.45C3.875 27.55 4.0125 27.7125 4.1875 27.825C4.6 28.1 5.45 27.975 6 27.5625C6.2375 27.3875 6.4375 27.275 6.45 27.2875C6.475 27.3125 6.4125 27.6 6.3125 27.9375C5.9625 29.0625 5.85 30.1625 5.8625 32.2875C5.875 34.8875 6.025 36.225 6.5625 38.325C8.4875 45.8625 13.9875 52.55 20.9375 55.825C23.0375 56.8125 26.5875 57.55 27.25 57.125C27.5375 56.9375 27.3 56.8 25.9125 56.3125C22.2875 55.05 18.5875 52.8125 16.0125 50.325C11.175 45.6375 8.4125 39.825 7.8875 33.2625C7.7375 31.375 7.7125 28.45 7.85 27.6875L7.95 27.1875L8.2875 27.8125C8.7 28.5625 9.45 29.15 9.875 29.0375C10.125 28.975 10.15 28.9125 10.075 28.45C9.9625 27.675 9.925 27.55 9.3875 26.025C8.7375 24.2125 8.5625 23.8875 8.175 23.75C7.7375 23.575 7.6 23.5875 7.25 23.8375Z" fill="white"/>
<path d="M58.0497 25.5875C58.0872 25.9875 58.1497 26.475 58.1872 26.6875C58.7247 30.0375 58.4872 34.75 57.6372 37.8125C57.1622 39.5 56.5872 40.95 55.6747 42.775C54.1622 45.8125 53.1372 47.25 50.7497 49.6375C48.9497 51.45 47.7122 52.3875 45.0747 53.9875C43.3747 55 41.0122 56.1875 40.8997 56.0625C40.8747 56.0375 41.0122 55.7875 41.1997 55.4875C41.6872 54.7125 41.7872 53.25 41.3372 53.25C41.0747 53.25 40.2622 54.0125 39.2372 55.2125C37.9497 56.7125 37.6997 57.1375 37.8122 57.625C37.9247 58.125 38.1497 58.2625 39.8872 58.85C41.9247 59.55 43.3747 59.6 43.3747 58.9625C43.3747 58.5125 42.7747 57.75 42.2372 57.5125L41.7497 57.2875L42.8372 57.025C44.0372 56.725 46.3747 55.6375 47.9997 54.625C52.6872 51.7 56.4247 46.95 58.4872 41.3C59.3997 38.775 59.7747 36.9625 59.9997 34.0625C60.2122 31.3 60.0372 29.5125 59.2997 27.125C58.7872 25.5125 58.5497 24.9625 58.3747 25.0625C58.2997 25.1125 58.2497 25.075 58.2497 25.0125C58.2497 24.9375 58.1872 24.875 58.1122 24.875C58.0122 24.875 57.9872 25.0875 58.0497 25.5875Z" fill="white"/>
</svg>
