<svg width="64" height="64" viewBox="0 0 64 64" fill="none" xmlns="http://www.w3.org/2000/svg">
<path d="M47.0847 7.41143C46.7534 8.30081 46.3697 9.99236 46.4569 10.2191C46.579 10.5155 47.1544 10.533 47.3811 10.2365C47.6253 9.9226 48.1833 7.37656 48.0438 7.16729C47.8346 6.81852 47.2591 6.95803 47.0847 7.41143Z" fill="white"/>
<path d="M49.9966 8.40544C49.857 8.63214 49.4036 9.1553 49.02 9.59127C48.2178 10.4632 48.2004 10.5155 48.5666 10.812C48.9677 11.1433 49.5606 10.812 50.3802 9.76566C51.1301 8.80653 51.2696 8.30081 50.8162 8.12642C50.3802 7.95203 50.2756 8.00435 49.9966 8.40544Z" fill="white"/>
<path d="M15.2765 10.6725C11.1959 10.7597 9.24272 10.8817 8.92883 11.0387C8.47542 11.248 7.72556 12.1722 6.85362 13.6022L6.36534 14.3869L6.31302 29.733C6.27814 44.085 6.29558 45.1139 6.5746 45.6894C6.74899 46.0207 7.13264 46.4567 7.44654 46.6659C8.14408 47.1368 9.39967 47.1891 26.943 47.4507C34.2324 47.5728 40.301 47.7123 40.4231 47.782C40.5975 47.8692 40.3534 48.0959 39.7081 48.5319C39.1675 48.8981 38.6618 49.1771 38.5746 49.1771C38.1735 49.1771 38.2607 49.77 38.8885 51.2872C39.2896 52.2638 39.6732 52.9439 39.8302 52.9788C39.9871 53.0136 40.6149 52.8741 41.2427 52.6649C42.4111 52.2812 42.4634 52.2812 43.3528 52.9439L43.9108 53.345L43.5795 54.5308C43.4051 55.176 43.2482 55.8561 43.2482 56.0131C43.2482 56.3793 44.7828 56.9722 46.1256 57.1292C46.9801 57.2338 47.1196 57.1989 47.6078 56.7804C47.9043 56.5362 48.2182 56.327 48.288 56.327C48.3577 56.327 48.5321 55.9259 48.6542 55.455L48.8983 54.5657L49.5959 54.618C50.2411 54.6703 50.3283 54.7401 50.8689 55.6643C51.3397 56.4665 51.549 56.6758 51.8978 56.6758C52.3686 56.6758 54.4961 55.7515 54.9321 55.3679C55.3157 55.0365 55.3506 53.8856 55.0193 53.2403C54.6531 52.5428 54.688 52.3161 55.2983 51.6883L55.8215 51.1477L56.8504 51.3918C57.4258 51.5488 58.0013 51.6185 58.1408 51.5662C58.4373 51.4441 58.9604 50.5025 59.3615 49.2992C59.6231 48.5493 59.6231 48.4098 59.379 47.939C59.2046 47.6076 58.7512 47.2589 58.1583 46.9624C57.2166 46.4916 57.1991 46.4741 57.1991 45.7417C57.1991 45.1837 57.2863 44.957 57.513 44.8698C58.1583 44.6256 59.6405 43.527 59.6405 43.3003C59.6405 43.1608 59.2046 42.376 58.6814 41.5738C57.6177 39.9346 57.4258 39.8649 55.961 40.3706C55.2111 40.6322 55.2111 40.6322 54.7228 40.1439L54.2345 39.6556L54.4438 38.3303C54.6008 37.2491 54.6008 36.9352 54.4089 36.7085C54.1474 36.3771 52.1419 35.7668 51.1828 35.697C50.4852 35.6621 50.4852 35.6621 49.8749 36.8305C49.5435 37.4932 49.1948 38.0164 49.0901 38.0164C48.9681 38.0164 48.8983 34.6333 48.8809 28.2856C48.8286 17.0027 48.6542 12.3117 48.3054 11.7362C47.7474 10.8643 47.4509 10.8294 40.1964 10.6376C32.5234 10.4458 23.9784 10.4458 15.2765 10.6725ZM47.1021 12.1548C47.3637 12.4338 47.416 12.957 47.5381 16.1657L47.6602 19.8801H28.0765H8.49286L8.59749 18.8687C8.66725 18.3281 8.75444 16.6365 8.82419 15.1368C8.91139 12.9918 8.99858 12.3292 9.20784 12.1722C9.60893 11.8234 16.0264 11.7188 32.4187 11.7886C46.0732 11.8234 46.8057 11.8409 47.1021 12.1548ZM47.7474 29.5063C47.7822 37.5281 47.7648 38.0164 47.4858 38.0164C47.2939 38.0164 46.9452 37.6153 46.579 36.97C46.2476 36.3946 45.864 35.9237 45.7245 35.9237C45.3408 35.9237 42.7076 37.3711 42.5506 37.6676C42.4634 37.8245 42.5681 38.3303 42.8471 39.0104L43.2831 40.0916L42.725 40.8763C42.4286 41.3297 42.0798 41.6785 41.9577 41.6785C41.8356 41.6785 41.2427 41.4867 40.6324 41.2425C40.022 40.9984 39.4291 40.8065 39.307 40.8065C39.0454 40.8065 37.6504 44.3815 37.7899 44.7303C37.8422 44.8872 38.1735 45.1313 38.5223 45.3057C39.1501 45.5847 39.1326 45.5847 36.1855 45.6894C32.8896 45.8115 21.9555 45.6371 14.2999 45.3406C9.76588 45.1488 9.31248 45.1139 9.0509 44.8C8.82419 44.5384 8.71956 43.8758 8.61493 41.5564C8.44054 37.8943 8.44054 21.4147 8.61493 21.1357C8.71956 20.9788 13.2362 20.9439 28.216 20.9613L47.695 21.0136L47.7474 29.5063ZM51.8978 36.9526C52.1768 37.0398 52.6302 37.1619 52.9092 37.2316C53.3975 37.3362 53.3975 37.3537 53.2929 38.2431C53.2231 38.7488 53.1359 39.3068 53.0836 39.4986C52.979 39.8997 54.252 41.6087 54.7577 41.7657C54.9147 41.818 55.3855 41.7308 55.804 41.5913C56.955 41.1902 57.1468 41.2425 57.7223 42.1493C58.0187 42.6027 58.2454 43.0213 58.2454 43.091C58.2454 43.1608 57.792 43.4398 57.2514 43.7188L56.24 44.2245L56.1005 45.358C56.0307 45.9684 55.961 46.6659 55.9261 46.8927C55.8912 47.224 56.0656 47.3984 56.9201 47.8518C58.2803 48.5668 58.4024 48.776 57.9839 49.7003C57.6874 50.3455 57.6177 50.4153 57.2166 50.2932C56.2574 50.0316 55.4727 49.927 55.3332 50.0316C55.2634 50.1014 54.7403 50.6245 54.1822 51.2L53.1708 52.2638L53.5196 53.3624C53.7288 53.9728 53.8858 54.5308 53.8858 54.618C53.8858 54.7575 52.4558 55.455 52.1768 55.455C52.107 55.455 51.7931 55.0365 51.4967 54.5134C50.9561 53.624 50.9038 53.5891 50.0144 53.4845C48.6018 53.3101 47.8345 53.345 47.6602 53.5717C47.5032 53.7635 47.3114 54.2169 46.7359 55.7341C46.5964 56.1003 46.5441 56.1003 45.6024 55.891C45.0618 55.7515 44.5735 55.6294 44.5561 55.5946C44.5212 55.5597 44.6433 54.9668 44.8177 54.2692C45.0095 53.5717 45.1141 52.909 45.0618 52.7869C44.9223 52.5079 42.7773 51.0954 42.4634 51.0954C42.3239 51.0954 41.8008 51.2523 41.3125 51.4441C40.8242 51.6534 40.3882 51.7755 40.3534 51.758C40.2487 51.6534 39.586 49.9967 39.6209 49.9619C39.6558 49.9444 40.022 49.7003 40.458 49.4038C41.888 48.4447 41.9228 48.3401 41.6961 46.788C41.5915 46.0382 41.3997 45.3406 41.2776 45.236C41.1555 45.1313 40.6149 44.8698 40.0743 44.6431C39.5163 44.4338 39.0629 44.242 39.0629 44.2245C39.0629 44.0501 39.6558 42.4283 39.7779 42.3063C39.8476 42.2191 40.4754 42.376 41.173 42.655L42.4286 43.1433L42.882 42.6027C43.1261 42.3063 43.5969 41.6262 43.9108 41.103L44.4863 40.1613L44.1201 39.2196C43.9283 38.6965 43.7713 38.2256 43.7713 38.1733C43.7713 38.0861 45.2013 37.3188 45.3931 37.3188C45.4454 37.3188 45.7245 37.7199 46.0035 38.2256L46.5266 39.115L48.3054 39.1673L50.0841 39.2022L50.3283 38.6093C51.1828 36.5341 51.0433 36.691 51.8978 36.9526Z" fill="white"/>
<path d="M18.6947 14.8752C18.0495 15.5553 18.2064 16.5842 19.0261 17.0027C19.7236 17.3689 20.0201 17.334 20.5955 16.7586C21.2059 16.1308 21.2408 15.5553 20.6653 14.9275C20.1073 14.3346 19.2179 14.2997 18.6947 14.8752Z" fill="white"/>
<path d="M25.4611 14.7008C24.1358 15.3635 24.5718 17.2643 26.0541 17.2643C27.1876 17.2643 27.8154 15.782 27.0306 14.9973C26.8388 14.8054 26.6121 14.6485 26.5249 14.6485C26.4377 14.6485 26.2633 14.6136 26.1238 14.5613C26.0017 14.509 25.7053 14.5787 25.4611 14.7008Z" fill="white"/>
<path d="M11.7714 15.0845C11.1611 15.6774 11.1785 16.5842 11.7888 17.0725C12.5736 17.6829 13.463 17.4911 13.9164 16.6191C14.2303 16.0262 14.1605 15.7123 13.6199 15.1543C12.9921 14.5265 12.3469 14.509 11.7714 15.0845Z" fill="white"/>
<path d="M14.7705 24.3618C14.7008 24.4141 14.6484 26.6114 14.6484 29.2272C14.6484 33.3951 14.6833 33.988 14.9275 34.0752C15.0844 34.1275 17.8572 34.1798 21.1008 34.1798C26.1057 34.1798 27.0125 34.1449 27.2043 33.9182C27.3787 33.709 27.3787 32.6278 27.274 29.0005L27.1171 24.3269L20.9961 24.2746C17.6305 24.2572 14.8403 24.2921 14.7705 24.3618ZM26.0708 25.4953C26.1057 25.6174 26.158 27.3438 26.1929 29.3319L26.2452 32.9591H20.9787H15.6948V29.1226V25.2861H20.8392C24.8152 25.2861 26.0185 25.3384 26.0708 25.4953Z" fill="white"/>
<path d="M31.2332 26.7509C31.1286 26.873 31.0763 27.1171 31.146 27.2741C31.2507 27.5182 31.9308 27.5531 38.1041 27.5531C44.2774 27.5531 44.9575 27.5182 45.0621 27.2741C45.3411 26.5242 45.1144 26.5068 38.1041 26.5068C32.6632 26.5068 31.3902 26.5591 31.2332 26.7509Z" fill="white"/>
<path d="M32.0178 32.872C31.9654 33.0115 31.9654 33.2556 32.0178 33.3951C32.1747 33.7962 38.5049 33.7788 38.6445 33.3951C38.7142 33.2556 38.6619 33.0115 38.5398 32.872C38.2259 32.4883 32.1747 32.4883 32.0178 32.872Z" fill="white"/>
<path d="M16.2877 39.4987C16.2179 39.6382 16.2179 39.8823 16.2877 40.0218C16.4272 40.4229 29.0354 40.4229 29.1923 40.0218C29.2446 39.8823 29.2446 39.6382 29.1923 39.4987C29.0354 39.0976 16.4272 39.0976 16.2877 39.4987Z" fill="white"/>
<path d="M47.5207 41.0333C46.3349 41.4344 45.7594 41.8006 44.9398 42.7249C43.6319 44.1723 43.2657 46.0033 43.876 48.096C44.2597 49.4039 45.5502 50.7118 46.8929 51.1477C49.7006 52.0371 52.4036 50.9734 53.7463 48.4273C54.0777 47.8169 54.1474 47.4159 54.1474 46.1254C54.1474 44.399 53.8859 43.684 52.8047 42.4633C51.6363 41.1205 49.2297 40.4753 47.5207 41.0333ZM51.2352 42.6028C52.4733 43.405 53.2929 45.0965 53.1534 46.4742C53.0314 47.4333 52.3687 48.7412 51.706 49.3167C50.3981 50.4153 48.8635 50.6595 47.2068 50.0491C45.7594 49.5085 45.1142 48.6889 44.8003 46.9973C44.5562 45.6197 44.9398 44.3292 45.9164 43.3003C46.8581 42.3238 47.6951 42.0099 49.282 42.0796C50.2935 42.1145 50.6423 42.2017 51.2352 42.6028Z" fill="white"/>
<path d="M50.9215 11.4921C49.8752 11.8583 49.5962 12.0327 49.5613 12.3466C49.5264 12.5733 49.6136 12.7826 49.788 12.8349C50.3635 13.0616 53.0142 12.0676 53.0142 11.6316C53.0142 11.3526 52.6479 10.9864 52.4212 11.0038C52.3166 11.0212 51.6365 11.248 50.9215 11.4921Z" fill="white"/>
</svg>
