<svg width="40" height="40" viewBox="0 0 40 40" fill="none" xmlns="http://www.w3.org/2000/svg">
<path fill-rule="evenodd" clip-rule="evenodd" d="M8.34787 3.51011C6.95148 4.48607 5.68877 5.63998 4.59262 6.93892C9.07199 6.52324 14.7629 7.202 21.3699 10.5041C28.4254 14.0301 34.1068 14.1493 38.0608 13.387C37.702 12.3012 37.2502 11.2577 36.7153 10.2657C32.189 10.7429 26.3864 10.1113 19.624 6.73168C15.3298 4.58554 11.5445 3.70147 8.34787 3.51011ZM34.0713 6.50404C30.4969 2.51219 25.3024 0 19.5209 0C17.8231 0 16.1757 0.21669 14.6052 0.623883C16.7323 1.20399 18.9918 2.05267 21.3699 3.24123C26.321 5.71563 30.5955 6.51235 34.0713 6.50404ZM38.9061 17.1981C34.1293 18.141 27.5331 17.9473 19.624 13.9945C12.2298 10.2991 6.34473 10.3456 2.3756 11.2273C2.17073 11.2728 1.97068 11.3206 1.77546 11.3703C1.2558 12.5 0.840996 13.6879 0.543368 14.9214C0.861251 14.8366 1.18973 14.7559 1.52865 14.6806C6.34389 13.611 13.1474 13.6574 21.3699 17.7669C28.7642 21.4623 34.6493 21.4158 38.6185 20.5341C38.7544 20.504 38.8884 20.4728 39.0202 20.4406C39.0347 20.133 39.0419 19.8234 39.0419 19.5122C39.0419 18.7292 38.9958 17.957 38.9061 17.1981ZM38.3829 24.5583C33.6524 25.385 27.2483 25.0677 19.624 21.2573C12.2298 17.5619 6.34473 17.6085 2.3756 18.4901C1.49457 18.6857 0.702012 18.9241 0.00285982 19.1757C0.000953599 19.2876 0 19.3998 0 19.5122C0 30.2885 8.73982 39.0244 19.5209 39.0244C28.5563 39.0244 36.1579 32.8887 38.3829 24.5583Z" fill="#333333"/>
</svg>
