<svg width="40" height="40" viewBox="0 0 40 40" fill="none" xmlns="http://www.w3.org/2000/svg">
<path fill-rule="evenodd" clip-rule="evenodd" d="M19.5294 39.0244C30.3152 39.0244 39.0588 30.2885 39.0588 19.5122C39.0588 8.73591 30.3152 0 19.5294 0C8.7436 0 0 8.73591 0 19.5122C0 30.2885 8.7436 39.0244 19.5294 39.0244ZM25.6219 9.0896C25.9185 8.03712 24.8962 7.41476 23.9626 8.07932L10.9298 17.3557C9.91725 18.0764 10.0765 19.5122 11.169 19.5122H14.6009V19.4856H21.2895L15.8395 21.4069L13.4369 29.9348C13.1404 30.9873 14.1626 31.6096 15.0963 30.945L28.1291 21.6688C29.1416 20.9481 28.9823 19.5122 27.8899 19.5122H22.6855L25.6219 9.0896Z" fill="#333333"/>
</svg>
