<svg width="24" height="24" viewBox="0 0 24 24" fill="none" xmlns="http://www.w3.org/2000/svg">
<path d="M8.30762 11.0785H5.07682C4.69218 11.0785 4.36518 10.9439 4.09592 10.6746C3.82681 10.4054 3.69208 10.0785 3.69208 9.69375V9.23242C3.69208 8.21313 4.05272 7.34301 4.77396 6.62177C5.49515 5.90078 6.36542 5.54014 7.38461 5.54014H8.30762C8.55758 5.54014 8.77385 5.44875 8.95662 5.26613C9.13929 5.08341 9.23063 4.86714 9.23063 4.61713V2.77081C9.23063 2.52085 9.13924 2.30439 8.95662 2.12166C8.7739 1.93919 8.55763 1.84766 8.30762 1.84766H7.38461C6.38451 1.84766 5.43039 2.04255 4.52163 2.43179C3.61297 2.82128 2.82702 3.34778 2.16347 4.01132C1.49997 4.67457 0.973626 5.46057 0.584185 6.36933C0.194745 7.278 0 8.23237 0 9.23237V19.386C0 20.1556 0.269107 20.8091 0.807574 21.3477C1.34609 21.8861 2.00009 22.1553 2.76927 22.1553H8.30797C9.0771 22.1553 9.7309 21.8861 10.2695 21.3477C10.8078 20.8091 11.0771 20.1556 11.0771 19.386V13.8478C11.0771 13.0783 10.8078 12.4248 10.2691 11.8861C9.7308 11.3477 9.07675 11.0785 8.30762 11.0785ZM23.1928 11.8861C22.6545 11.3477 22.0006 11.0785 21.2313 11.0785H18.0005C17.6161 11.0785 17.2888 10.9439 17.02 10.6746C16.7506 10.4054 16.6161 10.0785 16.6161 9.69375V9.23242C16.6161 8.21313 16.9768 7.34301 17.6977 6.62177C18.4186 5.90078 19.2888 5.54014 20.3085 5.54014H21.2313C21.4813 5.54014 21.6978 5.44875 21.8804 5.26613C22.0629 5.08341 22.1546 4.86714 22.1546 4.61713V2.77081C22.1546 2.52085 22.063 2.30439 21.8804 2.12166C21.6978 1.93919 21.4814 1.84766 21.2313 1.84766H20.3085C19.3079 1.84766 18.354 2.04255 17.4449 2.43179C16.5364 2.82128 15.7507 3.34778 15.0872 4.01132C14.4236 4.67457 13.897 5.46057 13.5077 6.36933C13.1184 7.278 12.9234 8.23237 12.9234 9.23237V19.386C12.9234 20.1556 13.1928 20.8091 13.7311 21.3477C14.2695 21.8861 14.9233 22.1553 15.6926 22.1553H21.231C22.0003 22.1553 22.6541 21.8861 23.1924 21.3477C23.7311 20.8091 24 20.1556 24 19.386V13.8478C24 13.0782 23.7311 12.4248 23.1928 11.8861Z" fill="#525866"/>
</svg>
