<svg width="87" height="28" viewBox="0 0 87 28" fill="none" xmlns="http://www.w3.org/2000/svg">
<g clip-path="url(#clip0_52943_10104)">
<path d="M23.8673 13.8247C28.8009 13.7378 24.2795 3.34605 20.8523 6.89835C24.2795 3.34605 13.735 -0.801282 13.8241 4.13273C13.735 -0.801282 3.34648 3.72044 6.89846 7.14572C3.34648 3.72044 -0.802701 14.2637 4.13085 14.1768C-0.802701 14.2637 3.71861 24.6532 7.1458 21.1031C3.71861 24.6532 14.2631 28.8028 14.174 23.8688C14.2631 28.8028 24.6517 24.281 21.1019 20.8535C24.6517 24.281 28.8009 13.7378 23.8673 13.8247ZM20.3649 14.2213H20.3163C16.9135 14.2213 14.1471 17.08 14.1294 20.6189H13.8245C13.8068 17.08 11.0404 14.2213 7.63326 14.2213V13.8675C11.0537 13.8675 13.8245 10.9812 13.8245 7.42852V7.38256H14.1294V7.42852C14.1294 10.9812 16.9003 13.8675 20.3163 13.8675H20.3649V14.2213Z" fill="#4A66ED"/>
</g>
<path d="M35.3995 21.5C35.1755 21.5 35.0635 21.4253 35.0635 21.276C35.0635 21.1267 35.168 21.0296 35.3771 20.9848L35.7131 20.9176C36.0117 20.8579 36.2357 20.716 36.3851 20.492C36.5344 20.2531 36.6613 19.9245 36.7659 19.5064L40.2379 5.5064C40.2677 5.35707 40.3125 5.26 40.3723 5.2152C40.4469 5.1704 40.5141 5.148 40.5739 5.148C40.6485 5.148 40.7157 5.1704 40.7755 5.2152C40.8501 5.26 40.9024 5.35707 40.9323 5.5064L44.4715 19.708C44.576 20.1261 44.6955 20.4173 44.8299 20.5816C44.9643 20.7459 45.1733 20.8579 45.4571 20.9176L45.7931 20.9848C46.0021 21.0296 46.1067 21.1267 46.1067 21.276C46.1067 21.4253 45.9947 21.5 45.7707 21.5H41.9403C41.7312 21.5 41.6267 21.4179 41.6267 21.2536C41.6267 21.0893 41.7536 20.9997 42.0075 20.9848L42.4331 20.94C42.6869 20.9101 42.8437 20.828 42.9035 20.6936C42.9781 20.5592 42.9781 20.3277 42.9035 19.9992L42.0523 16.5272C41.9627 16.1389 41.7163 15.9448 41.3131 15.9448H38.9611C38.5728 15.9448 38.3264 16.1389 38.2219 16.5272L37.4603 19.5288C37.2363 20.38 37.4603 20.8504 38.1323 20.94L38.4683 20.9848C38.7221 21.0296 38.8491 21.1192 38.8491 21.2536C38.8491 21.4179 38.7445 21.5 38.5355 21.5H35.3995ZM38.8939 15.2728H41.3579C41.5968 15.2728 41.6939 15.1459 41.6491 14.892L40.2155 8.8888H40.1035L38.6027 14.892C38.5579 15.1459 38.6549 15.2728 38.8939 15.2728ZM46.0604 21.5C45.8364 21.5 45.7244 21.4179 45.7244 21.2536C45.7244 21.1192 45.8214 21.0296 46.0156 20.9848L46.5308 20.8952C46.8444 20.8355 47.046 20.7533 47.1356 20.6488C47.2401 20.5443 47.2924 20.3352 47.2924 20.0216V6.8504C47.2924 6.5368 47.2401 6.32773 47.1356 6.2232C47.046 6.11867 46.8444 6.03653 46.5308 5.9768L46.0156 5.8872C45.8214 5.8424 45.7244 5.7528 45.7244 5.6184C45.7244 5.45413 45.8364 5.372 46.0604 5.372H50.1148C50.3388 5.372 50.4508 5.45413 50.4508 5.6184C50.4508 5.7528 50.3537 5.8424 50.1596 5.8872L49.6444 5.9768C49.3308 6.03653 49.1217 6.11867 49.0172 6.2232C48.9276 6.32773 48.8828 6.5368 48.8828 6.8504V20.0216C48.8828 20.3352 48.9276 20.5443 49.0172 20.6488C49.1217 20.7533 49.3308 20.8355 49.6444 20.8952L50.1596 20.9848C50.3537 21.0296 50.4508 21.1192 50.4508 21.2536C50.4508 21.4179 50.3388 21.5 50.1148 21.5H46.0604ZM57.0966 21.7016C55.9916 21.7016 55.0209 21.3581 54.1846 20.6712C53.3633 19.9843 52.7212 19.0211 52.2582 17.7816C51.8102 16.5272 51.5862 15.0488 51.5862 13.3464C51.5862 11.7037 51.8326 10.2701 52.3254 9.0456C52.8332 7.80613 53.5052 6.8504 54.3414 6.1784C55.1926 5.49147 56.1334 5.148 57.1638 5.148C57.7761 5.148 58.3137 5.20773 58.7766 5.3272C59.2396 5.43173 59.6502 5.5736 60.0086 5.7528C60.1878 5.85733 60.2774 6.01413 60.2774 6.2232L60.3446 9.628C60.3446 9.88187 60.255 10.0088 60.0758 10.0088C59.9116 10.0088 59.807 9.91173 59.7622 9.7176L59.5382 8.8888C59.2246 7.724 58.8588 6.9176 58.4406 6.4696C58.0374 6.0216 57.5521 5.7976 56.9846 5.7976C55.9393 5.7976 55.0657 6.4472 54.3638 7.7464C53.6769 9.03067 53.3334 10.8973 53.3334 13.3464C53.3334 15.0189 53.5052 16.4301 53.8486 17.58C54.207 18.7299 54.6625 19.596 55.215 20.1784C55.7825 20.7608 56.3798 21.052 57.007 21.052C57.679 21.052 58.2166 20.8429 58.6198 20.4248C59.038 20.0067 59.3889 19.2003 59.6726 18.0056L59.9414 16.908C59.9862 16.684 60.1057 16.5869 60.2998 16.6168C60.4641 16.6467 60.5462 16.7736 60.5462 16.9976L60.4566 20.6264C60.4566 20.8355 60.3596 20.9923 60.1654 21.0968C59.807 21.276 59.3814 21.4179 58.8886 21.5224C58.4108 21.6419 57.8134 21.7016 57.0966 21.7016ZM61.8709 21.5C61.6917 21.5 61.6021 21.4179 61.6021 21.2536C61.6021 21.1043 61.6842 21.0147 61.8485 20.9848L62.1621 20.94C62.4757 20.8952 62.6773 20.8056 62.7669 20.6712C62.8714 20.5368 62.9237 20.3128 62.9237 19.9992V7.164C62.9237 6.8952 62.8789 6.716 62.7893 6.6264C62.7146 6.52187 62.5727 6.45467 62.3637 6.4248L61.8933 6.3576C61.729 6.32773 61.6469 6.23813 61.6469 6.0888C61.6469 5.93947 61.729 5.84987 61.8933 5.82C62.3114 5.7304 62.6623 5.62587 62.9461 5.5064C63.2298 5.38693 63.4687 5.26747 63.6629 5.148C63.9018 4.99867 64.081 4.924 64.2005 4.924C64.3647 4.924 64.4469 5.04347 64.4469 5.2824V11.2184C64.4469 11.3528 64.4917 11.4349 64.5813 11.4648C64.6709 11.4797 64.7829 11.4275 64.9173 11.308C65.4847 10.7853 65.985 10.4269 66.4181 10.2328C66.8511 10.0387 67.3066 9.9416 67.7845 9.9416C68.4863 9.9416 69.0389 10.1805 69.4421 10.6584C69.8453 11.1213 70.0469 11.8083 70.0469 12.7192V19.9992C70.0469 20.3128 70.0917 20.5368 70.1813 20.6712C70.2858 20.7907 70.4949 20.8728 70.8085 20.9176L71.3013 20.9848C71.4655 21.0147 71.5477 21.1043 71.5477 21.2536C71.5477 21.4179 71.4581 21.5 71.2789 21.5H67.5157C67.3066 21.5 67.2021 21.4179 67.2021 21.2536C67.2021 21.1043 67.2842 21.0147 67.4485 20.9848L67.7621 20.94C68.0757 20.8952 68.2773 20.8056 68.3669 20.6712C68.4714 20.5368 68.5237 20.3128 68.5237 19.9992V12.9656C68.5237 12.2339 68.3893 11.7187 68.1205 11.42C67.8517 11.1213 67.4709 10.972 66.9781 10.972C66.5002 10.972 66.0671 11.1139 65.6789 11.3976C65.3055 11.6664 65.0069 12.0323 64.7829 12.4952C64.5589 12.9432 64.4469 13.4435 64.4469 13.996V19.9992C64.4469 20.3128 64.4917 20.5368 64.5813 20.6712C64.6858 20.8056 64.8949 20.8877 65.2085 20.9176L65.8133 20.9848C65.9775 21.0147 66.0597 21.1043 66.0597 21.2536C66.0597 21.4179 65.9701 21.5 65.7909 21.5H61.8709ZM74.2893 21.7016C73.6621 21.7016 73.1469 21.5075 72.7437 21.1192C72.3405 20.716 72.1389 20.1859 72.1389 19.5288C72.1389 18.8867 72.3405 18.2819 72.7437 17.7144C73.1469 17.132 73.6994 16.6093 74.4013 16.1464C75.1031 15.6835 75.9021 15.3101 76.7981 15.0264C76.9922 14.9667 77.0893 14.8397 77.0893 14.6456V12.6072C77.0893 11.8904 76.9773 11.3827 76.7533 11.084C76.5293 10.7704 76.2231 10.6136 75.8349 10.6136C75.4615 10.6136 75.1181 10.7853 74.8045 11.1288C74.5058 11.4573 74.2893 12.0173 74.1549 12.8088C74.0802 13.2867 73.9159 13.6376 73.6621 13.8616C73.4231 14.0707 73.1767 14.1752 72.9229 14.1752C72.5047 14.1752 72.2957 13.9661 72.2957 13.548C72.2957 13.1149 72.4151 12.6893 72.6541 12.2712C72.9079 11.8381 73.2365 11.4499 73.6397 11.1064C74.0429 10.748 74.4834 10.4643 74.9613 10.2552C75.4391 10.0461 75.917 9.9416 76.3949 9.9416C77.8733 9.9416 78.6125 10.8003 78.6125 12.5176V19.372C78.6125 19.9992 78.7693 20.3128 79.0829 20.3128C79.277 20.3128 79.4562 20.1859 79.6205 19.932C79.7847 19.6632 79.8669 19.2152 79.8669 18.588C79.8669 18.3491 79.9639 18.2296 80.1581 18.2296C80.3373 18.2296 80.4269 18.3565 80.4269 18.6104C80.4269 19.7005 80.2327 20.492 79.8445 20.9848C79.4711 21.4627 79.0455 21.7016 78.5677 21.7016C78.2093 21.7016 77.9255 21.5597 77.7165 21.276C77.5074 20.9773 77.3655 20.6264 77.2909 20.2232C77.2759 20.0739 77.2087 19.9992 77.0893 19.9992C76.9847 19.9843 76.8802 20.0515 76.7757 20.2008C76.4173 20.6936 76.0514 21.0669 75.6781 21.3208C75.3047 21.5747 74.8418 21.7016 74.2893 21.7016ZM74.8941 20.6712C75.2823 20.6712 75.6407 20.5368 75.9693 20.268C76.2978 19.9843 76.5666 19.6109 76.7757 19.148C76.9847 18.6851 77.0893 18.1624 77.0893 17.58V15.9448C77.0893 15.6611 76.9325 15.5789 76.6189 15.6984C75.7079 16.0269 74.9986 16.4824 74.4909 17.0648C73.9981 17.6323 73.7517 18.3192 73.7517 19.1256C73.7517 20.156 74.1325 20.6712 74.8941 20.6712ZM83.523 21.7016C83.0004 21.7016 82.5673 21.5224 82.2238 21.164C81.8953 20.7907 81.731 20.1859 81.731 19.3496V10.972C81.731 10.7928 81.6414 10.7032 81.4622 10.7032H80.8126C80.5737 10.7032 80.4542 10.6136 80.4542 10.4344C80.4542 10.3149 80.5214 10.2104 80.6558 10.1208C81.1486 9.77733 81.5444 9.41147 81.843 9.0232C82.1417 8.62 82.403 8.07493 82.627 7.388C82.7316 7.0744 82.8585 6.9176 83.0078 6.9176C83.1721 6.9176 83.2542 7.03707 83.2542 7.276V9.7624C83.2542 9.97147 83.3588 10.076 83.5678 10.076H85.0238C85.2628 10.076 85.3822 10.1805 85.3822 10.3896C85.3822 10.5987 85.2628 10.7032 85.0238 10.7032H83.5678C83.3588 10.7032 83.2542 10.8077 83.2542 11.0168V19.372C83.2542 19.7005 83.3065 19.9619 83.411 20.156C83.5156 20.3352 83.7097 20.4248 83.9934 20.4248C84.307 20.4248 84.5609 20.268 84.755 19.9544C84.9641 19.6408 85.0985 19.1331 85.1582 18.4312C85.1881 18.2221 85.2852 18.1176 85.4494 18.1176C85.6286 18.1176 85.7182 18.2296 85.7182 18.4536C85.6734 19.6035 85.4345 20.4323 85.0014 20.94C84.5833 21.4477 84.0905 21.7016 83.523 21.7016Z" fill="#1F2937"/>
<defs>
<clipPath id="clip0_52943_10104">
<rect width="24.2667" height="24.2667" fill="white" transform="translate(1.8667 1.86621)"/>
</clipPath>
</defs>
</svg>
